<?xml version="1.0" encoding="UTF-8"?> <svg xmlns="http://www.w3.org/2000/svg" id="Layer_1" data-name="Layer 1" viewBox="0 0 300 300"><defs><style>.cls-1{fill:#d2d2d2}.cls-2{fill:#819cd0}</style></defs><path class="cls-1" d="M144.73 189.25v7.21h-7v-7.21zM168.94 190.6l10.7-28.26h5.69l-13.43 34.12H166l-13.54-34.12h5.8zM218.54 173.13a9.14 9.14 0 0 0-3.21-5 9.57 9.57 0 0 0-5.59-1.48 9 9 0 0 0-4.34 1 9.74 9.74 0 0 0-3.2 2.78 13.18 13.18 0 0 0-2 4 16.29 16.29 0 0 0-.69 4.75 19.38 19.38 0 0 0 .69 5.12 15.23 15.23 0 0 0 2 4.5 10.9 10.9 0 0 0 3.18 3.2 7.53 7.53 0 0 0 4.24 1.23 8.4 8.4 0 0 0 3.41-.66 7.93 7.93 0 0 0 2.58-1.76 9.33 9.33 0 0 0 1.78-2.58 13.07 13.07 0 0 0 1-3.15h5.76a16.19 16.19 0 0 1-1.58 5.25 12.77 12.77 0 0 1-3.07 3.95 13.06 13.06 0 0 1-4.45 2.48 17.85 17.85 0 0 1-5.67.86 14.22 14.22 0 0 1-4.78-.77 13.52 13.52 0 0 1-3.83-2.1 14.11 14.11 0 0 1-2.91-3.11 18.6 18.6 0 0 1-2-3.84 22.56 22.56 0 0 1-1.18-4.24 24.94 24.94 0 0 1-.39-4.38 19.68 19.68 0 0 1 1.1-6.61 16.41 16.41 0 0 1 3.12-5.42 14.8 14.8 0 0 1 4.9-3.65 15 15 0 0 1 6.43-1.34 17.11 17.11 0 0 1 5.53.82 13.3 13.3 0 0 1 4.19 2.28 12.25 12.25 0 0 1 2.89 3.47 15 15 0 0 1 1.63 4.36z"></path><path class="cls-2" d="M114.59 145.2h8c6.9 0 17.43-1.09 17.43-18.52h-.36c-2.18 3.63-5.81 5.81-11.26 5.81-6.54 0-14.53-4-14.53-14.53.37-9.08 6.54-15.62 15.62-15.62 9.81 0 16.34 6.54 16.34 21.43 0 24.7-13.44 26.15-24 26.15h-7.26zm5.41-27.6c0 6.53 4.35 10.17 9.44 10.17 5.81 0 9.81-3.64 9.81-10.17 0-6.91-5.09-10.54-9.81-10.54S120 110.33 120 117.6zM170.52 102.34c9.44 0 14.89 5.45 14.89 12.71a11.74 11.74 0 0 1-7.63 11.26c4 1.09 9.08 4.36 9.08 11.62 0 7.63-5.81 13.08-16.34 13.08s-16-5.45-16-13.08c0-7.26 5.08-10.53 9.08-11.62-4-1.09-7.63-5.45-7.63-11.26-.34-7.26 5.11-12.71 14.55-12.71zm10.53 35.23c0-6.17-4.72-9.08-10.53-9.08-5.45 0-10.17 2.91-10.17 9.08s4.72 9.08 10.17 9.08c5.81-.36 10.53-2.9 10.53-9.08zm-19.25-22.15c0 5.81 4 8.71 8.72 8.71s9.08-2.9 9.08-8.71-4.36-8.72-9.08-8.72c-4.72.36-8.72 2.91-8.72 8.72zM219.19 133.58V113.6h-5.45v19.98h-13.8v-30.51h-5.45v35.23h19.25v11.62h5.45V138.3H225v-4.72h-5.81zM93.16 145.2v-42.5H75v4.73h12.35v37.77H75v4.72h30.87v-4.72H93.16z"></path></svg> 