<?xml version="1.0" encoding="UTF-8"?> <svg xmlns="http://www.w3.org/2000/svg" id="Layer_1" data-name="Layer 1" viewBox="0 0 300 300"><defs><style>.cls-2{fill:#17389f}</style></defs><path id="path4011" d="M54.76 162.54h189.87v.07L50 169.33l4.76-6.79z" fill="#d10602"></path><path id="path4015" class="cls-2" d="M206.89 149.91c-.86 2.24-1.85 2.86-3.58 2.82-.94 0-1.56-.27-1.84-.93-.36-.84-.05-1.66.56-3.32l1.22-3.46c.81-2.21 1.45-3.32 3.66-3.32a2 2 0 0 1 1.83.8c.31.55.18 1.31-.34 2.8h10.36c.77-5-1.58-8.2-9.94-8.2-9.78 0-14.19 2-16.64 9s-1.2 11.76 9 11.76c9.27 0 13.76-1.44 16.32-7.93zm-98.46 1.43c-2.83 0-3.7-.8-2.46-4.25l2.69-7.37c.82-2.26 2-2.49 4.16-2.49h8.38l2-5.66h-11.84c-8.37 0-12.19.58-14.49 7.31l-3.11 8.63c-1.87 5.18-2.92 10 5.45 10h15.94l2.26-6.17zm77.34-20.67l-9.67 26.84h10.51l9.47-26.84zm-104.63 5.86h-8.22l-14.66 21h12.31l2.33-4h6.6l-.75 4h12.13l1.6-25.71H76.22l4.92 4.73zm1.52 0h.09l-2.29 12h-4.71l6.91-12zm58.12 3.41l-3.25 9.15c-.75 2-1.26 2.72-3.41 2.72h-2.61l5.23-14.53h1.89c2.15 0 2.9.68 2.15 2.66m4.15-8.14h-18l8.36 5.47h-10.24l-7.37 20.24h19.47c8.17 0 9.85-1.93 12.18-8.38l2.75-7.78c2.11-5.87 1-9.55-7.15-9.55m82.83 20c-.4-.83 0-1.66.55-3.32l1.22-3.46c.8-2.16 1.41-3.32 3.77-3.32a1.85 1.85 0 0 1 1.73.8c.34.62.14 1.49-.53 3.35l-1.41 3.87c-.88 2.4-1.72 3-3.46 3a1.85 1.85 0 0 1-1.87-.9m-.29 6c9.78 0 14.19-2 16.64-9s1.2-11.76-9-11.76c-9.78 0-14.2 2-16.64 9s-1.2 11.76 9 11.76M169 145c.65-1.73.67-3.31-1.79-3.31s-3.31.85-4.28 3.31zm8.16 5.62a9.81 9.81 0 0 1-5.22 5.64c-2.37 1.23-5.95 1.56-11.07 1.56-10.2 0-11.46-4.77-9-11.76s6.86-9 16.64-9c10.74 0 12 4.06 9.47 11.38h-16.31c-.51 1.35-1 2.61-.6 3.52s1.16 1 2.23 1a3.43 3.43 0 0 0 3.58-2.38z"></path><path id="path4019" class="cls-2" d="M246 154.52v-1.17h.79c.4 0 .83.09.83.56s-.44.61-.93.61zm0 .49h.67l1 1.65h.64L247.2 155a1 1 0 0 0 1-1.05c0-.74-.44-1.07-1.34-1.07h-1.46v3.79h.6zm.7 3a3.29 3.29 0 1 0-3.34-3.3 3.29 3.29 0 0 0 3.34 3.3m-2.68-3.3a2.68 2.68 0 1 1 2.68 2.76 2.66 2.66 0 0 1-2.68-2.76"></path></svg> 