<?xml version="1.0" encoding="UTF-8"?> <svg xmlns="http://www.w3.org/2000/svg" id="Layer_1" data-name="Layer 1" viewBox="0 0 300 300"><defs><style>.cls-1,.cls-2{fill:#1d1d1b;fill-rule:evenodd}.cls-2{fill:#fff}</style></defs><path class="cls-1" d="M75 73v154h150V73zm140.43 144.42H84.57V82.58h130.86v134.84z"></path><path class="cls-1" d="M179.55 179.62v-60.65h-61.86v60.65h61.86z"></path><path class="cls-2" d="M141.1 140.58h3.66v-2.85c-.17-4.21-3.19-5.2-6.33-5.2-3.31 0-6.25 1.36-6.25 7.76v6.25c.06 6.73-.68 10.64 5.34 10.64a5.54 5.54 0 0 0 3.61-1.75v1.43h3.52v-13.69h-6.09v3.39h2.53v4.3c0 2.24-1.21 2.65-2.65 2.65-2.52 0-2.51-2.17-2.48-5.18v-6.41c0-1.78-.4-5.92 2.48-5.92 2 .1 2.56.59 2.67 2.73v1.85zM156.95 148.86l-3.12-15.77h-4.96v23.75h3.56l-.01-15.75 3.01 15.75h2.88l3.17-15.83-.01 15.83h3.56v-23.75h-4.96l-3.12 15.77z"></path><path stroke="#1d1d1b" stroke-miterlimit="2.61" stroke-width=".87" fill="#fff" fill-rule="evenodd" d="M164.99 165.5v-5.12h-32.86v5.12h32.86z"></path></svg> 