<?xml version="1.0" encoding="UTF-8"?> <!-- Generator: Adobe Illustrator 23.0.2, SVG Export Plug-In . SVG Version: 6.00 Build 0) --> <svg xmlns="http://www.w3.org/2000/svg" xmlns:xlink="http://www.w3.org/1999/xlink" id="Layer_1" x="0px" y="0px" viewBox="0 0 434.7 434.4" style="enable-background:new 0 0 434.7 434.4;" xml:space="preserve"> <style type="text/css"> .st0{fill:#CB1E31;} </style> <g> <g id="Isolation_Mode"> <path class="st0" d="M149.6,434H72.2c-0.1-2.1-0.3-4-0.3-6c0-12.7,0-25.3,0.2-38c0.2-20.4-6.5-38.5-18.4-54.9 c-10.6-14.5-20.8-29.2-33.4-42.2c-11.7-12-15.5-27.4-17.4-43.7c-4.1-34.8-3.1-69.5-0.2-104.2c0.5-5.5,1.1-11,1.2-16.4 c0-15.7,5.8-29.2,15.5-41.2c5.1-6.3,11-12.1,15.9-18.6C44.9,56,54.3,42.9,64.1,30c6.1-8,12.5-16,19.1-23.7c3.8-4.5,8.8-7.5,15-5.6 c4.7,1.4,8.3,9,6.8,15.8c-1.4,6.4-3.4,13-6.8,18.5C87.6,51.4,77.1,67.9,65,83.2c-16.4,20.8-24.9,43.4-23,70.2 c1.3,18.8,0.7,37.6,1,56.4c0.1,7.1,0.6,14.3,0.9,21.5c0.3,6.5,4.1,10,10.7,9.8c10.7-0.4,17.9-6.6,18.2-17.3 c0.3-11.8-0.6-23.6-0.9-35.4c-0.5-22.2,0.7-44.3,5.8-66c0.9-4.7,4.2-8.5,8.7-10.1c8-3.3,12-1.5,14.8,6.7c4.8,14,4,28.6,3.6,43.1 c-0.6,16.5,0.6,33,3.5,49.2c1.5,8.2,5.2,15.2,10.1,22c7.7,10.4,15.6,20.9,21.5,32.4c9.3,17.9,11.9,37.9,11.9,57.7 c0.1,31-1.3,61.9-2.1,92.9C149.5,422,149.6,427.8,149.6,434L149.6,434z M285.6,434.2c0-11.7,0.3-22.8-0.1-33.9 c-0.5-17.5-1.5-34.9-2.2-52.4c-0.8-22.9,0.8-45.6,6.6-67.9c3.7-14.4,11-27.7,21.1-38.7c15.7-16.8,18.6-37,19.6-58.1 c0.7-14.8-0.4-29.7,0.4-44.4c0.4-7.8,3-15.6,4.8-23.3c0.8-3.5,3.4-4.6,6.8-4.5c8,0,13.6,4.3,15.4,12.1c6.9,29.6,6.6,59.4,4.6,89.4 c-0.3,4.6-0.2,9.3,0.5,13.9c1.5,9.3,10.1,15.7,19.5,14.5c6.2-0.7,9-3.8,9.1-10.3c0.4-22.7,0.8-45.3,1.2-67.9 c0.1-9.1,0.1-18.3,0.1-27.4c0-15.6-6.4-29-15.1-41.5c-13.6-19.5-27.4-39-40.5-58.8c-3.5-5.2-4.8-11.9-6.9-17.9 c-0.3-1.1-0.4-2.3-0.2-3.5c0.4-5.4,1.9-10.6,7.1-12.8s10.2,0.5,13.9,4.4c5.6,6.1,11.5,12.2,16.1,19.1 c13.5,20.5,28.2,39.9,44.9,57.9c8.8,9.4,15.8,20.4,18.1,33.4c1.3,7.5,2.1,15.2,2.3,22.8c0.9,27.9,2.3,55.9,2,83.8 c-0.2,15.1-2.1,30.2-5.4,45c-1.9,8.4-6.9,16.8-12.5,23.5c-11.4,13.7-22.5,27.5-33.1,41.9c-13.1,17.9-20.6,37.4-20.2,59.8 c0.2,11.8,0.1,23.6,0.4,35.5c0.1,4.7-0.8,6.7-6.2,6.6c-22-0.4-44-0.1-66-0.1L285.6,434.2z"></path> <path class="st0" d="M174,221.2h-35.4v-178H196c7.1,35,14.2,69.9,21.2,104.7l1,0.1c1.1-5.4,2.4-10.7,3.5-16 c5.7-28.2,11.4-56.4,17.2-84.6c0.4-1.7,2.2-4.3,3.4-4.3c18-0.3,36-0.2,54.4-0.2V221h-34.9V91l-1.2-0.2c-1.5,7.2-3.1,14.5-4.6,21.7 c-7.1,34.9-14.1,69.8-21.1,104.7c-0.6,3.2-1.9,4.4-5.2,4.4c-8-0.2-16-0.2-24,0c-3.3,0.1-4.5-1.1-5.2-4.4 c-8.1-40.8-16.4-81.6-24.8-122.3c-0.3-1.6-0.9-3.2-1.8-4.6v130.9H174z"></path> </g> </g> </svg> 