<?xml version="1.0" encoding="UTF-8"?> <svg xmlns="http://www.w3.org/2000/svg" viewBox="0 0 434.69 434.4"><defs><style>.cls-1{fill:#0a7c72}</style></defs><g id="Layer_2" data-name="Layer 2"><g id="Isolation_Mode" data-name="Isolation Mode"><path class="cls-1" d="M149.65 434H72.17c-.13-2.11-.35-4-.35-6 0-12.66 0-25.33.17-38 .22-20.44-6.46-38.51-18.39-54.87-10.6-14.47-20.78-29.25-33.4-42.21-11.72-12-15.51-27.41-17.44-43.65-4.13-34.76-3.13-69.48-.23-104.22.46-5.48 1.14-11 1.16-16.44 0-15.72 5.82-29.25 15.49-41.25 5.11-6.35 11-12.12 15.91-18.56C44.93 56 54.3 42.88 64.06 30c6.14-8 12.48-16 19.05-23.69 3.82-4.49 8.83-7.46 15-5.56 4.66 1.43 8.31 9 6.85 15.83-1.37 6.38-3.38 13-6.85 18.47C87.6 51.44 77.07 67.93 65 83.19 48.57 104 40.13 126.63 42 153.42c1.27 18.75.67 37.63 1 56.45.13 7.15.59 14.31.9 21.46.29 6.47 4.13 10 10.67 9.76 10.74-.36 17.88-6.56 18.16-17.26.3-11.8-.61-23.62-.87-35.43-.49-22.21.74-44.27 5.81-66a13.59 13.59 0 0 1 8.67-10.12c8-3.29 12-1.49 14.79 6.69 4.79 14 4 28.59 3.57 43.07a232 232 0 0 0 3.48 49.23c1.51 8.24 5.16 15.23 10.11 22 7.65 10.44 15.57 20.92 21.51 32.35 9.3 17.9 11.91 37.85 11.95 57.7.07 31-1.33 61.94-2.05 92.91-.17 5.77-.05 11.55-.05 17.77zM285.57 434.25c0-11.68.26-22.79-.06-33.89-.51-17.48-1.51-34.94-2.16-52.36-.83-22.91.76-45.58 6.61-67.85a90.29 90.29 0 0 1 21.09-38.71c15.66-16.79 18.65-37 19.59-58.15.66-14.8-.41-29.67.35-44.45.41-7.83 3-15.56 4.78-23.3.8-3.49 3.4-4.56 6.8-4.54 8 0 13.59 4.35 15.39 12.12 6.85 29.55 6.65 59.44 4.6 89.45a65.37 65.37 0 0 0 .51 13.91A17.5 17.5 0 0 0 382.56 241c6.16-.68 9-3.75 9.13-10.29q.66-34 1.17-67.93c.14-9.14.12-18.29.1-27.43 0-15.64-6.38-29-15.12-41.5-13.61-19.52-27.38-38.95-40.48-58.82-3.46-5.23-4.77-11.89-6.94-17.94a8.5 8.5 0 0 1-.21-3.46C330.62 8.27 332.12 3 337.36.8s10.25.49 13.88 4.44c5.63 6.12 11.5 12.19 16.06 19.07 13.53 20.45 28.16 39.94 44.9 57.92 8.8 9.42 15.8 20.37 18.14 33.38a158.64 158.64 0 0 1 2.27 22.83c.94 27.94 2.3 55.9 2 83.83a217.29 217.29 0 0 1-5.44 45c-1.88 8.37-6.86 16.75-12.45 23.45-11.41 13.67-22.52 27.5-33.07 41.87-13.14 17.94-20.65 37.41-20.23 59.76.24 11.82.08 23.65.41 35.47.13 4.69-.8 6.67-6.24 6.58-22-.36-44-.15-66-.15z"></path><path class="cls-1" d="M174 221.24h-35.42v-178H196q10.65 52.52 21.25 104.71l1 .15c1.15-5.35 2.37-10.68 3.46-16 5.73-28.2 11.38-56.42 17.24-84.59.35-1.66 2.2-4.28 3.39-4.3 18-.27 36-.19 54.36-.19v178.13h-34.9V91l-1.17-.15c-1.52 7.24-3.09 14.46-4.56 21.71q-10.63 52.32-21.15 104.66c-.65 3.22-1.86 4.45-5.21 4.36-8-.22-16-.2-24 0-3.31.08-4.53-1.05-5.19-4.36Q188.31 156 175.77 94.91a11.35 11.35 0 0 0-1.77-4.57z"></path></g></g></svg> 