<?xml version="1.0" encoding="UTF-8"?> <svg xmlns="http://www.w3.org/2000/svg" id="Layer_1" data-name="Layer 1" viewBox="0 0 300 300"><defs><style>.cls-1{fill:#f5333f}.cls-2{fill:#1d1d1b}</style></defs><path class="cls-1" d="M139.54 144.76h-16.73v-14.28H112.2v38.78h10.61v-15.54h16.73v15.54h10.59v-38.78h-10.59v14.28zM165.39 145.32c.89-5.23 3.79-8 8.47-8s8 3.23 8.13 8zm8.53-15.87c-11.67 0-19.49 8.06-19.49 20.14 0 12.57 7.74 20.56 19.83 20.56 9.66 0 16.29-4.43 18.77-12.82h-11.44c-1 3.06-3.46 4.6-7.1 4.6-5.47 0-8.76-3.24-9-8.88H193c0-1.36.08-1.84.08-2.49 0-13.05-7.4-21.11-19.19-21.11M211.14 130.14c-3.75.75-13.37 3.64-13.37 18.33v20.79h10.72v-17.18c0-6.35.88-9.34 3.54-11.26a10.64 10.64 0 016.69-2 12.85 12.85 0 012.9.32v-8.81a22.84 22.84 0 00-10.48-.17M242.83 162.08c-5.65 0-8.94-4.59-8.94-12.25s3.23-12.25 8.94-12.25 8.88 4.44 8.88 12.18-3.24 12.32-8.88 12.32m0-32.63c-12 0-19.75 8-19.75 20.38s7.73 20.32 19.75 20.32 19.67-8 19.67-20.32-7.75-20.38-19.67-20.38"></path><path class="cls-2" d="M66.56 113.47v35.01l16.64-11.53v-11.19l-16.64-12.29zM83.2 175.84v-24.06l-16.64 11.96 16.64 12.1z"></path><path class="cls-1" d="M37.5 174.44l16.65 12.09v-50.08L37.5 124.16v50.28z"></path></svg> 