<?xml version="1.0" encoding="UTF-8"?> <svg xmlns="http://www.w3.org/2000/svg" data-name="Layer 1" viewBox="0 0 300 300"><path d="M137.07 167.06c.71 0 5 0 8.5-.26 4.2-.3 6.37-1.74 8-3.8 2-2.56 1.95-7.35 1.95-11.08 0-4.17.06-16.24 0-17.32s-.43-1.64-1.66-1.63h-8.05c-1.24 0-1.65.55-1.67 1.63v18.74c0 2.62-.35 5.18-4.07 5.58a32.76 32.76 0 0 1-4.33.24 33.29 33.29 0 0 1-4.35-.24c-3.72-.39-3.94-3-4-5.58v-1.27-17.47c0-1.08-.43-1.64-1.66-1.63h-8.06c-1.23 0-1.64.55-1.65 1.63s0 13.15 0 17.32c0 3.73 0 8.52 2 11.08 1.59 2.06 3.72 3.5 7.91 3.8 3.48.24 7.67.26 8.59.26zm-75.58-1.56c0 1.17-.37 1.63-1.57 1.66s-7.1 0-8.17 0-1.75-.33-1.75-1.48v-31c0-1 .51-1.61 1.64-1.58s6.92 0 8.45 0c1.16 0 1.44.66 1.44 1.86v30.58m160.6-11.66c0 2.71.67 4.52 3.77 5a46.38 46.38 0 0 0 8.42 0c2.35-.26 4.17-1.22 4.28-3.89.12-2.25.13-2.64.13-5 0-5.77-.05-14.15 0-15v-.35c0-1.28.57-1.82 1.65-1.82h8.03c1.08 0 1.67.54 1.65 1.82v18.13c-.07 1.89-.21 6.3-1.66 9.09-1.27 2.43-3.54 4.29-7.4 4.68a133.24 133.24 0 0 1-19.4.21c-3.88-.2-6.37-1.07-8.44-3.37-2.34-2.64-2.47-7.14-2.43-12.31 0-11.41-.08-14.7-.06-15.79v-.64c0-1.28.56-1.82 1.64-1.82h8.23c1.08 0 1.67.54 1.65 1.82s0 15.89 0 19.11m-57.73-20.83h28.36c5.73.06 7.85.88 9.41 3a7.06 7.06 0 0 1 .53 7.91c-1 1.78-3 3.33-5.86 4.74-2.29 1.18-6.31 3-10.24 4.7-5.26 2.32-10 4.34-10.83 4.76-1.08.56-.67 1.42.19 1.4l25.11-.2c1.17 0 1.54.42 1.54 1.67v4.55c0 1.22-.42 1.55-1.57 1.56h-26.09c-3.65 0-7.42 0-9.66-1.08a6.71 6.71 0 0 1-3.76-6c.14-4.66 2.74-6.16 7.42-8.33 5.21-2.36 20.59-9 21.51-9.44 1.13-.53.78-1.57-.27-1.54-.81 0-24.37.14-25.53.14s-1.9-.19-1.9-1.32v-5.08c0-1.15.47-1.41 1.63-1.45m-60.84 17.55c-5.21-2.16-20.41-7-22.43-8-1-.42-.91-1.66.41-1.66 2.24 0 24.53.08 25.69.08s1.66-.45 1.66-1.7v-4.75c0-1.05-.41-1.48-1.37-1.48h-26.7c-7.18 0-9 1-11.06 3.48-2.65 3.19-1.81 7.51-.29 9.74 1.72 2.49 4.55 3.59 9.06 5.16 5.45 1.78 18.3 6.3 18.3 6.3 1.18.51 1.09 1.74-.36 1.74l-25.68-.22a1.52 1.52 0 0 0-1.84 1.78v4.35c0 1.17.33 1.82 1.5 1.86s22.23 0 28.72-.06c4.93 0 9.69-1.53 10.67-7 .58-4.69-1.4-7.6-6.35-9.61" fill="#e60012"></path></svg> 