<?xml version="1.0" encoding="UTF-8"?> <svg xmlns="http://www.w3.org/2000/svg" data-name="Layer 1" viewBox="0 0 300 300"><path d="M155.41 134.47a4.07 4.07 0 1 1-8.13 0 4 4 0 0 1 4.07-4.06 4.1 4.1 0 0 1 4.06 4.06zm-16.75 8.19v1a7.79 7.79 0 0 0-6.06-2.5 12.37 12.37 0 0 0 0 24.74 7.58 7.58 0 0 0 6.06-2.56v1.06a.86.86 0 0 0 .88.88h5.06v-23.5h-5.06a.9.9 0 0 0-.88.88zm0 15.06a6.21 6.21 0 0 1-5.06 2.56c-4 0-7.06-2.5-7.06-6.75s3.06-6.75 7.06-6.75a6.37 6.37 0 0 1 5.06 2.56zm9.69-15.94h6v23.5h-6zm89.59-.62a7.81 7.81 0 0 0-6.06 2.5v-13.18h-6v34.8h5.06a.9.9 0 0 0 .88-.88v-1.06a7.75 7.75 0 0 0 6.06 2.56 12.37 12.37 0 0 0 .06-24.74zm-1 19.06a6.12 6.12 0 0 1-5.06-2.57v-8.37a6.79 6.79 0 0 1 5.06-2.56c4 0 7.06 2.5 7.06 6.75s-3.06 6.75-7.06 6.75zm-14.18-8.88v14h-6V152c0-3.87-1.25-5.44-4.62-5.44a6.72 6.72 0 0 0-4.88 2.32v16.37h-6v-23.5H206a.9.9 0 0 1 .88.88v1a8.61 8.61 0 0 1 6.37-2.5 9.71 9.71 0 0 1 6.56 2.25c2.19 1.78 2.95 4.03 2.95 7.96zm-36-10.18a7.81 7.81 0 0 0-6.06 2.5v-13.18h-6v34.8h5.06a.9.9 0 0 0 .88-.88v-1.06a7.72 7.72 0 0 0 6.06 2.56 12.37 12.37 0 0 0 .06-24.74zm-1 19.06a6.12 6.12 0 0 1-5.06-2.57v-8.37a6.77 6.77 0 0 1 5.06-2.56c4 0 7.06 2.5 7.06 6.75s-3.11 6.75-7.11 6.75zm-16.25-19.06a9.58 9.58 0 0 1 2.75.31V147s-5-1.68-8.12 1.88v16.43h-6v-23.53h5.06a.9.9 0 0 1 .88.88v1a8.2 8.2 0 0 1 5.38-2.5zm-62.29 22c-.31-.75-.62-1.56-.93-2.25-.5-1.12-1-2.18-1.44-3.18l-.06-.07c-4.31-9.37-8.94-18.86-13.81-28.24l-.19-.37c-.5-.94-1-1.94-1.5-2.94a17.69 17.69 0 0 0-2.29-3.44 10.09 10.09 0 0 0-7.93-3.88 10.5 10.5 0 0 0-8 3.75 21.74 21.74 0 0 0-2.26 3.46c-.5 1-1 2-1.5 2.93l-.19.38c-4.81 9.37-9.49 18.87-13.8 28.24l-.07.12c-.43 1-.93 2.07-1.43 3.19-.32.69-.63 1.44-.94 2.25a14.1 14.1 0 0 0-.75 6.75 13.29 13.29 0 0 0 8.12 10.37 12.44 12.44 0 0 0 6.69.87 16.52 16.52 0 0 0 6.25-2.1 31.73 31.73 0 0 0 7.74-6.5 32.9 32.9 0 0 0 7.75 6.5 16.46 16.46 0 0 0 6.25 2.12 12.4 12.4 0 0 0 6.68-.87 13.26 13.26 0 0 0 8.13-10.37 11.75 11.75 0 0 0-.57-6.73zM79 166.4c-3.38-4.25-5.57-8.25-6.31-11.62a9.88 9.88 0 0 1-.19-3.78 6 6 0 0 1 1-2.63 6.63 6.63 0 0 1 5.5-2.77 6.37 6.37 0 0 1 5.49 2.74 6 6 0 0 1 1 2.63 10 10 0 0 1-.18 3.81c-.75 3.31-2.94 7.31-6.31 11.62zm24.92 2.94a9.27 9.27 0 0 1-5.68 7.31 9.5 9.5 0 0 1-4.75.62 12.49 12.49 0 0 1-4.75-1.62 29.18 29.18 0 0 1-7.12-6.06c4.12-5.06 6.62-9.69 7.56-13.81a15.53 15.53 0 0 0 .31-5.31 10.09 10.09 0 0 0-1.69-4.25 10.51 10.51 0 0 0-8.8-4.44 10.67 10.67 0 0 0-8.81 4.44 10.09 10.09 0 0 0-1.69 4.25 13 13 0 0 0 .31 5.31c.94 4.12 3.5 8.81 7.56 13.87a28.11 28.11 0 0 1-7.12 6.06 12.16 12.16 0 0 1-4.75 1.62 10 10 0 0 1-4.75-.62 9.27 9.27 0 0 1-5.68-7.31 10.23 10.23 0 0 1 .56-4.87c.19-.63.5-1.25.81-2 .44-1 .94-2.06 1.44-3.13l.06-.12c4.31-9.31 8.93-18.81 13.75-28.05l.18-.38c.5-.94 1-1.94 1.5-2.87a13.55 13.55 0 0 1 1.75-2.75 6.57 6.57 0 0 1 10 0 13.55 13.55 0 0 1 1.75 2.77c.5.93 1 1.93 1.5 2.87l.19.38c4.74 9.3 9.37 18.8 13.68 28.11v.06c.5 1 .94 2.13 1.43 3.13a20.78 20.78 0 0 1 .82 2 10.53 10.53 0 0 1 .43 4.79z" fill="#ff5a5f"></path></svg> 