<?xml version="1.0" encoding="UTF-8"?> <svg xmlns="http://www.w3.org/2000/svg" id="Layer_1" data-name="Layer 1" viewBox="0 0 300 300"><defs><style>.cls-1{fill:#eeeeec}.cls-2{fill:#1e2118}.cls-3{fill:#e2ec1c}</style></defs><path class="cls-1" d="M185.86 147.1a2.79 2.79 0 0 1 1-.92 17 17 0 0 0 3.08-2.73 10.41 10.41 0 0 0 1.9-4.3 4.14 4.14 0 0 1 2.92-3c1.93-.61 4-.71 5.86-1.67a6.85 6.85 0 0 0 3.56-3.92 15.64 15.64 0 0 0 .65-5.54c0-.85-.45-.8-1-.61a2.49 2.49 0 0 0-.82.59c-1.11 1-2.21 2.06-3.29 3.12a3.17 3.17 0 0 1-2.3 1 15.72 15.72 0 0 1-3.81-.62c-2.11-.48-3.64-.16-4.94 1.63a13.07 13.07 0 0 0-1 1.8 3.4 3.4 0 0 1-3 1.94c-1.72.08-3.44.2-5.16.28-.24 0-.57.29-.72-.1a1.05 1.05 0 0 1 .12-1c.57-1 1.49-1.64 2-2.64.3-.56.18-1.4.77-1.7s.94-1 1.31-1.62c.82-1.26 1.54-2.61 2.44-3.81 1.28-1.71 2.05-3.72 3.39-5.41a48.61 48.61 0 0 0 3.13-5c.5-.8 1-1.61 1.47-2.42.14-.23.38-.49.07-.72s-.52 0-.64.17a8.79 8.79 0 0 1-2.81 2c-3 2-5.79 4.33-8.84 6.27-2.76 1.74-5.4 3.66-8.11 5.48-.35.23-.74.81-1.12.55s-.06-.88 0-1.33a6.89 6.89 0 0 0 .14-.91c.23-2.33.42-4.63-1-6.75a4.38 4.38 0 0 1-.93-3.2 9.12 9.12 0 0 1 2.08-4.15 9.16 9.16 0 0 0 2.42-5.41c.17-3-1.47-5.34-3.49-7.38-.9-.9-1.51-.66-1.81.62a21.46 21.46 0 0 0-.42 4.38 4.5 4.5 0 0 1-1.63 3.81c-.76.57-1.61 1-2.42 1.51-2.1 1.27-3.21 1.85-3 4.71a18 18 0 0 0 .57 2.83 2.45 2.45 0 0 1-.24 2 33.3 33.3 0 0 1-4.17 4.71c-.26.28-.61.37-.75-.17-.43-1.67-.87-3.37-1.15-5-.38-2.36-.89-4.71-1.33-7.06-.47-2.53-1.17-5-1.76-7.52-.62-2.66-.84-5.42-1.66-8.19a2.57 2.57 0 0 0-.48 1.12c-.43 3.27-1.31 6.45-2 9.67-.59 2.87-1.15 5.74-1.72 8.61-.46 2.32-.91 4.64-1.37 7-.06.3-.09.7-.45.74s-.41-.32-.56-.54c-.42-.63-.81-1.28-1.27-1.87a10 10 0 0 0-4.67-3.6 10.68 10.68 0 0 1-2.61-.87c-2.1-1.29-2.16-3.56-2.56-5.58a11.41 11.41 0 0 0-2-5.23 7.42 7.42 0 0 0-3.13-2.1 9 9 0 0 0-4.82-.68c-.46.06-1.06-.17-1.28.4a1.43 1.43 0 0 0 .44 1.33c1 1.18 2.06 2.35 3.13 3.49a2.85 2.85 0 0 1 .84 1.07 8.64 8.64 0 0 1-.46 6 3.69 3.69 0 0 0 .9 4.38 30.61 30.61 0 0 0 2.61 1.85 3.66 3.66 0 0 1 1.84 3.11q0 2.16.15 4.32c0 .85-.3.8-.84.44-1.85-1.24-3.68-2.5-5.54-3.71q-3.91-2.54-7.89-4.93c-1.68-1-3.21-2.28-4.85-3.37a11.75 11.75 0 0 1-1.27-.81 30.8 30.8 0 0 0-2.72-1.91.4.4 0 0 0-.58.1c-.29.32.12.26.19.38a52.38 52.38 0 0 0 3.13 4.69c1 1.42 1.81 2.9 2.69 4.36 1.08 1.82 2.32 3.55 3.49 5.32q2.47 3.72 4.94 7.43c.14.22.42.46.24.73s-.54.15-.85.07a19.66 19.66 0 0 0-4.58-.69 7.67 7.67 0 0 0-4.35 1c-1.54.94-3.12 1.61-4.81.46-.65-.44-1.5-.47-2-1.07a10.67 10.67 0 0 0-4-2.72 5.22 5.22 0 0 0-4-.26 18.1 18.1 0 0 0-4 2.31c-.49.35-.75.87-1.25 1.19s-.34.91.13 1.18a2.9 2.9 0 0 0 1.53.57c1.17 0 2.33.24 3.51.21a3.81 3.81 0 0 1 1.69.27 7.85 7.85 0 0 1 3.64 4.43 4.6 4.6 0 0 0 2.24 2.43 4.73 4.73 0 0 0 3.71-.1 3.51 3.51 0 0 1 4 .69c1.07.93 2.07 1.92 3.09 2.88.22.21.54.38.4.76s-.43.35-.69.37a25.26 25.26 0 0 0-2.73.52c-4.45.83-8.9 1.63-13.34 2.46-2.14.4-4.28.77-6.39 1.28-1.1.26-2.36 0-3.22.79l16.55 4c-1 .41-1.75.73-2.49 1a4.2 4.2 0 0 0-2.61 2.17 6.82 6.82 0 0 0-.82 2.88c0 .39-.1 1-.7 1a16.79 16.79 0 0 1-3.4-.08c-2.29-.45-5 .49-4.8 3.66.17 2.19-.07 4.41-.09 6.61a13.35 13.35 0 0 0 0 3c.19.8-.18 1.06-1 1a26.14 26.14 0 0 0-6.06 0 10.36 10.36 0 0 0-5.75 3c-.67.66-1.64 1.24-1.74 2.29a9.58 9.58 0 0 1-.57 2.12 10.39 10.39 0 0 0-.25 4.79c.11.72-.07 1.57.4 2.18a1.81 1.81 0 0 1 .14 2c-.77 2-1.47 4.06-2.21 6.1a2.71 2.71 0 0 0 0 1.82 5.09 5.09 0 0 0 3.36 3.22 32.65 32.65 0 0 0 3.65 1.1c4.41 1.08 8.68 1.2 12.47-1.89a1 1 0 0 1 1.28 0c.89.55 1.43 1.5 2.39 1.95a16.12 16.12 0 0 0 13.41.56c.52-.21 1-.25 1.29.22a2.68 2.68 0 0 0 2.11 1.1 28.73 28.73 0 0 0 4.54.24 4.26 4.26 0 0 0 3.81-1.65c.58-.76 1.11-.91 1.7 0 1 1.56 2.5 1.94 4.28 1.83s3.65 0 5.48 0a2.66 2.66 0 0 0 1.85-.52 2.41 2.41 0 0 1 2.3-.4 21.3 21.3 0 0 0 11.31-.37c.39-.13.9-.26 1.17.1.83 1.14 2 1 3.18 1 5.89-.1 11.78-.17 17.67-.31 5.55-.13 11.1-.34 16.65-.52a5.72 5.72 0 0 0 4.9-2.36c.33-.47.6-.26.79.05 1 1.57 2.47 1.77 4.13 1.65 2.66-.19 5.33-.38 8-.5a120.62 120.62 0 0 0 12.16-1 3.56 3.56 0 0 0 2.88-3c.1-.72.35-1.41.46-2.11.27-1.57 1-3.13.19-4.75a1 1 0 0 1 .07-1c1.14-2 .95-4.28 1-6.44a25.73 25.73 0 0 1 .84-6 6.54 6.54 0 0 0 0-4.43c-.61-1.38-1.13-1.81-2.63-1.8-1.92 0-3.84.07-5.75.25-1.08.11-1.26-.22-1-1.26a10.21 10.21 0 0 0 .49-2.59 30.08 30.08 0 0 1 .71-6.7c.48-2.46-1-3.83-3.19-3.62-2.66.24-5.33.32-8 .46a101.93 101.93 0 0 1-10.19.34 4.52 4.52 0 0 0-3.18.92 1 1 0 0 1-1.32.1 4.57 4.57 0 0 0-2.18-.81c-.67-.11-1.29-.47-1.32-1.09a7 7 0 0 0-1-2.88c-.31-.6-.15-.79.43-.93 1.77-.41 3.52-.9 5.29-1.28 1.24-.26 2.4-.77 3.66-1a39.42 39.42 0 0 0 6.21-1.63 35.52 35.52 0 0 1 4.08-1.16c1.53-.34 3-.87 4.72-1.22z"></path><path class="cls-2" d="M185.86 147.1l24.57 4.42c-1.73.35-3.19.88-4.72 1.22a35.52 35.52 0 0 0-4.08 1.16 39.42 39.42 0 0 1-6.21 1.63c-1.26.23-2.42.74-3.66 1-1.77.38-3.52.87-5.29 1.28-.58.14-.74.33-.43.93a7 7 0 0 1 1 2.88c0 .62.65 1 1.32 1.09a4.57 4.57 0 0 1 2.18.81 1 1 0 0 0 1.32-.1 4.52 4.52 0 0 1 3.18-.92 101.93 101.93 0 0 0 10.19-.34c2.67-.14 5.34-.22 8-.46 2.24-.21 3.67 1.16 3.19 3.62a30.08 30.08 0 0 0-.71 6.7 10.21 10.21 0 0 1-.49 2.59c-.25 1-.07 1.37 1 1.26 1.91-.18 3.83-.23 5.75-.25 1.5 0 2 .42 2.63 1.8a6.54 6.54 0 0 1 0 4.43 25.73 25.73 0 0 0-.84 6c0 2.16.15 4.43-1 6.44a1 1 0 0 0-.07 1c.78 1.62.08 3.18-.19 4.75-.11.7-.36 1.39-.46 2.11a3.56 3.56 0 0 1-2.88 3 120.62 120.62 0 0 1-12.16 1c-2.67.12-5.34.31-8 .5-1.66.12-3.15-.08-4.13-1.65-.19-.31-.46-.52-.79-.05a5.72 5.72 0 0 1-4.9 2.36c-5.55.18-11.1.39-16.65.52-5.89.14-11.78.21-17.67.31-1.17 0-2.35.12-3.18-1-.27-.36-.78-.23-1.17-.1a21.3 21.3 0 0 1-11.42.27 2.41 2.41 0 0 0-2.3.4 2.66 2.66 0 0 1-1.85.52c-1.83 0-3.66-.1-5.48 0s-3.27-.27-4.28-1.83c-.59-.91-1.12-.76-1.7 0a4.26 4.26 0 0 1-3.81 1.65 28.73 28.73 0 0 1-4.54-.24 2.68 2.68 0 0 1-2.11-1.1c-.29-.47-.77-.43-1.29-.22a16.12 16.12 0 0 1-13.41-.56c-1-.45-1.5-1.4-2.39-1.95a1 1 0 0 0-1.28 0c-3.79 3.09-8.06 3-12.47 1.89a32.65 32.65 0 0 1-3.65-1.1 5.09 5.09 0 0 1-3.36-3.22 2.71 2.71 0 0 1 0-1.82c.74-2 1.44-4.08 2.21-6.1a1.81 1.81 0 0 0-.14-2c-.47-.61-.29-1.46-.4-2.18a10.39 10.39 0 0 1 .25-4.79 9.58 9.58 0 0 0 .57-2.12c.1-1.05 1.07-1.63 1.74-2.29a10.36 10.36 0 0 1 5.75-3 26.14 26.14 0 0 1 6.06 0c.83.06 1.2-.2 1-1a13.35 13.35 0 0 1 0-3c0-2.2.26-4.42.09-6.61-.24-3.17 2.51-4.11 4.8-3.66a16.79 16.79 0 0 0 3.4.08c.6 0 .72-.56.7-1a6.82 6.82 0 0 1 .82-2.88 4.2 4.2 0 0 1 2.61-2.17c.74-.26 1.46-.58 2.49-1l-16.55-4c.86-.83 2.12-.53 3.22-.79 2.11-.51 4.25-.88 6.39-1.28 4.44-.83 8.89-1.63 13.34-2.46a25.26 25.26 0 0 1 2.73-.52c.26 0 .58-.06.69-.37s-.18-.55-.4-.76c-1-1-2-1.95-3.09-2.88a3.51 3.51 0 0 0-4-.69 4.73 4.73 0 0 1-3.71.1 4.6 4.6 0 0 1-2.24-2.43 7.85 7.85 0 0 0-3.64-4.43 3.81 3.81 0 0 0-1.69-.27c-1.18 0-2.34-.25-3.51-.21a2.9 2.9 0 0 1-1.53-.57c-.47-.27-.67-.83-.13-1.18s.76-.84 1.25-1.19a18.1 18.1 0 0 1 4-2.31 5.22 5.22 0 0 1 4 .26 10.67 10.67 0 0 1 4 2.72c.52.6 1.37.63 2 1.07 1.69 1.15 3.27.48 4.81-.46a7.67 7.67 0 0 1 4.35-1 19.66 19.66 0 0 1 4.58.69c.31.08.64.24.85-.07s-.1-.51-.24-.73q-2.46-3.72-4.94-7.43c-1.17-1.77-2.41-3.5-3.49-5.32-.88-1.46-1.74-2.94-2.69-4.36a52.38 52.38 0 0 1-3.13-4.69c-.07-.12-.48-.06-.19-.38a.4.4 0 0 1 .58-.1 30.8 30.8 0 0 1 2.72 1.91 11.75 11.75 0 0 0 1.27.81c1.64 1.09 3.17 2.36 4.85 3.37q4 2.4 7.89 4.93c1.86 1.21 3.69 2.47 5.54 3.71.54.36.88.41.84-.44q-.13-2.16-.15-4.32a3.66 3.66 0 0 0-1.79-3.08 30.61 30.61 0 0 1-2.61-1.85 3.69 3.69 0 0 1-.9-4.38 8.64 8.64 0 0 0 .46-6 2.85 2.85 0 0 0-.84-1.07c-1.07-1.14-2.11-2.31-3.13-3.49a1.43 1.43 0 0 1-.44-1.33c.22-.57.82-.34 1.28-.4a9 9 0 0 1 4.82.68 7.42 7.42 0 0 1 3.13 2.1 11.41 11.41 0 0 1 2 5.23c.4 2 .46 4.29 2.56 5.58a10.68 10.68 0 0 0 2.61.87 10 10 0 0 1 4.67 3.6c.46.59.85 1.24 1.27 1.87.15.22.27.57.56.54s.39-.44.45-.74c.46-2.32.91-4.64 1.37-7 .57-2.87 1.13-5.74 1.72-8.61.66-3.22 1.54-6.4 2-9.67a2.57 2.57 0 0 1 .48-1.12c.82 2.77 1 5.53 1.66 8.19.59 2.5 1.29 5 1.76 7.52.44 2.35 1 4.7 1.33 7.06.28 1.67.72 3.37 1.15 5 .14.54.49.45.75.17a33.3 33.3 0 0 0 4.17-4.71 2.45 2.45 0 0 0 .24-2 18 18 0 0 1-.57-2.83c-.22-2.86.89-3.44 3-4.71.81-.5 1.66-.94 2.42-1.51a4.5 4.5 0 0 0 1.63-3.81 21.46 21.46 0 0 1 .42-4.38c.3-1.28.91-1.52 1.81-.62 2 2 3.66 4.37 3.49 7.38a9.16 9.16 0 0 1-2.42 5.41 9.12 9.12 0 0 0-2.08 4.15 4.38 4.38 0 0 0 .93 3.2c1.43 2.12 1.24 4.42 1 6.75a6.89 6.89 0 0 1-.14.91c-.11.45-.49 1 0 1.33s.77-.32 1.12-.55c2.71-1.82 5.35-3.74 8.11-5.48 3.05-1.94 5.81-4.3 8.84-6.27a8.79 8.79 0 0 0 2.81-2c.12-.17.43-.33.64-.17s.07.49-.07.72c-.48.81-1 1.62-1.47 2.42a48.61 48.61 0 0 1-3.13 5c-1.34 1.69-2.11 3.7-3.39 5.41-.9 1.2-1.62 2.55-2.44 3.81-.37.58-.58 1.26-1.31 1.62s-.47 1.14-.77 1.7c-.53 1-1.45 1.67-2 2.64a1.05 1.05 0 0 0-.12 1c.15.39.48.11.72.1 1.72-.08 3.44-.2 5.16-.28a3.4 3.4 0 0 0 3-1.94 13.07 13.07 0 0 1 1-1.8c1.3-1.79 2.83-2.11 4.94-1.63a15.72 15.72 0 0 0 3.81.62 3.17 3.17 0 0 0 2.3-1c1.08-1.06 2.18-2.09 3.29-3.12a2.49 2.49 0 0 1 .82-.59c.52-.19 1-.24 1 .61a15.64 15.64 0 0 1-.65 5.54 6.85 6.85 0 0 1-3.56 3.92c-1.87 1-3.93 1.06-5.86 1.67a4.14 4.14 0 0 0-2.92 3 10.41 10.41 0 0 1-1.9 4.3 17 17 0 0 1-3.08 2.73 2.79 2.79 0 0 0-.95.95zm-52.43-8.9l-.06.06-.17.28-.38.43a20.27 20.27 0 0 0-4.17 9.76 11.49 11.49 0 0 0-.4 3.25c-.1.81.2 1.2 1.09 1.18h7.24a3.69 3.69 0 0 1 3.94 3.06c.13.6.22 1.21.34 1.87a3.63 3.63 0 0 0 .5-.17 6.61 6.61 0 0 1 6.6-.46 1.38 1.38 0 0 0 1.2-.11 6 6 0 0 1 5.19-.1 1.73 1.73 0 0 0 1.55 0 6.31 6.31 0 0 1 8.46 3.27 6.17 6.17 0 0 1 .37 3.55c-.15.95.62 1.3 1.19 1.62.41.24.65-.42.92-.74a3 3 0 0 1 2.43-1.16 1.56 1.56 0 0 0 1.56-1.06 22.78 22.78 0 0 0 .92-19.19 21.08 21.08 0 0 0-6.66-8.75c-4.89-3.89-10.59-5.06-16.69-4.54a21.44 21.44 0 0 0-11 4.29 11.42 11.42 0 0 0-3.08 2.84zm-19.35-22.63a4.23 4.23 0 0 0 .29.87c1 1.65 2 3.26 3.15 4.81 1.94 2.72 3.76 5.51 5.66 8.24s3.75 5.44 5.63 8.16c.28.42.56.85.85 1.26.92 1.31.91 1.31 1.81 0 .45-.64 1.3-1.27 1.28-1.89s-.89-1.21-1.39-1.81l-5.68-6.81c-1.43-1.69-2.88-3.37-4.31-5.06a3.76 3.76 0 0 1 1.92 1.06c3.45 2.8 6.71 5.83 10.26 8.51.62.48 1.09 1.29 1.84 1.42s1.25-.85 1.94-1.19a1 1 0 0 0 .18-.1c1.12-.75 1.11-.77.1-1.51l-.18-.09c-.36-.27-.7-.56-1.07-.8-2.45-1.66-4.92-3.3-7.37-5zm65 51.32a1.21 1.21 0 0 0-.25-.08c-3 .06-6 .13-9 .16-.7 0-.76.49-.85.95a48.4 48.4 0 0 0-.64 6.69 19.53 19.53 0 0 0 .28 4.83 6.69 6.69 0 0 0 2.75 4.55c2.71 1.77 8.16 1.51 10.82-.38a9.77 9.77 0 0 0 3.72-5.05c.11-.34.14-.76.74-.55a11.37 11.37 0 0 0 4.29.54c4.46-.17 8.93-.39 13.38-.74a21.22 21.22 0 0 0 4.55-.84 5.1 5.1 0 0 0 3.87-4 15.47 15.47 0 0 0 .3-2.88 15.48 15.48 0 0 1 .45-4.6c.14-.45.08-.65-.43-.63h-2.27c-4.91.45-9.83.56-14.75.85-2.7.16-1.92-.2-2.63 2.29-.47 1.61-.85 3.26-2.12 4.49a2.17 2.17 0 0 1-2.32.75c-.93-.31-1.16-1.12-1.24-2a11.1 11.1 0 0 1 .43-4.09c.27-.92 0-1.15-.92-1.09-1.34.08-2.69.18-4 .13-.92 0-1.06.33-1 1.14a29.35 29.35 0 0 1-1.47 9.66 4.36 4.36 0 0 1-1.17 2 1.78 1.78 0 0 1-1.82.45c-.56-.21-.63-.82-.71-1.38a16.19 16.19 0 0 1 0-4.23c.29-2.41-.08-5 2.05-6.91-.05.08-.07.08-.12-.03zm-46.77-10.46v-.05c-1.14 0-2.28.08-3.41 0s-1.32.29-1.43 1.21c-.54 4.27-1.24 8.51-1.64 12.79a8.67 8.67 0 0 0 3.79 8.52 8.32 8.32 0 0 0 7.11.93 6.86 6.86 0 0 1 3.43-.19 10.79 10.79 0 0 0 7.38-.44 1.71 1.71 0 0 1 1.22 0 12.5 12.5 0 0 0 4.71.36c3.57-.33 6.38-1.83 8-5.2a18.65 18.65 0 0 0 1.4-5.8c.13-1-.19-1.27-1.05-1.4-1-.14-2.06-.15-3.1-.21-.7 0-1 .12-1 .87a8.2 8.2 0 0 1-1.2 4.6 3.72 3.72 0 0 1-2.72 1.58c-.47.07-.72-.06-.62-.62.19-1.12.32-2.25.51-3.37.41-2.37.42-2.37-2-2.55-2.15-.17-2.15-.17-2.35 1.89 0 .17 0 .35-.06.52-.4 2.54-1.73 4-4 4.23-.6.08-.94-.06-.81-.76.28-1.5.42-3 .83-4.48.26-1-.06-1.25-.87-1.4a26.88 26.88 0 0 0-3-.28c-1-.08-1.34.16-1.3 1.22a6.49 6.49 0 0 1-1.56 5.16 2.87 2.87 0 0 1-3.06.7c-1.15-.36-1.33-1.39-1.35-2.43a19.67 19.67 0 0 1 .67-4.39c.68-3.24 1.07-6.53 2.07-9.7.34-1.08.09-1.31-1.07-1.32s-2.35.01-3.56.01zm37.66 47.92v-.09h3.42a1 1 0 0 0 1.15-1q1-6.84 2.08-13.67c.13-.81-.11-1.06-.88-1.08a10.84 10.84 0 0 1-6.33-1.9c-.6-.43-.78-.11-.86.44a14.41 14.41 0 0 0-.28 2.25c.05 1.15-.51 1.43-1.5 1.3a1.39 1.39 0 0 0-.4 0c-1.05.27-1-.25-.89-1 .34-1.86.64-3.73.87-5.61.18-1.6-.35-2.11-1.9-2.1-2 0-3.93.05-5.9 0a1 1 0 0 0-1.2 1.07c-.17 1.6-.42 3.2-.66 4.79q-1.18 7.9-2.4 15.81c-.12.78 0 1.13.91 1.1 2.47-.09 5-.11 7.43-.11a.73.73 0 0 0 .81-.73c.35-2.24.71-4.47 1-6.72.2-1.47.18-1.47 1.66-1.52.63 0 1 0 .87.89-.39 2.34-.65 4.71-1 7.06-.09.64.08.94.84.88 1.05-.13 2.09-.06 3.12-.06zm-74.6-31.89a23.53 23.53 0 0 0 .09 4.19 10 10 0 0 0 2.67 6.64c2.29 2.25 5.16 2.48 8.09 1.82a8.4 8.4 0 0 0 6.63-5.79c.25-.77.58-1.12 1.64-.81 4.47 1.32 8.34.05 9.85-5a34.33 34.33 0 0 0 .66-5.12c.16-1.14-.08-1.5-1.26-1.55s-2.28 0-3.41-.06-1.33.22-1.18 1.22a10.67 10.67 0 0 1-.23 3.9c-.23 1.16-.89 1.85-1.75 1.9a2.35 2.35 0 0 1-2.57-1.78 5.35 5.35 0 0 1 .36-3.73c.51-1.11.51-1.11-.75-1.16a34.11 34.11 0 0 1-3.51-.12c-1-.13-1.27.25-1.21 1.11a24.56 24.56 0 0 1-.44 6.46 6.94 6.94 0 0 1-2.13 4.36 2.59 2.59 0 0 1-2.6.53c-.84-.33-1-1.19-1-2a19 19 0 0 1 2-10.1c.43-.79.13-1.06-.64-1.09s-1.86-.05-2.79-.09c-1.85-.06-3.7-.16-5.56-.19-.38 0-1-.12-.9.62.34 1.96-.14 3.88-.06 5.84zm97.15 20.94c1.71 3.13 3.35 6.13 5 9.14a1 1 0 0 0 1.1.55c1.23-.08 2.47-.15 3.7-.19 2-.07 2.16-.19 2.38-2.25.07-.6.27-1.2.31-1.8.22-3.24.86-6.43 1.24-9.65.31-2.56.72-5.11 1.09-7.66.07-.54 0-.84-.69-.75a29.14 29.14 0 0 1-3.07.35c-.71 0-1 .31-1.07 1-.17 1.51-.55 3-.65 4.49-.08 1.15-.29 2.3-.44 3.47-.42-.13-.5-.39-.63-.62-1.38-2.38-2.78-4.74-4.12-7.13a1.06 1.06 0 0 0-1.14-.64c-1.88.08-3.77.15-5.66.13-.78 0-1.12.17-1.22 1-.27 2.25-.61 4.49-.93 6.73-.64 4.52-1.27 9.05-1.92 13.57-.06.41 0 .68.49.65a33.74 33.74 0 0 0 4-.23c.35-.06.58-.18.64-.55.23-1.52.42-3.05.71-4.56s.16-3.39.88-5.05zm-60.78-1.27l-3.47-5.79c-.14-.23-.22-.54-.54-.56s-.35.28-.45.49a6.34 6.34 0 0 1-8.53 3c-.87-.41-1.27-.22-1.41.72-.39 2.66-.78 5.31-1.16 8-.25 1.8-.48 3.6-.71 5.41-.09.65-.06 1.07.86 1.07h3.62c.65 0 .83-.25.9-.8.17-1.27.35-2.52.54-3.78.27-1.78.55-3.55.84-5.46a3.44 3.44 0 0 1 .31.36l5.07 9.08c.24.43.45.85 1 .85h5.78c.52 0 .79-.2.81-.71.05-1.52.45-3 .64-4.5.38-2.93.82-5.84 1.24-8.76.33-2.34.64-4.69 1.09-7 .13-.67-.07-.84-.76-.7a18.4 18.4 0 0 1-3.37.43c-.86 0-1.14.25-1.25 1-.27 2.52-.65 4.92-1.05 7.65zm13.63 12.32a8.7 8.7 0 0 0 6.69-2.68 10.42 10.42 0 0 0 2.6-5c.62-3.37-.16-6.49-3.85-7.87-1-.36-1.88-.84-2.82-1.25a.56.56 0 0 1-.39-.64c.07-.35.36-.4.65-.37a4.34 4.34 0 0 1 .7.14 13.22 13.22 0 0 1 3.65 1.85c.58.37 1 .54 1.23-.38.37-1.5.85-3 1.29-4.46.22-.73.07-1.08-.8-1a23.46 23.46 0 0 1-5.86-.21 1.23 1.23 0 0 0-.71 0 11.9 11.9 0 0 1-5.39.66 2 2 0 0 0-1.25.33c-2.64 1.67-3.72 7.66-1.52 9.83a8.89 8.89 0 0 0 2.53 1.73 28.45 28.45 0 0 1 3.46 1.58c.55.36 1 .82.69 1.52s-.93.56-1.54.45a13.15 13.15 0 0 1-4.84-2c-.55-.35-.88-.25-1.12.33-.69 1.65-1.39 3.29-2.06 4.94-.12.3-.28.69.18.89a8.5 8.5 0 0 0 1.77.68 44.79 44.79 0 0 0 6.71.93zM87.9 180.64h-1.24c-2.27.24-4.32.93-5.58 3a8.43 8.43 0 0 0-.89 6.46 5.54 5.54 0 0 0 3.37 3.68 13.35 13.35 0 0 1 3.27 1.74 1.29 1.29 0 0 1 .44 1.48c-.23.57-.8.43-1.27.37a6.6 6.6 0 0 1-1-.28 21.43 21.43 0 0 1-3.62-2c-.42-.23-.81-.36-1 .19a44.36 44.36 0 0 0-1.81 4.91.69.69 0 0 0 .48.95 20.28 20.28 0 0 0 8.49 1.86 6.94 6.94 0 0 0 5.79-2.86 10.55 10.55 0 0 0 2-6.09 6 6 0 0 0-2.93-5.61 37.69 37.69 0 0 0-3.4-1.81c-.36-.18-.7-.41-.49-.87s.59-.29.91-.22a2.91 2.91 0 0 1 .66.28 17.51 17.51 0 0 1 3.32 2.06c.53.43.84.28 1-.38s.3-1.05.43-1.59.49-1.07.16-1.49c-.74-1-1.08-2.14-1.78-3.11-.06-.09-.24-.11-.38-.14a15.83 15.83 0 0 0-4.93-.53zm126.16-1.06c-1.17.07-2.33.1-3.5.2a1.59 1.59 0 0 0-1.66 1.56c-.5 3.74-1.1 7.48-1.65 11.22-.38 2.65-.67 5.31-1.13 8-.38 2.21-.46 2.19 1.73 2l9.68-.74c.85-.07 1.65-.15 1.79-1.26.11-.92.27-1.84.46-2.74.14-.66-.1-.88-.73-.84-1.13.07-2.26.12-3.39.17-.26 0-.63.16-.67-.25a6.19 6.19 0 0 1 .24-3.06c.26-.56 1.12-.28 1.71-.37a7 7 0 0 1 .92-.09c2.28-.09 2.33-.12 2.56-2.44.08-.77.65-1.68.16-2.26s-1.51 0-2.27-.18-1.95.93-2.38-.22c-.3-.8.16-1.88.25-2.83 0-.47.23-.63.71-.66 1.16-.08 2.33-.27 3.49-.31.91 0 1.19-.46 1.24-1.28s.21-1.91.33-2.87c.14-1.16.11-1.24-1.11-1.17-2.26.09-4.52.27-6.78.42zm-88.92-79.47c.59 1.3 1.76 2.09 2.64 3.13a4 4 0 0 1 .94 3.93 19.09 19.09 0 0 0-.79 4.25 3.32 3.32 0 0 0 1.32 3.06 18.49 18.49 0 0 0 1.76 1.09 4 4 0 0 1 2.21 3.14c.23 2 .25 3.91.32 5.87 0 1 .09 1.92 1.16 2.55 1.83 1.08 3.58 2.31 5.37 3.48a2.42 2.42 0 0 0 3.61-1.58c.23-1.24.47-2.49.74-3.73.39-1.76.73-3.43-.29-5.18-1.69-2.9-3.5-5.48-7.14-6.14a5.1 5.1 0 0 1-4-3.91c-.58-1.89-.42-3.9-1-5.79a6.08 6.08 0 0 0-6.85-4.17zm-24.78 30.77a6.16 6.16 0 0 0-4.64 2.12c-.13.15-.4.24-.32.48s.38.23.62.23a21.92 21.92 0 0 1 3.8.35 3.46 3.46 0 0 1 2.8 2 14.08 14.08 0 0 0 2.24 3.43 3.32 3.32 0 0 0 3.91 1.29 9.13 9.13 0 0 1 1.73-.34 3.87 3.87 0 0 1 3.31.83c1.18 1.06 2.42 2.07 3.55 3.21.84.85 1.57 2.06 3.18 1.69 2.45-.55 4.93-1 7.4-1.48a2.18 2.18 0 0 0 1.2-2.72c-.67-1.12-1.39-2.21-2.1-3.3-1.12-1.7-2.16-3.42-4.44-3.87-1.46-.29-2.88-.75-4.39-.9a7.36 7.36 0 0 0-4.9 1.18 5 5 0 0 1-4.52.66 11.32 11.32 0 0 1-4.44-3.08 6.88 6.88 0 0 0-3.99-1.78zm73.23-28c0-2.52-1.15-3.83-2.09-5.2a.44.44 0 0 0-.53-.23c-.22.09-.26.28-.27.5 0 .65-.1 1.3-.13 2-.08 1.58-.07 3.24-1.39 4.38a30.14 30.14 0 0 1-2.58 1.67c-1.23.87-2.58 1.62-3 3.28a7.12 7.12 0 0 0 .44 3.43 3.41 3.41 0 0 1-.54 3.2c-1.56 1.88-3.2 3.69-4.8 5.53-.38.44-.88.88-.69 1.53.63 2.21.88 4.51 1.43 6.74a2.14 2.14 0 0 0 3 1.3c2.1-1.38 4.17-2.79 6.24-4.21a2.71 2.71 0 0 0 1-1.29 16.8 16.8 0 0 0 1.13-5.12 6.8 6.8 0 0 0-1-4.23c-1.17-1.85-1.79-3.81-.6-5.92a23.41 23.41 0 0 1 2.39-3.46 7.5 7.5 0 0 0 1.99-3.87zm9.26 43.64c.69.11 1.11-.41 1.6-.68 2.87-1.57 5.26-3.51 5.94-7a5.09 5.09 0 0 1 4.05-4.18c1.43-.36 2.89-.52 4.33-.82A4.94 4.94 0 0 0 203 130a8.67 8.67 0 0 0 .33-2.14c0-.27.45-.58 0-.8s-.65.11-.9.35c-.83.77-1.62 1.58-2.48 2.32a3.2 3.2 0 0 1-3 .74 24.22 24.22 0 0 0-2.51-.5c-2.85-.39-4-.39-5.43 2.52a8 8 0 0 1-.54.88 3.76 3.76 0 0 1-2.18 1.61 27.89 27.89 0 0 1-5.83.55c-1.18.1-2.62-.25-3.43.91-1.45 2.05-2.76 4.2-4.09 6.33a1.53 1.53 0 0 0 .72 2c3.1.67 6.15 1.23 9.19 1.78zM105 204h.47c5.11 0 8.67-2.3 9.62-7.56.36-2 .53-4 .82-6 .08-.55 0-.76-.63-.73a5.48 5.48 0 0 1-3-.62c-.86-.48-1.1-.22-1.21.65-.3 2.22-.63 4.42-1 6.62a2.58 2.58 0 0 1-1.68 2.29 2.74 2.74 0 0 1-3.87-2.51 5.71 5.71 0 0 1 0-1.24c.15-1.54.35-3.07.47-4.61s.09-1.62-1.57-1.7a10.15 10.15 0 0 1-5.77-1.72c-.67-.5-.75 0-.8.47-.23 2.84-.6 5.67-.64 8.53a7.51 7.51 0 0 0 2.45 6A9.1 9.1 0 0 0 105 204zm75 .06v-.2c1 0 2.07-.07 3.1 0s1.5-.33 1.65-1.4c.57-4.06 1.21-8.11 1.84-12.16.34-2.22.73-4.44 1.08-6.66 0-.25.19-.59-.16-.73s-.42.09-.57.3a11.5 11.5 0 0 1-7.32 4.77 1.66 1.66 0 0 0-1.47 1.64c-.37 2.62-.85 5.22-1.28 7.83-.31 1.87-.58 3.74-.89 5.61-.1.66 0 1 .82 1 1.03-.01 2.1.04 3.2.04zm8.38-88.52c-1.31.3-1.88 1.14-2.65 1.67-2.22 1.52-4.41 3.07-6.61 4.61-2.74 1.9-5.4 3.91-8.19 5.74-2.07 1.36-4.08 2.84-6.11 4.26-.63.43-1 .83-.08 1.39a14.56 14.56 0 0 1 1.73 1.31.77.77 0 0 0 1.17 0c3.44-3 6.91-6 10.37-9l3.21-2.79c-.09.37-.08.48-.13.54q-2.75 3.39-5.5 6.76c-1.85 2.27-3.72 4.54-5.57 6.8-.28.34-.65.67-.31 1.18l1.56 2.32c.35.52.64.38.92-.07.42-.67.82-1.35 1.27-2 3.88-5.53 7.48-11.24 11.22-16.86 1.18-1.87 2.32-3.74 3.67-5.82zm-37-5.67h.12a7 7 0 0 1 .17.89c.46 5.4.9 10.79 1.38 16.18.23 2.56 0 2.1 2.26 2.39.2 0 .4.07.61.11 1.31.22 1.35.19 1.1-1.07q-2.37-12.34-4.77-24.67a8.25 8.25 0 0 0-.83-3c-.13.42-.23.71-.29 1-.55 2.71-1.1 5.41-1.62 8.11-1.13 5.83-2.22 11.65-3.36 17.47-.46 2.31-.49 2.3 1.84 1.91 1.53-.26 1.52-.26 1.74-1.86.06-.44.21-.87.25-1.31q.72-8.02 1.41-16.11zm42.68 42.29v.09c-.46.08-.92.18-1.38.23q-8.84 1-17.66 2c-.43.05-.76.18-.85.61-.2 1-.36 2-.53 2.94-.07.39.08.63.51.53a6.6 6.6 0 0 0 3-1.15 5.65 5.65 0 0 1 5.43-1.11 3.18 3.18 0 0 0 1.73 0l15.48-3.75a7.55 7.55 0 0 0 2.47-.82c-.81-.17-1.44-.32-2.08-.43-4-.68-8-1.28-12-1.89s-7.72-1.38-11.58-2c-.8-.14-1.86-.67-2.37-.21s0 1.62 0 2.47a2.75 2.75 0 0 1 0 .41c0 .63.25.92.91 1 2.69.16 5.36.38 8 .53 3.72.24 7.33.39 10.93.59zm-86.49.27v-.08c.46-.07.92-.16 1.38-.19 5.6-.39 11.21-.79 16.81-1.15 1-.06 1.78-.17 1.64-1.48a6.59 6.59 0 0 1 .21-1.43c.16-1.1 0-1.22-1-1q-13.08 2.29-26.16 4.61a2.14 2.14 0 0 0-1.46.51c.3.1.49.18.68.23 7.65 1.82 15.35 3.35 23 4.92 1.36.28 1.35.23 1.6-1.16a4.69 4.69 0 0 1 .33-1.3c.32-.66 0-.76-.54-.81l-3.29-.35zm12.72 11c3 0 3 0 3.29-2.56a1.76 1.76 0 0 1 .07-.4c.23-.6-.12-.84-.6-1a5.51 5.51 0 0 0-4 .1 27.59 27.59 0 0 0-5 3c-.35.27-.79.86-.17 1a6.87 6.87 0 0 0 3.32.26 12 12 0 0 1 3.1-.39zm38 2.57a3.09 3.09 0 0 0 3.13-3.08 3 3 0 0 0-2.91-3 3 3 0 0 0-3.16 3.16 2.84 2.84 0 0 0 2.97 2.92zm-13.24.11a3 3 0 0 0 3.09-3 2.86 2.86 0 0 0-3-3.09 3 3 0 0 0-3.16 3.08 2.92 2.92 0 0 0 3.1 3.02zm-23.45 14.46a3 3 0 1 0 0 6.06 2.93 2.93 0 0 0 2.85-2.9 3.11 3.11 0 0 0-2.85-3.16zm-6.7 5.92a2.9 2.9 0 0 0 3-2.75c-.14-2.09-1-3.13-3.31-3.33a3 3 0 0 0-2.79 2.87 3 3 0 0 0 3.1 3.21zm36.77-20.44a3 3 0 0 0 3.18-3.08 3 3 0 0 0-3.06-3 3.21 3.21 0 0 0-3.13 3.27 3 3 0 0 0 3.01 2.81zm-41.39-3.29a3.09 3.09 0 0 0-2.82-3.12 2.91 2.91 0 0 0-3.19 2.68 3.19 3.19 0 0 0 2.94 3.46 2.9 2.9 0 0 0 3.07-3.02zm67.63-.35a2.87 2.87 0 0 0 2.86 3.11 3 3 0 0 0 3-3 2.86 2.86 0 0 0-2.85-3.13 3.06 3.06 0 0 0-3.01 3.02zm-67.91-5.5a7.2 7.2 0 0 1 2.86 2.85c.6 1.17.59 1.17 1.7.49.35-.21.73-.37 1.08-.6a10.45 10.45 0 0 0 2-1.28 39.12 39.12 0 0 0-7.64-1.46zm64.74 4.35c.19-.52-.15-.58-.6-.51a6.66 6.66 0 0 0-.91.18c-.63.18-1.1.62-1 1.25s.46 1.33 1.29 1.39c.62.05 1.17 0 1-.91a7.22 7.22 0 0 1 .2-1.4zM164 178.09c.62.07 1.08 0 1-.77 0-.42-.21-.88-.6-.81a1.54 1.54 0 0 0-1 1.29c-.18.55.37.2.6.29z"></path><path class="cls-3" d="M134.35 137.08a15 15 0 0 1 3-2.62 21.44 21.44 0 0 1 11-4.29c6.1-.52 11.8.65 16.69 4.54a21.08 21.08 0 0 1 6.66 8.75 22.78 22.78 0 0 1-.92 19.19 1.56 1.56 0 0 1-1.56 1.06 3 3 0 0 0-2.43 1.16c-.27.32-.51 1-.92.74-.57-.32-1.34-.67-1.19-1.62a6.17 6.17 0 0 0-.37-3.55 6.31 6.31 0 0 0-8.46-3.27 1.73 1.73 0 0 1-1.55 0 6 6 0 0 0-5.19.1 1.38 1.38 0 0 1-1.2.11 6.61 6.61 0 0 0-6.6.46 3.63 3.63 0 0 1-.5.17c-.12-.66-.21-1.27-.34-1.87a3.69 3.69 0 0 0-3.94-3.06h-7.24c-.89 0-1.19-.37-1.09-1.18.13-1.08.18-2.79.18-2.79a21.72 21.72 0 0 1 2.18-6.7 18.34 18.34 0 0 1 3.79-5.33z"></path><path class="cls-1" d="M179 166.89v.13c-2.13 1.87-1.76 4.5-2.05 6.91a16.19 16.19 0 0 0 0 4.23c.08.56.15 1.17.71 1.38a1.78 1.78 0 0 0 1.82-.45 4.36 4.36 0 0 0 1.17-2 29.35 29.35 0 0 0 1.47-9.66c0-.81.12-1.17 1-1.14 1.34 0 2.69-.05 4-.13.87-.06 1.19.17.92 1.09a11.1 11.1 0 0 0-.43 4.09c.08.86.31 1.67 1.24 2a2.17 2.17 0 0 0 2.32-.75c1.27-1.23 1.65-2.88 2.12-4.49.71-2.49-.07-2.13 2.63-2.29 4.92-.29 9.84-.4 14.75-.85.75-.07 1.51 0 2.27 0 .51 0 .57.18.43.63a15.48 15.48 0 0 0-.45 4.6 15.47 15.47 0 0 1-.3 2.88 5.1 5.1 0 0 1-3.87 4 21.22 21.22 0 0 1-4.55.84c-4.45.35-8.92.57-13.38.74a11.37 11.37 0 0 1-4.29-.54c-.6-.21-.63.21-.74.55a9.77 9.77 0 0 1-3.72 5.05c-2.66 1.89-8.11 2.15-10.82.38a6.69 6.69 0 0 1-2.75-4.55 19.53 19.53 0 0 1-.28-4.83 48.4 48.4 0 0 1 .64-6.69c.09-.46.15-.94.85-.95 3 0 6-.1 9-.16a1.21 1.21 0 0 1 .29-.02zm21 2v-.06c-.75 0-1.51.14-2.27.13s-.91.23-1 .87a6.88 6.88 0 0 1-1 3.23c-.48.7-.25.85.51.79 2.67-.21 5.35-.25 8-.46s4.05-1.28 4.49-4c.11-.68 0-1-.81-.94-2.61.21-5.25.32-7.92.45zM132.27 156.43h3.62c1.2 0 1.41.24 1.07 1.32-1 3.17-1.39 6.46-2.07 9.7a19.67 19.67 0 0 0-.67 4.39c0 1 .2 2.07 1.35 2.43a2.87 2.87 0 0 0 3.06-.7 6.49 6.49 0 0 0 1.56-5.16c0-1.06.35-1.3 1.3-1.22a26.88 26.88 0 0 1 3 .28c.81.15 1.13.44.87 1.4-.41 1.46-.55 3-.83 4.48-.13.7.21.84.81.76 2.23-.27 3.56-1.69 4-4.23 0-.17 0-.35.06-.52.2-2.06.2-2.06 2.35-1.89 2.43.18 2.42.18 2 2.55-.19 1.12-.32 2.25-.51 3.37-.1.56.15.69.62.62a3.72 3.72 0 0 0 2.67-1.59 8.2 8.2 0 0 0 1.2-4.6c0-.75.29-.91 1-.87 1 .06 2.07.07 3.1.21.86.13 1.18.37 1.05 1.4a18.65 18.65 0 0 1-1.4 5.8c-1.6 3.37-4.41 4.87-8 5.2a12.5 12.5 0 0 1-4.71-.36 1.71 1.71 0 0 0-1.22 0 10.79 10.79 0 0 1-7.38.44 6.86 6.86 0 0 0-3.43.19 8.32 8.32 0 0 1-7.11-.93 8.67 8.67 0 0 1-3.79-8.52c.4-4.28 1.1-8.52 1.64-12.79.11-.92.44-1.3 1.43-1.21s2.27 0 3.41 0zM169.93 204.35c-1 0-2.07-.07-3.09 0-.76.06-.93-.24-.84-.88.31-2.35.57-4.72 1-7.06.14-.87-.24-.91-.87-.89-1.48.05-1.46.05-1.66 1.52-.32 2.25-.68 4.48-1 6.72a.73.73 0 0 1-.81.73c-2.48 0-5 0-7.43.11-.92 0-1-.32-.91-1.1q1.23-7.91 2.4-15.81c.24-1.59.49-3.19.66-4.79a1 1 0 0 1 1.2-1.07h5.9c1.55 0 2.08.5 1.9 2.1-.23 1.88-.53 3.75-.87 5.61-.14.8-.16 1.32.89 1a1.39 1.39 0 0 1 .4 0c1 .13 1.55-.15 1.5-1.3a14.41 14.41 0 0 1 .28-2.25c.08-.55.26-.87.86-.44a10.84 10.84 0 0 0 6.33 1.9c.77 0 1 .27.88 1.08q-1.1 6.83-2.08 13.67a1 1 0 0 1-1.15 1H170zM95.37 172.46c-.08-2 .4-3.88 0-5.81-.14-.74.52-.63.9-.62 1.86 0 3.71.13 5.56.19.93 0 1.87.05 2.79.09s1.07.3.64 1.09a19 19 0 0 0-2 10.1c0 .82.15 1.68 1 2a2.59 2.59 0 0 0 2.6-.53 6.94 6.94 0 0 0 2.13-4.36 24.56 24.56 0 0 0 .44-6.46c-.06-.86.22-1.24 1.21-1.11a34.11 34.11 0 0 0 3.51.12c1.26.05 1.26.05.75 1.16a5.35 5.35 0 0 0-.36 3.73 2.35 2.35 0 0 0 2.57 1.78c.86-.05 1.52-.74 1.75-1.9a10.67 10.67 0 0 0 .23-3.9c-.18-1 .17-1.35 1.18-1.28s2.27 0 3.41.06 1.42.41 1.26 1.55a34.33 34.33 0 0 1-.66 5.12c-1.51 5.07-5.38 6.34-9.85 5-1.06-.31-1.39 0-1.64.81a8.4 8.4 0 0 1-6.63 5.79c-2.93.66-5.8.43-8.09-1.82a10 10 0 0 1-2.67-6.64 23.53 23.53 0 0 1-.03-4.16z"></path><path class="cls-1" d="M192.52 193.4c-.72 1.66-.59 3.36-.89 5s-.48 3-.71 4.56c-.06.37-.29.49-.64.55a33.74 33.74 0 0 1-4 .23c-.5 0-.55-.24-.49-.65.65-4.52 1.28-9 1.92-13.57.32-2.24.66-4.48.93-6.73.1-.8.44-1 1.22-1 1.89 0 3.78-.05 5.66-.13a1.06 1.06 0 0 1 1.14.64c1.34 2.39 2.74 4.75 4.12 7.13.13.23.21.49.63.62.15-1.17.36-2.32.44-3.47.1-1.52.48-3 .65-4.49.07-.65.36-.94 1.07-1a29.14 29.14 0 0 0 3.07-.35c.65-.09.76.21.69.75-.37 2.55-.78 5.1-1.09 7.66-.38 3.22-1 6.41-1.24 9.65 0 .6-.24 1.2-.31 1.8-.22 2.06-.34 2.18-2.38 2.25-1.23 0-2.47.11-3.7.19a1 1 0 0 1-1.1-.55c-1.64-2.96-3.28-5.96-4.99-9.09zM131.74 192.13c.4-2.73.78-5.17 1.1-7.62.11-.8.39-1.06 1.25-1a18.4 18.4 0 0 0 3.37-.43c.69-.14.89 0 .76.7-.45 2.33-.76 4.68-1.09 7-.42 2.92-.86 5.83-1.24 8.76-.19 1.5-.59 3-.64 4.5 0 .51-.29.72-.81.71h-5.78c-.6 0-.81-.42-1-.85l-5.07-9.08a3.44 3.44 0 0 0-.31-.36c-.29 1.91-.57 3.68-.84 5.46-.19 1.26-.37 2.51-.54 3.78-.07.55-.25.8-.9.8h-3.62c-.92 0-1-.42-.86-1.07.23-1.81.46-3.61.71-5.41.38-2.66.77-5.31 1.16-8 .14-.94.54-1.13 1.41-.72a6.34 6.34 0 0 0 8.53-3c.1-.21.16-.5.45-.49s.4.33.54.56zM145.37 204.45a44.79 44.79 0 0 1-6.71-.83 8.5 8.5 0 0 1-1.77-.68c-.46-.2-.3-.59-.18-.89.67-1.65 1.37-3.29 2.06-4.94.24-.58.57-.68 1.12-.33a13.15 13.15 0 0 0 4.84 2c.61.11 1.23.2 1.54-.45s-.14-1.16-.69-1.52a28.45 28.45 0 0 0-3.46-1.58 8.89 8.89 0 0 1-2.53-1.73c-2.2-2.17-1.12-8.16 1.52-9.83a2 2 0 0 1 1.25-.33 11.9 11.9 0 0 0 5.39-.66 1.23 1.23 0 0 1 .71 0 23.46 23.46 0 0 0 5.86.21c.87-.08 1 .27.8 1-.44 1.48-.92 3-1.29 4.46-.23.92-.65.75-1.23.38a13.22 13.22 0 0 0-3.65-1.85 4.34 4.34 0 0 0-.7-.14c-.29 0-.58 0-.65.37a.56.56 0 0 0 .39.64c.94.41 1.86.89 2.82 1.25 3.69 1.38 4.47 4.5 3.85 7.87a10.42 10.42 0 0 1-2.6 5 8.7 8.7 0 0 1-6.69 2.58zM87.9 180.64a15.83 15.83 0 0 1 4.9.53c.14 0 .32.05.38.14.7 1 1 2.15 1.78 3.11.33.42 0 1-.16 1.49s-.31 1.06-.43 1.59-.46.81-1 .38a17.51 17.51 0 0 0-3.32-2.06 2.91 2.91 0 0 0-.66-.28c-.32-.07-.73-.19-.91.22s.13.69.49.87a37.69 37.69 0 0 1 3.38 1.79 6 6 0 0 1 2.94 5.58 10.55 10.55 0 0 1-2 6.09 6.94 6.94 0 0 1-5.75 2.91 20.28 20.28 0 0 1-8.49-1.78.69.69 0 0 1-.48-.95 44.36 44.36 0 0 1 1.81-4.91c.2-.55.59-.42 1-.19a21.43 21.43 0 0 0 3.62 2 6.6 6.6 0 0 0 1 .28c.47.06 1 .2 1.27-.37a1.29 1.29 0 0 0-.44-1.48 13.35 13.35 0 0 0-3.27-1.74 5.54 5.54 0 0 1-3.37-3.68 8.43 8.43 0 0 1 .89-6.46c1.26-2.08 3.31-2.77 5.58-3 .41-.11.83-.08 1.24-.08zM214.06 179.58c2.26-.15 4.52-.33 6.78-.45 1.22-.07 1.25 0 1.11 1.17-.12 1-.27 1.91-.33 2.87s-.33 1.25-1.24 1.28c-1.16 0-2.33.23-3.49.31-.48 0-.67.19-.71.66-.09 1-.55 2-.25 2.83.43 1.15 1.57 0 2.38.22s1.76-.42 2.27.18-.08 1.49-.16 2.26c-.23 2.32-.28 2.35-2.56 2.44a7 7 0 0 0-.92.09c-.59.09-1.45-.19-1.71.37a6.19 6.19 0 0 0-.24 3.06c0 .41.41.26.67.25 1.13-.05 2.26-.1 3.39-.17.63 0 .87.18.73.84-.19.9-.35 1.82-.46 2.74-.14 1.11-.94 1.19-1.79 1.26l-9.68.74c-2.19.18-2.11.2-1.73-2 .46-2.64.75-5.3 1.13-8 .55-3.74 1.15-7.48 1.65-11.22a1.59 1.59 0 0 1 1.66-1.56c1.17-.1 2.33-.13 3.5-.2z"></path><path class="cls-3" d="M125.14 100.11a6.08 6.08 0 0 1 6.89 4.17c.57 1.89.41 3.9 1 5.79a5.1 5.1 0 0 0 4 3.91c3.64.66 5.45 3.24 7.14 6.14 1 1.75.68 3.42.29 5.18-.27 1.24-.51 2.49-.74 3.73a2.42 2.42 0 0 1-3.61 1.58c-1.79-1.17-3.54-2.4-5.37-3.48-1.07-.63-1.12-1.54-1.16-2.55-.07-2-.09-3.91-.32-5.87a4 4 0 0 0-2.21-3.14 18.49 18.49 0 0 1-1.76-1.09 3.32 3.32 0 0 1-1.32-3.06 19.09 19.09 0 0 1 .79-4.25 4 4 0 0 0-.94-3.93c-.92-1.04-2.09-1.83-2.68-3.13zM100.36 130.88a6.88 6.88 0 0 1 4 1.83 11.32 11.32 0 0 0 4.44 3.08 5 5 0 0 0 4.52-.66 7.36 7.36 0 0 1 4.9-1.18c1.51.15 2.93.61 4.39.9 2.28.45 3.32 2.17 4.44 3.87.71 1.09 1.43 2.18 2.1 3.3a2.18 2.18 0 0 1-1.2 2.72c-2.47.51-5 .93-7.4 1.48-1.61.37-2.34-.84-3.18-1.69-1.13-1.14-2.37-2.15-3.55-3.21a3.87 3.87 0 0 0-3.31-.83 9.13 9.13 0 0 0-1.73.34 3.32 3.32 0 0 1-3.91-1.29 14.08 14.08 0 0 1-2.24-3.43 3.46 3.46 0 0 0-2.8-2 21.92 21.92 0 0 0-3.8-.35c-.24 0-.53.06-.62-.23s.19-.33.32-.48a6.16 6.16 0 0 1 4.63-2.17zM173.59 102.91a7.5 7.5 0 0 1-2 3.88 23.41 23.41 0 0 0-2.39 3.46c-1.19 2.11-.57 4.07.6 5.92a6.8 6.8 0 0 1 1 4.23 16.8 16.8 0 0 1-1.13 5.12 2.71 2.71 0 0 1-1 1.29c-2.07 1.42-4.14 2.83-6.24 4.21a2.14 2.14 0 0 1-3-1.3c-.55-2.23-.8-4.53-1.43-6.74-.19-.65.31-1.09.69-1.53 1.6-1.84 3.24-3.65 4.8-5.53a3.41 3.41 0 0 0 .54-3.2 7.12 7.12 0 0 1-.44-3.43c.39-1.66 1.74-2.41 3-3.28a30.14 30.14 0 0 0 2.58-1.69c1.32-1.14 1.31-2.8 1.39-4.38 0-.66.1-1.31.13-2 0-.22.05-.41.27-.5a.44.44 0 0 1 .53.23c.95 1.41 2.07 2.72 2.1 5.24zM182.85 146.55c-3-.56-6.09-1.11-9.14-1.7a1.53 1.53 0 0 1-.72-2c1.33-2.13 2.64-4.28 4.09-6.33.81-1.16 2.25-.81 3.43-.91a27.89 27.89 0 0 0 5.83-.55 3.76 3.76 0 0 0 2.18-1.61 8 8 0 0 0 .54-.88c1.47-2.91 2.58-2.91 5.43-2.52a24.22 24.22 0 0 1 2.51.5 3.2 3.2 0 0 0 3-.74c.86-.74 1.65-1.55 2.48-2.32.25-.24.53-.55.9-.35s0 .53 0 .8A8.67 8.67 0 0 1 203 130a4.94 4.94 0 0 1-4.22 3.83c-1.44.3-2.9.46-4.33.82a5.09 5.09 0 0 0-4.05 4.18c-.68 3.5-3.07 5.44-5.94 7-.46.31-.92.83-1.61.72z"></path><path class="cls-1" d="M105 204a9.1 9.1 0 0 1-6.32-2.14 7.51 7.51 0 0 1-2.45-6c0-2.86.41-5.69.64-8.53 0-.48.13-1 .8-.47a10.15 10.15 0 0 0 5.77 1.72c1.66.08 1.7 0 1.57 1.7s-.32 3.07-.47 4.61a5.71 5.71 0 0 0 0 1.24 2.74 2.74 0 0 0 3.87 2.51 2.58 2.58 0 0 0 1.68-2.29c.37-2.2.7-4.4 1-6.62.11-.87.35-1.13 1.21-.65a5.48 5.48 0 0 0 3 .62c.58 0 .71.18.63.73-.29 2-.46 4-.82 6-1 5.26-4.51 7.56-9.62 7.56-.22.09-.4.06-.49.01zM180 204.1h-3.2c-.83 0-.92-.33-.82-1 .31-1.87.58-3.74.89-5.61.43-2.61.91-5.21 1.28-7.83a1.66 1.66 0 0 1 1.47-1.64 11.5 11.5 0 0 0 7.32-4.77c.15-.21.31-.42.57-.3s.19.48.16.73c-.35 2.22-.74 4.44-1.08 6.66-.63 4-1.27 8.1-1.84 12.16-.15 1.07-.57 1.48-1.65 1.4s-2.07 0-3.1 0z"></path><path class="cls-3" d="M188.35 115.58c-1.33 2.08-2.49 4-3.7 5.78-3.74 5.62-7.34 11.33-11.22 16.86-.45.65-.85 1.33-1.27 2-.28.45-.57.59-.92.07l-1.56-2.29c-.34-.51 0-.84.31-1.18 1.85-2.26 3.72-4.53 5.57-6.8s3.67-4.5 5.5-6.76c.05-.06 0-.17.13-.54l-3.19 2.76c-3.46 3-6.93 6-10.37 9a.77.77 0 0 1-1.17 0 14.56 14.56 0 0 0-1.73-1.31c-1-.56-.55-1 .08-1.39 2-1.42 4-2.9 6.11-4.26 2.79-1.83 5.45-3.84 8.19-5.74 2.2-1.54 4.39-3.09 6.61-4.61.75-.45 1.28-1.29 2.63-1.59zM151.39 109.91q-.69 8.07-1.4 16.14c0 .44-.19.87-.25 1.31-.22 1.6-.21 1.6-1.74 1.86-2.33.39-2.3.4-1.84-1.91 1.14-5.82 2.23-11.64 3.36-17.47.52-2.7 1.07-5.4 1.62-8.11.06-.3.16-.59.29-1a8.25 8.25 0 0 1 .83 3q2.42 12.33 4.77 24.67c.25 1.26.21 1.29-1.1 1.07-.21 0-.41-.09-.61-.11-2.27-.29-2 .17-2.26-2.39-.48-5.39-.92-10.78-1.38-16.18a7 7 0 0 0-.17-.89zM194.07 152.2c-3.6-.18-7.21-.35-10.81-.56-2.68-.15-5.35-.37-8-.53-.66 0-.92-.33-.91-1a2.75 2.75 0 0 0 0-.41c-.06-.85-.63-1.92 0-2.47s1.57.07 2.37.21c3.86.66 7.71 1.45 11.58 2s8 1.21 12 1.89c.64.11 1.27.26 2.08.43a7.55 7.55 0 0 1-2.47.82l-15.48 3.75a3.18 3.18 0 0 1-1.73 0 5.65 5.65 0 0 0-5.43 1.11 6.6 6.6 0 0 1-3 1.15c-.43.1-.58-.14-.51-.53.17-1 .33-2 .53-2.94.09-.43.42-.56.85-.61q8.82-1 17.66-2c.46-.05.92-.15 1.38-.23zM107.58 152.47l13.22 1.29 3.29.35c.54 0 .86.15.54.81a4.69 4.69 0 0 0-.33 1.3c-.25 1.39-.24 1.44-1.6 1.16-7.7-1.57-15.4-3.1-23-4.92-.19-.05-.38-.13-.68-.23a2.14 2.14 0 0 1 1.46-.51q13.08-2.33 26.16-4.61c1.09-.19 1.21-.07 1 1a6.59 6.59 0 0 0-.21 1.43c.14 1.31-.65 1.42-1.64 1.48-5.6.36-11.21.76-16.81 1.15-.46 0-.92.12-1.38.19zM120.3 163.44a12 12 0 0 0-3.08.43 6.87 6.87 0 0 1-3.32-.26c-.62-.16-.18-.75.17-1a27.59 27.59 0 0 1 5-3 5.51 5.51 0 0 1 4-.1c.48.12.83.36.6 1a1.76 1.76 0 0 0-.07.4c-.32 2.56-.32 2.56-3.3 2.53z"></path><path class="cls-1" d="M158.32 166a2.84 2.84 0 0 1-2.94-2.9 3 3 0 0 1 3.16-3.16 3 3 0 0 1 2.91 3 3.09 3.09 0 0 1-3.13 3.06zM145.08 166.12a2.92 2.92 0 0 1-3-3 3 3 0 0 1 3.16-3.08 2.86 2.86 0 0 1 3 3.09 3 3 0 0 1-3.16 2.99zM121.6 180.57a3.11 3.11 0 0 1 2.87 3.16 2.93 2.93 0 0 1-2.85 2.9 3 3 0 1 1 0-6.06zM114.9 186.49a3 3 0 0 1-3.09-3.21 3 3 0 0 1 2.79-2.87c2.27.2 3.17 1.24 3.31 3.33a2.9 2.9 0 0 1-3.01 2.75zM151.67 166.05a3 3 0 0 1-3-2.79 3.21 3.21 0 0 1 3.13-3.27 3 3 0 0 1 3.06 3 3 3 0 0 1-3.19 3.06zM110.28 162.76a2.9 2.9 0 0 1-3.07 3 3.19 3.19 0 0 1-2.94-3.46 2.91 2.91 0 0 1 3.19-2.68 3.09 3.09 0 0 1 2.82 3.14zM177.91 162.41a3.06 3.06 0 0 1 3.06-3 2.86 2.86 0 0 1 2.85 3.13 3 3 0 0 1-3 3 2.87 2.87 0 0 1-2.91-3.13z"></path><path class="cls-3" d="M174.72 161.26a7.22 7.22 0 0 0-.12 1.4c.12.91-.43 1-1 .91-.83-.06-1.14-.76-1.29-1.39s.32-1.07 1-1.25a6.66 6.66 0 0 1 .91-.18c.35-.07.69-.01.5.51zM164 178.09c-.18-.1-.73.26-.6-.29a1.54 1.54 0 0 1 1-1.29c.39-.07.56.39.6.81 0 .77-.43.84-1 .77zM133.43 138.2l.01.08-.07-.02v-.06h.06zM114.09 115.58l-.04-.02h.02l.02.02z"></path><path class="cls-2" d="M200 168.9c2.64-.13 5.28-.24 7.93-.42.8 0 .92.26.81.94-.44 2.7-1.72 3.76-4.49 4s-5.35.25-8 .46c-.76.06-1-.09-.51-.79a6.88 6.88 0 0 0 1-3.23c.08-.64.34-.88 1-.87s1.52-.08 2.27-.13z"></path><path class="cls-3" d="M114.05 115.56a4.23 4.23 0 0 0 .29.87c1 1.65 2 3.26 3.15 4.81 1.94 2.72 3.76 5.51 5.66 8.24s3.75 5.44 5.63 8.16c.28.42.56.85.85 1.26.92 1.31.91 1.31 1.81 0 .45-.64 1.3-1.27 1.28-1.89s-.89-1.21-1.39-1.81l-5.68-6.81c-1.43-1.69-2.88-3.37-4.31-5.06a3.76 3.76 0 0 1 1.92 1.06c3.45 2.8 6.71 5.83 10.26 8.51.62.48 1.09 1.29 1.84 1.42s1.25-.85 1.94-1.19a1 1 0 0 0 .18-.1c1.12-.75 1.11-.77.1-1.51l-.18-.09c-.36-.27-.7-.56-1.07-.8-2.45-1.66-4.92-3.3-7.37-5l-14.92-10.14"></path></svg> 