<?xml version="1.0" encoding="UTF-8"?> <svg xmlns="http://www.w3.org/2000/svg" id="Layer_1" data-name="Layer 1" viewBox="0 0 300 300"><defs><style>.cls-1{fill:#145e32}.cls-2{fill:#bb9430}.cls-4{fill:#186233}.cls-5{fill:#206735}.cls-6{fill:#155f32}.cls-7{fill:#1b6334}.cls-11{fill:#fefefe}.cls-14{fill:#1c6434}.cls-15{fill:#bb9431}.cls-19{fill:#b68e31}.cls-25{fill:#1e6534}.cls-31{fill:#296e37}.cls-32{fill:#2d7238}.cls-33{fill:#226835}.cls-34{fill:#246a36}.cls-36{fill:#609843}.cls-40{fill:#45853d}.cls-45{fill:#236935}.cls-48{fill:#4e8f3f}.cls-50{fill:#609d42}.cls-58{fill:#5a9441}.cls-63{fill:#6ca046}.cls-65{fill:#3b7e3b}.cls-67{fill:#4c8c3e}.cls-70{fill:#ba943b}.cls-72{fill:#bb9435}.cls-73{fill:#377a3a}.cls-75{fill:#356d39}.cls-76{fill:#2e6e38}.cls-77{fill:#2a6836}.cls-82{fill:#327639}.cls-86{fill:#679c45}.cls-91{fill:#43853d}.cls-95{fill:#93b454}.cls-97{fill:#49783e}.cls-101{fill:#70a646}.cls-105{fill:#397c3a}.cls-106{fill:#145f32}.cls-110{fill:#a3b55f}.cls-112{fill:#8db451}.cls-115{fill:#b0c661}.cls-118{fill:#9fba5a}.cls-119{fill:#b9cc65}.cls-125{fill:#bccc67}.cls-132{fill:#c0d168}.cls-136{fill:#d8de75}</style></defs><path class="cls-1" d="M62.85 106h173.34c1 0 1.3.18 1.3 1.27q-.06 38.31 0 76.62c-.14.49-.58.57-1 .71a105.39 105.39 0 0 1-21.73 5.21 87.71 87.71 0 0 1-15.87.66 117.63 117.63 0 0 1-13.09-1.4 191.27 191.27 0 0 1-26.88-7.1c-6.77-2.2-13.51-4.5-20.34-6.49a126.9 126.9 0 0 0-23.15-4.62 86.11 86.11 0 0 0-12.33-.43c-3.83.17-7.64.59-11.44 1.1a127.06 127.06 0 0 0-20.59 4.67c-2.37.73-8.52 1.85-8.52 1.85s-.06-30.76-.05-45.64v-23-.76-.88-.83a2.81 2.81 0 0 1 0-.5.72.72 0 0 1 .35-.44z"></path><path class="cls-2" d="M114.59 153.14a2.49 2.49 0 0 0 .46-1.13c-.24-.27-.47-.12-.67 0a9.39 9.39 0 0 1-7.41.52 16.26 16.26 0 0 1-8-5.09c-.52-.6-.67-.59-1.09.15a12 12 0 0 1-9.23 6c-3 .44-5.92.13-8.88.2h-4.82c-.71 0-1-.21-.68-.9.81-1.53.67-3.17.67-4.81v-21.15a7.34 7.34 0 0 0-.66-3.34c-.31-.65-.22-1 .66-1 4.56.11 9.14-.18 13.7.19 2.4.19 4.67.74 6.44 2.59a6 6 0 0 1 1.9 5.28 5.26 5.26 0 0 0 0 .69c.84-.3 1.36-1 2.1-1.35 3.48-1.66 6.8-1 10.07.56a17.62 17.62 0 0 1 6.21 5.07c-.15-2.51.37-4.82-.75-7-.28-.54-.05-.64.46-.64 3 0 6-.16 9 .1a9.64 9.64 0 0 0 3-.34c3.61-.74 6.87-.31 9.48 2.56.08 0 .16.17.23.1a.48.48 0 0 0 0-.54 10.49 10.49 0 0 1-.74-3.57 4.89 4.89 0 0 1 1.85-4.25 8.77 8.77 0 0 1 4.73-2.31 4.08 4.08 0 0 1 4.08 1.85 3.69 3.69 0 0 1 0 4.07 8.81 8.81 0 0 1-1.78 2.34h1.79c.6 0 .91.15.61.83a9.92 9.92 0 0 0-.39 1.33c5.82-3.55 11.53-4 17.08.4.45 0 .34-.21.23-.45-.66-2.1-.66-2.13 1.59-2.09 2.71 0 5.42-.1 8.14.08.88.06 1.79-.52 2.73-.54s2-.67 2.87.4c.09.13.46 0 .71 0a30 30 0 0 1 5.11.06c1.86.31 3.5-.42 5.25-.57 2.77-.24 5.36.22 7.43 2.27a7.25 7.25 0 0 1 1 1.34c.26.43.41.43.73 0 4-4.92 13.45-4.67 17.39-.88a13.27 13.27 0 0 1 4 8.51 17.43 17.43 0 0 1-.9 7.93c-.41 1.1-1.16 2-1.6 3a8.17 8.17 0 0 1-3.86 3.46 13.76 13.76 0 0 1-3 1 16 16 0 0 1-5.86 0 9.57 9.57 0 0 0-1.42-.38 7.51 7.51 0 0 1-4.05-2.42c-.18.16.06.27.05.41s.2.5.27.76c.21 1.15.06 1.45-.95 1.46-3.41 0-6.82.07-10.23 0-.74-.24-.57-.69-.28-1.17a3.27 3.27 0 0 0 .61-1.24 2.54 2.54 0 0 0 .21-1.12v-13.54a1.94 1.94 0 0 0-.15-1c-1-.91-1.92-.64-2.54.79-.15 2.3 0 4.59-.07 6.89v4.38a11.29 11.29 0 0 0 .73 5.21c0 .66-.4.83-.93.84h-9.77c-.91 0-1-.22-.81-1.44a7.41 7.41 0 0 0 .56-3.16v-12.12c0-.49.36-1.21-.37-1.45a2.32 2.32 0 0 0-2.21 1.24 2.6 2.6 0 0 0-.11.83v12.65a11.65 11.65 0 0 0 .63 2.62c.08.88-.59.83-1.13.84h-9.2c-1.12 0-1.45-.3-1.08-1.55a6.38 6.38 0 0 0 .23-.81c-5.54 3.82-11.09 3.76-16.76 0a9.67 9.67 0 0 1-6.36 8.8 20.84 20.84 0 0 1-2.91.59 2.76 2.76 0 0 1-1.18 0c-.75-.19-1.53-.17-2.26-.42a14.05 14.05 0 0 1-2.84-1.24 9.82 9.82 0 0 1-3-2.82 1.91 1.91 0 0 1-.15-.28 2.06 2.06 0 0 1 .14-2.05 1 1 0 0 1 .42-.27 6.09 6.09 0 0 1 2.77.33 4 4 0 0 0 3.85-.29c-2.44 0-4.64-.06-6.83-.05-.68 0-1.22-.06-1.11-.94a5.07 5.07 0 0 0 .24-1.22v-15.16c0-.45 0-1-.56-1.12a1.33 1.33 0 0 0-1.37.27 1.77 1.77 0 0 0-.42.71 2.85 2.85 0 0 0-.17 1.23v12.84a9.38 9.38 0 0 0 .37 2c.24 1.11 0 1.44-1.1 1.41a52.91 52.91 0 0 1-6.66-.18 18.93 18.93 0 0 0-2.82 0c-.67.13-1.03.03-.66-.59z"></path><path class="cls-2" d="M219 150.4a5.24 5.24 0 0 1 1.91-1c2.72-.76 4.81.77 4.85 3.61v.71c.27.14.42 0 .59-.13a2.16 2.16 0 0 1 3.07.76 2.23 2.23 0 0 1-.56 3.14c-.14.11-.29.19-.43.29-.45.34-1.06.58-1.29 1s.48.81.66 1.3a8 8 0 0 1 .17 3.51c0 .28-.15.47.25.64 2.5 1.09 2.91 2.66 1.28 4.78-.5 1.34-1.79 1.76-2.84 2.45a5.48 5.48 0 0 1-1.05.46 5.2 5.2 0 0 1-3.82-.12c.83 1.21 1.52 2.53.77 4.09-.5.63-1 1.28-1.89 1.32a2.6 2.6 0 0 1-2.55-.87 6 6 0 0 1-1.27-2.47c-.44-1.32-.44-1.32-1.75-.91h-.28a3.85 3.85 0 0 1-3.43-1.06.3.3 0 0 0-.39.1c-.29.16-.44.45-.68.65a5.77 5.77 0 0 1-1.79 1.21 1.43 1.43 0 0 1-.28.07 3.58 3.58 0 0 1-3.18-.93c-.57-.57-1-.06-1.47.2s-1 .51-1.48.71-1 .46-1.5.65l-1.16.38c-.69.1-1.35.3-2 .46a2.73 2.73 0 0 1-.5.05 7.57 7.57 0 0 1-4.1-.79c-.19-.17-.34-.39-.53-.56a4.07 4.07 0 0 1-1.09-1.1 5 5 0 0 1-.61-.91 2.71 2.71 0 0 0-.5-.79 1.06 1.06 0 0 1-.22-.51 3 3 0 0 1 0-.42 2.71 2.71 0 0 0-.1-1c0-.1-.05-.19-.07-.29a3.2 3.2 0 0 1 0-1.07c.12-.4.15-.81.24-1.21a11.11 11.11 0 0 1 .41-1.63c.23-.54.61-1 .85-1.53.16-.28.3-.58.46-.86s.31-.45.45-.68c.36-.41.64-.88 1-1.28a5.12 5.12 0 0 0 .7-.84 15.53 15.53 0 0 0 1.35-1.21l.49-.47.48-.49a4.56 4.56 0 0 1 .91-.65c.89-.59 1.82-1.11 2.75-1.65a13.78 13.78 0 0 1 4-1.2 1.06 1.06 0 0 1 .31 0 5 5 0 0 1 2.4.58 2.87 2.87 0 0 1 1.19 1.07 3.12 3.12 0 0 1-.28 3.64 2.17 2.17 0 0 1-2 .49 5.13 5.13 0 0 0-3.5.52 9.62 9.62 0 0 0-1.76 1.07 14.73 14.73 0 0 0-1.71 1.45 3.75 3.75 0 0 0-1.05 1 7.88 7.88 0 0 0-1 1.45 5.56 5.56 0 0 0-.78 1.51c-.11.79-.39 1.69.32 2.24s1.72.08 2.55-.22a19 19 0 0 0 1.91-.83 7.78 7.78 0 0 0 2.2-1.31c.68-.54 1.53-.79 2.18-1.37a3.62 3.62 0 0 0 1.65-1.42 5 5 0 0 0 .79-1.14 4 4 0 0 1 1.19-1.06 9.36 9.36 0 0 1 2.42-1.51 3.15 3.15 0 0 1 1.51-.27c.91.08 1.39-.23 1.31-1.2a1.3 1.3 0 0 1 .15-.6 2.15 2.15 0 0 1 .14-.26c.21-.27.45-.52.65-.78.37-.45 1.18-.43 1.24-1.19a13.54 13.54 0 0 1 1.74-4.28 3.72 3.72 0 0 1 1.4-1.49z"></path><path d="M128.82 154.24l-.19.16c-.66.69-.39 1.38 0 2.08.21.41 0 .59-.37.69s-.7.18-.77-.25-.36-.33-.6-.23c-.57.23-1.23.28-1.65.84a.71.71 0 0 1-.85.2c.1.42.44.51.76.63a1.28 1.28 0 0 1 .72.57c.11.22.22.47 0 .68s-.39.06-.58 0a2.84 2.84 0 0 0-1.16-.45.86.86 0 0 1-.27-.09c-.53-.52-1.08.6-1.61 0-.08.08 0 .18 0 .27a1.3 1.3 0 0 1-1.11 1.31c-.67.1-1.17-.35-1.43-1.14 0 .57.75 1.07 0 1.47-.53.29-1.1.78-1.71-.26 0 1.33-1.11 1.32-1.71 1.87-.27.25-.27-.27-.43-.4s-.1-.55-.42-.73a6.57 6.57 0 0 0 .46.79c.11.6.21 1.14-.76.93-.5-.1-1 0-.86.78a.55.55 0 0 1-.58.69c-1.11-.18-1.9.56-2.84.86-.57.18-1.29.06-1.64.79.72.12 1.36-.4 2.11-.37.57 0 1-.05 1.17.66s.83.28 1.25.27c.84 0 1.59 0 1.9 1-.11.24-.31.49-.55.39-1.14-.5-2.23 0-3.34.11-.65 0-1.14-.56-1.86-.53s-1.34-.37-2 .32c-.24.25-1 0-1.54 0-1.91-.16-3.77-.63-5.66-.86-.91-.12-.9-.78-1.09-1.29s.36-.67.69-1a2.81 2.81 0 0 1 2.66-.88c.33.08.32-.16.4-.34s.24-.61.52-.59c1.36.09 1.38-1.07 1.7-1.85.22-.54.71-.74 1-1.16.42-.62.85-1.23 1.28-1.85.1-.14.18-.32.4-.22a.27.27 0 0 1 .12.43c-.36.47.27 1.42-.77 1.55-.24 0-.06.17 0 .29 0 .47.53.36.76.59s.36 0 .38-.2c.06-.57 1-.7.73-1.43-.06-.17.19-.23.36-.29a3.88 3.88 0 0 0 2.23-1.54c.22-.33 1.07-.06 1.58.22.28-.29-.38-.92.39-1a.46.46 0 0 0 .07-.07c.4-.55.63.41 1.18.1s1.07.37 1.49.78a2.65 2.65 0 0 0 2.54.54 2.59 2.59 0 0 0 .55-.28c.22-.11.53-.09.65-.48a2.28 2.28 0 0 1-.68.5 2.13 2.13 0 0 1-2.55-1.06c-.22-.54.5-1.75 1.07-1.77.29 0 .34.17.31.41s-.24.51 0 .86c.4-.59-.08-1.82 1-1.6a1.29 1.29 0 0 1-.62.07c-.22-.08-.28-.33-.48-.43a1.22 1.22 0 0 1-.42-.29c-1.26-.12-2.54.26-3.78-.21a.28.28 0 0 1 0-.42l.25-.2c-.11.46.08.62.54.62h9.94c.29 0 .61 0 .44-.46-.82-2.23-.43-4.56-.47-6.84-.06-2.93 0-5.86 0-8.79a2 2 0 0 1 .2-1.32c.4.4.28.91.28 1.39v11.83a2.73 2.73 0 0 0 1.14 2.52c.51.36.36.6 0 1-.49.61-1.26 1.11-1.06 2.09a.24.24 0 0 0 .15.18c.52-.74 1.59-.72 2.12-1.49.28.09.83-.37.92.33z" fill="#166032"></path><path class="cls-4" d="M123.93 159.09c.8-.59 1.17.37 1.9.4-.16-.47-.27-.84-.84-.93s-1.07-.52-.91-1.37c.44.48.74.48 1.18-.06.63-.77 1.72-.59 2.52-1 .24.41-.24.52-.17.85.45.09.87.13 1-.49a15.12 15.12 0 0 0 2.91 2.74 2.71 2.71 0 0 1-1.63 1.86 4.63 4.63 0 0 1-1.65.12 1.34 1.34 0 0 0-1.65.75 1.74 1.74 0 0 1-1.93.9 6.7 6.7 0 0 0-4.37 1.55c-.5.35-1.26.36-1.5 1.1 0 .08-.2.07-.29 0-.89-.44-1.41.26-2.16.65.46.05.79-.24 1.12 0 2.45 1.59 5.37 1.48 8 2.19a10.83 10.83 0 0 0 2.87.47 14.46 14.46 0 0 1 4.7 1.32c.16.18.43.3.32.61-.88.13-1.61-.44-2.52-.47a10.5 10.5 0 0 1-5-1.13 2.67 2.67 0 0 0-1.71-.19 4.85 4.85 0 0 1-3.34-.58c-.81-.52-1.61-.19-2.32-.16s-1.35.2-2-.32c-.24-.2-.61.15-.9-.08a2.12 2.12 0 0 0-2.44-.65c-.71.37-.6-.52-1-.32-.11-1.69-1.24-.43-1.82-.52s-1.1.37-1.68.11c.51-1.22 1.83-1 2.76-1.5.65-.33 1.29-.92 2.16-.5.2.09.48-.11.47-.42s-.92-.8.28-1a1.5 1.5 0 0 1 1.3.14l.17-1c.19 0 .33.61.5.11s.38-.35.6-.44c.43-.16.91-.23.63-.9-.13-.31.14-.41.4-.48s.32-.05.38.18c.32 1.14.87.27 1.22.07s.1-.63 0-.94-.58 0-.4-.44a.57.57 0 0 1 .35-.21c.4-.08.45.29.51.52.17.67.71.73 1.24.84 0-.56 1.36-.56.61-1.46a.31.31 0 0 1 .15-.51c.52-.19.45.38.73.62.38-.51.8-1.09 1.25 0v0c0-.07.17-.08 0-.09s-.04.07 0 .06zM225.73 171.71a11.55 11.55 0 0 0 3.8-2.64c.31.42.63.84-.18 1.08a.38.38 0 0 0-.22.3 19.27 19.27 0 0 0 .14 2.55c.47 1.36.34 2.75.69 4.07s.12 2.86.56 4.24c0 .14.31.33.09.42-1.37.58-1.93 2.69-3.92 2.1-.88.8-2.39.14-3.1 1.34-.09.16-.26 0-.33 0-.4.12-1.07-.52-1.18.42 0 .17-.21 0-.32 0a.83.83 0 0 0-1 0 7.62 7.62 0 0 1-3.62 1 3.77 3.77 0 0 0-1.59.46c-.73.92-1.68.15-2.48.48s-1.76 0-2.59.22a35.09 35.09 0 0 1-8.77.95 41.29 41.29 0 0 1-7-.63c-2.27-.35-4.6-.36-6.87-.79-2-.39-4-.73-5.95-1.3s-3.76-.8-5.56-1.5a41.13 41.13 0 0 0-4.25-1.25c-2.76-.75-5.44-1.7-8.18-2.46-2.12-.59-4-1.7-6.18-2.17a3.78 3.78 0 0 1-2.18-1.16c.38-.36.78-.19 1.16 0 1.14.48 2.36.75 3.46 1.33a2.13 2.13 0 0 0 1.2.24 6.82 6.82 0 0 1 1.55.56 4.66 4.66 0 0 0 1.72.64l.27.09a22.16 22.16 0 0 0 3.64 1.2c.24.07.48.14.72.23a8.78 8.78 0 0 0 3.17.92c2 .57 4 1.12 6 1.71a116 116 0 0 0 14.87 3.06c.51.08 1 0 1.56.1a7.84 7.84 0 0 0 1.87.16 1.86 1.86 0 0 1 .34.07 9.88 9.88 0 0 0 2.24.12 2.81 2.81 0 0 1 .71.08c1.88.37 3.74-.1 5.61-.18a18.82 18.82 0 0 0 2.57-.33 30.11 30.11 0 0 0 5.73-.9 60.05 60.05 0 0 0 6.33-1.65c.23-.11.48-.2.73-.29.86-.12 1.67-.44 2.53-.56a4.64 4.64 0 0 0 2.15-.82 6.63 6.63 0 0 1 1.12-.43 4.35 4.35 0 0 0 .75-.37 1.26 1.26 0 0 1 .28 0c1-.27 1.37-.85 1.08-1.78a21.54 21.54 0 0 0-1.21-4.17 15 15 0 0 0-1.24-1.76 4.47 4.47 0 0 1-1.22-2.61c.15-.27.43-.17.5-.39z"></path><path class="cls-5" d="M161.46 179.11c-.64.33-1.13-.09-1.69-.29a18.66 18.66 0 0 0-4.18-1.39c-1.45-.32-2.75-1.08-4.18-1.47-3.83-1.27-7.64-2.6-11.53-3.68-1.72-.48-3.44-1-5.19-1.37-.46-.1-.79-.28-.69-.83 1-.73 1.93-.06 2.81.21 2.54.77 5 1.81 7.61 2.33 3.66 1.24 7.3 2.53 10.93 3.83.77.14 1.41.63 2.17.78 1.17.62 2.49.9 3.68 1.5a.55.55 0 0 1 .26.38z"></path><path class="cls-6" d="M119.78 157.74c-.44.71-1 .67-1.82.66-1.33 0-1.71-1.41-2.86-1.57-.17.22.13.63-.37.8 0-.55 0-1.11-.81-.94a1.2 1.2 0 0 1 .51-1.72c.19-.11.4-.16.53.09s-.11.24-.27.32 0 .3.07.43.29.08.44 0c.44-.16.53-.6.81-1 .43 1.08 1 .78 1.09 0s.94-.27 1-.85h.62c.2.16-.45.61.21.62a.67.67 0 0 0 .71-.34c.09-.14.25-.3.42-.16a.65.65 0 0 1 .19.66c-.06.2-.24.22-.43.17-.5-.12-1.09-.37-.58.58.13.25-.44.47-.24.84-.27 0-.52.21-.8.06s-.15-.4-.07-.63.3-.38.18-.69l-.82.77a.66.66 0 0 0 .07 1.09c.66.47 1.26 1.18 2.22.81z"></path><path class="cls-7" d="M219 150.4a12.86 12.86 0 0 0-3.09 5.88c-.22.18-.29.57-.67.49s-.24-.33-.23-.55c.16-.57 0-.91-.63-1s-1.17-.38-1.8-.43a.83.83 0 0 1-.79-.57.45.45 0 0 1 .1-.27 12 12 0 0 0 5.55-3c.37-.4.76-.79 1.14-1.19a.71.71 0 0 0 .42.64z"></path><path d="M134 170.1c.45.93 1.42.76 2.18 1a20.21 20.21 0 0 1 3.46 1 25.86 25.86 0 0 0 2.68.77 50 50 0 0 1 7.69 2.68c.44.22 1.09-.15 1.38.5a26 26 0 0 1-5.13-1.47c-1.15-.38-2.31-.77-3.47-1.08a16 16 0 0 0-2.33-.73c-1.4-.13-2.6-.87-3.91-1.14-1.08-.23-2.13-.5-3.18-.82l-.41-.41a1.1 1.1 0 0 1 .92-.28z" fill="#1a6233"></path><path d="M136.77 129.86a1.44 1.44 0 0 1 .25 1c-.36 0-.38-.33-.48-.55.18-.1.19-.31.23-.45z" fill="#4b6b34"></path><path class="cls-6" d="M114.34 153.34v.42c-.18 0-.48.05-.5-.16s.3-.21.5-.26z"></path><path d="M164.19 130.09a.45.45 0 0 1 .14.64c-.15.17-.29 0-.37-.19.19-.09.19-.28.23-.45z" fill="#737a34"></path><path class="cls-11" d="M144.94 152.94a7.1 7.1 0 0 1-6.12 6 8.47 8.47 0 0 1-8.64-3.23 6.23 6.23 0 0 0 3.57.81 4.65 4.65 0 0 0 4.9-4.85v-11c0-3.68.14-7.11-.12-10.66 0-.49.25-.41.5-.41h5.65c.92 0 .4.55.44.9-.21 1.78 0 3.57-.09 5.36 0 .18 0 .35.3.27a9.78 9.78 0 0 1 3.52-5.18c3.35-2.37 7-2.53 10.77-1.24a9 9 0 0 1 5.84 6.48l.18.6c0 .06.07.11.28.47V136c0-1.95 0-3.91-.1-5.86 0-.39.06-.49.41-.49h5.55c.37 0 .47.17.45.52a10.4 10.4 0 0 0 .08 1.73 5.46 5.46 0 0 1 3.74-2.71c.3-.07.62-.1.92-.15.49-.07.72.1.69.62s0 1 0 1.47c0 1.9-.5 2.51-2.34 3.09-2.49.79-3 1.41-2.95 4.05 0 4.47-.14 8.93.11 13.4 0 .42-.12.47-.44.47h-5.76c-.6 0-.51-.29-.39-.66.19-2.18 0-4.37.07-6.55v-.08l-.06.08c-.37.06-.37.37-.45.63a9.33 9.33 0 0 1-8.39 6.93 11.08 11.08 0 0 1-7.89-1.71 10 10 0 0 1-3.79-5.58c-.6.08-.3.55-.3.81v5.93a2.51 2.51 0 0 1-.14 1zM198.72 136.36c2-7.11 9-8.58 14.43-6.62a9.1 9.1 0 0 1 5.92 7 15 15 0 0 1-1.14 11 9 9 0 0 1-7.13 4.72 11.27 11.27 0 0 1-8.29-1.71 10.72 10.72 0 0 1-3.35-4.31c-.31-.16-.4-.46-.53-.8-.16 2.12-.11 4.19-.08 6.27-.15.25-.41.23-.65.23h-5.62c-.24 0-.49 0-.65-.23a1.9 1.9 0 0 0 .22-1.3v-13.8c0-2.24-.79-3.23-2.61-3.3-2.18-.08-3.6 1.09-3.72 3.2-.09 1.53 0 3.06 0 4.6 0 3.45 0 6.89.08 10.34 0 .4-.07.48-.42.48h-5.75c-.53 0-.55-.28-.52-.65a1.87 1.87 0 0 0 .14-1.12v-19.15c0-.5-.2-1.31 0-1.44a3.43 3.43 0 0 1 1.62-.14h3.77c.67 0 1 .15.91.87a2.58 2.58 0 0 0 .1 1.41c2-2.43 4.56-3.11 7.48-2.86a5.67 5.67 0 0 1 5.44 5.24c.23.69 0 1.42.15 2.11 0 0 .05.05.07.06a.14.14 0 0 0 .13-.1zM76.24 152v-.08a2.43 2.43 0 0 0 .18-1.43v-25.52c0-.56.15-.73.69-.72 4.08.08 8.16-.19 12.23.18a6.89 6.89 0 0 1 5.38 3c1.44 2.08.8 4.23-.82 6.08a11.45 11.45 0 0 1-3.25 2.24 8.71 8.71 0 0 1 3.18.7 6.61 6.61 0 0 1 2.47 2.06 11.77 11.77 0 0 1 .48-3.29c.39-.46.9-.29 1.36-.21a8.74 8.74 0 0 1 4.45 2.36c2.28 2.12 4 4.71 6.14 7a11.08 11.08 0 0 0 5.57 3.67 6.21 6.21 0 0 0 1.14.12c.36.05.71.12.68.61a6.76 6.76 0 0 1-6.82 2.91 15 15 0 0 1-10.4-6.52 7.27 7.27 0 0 0-1-1.27c-.37.71-.44 1.48-.75 2.17a10.09 10.09 0 0 1-8.45 6.12c-3.84.51-7.72.11-11.59.21-.35-.1-.69-.05-.87-.39z"></path><path class="cls-11" d="M116.87 130.29c-.06-.33-.25-.68.38-.68h5.33c.47 0 .61.19.59.63s0 1 0 1.87a8.48 8.48 0 0 1 3.25-2.53c3-1.25 6.66-.67 8.62 1.5a5.62 5.62 0 0 1 1.31 3.87v14.86c0 .74.3 1.82-.07 2.14s-1.45.14-2.22.15h-3.45c-.33 0-.71.14-1-.21-.07-5.09 0-10.19 0-15.28a2.71 2.71 0 0 0-1.55-2.71 2.33 2.33 0 0 0-1.9-.1c-.41 0-.78.24-1.2.22a3.65 3.65 0 0 0-1.61 3.42c.05 4.74-.15 9.48.12 14.21 0 .43-.17.46-.48.46h-5.75c-.59 0-.51-.29-.4-.66a34.77 34.77 0 0 0 .07-4.21c0-.17-.11-.22-.28-.16l-.25.72c-.1.25-.33.25-.54.29a4.83 4.83 0 0 1-3.27-1.4 43.15 43.15 0 0 1-5.82-6.41 16.91 16.91 0 0 0-5.18-4.78 6.49 6.49 0 0 0-3.42-.74c-.43 0-1 .37-1.25-.14s.2-.83.5-1.17c2.85-3.07 6.63-3.7 10.59-1.74a15.79 15.79 0 0 1 8.63 9.88c.25.06.3-.11.3-.29-.01-3.66.15-7.3-.05-11.01z"></path><path d="M144.91 157.1a10.94 10.94 0 0 0 1.86-6.14c4.53 4.19 12.7 4.42 17.42-.13a4.16 4.16 0 0 1-.52 2.19c-.22.58-.07.74.52.74h9.94c.31 0 .67.06.69-.42a7.12 7.12 0 0 1 1.87.52h10.46c.46 0 1.08.1.61-.72a6.12 6.12 0 0 1-.74-3v-12.51a2.15 2.15 0 0 1 .16-1.32c.43.43.3 1 .3 1.49v11.31c0 .46-.23 1.08.62 1.12.15 0 .22.24.25.42s-.14.75.39.63c.35-.08.76-.16.83-.76a66.23 66.23 0 0 0 .22-7.18 62.86 62.86 0 0 0-.12-7 .89.89 0 0 1 .25-.87c.43.27.39.71.39 1.12v14a1.71 1.71 0 0 1-.35 1.27c-.28.28-.27.7-.47 1s-.51.48-.21.85c.26.22.59 0 .85.17-.08.7-.7.55-1.11.64a29.61 29.61 0 0 1-3.54.64c-1.41.11-2.77.54-4.18.55a3.3 3.3 0 0 0-1.21.19c-.2.08-.43.21-.61.14-1.49-.58-2.84.34-4.27.39h-.83c-.67.06-1.34-.19-2 .39a2.45 2.45 0 0 1-1.86.14c-2.15-.48-4.19.1-6.23.4a14.67 14.67 0 0 1-3.57-.06c-.56 0-1.12 0-1.66-.06-2-.19-4 .63-6 .32-1.18-.18-2.4.31-3.61 0-.29-.07-.65 0-.93-.11a3.45 3.45 0 0 0-2.73.1c-.56.3-.89.22-.88-.45z" fill="#176133"></path><path d="M144.91 157.1c.2.22.19.57.75.35a4 4 0 0 1 2.77-.23 8.18 8.18 0 0 0 3.57.18c1.41-.23 2.89.23 4.33-.14a4 4 0 0 0 .79-.21c.31-.15.54-.51.8.11.11.28.59.08.86 0a5.22 5.22 0 0 1 2.63.14c.4.09 1.07-.31 1.42 0 .69.55 1.1-.32 1.74-.17a3.62 3.62 0 0 0 2.13-.4 1.44 1.44 0 0 1 .91-.11c.66.14 1.42-.08 2 0 .75.12 1.48-.17 2.18.1.16.06.37.22.49.08 1-1.24 2.46-.09 3.6-.71.35-.19.92.12 1.19-.41.66.74 1.51-1.12 2.13.17.07.14.23.09.37 0 1.6-.75 3.39-.5 5.08-1a21 21 0 0 1 4-.55 3.26 3.26 0 0 0 1.47-.4 18.92 18.92 0 0 1 3.53-.09h5.74c1.57 0 1.65-.14.93-1.56-.21-.16-.17-.38-.16-.6s-.29-.56.18-.66a8.16 8.16 0 0 0 4 2.51c.29.49-.17.62-.41.85a40.33 40.33 0 0 1-4.66.17 1.27 1.27 0 0 0-1 .34c-.86.77-1.21.75-2 0 .19.19 0 .38-.12.58a.61.61 0 0 1-.54.2c-1-.78-1.34-.79-2.51-.09a1.35 1.35 0 0 1-.46.24c-.36.06-.77.62-1.07 0s.25-.71.59-1c-.74.54-1.65.32-2.45.59-.44.15-.95.11-1.25.61-.18.29-.48.17-.76.06a3.48 3.48 0 0 0-2.69 0 10.68 10.68 0 0 1-3.86.53 2 2 0 0 0-.92.06c-1.36.65-2.83.47-4.26.58-.39 1-1.41-.46-1.92.53-.17.33-.76-.3-1.31-.35.4.39.35.7-.11.91a4.13 4.13 0 0 1-2 .39 4.37 4.37 0 0 0-2.13.41 3.31 3.31 0 0 1-2.26 0c-1.29-.23-2.46.47-3.63.37a10.25 10.25 0 0 0-3.76.56 1.75 1.75 0 0 1-.93-.07 5.56 5.56 0 0 0-2.23-.13c-1.06.08-2.2.11-3.28.16a15.29 15.29 0 0 0-3.88.29c-.52.16-1-.12-1.44-.12-1.15 0-2.28.28-3.42.37a7.73 7.73 0 0 1-2.54 0c-.25-.07-.48-.15-.37-.49a12.1 12.1 0 0 0 4.15-2.95z" fill="#1b6434"></path><path class="cls-5" d="M140.72 160.24c.5.25 1 .64 1.55.11.14-.12.6-.65.69.12 0 .14.15.22.19.17.62-.82 1.6 0 2.39-.55.43-.33 1.38-.07 2.06.08.41.09.7.17 1.05-.1a1 1 0 0 1 .88-.14 2.66 2.66 0 0 0 2.1-.12c.39-.21 1 .15 1.57.1.75-.06 1.48-.4 2.24 0h.1c1.08-1.11 2.09.22 3.14.09.53-.07 1.22.14 1.37-.69 0-.24.16-.26.37-.19a5.93 5.93 0 0 0 4-.17 6.64 6.64 0 0 1 2.73.19c.38.05.83.21 1.11 0 .91-.78 2.05-.48 3.05-.56.39 0 .79-.62 1.23-.17a33.49 33.49 0 0 1 6-.67c2.36-.17 4.63-1.09 7-.79a.93.93 0 0 0 .41 0c1.72-.74 3.56-.5 5.35-.66 1.21-.11 2.36-.57 3.58-.61.24 0 .48-.14.69.06l.42-.21a19 19 0 0 1 3.84.24 21.11 21.11 0 0 1-2.78 1.67c-1.86.14-3.71.33-5.56.46a26.53 26.53 0 0 1-3.9.32 5.42 5.42 0 0 0-3.24.39 4.25 4.25 0 0 1-2.26.19c-1.48 0-2.82.62-4.27.74-3.11.26-6.18.8-9.27 1.22-.39.05-.74.17-1.1-.09a.47.47 0 0 0-.5 0c-1.61.88-3.4.15-5.08.51a10 10 0 0 1-1.75.17c-2.37.07-4.73.25-7.1.34a44.39 44.39 0 0 0-5 .31c-1.72.27-3.43.37-5.16.47-1.31.08-2.82-.06-3.92 1a.7.7 0 0 1-.88.11c-.93-.64-1.83.1-2.74 0a.15.15 0 0 0-.1 0c-1 1.22-2.41.75-3.68.83a4.86 4.86 0 0 0-2.73.48c-1.65.66-3.35 1.15-5.09 1.74.32.67 1 .53 1.43.85a.44.44 0 0 1 .15.54c-.56.44-1.14 0-1.7 0a6.33 6.33 0 0 1-2.07-.66c-.66-.25-.72-.66-.14-1.14a3.76 3.76 0 0 1 1-.62 26 26 0 0 1 5.65-1.93c1.74-.26 3.23-1.3 5-1.28a1 1 0 0 0 .59-.17 4.14 4.14 0 0 1 2.59-.64 7.59 7.59 0 0 0 2.09-.5c-.13-.09-.4 0-.51-.19z"></path><path class="cls-6" d="M176.33 154c-.47-.29-1.14-.1-1.51-.63a6.66 6.66 0 0 1-.81-3v-12.25c0-1.83.13-2 1.89-2.41.46-.12.91-.31 1.47-.5v15.02a3.81 3.81 0 0 1-.59 2.28 6.35 6.35 0 0 0-.45 1.49zM127.74 154c.11.94-.89.74-1.23 1.22l-.18-.19a2.58 2.58 0 0 1-.14.39c-.14.21-.15.59-.54.53-.21 0-.49-.27-.39-.39.46-.52-.63-1.11 0-1.38.47-.2.6-.37.64-.81s.76-.3.92-.74c-.8-.57-1.6-1.1-1.6-2.27v-14a1.67 1.67 0 0 1 2.07-1.23c.94.18.91.9.91 1.62v14.2a3.16 3.16 0 0 1-.41 2.2c-.31.25-.11.54-.05.85z"></path><path class="cls-14" d="M137.75 160.86l1.19.07c-1.26.57-2.23 1.08-3.43.85a2.23 2.23 0 0 0-1.38.38c-1.56.77-3.42.69-4.89 1.7-1.26-.69-2.17.88-3.37.5-1.35 1.27-3.59.77-4.73 2.47a8.67 8.67 0 0 0 4.09 1.17.57.57 0 0 1 .53-.16 10.66 10.66 0 0 0 1.46.44l.25.11c.24.31.87.06.9.66a15.85 15.85 0 0 1-3.63-.62 35 35 0 0 1-3.86-.71c-1-.3-2-.27-2.88-1-.42-.36-1-.77-1.54-.14-.17.19-.39.12-.53-.08s0-.32.17-.43c.72-.51 1.22-1.33 2.42-.81.66.29.23-.62.44-1a1.43 1.43 0 0 0 1.37-.28 6.87 6.87 0 0 1 4.54-1.39 1.22 1.22 0 0 0 1.45-.75 1.46 1.46 0 0 1 1.79-1c1.55.42 2.62-.4 3.4-1.67l2.73 1.23c.71.47 1.56.25 2.33.44z"></path><path class="cls-6" d="M190 135.5a85.7 85.7 0 0 1 .16 8.78c0 1.23.09 2.47 0 3.69a12.26 12.26 0 0 0-.2 3.2c0 .24 0 .53-.41.28-.06 0-.15-.12-.17-.1-1.14.75-1.5.45-1.18-.85 0-.13-.21-.27-.39-.09s.09.61-.34.46-.22-.47-.22-.74v-7.94-5.85a1.72 1.72 0 0 1 2.75-.84z"></path><path class="cls-11" d="M143.09 121.47a2.39 2.39 0 0 1 2.34 1.07 2.3 2.3 0 0 1-.3 2.55 5.86 5.86 0 0 1-5.8 2.75 1.9 1.9 0 0 1-1.63-2.6 5.86 5.86 0 0 1 5.39-3.77z"></path><path class="cls-15" d="M97.43 133.46c-.09.4-.49.69-.42 1.23 4.06-.86 6.6 1.51 9 4.23 1.92 2.19 3.52 4.65 5.71 6.61 1.2 1.07 2.36 2.22 4.1 2.36-.5.67-1.15.22-1.73.24-1.94-.28-3.32-1.53-4.66-2.78-2.15-2-3.79-4.46-5.79-6.6a11.12 11.12 0 0 0-4.1-3.15 6.26 6.26 0 0 0-2.77-.44c-.34-.78.05-1.28.66-1.7z"></path><path d="M76.24 152a1.14 1.14 0 0 0 .3.09c4 0 8 .28 12-.18 5.07-.6 8.38-3.86 9.12-9a24.61 24.61 0 0 0 2.63 3.61 14.89 14.89 0 0 0 8.07 4.7 7.41 7.41 0 0 0 7.61-2.5c.09-.11.18-.1.25 0a4.69 4.69 0 0 1-2.61 2.39 8.89 8.89 0 0 1-7.15 0 20.9 20.9 0 0 1-5.45-3.29 17.34 17.34 0 0 1-2.26-2.58c-.26-.31-.38-.75-.84-1a10.41 10.41 0 0 1-2.79 5 11.45 11.45 0 0 1-7.86 3.27c-3.31.06-6.62 0-9.93 0-.43-.01-.94.11-1.09-.51z" fill="#b89033"></path><path class="cls-14" d="M204 154.41c-.06-.38.44-.49.41-.85a2.35 2.35 0 0 1 1.26.37 12.66 12.66 0 0 0 5.27.2 1.52 1.52 0 0 1 1 .05c.72.69 1.74.58 2.58.76 1 .22 1 .63.77 1.33a3.2 3.2 0 0 1-2.33-.16c-1.78-.91-3.75-.84-5.68-1a1.91 1.91 0 0 1-.82-.1 10.52 10.52 0 0 0-2.46-.6z"></path><path d="M125 134a1.06 1.06 0 0 1 1-.38 4.52 4.52 0 0 1 2 0 3 3 0 0 1 1.92 3.11c-.06 4.61 0 9.21 0 13.82a2 2 0 0 1-.2 1.31c-.4-.33-.24-.78-.24-1.17v-14c0-2.25-.88-3-3.08-2.72-.48.12-.97.47-1.4.03z" fill="#b88f32"></path><path d="M127.74 154c-.29-.29-.33-.57 0-.83-.15.81.46.61.86.61h7.69a4 4 0 0 1-3.88 1.15c-1.21-.24-2.31-1.07-3.63-.66-.24-.45-.67-.27-1.04-.27z" fill="#1c6233"></path><path class="cls-19" d="M76.25 151.91c-.4-.37-.23-.85-.23-1.28v-23.77a11.16 11.16 0 0 0-.12-2.45h.36v27.51z"></path><path d="M178.87 151.47l-.3.31v-21.24h.29v20.93z" fill="#b58c31"></path><path d="M198.55 151.88a6.88 6.88 0 0 1-.18-2.67v-4.63a4.48 4.48 0 0 1 .8 1.83c-.83 1.66-.33 3.42-.34 5.14-.02.25.17.51-.28.33z" fill="#b58d34"></path><path class="cls-19" d="M191.63 151.88c-.12 0-.36.11-.35 0 .36-5.35-.06-10.72.35-16.07v16.09z"></path><path class="cls-14" d="M176.33 154a1.42 1.42 0 0 1 .46-1.46c-.37 1.06 0 1.3 1.09 1.27 3-.07 6 0 9.06 0 .37 0 1 .27.82-.6.39.74.35.82-.61.82h-10.82zM200.35 152.31a1.16 1.16 0 0 1 .51 1.36c-.14.54-.78.29-1.2.29h-9.51c-.29 0-.62.1-.84-.21h9.94c1.53.01 1.53.01 1.1-1.44z"></path><path d="M116.87 130.29a.91.91 0 0 1 .18.69v10.53c0 .22.12.58-.21.6s-.2-.31-.19-.51c.33-.32.17-.73.18-1.09.02-3.41.03-6.81.04-10.22z" fill="#dec99c"></path><path d="M144.94 152.94v-7.5c0-.2-.15-.53.22-.57.16 0 .17.18.18.31-.32.28-.17.65-.18 1v5.69a1.61 1.61 0 0 1-.22 1.07z" fill="#e1cfa6"></path><path d="M165.85 144.91a.57.57 0 0 1 0-.91c.08.09.19.17.19.24v7c0 .09-.1.18-.15.26z" fill="#e2d0a9"></path><path class="cls-25" d="M211.93 154.18a18.48 18.48 0 0 1-5.75 0c-.21 0-.42 0-.53-.25a23.51 23.51 0 0 0 6.27 0z"></path><path d="M145.32 136.14c0 .14 0 .31-.16.34s-.24-.12-.23-.26c.11-1.9-.24-3.82.18-5.71v4.65c.05.33-.11.7.21.98z" fill="#e2d0a8"></path><path d="M116.66 147.09c0-.09 0-.25.07-.28.22-.15.33 0 .32.2-.09 1.49.22 3-.18 4.45v-3.39c-.04-.33.13-.69-.21-.98z" fill="#e1cea6"></path><path d="M198.72 136.36c0 .27.09.55-.35.74a13.43 13.43 0 0 1 0-2.83c.41.64-.19 1.47.35 2.09z" fill="#e1cfa8"></path><path d="M116.22 148.73H116c0-.55-.42-.32-.68-.37-.41-.07-.84 0-1.21-.22.57-.14 1.2.2 1.73-.24l.6-.08c-.09.3-.16.61-.22.91z" fill="#bc9641"></path><path class="cls-5" d="M136.57 160.87c-.8 0-1.65.2-2.33-.44z"></path><path class="cls-4" d="M128.61 156.48c-.6-.7-.79-1.4 0-2.08-.46.69-.16 1.38 0 2.08z"></path><path d="M95.12 134.85s-.09.19-.2.23a.17.17 0 0 1-.2-.24.5.5 0 0 1 .29-.26c.11-.05.18.04.11.27z" fill="#356533"></path><path class="cls-14" d="M200.37 151.05c-.22.18-.15.43-.18.66a.7.7 0 0 1-.2-.67c.12-.5.26-.21.38.01zM189.52 152.91a1 1 0 0 1 .47-1 1.44 1.44 0 0 1-.47 1z"></path><path class="cls-11" d="M220.09 171.17a3.59 3.59 0 0 0 .82 2.52 1.11 1.11 0 0 1-.13 1.81c-.73.55-1.3 0-1.65-.53a11.52 11.52 0 0 1-1.3-4.38c-.06-.33-.07-.68-.12-1.2-.46.39-.8.7-1.16 1a4.16 4.16 0 0 1-1.91 1 1.9 1.9 0 0 1-2.52-1.65c-.08-.34-.15-.68-.26-1.13a11 11 0 0 0-1.94 2c-.34.34-.66.72-1 1-1.34 1.13-2.65.75-3-1-.19-.87-.48-.61-.94-.29a23.67 23.67 0 0 1-5.29 2.67 13.54 13.54 0 0 1-3 .61c-3.63.44-5.64-3.1-5.22-6a10.85 10.85 0 0 1 2.44-5.24 17.75 17.75 0 0 1 8.88-6.32 3.59 3.59 0 0 1 2.94.07 1.32 1.32 0 0 1 .7 1.68c-.27.79-.88.56-1.48.38a5 5 0 0 0-3.81.75 15.76 15.76 0 0 0-6.77 6.61 5.29 5.29 0 0 0-.6 2.83 2.73 2.73 0 0 0 3.47 2.76 17.92 17.92 0 0 0 5.79-2.57c1.13-.68 2.22-1.44 3.36-2.11s1.52-1.79 2.34-2.64c1.2-1.24 2.47-2.28 4.34-2.08a3.87 3.87 0 0 1 .91.19c.69.28 1.31.7 1 1.56s-1 1-1.76.61a2.67 2.67 0 0 0-2.38.42 7.41 7.41 0 0 0-1.85 2.09c-.16.28-.15.65-.46.84a2.2 2.2 0 0 0-.6 1.23c-.05.27-.33.63.25.67l.61-.66c.32-.44.76-.77 1.06-1.23l.19-.22c.29-.46.78-.74 1-1.24l.87-.9a1.63 1.63 0 0 1 .67-.55c.91.07 1 .71 1 1.43a5.54 5.54 0 0 0 0 2.07c.28.89.91 1.2 1.66.64 1.22-.93 2.36-1.92 2.11-3.76-.17-1.27-.12-2.57-.17-3.86 0-.42.07-.88-.66-.6a.84.84 0 0 1-1.21-.62c-.17-.65 0-1.29.67-1.42 1-.2 1.25-.82 1.39-1.74a8.08 8.08 0 0 1 3.1-5.59 2.6 2.6 0 0 1 2.66-.42 2.46 2.46 0 0 1 1.32 2.12 1.1 1.1 0 0 1-.82 1.37c-.7.19-1-.22-1.17-.85-.19-.81-.7-.56-1.08-.22a7.64 7.64 0 0 0-2 3.81c-.1.38.06.54.45.43s1-.33 1.49-.47c.66-.18 1.35-.33 1.64.56s-.3 1.17-1 1.43a10 10 0 0 0-2.69 1.07 4.56 4.56 0 0 0 0 2.11 19.52 19.52 0 0 1 .13 3.5 3.73 3.73 0 0 0 .1 1.33c.31.53 0 1.15.21 1.69.32.45 0 1 .23 1.47.21.4-.09.84.15 1.16z"></path><path class="cls-31" d="M144.49 172.82a6.43 6.43 0 0 1-3-.68c-1.61-.73-3.37-.92-5-1.67a3.54 3.54 0 0 0-2.48-.37 2.12 2.12 0 0 1-.63-.38 1.94 1.94 0 0 0-1-.52c-.63-.15-1.11-.54-1-1.24s.61-.92 1.29-.94c2-.06 3.93-.94 6-1 1.53-.05 3-.58 4.47-.74 1.11-.12 2.16-.66 3.33-.74a12.1 12.1 0 0 1 2.51-.21 21.86 21.86 0 0 0 5.45-.52 5.26 5.26 0 0 1 1.85-.16.55.55 0 0 0 .31 0c1.62-.76 3.46-.46 5.12-1 .76.2 1.27-.56 2-.49a36 36 0 0 0 5.09 0 32.84 32.84 0 0 0 4.31-.59 3.91 3.91 0 0 1 1.44-.15c1.32.21 2.55-.45 3.87-.4a5.74 5.74 0 0 1 1.75.12 12 12 0 0 0 2.85-.21c1.23-.41 2.55-.17 3.8-.37 1.92-.3 3.83-.61 5.75-.85.54-.07 1.05-.11 1.42.39a1.31 1.31 0 0 1-.66.83 3.07 3.07 0 0 1-2.31.42c-2-.05-3.92.48-5.89.62-2.27.17-4.56.19-6.81.57-1.32.23-2.67.28-4 .59-1.52.36-3.09.36-4.63.67-.67.14-1.34.25-2 .45a6.94 6.94 0 0 1-2.64.24 7.86 7.86 0 0 0-2.38.11c-1.24.22-2.5.25-3.74.43a16.37 16.37 0 0 0-3.72.75 5.3 5.3 0 0 1-2.24.1 28.11 28.11 0 0 0-3.57.48 19.25 19.25 0 0 1-4.55.36 2.55 2.55 0 0 0-1.81.37 5.22 5.22 0 0 1-2.25.75c-1.88.33-3.77.59-5.78 1 1.83 1.29 3.93 1.73 5.94 2.34l.3.1a20.72 20.72 0 0 0 2.64 1c.23.14.64.08.6.54z"></path><path class="cls-32" d="M140.93 171.35a2.41 2.41 0 0 1-1.67-.43c-1.14-.54-2.45-.61-3.56-1.3a2.2 2.2 0 0 1-.92-1c2.38-.6 4.81-.75 7.15-1.32.78-.19 1.46-.8 2.34-.87a2 2 0 0 1 .72 0c1.24.45 2.45 0 3.64-.19a28.52 28.52 0 0 1 4.44-.56 12.09 12.09 0 0 0 3.28-.47 9 9 0 0 1 2.41-.45 53.89 53.89 0 0 0 5.52-.63c.7-.07 1.43 0 2.16-.07 1.51-.11 2.92-.56 4.39-.77.77-.1 1.55-.08 2.32-.19.94-.12 1.88-.35 2.82-.48a53.62 53.62 0 0 1 6.16-.74 46.56 46.56 0 0 0 6.38-.6c1.61-.26 3.23.08 4.81-.34l-1 1.27a4.28 4.28 0 0 1-2.92.44c-1.45-.17-2.78.3-4.17.24-2.09-.08-4.06.67-6.13.84a47 47 0 0 0-7.57 1 69.26 69.26 0 0 1-9.27 1.25c-1.56.18-3.13.36-4.7.6s-3.22.42-4.83.58a8 8 0 0 0-3.18.78 1.05 1.05 0 0 1-.43.11 19 19 0 0 0-6.42 1 7.05 7.05 0 0 1-2 .25 5.07 5.07 0 0 0-1.71.35c.48.88 1.6.84 1.94 1.7z"></path><path class="cls-33" d="M125.86 168h-.63a.44.44 0 0 0-.21-.42.87.87 0 0 1 .51-1.46 41.92 41.92 0 0 1 6-1.89c.82.08 1.61-.36 2.45-.15.14 0 .43 0 .47-.09.55-1.18 1.82-.57 2.64-1.07.08-.06.25-.12.28-.08 1.08 1.18 1.8-.21 2.68-.37a28.63 28.63 0 0 1 3.46-.4c1.34-.07 2.72.15 4-.49a3.45 3.45 0 0 1 2.29 0 2.47 2.47 0 0 0 1.52 0 8.72 8.72 0 0 1 2.6-.21c1.31 0 2.73-.36 4-.26 1.4.11 2.68-.44 4.07-.24.93.13 1.92-.26 2.91-.16.76.08 1.61.25 2.18-.56a.23.23 0 0 1 .2 0c.76.93 1.57.12 2.35 0 1.13-.1 2.26-.26 3.38-.35 1.95-.14 3.86-.56 5.8-.75 1.2-.11 2.5-.34 3.75-.58.65-.13 1.33.14 2-.25 1.22-.71 2.65 0 3.82-.33s2.39-.08 3.58-.41a14.36 14.36 0 0 1 4.1-.26c.29 0 .86-.76 1 .15l-.79.62c-1.6-.09-3.08.7-4.74.55a18.59 18.59 0 0 0-4.43.43 2.94 2.94 0 0 1-1.13.15 3.06 3.06 0 0 0-2.46.61.62.62 0 0 1-.5.1c-1-.48-2.06-.07-3.06.13a26.46 26.46 0 0 1-2.8.25 7.25 7.25 0 0 0-2.63.6c-.71.36-1.5.12-2.26.21-1.74.2-3.49.4-5.24.58-1.17.12-2.36-.28-3.51.1-1.66.55-3.45 0-5.1.62a2.13 2.13 0 0 1-.71.09c-1.89.1-3.8-.18-5.68.38-.52.15-1.13-.05-1.73.06a30.78 30.78 0 0 1-6.06.55 1.52 1.52 0 0 0-.52 0c-2.39.7-4.89.84-7.32 1.35a4.38 4.38 0 0 0-2.34.91 28.32 28.32 0 0 0-5.34 1.53c-.63.24-.43.68-.57 1.05s-.49.42-.83.18a9.35 9.35 0 0 0-1.45-.42z"></path><path class="cls-34" d="M134 165.49a2.44 2.44 0 0 1 1.9-.94 13.43 13.43 0 0 0 3.13-.54c.73-.16 1.48-.78 2.32-.3.28.15.56 0 .81-.12a12.44 12.44 0 0 1 5.49-.47c.58.07 1-.7 1.78-.47s1.61-.72 2.44 0c1.07-.95 2.38-.17 3.54-.48a2.1 2.1 0 0 1 .71-.09 6.24 6.24 0 0 0 2.78-.21 6.47 6.47 0 0 1 2.63-.11c.41 0 .76.1 1-.32 0-.06.11-.16.13-.15 1.07.41 2.15-.38 3.17 0a1.68 1.68 0 0 0 1.18.07c1.12-.37 2.29-.15 3.42-.41a10.44 10.44 0 0 1 2.3-.23c1.8 0 3.45-1 5.24-.89a11 11 0 0 0 3.57-.54c.65-.19 1.21.49 1.89.36a33.3 33.3 0 0 1 9.11-1.06c.27 0 .63.08.81-.1.83-.8 1.66-.27 2.49-.07a.79.79 0 0 1-.5.39 1.87 1.87 0 0 1-2.05.66c-.52-.2-.87.32-1.37.38-1.3.14-2.62 0-3.92.25-1.91.32-3.86.41-5.75.91-.71.19-1.54-.38-2.17.32a6.77 6.77 0 0 0-2 0c-1.26-.06-2.42.44-3.68.43a29.7 29.7 0 0 0-4.27.55 5.72 5.72 0 0 1-3.07 0 .43.43 0 0 0-.55.12c-.28.37-.77.24-1 .18a3.86 3.86 0 0 0-3.25.23c-.15.08-.41 0-.61 0a22.38 22.38 0 0 1-3.66.16c-.49-.06-.93.3-1.42.33-1.43.07-2.87-.14-4.28.43-.63.26-1.43-.32-2.15-.09a14.2 14.2 0 0 1-1.92.39c-1.87.35-3.76.38-5.64.62a36.05 36.05 0 0 0-6.1 1.15 10.6 10.6 0 0 1-1.86.21c-.27-.04-.62-.04-.62-.55z"></path><path class="cls-11" d="M221.19 162.36a5.63 5.63 0 0 1 3-2.62 1.71 1.71 0 0 1 2.42 1.27 4.52 4.52 0 0 1-1.28 4.5 6.44 6.44 0 0 1-2.33 1.69c-.26.11-.69.13-.56.6a.85.85 0 0 0 .79.59 3.89 3.89 0 0 0 2.45-.75 5.26 5.26 0 0 0 1.55-1.39c.34-.51.81-.82 1.41-.44a1.11 1.11 0 0 1 .34 1.66c-1.11 1.61-3.42 3.42-5.91 3.08a3.52 3.52 0 0 1-2.47-1.72 7.75 7.75 0 0 1 .14-5.45 4 4 0 0 1 .45-1.02z"></path><path d="M149.52 167.79c.14-.23.22-.65.51-.58 1.21.29 2.24-.43 3.4-.5 1.4-.08 2.82-.25 4.23-.39.87-.09 1.81-.25 2.66-.35 1.65-.2 3.32-.29 5-.49a24.61 24.61 0 0 0 5.11-.75c1.52-.52 3.14-.27 4.63-1 .62-.29 1.64.13 2.51-.11 1.53-.44 3.24-.05 4.69-.62s2.67-.09 3.84-.51c.79-.28 1.53.08 2.28-.32.52-.28 1.2.3 1.94.08a6.3 6.3 0 0 1 2-.12 1.06 1.06 0 0 1-.44.62c-.21.14-.27.42-.53.51a21.53 21.53 0 0 0-4.94.36c-1.38.14-2.74.44-4.12.59-2.1.23-4.2.48-6.29.8-1.42.22-2.86.45-4.3.62-2 .23-4.07.09-6 .76-1.66.58-3.35.32-5 .74a1 1 0 0 1-.89-.21 4.53 4.53 0 0 0-2.43.18c-2.15.38-4.3.73-6.48.91a1.43 1.43 0 0 0-.59.2 1.07 1.07 0 0 1-.3.06.65.65 0 0 1-.49-.48z" fill="#327539"></path><path class="cls-36" d="M190.14 170.72l.21.44c-.08.55-.54.4-.87.45a25.17 25.17 0 0 1-4.34-.05c-.73 0-1.44.19-2.16.12a48.17 48.17 0 0 0-8.08.74c-2.44.53-5 .61-7.35 1.44-1.42.49-3 .63-4.39 1.26a7.73 7.73 0 0 1-2.62 1c-.17 0-.36.09-.35.31s.12.24.24.32.45.2.65.33c.28.33.9.41.78 1-.91.3-1.49-.38-2.18-.73a4.63 4.63 0 0 0-.68-.48 1 1 0 0 1-.64-1.09 1.22 1.22 0 0 1 .91-.92q4.75-1.51 9.63-2.55a24 24 0 0 1 2.52-.67 3.69 3.69 0 0 0 1.9-.38.65.65 0 0 1 .28 0c.62.22 1.16-.17 1.74-.21a72.54 72.54 0 0 1 7.54-.63 26.63 26.63 0 0 0 4.36-.14 4.75 4.75 0 0 1 2.9.44z"></path><path d="M210.89 171.78c.12-.3.31-.52.57-.15.85 1.2 2.09 1.28 3.39 1.21 0 .16 0 .3-.19.31-.72.06-.62.52-.37.91s.42.89.69 1.28a29.37 29.37 0 0 1 3.35 7.37 1.42 1.42 0 0 1-.53 1.75c-.44.35-1 .55-1.4.91-1.24.59-2.62.76-3.89 1.25-.73 0-1.43.53-2.18.09-.18-.61.34-.57.66-.72a15.5 15.5 0 0 0 4.3-1.18c1.29-.47 1.31-1.15.73-2.36a36.77 36.77 0 0 1-2.3-5.07 6.93 6.93 0 0 0-1-1.8 21.36 21.36 0 0 1-1.89-3.32.39.39 0 0 1 .06-.48z" fill="#3d813c"></path><path d="M190 168v1.25c0 .47-.38.5-.74.56a22.07 22.07 0 0 1-4.45.32 46.71 46.71 0 0 0-4.87.36c-1.68.12-3.36.29-5 .45-.5 0-.87.43-1.37.32a35.55 35.55 0 0 0-6.45 1.12 35.79 35.79 0 0 1-5.53 1.28c-.82.18-1.69-.14-2.5.26-.22.1-.47-.07-.54-.35a.67.67 0 0 1 .45-.57 59.33 59.33 0 0 1 6.57-1.6 8.42 8.42 0 0 0 1.92-.46 11.58 11.58 0 0 1 3.76-.66c1-.09 1.92-.31 2.86-.48 1.82-.31 3.66-.44 5.46-.84a52.2 52.2 0 0 1 5.73-.26 12.56 12.56 0 0 1 3.41-.11.63.63 0 0 0 .77-.38.85.85 0 0 1 .17-.25.23.23 0 0 1 .35.04z" fill="#538f40"></path><path d="M203.53 173c.63-.6 1.18-1.05 2-.07s1.84.76 2.87.73c-.56.65-.6.68 0 1.43a26 26 0 0 1 4 6.64 7.5 7.5 0 0 0 .69 1c.85 1.3.71 2-.53 2.9a1.72 1.72 0 0 1-.29.11.92.92 0 0 1-.74-.13c-.14-.34.17-.5.31-.72a.89.89 0 0 0 0-1.07c-2.18-3.5-4.13-7.17-7.5-9.76-.34-.23-.85-.47-.81-1.06z" fill="#539440"></path><path class="cls-40" d="M190.6 165.08a6.17 6.17 0 0 1-.45 1.67c-.15.14-.08.39-.24.53a6.14 6.14 0 0 1-2.61.46c-2 0-4 .23-6 .29-1.59.05-3.36-.16-4.87.78a2.14 2.14 0 0 1-1.12.14c-3 .13-5.86 1-8.82 1.3-.52 0-1.06.13-1.47-.32-.11-.23 0-.39.15-.55a16.58 16.58 0 0 1 4.82-1.11 22.31 22.31 0 0 0 4.38-.76 3.81 3.81 0 0 1 1.52-.11c2.14.11 4.12-.82 6.26-.75a30.92 30.92 0 0 0 4-.4 9.62 9.62 0 0 1 2.68-.14 1 1 0 0 0 1.16-.68c.18-.2.27-.43.61-.35z"></path><path d="M191.41 172.82l1 1.05c-.1.59-.54.33-.81.28-2.65-.43-5.32-.45-8-.65a37.69 37.69 0 0 0-3.84.2 37.21 37.21 0 0 0-5.78.67 55.78 55.78 0 0 0-9.93 2.67c-.49.19-.71.46-.33.94.13.16.3.3.19.54-1.15.31-1.75-.52-2.44-1.17-.13-.62.27-.9.75-1.08a52.26 52.26 0 0 1 8.33-2.33c1.57-.3 3.12-.73 4.7-1a33 33 0 0 1 6.12-.45 2.55 2.55 0 0 0 1-.1c1.09-.36 2.17.14 3.28 0a37.22 37.22 0 0 1 5.76.43z" fill="#74a448"></path><path d="M164 178.47c-.27-.36-1-.47-.77-1.1s.77-.51 1.27-.68c1.45-.5 2.88-1 4.38-1.4a65.65 65.65 0 0 1 7.06-1.5 45 45 0 0 1 6.86-.55 53.34 53.34 0 0 1 7.78.52 6.07 6.07 0 0 0 1.9.11.64.64 0 0 1 .41.42 1.9 1.9 0 0 1-1.09.43c-2.15-.33-4.33-.35-6.5-.48a16.5 16.5 0 0 0-3.37-.08c-2.24.23-4.49.22-6.72.61a97.23 97.23 0 0 0-9.67 2.34 2.19 2.19 0 0 0-.38.17c-.85.42-.86.55-.06 1.12a5.32 5.32 0 0 0 1.5.72 13.28 13.28 0 0 1 1.85.81c.27.14.69.2.57.69a.77.77 0 0 1-.69.08 28.1 28.1 0 0 1-3.83-1.54c-.29-.16-.6-.28-.5-.69z" fill="#7ba94b"></path><path d="M203.53 173c1.28 1.33 2.86 2.34 4 3.85a40 40 0 0 1 3.83 5.82 4 4 0 0 0 .43.58c.81 1.1.77 1.45-.26 2.34-.48.61-1.36.58-1.87 1.16a1 1 0 0 1-.61.05 1.4 1.4 0 0 1-.69-.34c0-.58.57-.45.89-.62a3.45 3.45 0 0 0 .92-.36l.26-.12c.79-.3.6-.83.3-1.35a30.42 30.42 0 0 0-4.46-6.49 2.78 2.78 0 0 0-1.22-1 2.56 2.56 0 0 1-1.21-1 2.3 2.3 0 0 0-1.13-.86c-.47-.15-.91-.44-.6-1.08z" fill="#599941"></path><path d="M210.89 171.78a12.34 12.34 0 0 0 1.63 3c.44.7.62 1.65 1.41 2.15a.56.56 0 0 1 .26.29 20.23 20.23 0 0 0 2.36 5.44 1.52 1.52 0 0 1-.87 2.23 14.89 14.89 0 0 1-4.59 1.29c.18-.69.89-.32 1.26-.63.6-.16 1.09-.62 1.73-.69 1.15-.46 1.32-.93.74-2-.79-1.39-1.09-3-1.82-4.4-.11-.21-.06-.53-.24-.68a13.21 13.21 0 0 1-2.57-3.83c-.37-.65-.51-1.09.06-1.61z" fill="#44873d"></path><path class="cls-45" d="M223.66 184.13a11.49 11.49 0 0 1-2.52.63c-.1-.38.16-.54.43-.6.84-.19 1.43-.85 2.22-1.14a.94.94 0 0 0 .65-1.17 6.89 6.89 0 0 0-.82-2.23c-.65-.92-.73-2.11-1.43-3-.16-.22.1-.45.21-.66.62-1.56 0-2.89-.91-4.2a7.91 7.91 0 0 0 4.24 0c0 .22-.21.26-.39.28a.89.89 0 0 1-.76.47 4.38 4.38 0 0 1-.62.08c-1.16 0-1.41.31-.68 1.23.92 1.17 1 2.73 2 3.82a3.63 3.63 0 0 1 .54 1.56 5.84 5.84 0 0 0 .68 1.84 1.1 1.1 0 0 1-.36 1.7c-.82.45-1.46 1.26-2.48 1.39z"></path><path d="M212.56 186.43c.94-.61 2.09-.6 3.09-1a4.91 4.91 0 0 1 .68-.22c.9-.29 1.75-.69 2.63-1 1.43-.35 1.63-.87 1.1-2.14-.73-1.75-1.55-3.46-2.25-5.22-.12-.33-.36-.81.4-.62a2.89 2.89 0 0 0 2.52.87 20.87 20.87 0 0 1 1.57 4c0 .14 0 .28.06.41.07.53.76.9.36 1.53a4.4 4.4 0 0 1-2 1.57 8 8 0 0 1-1.2.38 13.68 13.68 0 0 0-1.73.61c-.81.23-1.61.48-2.44.64a16.82 16.82 0 0 0-1.85.37 1.65 1.65 0 0 1-.32.06.69.69 0 0 1-.62-.24z" fill="#2f7438"></path><path class="cls-45" d="M214.05 158.18a3.27 3.27 0 0 0-.27 1.31c.15.77-.12 1.07-.93 1a6 6 0 0 0-2.14.24 1 1 0 0 1-1.36-.22c-.25-.29-.76-.28-1.17-.35s-.94-.09-.89-.75a3.34 3.34 0 0 0 .18-3.51c.07 0 .17-.08.19 0 1 1.5 2.58 1.09 3.93 1.49.81.16 1.63.53 2.46.79z"></path><path d="M219.47 184.76a6.35 6.35 0 0 0 2.65-1.34c.41-.42.71-.83.18-1.36-.05-.05-.13-.11-.13-.17 0-1.77-1.38-3.11-1.44-4.85.79 0 1.1-.74 1.67-1.09-.25.66.47.94.58 1.44.31 1.46 1.27 2.64 1.67 4.06a1.35 1.35 0 0 1-.76 1.85c-.94.44-1.83 1-2.75 1.46l-.62.21a1.17 1.17 0 0 1-1 .09.21.21 0 0 1-.05-.3z" fill="#286e37"></path><path class="cls-25" d="M214.05 158.18c-.78 0-1.57.33-2.2-.59-.26-.38-1.22-.28-1.62-.24a2.57 2.57 0 0 1-2.75-1.49c-.35-.27-.69-.55-1-.83a12.69 12.69 0 0 1 3.14 0 10.28 10.28 0 0 1 4.2 1.15c.43.18 1-.33 1.49.07-.21.56 0 .4.32.21l.34-.2c.13 1-.95.78-1.35 1.25a1.65 1.65 0 0 0-.55.65z"></path><path class="cls-48" d="M214.23 185.17c-.67 0-1.19.58-1.88.42 1.32-1.06 1.4-1.77.21-3a2.4 2.4 0 0 1-.59-1.29c-.23-1.19-1.43-1.82-1.65-2.9-.31-1.47-1.53-2.22-2.26-3.34s-.8-1 .31-1.4a.58.58 0 0 1 .19 0c1.41 1 2.15 2.57 3.14 3.93a27.33 27.33 0 0 1 2.85 5.76 1.4 1.4 0 0 1-.32 1.82z"></path><path d="M218.21 176.17c-.17 0-.44.09-.32.29 1.1 1.9 1.61 4.07 2.75 5.95.49.8-.34 1.82-1.59 1.93a5 5 0 0 0-.53-3.16c-.77-1.93-2-3.66-2.55-5.69-.07-.28-.33-.44-.5-.66a1.81 1.81 0 0 1-.4-2c1.51-.64 1.53-.64 2 .92a7.81 7.81 0 0 0 1.14 2.42z" fill="#34793a"></path><path class="cls-50" d="M202.09 173.67c0 .32.12.72.43.77.95.13 1.35.91 1.92 1.48s1.38.47 1.82 1.18c.79 1.3 2.21 2.17 2.88 3.46s1.39 2.48 2 3.75c.4.81-.06 1.24-.91 1.28.07-1-.61-1.57-1-2.32a21.24 21.24 0 0 0-3.34-4.61 18.1 18.1 0 0 0-4.18-3.22c-.43-.23-1.24-.29-1.1-1.15a4.65 4.65 0 0 1 1.48-.62z"></path><path d="M215.07 172.82a3.7 3.7 0 0 0 1 2.33c.56.64.56 1.64 1 2.43a25.47 25.47 0 0 1 2 4.12c.31.81.94 1.76 0 2.64a5.15 5.15 0 0 1-2.72.84c.37-.54 1-.64 1.51-1.05a.89.89 0 0 0 .35-1c-.76-1.82-1.33-3.69-2.2-5.48-.47-1-1.4-1.73-1.48-2.88 0-.06-.08-.11-.12-.17-.84-1.1-.78-1.33.46-1.75z" fill="#387c3a"></path><path d="M197.27 164a2 2 0 0 1 1-1.08 14.51 14.51 0 0 1 3.48.11 23.63 23.63 0 0 1 4.75 1.2 2.39 2.39 0 0 1-1.68 1.48 1.66 1.66 0 0 1-1 .09 46.49 46.49 0 0 0-5.49-1c-.42-.09-1.18.13-1.06-.8z" fill="#377c3a"></path><path d="M214.23 185.17a1.81 1.81 0 0 0-.08-2 11 11 0 0 1-1-2.5c-.75-1.95-2.21-3.48-3.2-5.3-.32-.59-1-1.09-1.42-1.75l1.69-1.19a1 1 0 0 0 .23 1.51 1.36 1.36 0 0 1 .41.71 3.92 3.92 0 0 0 1.18 2.07c1.39 1.24 1.7 3.06 2.31 4.7a8 8 0 0 0 .65 1.39c.73 1.13.54 1.78-.77 2.36z" fill="#488b3e"></path><path d="M197.27 164c.34.75 1 .36 1.58.54 1.66.54 3.49.28 5.1 1.08.27.13.62-.14.9.09-.55.74-1.49.89-2.17 1.44-.54.24-1-.17-1.44-.29-1.46-.39-3 .22-4.41-.41-.49-.21-1-.34-.62-1a2.82 2.82 0 0 1 1.06-1.45z" fill="#3e823c"></path><path d="M207.29 159.37a.87.87 0 0 0 .94.54 1.48 1.48 0 0 1 1.52.69c.26.41.65-.07 1 .09l-2.29 1.47a3 3 0 0 1-2.36-.44 2.06 2.06 0 0 0-1.55-.37c-.94.13-1.77-.54-2.72-.41-.19 0-.29-.26-.12-.48a4.18 4.18 0 0 1 3.55-.72 2.37 2.37 0 0 0 2.03-.37z" fill="#2b7037"></path><path d="M200.62 174.29c.72.88 1.95 1.09 2.67 1.92 1 1.18 2.58 1.65 3.48 3.07 1.06 1.68 2.28 3.27 3.42 4.91a1.07 1.07 0 0 1 .06 1.4 3.24 3.24 0 0 0-.83.42c-.3.27-.78.09-1 .42a.61.61 0 0 1-.76.1c-.17-.13-.12-.26 0-.39a11.2 11.2 0 0 1 1.09-.56c.34-.19.68-.37.51-.86a8.27 8.27 0 0 0-2.32-3.33c-.4-.45-.41-1.06-.89-1.47-1.42-1.21-2.74-2.53-4.23-3.66-.7-.52-1.69-.5-2.22-1.29a.23.23 0 0 1 0-.27 2.13 2.13 0 0 1 1.02-.41z" fill="#66a243"></path><path d="M191.82 174.49a1.7 1.7 0 0 1 1-.2 7.63 7.63 0 0 0 4.2.84.27.27 0 0 1-.08.28.58.58 0 0 1-.32.11 25.53 25.53 0 0 1 9 5.79c.51.55.8 1.26 1.28 1.84a.78.78 0 0 1 .09.95c-.59.25-.9-.15-1.14-.55a6.54 6.54 0 0 0-1.18-1.39 23 23 0 0 0-11.86-6.67c-.41-.26-1.2-.13-.99-1z" fill="#7cae4a"></path><path class="cls-58" d="M173.4 171.14a18.68 18.68 0 0 1 5.62-.75 36.19 36.19 0 0 0 3.71-.39c1.53-.23 3.06 0 4.58-.19a7.06 7.06 0 0 0 2.64-.56c.22.32 0 .74.2 1.05v.42a33.46 33.46 0 0 0-4.13-.1c-2.33.15-4.69-.07-7 .25-1.53.21-3.16 0-4.62.72-.48.23-.7-.08-1-.24a.11.11 0 0 1-.06-.14s.04-.07.06-.07z"></path><path d="M206.53 164.24c-.58.47-.89-.25-1.37-.31-1.5-.2-3-.48-4.49-.79a2.36 2.36 0 0 0-1.39.05c-.27.09-.8.37-1-.26a6.53 6.53 0 0 1 1.68-1.46 4.11 4.11 0 0 0 2.2.29 9 9 0 0 1 3.41.5c.61.19 1.45.11 1.75.93a2.34 2.34 0 0 1-.79 1.05z" fill="#327739"></path><path d="M196.21 165.45c0 .43.11.77.62.77a19.52 19.52 0 0 0 2.38.25 4.65 4.65 0 0 1 3.47.69 6 6 0 0 1-2.24 1.28 10.36 10.36 0 0 1-5.12-.88.75.75 0 0 1 .06-.62 2.81 2.81 0 0 1 .83-1.49z" fill="#45883d"></path><path class="cls-31" d="M180.1 161.3a.82.82 0 0 1 1.19-.61 2.17 2.17 0 0 0 1.16-.06c2.85-.34 5.65-1.18 8.57-.88a1.33 1.33 0 0 0 .88-.24c1.06-.73 2.45.18 3.46-.73a3.77 3.77 0 0 1-1.38 1.28 4.89 4.89 0 0 0-2 0c-2 .05-4 .94-5.94.78-1.72-.13-3.27.9-5 .38-.26-.1-.55.71-.94.08z"></path><path d="M207.34 163.19a12.22 12.22 0 0 0-3-.93 30.41 30.41 0 0 0-3.56-.24c-.35 0-.8 0-.85-.55a4.62 4.62 0 0 1 1.69-1v.19c1.13-.14 2.14.68 3.27.41.27-.06.5-.17.74.11.72.8 1.78.71 2.7 1-.2.4-.78.52-.99 1.01z" fill="#2e7338"></path><path d="M228.44 155.65a1.06 1.06 0 0 1-.47.8c-.9.64-1.81 1.27-2.73 1.88-.32.22-.69.4-1 0a.76.76 0 0 1 .11-1.12c.9-.8 1.82-1.59 2.74-2.37a.64.64 0 0 1 .86 0 1.15 1.15 0 0 1 .49.81z" fill="#fdfcfb"></path><path class="cls-63" d="M191.41 172.82a3.79 3.79 0 0 1-2.44.09 17.54 17.54 0 0 0-4-.1c-.79.09-1.52-.48-2.33-.2a17.1 17.1 0 0 1-3.43-.11c-.05-.64.44-.6.84-.64a26.72 26.72 0 0 1 3.9 0 3.93 3.93 0 0 0 1.23-.09 4.09 4.09 0 0 1 2.14 0c1.13.31 2.34 0 3.49.25z"></path><path d="M205.44 181.41c-1.07-.89-2.16-1.75-3.18-2.69a6.57 6.57 0 0 0-1.6-.92 34.17 34.17 0 0 0-4.39-2.13c-.05 0-.07-.12-.11-.2.22-.31.7 0 .9-.34h.42a21.83 21.83 0 0 1 5 2.55c1.21.68 1.89 2 3 2.87a.79.79 0 0 1 .2.87.16.16 0 0 1-.24-.01z" fill="#76ab48"></path><path class="cls-65" d="M190.6 165.08l-.45.41a3.2 3.2 0 0 1-2.1.36 38 38 0 0 0-4.53.19c-.38 0-.78.08-1-.38a.73.73 0 0 1 .43-.61 24.12 24.12 0 0 1 4.39-.66 26.41 26.41 0 0 1 2.68-.24.72.72 0 0 0 .7-.36.7.7 0 0 1 .37-.27.43.43 0 0 1 .29.08 3.51 3.51 0 0 1-.78 1.48z"></path><path class="cls-14" d="M199.85 155.68a8.89 8.89 0 0 1-3.84-.24 1.13 1.13 0 0 0 .07-1c.87.9 1.54 1.17 2.15.12.21-.37.68-.27.94-.25 1.61.17 3.22-.34 4.82.08a36.73 36.73 0 0 0-4.14 1.29z"></path><path d="M205.65 181.41a10.69 10.69 0 0 0-3.28-3.47 17.86 17.86 0 0 0-3.81-2.18c-.38-.15-1 .08-1.08-.64a5.34 5.34 0 0 1 2.09-.42v.21c0 .11-.32.17-.1.27.47.22.83.59 1.32.8 2 .89 3.46 2.54 4.92 4.14a4 4 0 0 0 .59.76 1 1 0 0 1 .13.25.55.55 0 0 1-.15.53.57.57 0 0 1-.63-.25z" fill="#70a846"></path><path class="cls-34" d="M195.86 158.39c-.43.05-.87.21-1.29-.1a.61.61 0 0 0-.49-.07c-2.52 1-5.21.55-7.8.95a21.19 21.19 0 0 1-2.18.57c-.24 0-.47.14-.65-.12a2 2 0 0 1 1.93-.87c1.68.16 3.27-.35 4.91-.48a5 5 0 0 1 1.54-.06 2.34 2.34 0 0 0 2.13-.31c.66-.45 1.53.16 2.32.07z"></path><path class="cls-67" d="M195.39 167.58a12.38 12.38 0 0 1 2.42.42c.88.11 1.76.29 2.63.44a4.59 4.59 0 0 1-1.89.83 10.21 10.21 0 0 1-2.65-.13c-.9-.08-.6-.94-.51-1.56z"></path><path d="M190.78 172c0 .23-.13.47-.38.38-1.27-.53-2.68 0-4-.54-.36-.15-.87.1-1.31.16a3.1 3.1 0 0 0-1.1-.11c-.33 0-.77.15-1-.31a3.18 3.18 0 0 1 1.65-.29 39.59 39.59 0 0 0 5.11.08c.2 0 .42 0 .56-.19a1.12 1.12 0 0 1 .47.82z" fill="#659d44"></path><path d="M195.39 167.58c-.06.85-.11 1.61 1.19 1.3a3.4 3.4 0 0 1 2 .39 1.42 1.42 0 0 1-.82.4c-.72.14-1.5.58-2.12-.13a2.38 2.38 0 0 1-.23-2.6z" fill="#51903f"></path><path class="cls-70" d="M221.19 162.36a12.13 12.13 0 0 0-.93 3.7 8.65 8.65 0 0 0 .31 2.77c-.11-.13-.31-.24-.33-.37-.24-2.12-.51-4.25.95-6.1z"></path><path d="M215.08 167.1a1.08 1.08 0 0 1-.15-.12c-.13-.72-.11-1.39.63-1.8a.21.21 0 0 1 .33.12c.22.8-.26 1.29-.81 1.8z" fill="#487537"></path><path class="cls-70" d="M219.46 167a20.53 20.53 0 0 1-.23-4.83c.48.63.19 1.34.23 2 .05.92 0 1.83 0 2.83z"></path><path class="cls-72" d="M210.84 164.64a2 2 0 0 1 2.38-.42 5.7 5.7 0 0 0-2.38.42zM209.85 167.58a2.5 2.5 0 0 1-1.06 1.23c.12-.61.6-.91 1.06-1.23zM211.06 166.12c-.11.6-.59.9-1 1.24.08-.61.59-.89 1-1.24z"></path><path class="cls-70" d="M219.24 162.16a3.53 3.53 0 0 1 0-2.11zM219.66 168.65a3.49 3.49 0 0 1-.21-1.69c.45.51.15 1.13.21 1.69z"></path><path class="cls-67" d="M189.94 167.16a.4.4 0 0 1 .21-.41A2.54 2.54 0 0 1 190 168h-.22c-.35-.37-.16-.62.16-.84z"></path><path class="cls-70" d="M219.88 170.11a2.85 2.85 0 0 1-.23-1.47c.45.43.16.98.23 1.47z"></path><path class="cls-72" d="M208.18 169.47c0 .21-.2.39-.33.25s-.13-.63.08-.92c.07.2-.02.52.25.67z"></path><path class="cls-73" d="M191.4 163.6h-.2c-.13-.23.09-.3.21-.42a.61.61 0 0 1 .45-.4 1.47 1.47 0 0 1-.46.82z"></path><path class="cls-72" d="M212.6 164.67l-.67.55a.57.57 0 0 1 .67-.55z"></path><path class="cls-45" d="M214 158.18a.56.56 0 0 1 .55-.65 1.21 1.21 0 0 1-.55.65z"></path><path class="cls-72" d="M208.53 167.57a1.74 1.74 0 0 1 .46-.84c.01.38.01.72-.46.84z"></path><path class="cls-36" d="M190.15 170.3c-.35-.3-.17-.69-.2-1.05.3.31.17.75.2 1.05z"></path><path class="cls-70" d="M220.09 171.17a1.73 1.73 0 0 1-.22-1.07c.38.29.18.7.22 1.07z"></path><path class="cls-6" d="M124.83 156.23a2.67 2.67 0 0 1-1.72-1.4.53.53 0 0 1 .23-.78c.52-.15.24.27.28.5.14.66.91.89 1.21 1.68zM121.46 155.65c.41 0 .67-1 1.2-.17.13.2.18.53.06.52-.43 0-1 .28-1.26-.35z"></path><path class="cls-6" d="M120.72 154.05c.63-.17.64.17.78.52s-.35.71 0 1.08c-.1 0-.21 0-.31-.07s-.28-.21-.17-.31c.44-.5-.08-.8-.3-1.22zM120.32 156.72c.33.14.49.38.41.6a2.74 2.74 0 0 1-.51.69c-.12-.13-.45-.13-.38-.36a6.82 6.82 0 0 1 .48-.93z"></path><path class="cls-4" d="M115.77 162.17c-.36-.35-.74-.56-.87-1 1-.3 1.1.22.87 1z"></path><path class="cls-6" d="M121.55 158.16c-.32 0-.58-.06-.58-.3s.31-.34.52-.44.36 0 .3.23.1.56-.24.51z"></path><path class="cls-4" d="M113.83 162.28c-.19.05-.39 0-.4-.21 0-.37.36-.39.6-.47s.28.12.3.31c.04.41-.33.28-.5.37z"></path><path class="cls-1" d="M118.94 154.6c-.85.05-.33-.35-.21-.62.27.14.21.39.21.62z"></path><path class="cls-4" d="M123.5 157.66l-.24.32c0-.08-.11-.18-.09-.23a1.68 1.68 0 0 1 .25-.29z"></path><path class="cls-5" d="M127.32 168.42l.84-.21h.14l1.21.29c1 .38 2 .35 3 .71a7.25 7.25 0 0 1 1.11.47.72.72 0 0 1 .42.42 1.72 1.72 0 0 1-1 .21 16.1 16.1 0 0 0-4.61-1.26c-.28-.43-1.05.07-1.11-.63z"></path><path class="cls-6" d="M124.33 159.33a2.18 2.18 0 0 1-.52.23.25.25 0 0 1-.33-.28.31.31 0 0 1 .38-.26c.14-.02.26.16.47.31z"></path><path d="M223.66 184.13a27.06 27.06 0 0 0 2.51-1.77.67.67 0 0 0 .24-1.05 5.06 5.06 0 0 1-1-2.77c-.14-.88-1-1.22-1.12-2-.11-1.42-1.43-2.27-1.67-3.68-.12-.64 0-.64.46-.61a2.85 2.85 0 0 0 1.42 0c.06.13.06-.05.06.08 0 1.22 1 2.13 1.07 3.33a1.38 1.38 0 0 0 .45.8 2.09 2.09 0 0 1 .67 1.58c0 .45.3.75.56 1.08a3.62 3.62 0 0 1 .91 2.36 1 1 0 0 1-.58 1c-.2.16-.47.21-.63.42a24.51 24.51 0 0 0-2.51 1.26c-.3.21-.56.07-.84-.03z" fill="#1f6634"></path><path class="cls-7" d="M227.64 182.45c.71-1.27.18-2.29-.63-3.29-.3-.38-.76-.72-.53-1.37a.91.91 0 0 0-.39-.95 1.81 1.81 0 0 1-.77-1.8c0-.15 0-.44-.11-.48-1.32-.47-.42-1.6-.71-2.37l.84-.2c.08.2.45.26.32.59a1.67 1.67 0 0 0-.08.4c.95 0 .59 1 1.06 1.47a7.11 7.11 0 0 1 2.19 4.64 6.39 6.39 0 0 0 .48 1.66c.11.32.35.62 0 .94s-.74 1.31-1.67.76z"></path><path class="cls-75" d="M161.46 179.11l-.21-.22c-.16-.13-.39-.24-.16-.5a.59.59 0 0 1 .31-.09c2.31.64 4.48 1.68 6.75 2.43 1.72.56 3.45 1.08 5.13 1.74a84.48 84.48 0 0 0 10.24 2.74 79.09 79.09 0 0 0 11.64 2c.36 0 .81 0 .88.5a1.4 1.4 0 0 1-1.08 0c-2.33.06-4.57-.6-6.86-.91-4.51-.6-8.81-2-13.19-3.11-.87-.21-1.67-.65-2.56-.8-1.06-.31-2.11-.65-3.14-1-.23 0-.48 0-.63-.21-1.26-.42-2.51-.85-3.77-1.26-.63-.2-1.25-.44-1.89-.63-.47-.31-1.06-.27-1.46-.68z"></path><path class="cls-45" d="M219.47 185h1.05a19.35 19.35 0 0 1-4.63 1.41c-2.07.51-4.18.87-6.27 1.26a7.43 7.43 0 0 1-1.25.05c.53-.79 1.44-.64 2.18-.8s1.76-.3 2.64-.46h.21a10.21 10.21 0 0 0 1.88-.42 18.07 18.07 0 0 1 2.51-.63c.6-.03 1.04-.61 1.68-.41z"></path><path class="cls-76" d="M213.19 186.43a29.87 29.87 0 0 1-4.27 1c-.2.05-.41 0-.55.22a59.57 59.57 0 0 1-7.3.62c-.36 0-.77.14-1.08-.2.5-.46 1.12-.24 1.69-.29a4.33 4.33 0 0 0 1.34-.13 6.68 6.68 0 0 1 2-.31c1.68-.19 3.35-.51 5-.76h.18l2.3-.21z"></path><path class="cls-75" d="M203.13 187.9c-1 .46-2.1.09-3.14.21h-.63c-.74-.3-1.55.07-2.3-.21h-.21a.25.25 0 0 1 .1-.34 5.23 5.23 0 0 1 2.66-.12c1.17.18 2.39-.09 3.52.46z"></path><path class="cls-77" d="M164.81 180.36a11 11 0 0 1 3.77 1.26 10.07 10.07 0 0 1-3.77-1.26zM169.21 181.83a9.76 9.76 0 0 1 3.14 1 6.51 6.51 0 0 1-3.14-1zM162.92 179.73a2.65 2.65 0 0 1 1.89.63 2.76 2.76 0 0 1-1.89-.63z"></path><path class="cls-76" d="M197.06 187.9c.76.11 1.57-.24 2.3.21-.76-.11-1.57.23-2.3-.21zM196.85 187.69v.21c-.63-.09-1.29.2-1.89-.21H196a.56.56 0 0 1 .85 0z"></path><path class="cls-7" d="M227 182.87c0-.42.32-.42.63-.42a.64.64 0 0 1-.63.42z"></path><path class="cls-32" d="M144.49 172.82c-.77-.28-1.54-.58-2.32-.83-.4-.13-.81-.22-1-.64.35-.33.74-.09 1.11-.08 1.58.7 3.24 1.18 4.84 1.84a9.46 9.46 0 0 0 1.78.57c2 .71 3.95 1.32 5.85 2.21.28.13.6.19.7.54a.75.75 0 0 1 0 .16c-1 .15-1.8-.58-2.7-.85-2.65-.8-5.23-1.79-7.84-2.71a1.8 1.8 0 0 1-.42-.21z"></path><path d="M161 178.48l.21.41a16.28 16.28 0 0 1-3.77-1.46.19.19 0 0 1 0-.28 7.07 7.07 0 0 1 3.56 1.33z" fill="#317038"></path><path class="cls-32" d="M157.48 177.22v.21a5.9 5.9 0 0 1-2.1-.84 1.65 1.65 0 0 1 2.1.63z"></path><path class="cls-15" d="M151.49 140.77c.14-2.34 0-4.7 1-6.89a3.22 3.22 0 0 1 2.94-2.12 3.46 3.46 0 0 1 3 2.46 23 23 0 0 1 0 13.07 3.37 3.37 0 0 1-2.91 2.49c-1.32.07-2.3-.71-3-2.17-1.01-2.2-.88-4.55-1.03-6.84zM205 140.81c.1-2.39.07-4.66 1-6.8s2.79-2.85 4.63-1.66a3.82 3.82 0 0 1 1.53 2.41 24.78 24.78 0 0 1 0 12.1c-.52 2.07-2.09 3.2-3.75 2.86a3.05 3.05 0 0 1-2.17-1.78c-1.24-2.3-1.16-4.79-1.24-7.13zM83.39 143.47v-4.8c0-.62.23-.85.81-.95a5.43 5.43 0 0 1 5.51 2.38 5.69 5.69 0 0 1-.43 6 8.33 8.33 0 0 1-5.1 3c-.67.16-.79-.11-.78-.68 0-1.68-.01-3.31-.01-4.95z"></path><path d="M83.39 130.92V128c0-.63.23-.85.83-.91A5.25 5.25 0 0 1 88 128c1.86 1.33 1.64 3.83-.52 5.32a8.44 8.44 0 0 1-3 1.34c-.75.16-1.11.06-1-.82s-.09-1.94-.09-2.92z" fill="#bb9432"></path><path class="cls-2" d="M128 133.65h-2a2.79 2.79 0 0 1 2 0z"></path><path class="cls-14" d="M195.59 155.65a25.28 25.28 0 0 1-5.46.81c-.84 0-1.67.59-2.53 0-.37-.28-.26.92-.86.39-.82.75-1.86.33-2.74.35-1.17 0-2.19.53-3.33.57-1.85.08-3.67.61-5.54.42a2 2 0 0 0-1 .25 1.53 1.53 0 0 1-1.57 0c.38-.34.34-.55-.18-.65-.17 0-.36-.13-.3-.33s.29-.24.51-.17.55 0 .69.19c.8.82 1 0 1.37-.46.32.08.46.33.63.55a.22.22 0 0 0 .34.07 4.68 4.68 0 0 1 3.29-.42.32.32 0 0 0 .35-.16.89.89 0 0 1 .92-.44 23.42 23.42 0 0 1 2.79-.1 2.8 2.8 0 0 0 1.73-.4c.82-.63 1.68-.13 2.45-.43.23-.09.27.12.4.21.35.27.68.67.88-.18.16-.65.85-.18 1.29-.34a20.83 20.83 0 0 1 3.12-.68 1.19 1.19 0 0 1-1 .75.32.32 0 0 0-.17.44c.11.26.24.05.4 0 .77-.14 1.24-.87 2.08-1s1.2.11 1.44.76zM197.56 154.43c0 .2-.09.29-.23.3s-.2-.13-.19-.14a.93.93 0 0 1 .22-.29s.15.09.2.13z"></path><path class="cls-5" d="M131.51 164.23c-.9.77-2.1.83-3.15 1.19a22.35 22.35 0 0 1-3 1c-.57.11-.34.75-.38 1.17-.6-.25-1.62 0-1.61-1 0-.76 1-.48 1.44-.64 1.66-.54 3.27-1.18 4.91-1.75a2 2 0 0 1 1.79.03zM125.86 168a1.33 1.33 0 0 1 1.46.42c-.59.2-1.02-.13-1.46-.42z"></path><path class="cls-4" d="M123.68 163.32c-.1.07-.22.18-.25.16a2.85 2.85 0 0 1-.36-.34c.07 0 .15-.14.22-.14s.3.13.39.32z"></path><path d="M133.6 169.68c-1.38-.42-2.85-.43-4.18-1.05-.37-.31-.86-.23-1.26-.42-.36-.66-.66-1.06.56-1.29 1.41-.28 2.72-1 4.18-1.31a7.23 7.23 0 0 1 1.12-.12c.72.61 1.54.17 2.24.07a45.15 45.15 0 0 1 4.6-1c1.37-.07 2.75-.38 4.14-.49.83-.06 1.65-.24 2.52-.22a3.6 3.6 0 0 0 2.2-.44 1.43 1.43 0 0 1 1.18-.2 3.83 3.83 0 0 0 3-.27c.85-.31 1.66.32 2.49 0 .06 0 .16.08.19.06 1-.78 2.3 0 3.42-.53.45-.19 1.11.14 1.68.23a3 3 0 0 1-2.54.59c-1.35-.07-2.45 1-3.84.52-.55-.18-1.27.32-2 .32-1.29 0-2.52.45-3.86.38a22.11 22.11 0 0 0-6.06.89 19.45 19.45 0 0 1-4.06.73 33.84 33.84 0 0 0-5.91 1.07 1.24 1.24 0 0 1-.71 0 .77.77 0 0 0-1.13.69.85.85 0 0 0 .87 1 1.25 1.25 0 0 1 1.16.79z" fill="#266b36"></path><path d="M142.19 171.56l-1.05-.21h-.21c-.65-.37-1.3-.74-2-1.1a.68.68 0 0 1-.4-.68c0-.3.33-.3.58-.31 2.63-.17 5.13-1 7.71-1.45a6 6 0 0 1 2.24 0c0 .64-.56.66-.93.77a44.24 44.24 0 0 1-5.58 1.17 6.47 6.47 0 0 0-1.22.26c-.18.06-.47.08-.48.32s.32.29.52.4c.39.18.88.27.82.83z" fill="#307539"></path><path class="cls-82" d="M141.35 170.93l-.59-.17c-.25-.07-.45-.17-.43-.48s.27-.33.5-.41c1.41-.49 2.9-.53 4.34-.88s2.75-.38 3.93-1.2h.42l.63.42c0 .7-.46.75-1 .82a46.37 46.37 0 0 0-6.29 1.15 4 4 0 0 0-1.51.75z"></path><path d="M222.71 164.78a5.24 5.24 0 0 1 1.37-2.65c.16-.16.39-.35.64-.15s.13.37.09.58a3.21 3.21 0 0 1-2.1 2.22z" fill="#bc9740"></path><path d="M141.35 170.93c0-.35.14-.51.46-.69a10.11 10.11 0 0 1 2.42-.7 31.44 31.44 0 0 1 5-.76 1 1 0 0 0 .88-.57c1.52-.33 3.09-.29 4.61-.62s3.3-.26 4.85-1a.38.38 0 0 1 .38.11c.29.32.63.14 1 .15 1 0 2-.66 3-.26.67.25 1-.44 1.55-.54 1.47-.26 3-.17 4.41-.48s2.66-.35 4-.54a60.49 60.49 0 0 1 6.88-.91 24.42 24.42 0 0 0 5-.65c1.5-.36 3.06-.16 4.51-.71.41-.15.63.42 1 .37l-.21.42-.21.21a34.33 34.33 0 0 1-5 .61c-1.36.2-2.74.22-4.1.4-1.57.21-3.15.35-4.72.64a11.22 11.22 0 0 0-1.28.41c-3.21.68-6.51.81-9.73 1.51-.55.12-1 .42-1.59.5a6.32 6.32 0 0 0-3.48.17 32.88 32.88 0 0 1-8.36 1.23 1 1 0 0 0-.42.05c-1.74 1-3.84.2-5.6 1.2-.53.3-1.3.14-1.91.4-.19.08-.42.14-.44.39s.2.34.38.43a4.77 4.77 0 0 0 1.73.71 1.28 1.28 0 0 1 .28.07c.62.38 1.33.55 2 .9a.76.76 0 0 1 .23.17.26.26 0 0 1 0 .27 4 4 0 0 1-1.69-.43l-5-1.88c-.18-.33-.52-.4-.83-.58z" fill="#347839"></path><path class="cls-82" d="M160 166.75c-2.86 1-5.88 1.08-8.83 1.54a4.1 4.1 0 0 1-1-.08c.66-.86 1.66-.52 2.49-.59a44.43 44.43 0 0 0 4.47-.79 12.93 12.93 0 0 0 2.61-.37c.03-.01.16.19.26.29z"></path><path d="M173.18 182.66c-4-1.2-8-2.73-11.93-4.19-1.54-.69-3.16-1.17-4.68-1.9-.89-.57-2-.76-2.77-1.52-.47-.81-.32-1.28.48-1.44 1.53-.31 3-.87 4.51-1.24 2.85-.71 5.63-1.77 8.61-1.93a17.7 17.7 0 0 0 2.12-.52 67.12 67.12 0 0 1 8.11-1c.54 0 1.05-.41 1.63-.17.22.13.49.21.42.56-1.85.46-3.76.54-5.63.9a16.53 16.53 0 0 1-3.3.44 13.1 13.1 0 0 0-3.93.8c-1.08.33-2.23.48-3.34.75a20.84 20.84 0 0 0-4.95 1.51c-.17.65-.81.3-1.18.54s-1.12.17-1.18.68.6.68 1 1a5.25 5.25 0 0 0 1.2.62c.42.36 1 .43 1.42.77.7.27 1.29.83 2.1.83a23.81 23.81 0 0 1 4 1.64c2.24.93 4.62 1.43 6.88 2.27.38.14.85.15.9.71a.34.34 0 0 1-.49-.11z" fill="#4f8c3f"></path><path class="cls-86" d="M183 171.56a1 1 0 0 0 1 .13.86.86 0 0 1 1.1.29 8.86 8.86 0 0 1-2.72 0h-2.79c-.12 0-.23.23-.35.35s-.59.17-.89.24a7.18 7.18 0 0 0-1 .09l-.29.07a3.82 3.82 0 0 0-1 .11 61.81 61.81 0 0 0-8.69 1.58 21.78 21.78 0 0 0-5.41 1.8 2.15 2.15 0 0 0-.78.83l-.11.1c-.33-.11-.67-.18-1-.32a.67.67 0 0 1-.35-.61.43.43 0 0 1 .44-.38 6.93 6.93 0 0 0 3.06-1.07 38.55 38.55 0 0 1 7.59-2 46.14 46.14 0 0 1 7.53-1.14c1.54.02 3.11-.45 4.66-.07z"></path><path d="M159.78 177.22a2.82 2.82 0 0 1-1.46-.63c-.11-.11-.27-.08-.38-.16-.46-.32-1-.63-.92-1.28s.74-.8 1.27-.89a26.29 26.29 0 0 0 3.17-.81 2.06 2.06 0 0 1 1.26-.35 3.94 3.94 0 0 0 2.15-.38 19.91 19.91 0 0 1 4.79-1.25c1.2-.18 2.45-.77 3.74-.33v.21c-.51.58-1.38.06-1.89.63a45.81 45.81 0 0 0-4.66 1.12 28.76 28.76 0 0 1-3.86.8c-.2 0-.43 0-.57.17-.67.83-1.73.67-2.6 1-.54.19-1.1.23-1.25.81s.48.74.86 1a2.11 2.11 0 0 1 .35.34z" fill="#599341"></path><path class="cls-86" d="M173.61 182.65a6.59 6.59 0 0 0-2.2-.83 71 71 0 0 1-9.53-3.77c-.25-.3-.7-.42-.84-.83.31-.25.47 0 .63.21.78.32 1.37 1 2.3 1a15.06 15.06 0 0 0 5 2.1c.43-.21.8 0 1.18.18 1.71.67 3.46 1.21 5.23 1.72l.75.23a8.65 8.65 0 0 0 2.06.58c.56.15 1.1.36 1.67.46.39.16.89.13 1.11.61a.3.3 0 0 1-.13.29 30.82 30.82 0 0 1-5-1.24c-.73-.19-1.49-.43-2.23-.71z"></path><path class="cls-58" d="M171.51 172c.4-.9 1.33-.2 1.89-.63-.47.69-1.27.37-1.89.63z"></path><path class="cls-48" d="M212.35 185.59l-1.26.63a1.16 1.16 0 0 0-.83.42.5.5 0 0 1-.63 0c.41-.75 1.28-.65 1.89-1z"></path><path d="M179.26 168.84c-.82-.17-1.52.41-2.39.32a13.6 13.6 0 0 0-3.75.39 28.17 28.17 0 0 0-5.39 1.1 5.83 5.83 0 0 1-1.53.19 55.88 55.88 0 0 0-7.45 1.84 15.07 15.07 0 0 0-3.91 1.23.3.3 0 0 1-.29 0c-.36-.31-.55 0-.78.19-.39.36.09.54.15.8-.8.4-1.27-.06-1.57-.68a.76.76 0 0 1 .54-1.2 30.57 30.57 0 0 1 4.5-1.23 8.71 8.71 0 0 0 2.47-.8 2.28 2.28 0 0 1 1.21-.23 9.59 9.59 0 0 0 3.8-.87h.13a10.6 10.6 0 0 0 4.58-.41c.75-.15 1.53-.12 2.23-.29 1.43-.33 3.08-.07 4.25-.61 1.6-.74 3.22-.42 4.79-.84 1-.27 2.27 0 3.43-.12s2.65.13 3.91-.35c.59-.21 1.17.23 1.73-.11a1.48 1.48 0 0 0-.21.84v.21a45.39 45.39 0 0 0-5.45.39 38.11 38.11 0 0 1-5 .24z" fill="#49883e"></path><path class="cls-67" d="M179.26 168.84a6.25 6.25 0 0 1 2.58-.29 12.75 12.75 0 0 0 2.76-.22 11 11 0 0 1 3.12-.34c.68 0 1.39-.35 2 .22.21 1.21-1 .78-1.18.72-1.24-.39-2.41.14-3.61.11a7.23 7.23 0 0 0-2.08-.1c-1.08.41-2.17-.16-3.18.32z"></path><path d="M161.46 173.45c-.63.62-1.55.56-2.29.93h-.2c-.65.08-1.51.06-1.72.69s.6 1.06 1.07 1.5a4.76 4.76 0 0 1-2.47-1.41c-.53-.43.05-.73.41-.86.74-.26 1.51-.45 2.27-.66a20.42 20.42 0 0 1 2.93-.19z" fill="#539140"></path><path d="M182.61 165.7a3.81 3.81 0 0 0 2.54 0c1.38-.34 2.73.22 4.08-.13.22-.06.6-.43.92-.06 0 .67-.48 1.06-1 .93-1.36-.37-2.63.2-3.94.18s-2.81.55-4.27.3a2 2 0 0 0-1.11.19 7.37 7.37 0 0 1-2.9.44c-1 .1-2 .25-3 .42a43.18 43.18 0 0 1-4.28.58 28.66 28.66 0 0 0-4.43.94 27.73 27.73 0 0 0-3 .81c-.69.33-1.45.06-2.16.27-2.37.68-4.88.82-7.18 1.82a3.39 3.39 0 0 1-1.73.31c-.7-.06-1.24 0-.8 1 .07.13 0 .26-.13.35a1.41 1.41 0 0 1-1.37-.33 7.05 7.05 0 0 0-2.3-1c-.58-.46-.07-.72.21-1a5.12 5.12 0 0 1 2.43-.86c3.15-.64 6.41-.57 9.54-1.38a31.45 31.45 0 0 0 4.73-1.35 37.52 37.52 0 0 0 6.75-1c1.32-.4 2.69-.15 4-.44 2.3-.49 4.69-.45 7-1a3.13 3.13 0 0 0 1.1 0 .34.34 0 0 1 .3.01z" fill="#3e803c"></path><path class="cls-91" d="M162.3 170.1c1-.25 1.82-1 2.93-.63l-.21.42c-.86.22-1.68.82-2.62.32z"></path><path d="M161.67 177.43l-.63-.21c-.28-.72.37-1 .75-1.15 1.13-.45 2.28-.89 3.46-1.24 1.9-.58 3.85-.87 5.76-1.36a24.49 24.49 0 0 1 5.11-.65c.31-.25.73.05 1-.21s.73 0 1-.21h1a31.38 31.38 0 0 1 3.35.21c-1 .55-2.08 0-3.13.18-2.62.32-5.21.62-7.8 1.2-2.22.49-4.41 1.09-6.63 1.58a22.91 22.91 0 0 0-3 1.07c-.23.13-.25.46-.24.79z" fill="#6d9f46"></path><path d="M166.48 179.31c-.61.08-.95-.48-1.46-.63-.59-.81-.53-1.16.42-1.5a31.19 31.19 0 0 1 4.48-1.36c2.43-.5 4.85-1 7.32-1.35 1.88-.25 3.79-.18 5.67-.43a25.42 25.42 0 0 0 3.59.2 20.33 20.33 0 0 1 5.27.88c.41.3 1 .06 1.36.55-.25.62-.78.3-1.19.35a50.83 50.83 0 0 0-5.54-.93 29 29 0 0 0-6 0 78.31 78.31 0 0 0-11 1.76c-1.1.24-2.09.74-3.15 1.08-.47.16-.33.44-.09.71s.41.36.32.67z" fill="#87b04f"></path><path d="M182.82 174.28c-1.68.13-3.37.31-5 .35a36.6 36.6 0 0 0-4.06.69c-1.67.23-3.3.77-5 1-1.14.18-2.1.83-3.21 1.06-.69.14-.87.63-.51 1.27-.38-.22-1-.32-1-.84s.62-.75 1.07-.87c2-.52 3.93-1.22 6-1.64s4.35-.9 6.55-1.17a14.59 14.59 0 0 1 2.38-.11 5.63 5.63 0 0 0 1.74-.18c.22.37.9-.21 1.04.44z" fill="#83ac4d"></path><path class="cls-95" d="M166.48 179.31l-.42-.42a.64.64 0 0 1 .31-1 22 22 0 0 1 5.33-1.52.55.55 0 0 1 .38.13c.21.21.09.39-.05.56-1.17.78-2.59.85-3.87 1.34-.24.09-.62 0-.66.38s.36.36.57.53c.42.22.81.51 1.25.7.86.37 1.72.71 2.6 1a4.84 4.84 0 0 0 1.25.42l.72.22c.53.34 1.36.2 1.59 1a36.85 36.85 0 0 1-6.48-2.1 18.52 18.52 0 0 0-2.52-1.24z"></path><path d="M182.82 174.28c-.25-.39-.8 0-1-.41a91.13 91.13 0 0 1 10 .62c.05.66.78.47 1.05.84a1.21 1.21 0 0 1-1.05 0c-1.31-.28-2.61-.66-3.94-.81-1.67-.18-3.37-.17-5.06-.24z" fill="#81ae4c"></path><path class="cls-97" d="M209.62 186.63h.63a23.34 23.34 0 0 1-5.49 1 8.11 8.11 0 0 0-1.63.23c-2.1.08-4.18-.36-6.28-.21H196a16.58 16.58 0 0 0-3.05-.42c-3.19-.56-6.44-.83-9.54-1.87l.13-.13a1.37 1.37 0 0 1 1-.1c2.69.64 5.44 1 8.16 1.48a46.77 46.77 0 0 0 5.28.55 54.68 54.68 0 0 0 10.38-.62.83.83 0 0 1 .6 0z"></path><path d="M209 186.63a34.85 34.85 0 0 1-7.39.93c-3-.08-6 .1-8.94-.71a1.59 1.59 0 0 1 1.48-.25 52 52 0 0 0 8.18.38 15.74 15.74 0 0 0 2.36-.32 7.82 7.82 0 0 1 2.85-.23h.84c.21.01.46-.04.62.2z" fill="#638a46"></path><path class="cls-50" d="M209.42 186a.73.73 0 0 1 .83-.42 1.09 1.09 0 0 1-.83.42z"></path><path class="cls-76" d="M215.28 186a2.66 2.66 0 0 1-1.88.42 4.69 4.69 0 0 1 1.88-.42zM219.47 185c-.58.08-1.05.55-1.68.42a3.61 3.61 0 0 1 1.68-.62z"></path><path d="M205.65 180.36a17.33 17.33 0 0 0-7-5.14c.18-.45.58-.26.89-.31 2.82 1 4.86 3.07 6.82 5.15 1 1 1.7 2.32 2.63 3.42a3.63 3.63 0 0 1 .4 1.28c-.16.12-.38.14-.46 0-.69-1.25-1.77-2.19-2.53-3.38-.07-.11 0-.27-.15-.37s-.32-.51-.6-.65z" fill="#6ba545"></path><path d="M207.53 186.43a12.52 12.52 0 0 1-2.72.42c-.38.2-.57 0-.68-.33a.31.31 0 0 1 .19-.2 8.64 8.64 0 0 0 1.14-.12 5.69 5.69 0 0 0 .81-.13c1.2-.31 1.32-.59.71-1.65a.74.74 0 0 1-.08-.29c-.08-1.13-1.05-1.78-1.46-2.72h.21l.63.2a8.07 8.07 0 0 1 2.44 3.28c.31.84-.53 1-1 1.33z" fill="#77a949"></path><path class="cls-101" d="M207.74 186.22c1-1 1.06-1.32.06-2.55a9.63 9.63 0 0 1-1.52-2.06V181c.75.83 1.48 1.7 2.28 2.49.37.38.09 1.19.86 1.28.38.36.16.63-.18.8a4.49 4.49 0 0 1-1.5.65z"></path><path d="M191.82 175.33h1.05a14.84 14.84 0 0 1 4.06 1.16c1.52.62 2.71 1.85 4.36 2.16.08 0 .16.13.23.2l3.29 3.18a.36.36 0 0 1 .05.43c-.71.25-1-.34-1.43-.7a2.33 2.33 0 0 0-1.15-.78 1.4 1.4 0 0 1-.59-.46 5.64 5.64 0 0 0-3.15-2.05 42.65 42.65 0 0 0-5.21-2.33c-.17-.06-.31-.17-.25-.39-.32-.44-.94.02-1.26-.42z" fill="#83b24c"></path><path d="M204.81 182.45V182a2.81 2.81 0 0 1 1.14 1.25 1.59 1.59 0 0 0 1 .85c.38.37 1 .68.85 1.26a1.51 1.51 0 0 1-1.4.91c-.31 0-.61.09-.91.13-.07-.17 0-.27.15-.37.71-.35.74-.82.4-1.52a13 13 0 0 1-1.23-2.06z" fill="#82af4c"></path><path d="M181.35 165.7c-1.88.68-3.89.6-5.81 1-2.31.48-4.78.06-7 1.19-.39.2-.8 0-1.11 0-1.34-.09-2.57.83-3.91.37.08-.54.47-.46.84-.42a11.71 11.71 0 0 1 4-1.09 12.09 12.09 0 0 0 3.47-.64c.07 0 .15-.1.19-.08 1.32.57 2.52-.52 3.82-.28 2-.39 4.14-.42 6.18-.84.42-.09.84-.19.94.42a.72.72 0 0 0-.42.42h-1.26z" fill="#3a7c3b"></path><path class="cls-73" d="M183 165.28c-.7-.53-1.4-.15-2.09 0a19.33 19.33 0 0 1-5 .41c.47-.73 1.36-.59 2-.64a25.06 25.06 0 0 1 3.29-.41c1.18 0 2.42-.36 3.66-.42 2.06-.09 4.1-.51 6.18-.42 0 .5-.35.63-.79.63-2.28 0-4.52.5-6.79.67a1.27 1.27 0 0 0-.46.18z"></path><path class="cls-101" d="M205.65 180.36a.59.59 0 0 1 .63.63c-.42.01-.48-.36-.63-.63z"></path><path class="cls-33" d="M128.16 168.21c.51-.13 1-.14 1.26.42a1.38 1.38 0 0 1-1.26-.42z"></path><path class="cls-105" d="M148.89 173.66a4.06 4.06 0 0 0 1.47.21 3.22 3.22 0 0 1 1.85.56c1.46.69 2.92 1.38 4.43 1.95 1.48.82 3.2 1.1 4.61 2.09H161l-3.56-1.26a5.34 5.34 0 0 0-2.09-.63 19.28 19.28 0 0 0-3.24-1.47 27.37 27.37 0 0 1-3.26-1.25z"></path><path class="cls-97" d="M173.61 182.65l5.8 1.56c.5.13 1 .23 1.52.34.91.06 1.88-.06 2.52.83a51.38 51.38 0 0 1-7.33-1.74c-1-.24-1.94-.66-2.92-1z"></path><path class="cls-106" d="M157.67 140.74a20.06 20.06 0 0 1-.45 5 3.93 3.93 0 0 1-.48 1.37c-.31.54-.72 1.14-1.43 1.06a1.69 1.69 0 0 1-1.31-1.27 20.54 20.54 0 0 1 0-12.22 1.53 1.53 0 0 1 1.38-1.25 1.47 1.47 0 0 1 1.43 1 12.64 12.64 0 0 1 .91 4.46c0 .65-.05 1.29-.05 1.85zM211.15 140.8a16.71 16.71 0 0 1-.67 5.67 8.26 8.26 0 0 1-.4.85c-.28.51-.64 1-1.29.87a1.51 1.51 0 0 1-1.22-1 14.41 14.41 0 0 1-1-5.09 18.82 18.82 0 0 1 .82-7.22c.27-.77.62-1.42 1.56-1.42s1.22.71 1.5 1.39a16.54 16.54 0 0 1 .7 5.95z"></path><path class="cls-6" d="M85.05 143.18v-3c0-1 .48-.93 1.1-.82a3.55 3.55 0 0 1 2.22 5.22 5.67 5.67 0 0 1-2.58 2.33c-.57.27-.74.12-.73-.48 0-1.1-.01-2.17-.01-3.25z"></path><path d="M85 130.67a3.2 3.2 0 0 1 0-.62c.1-.44-.31-1.15.32-1.26a2.07 2.07 0 0 1 1.95.76 1.15 1.15 0 0 1 .09 1.53 3.88 3.88 0 0 1-1.57 1.32c-.57.25-.85.23-.8-.48.08-.41.01-.83.01-1.25z" fill="#186032"></path><path class="cls-105" d="M164.39 167.79l-.84.42c-1.28.37-2.4 1.4-3.89 1-1 1-2.44.63-3.63 1.06a5 5 0 0 1-2.44.11 6.53 6.53 0 0 0-2.5.47c-1.35.32-2.82.07-4 .94-.3.21-.73.34-.46.86-1.06.28-1.71-.61-2.55-.93-.31-.12-.29-.69.14-.82a6.94 6.94 0 0 1 2.1-.5c.75 0 1.42-.66 2.24-.65.12 0 .26-.22.35-.19 2 .55 3.78-.83 5.8-.56a12.23 12.23 0 0 0 4.14-.66c1.54-.34 3.1-.6 4.66-.86.28-.09.74-.22.88.31z"></path><path class="cls-105" d="M146.59 172.61a2.26 2.26 0 0 1 2.3 1 4.9 4.9 0 0 1-2.3-1z"></path><path class="cls-91" d="M156.64 176.38c-1.77-.27-3.22-1.35-4.89-1.88a11.59 11.59 0 0 1-1.39-.63c-.16-.4-.75-.7-.46-1.17s.81-.31 1.26-.3a7.23 7.23 0 0 0 3-.73 6.64 6.64 0 0 1 2.25-.65 12 12 0 0 0 3.11-.66c.92-.24 1.87-.08 2.8-.26.08.81-.47.85-1.05.83-1.3.08-2.35 1-3.64 1.1-1.66.13-3.15.92-4.76 1.25-.68.15-.46.68-.21 1.05a1.42 1.42 0 0 0 1.28.58z"></path><path class="cls-63" d="M178.21 172.4c-.29.35-.69.16-1 .21.25-.35.65-.16 1-.21zM177.17 172.61c-.3.35-.7.16-1 .21.24-.35.64-.16 1-.21z"></path><path d="M183.45 185.38l-2.52-.83v-.22c.53-.44 1.08-.12 1.59 0 2.31.62 4.68 1 7 1.45a30 30 0 0 0 4.43.55c2.23.19 4.45.45 6.7.43a13.52 13.52 0 0 0 3.17-.43.48.48 0 0 1 .35.1.65.65 0 0 0 .63.4 7.55 7.55 0 0 1-2.41.43 88.06 88.06 0 0 1-9.74-.43c-2.64-.32-5.27-.78-7.87-1.35a7.59 7.59 0 0 0-1.33-.1z" fill="#7d9950"></path><path d="M189.52 186a69 69 0 0 1-7.67-1.55c-.3-.07-.61-.09-.92-.14-.3-.25-.77-.09-1.05-.41a.89.89 0 0 1 .65-.27 33.7 33.7 0 0 1 3.95.91c1.63.32 3.27.59 4.9.95.32.07.72 0 .81.49a.56.56 0 0 1-.67.02z" fill="#a1b25e"></path><path class="cls-110" d="M180.52 183.92h-.64a3.6 3.6 0 0 1-1.67-.42c-.41-.24-1-.08-1.3-.58a.4.4 0 0 1 .23-.21 5.21 5.21 0 0 1 3.38 1.21z"></path><path class="cls-110" d="M175.48 182.67l-1.67-.84a.83.83 0 0 1 .76-.23 1.65 1.65 0 0 1 .32.07c.49.21 1 .46 1.48.64.25.09.63.12.59.56a.82.82 0 0 1-.83 0c-.24 0-.49.04-.65-.2z"></path><path class="cls-95" d="M176.12 182.88h.88l1.26.63a4.15 4.15 0 0 1-2.14-.63z"></path><path class="cls-40" d="M161.25 170.93c.42-.19.92-.28 1.05-.83.93.3 1.8-.31 2.72-.21-.3.84-1.19.48-1.76.83s-1.11.06-1.57.53c-.15.15-.34-.14-.44-.32z"></path><path class="cls-65" d="M181.35 165.7a.71.71 0 0 1 1.05 0 .71.71 0 0 1-1.05 0z"></path><path d="M172.14 176.59a7.54 7.54 0 0 0-2.82.48c-.86.18-1.69.57-2.56.79a.9.9 0 0 0-.7 1c-.27-.19-.67-.34-.51-.77s.45-.37.74-.5a31 31 0 0 1 6.12-1.73 20.94 20.94 0 0 1 3-.48 31 31 0 0 1 4.91-.5c0 .52-.43.51-.74.51a4.81 4.81 0 0 0-1.41.31q-2.57.53-5.15 1a.86.86 0 0 1-.88-.11z" fill="#8db251"></path><path class="cls-112" d="M178.21 175.54c.56-.67 1.51 0 2.1-.63a8 8 0 0 1 3-.16 4.31 4.31 0 0 0 1.52 0c1.35-.3 2.59.37 3.9.47a30.35 30.35 0 0 1 3.26.54c.2.21.69.27.35.73a4.12 4.12 0 0 1-2.11-.34 17.16 17.16 0 0 0-5.66-.52 27.11 27.11 0 0 0-4.93.23 1.73 1.73 0 0 1-1.43-.32z"></path><path d="M192.45 176.38l-.42-.63c.35-.07.7.23 1.05 0a51 51 0 0 1 5.66 2.51c.22.42.7.42 1 .62s.89.29.84.9a.71.71 0 0 1-.6.11c-1.58-.69-3-1.73-4.54-2.44-.27-.39-.69-.4-1.1-.44l-.27-.08c-.37-.19-.69-.49-1.15-.39a.53.53 0 0 1-.47-.16z" fill="#8bb64f"></path><path d="M204.18 186.45H204a.38.38 0 0 1-.46 0 2.58 2.58 0 0 0-1.1-2.4 21.67 21.67 0 0 0-6.34-4.34 30.65 30.65 0 0 0-12.33-2.7 57.83 57.83 0 0 0-7 .46 2.25 2.25 0 0 0-1.23.5c-1.48.3-2.95.66-4.44.94-.85.16-1.35.36-1.3 1.3a.66.66 0 0 1-.61-.06c-.51 0-.8-.5-1.26-.63-.29-.62.19-.88.58-1.14a4 4 0 0 1 1.85-.54 2.42 2.42 0 0 0 1.21-.4 23.18 23.18 0 0 1 6.61-1.06 1.78 1.78 0 0 0 .85-.34 44 44 0 0 0 4.45-.06c2-.29 4 .28 6 .43a24.87 24.87 0 0 1 3.52.89 24.24 24.24 0 0 1 8.89 4.83 18.39 18.39 0 0 1 2.61 2.68 1.13 1.13 0 0 1 .23 1.34.79.79 0 0 1-.36.29z" fill="#a1bf59"></path><path class="cls-115" d="M169.83 180.15c-.56-.9-.34-1.43.74-1.44a11.3 11.3 0 0 0 2.83-.71c.67-.18 1.4.1 2.09-.16a7.85 7.85 0 0 1 2.8-.56q3.18-.33 6.38-.37c.57 0 1.12.1 1.35.75-.1.42-.45.4-.77.46-1.86.19-3.73-.09-5.6.23a36.59 36.59 0 0 1-4.9.7 25.57 25.57 0 0 0-2.72.66c-.44.08-.57.4-.1.71.21.13.42.25.64.36a2.37 2.37 0 0 1 .64.4.36.36 0 0 1 0 .43 1.4 1.4 0 0 1-1.26-.41c-.68-.43-1.56-.41-2.12-1.05z"></path><path d="M178.21 175.54c2.17.17 4.32-.42 6.49-.21.39.21.79 0 1.18.07s.73-.18.69.41a.67.67 0 0 1-.47.19c-2.08-.17-4.15.11-6.22.1a26.07 26.07 0 0 0-3.37.42c-1.35.27-2.72.42-4.07.71a.4.4 0 0 1-.51-.22l.21-.42c1.1-.31 2.25-.39 3.37-.65a9.39 9.39 0 0 1 2.7-.4z" fill="#96b755"></path><path d="M171.93 177a20.18 20.18 0 0 0 3.19-.41 2.92 2.92 0 0 1 1.21-.22c.89-.22 1.82 0 2.72-.21a.51.51 0 0 1-.53.53c-2.41-.21-4.69.52-7 .94-.29.29-.7.26-1 .41-1 .2-2.13.2-2.51 1.47-.25-.34-1-.25-.9-.76s.77-.5 1.26-.66c1.14-.38 2.36-.68 3.56-1.09z" fill="#9cba57"></path><path class="cls-118" d="M169.83 180.15c.66.43 1.52.45 2.1 1a9.09 9.09 0 0 1-2.72-1z"></path><path class="cls-119" d="M173.19 181.61v-.41l.12-.07a2.86 2.86 0 0 1 1.07.27c.16.1.36.17.27.42h-.84c-.23-.01-.47.04-.62-.21z"></path><path d="M204.39 186.44l.21-.22c.47-.47.42-.9 0-1.44a18.06 18.06 0 0 0-3.21-3.21c-.53-.44-1-1-1.5-1.42a.4.4 0 0 1 .08-.42h.63c.58-.12.79.51 1.26.63a.72.72 0 0 0 .42.42 23.93 23.93 0 0 1 3.6 3.79c.42.63.53 1.21-.25 1.65l-.21.21c-.33.03-.68.3-1.03.01z" fill="#90b851"></path><path d="M205.65 186.22a1.07 1.07 0 0 0 0-1.56 12.12 12.12 0 0 0-1.86-2.06 7.33 7.33 0 0 1-1.51-1.82c1-.1 1.22 1.07 2 1.38.17.07.28.29.51.29a6.15 6.15 0 0 1 1.62 2.44c.39.75-.08 1.11-.76 1.33z" fill="#89b44e"></path><path d="M201.88 180.36c-.59.12-.84-.42-1.26-.63-.21-.46-.71-.51-1.08-.75s-.77-.22-.8-.72a5.69 5.69 0 0 1 3.14 2.1z" fill="#89b54e"></path><path d="M203.55 186.43h.45a3.43 3.43 0 0 1-2.37.59 36.08 36.08 0 0 1-7-.37h-.73a.23.23 0 0 1 .08-.32 2.81 2.81 0 0 1 1.67-.09 33.83 33.83 0 0 0 7-.06 1.08 1.08 0 0 1 .9.25z" fill="#9db35c"></path><path d="M193.92 186.44v.2a19.22 19.22 0 0 1-4.4-.62h.63a5.35 5.35 0 0 1 3.77.42z" fill="#96ab5a"></path><path class="cls-125" d="M193.92 186.44l-3.77-.43c-1.54-.48-3.14-.63-4.71-1l-4.92-1.11a14.85 14.85 0 0 0-3.56-1c-.64-.47-1.53-.43-2.1-1 .7-.5 1.28 0 1.91.19a35.08 35.08 0 0 0 4.81 1.46c.64.17 1.28.33 1.92.47a55.77 55.77 0 0 0 5.85 1.23 61.17 61.17 0 0 0 6.3.88.37.37 0 0 1 .21.28c-.05.15-.14.18-.27.1z"></path><path d="M195.81 186.43v-.21c.33-.35.77-.25 1.18-.27h1.88c.27 0 .58-.08.68-.39s-.14-.51-.32-.72a6.65 6.65 0 0 0-1.73-1.14 48.26 48.26 0 0 0-5-2.43 10.48 10.48 0 0 0-3.35-.69 10.36 10.36 0 0 0-4.88-.68 35.61 35.61 0 0 0-6.67.62 3.54 3.54 0 0 0-1.77.68c.16.53 1 .4.88 1.08-.64-.09-1.21-.5-1.89-.41h-.21a.44.44 0 0 0-.42-.21.89.89 0 0 0-.35-.37.57.57 0 0 1-.4-.65c.06-.33.33-.43.61-.49 1.8-.43 3.61-.77 5.43-1.07a36.63 36.63 0 0 1 4-.32 26.32 26.32 0 0 1 4.76.42c.72.1 1.45.13 2.17.21a1.09 1.09 0 0 1 .31.08c1.28.52 2.61.94 3.88 1.49 1 .42 1.79 1.23 2.9 1.38 1.39.32 2.22 1.48 3.32 2.23a1 1 0 0 1 .37 1.21.94.94 0 0 1-1 .7 4.9 4.9 0 0 0-.93.1 22.84 22.84 0 0 1-3.45-.15z" fill="#c7d46c"></path><path d="M200 179.73v.42c-.51.38-.81-.06-1.16-.31a19.39 19.39 0 0 0-6.09-2.71h-.41c-1.51-.1-2.85-1-4.43-.88a1.79 1.79 0 0 1-1.31-.54c-.54-.52-1.34.11-1.89-.42a17.84 17.84 0 0 1 7.24 1 1.71 1.71 0 0 0 .51 0h.63a5 5 0 0 1 1 .42h.21c.4.18.89.13 1.25.42a38.14 38.14 0 0 1 4.45 2.6z" fill="#92b952"></path><path class="cls-112" d="M194.13 176.8a1.23 1.23 0 0 1-1-.42.84.84 0 0 1 1 .42zM195.59 177.22a2 2 0 0 1-1.25-.42c.45.04.98-.16 1.25.42z"></path><path d="M203.55 186.43h-.83c.16-1.07-.48-1.7-1.2-2.36a21.36 21.36 0 0 0-4.68-3.28 18.1 18.1 0 0 0-5.65-2.12 12.91 12.91 0 0 0-5-.95.3.3 0 0 1-.27-.08c-.81-1-1.86-.35-2.8-.42a40 40 0 0 0-4.76.29c-.94 0-1.91.37-2.91.33.54-1.06 1.63-.68 2.43-.78a40.19 40.19 0 0 1 8.35-.24 30.29 30.29 0 0 1 6.23 1.24 38.51 38.51 0 0 1 5.48 2.26 17.12 17.12 0 0 1 3.68 2.65c.59.53 1.13 1.12 1.72 1.64a1.2 1.2 0 0 1 .21 1.82z" fill="#a9c55d"></path><path d="M192.45 177c1-.25 1.89.36 2.76.69a10.17 10.17 0 0 1 4.19 2.31c.11.12.39.08.59.12.89.16 1.3 1 1.91 1.49a14 14 0 0 1 3.26 3.48c.43.7-.15.85-.56 1.1.31-1.43-1-1.95-1.66-2.74a19.8 19.8 0 0 0-5.31-4 13 13 0 0 0-4.55-1.83c-.08-.3-.54-.29-.63-.62z" fill="#98bc54"></path><path d="M192.45 177c.27.15.62.21.63.62-1.81-.31-3.54-.93-5.41-1.13a49.5 49.5 0 0 0-6.55-.13 18.12 18.12 0 0 1-2.07-.2c-.88.41-1.82.12-2.72.21A7.05 7.05 0 0 1 179 176a56.08 56.08 0 0 1 7.56-.24c1.29.39 2.69.2 4 .83a8.23 8.23 0 0 0 1.89.41z" fill="#9abb56"></path><path class="cls-118" d="M170.46 178.05a2.09 2.09 0 0 1 1-.41c-.16.48-.59.41-1 .41z"></path><path d="M191.2 178.47a7.83 7.83 0 0 1 3.25.94 25.31 25.31 0 0 1 8 5.21 1.22 1.22 0 0 1 .24 1.81 25 25 0 0 1-7.13 0h4c.58-.2 1.21-.07 1.79-.41s.62-.67.18-1a28.36 28.36 0 0 0-4.67-3.43 42.26 42.26 0 0 0-4.85-2.1c-.86-.32-1.73-.14-2.57-.38a1.31 1.31 0 0 1-.27-.12c-.82-.74-1.84-.57-2.81-.61-.47 0-1.05.19-1.25-.51.29 0 .62.1.84-.2h.21c1.76-.19 3.37.49 5.04.8z" fill="#b3ca61"></path><path class="cls-119" d="M185.12 177.84c.86.62 1.85.13 2.78.3a1.83 1.83 0 0 1 1.41.75c-.13.32-.38.32-.68.3-1.48-.14-2.95-.39-4.42-.41-1.11 0-2.24.15-3.36.1a4.06 4.06 0 0 0-1.51.2 19.18 19.18 0 0 1-4.46.5 4.93 4.93 0 0 0-1.6.34 1 1 0 0 0-.72 1.07 1.91 1.91 0 0 1-.56-.25c-.27-.25-1-.09-.81-.74s.72-.59 1.18-.68c1.52-.29 3-.65 4.58-.83 2.38-.27 4.73-.88 7.16-.54a4.4 4.4 0 0 0 1.01-.11z"></path><path class="cls-125" d="M172.56 181c-.47-.55-.48-.9.33-1.15a8.48 8.48 0 0 1 1.76-.53c.28.49-.14.73-.43.74-.81 0-.88.59-1 1.15-.22-.02-.51.02-.66-.21z"></path><path class="cls-132" d="M173.19 181.2c-.35-.78-.13-1.21.75-1.29.34 0 .67-.17.71-.6a31.16 31.16 0 0 0 4.82-.42c.43 0 .82-.21 1.26-.21a29.92 29.92 0 0 1 4.54 0 26.34 26.34 0 0 1 3.55.35c.14 0 .33-.08.49-.13a1.62 1.62 0 0 0 .89.23c.24 0 .6 0 .58.4a11.49 11.49 0 0 1-4.05-.3 25.5 25.5 0 0 0-5.92-.07 56.46 56.46 0 0 0-6.42 1.15c-.88.2-1 .36-.29.93.09.07.09.25.13.38z"></path><path d="M189.31 185.39a24.52 24.52 0 0 1-5.86-1.26c-.1-.28-.81.16-.58-.5.81-.37 1.53.25 2.31.21 1.88.39 3.76.72 5.64 1.11 1.26.27 2.55.2 3.83.37.26 0 .62.05.73-.26s-.26-.51-.51-.68c-.83-.55-1.87-.46-2.75-.91-2.72-1.39-5.63-1.24-8.55-1-.36 0-.65.26-1 .32-.58.09-.09.41-.13.61s-.38.27-.63.21l-.28-.08a3.31 3.31 0 0 0-.92-.3 1 1 0 0 1-.29-.08l-.19-.07c-.39-.18-1-.15-.93-.77a1.21 1.21 0 0 1 1.15-.92 3.51 3.51 0 0 0 1-.22 2.44 2.44 0 0 1 .66 0c1.21-.06 2.42 0 3.64-.14a14 14 0 0 1 4.74.59 18.59 18.59 0 0 1 7.09 3.09c.25.19.53.4.37.78a.85.85 0 0 1-.84.51h-3.24c-1.48-.13-2.97-.39-4.46-.61z" fill="#dcdf77"></path><path d="M189.31 185.39c1.56-.08 3.05.52 4.61.41a15.47 15.47 0 0 0 3.4.08c.4 0 .91-.16 1-.62s-.39-.56-.69-.68c-1.26-.53-2.34-1.34-3.53-2a5.53 5.53 0 0 0-3.41-1.26 2 2 0 0 1-1.82-1 .14.14 0 0 1 .24 0 9.7 9.7 0 0 1 4.23.9c1.8.66 3.34 1.8 5.1 2.51a4 4 0 0 1 1.45 1.29c.39.49 0 1.07-.84 1.13-1.07.07-2.16 0-3.24 0a24.54 24.54 0 0 1-6.5-.76z" fill="#ced870"></path><path d="M189.1 180.36h-.21a1.12 1.12 0 0 1-1.06.28 37.94 37.94 0 0 0-6.74.09c-1.14.07-2.23.36-3.35.53-.2 0-.45 0-.48.29s.18.29.33.37a10.7 10.7 0 0 0 1.35.57 5 5 0 0 0 1.58.59h.2c.24.22.6.21.84.42.07.05.1.09.07.14s0 .07-.07.07a20.74 20.74 0 0 1-4.81-1.47.74.74 0 0 0-.45-.4c-.38-.14-1-.17-.91-.68s.65-.48 1-.59c1.09-.34 2.28-.39 3.34-.64 1.43-.34 2.83-.11 4.23-.32a14.92 14.92 0 0 1 4.78.4c.14-.01.26.23.36.35z" fill="#cdd76f"></path><path class="cls-136" d="M181.56 183.71v-.21h.84a.43.43 0 0 1 .42.21l.63.42a5 5 0 0 1-1.89-.42z"></path><path d="M190.78 179.52c-.38-.47-1.2.09-1.47-.63a15.11 15.11 0 0 1 7.25 2.24c.9.48 1.79 1 2.63 1.55a16.32 16.32 0 0 1 2.8 2.39c.47.48.37 1-.46 1.17a8 8 0 0 1-2 .19c.17-.24.43-.22.67-.2a.72.72 0 0 0 .85-.6.88.88 0 0 0-.46-1 3.39 3.39 0 0 1-1.48-1.21c-.41-.64-1.29-.3-1.67-.92-1-.41-1.83-1.08-2.81-1.51a18.74 18.74 0 0 0-3.58-1.17.52.52 0 0 1-.31-.25z" fill="#bbce65"></path><path class="cls-132" d="M190.78 179.52a20.15 20.15 0 0 1 5.5 1.95 7.91 7.91 0 0 1 1.2 1 3 3 0 0 1-1.71-.62 15.27 15.27 0 0 0-4.62-1.89.45.45 0 0 1-.37-.44z"></path><path class="cls-115" d="M191.2 178.47c-.29.36-.62.07-.85 0a28.56 28.56 0 0 0-4.18-.81c.09-.1.2-.3.27-.29 1.56.29 3.29.26 4.76 1.1z"></path><path class="cls-125" d="M180.73 178.68c-.41.16-.79.44-1.26.21a1.28 1.28 0 0 1 1.26-.21z"></path><path d="M182.82 183.71a.44.44 0 0 1-.42-.21c-.11-.33-.77-.22-.64-.67s.6-.16.87-.26c2.17-.75 4.4-.52 6.6-.43a6.62 6.62 0 0 1 2.64 1c1 .56 2.31.39 3.27 1.13.31.24.83.45.74.85s-.66.55-1.12.5a23.76 23.76 0 0 1-3.77-.41c.47-.41.47-.41 2.1-.52a25.89 25.89 0 0 0-8.67-1.53c.15.47.85.42.7 1-.79-.05-1.5-.5-2.3-.45z" fill="#e3e57b"></path><path d="M185.12 184.13a.65.65 0 0 0-.45-.4c-.3-.08-.74-.24-.61-.54s.65-.74 1-.47a2.36 2.36 0 0 0 2.14.19 1.59 1.59 0 0 1 .7.1c1.62.37 3.23.76 4.85 1.11.45.1.93.23.8.73s-.6.32-1 .21a2 2 0 0 0-1.62.12c-1.93-.18-3.85-.71-5.81-1.05z" fill="#e8e77d"></path><path d="M178.84 182.66c-.63 0-1.07-.46-1.63-.62a.52.52 0 0 1-.42-.63c.08-.33.35-.37.64-.43a30.49 30.49 0 0 1 5.92-.71 16.55 16.55 0 0 1 4.1.07 4.1 4.1 0 0 0 1.44 0 6.17 6.17 0 0 0 3.39.91 2.89 2.89 0 0 1 1.85 1.18c-.36.33-.72.11-1.07 0a19.11 19.11 0 0 0-8.23-1.22c-1 .09-1.92-.23-2.85.18h-.63c-.29-.15-.54.14-.88.06-1.01-.22-1.47.14-1.63 1.21z" fill="#d3db72"></path><path class="cls-136" d="M182 181.4c.43-.76 1-.35 1.65-.33 1.06 0 2.12-.19 3.19-.09 2.31.23 4.65.35 6.8 1.41a1.66 1.66 0 0 0 .51.06c.6 0 1 .51 1.44.75.91.44 1.8.93 2.68 1.44.25.15.6.34.55.69a.8.8 0 0 1-.7.56 10.51 10.51 0 0 1-4.18-.09h3c.34 0 .67-.1.77-.42s-.32-.33-.51-.49a17.25 17.25 0 0 0-4.46-2.23 18.55 18.55 0 0 0-6.2-1.28 24 24 0 0 0-3.88.13 1.44 1.44 0 0 1-.66-.11zM178.84 182.66c.08-.37-.6-.72-.17-1a2.33 2.33 0 0 1 1.59-.53c.34.1.81 0 1.09.29-.62.43-1.65.09-2 1.11l1.16.57a3.52 3.52 0 0 1-1.67-.44zM181.56 183.5a.74.74 0 0 1-.84-.42.74.74 0 0 1 .84.42z"></path><path class="cls-2" d="M62.59 177.75s18-4.65 24.31-5.78a104.63 104.63 0 0 1 23.1-1.81 110.32 110.32 0 0 1 16.88 2.11 197.37 197.37 0 0 1 22 6.1q9.33 3.06 18.69 6a146.71 146.71 0 0 0 15 3.81 108.53 108.53 0 0 0 14.6 1.86 95.67 95.67 0 0 0 24.12-1.65 107.45 107.45 0 0 0 16.18-4.5c.68.86-16.26 13.41-51.87 9.29-2.4-.38-4.83-.62-7.23-1-3.38-.52-6.72-1.2-10-2-6.31-1.53-12.49-3.48-18.66-5.48-5.63-1.83-11.24-3.78-16.91-5.49-3.2-1-6.42-1.87-9.67-2.66-.38-.09-9.87-2-14.3-2.52-8.77-1.2-16.23-1.73-46.06 5.35-.21.04-.18-1.63-.18-1.63z"></path></svg> 