<?xml version="1.0" encoding="UTF-8"?> <svg xmlns="http://www.w3.org/2000/svg" id="Layer_1" data-name="Layer 1" viewBox="0 0 300 300"><defs><style>.cls-6{fill:#e7e8e9}</style></defs><path d="M50.34 146.7a8.71 8.71 0 012.72.37 3.76 3.76 0 011.66 1 3 3 0 01.72 1.58 5.67 5.67 0 01-.09 2 6 6 0 01-1.52 3 5.19 5.19 0 01-3.16 1.41v.05q2 .16 2.58 1.23a4.59 4.59 0 01.15 3l-.33 1.6-.16.76q-.07.39-.12.75a5 5 0 000 .64 1.25 1.25 0 00.06.44l.18.31a1.06 1.06 0 00.35.27l-.06.26h-6.1a2.46 2.46 0 01-.14-.86 8.37 8.37 0 010-1c0-.33.09-.65.14-.95s.1-.56.14-.75l.26-1.26a7.61 7.61 0 00.18-1.31 1.6 1.6 0 00-.15-.82.94.94 0 00-.5-.42 2.58 2.58 0 00-.86-.12h-1.51l-1.55 7.49H37.5l3.88-18.7zm-3.73 7.91a2.86 2.86 0 001.94-.61 2.76 2.76 0 00.92-1.61 1.84 1.84 0 00-.22-1.68 2.4 2.4 0 00-1.76-.5h-1.11l-.91 4.4zM57.8 151.59a9.38 9.38 0 012-3 7 7 0 012.79-1.71 12.39 12.39 0 013.81-.53 10.28 10.28 0 013.58.53 3.92 3.92 0 012.02 1.7 5.93 5.93 0 01.7 3 21 21 0 01-.52 4.46 24 24 0 01-1.33 4.47 9.33 9.33 0 01-2 3 6.51 6.51 0 01-2.78 1.66 13 13 0 01-3.8.5 11 11 0 01-3.59-.5 3.77 3.77 0 01-2.09-1.66 6.06 6.06 0 01-.7-3 21.24 21.24 0 01.53-4.47 24.12 24.12 0 011.38-4.45zm4 7.59a8.89 8.89 0 00-.14 2 1.42 1.42 0 00.37 1 1.44 1.44 0 001 .29 2 2 0 001.09-.29 2.35 2.35 0 00.8-1 10.49 10.49 0 00.67-2c.22-.83.45-1.87.71-3.13s.46-2.3.59-3.13a9.58 9.58 0 00.15-2 1.46 1.46 0 00-.37-1 1.42 1.42 0 00-1-.29 1.91 1.91 0 00-1.09.29 2.42 2.42 0 00-.8 1 12 12 0 00-.67 2c-.21.83-.45 1.88-.71 3.13s-.47 2.3-.6 3.13zM87 146.7l1.48 18.7h-6.1l.09-3.27h-4.55l-1.26 3.27h-6l9.15-18.7zm-4.43 3.83l-3.22 7.93h3.2l.08-7.93zM101.3 146.7v11.08h.07L106 146.7h8.2l-3.88 18.7h-5.36l2.89-13.93h-.06l-5.94 13.93H97.7l-.16-13.93h-.06l-2.89 13.93h-5.36l3.88-18.7zM127.92 165.27l-1.12-16.13-7 16.13h-2.53l-1.12-18.7h2.33l.62 15.74 6.8-15.74h2.68l1 15.79 6.45-15.79h2.43l-8.14 18.7zM138.54 152.63a12.27 12.27 0 012-3.47 8.38 8.38 0 012.84-2.28 6.83 6.83 0 013.58-.64 5.65 5.65 0 012.6.86 6.1 6.1 0 011.86 1.92 8.33 8.33 0 011 2.72 12.23 12.23 0 01.17 3.28 15.76 15.76 0 01-.92 4.18 12.29 12.29 0 01-1.92 3.46 8.09 8.09 0 01-2.78 2.28 6.47 6.47 0 01-3.5.65 5.82 5.82 0 01-4.65-2.53 9.5 9.5 0 01-1.2-6.15 16.46 16.46 0 01.92-4.28zm1.17 7a5.78 5.78 0 00.67 2 3.94 3.94 0 001.3 1.36 4.31 4.31 0 001.95.61 4.59 4.59 0 002.73-.59 6.77 6.77 0 002.11-2 10.39 10.39 0 001.41-2.85 13.76 13.76 0 00.67-3.28 9.87 9.87 0 00-.08-2.45 5.81 5.81 0 00-.67-2 4.28 4.28 0 00-1.24-1.42 3.56 3.56 0 00-1.83-.64 4.79 4.79 0 00-2.85.59 6.91 6.91 0 00-2.14 2 10.22 10.22 0 00-1.43 2.86 14.08 14.08 0 00-.67 3.32 10.33 10.33 0 00.07 2.44zM163.68 146.57a10.31 10.31 0 012.17.23 5 5 0 011.87.77A4 4 0 01169 149a5 5 0 01.48 2.31 5.3 5.3 0 01-.3 1.79 5.55 5.55 0 01-.82 1.54 4.47 4.47 0 01-1.25 1.12 4.31 4.31 0 01-1.62.58 2.2 2.2 0 01.95.58 2.66 2.66 0 01.6.93 4.24 4.24 0 01.27 1.19 6.89 6.89 0 010 1.36c0 .42-.09.83-.15 1.24s-.12.82-.15 1.23a7.88 7.88 0 000 1.19 3.1 3.1 0 00.32 1.13h-2.43a5.21 5.21 0 01-.2-1.54 11.25 11.25 0 01.25-2.47 7.89 7.89 0 00.11-2 2.84 2.84 0 00-.36-1.19 1.4 1.4 0 00-.67-.57 2.59 2.59 0 00-.8-.19h-6.17l-1.59 8h-2.35l3.74-18.7zm-.89 8.62a5.46 5.46 0 002.24-.39 3.74 3.74 0 001.33-1 3.09 3.09 0 00.63-1.2 4.64 4.64 0 00.16-1.14 3.09 3.09 0 00-.29-1.42 2.34 2.34 0 00-.79-.86 2.88 2.88 0 00-1.1-.43 6.73 6.73 0 00-1.29-.12h-4.89l-1.31 6.52zM174.72 146.57l-1.86 9.22v.05l10-9.27h3.15l-8.53 7.7 5.68 11h-2.61l-4.84-9.48-3.47 3.21-1.24 6.27h-2.35l3.74-18.7z"></path><path d="M196.11 150.25a2.89 2.89 0 00-.82-1.2 2.94 2.94 0 00-1.3-.64 6.89 6.89 0 00-1.69-.19 6.09 6.09 0 00-1.36.17 5 5 0 00-1.33.54 3.21 3.21 0 00-1 .94 2.42 2.42 0 00-.4 1.42 2.89 2.89 0 00.22 1.16 2.71 2.71 0 00.61.84 3.3 3.3 0 00.92.59 8.83 8.83 0 001.13.42l2.38.68a11.71 11.71 0 011.59.59 4.87 4.87 0 011.36.92 4 4 0 011 1.42 5.56 5.56 0 01.36 2.12 4.87 4.87 0 01-.64 2.53 5.69 5.69 0 01-1.62 1.76 7.28 7.28 0 01-2.22 1 8.94 8.94 0 01-2.42.34 10.88 10.88 0 01-2.93-.38 5.9 5.9 0 01-2.27-1.17 4.92 4.92 0 01-1.41-2 6.93 6.93 0 01-.36-3h2.36a5.23 5.23 0 00.27 2.12 3.17 3.17 0 00.95 1.39 3.85 3.85 0 001.53.75 8.06 8.06 0 002 .22 6.37 6.37 0 001.62-.21 4.34 4.34 0 001.43-.64 3.33 3.33 0 001-1.11 3.25 3.25 0 00.39-1.63 2.67 2.67 0 00-.25-1.21 2.51 2.51 0 00-.68-.87 4.33 4.33 0 00-1-.59c-.38-.15-.78-.29-1.21-.42l-2.41-.68a8 8 0 01-1.51-.61 5 5 0 01-1.26-1 4 4 0 01-.87-1.33 5.15 5.15 0 01.25-4.19 5.45 5.45 0 011.47-1.69 6.51 6.51 0 012.06-1 8.13 8.13 0 012.34-.34 8.88 8.88 0 012.5.35 6.19 6.19 0 012.07 1.08 5 5 0 011.4 1.84 6.08 6.08 0 01.46 2.7h-2.36a4.86 4.86 0 00-.35-1.79zM216.68 113.06l1.93 5.25-4.19 5.36-2.13-5.31 4.39-5.3zM226.1 115.86l3.61 5.22-4.32 5.43-3.74-5.33 4.45-5.32zM230.1 128.06l4.72 5.42-4.4 5.16-4.45-5.29 4.13-5.29zM236.17 135.09l5.23 5.16-4.2 5.43-5.42-5.3 4.39-5.29zM243.13 142.19l6.66 5.36-4.66 5.48-6.19-5.42 4.19-5.42zM237.46 149.29l6.19 5.27-5.1 5.57-6.26-5.57 5.17-5.27zM230.59 156.45l6.39 5.49-6.39 5.23-6.42-5.36 6.42-5.36zM221.65 163.36l6.52 5.36-7.23 5.29-6.71-5.32 7.42-5.33zM211.58 170.14l6.52 5.55-8.72 5.42-6.19-5.94 8.39-5.03z"></path><path d="M219.48 125.22c1.11 0 3.42 4.38 3.42 4.38s-3.28 4.84-4.78 4.84-3.8-4.84-3.8-4.84 4.05-4.38 5.16-4.38z" fill="#ffdf5e"></path><path d="M228.74 140.38s-3.41 4.41-5.48 4.2-4.45-4.33-4.45-4.33 4.2-4.32 5.42-4.32 4.51 4.45 4.51 4.45z" fill="#ffc34e"></path><path d="M230 143.09c1.87 0 5.59 4.13 5.59 4.13s-2.81 4.71-5.2 4.71-5.19-4.32-5.19-4.32 2.96-4.52 4.8-4.52z" fill="#f58121"></path><path d="M222.9 150.39c2.33 0 5.13 4.32 5.13 4.32s-3.87 4.13-6.11 4.13-5.63-4.58-5.63-4.58 4.29-3.87 6.61-3.87z" fill="#dc5929"></path><path d="M219.26 161.34s-4.94 4.62-7 4.62-5.43-4.74-5.43-4.74 5.73-4.33 7.15-4.33 5.28 4.45 5.28 4.45z" fill="#e07e27"></path><path d="M260 146.53a3.7 3.7 0 011.29.86 4.22 4.22 0 01.86 1.29 4.07 4.07 0 01.31 1.6 4 4 0 01-.31 1.6 4.11 4.11 0 01-.86 1.29 4 4 0 01-1.29.83 4.34 4.34 0 01-3.22 0 4.22 4.22 0 01-1.29-.86 3.92 3.92 0 01-.85-1.29 4 4 0 01-.32-1.6 4.08 4.08 0 01.32-1.6 4 4 0 01.85-1.29 3.89 3.89 0 011.29-.86 4.21 4.21 0 013.22 0zm-3 .54a3.49 3.49 0 001.37 6.7 3.4 3.4 0 001.36-.27 3.36 3.36 0 001.09-.75 3.28 3.28 0 00.72-1.1 3.45 3.45 0 00.27-1.37 3.49 3.49 0 00-.27-1.37 3.28 3.28 0 00-.72-1.1 3.34 3.34 0 00-1.09-.74 3.25 3.25 0 00-1.36-.28 3.29 3.29 0 00-1.31.28zm-.1 5.56v-4.7h1.8a1.69 1.69 0 011.16.33 1.24 1.24 0 01.37 1 1.49 1.49 0 01-.09.54 1.16 1.16 0 01-.26.39 1.25 1.25 0 01-.38.25 2.13 2.13 0 01-.45.13l1.4 2.09h-.68l-1.32-2.09h-1v2.09zm1.86-2.59a1.87 1.87 0 00.45-.1.65.65 0 00.32-.24.82.82 0 00.12-.47.76.76 0 00-.09-.4.67.67 0 00-.25-.25 1.09 1.09 0 00-.36-.12 1.84 1.84 0 00-.41 0h-1.06v1.63h1.28z"></path><path class="cls-6" d="M201.96 185.07l11.45-1.12 6.41 1.38-11.36 1.61-6.5-1.87zM209.57 182.14l5.34.78 7.92-.78-5.12-1.03-8.14 1.03zM217.36 183.65l6.89 1.03 8.35-.73-7.37-1.55-7.87 1.25zM229.07 182.01l6.75 1.12 5.58-.9-6.57-.91-5.76.69zM220.81 180.9l5.16.64 6.02-.43-5.12-.64-6.06.43zM218.4 176.46l4.43.39 3.96-.39-3.96-.3-4.43.3zM217.36 178.18l5.68-.43 3.75.43-4.2.39-5.23-.39zM225.23 177.37l3.84-.52 3.74.52-4.06.38-3.52-.38zM222.83 179.52l5.42-.52 4.04.26-4.26.6-5.2-.34zM231 178.57l4.39-.41 3.55.41-3.97.65-3.97-.65zM237.8 179.22l4.56-.22 4.65.43-4.43.43-4.78-.64zM230.42 180.12l4.81-.43 4.21.43-4.47.52-4.55-.52zM237.97 180.81l4.74-.34 5.42.53-5.42.54-4.74-.73zM245.55 180.16l4.77-.73 5.51.73-5.38.48-4.9-.48z"></path></svg> 