<?xml version="1.0" encoding="UTF-8"?> <svg xmlns="http://www.w3.org/2000/svg" id="Layer_1" data-name="Layer 1" viewBox="0 0 300 300"><defs><style>.cls-2{fill:#a50e2d}.cls-3{fill:#fff}.cls-4{fill:#3b3c43}</style></defs><g id="Layer_1-2" data-name="Layer 1-2"><path fill="#cc0935" d="M50 110.48h199.81v66.35H50z"></path><path class="cls-2" d="M130.27 182.67v6.76l3.02-1.7 3.03-1.69-3.03-1.69-3.02-1.68zM50 176.83h199.81v-66.35H50zm10.8-5.06h-5.74v-56.23h5.74zm8.33 0h-5.75v-56.23h5.75zm8.35 0h-5.75v-56.23h5.75zm8.35 0h-5.75v-56.23h5.75zm8.44 0h-5.84v-25H87.2l1.23-3.51v-27.72h5.77zm8.43 0h-5.9v-56.23h5.77zm8.44 0h-6v-56.23h5.77zm8.43 0h-6v-56.23h5.77zm8.44 0h-6.11v-56.23h5.7zm8.43 0h-6.17v-56.23H136zm8.44 0h-6.24v-56.23h5.83zm8.43 0H147v-56.23h5.78zm8.44 0h-6.38v-56.23h5.77zm8.43 0h-6.44v-56.23h5.77zm8.44 0h-6.51v-56.23h5.77zm8.43 0h-6.58v-25H179l1.46-4.2v-27h5.77zm8.35 0h-6.56v-56.23h5.76zm16.74 0h-6.58v-28.24H203v28.29h-5.77v-56.28H203v20.92h2.6v-20.92h5.77zm8.44 0h-6.65v-56.23h5.77zm16.73 0h-5.77v-16.43h-2.6v16.48h-5.77v-56.28h5.77v16.19h2.6v-16.19h5.77zm8.44 0H240v-56.23h5.77z"></path><path class="cls-3" d="M71.17 148.25l5.92-16.55h6.8l-9.24 23.64h-6.97l-9.24-23.64h6.79l5.94 16.55zM146.16 152a3.37 3.37 0 0 1-3.37 3.38h-10.26a6.77 6.77 0 0 1-4.93-1.34 6.48 6.48 0 0 1-1.68-4.77v-10.8a6.85 6.85 0 0 1 1.68-5.14 7.44 7.44 0 0 1 5.32-1.55h12.57v4.67h-11.14a2.07 2.07 0 0 0-2.09 2v10.8a1.66 1.66 0 0 0 .47 1.23 1.78 1.78 0 0 0 1.27.52h7.33v-5.06h-4.53v-4h9.36zM175.87 155.32h-6.75l9.25-23.62h6.93l9.24 23.62h-6.74l-1.57-4.22h-8.79zm3.14-8.6h5.58l-2.78-7.93zM195.37 131.7H210a7.51 7.51 0 0 1 5.32 1.6 6.9 6.9 0 0 1 1.68 5.06v3a8.41 8.41 0 0 1-1 4.51 4.7 4.7 0 0 1-3 2.13l4.37 7.43h-6.77l-4-7.09h-4.9v7.09h-6.33zm15.35 6.75a1.84 1.84 0 0 0-2.14-2h-6.93v7.09h6.93a1.81 1.81 0 0 0 2.08-1.52 1.68 1.68 0 0 0 0-.5zM233.31 131.7a8.22 8.22 0 0 1 6 2 7.7 7.7 0 0 1 2.05 5.79v8.13a7.73 7.73 0 0 1-2.05 5.81 8.22 8.22 0 0 1-6 2H219.7v-23.68zm1.69 7.76a2.73 2.73 0 0 0-2.38-3.05 2.76 2.76 0 0 0-.76 0h-5.94v14.19h5.94a2.73 2.73 0 0 0 3.14-3zM84.06 155.32h-6.75l9.25-23.62h7l9.24 23.62H96l-1.57-4.22h-8.8zm3.14-8.6h5.58L90 138.79zM117.11 131.7v14.17l-8.39-14.17h-6.63v15.42l3.24 8.22h3.06v-14.19l8.37 14.19h6.63V131.7h-6.28zM155.79 155.34c-2.44 0-4.21-.27-5.33-1.34a6.93 6.93 0 0 1-1.68-5.14V131.7h6.27v17.16a1.83 1.83 0 0 0 1.48 2.11 1.78 1.78 0 0 0 .65 0h5.23a1.83 1.83 0 0 0 2.11-2V131.7h6.27v12.64l-4.39 11"></path><path class="cls-4" d="M141.89 189.41v-6.76h1.49v5.58h2.83v1.18h-4.32zM154.39 186a3.53 3.53 0 0 1-.86 2.58 3.76 3.76 0 0 1-4.92 0 4.29 4.29 0 0 1 0-5.16 3.86 3.86 0 0 1 4.94 0 3.67 3.67 0 0 1 .84 2.58m-5.06 0a2.86 2.86 0 0 0 .44 1.69 1.7 1.7 0 0 0 1.33.57c1.18 0 1.77-.76 1.77-2.29s-.59-2.28-1.68-2.28a1.55 1.55 0 0 0-1.33.58 2.65 2.65 0 0 0-.46 1.68M159.24 185.62H162v3.51a6.9 6.9 0 0 1-1.27.3q-.62.07-1.23.09a3.18 3.18 0 0 1-2.41-.9 3.71 3.71 0 0 1-.83-2.6 3.38 3.38 0 0 1 1-2.54 3.78 3.78 0 0 1 2.69-.92 5.09 5.09 0 0 1 2.05.44l-.49 1.13a3.62 3.62 0 0 0-1.58-.36 2 2 0 0 0-1.56.63 2.39 2.39 0 0 0-.57 1.68 2.61 2.61 0 0 0 .47 1.69 1.66 1.66 0 0 0 1.35.57 5 5 0 0 0 .95 0v-1.41h-1.33zM164.43 182.67h1.48v6.76h-1.48zM172.63 187.54a1.68 1.68 0 0 1-.69 1.45 3 3 0 0 1-1.89.53 4.57 4.57 0 0 1-2-.41v-1.33a8.53 8.53 0 0 0 1.2.42 3.36 3.36 0 0 0 .89.13 1.33 1.33 0 0 0 .75-.18.65.65 0 0 0 .15-.89 1.3 1.3 0 0 0-.34-.28 7.83 7.83 0 0 0-.91-.47 3.83 3.83 0 0 1-1-.56 1.73 1.73 0 0 1-.51-.63 1.66 1.66 0 0 1-.2-.82 1.69 1.69 0 0 1 .64-1.42 2.74 2.74 0 0 1 1.69-.51 4.53 4.53 0 0 1 1 .12 8 8 0 0 1 1 .36l-.49 1.11a4.85 4.85 0 0 0-.91-.3 2.9 2.9 0 0 0-.72-.09.87.87 0 0 0-.64.19.6.6 0 0 0-.24.49.58.58 0 0 0 .22.27.84.84 0 0 0 .29.27 7.4 7.4 0 0 1 .94.47 3.59 3.59 0 0 1 1.33.91 1.62 1.62 0 0 1 .37 1.11M177.59 189.41h-1.49v-5.56h-1.88v-1.2h5.28v1.2h-1.91v5.56zM181.34 182.67h1.48v6.76h-1.48zM188.34 183.76a1.53 1.53 0 0 0-1.29.61 2.67 2.67 0 0 0-.47 1.69c0 1.52.59 2.26 1.69 2.26A5.81 5.81 0 0 0 190 188v1.2a5.24 5.24 0 0 1-1.92.36 3 3 0 0 1-2.33-.9 3.71 3.71 0 0 1-.81-2.56 4.14 4.14 0 0 1 .41-1.86 2.75 2.75 0 0 1 1.15-1.24 3.39 3.39 0 0 1 1.68-.43 4.86 4.86 0 0 1 2.06.48l-.49 1.16-.77-.32a2.72 2.72 0 0 0-.8-.12M196.48 187.54a1.68 1.68 0 0 1-.69 1.45 3 3 0 0 1-1.89.53 4.61 4.61 0 0 1-2-.41v-1.33a8.53 8.53 0 0 0 1.2.42 3.36 3.36 0 0 0 .89.13 1.27 1.27 0 0 0 .74-.18.64.64 0 0 0 .16-.89 1.3 1.3 0 0 0-.34-.28 8.72 8.72 0 0 0-.91-.47 3.83 3.83 0 0 1-1-.56 1.73 1.73 0 0 1-.51-.63 1.56 1.56 0 0 1-.2-.82 1.69 1.69 0 0 1 .64-1.42 2.74 2.74 0 0 1 1.69-.51 4.38 4.38 0 0 1 1 .12 7.65 7.65 0 0 1 1.05.36l-.49 1.11a4.85 4.85 0 0 0-.91-.3 3 3 0 0 0-.73-.09 1 1 0 0 0-.64.19.59.59 0 0 0-.23.49.48.48 0 0 0 .1.33.69.69 0 0 0 .29.27 8.16 8.16 0 0 1 .94.48 3.67 3.67 0 0 1 1.33.91 1.61 1.61 0 0 1 .37 1.11M205.92 187.54a1.71 1.71 0 0 1-.7 1.45 3 3 0 0 1-1.89.53 4.73 4.73 0 0 1-2-.41v-1.33a8.53 8.53 0 0 0 1.2.42 3.51 3.51 0 0 0 .91.13 1.22 1.22 0 0 0 .74-.25.68.68 0 0 0 .16-.89 1.34 1.34 0 0 0-.34-.29c-.3-.17-.6-.33-.91-.47a3.83 3.83 0 0 1-1-.56 1.79 1.79 0 0 1-.51-.62 1.62 1.62 0 0 1-.2-.83 1.69 1.69 0 0 1 .64-1.42 2.67 2.67 0 0 1 1.69-.5 3.52 3.52 0 0 1 1 .12 7.61 7.61 0 0 1 1.05.35l-.49 1.11a5 5 0 0 0-.93-.3 2.39 2.39 0 0 0-.7-.08.91.91 0 0 0-.66.18.64.64 0 0 0-.22.49.65.65 0 0 0 0 .34 1.56 1.56 0 0 0 .3.27 10.12 10.12 0 0 0 .93.47 3.75 3.75 0 0 1 1.35.91 1.73 1.73 0 0 1 .37 1.11M211.99 189.41h-4.03v-6.76h4.03v1.18h-2.55v1.48h2.38v1.19h-2.38v1.73h2.55v1.18zM215.72 186.83v2.58h-1.49v-6.74h2a3.53 3.53 0 0 1 2.11.49 1.78 1.78 0 0 1 .68 1.53 1.83 1.83 0 0 1-.34 1.06 2.23 2.23 0 0 1-1 .73c1 1.52 1.69 2.5 2.06 2.93h-1.69l-1.69-2.58zm0-1.18h.47a1.94 1.94 0 0 0 1.05-.22.8.8 0 0 0 .32-.71.76.76 0 0 0-.34-.69 2.05 2.05 0 0 0-1.06-.2h-.44zM225.45 182.67H227l-2.38 6.74h-1.68l-2.37-6.74h1.56l1.31 4a4.12 4.12 0 0 0 .22.83 3.83 3.83 0 0 1 .15.66 12.44 12.44 0 0 1 .36-1.49zM228.62 182.67h1.48v6.76h-1.48zM235.57 183.76a1.58 1.58 0 0 0-1.3.61 2.73 2.73 0 0 0-.45 1.69c0 1.52.59 2.26 1.69 2.26a6 6 0 0 0 1.78-.36v1.2a5.24 5.24 0 0 1-1.92.36 3 3 0 0 1-2.34-.9 3.61 3.61 0 0 1-.81-2.56 4 4 0 0 1 .4-1.86 2.85 2.85 0 0 1 1.27-1.18 3.28 3.28 0 0 1 1.68-.42 4.62 4.62 0 0 1 2 .47l-.47 1.17-.79-.33a2.88 2.88 0 0 0-.78-.11M243.57 189.41h-4.02v-6.76h4.02v1.18h-2.55v1.48h2.38v1.19h-2.38v1.73h2.55v1.18zM250 187.54a1.68 1.68 0 0 1-.68 1.45 3 3 0 0 1-1.89.53 4.73 4.73 0 0 1-2-.41v-1.33a8.53 8.53 0 0 0 1.2.42 3.36 3.36 0 0 0 .89.13 1.34 1.34 0 0 0 .76-.18.65.65 0 0 0 .26-.54.58.58 0 0 0-.12-.36 1 1 0 0 0-.34-.28 6.32 6.32 0 0 0-.89-.47 3.41 3.41 0 0 1-1-.56 1.9 1.9 0 0 1-.53-.63 1.79 1.79 0 0 1-.18-.82 1.68 1.68 0 0 1 .62-1.42 2.74 2.74 0 0 1 1.69-.51 4.55 4.55 0 0 1 1 .12 6 6 0 0 1 1 .36l-.47 1.11a5 5 0 0 0-.93-.3 2.9 2.9 0 0 0-.72-.09.92.92 0 0 0-.64.19.58.58 0 0 0-.22.49.62.62 0 0 0 0 .33 1.19 1.19 0 0 0 .28.27l.95.48a3.75 3.75 0 0 1 1.35.91 1.71 1.71 0 0 1 .35 1.11"></path></g></svg> 