<?xml version="1.0" encoding="UTF-8"?> <svg xmlns="http://www.w3.org/2000/svg" id="Layer_1" data-name="Layer 1" viewBox="0 0 300 300"><defs><style>.cls-1{fill:#333e48}</style></defs><path class="cls-1" d="M174.36 144.43c.22-.07.31-.08.34-.12.39-.5.77-1 1.15-1.51a26.21 26.21 0 0 1 15-10.34c7.88-1.92 13.29 1.42 14.23 8.85a13.61 13.61 0 0 1-.13 4.85c-1.37 5.6-2.92 11.17-4.48 16.73-1.41 5.09-3 10.14-4.32 15.26a3.52 3.52 0 0 0 .82 3c.53.45 1.94 0 2.93-.26a3.19 3.19 0 0 0 1.23-.8c4.14-3.57 7.42-7.77 9-13.09a61.85 61.85 0 0 0 1.72-26c-4.85-34.47-37.5-58.6-71.93-52.53-24.78 4.37-41.84 19-49.25 43s-1.72 46 16.51 63.68a61.81 61.81 0 0 0 83 2.63c3.34-2.81 6.26-6.13 9.37-9.22l-.41-.4c-5.17 2.57-6.7 3-10.82 2.83s-7.22-2.37-8.12-6.42a14.27 14.27 0 0 1-.14-6.46c2-7.7 4.37-15.31 6.62-23 1-3.52 2.19-7 3.12-10.54.21-.83 0-2.43-.48-2.64a3.85 3.85 0 0 0-2.9.35 12.58 12.58 0 0 0-3 2.33A47.65 47.65 0 0 0 171.93 162c-3.08 8.09-5.6 16.4-8.13 24.69-.71 2.33-1.68 3.07-4.08 2.93-4-.23-8-.06-12.14-.06.22-.94.34-1.56.51-2.16 3.6-12.32 7.23-24.63 10.79-37a43.86 43.86 0 0 0 1.43-6.6c.27-2.12-.66-2.83-2.65-2a14.31 14.31 0 0 0-4.19 2.78 39.87 39.87 0 0 0-9.67 15c-3.46 9.24-6.5 18.64-9.61 28a2.17 2.17 0 0 1-2.53 1.82c-2.68-.1-5.37 0-8 0h-5.42c2.45-8.62 4.79-16.81 7.1-25 1.74-6.18 3.52-12.35 5.09-18.57.3-1.21-.29-2.65-.47-4a26.24 26.24 0 0 0-3.87 1 6.1 6.1 0 0 0-2.28 1.85c-2.09 2.74-4 5.58-6.11 8.33a5.81 5.81 0 0 1-1.45 1 4.43 4.43 0 0 1-.1-1.64 44.3 44.3 0 0 1 7.75-14 17.79 17.79 0 0 1 8.34-5.93c7.48-2.33 13.32 2.52 12.34 10.27-.09.71-.16 1.42-.26 2.36 2.13-2.41 3.92-4.68 6-6.7 4.1-4.05 8.9-6.76 14.87-6.56 6.46.22 10 4.33 9.27 10a19.88 19.88 0 0 0-.1 2.62z"></path><path class="cls-1" d="M174.36 144.43a19.88 19.88 0 0 1 0-2.45c.77-5.68-2.81-9.79-9.27-10-6-.2-10.77 2.51-14.87 6.56-2 2-3.83 4.29-6 6.7.1-.94.17-1.65.26-2.36 1-7.75-4.86-12.6-12.34-10.27a17.79 17.79 0 0 0-8.34 5.93 44.3 44.3 0 0 0-7.75 14 4.43 4.43 0 0 0 .1 1.64 5.81 5.81 0 0 0 1.45-1c2.07-2.75 4-5.59 6.11-8.33A6.1 6.1 0 0 1 126 143a26.24 26.24 0 0 1 3.87-1c.18 1.34.77 2.78.47 4-1.57 6.22-3.35 12.39-5.09 18.57-2.31 8.19-4.65 16.38-7.1 25h5.42c2.68 0 5.37-.07 8 0a2.17 2.17 0 0 0 2.53-1.82c3.11-9.36 6.15-18.76 9.61-28a39.87 39.87 0 0 1 9.67-15 14.31 14.31 0 0 1 4.19-2.78c2-.86 2.92-.15 2.65 2a43.86 43.86 0 0 1-1.43 6.6c-3.56 12.33-7.19 24.64-10.79 37-.17.6-.29 1.22-.51 2.16 4.16 0 8.16-.17 12.14.06 2.4.14 3.37-.6 4.08-2.93 2.53-8.29 5-16.6 8.13-24.69a47.65 47.65 0 0 1 11.5-17.36 12.58 12.58 0 0 1 3-2.33 3.85 3.85 0 0 1 2.9-.35c.48.21.69 1.81.48 2.64-.93 3.54-2.09 7-3.12 10.54-2.25 7.64-4.6 15.25-6.62 23a14.27 14.27 0 0 0 .14 6.46c.9 4.05 4 6.27 8.12 6.42s5.65-.26 10.82-2.83l.41.4c-3.11 3.09-6 6.41-9.37 9.22a61.81 61.81 0 0 1-83-2.63c-18.23-17.71-24-39.51-16.51-63.68s24.47-38.66 49.25-43c34.51-6.3 67.16 17.83 72.01 52.33a61.85 61.85 0 0 1-1.72 26c-1.54 5.32-4.82 9.52-9 13.09a3.19 3.19 0 0 1-1.23.8c-1 .21-2.4.71-2.93.26a3.52 3.52 0 0 1-.82-3c1.32-5.12 2.91-10.17 4.32-15.26 1.56-5.56 3.11-11.13 4.48-16.73a13.61 13.61 0 0 0 .13-4.85c-.94-7.43-6.35-10.77-14.23-8.85a26.21 26.21 0 0 0-15 10.34c-.38.5-.76 1-1.15 1.51-.03.04-.12.05-.34.12z"></path></svg> 