<?xml version="1.0" encoding="UTF-8"?> <svg xmlns="http://www.w3.org/2000/svg" id="Layer_1" data-name="Layer 1" viewBox="0 0 300 300"><defs><style>.cls-1{fill:#262271}.cls-2{fill:#f19227}</style></defs><path class="cls-1" d="M59.5 179.53a9.51 9.51 0 0 1-7-2.83c-2.61-2.61-2.54-5.83-2.54-10.29s-.07-7.68 2.54-10.29a9.51 9.51 0 0 1 7-2.83c4.81 0 8.58 2.76 9.49 8.15h-5.11c-.51-2.06-1.81-3.66-4.35-3.66a4.13 4.13 0 0 0-3.22 1.35c-1 1.08-1.27 2.31-1.27 7.28s.29 6.2 1.27 7.28a4.12 4.12 0 0 0 3.22 1.31c2.54 0 3.84-1.59 4.35-3.66H69c-.92 5.43-4.72 8.19-9.5 8.19zM83.85 177.21a8.55 8.55 0 0 1-11.71 0c-1.7-1.78-2.14-3.92-2.14-7.36s.44-5.54 2.14-7.32a8.55 8.55 0 0 1 11.71 0c1.7 1.78 2.14 3.92 2.14 7.32s-.44 5.58-2.14 7.36zm-3.66-11.92a3 3 0 0 0-2.21-.84 2.88 2.88 0 0 0-2.18.84c-1 1-1.08 2.61-1.08 4.56s.1 3.63 1.08 4.6a2.88 2.88 0 0 0 2.18.84 3 3 0 0 0 2.21-.84c1-1 1.09-2.64 1.09-4.6s-.11-3.59-1.09-4.56zM93.63 179.31a5.14 5.14 0 0 1-5.51-5.4v-20.4h4.72v20.11c0 1.12.47 1.7 1.66 1.7h1.81v4zM103.24 179.31a5.13 5.13 0 0 1-5.51-5.4v-20.4h4.71v20.11c0 1.12.47 1.7 1.67 1.7h1.81v4z"></path><path class="cls-1" d="M110.3 171.34a3.89 3.89 0 0 0 4.13 4.2 5.26 5.26 0 0 0 4.28-1.77l2.86 2.79a9 9 0 0 1-7.18 3c-4.45 0-8.73-2-8.73-9.68 0-6.16 3.33-9.64 8.23-9.64 5.25 0 8.22 3.84 8.22 9v2.1zm6.74-5.26a3.53 3.53 0 0 0-6.31 0 5.11 5.11 0 0 0-.43 2h7.17a5.11 5.11 0 0 0-.47-2zM130.81 186.45c-2.9 0-4.89-.58-6.85-2.46l2.94-3a4.78 4.78 0 0 0 3.69 1.45c2.83 0 3.81-2 3.81-3.91v-1.92a5.54 5.54 0 0 1-4.5 1.88 6.28 6.28 0 0 1-4.49-1.66c-1.78-1.78-1.92-4.21-1.92-7.51s.14-5.68 1.92-7.46a6.37 6.37 0 0 1 4.53-1.67 5.53 5.53 0 0 1 4.6 2v-1.78h4.57v18.19c0 4.55-3.23 7.85-8.3 7.85zm.47-22c-2.79 0-3.08 2.39-3.08 4.89s.29 4.93 3.08 4.93 3.12-2.42 3.12-4.93-.33-4.89-3.12-4.89zM145.92 171.34a3.9 3.9 0 0 0 4.13 4.2 5.25 5.25 0 0 0 4.28-1.77l2.86 2.79a9 9 0 0 1-7.17 3c-4.46 0-8.74-2-8.74-9.68 0-6.16 3.34-9.64 8.23-9.64 5.25 0 8.22 3.84 8.22 9v2.1zm6.74-5.26a3.52 3.52 0 0 0-6.3 0 5.3 5.3 0 0 0-.44 2h7.18a5.3 5.3 0 0 0-.44-2z"></path><path class="cls-2" d="M176.36 176.88a9.2 9.2 0 0 1-6.67 2.43h-9.06v-25.8h9.06a9.2 9.2 0 0 1 6.67 2.43c2.79 2.79 2.61 6.56 2.61 10.29s.18 7.86-2.61 10.65zm-2.68-18.12a5.61 5.61 0 0 0-4.38-1.76h-4.75v18.8h4.75a5.61 5.61 0 0 0 4.38-1.74c1.34-1.49 1.38-4.28 1.38-7.83s-.06-5.98-1.38-7.47zM184.88 171.19c0 3.16 1.67 5.15 4.67 5.15a5.47 5.47 0 0 0 4.46-1.89l2.36 2.21a8.62 8.62 0 0 1-6.89 2.87c-4.6 0-8.26-2.43-8.26-9.42 0-6 3.08-9.39 7.79-9.39 4.93 0 7.79 3.62 7.79 8.84v1.63zm7.75-5.07a3.78 3.78 0 0 0-3.63-2.32 3.83 3.83 0 0 0-3.66 2.32 5.75 5.75 0 0 0-.47 2.5h8.26a5.74 5.74 0 0 0-.5-2.5zM211.08 179.31l-5.15-8.48-2.71 3.08v5.4h-3.7v-25.8h3.7v15.91l7.13-8.48h4.5l-6.38 7.21 7.18 11.16zM228.33 179.31V168c0-2.79-1.63-4-3.7-4s-3.73 1.27-3.73 4v11.27h-3.7v-25.8h3.7v9.28a6.32 6.32 0 0 1 4.75-2.07c4.09 0 6.38 2.75 6.38 6.74v11.85zM247.83 177.35a7.42 7.42 0 0 1-5.51 2.18 7.31 7.31 0 0 1-5.47-2.18c-1.74-1.81-2.18-4.13-2.18-7.24s.44-5.4 2.18-7.22a7.34 7.34 0 0 1 5.47-2.17 7.45 7.45 0 0 1 5.51 2.17c1.74 1.82 2.17 4.14 2.17 7.22s-.43 5.43-2.17 7.24zM245 165.07a3.76 3.76 0 0 0-2.72-1 3.63 3.63 0 0 0-2.68 1c-1.13 1.12-1.27 3-1.27 5s.14 3.91 1.27 5a3.66 3.66 0 0 0 2.68 1.09 3.79 3.79 0 0 0 2.72-1.09c1.12-1.12 1.26-3 1.26-5s-.1-3.88-1.26-5z"></path><path class="cls-1" d="M155.72 121.63s-3.29 2.74-3.73 4.06 1.35 5.81 1.35 5.81-3.92-3-5.35-2.94-4.78 3.71-4.78 3.71 1.4-4.5.78-6.09-4.65-3.29-4.65-3.29 4.72-.57 6.26-1.88 1.48-4.7 1.48-4.7 1.4 3.56 2.39 4.4 6.25.92 6.25.92zM139.77 131s-1.53 2.14-1.3 2.82 3.1 3.39 3.1 3.39-3.31-1.46-3.87-1-1.7 4.12-1.7 4.12.07-3.41-.67-3.87-4.61-.83-4.61-.83 3.45-.78 3.69-1.79-1.37-2.39-1.37-2.39a15.57 15.57 0 0 0 2.86 1.08c.67.08 3.87-1.53 3.87-1.53zM137 142.28a10.4 10.4 0 0 0-1.32 1.77c-.17.46 1.8 2.29 1.8 2.29s-2.92-.6-3.43-.58-2.78 2-2.78 2a12.42 12.42 0 0 0 .29-3.13c-.21-.57-2.38-1.86-2.38-1.86s2.69.28 3.25-.17.7-2.21.7-2.21a13.86 13.86 0 0 0 1.24 2c.37.31 2.63-.11 2.63-.11zM163 133.63s.75-4.93-5.86-9.81c1.74-2.38 4.12-4.7-2-10.27 5.55.75 22.06.23 32.16 20.78l-4.42-.53s-.23 4.45-.23 5.81c-1.23 0-2.07-7.51-3.31-7.51s-2.43 5.07-2.43 5.07-3.99-4.41-13.91-3.54zM182.62 152.55l-.27-5.42-1.93-5.84s1.16-.85 2.2 1.32 2.36 5 4.18 4.41v-3.14s-2.4-4.75-2.55-4.75.65-.62 1.81.73a42.16 42.16 0 0 1 2.95 4.37v-6.38s0-1.28.5-1.28.38.81.38.93.12-.39.58-.31.7.23.7.74.39 8.12.39 8.12l-4.84 8.24z"></path></svg> 