<?xml version="1.0" encoding="UTF-8"?> <svg xmlns="http://www.w3.org/2000/svg" id="Layer_1" data-name="Layer 1" viewBox="0 0 300 300"><defs><style>.cls-1{fill:#293074}</style></defs><path class="cls-1" d="M85.55 131.47H61.64Q50 131.44 50 140.83v17.24q0 9.33 11.64 9.33h22.69q11.6 0 11.6-9.32v-17.25q0-8.83-10.38-9.36zm-2.48 27.18H64.25V140h18.82zM199.42 167.27h-13.51v-9.42H167v9.42h-13.5v-27.68a6.77 6.77 0 0 1 2.68-5.63q2.61-2.06 7.46-2.05h25.69c3.24 0 5.72.68 7.46 2.05a6.74 6.74 0 0 1 2.62 5.63zm-13.51-15.93v-10.23H167v10.23zM247.83 133.69c-1.37-1.09-3.47-1.67-6.28-1.76h-25.64c-3.23 0-5.72.67-7.46 2a6.78 6.78 0 0 0-2.67 5.47V167.24h13.5V158h21.83c5.92 0 8.89-2.37 8.89-7.14v-11.31c0-2.72-.73-4.67-2.17-5.86zm-11.57 16.58h-17.17v-9.16h17.17zM136.55 131.91h-2v20.57c-.09.22-.28.38-.69.31a1 1 0 0 1-.45-.26c-2.28-3.52-11.06-15.58-13.87-19.42v-.05l-.14-.12s0-.06-.07-.06a4.08 4.08 0 0 0-2.9-1h-10.9a4.2 4.2 0 0 0-3.16 1.16 4.35 4.35 0 0 0-1.13 3.11v31.08h12.75s-.07-16.42-.1-21.26c0-.32.28-.78 1.26-.67a.73.73 0 0 1 .53.31c2.46 3.93 18.59 21.62 18.59 21.62h13.25v-35.32z"></path><path d="M71.7 153.84S86 162.05 89 168.56h11.12c-.95-2.19-6.25-11.91-28.42-14.72z" fill="#ec2224" stroke="#fff" stroke-width=".72"></path></svg> 