<?xml version="1.0" encoding="UTF-8"?> <svg xmlns="http://www.w3.org/2000/svg" id="Layer_1" data-name="Layer 1" viewBox="0 0 300 300"><defs><style>.cls-3{fill-rule:evenodd;fill:#1d1d1b}</style></defs><path fill-rule="evenodd" fill="#50827f" d="M72.92 160.65l.48-.05.5-.07 1.18-.15 1.3-.28 1.32-.3 1.3-.37 1.35-.4 1.35-.48 1.02-.33.43-.19.4-.25.35-.33.32-.35.25-.42 6.48-13.61 10.38 25.86.12.29.18.28.22.25.25.2.3.18.3.09.33.08h.32l8.82.02-16.14-34.62h-9.56l-13.55 24.95z"></path><path fill="#cc3b25" fill-rule="evenodd" d="M118.17 137.78v-6.25l-15.77 8.6-.15.07-.33.12-.34.11h-.33l-.28-.05-.3-.1-.25-.1-.09-.05.12.4.25.79.33.83.42.82.5.75.52.63.5.45.45.25.43.1h.43l.39-.05.3-.1.25-.1.11-.08 12.84-7.04z"></path><path class="cls-3" d="M149.8 159.22h-.17l-.16.03-.15.03-.1.04-.12.08-.1.07-.1.1-.08.13-1.19 2.02h5.42v3.58l-.42.13-.38.1-.35.07-.37.08-.35.07-.48.05-.38.05-.32.03H148.93l-.38-.06-.52-.04-.33-.06-.32-.07-.33-.08-.33-.1-.29-.12-.38-.2-.3-.18-.25-.19-.25-.21-.25-.22-.22-.22-.23-.25-.17-.28-.23-.38-.15-.29-.12-.33-.1-.32-.08-.33-.07-.35-.06-.32-.02-.35v-1l.05-.33.08-.3.1-.33.1-.29.12-.3.15-.31.13-.17.19-.27.23-.25.23-.25.25-.23.25-.2.35-.23.29-.17.33-.17.35-.13.32-.12.48-.13.38-.07.37-.05.35-.06.38-.02.37-.02.38-.03h.35l.37.03.38.02.37.05.38.05.37.05.38.08.37.04.38.08.37.1.38.07.37.11.35.1.37.1.18.05v-2.61l-.43-.12-.34-.13-.38-.1-.37-.07-.35-.08-.38-.07-.37-.07-.68-.11-.38-.04-.37-.06-.38-.02-.37-.02-.35-.03h-1.9l-.38.03-.37.02-.38.05-.34.05-.35.05-.38.1-.35.1-.48.13-.35.1-.32.12-.35.15-.3.15-.32.15-.3.2-.31.17-.35.25-.27.23-.27.23-.25.25-.25.27-.25.25-.21.27-.19.31-.21.29-.17.31-.22.42-.13.3-.12.35-.13.33-.08.35-.09.34-.06.35-.04.36-.03.45v.69l.05.36.05.37.05.35.1.35.07.35.13.33.12.32.18.38.15.32.17.3.18.3.2.3.23.28.2.27.25.25.3.28.29.22.31.2.32.2.33.17.32.18.32.17.36.13.32.15.35.12.4.13.38.08.37.07.38.05.37.05.38.05.4.03.35.04.4.03h.37l.65.03.38-.03h.35l.37-.03.4-.02.38-.02.37-.05.38-.06.37-.04.4-.03.35-.07.38-.05.37-.08.38-.08.37-.04.38-.11.37-.1.38-.07.37-.1.33-.1v-7.98h-6.58zM164.7 135.43l.27.02.33.08.25.07.2.08.22.12.18.13.17.14.18.18.18.22.1.23.1.2.05.23.04.25V137.72l-.02.23-.05.2-.08.23-.12.19-.15.21-.15.19-.25.23-.22.15-.25.12-.25.08-.25.1-.25.05-.28.02h-2.47l-.13.03-.15.05-.1.02-.12.08-.11.1-.07.1-.05.05-1.13 2.05 3.56-.02 3.59 5.37h4.25l-4.12-6.27.35-.1.3-.13.3-.15.4-.2.27-.17.25-.18.25-.2.23-.22.2-.25.25-.33.17-.25.15-.28.1-.27.11-.25.07-.27.03-.33.02-.3v-.22l-.02-.3-.06-.31-.07-.29-.1-.31-.1-.29-.15-.3-.17-.28-.2-.28-.21-.25-.22-.22-.22-.22-.25-.2-.28-.21-.28-.15-.29-.14-.3-.13-.31-.1-.29-.1-.33-.07-.32-.03-.33-.03-.33-.02-.27.02H155.4v14.58h3.8v-12.12l5.27-.03.23.03zM182.75 132.07l2.07-2.39h-3.54l-1.18 2.39H182.75zM221.75 147.6h3.82v-12h4.28l.12-.03.16-.02.09-.02.1-.06.08-.04.05-.08.08-.07.02-.08.05-.1.03-.05.02-.02.7-1.98H217.6l-.13.05-.09.03-.1.07-.1.08-.08.07-.07.1-.06.1-.02.05-.98 2h5.78v12zM171.72 161.45l.31-.1.29-.1.28-.15.37-.2.25-.15.23-.2.23-.2.2-.22.17-.25.17-.25.16-.28.09-.3.1-.3.08-.3.05-.32.02-.33v-.27l-.02-.33-.05-.3-.05-.3-.1-.3-.1-.27-.15-.31-.12-.19-.18-.28-.2-.25-.22-.22-.23-.23-.37-.27-.3-.18-.31-.15-.32-.15-.53-.17-.34-.1-.38-.08-.35-.07-.35-.06-.37-.04-.38-.03-.37-.03h-9.33v14.6h3.83v-11.94h5.1l.17.02.25.03.25.04.23.08.29.15.21.1.14.13.15.12.16.23.09.19.1.23.08.23.05.2.02.19v.13l-.02.2-.02.23-.08.17-.1.23-.12.22-.16.18-.25.27-.22.12-.22.15-.23.1-.27.11-.25.04-.25.06h-2.46l-.1.02-.09.05-.13.05-.1.05-.1.08-.1.07-.07.08-.08.07-.05.1-1 1.87h3.32l3.83 5.35h4.15l-4.17-6.27.34-.1zM127.17 153.2l-7.42 14.62h4.1l1.53-3.29h4.44l.18-.06.18-.04.14-.08.15-.1.13-.12.12-.13.1-.15.03-.05 1.15-1.9h-5.42l3.05-6.4 5.5 12.28h3.94l-6.75-14.58h-5.15zM214.28 133h-3.73v14.6h3.73V133zM139.85 145.47l.28.25.27.23.28.23.29.2.31.19.29.21.33.17.32.15.25.1.35.1.36.13.35.1.37.1.35.07.38.05.34.07.46.06.37.02.38.03h.37l.38.02h.37l.38-.02.54-.03.38-.02.37-.03.35-.05.38-.05.35-.07.35-.08.38-.07.35-.08.37-.13.35-.07.35-.12.35-.13.27-.07v-2.75l-.14.07-.36.13-.35.15-.34.1-.35.12-.35.1-.38.08-.52.1-.33.04-.38.06-.35.05-.34.02-.38.02h-.75l-.35.03-.33-.03-.35-.02-.32-.05-.35-.08-.33-.1-.37-.09-.3-.1-.3-.13-.28-.15-.27-.18-.25-.17-.25-.2-.32-.3-.2-.25-.21-.25-.19-.27-.15-.28-.13-.3-.12-.3-.13-.47-.07-.33-.05-.35v-1l.05-.32.07-.48.07-.3.11-.32.1-.3.15-.28.14-.28.25-.35.23-.25.23-.22.27-.22.25-.21.27-.19.46-.25.29-.16.36-.12.32-.1.35-.1.47-.1.36-.02.37-.06h1.1l.53.03.37.03.38.04.37.06.33.05.37.07.35.07.37.11.35.07.36.13.35.09.17.08.43.13.02-2.73-.22-.05-.36-.1-.35-.12-.37-.11-.35-.07-.37-.1-.35-.08-.38-.07-.43-.07-.37-.05-.35-.06-.37-.04-.38-.03-.37-.03H146.43l-.36.03-.37.03-.38.04-.35.06-.34.07-.35.08-.35.1-.36.09-.39.13-.33.12-.32.13-.35.15-.3.18-.33.17-.3.18-.3.19-.27.23-.28.23-.25.22-.25.25-.25.25-.22.28-.23.27-.2.3-.2.28-.15.32-.18.3-.19.48-.13.32-.1.33-.1.35-.07.34-.08.35-.02.5-.03.36v.7l.05.34.05.35.05.36.1.32.1.35.18.5.15.33.14.29.18.33.18.3.2.28.19.27.23.3.3.27zM178.32 167.82h3.86v-14.57h-3.83l-.03 14.57zM224.3 153.25h-3.58v14.57h11.38l1.1-2.6h-8.9v-11.97zM189.53 145.05h-11.68v-9.58H188.97l-.92-2.5h-13.9v14.58H188.28l1.25-2.5zM243.03 165.18h-4.73v-9.43h11.13l-.88-2.55h-14.08v14.6h14.38l1.15-2.62h-6.97z"></path><path class="cls-3" d="M241 159.1l-.1.03h-.12l-.15.02-.13.05-.1.08-.12.07-.1.1-.03.05-1.45 2.15h6.37l.11-.02.12-.03.13-.05.12-.05.1-.07.1-.11.05-.07 1.55-2.15H241zM219.33 160.05v-.35l-.05-.28-.05-.35-.08-.32-.1-.35-.1-.33-.14-.32-.13-.33-.18-.3-.17-.3-.23-.29-.22-.28-.23-.28-.25-.27-.24-.25-.28-.25-.27-.23-.33-.22-.3-.2-.33-.2-.32-.17-.33-.18-.33-.18-.32-.13-.35-.12-.35-.13-.35-.1-.35-.1-.37-.07-.35-.08-.38-.07h-3.73l-.37.07-.35.08-.35.07-.35.1-.35.1-.33.13-.32.15-.35.15-.3.15-.35.22-.28.18-.29.23-.28.22-.27.22-.26.25-.25.28-.22.25-.25.33-.2.27-.2.3-.18.3-.15.32-.12.33-.15.32-.1.35-.12.48-.06.35v.37l-.06.35v1l.06.38v.35l.08.35.07.35.07.32.13.38.12.35.16.32.14.3.18.33.2.3.3.45.22.27.25.25.26.28.24.25.28.23.33.24.29.2.3.18.33.2.32.15.35.18.33.12.35.15.48.12.34.1.38.08.38.08h.34l.38.05h2.93l.35-.05.6-.1.35-.08.35-.07.35-.1.35-.1.35-.15.33-.12.32-.15.47-.25.33-.18.3-.18.27-.2.28-.22.27-.23.26-.25.24-.25.33-.4.2-.29.2-.31.17-.32.15-.3.16-.33.12-.35.12-.32.08-.35.1-.35.05-.35.05-.35v-1.65zm-4.11.62V161.67l-.05.28-.07.35-.08.35-.12.33-.13.32-.13.33-.17.32-.18.27-.22.25-.23.23-.22.22-.25.23-.3.17-.27.18-.31.12-.3.1-.3.1-.29.08-.48.07h-1l-.35-.05h-.33l-.32-.08-.33-.1-.32-.1-.33-.12-.37-.2-.28-.18-.25-.2-.24-.22-.23-.23-.35-.42-.18-.25-.15-.28-.15-.29-.12-.31-.13-.32-.1-.33-.07-.32-.07-.48-.06-.35v-.67l.06-.43v-.37l.05-.35.08-.33.1-.35.12-.3.13-.32.17-.28.15-.3.23-.25.2-.25.22-.22.25-.2.38-.28.27-.15.3-.15.3-.12.31-.1.29-.08.5-.07.48-.05h.48l.49.05.61.1.29.08.33.1.3.12.28.13.29.17.26.18.24.2.25.22.23.23.22.25.18.27.17.28.13.3.13.3.12.3.08.3v.25l.05.35v.35l.05.32v.35zM180.72 138.95h-.12l-.15.02-.17.03-.13.07-.15.06-.1.09-.12.13-1.56 2.1h6.18l.15-.02.15-.03.12-.05.15-.07.13-.1.1-.08.1-.13.08-.07 1.34-1.95h-6zM201.85 147.3l.5-.12.35-.13.32-.12.33-.13.32-.18.51-.27.29-.18.28-.17.3-.2.25-.23.25-.25.22-.22.3-.35.21-.27.17-.28.17-.3.18-.33.13-.32.14-.38.08-.37.1-.35.07-.35.05-.35v-2.33l-.05-.34-.08-.33-.1-.35-.1-.32-.12-.33-.15-.32-.15-.31-.17-.3-.2-.3-.26-.35-.22-.27-.25-.25-.25-.25-.28-.22-.27-.18-.28-.2-.27-.18-.3-.17-.27-.15-.31-.15-.3-.13-.32-.12-.3-.1-.33-.1-.29-.1-.33-.07-.33-.08-.32-.05H191.49v14.57h8.9l.36-.05.34-.05.38-.08.35-.07zm-.9-2.47l-.3.09-.3.08-.3.05h-4.78v-9.68h4.4l.3.08.33.07.3.1.3.13.3.15.27.15.28.18.27.19.23.23.2.17.22.25.18.25.18.28.12.27.15.3.1.28.08.33v.19l.08.33v1.58l-.05.32-.1.32-.08.28-.1.32-.12.33-.15.3-.18.3-.17.3-.2.27-.2.25-.2.23-.25.17-.25.18-.27.15-.28.13zM199.45 164.68l-.27.1-.38.1-.35.09-.38.1-.37.08-.35.07-.38.08-.37.02-.32.06-.38.05-.35.02-.35.02h-.38l-.35-.02-.37-.02-.47-.03-.33-.05-.35-.05-.3-.08-.33-.12-.29-.1-.35-.18-.3-.14-.25-.18-.28-.18-.25-.19-.3-.33-.2-.25-.2-.25-.18-.27-.15-.28-.12-.3-.15-.5-.08-.35-.02-.35-.02-.32v-.36l.02-.35.02-.32.06-.33.04-.32.11-.3.1-.3.12-.27.2-.35.18-.28.19-.28.23-.22.23-.22.25-.23.27-.2.3-.17.3-.15.33-.15.32-.13.33-.1.37-.08.35-.04.35-.06.37-.02.35-.02.48.02.35.02.4.06.38.02.35.08.37.05.38.07.35.1.37.1.35.1.37.1.35.13.36.12h.02l.4.15V154l-.13-.05-.27-.1-.07-.03-.35-.12-.38-.13-.35-.1-.45-.09-.35-.08-.37-.08-.38-.04-.37-.05-.73-.08-.37-.02-.38-.03-.37-.03-.46-.02h-.72l-.38.02-.37.03-.57.07-.38.06-.35.07-.35.08-.35.1-.32.12-.46.18-.32.12-.32.17-.3.18-.33.17-.27.21-.35.27-.28.23-.25.22-.27.25-.23.28-.22.27-.33.4-.2.33-.18.29-.17.33-.12.32-.13.25-.12.35-.11.33-.07.35-.07.35-.08.58-.03.35v.69l.03.46.05.35.07.35.08.34.08.35.17.46.13.32.14.33.18.29.18.33.25.4.22.27.23.28.22.28.28.25.34.29.28.23.3.23.3.17.35.23.33.14.35.15.34.13.33.12.35.1.7.15.37.06.38.04.37.06.38.02.58.03.37.02h.75l.38-.02h.37l.4-.05.35-.03.33-.03.37-.04.38-.06.37-.07.35-.08.37-.1.38-.09.35-.1.35-.1.15-.05.02-.03.41-.13.02-2.72-.37.15-.08.03z"></path><path fill="#0084b8" fill-rule="evenodd" d="M118.17 148.22v-7.4l-5.2 2.96-5.02 2.82-4.7 2.6-4.28 2.33-3.84 2.04-3.46 1.78-3.14 1.53-2.83 1.27-2.65 1.13-2.52.92-2.5.83-2.43.69-2.43.58-2.34.5-2.23.38-2.1.29-1.87.21-1.68.1-1.4.07-1.22-.05-1.85-.2-1.28-.3-.93-.37-.75-.5-.6-.58-.47-.67-.28-.75-.09-.88.09-1.05.38-1.2.6-1.3.8-1.32 1-1.33 1.13-1.28 1.15-1.17 1.17-1.02 1.27-1 1.43-1.08 1.48-.98 1.42-.87 1.47-.82 1.53-.78 1.53-.67 1.55-.63 1.47-.5 1.37-.42 1.23-.28 1.13-.17 1.12-.05 1.18.09.62.08-.32-1.15-.58-1.95-.45-1.38-.35-.82-.28-.45-.27-.27-.3-.21-.48-.17-.75-.08-1.07.06-1.35.17-1.53.33-1.57.44-1.65.61-1.6.67-1.52.7-1.48.77-1.45.83-1.47.92-1.53 1.03-1.5 1.08-1.32 1.07-1.18.97-1.05 1-1.02 1.06-.96 1.15-.87 1.2-.78 1.22-.62 1.33-.5 1.32-.27 1.35-.13 1.3.1 1.4.25 1.48.4 1.47.52 1.4.61 1.28.7 1.12.82 1.1.95 1 1.03.88 1.1.75 1.22.6 1.45.52 1.73.48 1.85.32 1.9.2 1.87.05 1.8-.1 1.62-.13 1.55-.22 1.56-.28 1.55-.29 1.45-.36 1.42-.35 1.5-.44 1.55-.46 1.55-.5 1.58-.54 1.57-.6 1.58-.63 1.57-.67 1.6-.75 1.7-.83.98-.52 1.27-.68 1.75-.95 2.55-1.37 3.52-1.96 4.68-2.57 5.6-3.12 6.17-3.41z"></path></svg> 