<?xml version="1.0" encoding="UTF-8"?> <svg xmlns="http://www.w3.org/2000/svg" id="Layer_1" data-name="Layer 1" viewBox="0 0 300 300"><defs><style>.cls-2{fill:#07402b}.cls-4{fill:#6c6a6b}</style></defs><path d="M79.5 107.86l-4.1 4.08v-.33-3.16c0-.44.14-.6.59-.6 1.26.02 2.48.01 3.51.01z" fill="#f34e46"></path><path class="cls-2" d="M142.47 127.91v-20.07h24.29v57.32h-24.29v-20.68h-11.63v20.69h-24.29v-57.32a4.49 4.49 0 0 1 .55 0h23.17c.54 0 .56.24.56.65v18.7c0 .78 0 .78.8.78h10.84zM221.63 107.79v16.26h-25.06a2.41 2.41 0 0 0-2.64 1.91 2.83 2.83 0 0 0 1.41 3.37 4.92 4.92 0 0 0 1.85.4h9.57c1.64 0 3.26.3 4.9.39a14.24 14.24 0 0 1 4.55 1.36 12.4 12.4 0 0 1 3.63 2.4 12.1 12.1 0 0 1 3.15 4.59 21.39 21.39 0 0 1 1.52 6.27 27.67 27.67 0 0 1-.35 7.71 18.16 18.16 0 0 1-2.24 5.93 13 13 0 0 1-3.42 3.7 15.56 15.56 0 0 1-6.91 2.71 33.31 33.31 0 0 1-4.89.35H173v-.72-14.85c0-.6.18-.71.74-.71h24.25a7.5 7.5 0 0 0 2-.38 2 2 0 0 0 1.38-1.81 2.89 2.89 0 0 0-2.69-3.42 6 6 0 0 0-.85 0c-3.28 0-6.57-.05-9.85-.05a25.71 25.71 0 0 1-5.31-.72A15.26 15.26 0 0 1 179 141a13.28 13.28 0 0 1-4-3.15 15.08 15.08 0 0 1-2.3-3.63 19.51 19.51 0 0 1-1.58-6.59 24.55 24.55 0 0 1 .51-7.64 17.71 17.71 0 0 1 1.44-3.94 13.3 13.3 0 0 1 3-4 14.09 14.09 0 0 1 5.45-3.18 23.36 23.36 0 0 1 7-1.08h33.1zM75.38 165.15v-32.66a27.29 27.29 0 0 1 .82-6.42 17.43 17.43 0 0 1 1.47-4.07c.5-1 1.07-1.93 1.57-2.91a21.25 21.25 0 0 1 3.19-4.09 15.68 15.68 0 0 1 2.57-2.14 28 28 0 0 1 3.66-2.39 22.86 22.86 0 0 1 7.48-2.37c1.17-.16 2.35-.24 3.57-.36v57.41z"></path><path d="M89.62 107.87A27.44 27.44 0 0 0 75.44 122v-1-5a1.49 1.49 0 0 1 .18-.75 12.94 12.94 0 0 1 1.13-1.54c.93-1 1.84-2.13 2.86-3.08s2.14-1.76 3.24-2.61a.85.85 0 0 1 .52-.17c2.1.01 4.17.02 6.25.02z" fill="#f34e43"></path><path class="cls-4" d="M79.18 175.75H75v-1.51h10.18v1.51H81V188h-1.8zM88.7 188.22c-2.65 0-4.73-2-4.73-5.08 0-3.31 2.18-5.24 4.89-5.24s4.76 2.1 4.76 5.1c0 3.67-2.55 5.26-4.9 5.26zm.08-1.35c1.72 0 3-1.61 3-3.85 0-1.68-.83-3.78-3-3.78s-3 2-3 3.84c0 2.16 1.23 3.79 3 3.79zM95.91 178.12l1.32 5c.27 1.1.53 2.14.72 3.16H98c.22-1 .55-2.06.88-3.14l1.61-5H102l1.53 4.94c.36 1.16.65 2.22.87 3.22h.07a27.88 27.88 0 0 1 .75-3.2l1.41-5h1.77l-3.17 9.9h-1.63l-1.51-4.72c-.35-1.12-.63-2.1-.88-3.26a28 28 0 0 1-.9 3.28l-1.63 4.7h-1.63l-3-9.88zM110.56 183.38a3.14 3.14 0 0 0 3.37 3.41 6.34 6.34 0 0 0 2.73-.51l.33 1.29a8.21 8.21 0 0 1-3.31.63c-3 0-4.85-2-4.85-5s1.77-5.32 4.65-5.32c3.22 0 4.06 2.83 4.06 4.65a4.34 4.34 0 0 1-.06.83zm5.24-1.28c0-1.14-.47-2.92-2.47-2.92-1.83 0-2.61 1.67-2.75 2.92zM119.27 181.2c0-1.16 0-2.16-.08-3.08h1.57l.08 1.94h.07a3 3 0 0 1 2.75-2.16 3.74 3.74 0 0 1 .49 0v1.69a5.19 5.19 0 0 0-.61 0 2.51 2.51 0 0 0-2.41 2.28 5.83 5.83 0 0 0-.06.84V188h-1.8zM125.36 186.16a5 5 0 0 0 2.38.69c1.29 0 1.9-.63 1.9-1.47s-.51-1.3-1.81-1.79c-1.8-.65-2.64-1.63-2.64-2.8 0-1.59 1.31-2.89 3.41-2.89a4.56 4.56 0 0 1 2.41.61l-.43 1.28a4.09 4.09 0 0 0-2-.57c-1.06 0-1.63.61-1.63 1.35s.57 1.18 1.85 1.69c1.7.63 2.6 1.49 2.6 3 0 1.76-1.37 3-3.68 3a5.69 5.69 0 0 1-2.77-.69zM142 188.22c-2.66 0-4.74-2-4.74-5.08 0-3.31 2.19-5.24 4.9-5.24s4.75 2.06 4.75 5.06c0 3.67-2.55 5.26-4.89 5.26zm.08-1.35c1.71 0 3-1.61 3-3.85 0-1.68-.84-3.78-3-3.78s-3 2-3 3.84c0 2.16 1.22 3.79 3 3.79zM148.83 188v-8.51h-1.37v-1.37h1.37v-.47a4.7 4.7 0 0 1 1.17-3.45 3.44 3.44 0 0 1 2.39-.91 4.17 4.17 0 0 1 1.53.28l-.23 1.39a2.78 2.78 0 0 0-1.16-.23c-1.51 0-1.92 1.35-1.92 2.86v.53H153v1.37h-2.37V188zM158.7 186.16a5 5 0 0 0 2.39.69c1.29 0 1.9-.63 1.9-1.47s-.51-1.3-1.82-1.79c-1.79-.65-2.63-1.63-2.63-2.8 0-1.59 1.31-2.89 3.41-2.89a4.52 4.52 0 0 1 2.4.61l-.42 1.28a4.13 4.13 0 0 0-2-.57c-1.06 0-1.64.61-1.64 1.35s.58 1.18 1.86 1.69c1.69.63 2.59 1.49 2.59 3 0 1.76-1.37 3-3.67 3a5.76 5.76 0 0 1-2.78-.69zM168.84 175.75v2.37h2.57v1.37h-2.57v5.3c0 1.23.34 1.92 1.34 1.92a3.39 3.39 0 0 0 1-.12l.09 1.36a4.72 4.72 0 0 1-1.6.25 2.54 2.54 0 0 1-1.93-.76 3.84 3.84 0 0 1-.7-2.59v-5.36h-1.53v-1.37h1.53v-1.81zM172.86 181.2c0-1.16 0-2.16-.08-3.08h1.57l.08 1.94h.06a3 3 0 0 1 2.76-2.16 3.89 3.89 0 0 1 .49 0v1.69a5.38 5.38 0 0 0-.62 0 2.51 2.51 0 0 0-2.4 2.28 5.83 5.83 0 0 0-.06.84V188h-1.8zM180 183.38a3.14 3.14 0 0 0 3.37 3.41 6.34 6.34 0 0 0 2.73-.51l.33 1.29a8.17 8.17 0 0 1-3.31.63c-3 0-4.85-2-4.85-5s1.77-5.32 4.65-5.32c3.22 0 4.06 2.83 4.06 4.65a4.34 4.34 0 0 1-.06.83zm5.24-1.28c0-1.14-.46-2.92-2.46-2.92a3 3 0 0 0-2.78 2.92zM188.67 180.79c0-1 0-1.85-.09-2.67h1.59l.11 1.61a3.64 3.64 0 0 1 3.26-1.83c1.37 0 3.49.81 3.49 4.2v5.9h-1.79v-5.7c0-1.59-.6-2.93-2.29-2.93a2.59 2.59 0 0 0-2.41 1.83 2.75 2.75 0 0 0-.12.84v6h-1.79zM208 186.55c0 2.28-.47 3.65-1.41 4.53a5.45 5.45 0 0 1-3.61 1.18 6.35 6.35 0 0 1-3.28-.82l.45-1.38a5.43 5.43 0 0 0 2.89.79c1.84 0 3.19-1 3.19-3.47v-1.08h-.05A3.49 3.49 0 0 1 203 188c-2.45 0-4.2-2.08-4.2-4.83 0-3.35 2.18-5.22 4.47-5.22a3.27 3.27 0 0 1 3.08 1.71l.06-1.49H208c-.06.69-.08 1.51-.08 2.69zm-1.84-4.55a2.68 2.68 0 0 0-2.62-2.72c-1.71 0-2.93 1.45-2.93 3.76 0 1.92 1 3.55 2.91 3.55a2.58 2.58 0 0 0 2.49-1.86 3 3 0 0 0 .15-1zM212.62 175.75v2.37h2.57v1.37h-2.57v5.3c0 1.23.34 1.92 1.34 1.92a3.39 3.39 0 0 0 1-.12l.08 1.36a4.61 4.61 0 0 1-1.59.25 2.54 2.54 0 0 1-1.93-.76 3.84 3.84 0 0 1-.7-2.59v-5.36h-1.53v-1.37h1.53v-1.81zM216.59 173.51h1.8v6.16a3.2 3.2 0 0 1 1.29-1.26 3.45 3.45 0 0 1 1.83-.51c1.33 0 3.45.81 3.45 4.22V188h-1.8v-5.7c0-1.59-.59-2.91-2.28-2.91a2.6 2.6 0 0 0-2.41 1.79 2.24 2.24 0 0 0-.12.86v6h-1.8z"></path></svg> 