<?xml version="1.0" encoding="UTF-8"?> <svg xmlns="http://www.w3.org/2000/svg" data-name="Layer 1" viewBox="0 0 300 300"><path d="M114.74 133.17l4.84 17.44h-10zm-8.82 29.65l-4.41 14.46h25.78l-4.14-14.46zm67.29-40.1h-49.49v15.53h15.61v39h25.13c-1.55-.95-12.21-9.42-12.21-25.21 0-13.14 8-26 21-29.35m8.58 40.59a10.7 10.7 0 0 0 10.53-11c0-6.09-4.4-11.6-10.31-11.6s-10.62 5.51-10.62 11.6 4.39 11 10.4 11m51.9-6.29l-10-34.3h-25.8v54.56H214v-34.2h.12l9.95 34.2H250v-54.53h-16.21V157zm-152.6 20.29L85.77 162H68.56v-4.62h18.62l4.42-14.67h-23v-4.44h24.28l4.7-15.53H50v54.56z" fill="#1175c7"></path></svg> 