<?xml version="1.0" encoding="UTF-8"?> <svg xmlns="http://www.w3.org/2000/svg" id="Layer_1" data-name="Layer 1" viewBox="0 0 300 300"><defs><style>.cls-1{fill:#0099d6}</style></defs><path class="cls-1" d="M148.77 178.11H104.78a7 7 0 0 1-1.74-.47 8.43 8.43 0 0 1 1.71-.53c3.56-.3 7.14-.44 10.69-.85 2.7-.31 3.16-.9 3.28-3.64s.09-5.37.09-8.06v-52.8-1.34c-.1-1.06.36-1.36 1.4-1.35h16.93c4 0 8.07-.06 12.08.28 6.38.54 12.26 2.53 16.89 7.24 6.54 6.65 8.12 18.62-2.47 25.88a25.36 25.36 0 0 1-14.64 4.28c-5.19 0-10.39.07-15.59 0-1.25 0-1.7.29-1.69 1.64.07 7.26 0 14.51 0 21.77 0 .94.1 1.88.11 2.82 0 2.33.7 2.87 3 3.17 3.62.48 7.3.6 10.95.86.76.05 1.53 0 2.28.07.31 0 .57.36.86.56zm-17-33.62c0 .66-.11 1.41.95 1.38 4.74-.1 9.51.09 14.21-.37 5.15-.5 8.82-3.32 10.13-8.57a32.21 32.21 0 0 0 0-16.2c-1.51-5.85-5.21-9.61-11.27-10.37a83.83 83.83 0 0 0-11-.25c-2.18 0-2.85.63-2.89 2.81-.08 5.33-.16 27.08-.15 31.57z"></path><path class="cls-1" d="M98.64 120.72v40.26c0 .55-.38 1.59-.56 1.58-1.07 0-.67-1-.68-1.53a39 39 0 0 0-1.67-11.65c-1.26-3.83-3.83-6.07-7.87-6.46-3.07-.29-6.15-.46-9.22-.67a6.31 6.31 0 0 0-1 .1v1.76q0 14.56.08 29.15c0 1.47.57 2.5 2 2.7 3.19.43 6.39.75 9.59 1.06 1.11.1 2.24 0 3.35 0a7.64 7.64 0 0 1 1.68.54 6.17 6.17 0 0 1-1.62.46H51.88a5.91 5.91 0 0 1-1.78-.59 14 14 0 0 1 1.78-.43c3.15-.29 6.33-.43 9.47-.84 2.47-.32 3.1-1.15 3.16-3.66.07-2.91.05-5.82.05-8.73v-47-.94c-.1-4.21.11-4.4-4.69-5.14-2.82-.44-5.7-.47-8.55-.71a7.16 7.16 0 0 1-1.26-.35l.11-.46h65.58v26.45c-1.17.2-1.16.2-1.24-1.06a32.37 32.37 0 0 0-6.18-17.56c-3.32-4.5-7.75-7-13.39-6.93-4.33 0-8.68.19-13 .65-4.07.42-4.37 1-4.38 5v24c0 1.22.39 1.59 1.55 1.46 3-.31 6-.51 8.94-.84 3.25-.37 5.1-2.48 6.33-5.32 1.83-4.25 2.41-8.77 2.91-13.31.11-1.02.1-1.02 1.35-.99zM218.33 109.16a32.2 32.2 0 0 1-2.84 17.93A105.33 105.33 0 0 1 201.07 149c-3.21 3.77-6.34 7.71-7.93 12.52a37.64 37.64 0 0 0-1.75 12.17 2.27 2.27 0 0 0 2 2.57c3.23.39 6.48.66 9.72 1l1.53.13.06.44a6.4 6.4 0 0 1-1.34.28h-24.72c-1.22 0-1.43-.49-1.37-1.51a34.12 34.12 0 0 1 2.83-12.21c2.71-6.17 7-11.09 12-15.44 3.53-3.07 7.4-5.74 11-8.73 6.42-5.32 11.15-11.81 13.31-20 0-.2.07-.42.13-.78-.83 0-1.57-.11-2.31-.11-8.51 0-17 .12-25.53 0-6.76-.12-10 3.27-12.11 9a44.65 44.65 0 0 0-1.19 5.61c-.07.33-.41.61-.63.92-.19-.3-.5-.58-.54-.9a15 15 0 0 1-.05-2v-21.5c0-.85.12-1.34 1.14-1.34h42.46a3 3 0 0 1 .55.04z"></path><path fill="#3c3c3b" d="M209.35 199.36l39.21-98.73H250l-39.2 98.74-1.45-.01z"></path></svg> 