<svg id="Layer_1" data-name="Layer 1" xmlns="http://www.w3.org/2000/svg" viewBox="0 0 300 300"><defs><style>.cls-1{fill:#6abf4b}.cls-2{fill:#fff}</style></defs><path class="cls-1" d="M75 75.24h150v10.15H75zM75 98.47h150v10.15H75zM75 121.7h150v10.15H75zM75 144.93h150v10.15H75zM75 168.15h150v10.15H75zM75 191.38h150v10.15H75zM75 214.61h150v10.15H75z"/><path class="cls-1" d="M92.38 92.38h115.25v115.25H92.38z"/><path class="cls-2" d="M95.08 95.08v109.84h109.83V95.08zm107.8 107.8H97.12V97.12h105.76z"/><path class="cls-2" d="M153.28 144.64a2.81 2.81 0 000 3.84 2.61 2.61 0 003.74 0 2.81 2.81 0 000-3.84 2.61 2.61 0 00-3.74 0zM146.65 144.64a2.81 2.81 0 000 3.84 2.5 2.5 0 001.87.78 2.58 2.58 0 001.91-.8 2.62 2.62 0 00.76-1.91 2.67 2.67 0 00-.76-1.93 2.6 2.6 0 00-1.91-.78 2.49 2.49 0 00-1.87.8z"/><path class="cls-2" d="M145.57 140.56H181a45.67 45.67 0 00.68-7.39q0-5.88-2.9-8.68-3-3-9.64-2.95a38.74 38.74 0 00-5.11.37V126a33.08 33.08 0 014.58-.34q4.22 0 6.09 1.94t1.75 5.73a25 25 0 01-.19 3H156v-14.56h-5.27v14.63h-20.22v-14.63h-5.26V141a6.72 6.72 0 01-1.16 4.41 4 4 0 01-3.18 1.17 11.91 11.91 0 01-3.23-.47l-.39 4.19a14 14 0 003.35.39q9.87 0 9.87-10v-.16h15.06zM170.27 118.42a2.74 2.74 0 001.95-4.7 2.76 2.76 0 10-3.88 3.92 2.66 2.66 0 001.93.78zM121.35 162.35a2.68 2.68 0 00.8-1.95 2.73 2.73 0 00-2.75-2.75 2.76 2.76 0 00-2 4.72 2.8 2.8 0 003.9 0z"/><path class="cls-2" d="M125.39 174.42q0 7.59-5.6 7.59t-5.68-7.7a27.8 27.8 0 011.14-7.67l-5.45 1a27.13 27.13 0 00-1 7.14q0 11.35 10.55 11.36 11.26 0 11.26-12v-16h-5.27zM178.73 166.83q0-9.18-9-9.18a10.36 10.36 0 00-7.8 2.94 9.38 9.38 0 00-2.57 6.75q0 4.09 2.22 5.72a7.41 7.41 0 00-2.22-.28h-17v-24h-5.26v28.17h41.67zm-5.15 5.95h-3.05q-6 0-6-5.59a5.82 5.82 0 011.25-3.87 4.4 4.4 0 013.51-1.52q4.27 0 4.28 5.68zM188.4 154.8a2.73 2.73 0 002.75-2.75 2.73 2.73 0 00-2.75-2.75 2.62 2.62 0 00-2 .8 2.74 2.74 0 002 4.7zM185.81 177.39a6.78 6.78 0 01-1.15 4.41 4 4 0 01-3.18 1.17 11.92 11.92 0 01-3.24-.47l-.39 4.19a14 14 0 003.35.39q9.87 0 9.87-10v-18.93h-5.26z"/></svg>