<?xml version="1.0" encoding="UTF-8"?> <svg xmlns="http://www.w3.org/2000/svg" data-name="Layer 1" viewBox="0 0 300 300"><path d="M88.07 130.53l-19.72 15.18a17.33 17.33 0 0 0-16.69-13.16H37.5v34.9h14.16c8.09 0 15.17-5.56 16.69-13.15l19.72 15.17 19.72-15.17v13.15H130v-7.08h-14.62v-27.82h-8.09v13.15l-18.72 15.18-4-3.54 9.1-7.09 9.61-7.58-5.56-4.54L79 152.79l-4-3.54 18.72-14.16-5.57-4.55zm-43 9.1h6.06a8.75 8.75 0 0 1 3.64.81 9.79 9.79 0 0 1 3.07 2.23A10.53 10.53 0 0 1 60 146a11.6 11.6 0 0 1 .07 8.23 11.18 11.18 0 0 1-2 3.39A9.65 9.65 0 0 1 55 160a8.65 8.65 0 0 1-3.85.88h-6.06zm110.24 20.74v7.08h-22.23v-34.9h8.09v27.82z" fill="#007db8"></path><path d="M249 168.09c6.85 0 12.41-3.42 13.48-10.91l-.43-.43h-1.92l-.43.43c-1.07 5.35-4.49 8.34-10.48 8.34-7.49 0-12.84-5.56-12.84-15.4s5.56-15.4 12.84-15.4c6 0 9.41 3 10.48 7.91l.43.43h1.92l.43-.43c-1.07-6.84-6.42-10.48-13.48-10.48-8.34 0-15.83 6-15.83 17.76 0 12.19 7.49 18.18 15.83 18.18zM227.2 167v-33.8l-.42-.43h-3.43l-.43.43-12.83 30.16h-.43l-13.26-30.14-.43-.43h-3.42l-.43.43V167l.43.43h1.92l.43-.43v-28.65h.43L207.74 167l.42.43h2.57l.43-.43 12.41-28.67h.64V167l.43.43h1.92l.64-.43zm-41.71 0v-1.5l-.43-.43h-18.39l-.43-.42v-12.82l.43-.43H184l.43-.42v-1.72l-.43-.42h-17.33l-.43-.43v-12.62l.43-.43h18.39l.43-.43v-1.71l-.43-.43h-21.39l-.43.43V167l.43.43h21.39l.43-.43z" fill="gray"></path></svg> 