<?xml version="1.0" encoding="UTF-8"?> <svg xmlns="http://www.w3.org/2000/svg" id="Layer_1" data-name="Layer 1" viewBox="0 0 300 300"><defs><style>.cls-1{fill:#cf1b1d;fill-rule:evenodd}</style></defs><path class="cls-1" d="M183.07 75h-65.46L75 117.61v65L117.27 225h65.12L225 182.39v-65.12L183.07 75zm29 101.59l-35.46 35.46h-53.2L88 176.76v-53.35l35.46-35.28h53.86l34.78 34.94v53.52z"></path><path class="cls-1" d="M118.15 132.95l-9.03-18.4-13.47 12.61v45.17l12.96 13.12v-43.97l11.25 25.05 12.78-33.41v70.06h14.32V96.48h-15.17l-13.64 36.47zM157 96.48v106.7h16.37l31-30.85v-22.5h-23.88v12.95h8.87c2.38-.34 2.55 2.39.85 4.44s-18.92 18.92-18.92 18.92v-72.62l20.11 21v5.11h13v-11.96l-30.72-31.19z"></path></svg> 