<?xml version="1.0" encoding="UTF-8"?> <svg xmlns="http://www.w3.org/2000/svg" id="Layer_1" data-name="Layer 1" viewBox="0 0 300 300"><defs><style>.cls-1{fill:#0266a4}.cls-2{fill:#f47321}</style></defs><path class="cls-1" d="M51.16 155.47h-6.7l-.93 2.69h-6l7.18-16.32h6.44l7.17 16.32h-6.21zm-1.23-3.53l-2.1-5.87-2.09 5.87zM60.19 141.84h5.9v12.3h9.21v4H60.19zM77.58 141.84h5.9v12.3h9.22v4H77.58zM95.08 141.84H101v16.32h-5.92zM112.43 152.25v-3.4h9.12v7a19.93 19.93 0 0 1-4.63 2.08 18.51 18.51 0 0 1-4.77.55 13.32 13.32 0 0 1-5.55-1 7.45 7.45 0 0 1-3.32-2.95 8.54 8.54 0 0 1-1.18-4.5 8.33 8.33 0 0 1 1.29-4.65 8.07 8.07 0 0 1 3.78-3 14.25 14.25 0 0 1 5.22-.79 17.34 17.34 0 0 1 4.74.49 6.44 6.44 0 0 1 2.61 1.52 6.53 6.53 0 0 1 1.55 2.61l-5.69.87a2.67 2.67 0 0 0-1.19-1.41 4.82 4.82 0 0 0-5.24.66 5 5 0 0 0-1.15 3.64 5.13 5.13 0 0 0 1.16 3.79 4.45 4.45 0 0 0 3.25 1.13 7.31 7.31 0 0 0 1.89-.24 10.93 10.93 0 0 0 2.06-.83v-1.54zM125 141.84h5.9v5.71h6.45v-5.71h5.92v16.32h-5.92v-6.6h-6.45v6.6H125zM145.53 141.84h17.94v4h-6v12.29h-5.9v-12.26h-6z"></path><path class="cls-2" d="M164.89 152.76l5.61-.3a3 3 0 0 0 3.35 2.77 3.3 3.3 0 0 0 2-.5 1.44 1.44 0 0 0 .68-1.18 1.4 1.4 0 0 0-.65-1.13 8.22 8.22 0 0 0-3-.95 14.2 14.2 0 0 1-5.54-2 3.78 3.78 0 0 1-1.66-3.15 3.86 3.86 0 0 1 .85-2.38 5.64 5.64 0 0 1 2.47-1.74 14.05 14.05 0 0 1 4.7-.64 10.9 10.9 0 0 1 5.59 1.17 4.85 4.85 0 0 1 2.28 3.7l-5.56.27a2.49 2.49 0 0 0-.93-1.6 3.4 3.4 0 0 0-2-.5 2.7 2.7 0 0 0-1.55.37 1.11 1.11 0 0 0-.53.91.89.89 0 0 0 .43.7 5.2 5.2 0 0 0 2 .6 28.05 28.05 0 0 1 5.55 1.45 5.55 5.55 0 0 1 2.43 1.8 4.1 4.1 0 0 1 .77 2.42 4.62 4.62 0 0 1-1 2.89 6.13 6.13 0 0 1-2.84 2 13.15 13.15 0 0 1-4.6.69c-3.25 0-5.5-.54-6.75-1.6a5.94 5.94 0 0 1-2.1-4.07zM182.22 141.84h6.56l3.84 5.51 3.86-5.51H203l-7.42 9.48v6.84h-5.92v-6.84zM204.92 141.84h5.9V148l6.18-6.17h7.85l-7 6.16 7.28 10.16h-7.23l-4-6.71-3.05 2.73v4h-5.9zM227.11 141.84h15.81v3.48H233v2.6h9.19v3.33H233v3.21h10.19v3.7h-16.1zM245.17 152.76l5.62-.3a3 3 0 0 0 3.35 2.77 3.25 3.25 0 0 0 1.94-.5 1.45 1.45 0 0 0 .69-1.18 1.43 1.43 0 0 0-.65-1.13 8.37 8.37 0 0 0-3-.95 14.14 14.14 0 0 1-5.53-2 3.77 3.77 0 0 1-1.67-3.15 3.86 3.86 0 0 1 .85-2.38 5.68 5.68 0 0 1 2.57-1.76 14 14 0 0 1 4.7-.64 10.84 10.84 0 0 1 5.58 1.17 4.85 4.85 0 0 1 2.28 3.7l-5.56.27a2.49 2.49 0 0 0-.93-1.6 3.38 3.38 0 0 0-2-.5 2.72 2.72 0 0 0-1.55.37 1.1 1.1 0 0 0-.52.91.87.87 0 0 0 .43.7 5.2 5.2 0 0 0 2 .6 27.71 27.71 0 0 1 5.54 1.45 5.58 5.58 0 0 1 2.44 1.8 4.09 4.09 0 0 1 .76 2.42 4.62 4.62 0 0 1-1 2.89 6.08 6.08 0 0 1-2.84 2 13.11 13.11 0 0 1-4.6.69c-3.24 0-5.49-.54-6.74-1.6a6 6 0 0 1-2.16-4.05z"></path></svg> 