<?xml version="1.0" encoding="UTF-8"?> <svg xmlns="http://www.w3.org/2000/svg" id="Layer_1" data-name="Layer 1" viewBox="0 0 300 300"><defs><style>.cls-2{fill:#a60932}.cls-4{fill:#fff}.cls-5{fill:#7c7b7b}</style></defs><path fill="#900a2a" d="M178.9 128.94h-28.91v28.91l28.91-28.91z"></path><path class="cls-2" d="M149.99 100.05v28.9h28.91l-28.91-28.9z"></path><path fill="#cf033f" d="M121.1 128.94h28.89v-28.89l-28.89 28.89z"></path><path class="cls-2" d="M149.99 157.85v-28.9h-28.9l28.9 28.9z"></path><path class="cls-4" d="M158.36 141.57l-8.37-8.82-8.35 8.82 8.35-7.1 8.37 7.1z"></path><path class="cls-4" d="M156.22 143.71l-6.23-6.57-6.21 6.57 6.21-5.49 6.23 5.49z"></path><path class="cls-4" d="M154.08 145.84l-4.09-4.29-4.08 4.29 4.08-3.88 4.09 3.88zM151.95 147.98l-1.96-2.04-1.94 2.04 1.94-1.84 1.96 1.84zM160.5 139.43l-9.03-10.49 9.03-10.47-10.51 9-10.5-9 9.01 10.47-9.01 10.49 10.5-9.01 10.51 9.01zM132.94 128.94l-2.01-1.91 1.81 1.93-1.81 1.91 2.01-1.93zM137.33 128.94l-4.25-4.05 3.83 4.07-3.83 4.05 4.25-4.07z"></path><path class="cls-4" d="M141.73 128.94l-6.52-6.19 5.42 6.19-5.42 6.21 6.52-6.21z"></path><path class="cls-4" d="M146.12 128.94l-8.76-8.32 7.02 8.32-7.02 8.35 8.76-8.35zM167.06 128.96l2 1.91-1.81-1.91 1.81-1.93-2 1.93zM162.67 128.96l4.24 4.05-3.81-4.06 3.82-4.06-4.25 4.07z"></path><path class="cls-4" d="M158.28 128.94l6.5 6.21-5.42-6.21 5.42-6.2-6.5 6.2z"></path><path class="cls-4" d="M162.65 120.62l-8.76 8.34 8.76 8.33-7.05-8.33 7.05-8.34zM158.36 116.34l-8.37 7.09-8.35-7.09 8.35 8.82 8.37-8.82z"></path><path class="cls-4" d="M156.22 114.19l-6.23 5.49-6.21-5.48 6.21 6.56 6.23-6.57z"></path><path class="cls-4" d="M154.08 112.05l-4.09 3.88-4.08-3.88 4.08 4.31 4.09-4.31zM151.94 109.92l-1.95 1.83-1.94-1.83 1.94 2.03 1.95-2.03z"></path><path class="cls-5" d="M92.48 165.49H87v17.18h3.11v-7.11h2.09c4.35 0 5.91-2.57 5.91-5s-1.47-5.1-5.61-5.1m-.09 7.21h-2.3v-4.34h2.39c2.12 0 2.42 1.34 2.42 2.14 0 1.39-.92 2.2-2.51 2.2m11.89-7.31l-7.4 17.31h3.22l2.08-4.85h6.5l2.19 4.85h3.22l-7.67-17.28zm-.86 9.58l1.92-4.64 2.04 4.7zm15.12-9.48h-3.11v17.18H126v-2.84h-7.42zm17.65 6.54l-5.27-6.54h-2.76v17.18h3.1V170.5l4.56 5.74h.74l4.56-5.74v12.17h3.09v-17.18h-2.74zm27.64.62h-8.44v-7.16h-3.13v17.18h3.13v-7.14h8.44v7.17H167v-17.18h-3.12zm7 10H174v-17.13h-3.12zm10.53-17.18h-3.11v17.18h10.53v-2.82h-7.43zm12.77 0H191v17.18h10.54v-2.82h-7.42zm14.48 6.93c-1.45-.83-2.7-1.54-2.7-2.71 0-.91.91-1.57 2.23-1.57a5.17 5.17 0 0 1 3.59 1.62l.63.58v-3.69l-.16-.11a7 7 0 0 0-3.87-1.22c-3.26 0-5.36 1.88-5.36 4.77 0 2.62 2.18 4 4.1 5.1 1.62 1 3 1.82 3 3.18 0 .67-.63 1.7-2.3 1.7a5.16 5.16 0 0 1-4-2.25l-.67-.84v4.25l.16.12a7.66 7.66 0 0 0 4.82 1.59 4.75 4.75 0 0 0 5-4.83c0-3.17-2.44-4.55-4.4-5.64M90.35 191.27H87v8.57h3.39a4.32 4.32 0 0 0 4.55-4.29 4.23 4.23 0 0 0-4.57-4.28m-.13 7.13h-1.69v-5.68h1.62c2.31 0 3.13 1.46 3.13 2.83a2.81 2.81 0 0 1-3.08 2.85m10.71-2.15h3.35v-1.45h-3.35v-2.08h3.47v-1.45h-5.05v8.57h5.16v-1.44h-3.58zm11.95.46l-2.32-5.44h-1.62l3.71 8.65h.51l3.64-8.65h-1.6zm9.57-.46h3.35v-1.45h-3.35v-2.08h3.47v-1.45h-5.06v8.57H126v-1.44h-3.57zm10.08-5H131v8.57h5.26v-1.42h-3.69zm11.53-.12a4.4 4.4 0 1 0 0 8.8 4.41 4.41 0 1 0 0-8.8m0 7.33a2.93 2.93 0 1 1 3-2.93 2.87 2.87 0 0 1-3 2.93m11.59-7.21h-2.75v8.57h1.57v-3.53h1c2.18 0 2.95-1.29 2.95-2.5a2.47 2.47 0 0 0-2.8-2.54m0 3.58h-1.14v-2.13h1.18c1 0 1.19.65 1.19 1 0 .7-.45 1.09-1.23 1.09m11-.34l-2.62-3.18h-1.39v8.57h1.58v-6l2.25 2.84h.37l2.25-2.84v6h1.59v-8.57h-1.39zm10.31 1.74h3.35v-1.39h-3.35v-2.08h3.48v-1.45h-5.11v8.57h5.16v-1.44h-3.58zm14.66 1l-5.27-6h-1.22v8.57h1.51v-6l5.19 6h1.2v-8.57h-1.5zm5.35-4.55h2.84v7.12h1.57v-7.12h2.83v-1.45h-7.24zm13.94 2c-.72-.4-1.35-.76-1.35-1.33s.47-.78 1.1-.78a2.58 2.58 0 0 1 1.78.81l.34.31v-1.9l-.08-.06a3.58 3.58 0 0 0-2-.61 2.4 2.4 0 0 0-2.67 2.39c0 1.31 1.08 2 2.05 2.56.78.48 1.49.9 1.49 1.58 0 .31-.32.82-1.14.82a2.61 2.61 0 0 1-2-1.11l-.34-.46v2.17l.06.06a3.84 3.84 0 0 0 2.42.79 2.37 2.37 0 0 0 2.49-2.42c0-1.58-1.22-2.26-2.19-2.82"></path></svg> 