<?xml version="1.0" encoding="UTF-8"?> <svg xmlns="http://www.w3.org/2000/svg" data-name="Layer 1" viewBox="0 0 300 300"><path d="M144.75 131.37l-18.63 14.33a16.36 16.36 0 0 0-15.77-12.42H97v33h13.37c7.65 0 14.33-5.25 15.77-12.42l18.63 14.33 18.63-14.33v12.42h21v-6.69h-13.85v-26.31h-7.65v12.42L145.22 160l-3.82-3.34L150 150l9.08-7.17-5.26-4.29-17.67 13.85-3.82-3.39L150 135.67l-5.25-4.3zM104.14 140h5.74a8.25 8.25 0 0 1 3.43.76 9 9 0 0 1 2.89 2.11 10 10 0 0 1 2 3.17 11 11 0 0 1 .74 4 10.87 10.87 0 0 1-.68 3.78 10.35 10.35 0 0 1-1.89 3.21 9 9 0 0 1-2.87 2.21 8.31 8.31 0 0 1-3.63.83h-5.74V140zm104.14 19.59v6.68h-21v-33h7.65v26.27h13.37zM150 75c-41.08 0-75 33.92-75 75a75 75 0 1 0 75-75zm0 7.65A67.58 67.58 0 0 1 163.59 84a67.21 67.21 0 0 1 52.4 52.4 68.58 68.58 0 0 1 0 27.18 67.25 67.25 0 0 1-52.4 52.4 68.58 68.58 0 0 1-27.18 0A67.23 67.23 0 0 1 84 163.6a68.09 68.09 0 0 1 0-27.18 66 66 0 0 1 3.92-12.66 67.35 67.35 0 0 1 14.42-21.41 67.72 67.72 0 0 1 10-8.21A66.77 66.77 0 0 1 136.41 84 68.31 68.31 0 0 1 150 82.65z" fill="#007db8"></path></svg> 