<?xml version="1.0" encoding="UTF-8"?> <svg xmlns="http://www.w3.org/2000/svg" id="Layer_1" data-name="Layer 1" viewBox="0 0 300 300"><defs><style>.cls-1{fill:#646464}</style></defs><g id="layer1"><g id="g387"><g id="g383"><path id="path375" class="cls-1" d="M144.65 130.39h12.14c12.21 0 21.92 7.51 21.92 20.18 0 13.8-8.35 20.86-21.92 20.86h-12.14zm5.84 35.88h6.15c10.08 0 15.7-4.86 15.7-15.47 0-9.56-6.53-15.25-15-15.25h-6.9v30.72z"></path><path id="path377" class="cls-1" d="M192.36 134.72h-6.22v-6.22h6.22zm-5.92 6.75H192v30h-5.54z"></path><path id="path379" class="cls-1" d="M202.29 130.39h12.14c12.21 0 21.92 7.51 21.92 20.18 0 13.8-8.34 20.86-21.92 20.86h-12.14zm5.92 35.88h6.14c10.09 0 15.7-4.86 15.7-15.47 0-9.56-6.52-15.25-15-15.25h-6.91v30.72z"></path><path id="path381" class="cls-1" d="M250 134.72h-6.22v-6.22H250zm-5.84 6.75h5.54v30h-5.54z"></path></g><path id="path385" d="M90.05 168.09a25.15 25.15 0 0 0 24.57-24.73v-11.6h15v12.82c-.31 20.85-18.43 37.24-39.59 37.69-21.54-.15-39.82-16.68-40-37.69v-23a3.61 3.61 0 0 1 3.79-3.87h60.83v14H66.91a1.83 1.83 0 0 0-2 2v9.41a25.3 25.3 0 0 0 25.11 25z" fill="#fc9153" fill-rule="evenodd"></path></g></g></svg> 