<?xml version="1.0" encoding="UTF-8"?> <svg xmlns="http://www.w3.org/2000/svg" id="Layer_1" data-name="Layer 1" viewBox="0 0 640 480"><defs><style>.cls-2{fill:#fff}</style></defs><path fill="#0069e0" d="M0-.05h640v480H0z"></path><path class="cls-2" d="M288.85 339.76H253.2c0-1-.16-1.86-.16-2.75 0-5.82 0-11.65.08-17.48.1-9.4-3-17.72-8.46-25.24-4.87-6.69-9.56-13.49-15.37-19.45-5.39-5.54-7.13-12.61-8-20.08-1.9-16-1.44-32-.1-48 .21-2.52.52-5 .53-7.56 0-7.24 2.67-13.46 7.13-19 2.35-2.92 5-5.57 7.32-8.54 4.52-5.88 8.83-11.93 13.32-17.83q4.25-5.58 8.77-10.92c1.76-2.07 4.06-3.43 6.9-2.56 2.15.66 3.83 4.14 3.15 7.28a25.9 25.9 0 0 1-3.15 8.5c-4.83 7.54-9.68 15.13-15.22 22.15-7.57 9.59-11.45 20-10.62 32.31.59 8.63.31 17.32.47 26 .06 3.3.27 6.59.42 9.88.13 3 1.9 4.59 4.91 4.49 4.94-.16 8.22-3 8.35-7.94.14-5.43-.28-10.87-.4-16.3a121.06 121.06 0 0 1 2.67-30.37 6.25 6.25 0 0 1 4-4.66c3.68-1.51 5.52-.68 6.8 3.08 2.21 6.46 1.87 13.16 1.65 19.82a106.15 106.15 0 0 0 1.6 22.65 24.33 24.33 0 0 0 4.65 10.11c3.52 4.8 7.17 9.62 9.9 14.88 4.28 8.23 5.48 17.42 5.5 26.55 0 14.25-.61 28.5-.95 42.75-.09 2.69-.04 5.36-.04 8.23zM351.39 339.86c0-5.37.12-10.48 0-15.59-.23-8-.69-16.07-1-24.11a106.94 106.94 0 0 1 3-31.22 41.51 41.51 0 0 1 9.71-17.81c7.2-7.73 8.57-17 9-26.76.3-6.8-.19-13.65.16-20.45.19-3.6 1.39-7.16 2.2-10.72.36-1.6 1.56-2.1 3.13-2.09a6.8 6.8 0 0 1 7.08 5.58c3.15 13.59 3.06 27.35 2.11 41.16a30.46 30.46 0 0 0 .24 6.4 8 8 0 0 0 9 6.71c2.83-.31 4.14-1.72 4.2-4.74q.3-15.61.54-31.25c.06-4.21.05-8.41 0-12.62 0-7.2-2.93-13.34-6.95-19.1-6.27-9-12.6-17.92-18.63-27.06-1.59-2.4-2.19-5.47-3.19-8.25a3.89 3.89 0 0 1-.1-1.6c.19-2.47.88-4.9 3.29-5.91s4.72.23 6.39 2a71.4 71.4 0 0 1 7.38 8.77 204.1 204.1 0 0 0 20.66 26.65c4 4.34 7.27 9.37 8.35 15.36a72.39 72.39 0 0 1 1.05 10.5c.43 12.86 1.05 25.72.94 38.57a100.4 100.4 0 0 1-2.47 20.72 26.88 26.88 0 0 1-5.73 10.79c-5.25 6.29-10.36 12.65-15.22 19.26-6.06 8.25-9.53 17.19-9.32 27.5.11 5.44 0 10.88.19 16.32.06 2.15-.37 3.06-2.87 3-10.12-.16-20.24-.07-30.36-.07z"></path><path class="cls-2" d="M300 241.86h-16.24v-81.92h26.42q4.9 24.15 9.78 48.17l.46.07c.53-2.46 1.09-4.91 1.59-7.38 2.63-13 5.24-26 7.93-38.92.16-.76 1-2 1.56-2 8.27-.13 16.54-.09 25-.09v82h-16.05v-59.9l-.53-.06c-.7 3.33-1.42 6.65-2.1 10q-4.89 24.07-9.73 48.16c-.3 1.48-.86 2.05-2.4 2-3.68-.11-7.36-.1-11 0-1.52 0-2.08-.48-2.39-2q-5.62-28.16-11.39-56.27a5.28 5.28 0 0 0-.83-2.1z"></path></svg> 