<svg id="svg" version="1.1" xmlns="http://www.w3.org/2000/svg" xmlns:xlink="http://www.w3.org/1999/xlink" width="400" height="400.6666666666667" viewBox="0, 0, 400,400.6666666666667"><g id="svgg"><path id="path0" d="M100.100 121.398 C 99.222 122.396,99.450 125.600,100.400 125.600 C 100.840 125.600,101.200 125.780,101.200 126.000 C 101.200 126.220,100.840 126.400,100.400 126.400 C 99.697 126.400,99.600 126.667,99.600 128.600 C 99.600 130.533,99.697 130.800,100.400 130.800 C 100.840 130.800,101.200 130.980,101.200 131.200 C 101.200 131.420,100.840 131.600,100.400 131.600 C 99.707 131.600,99.600 131.867,99.600 133.600 C 99.600 134.700,99.780 135.600,100.000 135.600 C 100.220 135.600,100.400 135.870,100.400 136.200 C 100.400 136.530,100.220 136.800,100.000 136.800 C 99.780 136.800,99.600 137.700,99.600 138.800 C 99.600 140.533,99.707 140.800,100.400 140.800 C 100.840 140.800,101.200 140.980,101.200 141.200 C 101.200 141.420,100.840 141.600,100.400 141.600 C 99.124 141.600,99.213 145.870,100.500 146.388 L 101.400 146.749 100.500 146.775 C 99.549 146.801,99.052 150.800,100.000 150.800 C 100.220 150.800,100.400 151.160,100.400 151.600 C 100.400 152.040,100.220 152.400,100.000 152.400 C 99.780 152.400,99.600 153.300,99.600 154.400 C 99.600 155.689,99.771 156.400,100.080 156.400 C 100.453 156.400,100.453 156.507,100.080 156.880 C 99.201 157.759,99.462 161.600,100.400 161.600 C 100.840 161.600,101.200 161.780,101.200 162.000 C 101.200 162.220,100.840 162.400,100.400 162.400 C 99.445 162.400,99.174 166.534,100.100 166.967 C 100.500 167.153,100.500 167.247,100.100 167.433 C 99.281 167.815,99.449 171.456,100.300 171.786 C 100.967 172.044,100.967 172.082,100.300 172.573 C 99.223 173.366,99.304 176.800,100.400 176.800 C 100.840 176.800,101.200 176.980,101.200 177.200 C 101.200 177.420,100.840 177.600,100.400 177.600 C 99.132 177.600,99.218 181.694,100.500 182.312 L 101.400 182.746 100.500 182.773 C 99.549 182.802,99.052 186.800,100.000 186.800 C 100.220 186.800,100.400 187.160,100.400 187.600 C 100.400 188.040,100.220 188.400,100.000 188.400 C 99.100 188.400,99.552 192.007,100.500 192.388 L 101.400 192.749 100.500 192.775 C 99.196 192.811,99.097 197.600,100.400 197.600 C 100.840 197.600,101.200 197.780,101.200 198.000 C 101.200 198.220,100.840 198.400,100.400 198.400 C 99.719 198.400,99.600 198.667,99.600 200.200 C 99.600 201.190,99.780 202.000,100.000 202.000 C 100.220 202.000,100.400 202.360,100.400 202.800 C 100.400 203.240,100.220 203.600,100.000 203.600 C 99.273 203.600,99.531 207.260,100.300 207.843 C 100.967 208.349,100.967 208.375,100.300 208.387 C 99.171 208.408,99.271 212.800,100.400 212.800 C 100.840 212.800,101.200 212.980,101.200 213.200 C 101.200 213.420,100.840 213.600,100.400 213.600 C 99.138 213.600,99.225 217.310,100.500 217.880 L 101.400 218.282 100.500 218.568 C 99.549 218.870,99.085 222.800,100.000 222.800 C 100.220 222.800,100.400 223.070,100.400 223.400 C 100.400 223.730,100.220 224.000,100.000 224.000 C 99.780 224.000,99.600 224.900,99.600 226.000 C 99.600 227.733,99.707 228.000,100.400 228.000 C 100.840 228.000,101.200 228.180,101.200 228.400 C 101.200 228.620,100.840 228.800,100.400 228.800 C 99.689 228.800,99.600 229.067,99.600 231.200 C 99.600 233.333,99.689 233.600,100.400 233.600 C 100.840 233.600,101.200 233.760,101.200 233.956 C 101.200 234.151,100.885 234.286,100.500 234.256 C 99.939 234.211,99.776 234.577,99.678 236.100 C 99.605 237.243,99.724 238.000,99.978 238.000 C 100.210 238.000,100.400 238.360,100.400 238.800 C 100.400 239.240,100.220 239.600,100.000 239.600 C 99.780 239.600,99.600 240.500,99.600 241.600 C 99.600 243.333,99.707 243.600,100.400 243.600 C 100.840 243.600,101.200 243.760,101.200 243.956 C 101.200 244.151,100.885 244.286,100.500 244.256 C 99.920 244.210,99.779 244.596,99.680 246.500 C 99.571 248.591,99.635 248.800,100.380 248.800 C 100.831 248.800,101.200 248.980,101.200 249.200 C 101.200 249.420,100.840 249.600,100.400 249.600 C 99.707 249.600,99.600 249.867,99.600 251.600 C 99.600 252.700,99.780 253.600,100.000 253.600 C 100.220 253.600,100.400 253.870,100.400 254.200 C 100.400 254.530,100.220 254.800,100.000 254.800 C 99.407 254.800,99.501 258.687,100.100 258.967 C 100.500 259.153,100.500 259.247,100.100 259.433 C 99.174 259.866,99.445 264.000,100.400 264.000 C 100.840 264.000,101.200 264.180,101.200 264.400 C 101.200 264.620,100.840 264.800,100.400 264.800 C 99.707 264.800,99.600 265.067,99.600 266.800 C 99.600 267.900,99.780 268.800,100.000 268.800 C 100.220 268.800,100.400 269.070,100.400 269.400 C 100.400 269.730,100.220 270.000,100.000 270.000 C 99.780 270.000,99.600 270.900,99.600 272.000 C 99.600 273.100,99.780 274.000,100.000 274.000 C 100.220 274.000,100.400 274.360,100.400 274.800 C 100.400 275.240,100.220 275.600,100.000 275.600 C 99.780 275.600,99.600 276.478,99.600 277.550 C 99.600 279.715,100.522 280.276,103.200 279.740 C 104.409 279.498,105.162 275.600,104.000 275.600 C 103.780 275.600,103.600 275.240,103.600 274.800 C 103.600 274.360,103.780 274.000,104.000 274.000 C 104.220 274.000,104.400 273.100,104.400 272.000 C 104.400 270.900,104.220 270.000,104.000 270.000 C 103.780 270.000,103.600 269.730,103.600 269.400 C 103.600 269.070,103.780 268.800,104.000 268.800 C 104.220 268.800,104.400 267.900,104.400 266.800 C 104.400 265.067,104.293 264.800,103.600 264.800 C 103.160 264.800,102.800 264.620,102.800 264.400 C 102.800 264.180,103.160 264.000,103.600 264.000 C 104.303 264.000,104.400 263.733,104.400 261.800 C 104.400 259.867,104.303 259.600,103.600 259.600 C 103.160 259.600,102.800 259.420,102.800 259.200 C 102.800 258.980,103.160 258.800,103.600 258.800 C 104.293 258.800,104.400 258.533,104.400 256.800 C 104.400 255.700,104.220 254.800,104.000 254.800 C 103.780 254.800,103.600 254.530,103.600 254.200 C 103.600 253.870,103.780 253.600,104.000 253.600 C 104.220 253.600,104.400 252.700,104.400 251.600 C 104.400 249.867,104.293 249.600,103.600 249.600 C 103.160 249.600,102.800 249.420,102.800 249.200 C 102.800 248.980,103.169 248.800,103.620 248.800 C 104.365 248.800,104.429 248.591,104.320 246.500 C 104.221 244.596,104.080 244.210,103.500 244.256 C 103.115 244.286,102.800 244.151,102.800 243.956 C 102.800 243.760,103.160 243.600,103.600 243.600 C 104.293 243.600,104.400 243.333,104.400 241.600 C 104.400 240.500,104.220 239.600,104.000 239.600 C 103.780 239.600,103.600 239.240,103.600 238.800 C 103.600 238.360,103.790 238.000,104.022 238.000 C 104.276 238.000,104.395 237.243,104.322 236.100 C 104.224 234.577,104.061 234.211,103.500 234.256 C 103.115 234.286,102.800 234.151,102.800 233.956 C 102.800 233.760,103.160 233.600,103.600 233.600 C 104.311 233.600,104.400 233.333,104.400 231.200 C 104.400 229.067,104.311 228.800,103.600 228.800 C 103.160 228.800,102.800 228.620,102.800 228.400 C 102.800 228.180,103.160 228.000,103.600 228.000 C 104.555 228.000,104.749 225.380,103.900 223.942 C 103.500 223.265,103.500 223.059,103.900 222.914 C 104.859 222.567,104.532 218.981,103.500 218.520 L 102.600 218.118 103.500 217.832 C 104.782 217.425,104.872 213.600,103.600 213.600 C 103.160 213.600,102.800 213.420,102.800 213.200 C 102.800 212.980,103.160 212.800,103.600 212.800 C 104.878 212.800,104.788 208.621,103.500 208.196 L 102.600 207.898 103.500 207.721 C 104.451 207.534,104.929 203.600,104.000 203.600 C 103.780 203.600,103.600 203.240,103.600 202.800 C 103.600 202.360,103.780 202.000,104.000 202.000 C 104.220 202.000,104.400 201.190,104.400 200.200 C 104.400 198.667,104.281 198.400,103.600 198.400 C 103.160 198.400,102.800 198.220,102.800 198.000 C 102.800 197.780,103.160 197.600,103.600 197.600 C 104.903 197.600,104.804 192.811,103.500 192.775 L 102.600 192.749 103.500 192.388 C 104.448 192.007,104.900 188.400,104.000 188.400 C 103.780 188.400,103.600 188.040,103.600 187.600 C 103.600 187.160,103.780 186.800,104.000 186.800 C 104.948 186.800,104.451 182.802,103.500 182.773 L 102.600 182.746 103.500 182.312 C 104.782 181.694,104.868 177.600,103.600 177.600 C 103.160 177.600,102.800 177.420,102.800 177.200 C 102.800 176.980,103.160 176.800,103.600 176.800 C 104.696 176.800,104.777 173.366,103.700 172.573 C 103.033 172.082,103.033 172.044,103.700 171.786 C 104.801 171.359,104.712 167.600,103.600 167.600 C 103.160 167.600,102.800 167.432,102.800 167.227 C 102.800 167.022,103.160 166.740,103.600 166.600 C 104.258 166.391,104.400 165.995,104.400 164.373 C 104.400 162.667,104.292 162.400,103.600 162.400 C 103.160 162.400,102.800 162.220,102.800 162.000 C 102.800 161.780,103.160 161.600,103.600 161.600 C 104.803 161.600,104.756 158.203,103.539 157.147 L 102.678 156.400 103.539 156.400 C 104.306 156.400,104.400 156.181,104.400 154.400 C 104.400 153.300,104.220 152.400,104.000 152.400 C 103.780 152.400,103.600 152.040,103.600 151.600 C 103.600 151.160,103.780 150.800,104.000 150.800 C 104.948 150.800,104.451 146.801,103.500 146.775 L 102.600 146.749 103.500 146.388 C 104.787 145.870,104.876 141.600,103.600 141.600 C 103.160 141.600,102.800 141.420,102.800 141.200 C 102.800 140.980,103.160 140.800,103.600 140.800 C 104.293 140.800,104.400 140.533,104.400 138.800 C 104.400 137.700,104.220 136.800,104.000 136.800 C 103.780 136.800,103.600 136.530,103.600 136.200 C 103.600 135.870,103.780 135.600,104.000 135.600 C 104.220 135.600,104.400 134.700,104.400 133.600 C 104.400 131.867,104.293 131.600,103.600 131.600 C 103.160 131.600,102.800 131.420,102.800 131.200 C 102.800 130.980,103.160 130.800,103.600 130.800 C 104.303 130.800,104.400 130.533,104.400 128.600 C 104.400 126.667,104.303 126.400,103.600 126.400 C 103.160 126.400,102.800 126.220,102.800 126.000 C 102.800 125.780,103.160 125.600,103.600 125.600 C 104.594 125.600,104.771 122.314,103.829 121.371 C 103.098 120.641,100.752 120.658,100.100 121.398 M123.564 121.896 C 122.955 123.496,123.441 125.600,124.418 125.600 C 124.848 125.600,125.200 125.780,125.200 126.000 C 125.200 126.220,124.854 126.400,124.432 126.400 C 123.106 126.400,122.850 130.049,124.119 130.864 C 124.378 131.030,124.284 131.373,123.865 131.792 C 123.037 132.620,123.002 134.545,123.800 135.343 C 124.130 135.673,124.400 136.059,124.400 136.200 C 124.400 136.341,124.130 136.727,123.800 137.057 C 122.960 137.897,123.023 140.256,123.900 140.773 C 124.378 141.054,124.458 141.283,124.154 141.493 C 122.815 142.415,123.109 146.243,124.540 146.523 L 125.400 146.691 124.545 146.746 C 123.112 146.837,122.802 150.776,124.154 151.707 C 124.458 151.917,124.378 152.146,123.900 152.427 C 123.010 152.952,122.965 155.308,123.829 156.171 C 124.174 156.517,124.284 156.800,124.073 156.800 C 123.546 156.800,123.115 159.324,123.430 160.576 C 123.592 161.223,123.965 161.600,124.443 161.600 C 124.860 161.600,125.200 161.780,125.200 162.000 C 125.200 162.220,124.854 162.400,124.432 162.400 C 123.531 162.400,123.014 164.118,123.423 165.749 C 123.717 166.919,126.915 167.325,127.920 166.320 C 128.888 165.352,128.516 162.844,127.360 162.554 L 126.321 162.293 127.360 161.400 C 128.647 160.294,128.777 158.221,127.622 157.219 C 126.852 156.551,126.852 156.539,127.622 155.984 C 128.747 155.173,128.730 152.400,127.600 152.400 C 127.160 152.400,126.800 152.260,126.800 152.088 C 126.800 151.917,127.160 151.517,127.600 151.200 C 128.675 150.425,128.696 147.990,127.635 147.225 C 126.337 146.289,127.628 145.337,128.987 146.228 C 129.699 146.695,130.410 146.812,131.398 146.627 L 132.800 146.364 132.800 143.982 L 132.800 141.600 130.633 141.600 C 129.264 141.600,128.406 141.783,128.301 142.096 C 128.184 142.449,127.923 142.380,127.403 141.860 C 126.694 141.151,127.041 140.428,128.100 140.406 C 128.678 140.394,128.394 137.456,127.746 136.740 C 127.140 136.070,127.140 135.998,127.746 135.766 C 128.726 135.389,128.624 132.738,127.600 132.000 C 127.160 131.683,126.800 131.295,126.800 131.139 C 126.800 130.982,127.160 130.740,127.600 130.600 C 128.397 130.347,128.861 126.809,128.100 126.794 C 127.041 126.772,126.694 126.049,127.403 125.340 C 127.923 124.820,128.184 124.751,128.301 125.104 C 128.392 125.377,128.722 125.600,129.033 125.600 C 129.345 125.600,129.600 125.780,129.600 126.000 C 129.600 126.220,130.050 126.400,130.600 126.400 C 131.150 126.400,131.600 126.220,131.600 126.000 C 131.600 125.780,131.870 125.600,132.200 125.600 C 132.826 125.600,133.069 122.766,132.557 121.433 C 132.285 120.724,129.200 120.510,129.200 121.200 C 129.200 121.420,128.840 121.600,128.400 121.600 C 127.960 121.600,127.600 121.420,127.600 121.200 C 127.600 120.155,123.989 120.778,123.564 121.896 M133.443 121.433 C 132.965 122.677,133.213 124.692,133.947 125.539 C 134.705 126.413,136.400 126.732,136.400 126.000 C 136.400 125.780,136.655 125.600,136.967 125.600 C 137.278 125.600,137.614 125.375,137.713 125.100 C 137.835 124.761,138.150 124.890,138.693 125.500 C 140.834 127.906,143.831 124.751,142.557 121.433 C 142.282 120.715,138.400 120.498,138.400 121.200 C 138.400 121.420,138.040 121.600,137.600 121.600 C 137.160 121.600,136.800 121.420,136.800 121.200 C 136.800 120.510,133.715 120.724,133.443 121.433 M147.364 121.800 C 147.226 122.350,146.953 122.800,146.757 122.800 C 146.560 122.800,146.400 123.160,146.400 123.600 C 146.400 124.040,146.580 124.400,146.800 124.400 C 147.020 124.400,147.200 124.670,147.200 125.000 C 147.200 125.330,147.470 125.600,147.800 125.600 C 148.130 125.600,148.400 125.780,148.400 126.000 C 148.400 126.220,148.130 126.400,147.800 126.400 C 147.470 126.400,147.200 126.670,147.200 127.000 C 147.200 127.330,147.020 127.600,146.800 127.600 C 146.580 127.600,146.400 128.050,146.400 128.600 C 146.400 129.150,146.580 129.600,146.800 129.600 C 147.020 129.600,147.200 129.870,147.200 130.200 C 147.200 130.530,147.470 130.800,147.800 130.800 C 148.130 130.800,148.400 130.980,148.400 131.200 C 148.400 131.420,148.130 131.600,147.800 131.600 C 147.470 131.600,147.200 131.855,147.200 132.167 C 147.200 132.478,146.984 132.805,146.720 132.893 C 146.367 133.011,146.420 133.434,146.918 134.484 C 147.597 135.914,147.490 138.400,146.750 138.400 C 146.558 138.400,146.400 138.670,146.400 139.000 C 146.400 139.330,146.580 139.600,146.800 139.600 C 147.020 139.600,147.200 139.870,147.200 140.200 C 147.200 140.530,147.470 140.800,147.800 140.800 C 148.130 140.800,148.400 140.980,148.400 141.200 C 148.400 141.420,148.130 141.600,147.800 141.600 C 147.427 141.600,147.200 141.978,147.200 142.600 C 147.200 143.150,147.020 143.600,146.800 143.600 C 146.580 143.600,146.400 143.870,146.400 144.200 C 146.400 144.530,146.580 144.800,146.800 144.800 C 147.020 144.800,147.200 145.147,147.200 145.571 C 147.200 145.995,147.515 146.424,147.900 146.524 C 148.567 146.698,148.567 146.709,147.900 146.754 C 147.482 146.781,147.200 147.122,147.200 147.600 C 147.200 148.040,147.020 148.400,146.800 148.400 C 146.227 148.400,146.305 149.502,146.891 149.697 C 147.178 149.793,147.382 150.581,147.382 151.600 C 147.382 152.619,147.178 153.407,146.891 153.503 C 146.277 153.708,146.246 154.682,146.848 154.883 C 147.445 155.082,147.379 158.442,146.771 158.818 C 146.165 159.192,147.140 161.600,147.898 161.600 C 148.174 161.600,148.400 161.780,148.400 162.000 C 148.400 162.220,148.130 162.400,147.800 162.400 C 147.470 162.400,147.200 162.670,147.200 163.000 C 147.200 163.330,147.020 163.600,146.800 163.600 C 146.580 163.600,146.400 163.870,146.400 164.200 C 146.400 164.530,146.580 164.800,146.800 164.800 C 147.020 164.800,147.200 165.250,147.200 165.800 C 147.200 166.828,149.209 167.232,150.967 166.557 C 151.850 166.219,151.880 162.400,151.000 162.400 C 150.670 162.400,150.400 162.220,150.400 162.000 C 150.400 161.780,150.670 161.600,151.000 161.600 C 151.877 161.600,151.820 158.163,150.929 157.271 C 150.300 156.643,150.300 156.592,150.929 156.471 C 151.683 156.325,151.944 152.400,151.200 152.400 C 150.980 152.400,150.800 152.040,150.800 151.600 C 150.800 151.067,151.067 150.800,151.600 150.800 C 152.040 150.800,152.400 150.980,152.400 151.200 C 152.400 151.829,155.190 151.667,155.857 151.000 C 156.187 150.670,156.624 150.400,156.829 150.400 C 157.033 150.400,157.200 150.670,157.200 151.000 C 157.200 151.373,157.578 151.600,158.200 151.600 C 159.072 151.600,159.200 151.776,159.200 152.967 C 159.200 154.944,159.559 155.600,160.643 155.600 C 161.474 155.600,161.600 155.788,161.600 157.029 C 161.600 158.781,162.355 159.600,163.971 159.600 C 164.647 159.600,165.200 159.780,165.200 160.000 C 165.200 160.220,165.020 160.400,164.800 160.400 C 164.580 160.400,164.400 160.670,164.400 161.000 C 164.400 161.330,164.560 161.600,164.757 161.600 C 164.953 161.600,165.226 162.050,165.364 162.600 C 165.548 163.331,165.883 163.600,166.608 163.600 C 167.223 163.600,167.600 163.828,167.600 164.200 C 167.600 164.530,167.780 164.800,168.000 164.800 C 168.220 164.800,168.400 165.259,168.400 165.821 C 168.400 166.801,168.484 166.837,170.500 166.721 L 172.600 166.600 172.721 164.500 C 172.818 162.817,172.719 162.400,172.221 162.400 C 171.879 162.400,171.600 162.220,171.600 162.000 C 171.600 161.780,171.150 161.600,170.600 161.600 C 169.726 161.600,169.600 161.425,169.600 160.218 C 169.600 158.963,169.475 158.813,168.240 158.581 C 167.000 158.349,166.857 158.174,166.622 156.609 C 166.401 155.131,166.208 154.862,165.234 154.667 C 164.276 154.475,164.133 154.285,164.298 153.420 C 164.413 152.819,164.310 152.400,164.047 152.400 C 163.801 152.400,163.600 152.060,163.600 151.643 C 163.600 151.170,163.226 150.793,162.600 150.636 C 161.625 150.391,161.105 148.800,162.000 148.800 C 162.220 148.800,162.400 148.980,162.400 149.200 C 162.400 149.420,162.940 149.600,163.600 149.600 C 164.260 149.600,164.800 149.432,164.800 149.227 C 164.800 149.022,165.160 148.740,165.600 148.600 C 166.195 148.411,166.400 147.995,166.400 146.973 C 166.400 145.776,166.528 145.600,167.397 145.600 C 168.610 145.600,170.400 144.127,170.400 143.128 C 170.400 142.728,170.220 142.400,170.000 142.400 C 169.254 142.400,169.596 141.166,170.600 140.235 C 171.586 139.321,171.978 137.600,171.200 137.600 C 170.980 137.600,170.800 137.330,170.800 137.000 C 170.800 136.670,170.530 136.400,170.200 136.400 C 169.870 136.400,169.600 136.220,169.600 136.000 C 169.600 135.780,169.825 135.599,170.100 135.597 C 170.616 135.594,171.600 133.839,171.600 132.920 C 171.600 132.634,171.420 132.400,171.200 132.400 C 170.980 132.400,170.800 132.040,170.800 131.600 C 170.800 131.156,170.533 130.800,170.200 130.800 C 169.870 130.800,169.600 130.530,169.600 130.200 C 169.600 129.870,169.780 129.600,170.000 129.600 C 170.220 129.600,170.400 129.150,170.400 128.600 C 170.400 128.050,170.220 127.600,170.000 127.600 C 169.780 127.600,169.600 127.407,169.600 127.171 C 169.600 126.408,168.483 125.600,167.429 125.600 C 166.521 125.600,166.400 125.436,166.400 124.208 C 166.400 122.636,165.433 122.138,163.078 122.498 C 161.406 122.753,160.800 122.505,160.800 121.567 C 160.800 120.925,160.507 120.800,159.000 120.800 C 157.467 120.800,157.200 120.919,157.200 121.600 C 157.200 122.040,157.060 122.400,156.888 122.400 C 156.717 122.400,156.317 122.040,156.000 121.600 C 155.389 120.753,152.400 120.421,152.400 121.200 C 152.400 121.420,152.040 121.600,151.600 121.600 C 151.160 121.600,150.800 121.420,150.800 121.200 C 150.800 120.216,147.622 120.771,147.364 121.800 M177.443 121.433 C 176.978 122.645,177.205 124.747,177.872 125.415 C 178.502 126.045,178.502 126.111,177.872 126.464 C 176.934 126.988,176.934 130.212,177.872 130.736 C 178.502 131.089,178.502 131.155,177.872 131.785 C 177.113 132.544,176.959 135.199,177.635 135.875 C 177.948 136.188,177.948 136.385,177.635 136.578 C 176.929 137.015,177.077 140.800,177.800 140.800 C 178.130 140.800,178.400 140.903,178.400 141.029 C 178.400 141.154,178.130 141.527,177.800 141.857 C 177.053 142.604,177.014 145.357,177.740 146.083 C 178.193 146.536,178.193 146.704,177.740 147.127 C 177.013 147.806,177.053 150.596,177.800 151.343 C 178.130 151.673,178.400 152.046,178.400 152.171 C 178.400 152.297,178.130 152.400,177.800 152.400 C 176.960 152.400,176.950 155.929,177.790 156.251 C 178.309 156.451,178.309 156.548,177.790 157.067 C 176.899 157.958,177.036 160.616,178.020 161.533 L 178.840 162.296 177.997 162.517 C 177.263 162.709,177.170 162.987,177.277 164.669 L 177.400 166.600 179.500 166.721 C 181.183 166.818,181.600 166.719,181.600 166.221 C 181.600 165.879,181.780 165.600,182.000 165.600 C 182.220 165.600,182.400 165.870,182.400 166.200 C 182.400 167.110,185.940 167.027,186.643 166.100 C 187.119 165.473,187.176 165.468,187.187 166.057 C 187.198 166.627,187.808 166.715,191.776 166.723 L 196.351 166.732 196.605 165.575 C 197.245 162.665,194.755 160.388,192.929 162.214 C 192.313 162.830,190.740 162.660,190.467 161.947 C 190.280 161.462,188.400 161.510,188.400 162.000 C 188.400 162.220,188.130 162.400,187.800 162.400 C 187.470 162.400,187.195 162.715,187.188 163.100 C 187.176 163.767,187.156 163.767,186.768 163.100 C 186.544 162.715,186.009 162.400,185.580 162.400 C 185.151 162.400,184.800 162.220,184.800 162.000 C 184.800 161.780,184.530 161.600,184.200 161.600 C 183.870 161.600,183.600 161.759,183.600 161.953 C 183.600 162.437,182.175 162.771,181.200 162.516 C 180.268 162.272,180.121 161.600,181.000 161.600 C 181.330 161.600,181.600 161.330,181.600 161.000 C 181.600 160.670,181.780 160.400,182.000 160.400 C 182.220 160.400,182.400 159.950,182.400 159.400 C 182.400 158.850,182.220 158.400,182.000 158.400 C 181.780 158.400,181.600 158.040,181.600 157.600 C 181.600 157.160,181.392 156.800,181.139 156.800 C 180.885 156.800,181.065 156.464,181.539 156.053 C 182.670 155.072,182.651 153.422,181.500 152.611 C 180.965 152.235,180.762 151.860,181.000 151.689 C 182.073 150.914,182.838 148.400,182.000 148.400 C 181.780 148.400,181.600 148.053,181.600 147.629 C 181.600 147.205,181.285 146.776,180.900 146.676 C 180.233 146.502,180.233 146.491,180.900 146.446 C 181.318 146.419,181.600 146.078,181.600 145.600 C 181.600 145.160,181.780 144.800,182.000 144.800 C 182.220 144.800,182.400 145.139,182.400 145.553 C 182.400 147.072,185.988 146.993,186.730 145.459 L 187.146 144.600 187.173 145.457 C 187.216 146.806,189.969 147.090,191.489 145.903 C 191.816 145.647,192.189 145.732,192.617 146.160 C 194.562 148.105,197.330 145.652,196.577 142.651 C 196.283 141.479,192.734 141.028,192.233 142.100 C 192.047 142.500,191.953 142.500,191.767 142.100 C 191.371 141.253,187.203 141.435,187.187 142.300 C 187.175 142.967,187.149 142.967,186.643 142.300 C 185.940 141.373,182.400 141.290,182.400 142.200 C 182.400 142.530,182.220 142.800,182.000 142.800 C 181.780 142.800,181.600 142.545,181.600 142.233 C 181.600 141.922,181.375 141.580,181.100 141.475 C 180.765 141.346,180.897 141.064,181.500 140.619 C 182.639 139.778,182.692 137.987,181.600 137.200 C 181.160 136.883,180.800 136.433,180.800 136.200 C 180.800 135.967,181.160 135.517,181.600 135.200 C 182.662 134.435,182.615 132.885,181.500 131.893 C 180.890 131.350,180.761 131.035,181.100 130.913 C 181.375 130.814,181.600 130.478,181.600 130.167 C 181.600 129.855,181.780 129.600,182.000 129.600 C 182.220 129.600,182.400 129.150,182.400 128.600 C 182.400 128.050,182.220 127.600,182.000 127.600 C 181.780 127.600,181.600 127.330,181.600 127.000 C 181.600 126.670,181.330 126.400,181.000 126.400 C 180.670 126.400,180.400 126.220,180.400 126.000 C 180.400 125.780,180.655 125.600,180.967 125.600 C 181.278 125.600,181.614 125.375,181.713 125.100 C 181.835 124.761,182.150 124.890,182.693 125.500 C 183.749 126.687,184.854 126.637,186.145 125.345 C 186.959 124.532,187.200 124.441,187.200 124.945 C 187.200 125.305,187.470 125.600,187.800 125.600 C 188.130 125.600,188.400 125.780,188.400 126.000 C 188.400 126.220,188.850 126.400,189.400 126.400 C 189.950 126.400,190.400 126.220,190.400 126.000 C 190.400 125.780,190.655 125.600,190.967 125.600 C 191.278 125.600,191.614 125.375,191.713 125.100 C 191.835 124.761,192.150 124.890,192.693 125.500 C 194.151 127.139,196.272 126.305,196.653 123.943 C 196.954 122.080,195.814 120.800,193.853 120.800 C 193.054 120.800,192.400 120.980,192.400 121.200 C 192.400 121.420,192.040 121.600,191.600 121.600 C 191.160 121.600,190.800 121.420,190.800 121.200 C 190.800 120.162,187.672 120.785,187.301 121.897 L 186.935 122.994 186.660 121.897 C 186.294 120.440,182.400 120.169,182.400 121.600 C 182.400 122.040,182.220 122.400,182.000 122.400 C 181.780 122.400,181.600 122.040,181.600 121.600 C 181.600 120.542,177.843 120.391,177.443 121.433 M208.100 121.398 C 207.825 121.711,207.600 122.132,207.600 122.334 C 207.600 122.536,206.781 122.609,205.780 122.497 C 203.765 122.269,202.400 123.193,202.400 124.783 C 202.400 125.339,202.139 125.600,201.583 125.600 C 199.968 125.600,199.059 126.968,199.336 128.983 C 199.495 130.146,199.433 130.800,199.164 130.800 C 198.359 130.800,197.600 131.950,197.600 133.171 C 197.600 133.847,197.780 134.400,198.000 134.400 C 198.220 134.400,198.400 134.670,198.400 135.000 C 198.400 135.330,198.644 135.600,198.941 135.600 C 199.347 135.600,199.436 136.083,199.297 137.528 C 199.086 139.722,199.788 140.800,201.429 140.800 C 202.198 140.800,202.400 141.008,202.400 141.800 C 202.400 142.350,202.568 142.800,202.773 142.800 C 202.978 142.800,203.260 143.160,203.400 143.600 C 203.671 144.455,206.800 144.823,206.800 144.000 C 206.800 143.780,206.980 143.600,207.200 143.600 C 207.420 143.600,207.600 144.129,207.600 144.776 C 207.600 146.259,208.093 146.557,210.483 146.521 C 211.863 146.501,212.400 146.648,212.400 147.046 C 212.400 147.351,212.580 147.600,212.800 147.600 C 213.020 147.600,213.200 147.870,213.200 148.200 C 213.200 148.600,213.600 148.800,214.400 148.800 C 215.413 148.800,215.600 148.956,215.600 149.800 C 215.600 150.350,215.759 150.800,215.953 150.800 C 216.148 150.800,216.401 151.160,216.516 151.600 C 216.644 152.089,217.062 152.400,217.591 152.400 C 218.400 152.400,218.413 152.444,217.788 153.069 C 217.293 153.564,217.182 154.130,217.361 155.249 C 217.564 156.513,217.439 156.924,216.602 157.762 C 216.051 158.313,215.600 159.118,215.600 159.550 C 215.600 160.086,215.243 160.415,214.478 160.583 C 213.860 160.719,213.101 161.183,212.789 161.615 C 212.202 162.430,210.800 162.701,210.800 162.000 C 210.800 161.780,210.440 161.600,210.000 161.600 C 209.560 161.600,209.200 161.780,209.200 162.000 C 209.200 162.780,207.779 162.385,207.039 161.400 C 206.609 160.828,205.884 160.400,205.344 160.400 C 204.532 160.400,204.400 160.205,204.400 159.000 C 204.400 157.867,204.248 157.600,203.600 157.600 C 203.160 157.600,202.787 157.375,202.771 157.100 C 202.755 156.825,202.710 155.700,202.671 154.600 L 202.600 152.600 200.500 152.479 C 198.817 152.382,198.400 152.481,198.400 152.979 C 198.400 153.321,198.220 153.600,198.000 153.600 C 197.198 153.600,197.597 155.853,198.546 156.678 C 199.373 157.397,199.467 157.760,199.295 159.550 C 199.131 161.258,199.207 161.600,199.749 161.600 C 200.107 161.600,200.400 161.780,200.400 162.000 C 200.400 162.220,200.850 162.400,201.400 162.400 C 202.200 162.400,202.400 162.600,202.400 163.400 C 202.400 163.950,202.580 164.400,202.800 164.400 C 203.020 164.400,203.200 164.670,203.200 165.000 C 203.200 165.444,203.667 165.600,205.000 165.600 C 205.990 165.600,206.800 165.420,206.800 165.200 C 206.800 164.980,206.980 164.800,207.200 164.800 C 207.420 164.800,207.600 165.141,207.600 165.557 C 207.600 167.276,212.152 167.406,212.606 165.700 C 212.767 165.095,212.981 164.825,213.083 165.100 C 213.682 166.728,217.600 165.278,217.600 163.429 C 217.600 162.656,217.805 162.400,218.426 162.400 C 220.292 162.400,220.800 161.718,220.800 159.213 C 220.800 157.205,220.919 156.816,221.600 156.600 C 222.894 156.189,222.756 152.905,221.431 152.572 C 220.585 152.360,220.490 152.158,220.680 150.986 C 221.070 148.582,220.580 147.600,218.992 147.600 C 217.712 147.600,217.600 147.504,217.600 146.400 C 217.600 144.139,214.609 142.614,213.405 144.261 C 212.991 144.827,212.884 144.683,212.656 143.261 L 212.391 141.600 210.395 141.600 C 209.298 141.600,208.400 141.780,208.400 142.000 C 208.400 142.220,208.220 142.400,208.000 142.400 C 207.780 142.400,207.600 141.847,207.600 141.171 C 207.600 139.673,206.801 138.800,205.429 138.800 C 204.590 138.800,204.400 138.610,204.400 137.771 C 204.400 136.777,203.602 135.600,202.929 135.600 C 202.086 135.600,202.656 130.671,203.536 130.345 C 204.161 130.114,204.400 129.690,204.400 128.813 C 204.400 127.857,204.574 127.600,205.219 127.600 C 205.670 127.600,206.455 127.150,206.965 126.600 C 207.893 125.599,209.200 125.248,209.200 126.000 C 209.200 126.220,209.560 126.400,210.000 126.400 C 210.440 126.400,210.800 126.220,210.800 126.000 C 210.800 125.248,212.107 125.599,213.035 126.600 C 213.545 127.150,214.330 127.600,214.781 127.600 C 215.365 127.600,215.600 127.860,215.600 128.505 C 215.600 129.011,216.055 129.752,216.630 130.183 C 217.488 130.828,217.619 131.173,217.416 132.254 C 216.854 135.249,219.773 137.084,221.829 135.029 C 222.924 133.933,222.257 130.798,220.929 130.801 C 220.748 130.801,220.662 129.811,220.737 128.601 C 220.849 126.797,220.759 126.400,220.237 126.400 C 219.887 126.400,219.600 126.220,219.600 126.000 C 219.600 125.780,219.150 125.600,218.600 125.600 C 217.800 125.600,217.600 125.400,217.600 124.600 C 217.600 124.050,217.420 123.600,217.200 123.600 C 216.980 123.600,216.800 123.317,216.800 122.970 C 216.800 122.468,216.399 122.362,214.813 122.446 C 213.187 122.532,212.687 122.392,212.066 121.676 C 211.185 120.660,208.891 120.500,208.100 121.398 M227.564 121.896 C 226.955 123.496,227.441 125.600,228.418 125.600 C 228.848 125.600,229.200 125.780,229.200 126.000 C 229.200 126.220,228.854 126.400,228.432 126.400 C 227.081 126.400,226.857 130.027,228.154 130.900 C 228.473 131.115,228.454 131.294,228.086 131.532 C 227.236 132.082,227.020 134.563,227.759 135.302 C 228.112 135.654,228.400 136.059,228.400 136.200 C 228.400 136.341,228.112 136.746,227.759 137.098 C 227.020 137.837,227.236 140.318,228.086 140.868 C 228.454 141.106,228.473 141.285,228.154 141.500 C 226.814 142.401,227.109 146.243,228.540 146.523 L 229.400 146.691 228.545 146.746 C 227.112 146.837,226.802 150.776,228.154 151.707 C 228.458 151.917,228.378 152.146,227.900 152.427 C 227.010 152.952,226.965 155.308,227.829 156.171 C 228.174 156.517,228.284 156.800,228.073 156.800 C 227.546 156.800,227.115 159.324,227.430 160.576 C 227.592 161.223,227.965 161.600,228.443 161.600 C 228.860 161.600,229.200 161.780,229.200 162.000 C 229.200 162.220,228.854 162.400,228.432 162.400 C 227.531 162.400,227.014 164.118,227.423 165.749 C 227.717 166.919,230.915 167.325,231.920 166.320 C 232.888 165.352,232.516 162.844,231.360 162.554 L 230.321 162.293 231.360 161.400 C 232.662 160.281,232.777 158.221,231.594 157.195 L 230.789 156.496 231.594 156.286 C 232.790 155.973,232.795 152.400,231.600 152.400 C 231.160 152.400,230.800 152.260,230.800 152.088 C 230.800 151.917,231.160 151.517,231.600 151.200 C 232.675 150.425,232.696 147.990,231.635 147.225 C 230.337 146.289,231.628 145.337,232.987 146.228 C 234.423 147.169,236.789 146.709,236.827 145.482 L 236.854 144.600 237.270 145.459 C 237.934 146.831,240.830 147.073,241.700 145.829 C 241.910 145.529,242.091 145.540,242.304 145.868 C 243.160 147.187,246.015 146.943,246.716 145.491 L 247.146 144.600 247.173 145.471 C 247.188 145.950,247.515 146.424,247.900 146.524 C 248.567 146.698,248.567 146.709,247.900 146.754 C 247.482 146.781,247.200 147.122,247.200 147.600 C 247.200 148.040,247.020 148.400,246.800 148.400 C 246.227 148.400,246.305 149.502,246.891 149.697 C 247.178 149.793,247.382 150.581,247.382 151.600 C 247.382 152.619,247.178 153.407,246.891 153.503 C 246.277 153.708,246.246 154.682,246.848 154.883 C 247.445 155.082,247.379 158.442,246.771 158.818 C 246.165 159.192,247.140 161.600,247.898 161.600 C 248.174 161.600,248.400 161.780,248.400 162.000 C 248.400 162.220,248.130 162.400,247.800 162.400 C 247.470 162.400,247.200 162.670,247.200 163.000 C 247.200 163.330,247.020 163.600,246.800 163.600 C 246.580 163.600,246.400 163.870,246.400 164.200 C 246.400 164.530,246.580 164.800,246.800 164.800 C 247.020 164.800,247.200 165.250,247.200 165.800 C 247.200 166.828,249.209 167.232,250.967 166.557 C 251.850 166.219,251.880 162.400,251.000 162.400 C 250.670 162.400,250.400 162.220,250.400 162.000 C 250.400 161.780,250.670 161.600,251.000 161.600 C 251.877 161.600,251.820 158.163,250.929 157.271 C 250.300 156.643,250.300 156.592,250.929 156.471 C 251.683 156.325,251.944 152.400,251.200 152.400 C 250.980 152.400,250.800 152.040,250.800 151.600 C 250.800 151.160,250.980 150.800,251.200 150.800 C 251.420 150.800,251.600 149.900,251.600 148.800 C 251.600 147.167,251.472 146.798,250.900 146.788 C 250.277 146.777,250.270 146.735,250.838 146.403 C 251.740 145.875,251.894 141.600,251.010 141.600 C 250.675 141.600,250.400 141.420,250.400 141.200 C 250.400 140.980,250.670 140.800,251.000 140.800 C 251.453 140.800,251.600 140.311,251.600 138.800 C 251.600 137.700,251.420 136.800,251.200 136.800 C 250.980 136.800,250.800 136.530,250.800 136.200 C 250.800 135.870,250.980 135.600,251.200 135.600 C 251.420 135.600,251.600 134.700,251.600 133.600 C 251.600 132.089,251.453 131.600,251.000 131.600 C 250.670 131.600,250.400 131.420,250.400 131.200 C 250.400 130.980,250.670 130.800,251.000 130.800 C 251.461 130.800,251.600 130.289,251.600 128.600 C 251.600 126.911,251.461 126.400,251.000 126.400 C 250.670 126.400,250.400 126.220,250.400 126.000 C 250.400 125.780,250.670 125.600,251.000 125.600 C 251.807 125.600,251.830 122.173,251.029 121.371 C 250.015 120.358,247.657 120.634,247.364 121.800 C 247.226 122.350,246.953 122.800,246.757 122.800 C 246.560 122.800,246.400 123.160,246.400 123.600 C 246.400 124.040,246.580 124.400,246.800 124.400 C 247.020 124.400,247.200 124.670,247.200 125.000 C 247.200 125.330,247.470 125.600,247.800 125.600 C 248.130 125.600,248.400 125.780,248.400 126.000 C 248.400 126.220,248.130 126.400,247.800 126.400 C 247.470 126.400,247.200 126.670,247.200 127.000 C 247.200 127.330,247.020 127.600,246.800 127.600 C 246.580 127.600,246.400 128.050,246.400 128.600 C 246.400 129.150,246.580 129.600,246.800 129.600 C 247.020 129.600,247.200 129.870,247.200 130.200 C 247.200 130.530,247.470 130.800,247.800 130.800 C 248.130 130.800,248.400 130.980,248.400 131.200 C 248.400 131.420,248.130 131.600,247.800 131.600 C 247.470 131.600,247.200 131.870,247.200 132.200 C 247.200 132.530,247.020 132.800,246.800 132.800 C 246.223 132.800,246.307 134.302,246.895 134.498 C 247.519 134.706,247.478 138.107,246.849 138.317 C 246.293 138.502,246.251 139.600,246.800 139.600 C 247.020 139.600,247.200 139.870,247.200 140.200 C 247.200 140.530,247.470 140.800,247.800 140.800 C 248.130 140.800,248.400 140.980,248.400 141.200 C 248.400 141.420,248.130 141.600,247.800 141.600 C 247.470 141.600,247.194 141.915,247.187 142.300 C 247.175 142.967,247.149 142.967,246.643 142.300 C 246.006 141.461,242.604 141.307,242.233 142.100 C 242.047 142.500,241.953 142.500,241.767 142.100 C 241.258 141.010,237.709 141.483,237.265 142.700 L 236.863 143.800 236.832 142.700 C 236.797 141.483,232.688 140.936,232.301 142.096 C 232.181 142.457,231.954 142.411,231.468 141.925 C 230.596 141.053,230.625 140.800,231.600 140.800 C 232.293 140.800,232.400 140.533,232.400 138.800 C 232.400 137.700,232.220 136.800,232.000 136.800 C 231.780 136.800,231.600 136.530,231.600 136.200 C 231.600 135.870,231.780 135.600,232.000 135.600 C 232.220 135.600,232.400 134.700,232.400 133.600 C 232.400 131.867,232.293 131.600,231.600 131.600 C 231.160 131.600,230.800 131.432,230.800 131.227 C 230.800 131.022,231.160 130.740,231.600 130.600 C 232.239 130.397,232.400 129.995,232.400 128.600 C 232.400 127.205,232.239 126.803,231.600 126.600 C 231.160 126.460,230.800 126.218,230.800 126.061 C 230.800 125.905,231.160 125.517,231.600 125.200 C 232.553 124.513,232.689 122.232,231.829 121.371 C 230.759 120.302,228.043 120.636,227.564 121.896 M157.507 125.600 C 158.161 126.647,159.797 126.625,160.544 125.558 L 161.133 124.717 161.267 125.658 C 161.354 126.278,161.708 126.644,162.300 126.728 C 162.795 126.798,163.200 127.023,163.200 127.228 C 163.200 127.787,164.703 127.676,164.935 127.100 C 165.046 126.825,165.151 127.461,165.168 128.513 C 165.190 129.822,165.389 130.498,165.800 130.655 C 166.209 130.812,166.400 131.453,166.400 132.671 C 166.400 133.725,166.646 134.703,167.000 135.057 C 167.330 135.387,167.600 135.824,167.600 136.029 C 167.600 136.233,167.330 136.400,167.000 136.400 C 166.546 136.400,166.400 136.892,166.400 138.429 C 166.400 139.698,166.176 140.682,165.800 141.057 C 165.470 141.387,165.200 142.274,165.200 143.029 C 165.200 144.324,165.124 144.400,163.829 144.400 C 162.191 144.400,161.200 145.269,161.200 146.705 C 161.200 147.679,161.162 147.701,160.664 147.020 C 160.061 146.195,157.428 146.408,157.060 147.313 C 156.915 147.668,156.772 147.678,156.530 147.350 C 156.035 146.676,153.869 146.318,152.769 146.730 C 152.236 146.929,151.453 146.968,151.029 146.816 C 150.341 146.569,150.330 146.512,150.929 146.283 C 151.853 145.928,151.918 141.600,151.000 141.600 C 150.670 141.600,150.400 141.420,150.400 141.200 C 150.400 140.980,150.670 140.800,151.000 140.800 C 151.453 140.800,151.600 140.311,151.600 138.800 C 151.600 137.700,151.420 136.800,151.200 136.800 C 150.980 136.800,150.800 136.530,150.800 136.200 C 150.800 135.870,150.980 135.600,151.200 135.600 C 151.420 135.600,151.600 134.700,151.600 133.600 C 151.600 132.089,151.453 131.600,151.000 131.600 C 150.670 131.600,150.400 131.336,150.400 131.013 C 150.400 130.655,150.635 130.515,151.000 130.655 C 151.489 130.843,151.600 130.472,151.600 128.643 C 151.600 126.916,151.462 126.400,151.000 126.400 C 150.670 126.400,150.400 126.220,150.400 126.000 C 150.400 125.780,151.030 125.600,151.800 125.600 C 152.570 125.600,153.200 125.780,153.200 126.000 C 153.200 126.220,153.560 126.400,154.000 126.400 C 154.440 126.400,154.800 126.220,154.800 126.000 C 154.800 125.780,155.160 125.600,155.600 125.600 C 156.040 125.600,156.400 125.420,156.400 125.200 C 156.400 124.540,156.975 124.747,157.507 125.600 M133.443 142.233 C 133.089 143.155,133.157 145.313,133.561 145.950 C 134.048 146.719,137.131 146.752,137.618 145.994 C 137.922 145.521,138.068 145.505,138.332 145.914 C 140.117 148.675,143.798 145.467,142.557 142.233 C 142.254 141.442,138.593 141.330,138.233 142.100 C 138.047 142.500,137.953 142.500,137.767 142.100 C 137.407 141.330,133.746 141.442,133.443 142.233 M125.200 177.200 C 125.200 177.420,124.848 177.600,124.418 177.600 C 123.344 177.600,122.908 179.932,123.689 181.499 C 124.162 182.446,124.169 182.726,123.730 183.137 C 122.993 183.825,123.044 186.365,123.800 186.655 C 124.130 186.782,124.400 187.207,124.400 187.600 C 124.400 187.993,124.130 188.418,123.800 188.545 C 122.995 188.853,123.015 191.358,123.829 192.171 C 124.174 192.517,124.284 192.800,124.073 192.800 C 123.546 192.800,123.115 195.324,123.430 196.576 C 123.592 197.223,123.965 197.600,124.443 197.600 C 124.860 197.600,125.200 197.780,125.200 198.000 C 125.200 198.220,124.854 198.400,124.432 198.400 C 123.106 198.400,122.850 202.049,124.119 202.864 C 124.378 203.030,124.284 203.373,123.865 203.792 C 123.499 204.158,123.200 204.971,123.200 205.600 C 123.200 206.229,123.499 207.042,123.865 207.408 C 124.284 207.827,124.378 208.170,124.119 208.336 C 122.850 209.151,123.106 212.800,124.432 212.800 C 124.854 212.800,125.200 212.980,125.200 213.200 C 125.200 213.420,124.854 213.600,124.432 213.600 C 123.911 213.600,123.582 213.970,123.411 214.749 C 123.097 216.181,123.525 218.000,124.177 218.000 C 124.446 218.000,124.667 218.262,124.667 218.582 C 124.667 218.903,124.497 219.060,124.289 218.931 C 123.142 218.223,122.850 221.474,123.947 222.739 C 124.699 223.606,126.800 223.945,126.800 223.200 C 126.800 222.980,127.160 222.800,127.600 222.800 C 128.293 222.800,128.400 222.533,128.400 220.800 C 128.400 219.067,128.293 218.800,127.600 218.800 C 126.555 218.800,126.569 218.127,127.621 217.793 C 128.834 217.408,128.590 214.371,127.300 213.805 C 126.364 213.394,126.085 212.800,126.829 212.800 C 128.400 212.800,129.085 209.071,127.600 208.600 C 127.160 208.460,126.800 208.218,126.800 208.061 C 126.800 207.905,127.160 207.517,127.600 207.200 C 128.157 206.798,128.400 206.165,128.400 205.112 C 128.400 203.867,128.259 203.600,127.600 203.600 C 126.653 203.600,126.596 203.347,127.371 202.571 C 128.027 201.916,129.200 201.806,129.200 202.400 C 129.200 203.090,132.285 202.876,132.557 202.167 C 133.059 200.860,132.826 198.400,132.200 198.400 C 131.870 198.400,131.600 198.220,131.600 198.000 C 131.600 197.510,129.720 197.462,129.533 197.947 C 129.315 198.515,127.845 198.810,127.213 198.413 C 126.719 198.104,126.767 197.923,127.513 197.276 C 128.664 196.277,128.725 194.011,127.622 193.216 C 126.852 192.661,126.852 192.649,127.622 191.981 C 128.444 191.268,128.747 188.400,128.000 188.400 C 127.780 188.400,127.600 188.040,127.600 187.600 C 127.600 187.160,127.780 186.800,128.000 186.800 C 128.756 186.800,128.451 183.813,127.635 183.225 C 126.968 182.745,126.944 182.599,127.446 182.097 C 127.889 181.654,128.151 181.628,128.582 181.985 C 128.889 182.240,129.919 182.393,130.870 182.324 L 132.600 182.200 132.720 179.900 C 132.836 177.670,132.809 177.600,131.820 177.600 C 131.259 177.600,130.800 177.420,130.800 177.200 C 130.800 176.980,130.530 176.800,130.200 176.800 C 129.870 176.800,129.600 176.980,129.600 177.200 C 129.600 177.420,129.345 177.600,129.033 177.600 C 128.722 177.600,128.362 177.825,128.233 178.100 C 128.047 178.500,127.953 178.500,127.767 178.100 C 127.638 177.825,127.278 177.600,126.967 177.600 C 126.655 177.600,126.400 177.420,126.400 177.200 C 126.400 176.980,126.130 176.800,125.800 176.800 C 125.470 176.800,125.200 176.980,125.200 177.200 M135.200 177.200 C 135.200 177.420,134.859 177.600,134.443 177.600 C 133.586 177.600,133.200 178.344,133.200 180.000 C 133.200 182.010,133.551 182.400,135.363 182.400 C 136.285 182.400,137.278 182.175,137.570 181.900 C 137.994 181.500,138.137 181.500,138.283 181.900 C 138.520 182.544,141.680 182.560,142.320 181.920 C 143.365 180.875,142.787 177.600,141.557 177.600 C 141.141 177.600,140.800 177.420,140.800 177.200 C 140.800 176.980,140.530 176.800,140.200 176.800 C 139.870 176.800,139.600 176.980,139.600 177.200 C 139.600 177.420,139.345 177.600,139.033 177.600 C 138.722 177.600,138.362 177.825,138.233 178.100 C 138.047 178.500,137.953 178.500,137.767 178.100 C 137.638 177.825,137.278 177.600,136.967 177.600 C 136.655 177.600,136.400 177.420,136.400 177.200 C 136.400 176.980,136.130 176.800,135.800 176.800 C 135.470 176.800,135.200 176.980,135.200 177.200 M160.400 177.200 C 160.400 177.420,160.145 177.600,159.833 177.600 C 159.522 177.600,159.193 177.822,159.102 178.094 C 159.003 178.391,158.131 178.603,156.907 178.627 C 154.528 178.674,153.600 179.388,153.600 181.171 C 153.600 182.204,153.446 182.400,152.633 182.400 C 151.141 182.400,150.400 182.813,150.400 183.643 C 150.400 184.059,150.220 184.400,150.000 184.400 C 149.780 184.400,149.600 184.670,149.600 185.000 C 149.600 185.330,149.780 185.600,150.000 185.600 C 150.220 185.600,150.400 185.870,150.400 186.200 C 150.400 186.530,150.207 186.800,149.971 186.800 C 149.736 186.800,149.286 187.057,148.971 187.371 C 148.657 187.686,148.400 188.136,148.400 188.371 C 148.400 188.607,148.220 188.800,148.000 188.800 C 147.780 188.800,147.600 189.070,147.600 189.400 C 147.600 189.730,147.780 190.000,148.000 190.000 C 148.220 190.000,148.400 190.283,148.400 190.629 C 148.400 191.605,149.428 192.400,150.691 192.400 C 152.280 192.400,152.800 191.732,152.800 189.691 C 152.800 188.008,153.457 186.800,154.371 186.800 C 154.607 186.800,154.800 186.080,154.800 185.200 L 154.800 183.600 156.560 183.600 C 158.257 183.600,158.335 183.546,158.719 182.100 C 158.987 181.089,159.131 180.893,159.159 181.500 C 159.203 182.461,162.800 182.935,162.800 181.979 C 162.800 181.748,163.226 182.018,163.746 182.579 C 164.372 183.255,165.115 183.600,165.946 183.600 C 167.142 183.600,167.200 183.674,167.200 185.200 C 167.200 186.080,167.393 186.800,167.629 186.800 C 168.557 186.800,169.200 188.009,169.200 189.757 C 169.200 191.689,169.846 192.400,171.602 192.400 C 172.960 192.400,175.195 189.269,174.100 188.901 C 173.825 188.809,173.600 188.555,173.600 188.338 C 173.600 187.811,172.567 186.800,172.029 186.800 C 171.793 186.800,171.600 186.620,171.600 186.400 C 171.600 186.180,171.780 186.000,172.000 186.000 C 172.745 186.000,172.406 183.899,171.539 183.147 C 171.065 182.736,170.165 182.400,169.539 182.400 C 168.529 182.400,168.400 182.258,168.400 181.147 C 168.400 179.340,167.061 178.286,165.169 178.605 C 164.121 178.782,163.533 178.675,163.083 178.226 C 162.739 177.882,162.264 177.600,162.029 177.600 C 161.793 177.600,161.600 177.420,161.600 177.200 C 161.600 176.980,161.330 176.800,161.000 176.800 C 160.670 176.800,160.400 176.980,160.400 177.200 M193.200 177.200 C 193.200 177.420,192.859 177.600,192.443 177.600 C 191.564 177.600,191.198 178.351,191.206 180.133 C 191.216 182.116,191.664 182.507,193.734 182.343 C 195.136 182.231,195.684 182.362,196.071 182.898 C 196.369 183.312,197.094 183.600,197.836 183.600 C 198.966 183.600,199.119 183.744,199.323 185.004 C 199.555 186.430,200.390 187.600,201.176 187.600 C 201.455 187.600,201.521 188.150,201.362 189.145 C 200.955 191.690,203.674 193.381,205.700 191.843 C 206.776 191.026,206.695 187.600,205.600 187.600 C 205.160 187.600,204.800 187.420,204.800 187.200 C 204.800 186.980,204.485 186.786,204.100 186.768 C 203.682 186.750,203.601 186.656,203.900 186.535 C 204.191 186.417,204.400 185.614,204.400 184.609 C 204.400 182.741,204.025 182.400,201.967 182.400 C 200.918 182.400,200.799 182.268,200.794 181.100 C 200.784 179.004,200.321 178.628,197.825 178.686 C 196.143 178.726,195.600 178.600,195.600 178.169 C 195.600 177.856,195.330 177.600,195.000 177.600 C 194.670 177.600,194.400 177.420,194.400 177.200 C 194.400 176.980,194.130 176.800,193.800 176.800 C 193.470 176.800,193.200 176.980,193.200 177.200 M213.600 177.200 C 213.600 177.420,213.150 177.600,212.600 177.600 C 211.150 177.600,211.065 181.620,212.500 182.312 L 213.400 182.746 212.500 182.773 C 211.549 182.802,211.052 186.800,212.000 186.800 C 212.220 186.800,212.400 187.160,212.400 187.600 C 212.400 188.040,212.220 188.400,212.000 188.400 C 211.100 188.400,211.552 192.007,212.500 192.388 L 213.400 192.749 212.500 192.775 C 211.196 192.811,211.097 197.600,212.400 197.600 C 212.840 197.600,213.200 197.780,213.200 198.000 C 213.200 198.220,212.840 198.400,212.400 198.400 C 211.719 198.400,211.600 198.667,211.600 200.200 C 211.600 201.190,211.780 202.000,212.000 202.000 C 212.220 202.000,212.400 202.360,212.400 202.800 C 212.400 203.240,212.220 203.600,212.000 203.600 C 211.780 203.600,211.600 204.500,211.600 205.600 C 211.600 207.403,211.688 207.601,212.500 207.613 L 213.400 207.627 212.500 208.377 C 211.247 209.423,211.170 212.800,212.400 212.800 C 212.840 212.800,213.200 212.980,213.200 213.200 C 213.200 213.420,212.840 213.600,212.400 213.600 C 211.708 213.600,211.600 213.867,211.600 215.573 C 211.600 217.195,211.742 217.591,212.400 217.800 C 212.840 217.940,213.200 218.222,213.200 218.427 C 213.200 218.632,212.840 218.800,212.400 218.800 C 211.406 218.800,211.229 222.086,212.171 223.029 C 213.032 223.889,215.313 223.753,216.000 222.800 C 216.317 222.360,216.705 222.000,216.861 222.000 C 217.018 222.000,217.260 222.360,217.400 222.800 C 217.588 223.391,218.005 223.600,219.000 223.600 C 219.995 223.600,220.412 223.391,220.600 222.800 C 220.740 222.360,220.982 222.000,221.139 222.000 C 221.295 222.000,221.683 222.360,222.000 222.800 C 222.594 223.624,224.800 223.939,224.800 223.200 C 224.800 222.980,225.160 222.800,225.600 222.800 C 226.040 222.800,226.400 222.567,226.400 222.283 C 226.400 221.924,227.041 221.771,228.500 221.783 L 230.600 221.800 230.837 219.800 C 230.968 218.700,231.103 218.025,231.137 218.300 C 231.234 219.074,233.136 218.890,234.073 218.017 C 234.778 217.361,234.873 216.942,234.664 215.417 C 234.430 213.705,234.470 213.600,235.358 213.600 C 236.432 213.600,236.950 212.051,236.548 210.042 C 236.202 208.310,233.604 207.964,232.100 209.449 C 231.506 210.035,231.424 212.800,232.000 212.800 C 232.220 212.800,232.400 212.980,232.400 213.200 C 232.400 213.420,231.986 213.600,231.480 213.600 C 230.251 213.600,229.600 214.320,229.600 215.680 C 229.600 216.616,229.431 216.800,228.571 216.800 C 227.517 216.800,226.400 217.608,226.400 218.371 C 226.400 218.607,226.040 218.800,225.600 218.800 C 225.160 218.800,224.800 218.608,224.800 218.373 C 224.800 218.139,224.305 218.004,223.700 218.073 C 223.043 218.149,222.644 218.413,222.710 218.730 C 222.774 219.037,222.629 219.141,222.365 218.978 C 222.115 218.824,221.772 218.922,221.602 219.196 C 221.373 219.568,221.080 219.480,220.447 218.847 C 219.351 217.751,218.207 217.771,217.411 218.900 C 217.005 219.477,216.674 219.644,216.489 219.366 C 216.330 219.127,215.840 218.727,215.400 218.478 C 214.616 218.033,214.617 218.024,215.468 218.012 C 216.095 218.003,216.407 217.680,216.589 216.851 C 216.958 215.169,216.460 213.600,215.557 213.600 C 215.140 213.600,214.800 213.420,214.800 213.200 C 214.800 212.980,215.146 212.800,215.568 212.800 C 217.031 212.800,217.119 208.416,215.657 208.387 C 215.090 208.376,215.103 208.297,215.751 207.806 C 216.634 207.137,216.900 203.967,216.095 203.698 C 215.533 203.511,215.410 202.000,215.957 202.000 C 216.460 202.000,216.815 200.345,216.539 199.288 C 216.403 198.767,215.995 198.400,215.553 198.400 C 215.139 198.400,214.800 198.220,214.800 198.000 C 214.800 197.780,215.140 197.600,215.557 197.600 C 216.485 197.600,216.930 196.098,216.569 194.176 C 216.380 193.167,216.103 192.800,215.532 192.800 C 215.103 192.800,214.859 192.628,214.989 192.417 C 215.119 192.207,215.465 192.127,215.758 192.239 C 216.102 192.371,216.374 192.030,216.524 191.281 C 216.788 189.959,216.480 188.400,215.953 188.400 C 215.759 188.400,215.600 188.040,215.600 187.600 C 215.600 187.160,215.759 186.800,215.953 186.800 C 217.204 186.800,216.704 182.808,215.450 182.784 C 214.714 182.770,214.759 182.682,215.782 182.129 C 216.604 181.683,217.009 181.627,217.115 181.945 C 217.408 182.824,220.800 182.507,220.800 181.600 C 220.800 181.160,220.959 180.800,221.153 180.800 C 221.348 180.800,221.601 181.160,221.716 181.600 C 221.941 182.462,225.600 182.839,225.600 182.000 C 225.600 181.780,225.780 181.600,226.000 181.600 C 226.220 181.600,226.400 181.793,226.400 182.029 C 226.400 182.792,227.517 183.600,228.571 183.600 C 229.480 183.600,229.600 183.763,229.600 185.000 C 229.600 185.770,229.767 186.400,229.971 186.400 C 230.918 186.400,231.600 187.751,231.600 189.629 C 231.600 191.333,231.708 191.600,232.400 191.600 C 232.840 191.600,233.200 191.780,233.200 192.000 C 233.200 192.745,235.301 192.406,236.053 191.539 C 237.296 190.106,236.521 186.800,234.943 186.800 C 234.743 186.800,234.645 186.109,234.725 185.264 C 234.908 183.348,234.063 182.400,232.171 182.400 C 230.876 182.400,230.800 182.324,230.800 181.029 C 230.800 179.092,229.842 178.259,227.960 178.560 C 226.900 178.730,226.281 178.624,225.857 178.200 C 225.527 177.870,225.064 177.600,224.829 177.600 C 224.593 177.600,224.400 177.420,224.400 177.200 C 224.400 176.980,224.130 176.800,223.800 176.800 C 223.470 176.800,223.200 176.980,223.200 177.200 C 223.200 177.420,222.840 177.600,222.400 177.600 C 221.956 177.600,221.600 177.867,221.600 178.200 C 221.600 178.530,221.420 178.800,221.200 178.800 C 220.980 178.800,220.800 178.530,220.800 178.200 C 220.800 177.870,220.530 177.600,220.200 177.600 C 219.870 177.600,219.600 177.420,219.600 177.200 C 219.600 176.980,219.330 176.800,219.000 176.800 C 218.670 176.800,218.400 176.980,218.400 177.200 C 218.400 177.420,218.145 177.600,217.833 177.600 C 217.522 177.600,217.162 177.825,217.033 178.100 C 216.847 178.500,216.753 178.500,216.567 178.100 C 216.438 177.825,215.988 177.600,215.567 177.600 C 215.145 177.600,214.800 177.420,214.800 177.200 C 214.800 176.980,214.530 176.800,214.200 176.800 C 213.870 176.800,213.600 176.980,213.600 177.200 M187.100 178.676 C 186.715 178.776,186.400 179.205,186.400 179.629 C 186.400 180.053,186.220 180.400,186.000 180.400 C 185.421 180.400,185.507 181.896,186.100 182.135 C 186.375 182.246,185.940 182.351,185.133 182.368 C 182.735 182.420,182.400 182.695,182.400 184.609 C 182.400 185.614,182.609 186.417,182.900 186.535 C 183.175 186.646,183.007 186.751,182.527 186.768 C 182.023 186.787,181.546 187.139,181.400 187.600 C 181.260 188.040,180.978 188.400,180.773 188.400 C 180.068 188.400,180.401 190.395,181.272 191.397 C 182.363 192.652,184.230 192.765,184.600 191.600 C 184.740 191.160,185.022 190.800,185.227 190.800 C 185.432 190.800,185.600 190.260,185.600 189.600 C 185.600 188.940,185.420 188.400,185.200 188.400 C 184.980 188.400,184.800 188.220,184.800 188.000 C 184.800 187.780,185.070 187.600,185.400 187.600 C 186.402 187.600,187.600 186.076,187.600 184.800 C 187.600 183.702,187.716 183.600,188.957 183.600 C 190.460 183.600,190.800 183.120,190.800 180.996 C 190.800 178.855,189.510 178.046,187.100 178.676 M147.443 193.433 C 146.997 194.594,147.193 196.736,147.800 197.343 C 148.130 197.673,148.400 198.046,148.400 198.171 C 148.400 198.297,148.130 198.400,147.800 198.400 C 147.470 198.400,147.200 198.670,147.200 199.000 C 147.200 199.330,147.020 199.600,146.800 199.600 C 146.580 199.600,146.400 199.870,146.400 200.200 C 146.400 200.530,146.580 200.800,146.800 200.800 C 147.020 200.800,147.200 201.057,147.200 201.371 C 147.200 201.686,147.483 202.226,147.829 202.571 C 148.400 203.143,148.400 203.257,147.829 203.829 C 146.342 205.315,147.462 208.000,149.567 208.000 C 151.928 208.000,153.328 205.245,151.600 204.000 C 150.774 203.404,150.493 202.000,151.200 202.000 C 151.420 202.000,151.600 201.190,151.600 200.200 C 151.600 198.867,151.444 198.400,151.000 198.400 C 150.670 198.400,150.400 198.220,150.400 198.000 C 150.400 197.780,150.593 197.600,150.829 197.600 C 151.647 197.600,152.400 196.450,152.400 195.200 C 152.400 193.018,148.179 191.513,147.443 193.433 M170.400 193.600 C 170.400 194.040,170.220 194.400,170.000 194.400 C 169.780 194.400,169.600 194.634,169.600 194.920 C 169.600 195.839,170.584 197.594,171.100 197.597 C 171.375 197.599,171.600 197.780,171.600 198.000 C 171.600 198.220,171.330 198.400,171.000 198.400 C 170.556 198.400,170.400 198.867,170.400 200.200 C 170.400 201.190,170.580 202.000,170.800 202.000 C 171.507 202.000,171.226 203.404,170.400 204.000 C 168.010 205.723,170.702 208.605,173.900 207.748 C 175.019 207.448,175.297 203.600,174.200 203.600 C 173.349 203.600,173.452 203.229,174.600 202.165 C 175.589 201.249,175.974 199.600,175.200 199.600 C 174.980 199.600,174.800 199.330,174.800 199.000 C 174.800 198.670,174.530 198.400,174.200 198.400 C 173.870 198.400,173.600 198.297,173.600 198.171 C 173.600 198.046,173.870 197.673,174.200 197.343 C 174.807 196.736,175.003 194.594,174.557 193.433 C 174.157 192.391,170.400 192.542,170.400 193.600 M179.600 195.200 C 179.600 197.333,179.689 197.600,180.400 197.600 C 181.496 197.600,181.414 198.314,180.300 198.472 C 179.212 198.627,178.994 202.142,180.027 202.862 C 180.465 203.167,180.482 203.309,180.100 203.464 C 179.797 203.587,179.600 204.428,179.600 205.598 L 179.600 207.530 181.183 207.797 C 183.339 208.161,184.262 207.789,184.530 206.448 C 184.789 205.154,184.474 203.600,183.953 203.600 C 183.759 203.600,183.600 203.240,183.600 202.800 C 183.600 202.360,183.780 202.000,184.000 202.000 C 184.823 202.000,184.455 198.871,183.600 198.600 C 182.589 198.279,182.555 197.600,183.550 197.600 C 184.431 197.600,184.911 195.855,184.540 194.000 C 184.306 192.830,184.241 192.800,181.950 192.800 L 179.600 192.800 179.600 195.200 M202.900 193.398 C 201.834 194.609,202.596 197.600,203.971 197.600 C 204.207 197.600,204.400 197.780,204.400 198.000 C 204.400 198.220,204.130 198.400,203.800 198.400 C 203.470 198.400,203.200 198.670,203.200 199.000 C 203.200 199.330,203.020 199.600,202.800 199.600 C 202.162 199.600,202.338 201.491,203.000 201.745 C 203.330 201.871,203.600 202.341,203.600 202.787 C 203.600 203.243,203.336 203.600,203.000 203.600 C 201.903 203.600,202.181 207.448,203.300 207.748 C 206.467 208.597,208.993 206.136,207.000 204.143 C 206.670 203.813,206.400 203.389,206.400 203.200 C 206.400 203.011,206.670 202.587,207.000 202.257 C 207.835 201.422,207.814 198.400,206.973 198.400 C 206.308 198.400,206.548 196.737,207.253 196.467 C 207.738 196.280,207.690 194.400,207.200 194.400 C 206.980 194.400,206.800 194.040,206.800 193.600 C 206.800 192.616,203.728 192.458,202.900 193.398 M233.200 193.600 C 233.200 194.040,233.020 194.400,232.800 194.400 C 232.580 194.400,232.400 194.634,232.400 194.920 C 232.400 195.839,233.384 197.594,233.900 197.597 C 234.600 197.601,234.525 198.266,233.794 198.547 C 233.315 198.731,233.210 199.386,233.294 201.656 C 233.369 203.679,233.252 204.581,232.900 204.699 C 232.324 204.892,232.215 206.000,232.772 206.000 C 232.977 206.000,233.202 206.403,233.272 206.896 C 233.418 207.917,234.282 208.186,236.240 207.819 C 237.695 207.546,238.384 204.033,237.100 203.433 C 236.700 203.247,236.700 203.153,237.100 202.967 C 237.375 202.838,237.600 202.478,237.600 202.167 C 237.600 201.855,237.780 201.600,238.000 201.600 C 238.220 201.600,238.400 201.150,238.400 200.600 C 238.400 200.050,238.220 199.600,238.000 199.600 C 237.780 199.600,237.600 199.330,237.600 199.000 C 237.600 198.670,237.330 198.400,237.000 198.400 C 236.670 198.400,236.400 198.233,236.400 198.029 C 236.400 197.824,236.670 197.387,237.000 197.057 C 237.761 196.296,237.778 194.120,237.029 193.371 C 236.098 192.441,233.200 192.614,233.200 193.600 M134.400 198.000 C 134.400 198.220,134.130 198.400,133.800 198.400 C 133.174 198.400,132.941 200.860,133.443 202.167 C 133.758 202.989,136.245 203.012,137.057 202.200 C 137.387 201.870,137.824 201.600,138.029 201.600 C 138.233 201.600,138.400 201.870,138.400 202.200 C 138.400 203.080,142.219 203.050,142.557 202.167 C 143.701 199.187,140.951 196.191,138.929 198.214 C 138.313 198.830,136.740 198.660,136.467 197.947 C 136.280 197.462,134.400 197.510,134.400 198.000 M149.100 208.676 C 148.715 208.776,148.400 209.205,148.400 209.629 C 148.400 210.053,148.220 210.400,148.000 210.400 C 147.780 210.400,147.600 210.670,147.600 211.000 C 147.600 211.330,147.780 211.600,148.000 211.600 C 148.220 211.600,148.400 212.050,148.400 212.600 C 148.400 213.484,148.569 213.600,149.861 213.600 L 151.322 213.600 150.461 214.347 C 149.587 215.105,149.268 216.800,150.000 216.800 C 150.220 216.800,150.400 216.993,150.400 217.229 C 150.400 217.992,151.517 218.800,152.571 218.800 C 153.479 218.800,153.600 218.964,153.600 220.192 C 153.600 221.786,154.582 222.270,157.019 221.874 C 158.358 221.657,159.600 222.309,159.600 223.229 C 159.600 223.433,160.230 223.600,161.000 223.600 C 161.770 223.600,162.400 223.433,162.400 223.229 C 162.400 222.309,163.642 221.657,164.981 221.874 C 167.418 222.270,168.400 221.786,168.400 220.192 C 168.400 218.964,168.521 218.800,169.429 218.800 C 170.483 218.800,171.600 217.992,171.600 217.229 C 171.600 216.993,171.780 216.800,172.000 216.800 C 172.732 216.800,172.413 215.105,171.539 214.347 L 170.678 213.600 172.139 213.600 C 173.333 213.600,173.600 213.454,173.600 212.800 C 173.600 212.360,173.780 212.000,174.000 212.000 C 174.220 212.000,174.400 211.640,174.400 211.200 C 174.400 210.760,174.220 210.400,174.000 210.400 C 173.780 210.400,173.600 210.061,173.600 209.647 C 173.600 208.736,172.450 208.377,170.527 208.689 L 169.112 208.919 169.280 211.240 C 169.443 213.484,169.414 213.565,168.424 213.681 C 167.555 213.782,167.381 214.028,167.276 215.300 C 167.162 216.681,167.054 216.800,165.923 216.800 C 164.622 216.800,163.200 218.028,163.200 219.150 C 163.200 219.609,163.032 219.538,162.577 218.889 C 161.804 217.785,160.649 217.751,159.600 218.800 C 159.059 219.341,158.800 219.426,158.800 219.061 C 158.800 217.513,155.321 215.840,155.137 217.300 C 155.103 217.575,154.968 216.900,154.837 215.800 C 154.638 214.117,154.457 213.780,153.700 213.672 C 152.885 213.556,152.800 213.326,152.800 211.219 C 152.800 208.515,151.951 207.931,149.100 208.676 M182.000 208.651 C 180.958 208.951,179.865 212.000,180.800 212.000 C 181.020 212.000,181.200 212.360,181.200 212.800 C 181.200 213.387,181.467 213.600,182.200 213.600 C 182.822 213.600,183.200 213.827,183.200 214.200 C 183.200 214.530,183.020 214.800,182.800 214.800 C 182.580 214.800,182.400 215.340,182.400 216.000 C 182.400 217.376,183.621 218.800,184.800 218.800 C 185.350 218.800,185.600 219.067,185.600 219.653 C 185.600 222.396,190.505 222.956,190.728 220.238 C 190.949 217.534,190.579 216.800,188.992 216.800 C 187.764 216.800,187.600 216.679,187.600 215.771 C 187.600 214.530,186.756 213.600,185.629 213.600 C 185.173 213.600,184.800 213.420,184.800 213.200 C 184.800 212.980,184.980 212.800,185.200 212.800 C 185.803 212.800,185.680 210.023,185.048 209.391 C 184.422 208.765,182.893 208.393,182.000 208.651 M202.546 208.669 C 201.564 208.870,201.084 210.519,201.460 212.400 C 201.640 213.298,201.552 213.600,201.112 213.600 C 200.274 213.600,199.200 214.910,199.200 215.931 C 199.200 216.540,198.955 216.800,198.383 216.800 C 197.933 216.800,197.080 217.250,196.487 217.800 C 195.304 218.896,194.972 219.002,194.600 218.400 C 194.464 218.180,193.913 218.000,193.376 218.000 C 192.839 218.000,192.400 218.180,192.400 218.400 C 192.400 218.620,192.130 218.800,191.800 218.800 C 191.174 218.800,190.931 221.634,191.443 222.967 C 191.949 224.286,195.600 223.467,195.600 222.035 C 195.600 221.757,196.420 221.698,197.986 221.862 L 200.373 222.111 200.638 220.456 C 200.862 219.054,201.048 218.800,201.851 218.800 C 202.373 218.800,202.800 218.620,202.800 218.400 C 202.800 218.180,203.160 218.000,203.600 218.000 C 204.535 218.000,204.784 214.944,203.920 214.080 C 203.547 213.707,203.642 213.600,204.349 213.600 C 205.615 213.600,206.400 212.682,206.400 211.200 C 206.400 209.248,204.813 208.206,202.546 208.669 M123.829 234.229 C 123.015 235.042,122.995 237.547,123.800 237.855 C 124.130 237.982,124.400 238.407,124.400 238.800 C 124.400 239.193,124.130 239.618,123.800 239.745 C 123.044 240.035,122.993 242.575,123.730 243.263 C 124.169 243.674,124.162 243.954,123.689 244.901 C 122.908 246.468,123.344 248.800,124.418 248.800 C 124.848 248.800,125.200 248.980,125.200 249.200 C 125.200 249.420,124.843 249.600,124.408 249.600 C 123.068 249.600,122.812 253.266,124.097 254.060 C 124.386 254.238,124.308 254.549,123.865 254.992 C 123.499 255.358,123.200 256.171,123.200 256.800 C 123.200 257.429,123.499 258.242,123.865 258.608 C 124.284 259.027,124.378 259.370,124.119 259.536 C 122.850 260.351,123.106 264.000,124.432 264.000 C 124.854 264.000,125.200 264.180,125.200 264.400 C 125.200 264.620,124.848 264.800,124.418 264.800 C 123.344 264.800,122.908 267.132,123.689 268.699 C 124.162 269.646,124.169 269.926,123.730 270.337 C 122.945 271.070,123.058 273.476,123.900 273.973 C 124.510 274.332,124.523 274.436,124.000 274.778 C 123.448 275.140,123.145 278.882,123.629 279.360 C 124.313 280.034,126.695 279.985,127.507 279.280 C 128.677 278.266,128.728 276.013,127.600 275.200 C 127.160 274.883,126.800 274.483,126.800 274.312 C 126.800 274.140,127.160 274.000,127.600 274.000 C 128.795 274.000,128.790 270.427,127.594 270.114 L 126.789 269.904 127.594 269.205 C 128.679 268.264,128.682 265.980,127.600 265.200 C 127.160 264.883,126.800 264.495,126.800 264.339 C 126.800 264.182,127.160 263.940,127.600 263.800 C 128.778 263.426,128.727 260.675,127.526 259.833 L 126.653 259.222 127.526 258.464 C 128.725 257.425,128.777 254.800,127.600 254.800 C 127.160 254.800,126.800 254.632,126.800 254.427 C 126.800 254.222,127.160 253.940,127.600 253.800 C 128.239 253.597,128.400 253.195,128.400 251.800 C 128.400 250.405,128.239 250.003,127.600 249.800 C 127.160 249.660,126.800 249.418,126.800 249.261 C 126.800 249.105,127.160 248.717,127.600 248.400 C 129.076 247.336,128.230 243.394,126.703 244.221 C 126.426 244.371,126.695 244.047,127.300 243.500 C 128.408 242.499,128.929 239.600,128.000 239.600 C 127.780 239.600,127.600 239.240,127.600 238.800 C 127.600 238.267,127.867 238.000,128.400 238.000 C 128.840 238.000,129.200 238.180,129.200 238.400 C 129.200 238.620,129.470 238.800,129.800 238.800 C 130.130 238.800,130.400 238.980,130.400 239.200 C 130.400 239.420,130.239 239.600,130.043 239.600 C 129.449 239.600,129.169 240.827,129.436 242.254 C 129.617 243.218,129.904 243.600,130.445 243.600 C 130.984 243.600,131.200 243.886,131.200 244.600 C 131.200 245.150,131.020 245.600,130.800 245.600 C 130.580 245.600,130.400 246.050,130.400 246.600 C 130.400 247.150,130.580 247.600,130.800 247.600 C 131.020 247.600,131.200 247.870,131.200 248.200 C 131.200 248.530,131.470 248.800,131.800 248.800 C 132.473 248.800,132.618 249.818,132.000 250.200 C 131.780 250.336,131.600 250.977,131.600 251.624 C 131.600 252.271,131.780 252.800,132.000 252.800 C 132.220 252.800,132.400 253.070,132.400 253.400 C 132.400 253.752,132.764 254.000,133.280 254.000 C 133.964 254.000,134.053 254.107,133.680 254.480 C 133.082 255.078,133.037 258.800,133.629 258.800 C 134.092 258.800,135.200 259.784,135.200 260.195 C 135.200 260.334,135.020 260.336,134.800 260.200 C 134.553 260.048,134.400 260.729,134.400 261.976 C 134.400 263.473,134.550 264.000,134.977 264.000 C 135.417 264.000,135.536 264.505,135.477 266.127 C 135.386 268.647,136.087 269.600,138.033 269.600 L 139.322 269.600 138.461 270.347 C 137.319 271.337,137.282 273.445,138.400 273.800 C 139.221 274.061,139.517 274.800,138.800 274.800 C 138.580 274.800,138.400 275.070,138.400 275.400 C 138.400 275.730,138.220 276.000,138.000 276.000 C 136.178 276.000,138.126 279.541,140.126 279.866 C 142.511 280.253,143.932 276.789,142.128 274.985 C 141.498 274.355,141.498 274.289,142.128 273.936 C 142.992 273.453,143.020 271.078,142.171 270.229 C 141.600 269.657,141.691 269.600,143.171 269.600 C 144.533 269.600,144.800 269.469,144.800 268.800 C 144.800 268.360,144.980 268.000,145.200 268.000 C 145.420 268.000,145.600 267.550,145.600 267.000 C 145.600 266.450,145.420 266.000,145.200 266.000 C 144.980 266.000,144.800 265.550,144.800 265.000 C 144.800 264.287,145.016 264.000,145.553 264.000 C 146.488 264.000,146.770 263.002,146.502 260.631 C 146.332 259.121,146.410 258.800,146.948 258.800 C 147.464 258.800,147.600 258.382,147.600 256.800 C 147.600 255.700,147.420 254.800,147.200 254.800 C 146.397 254.800,146.826 254.052,147.700 253.928 C 148.528 253.810,148.597 253.599,148.568 251.300 C 148.551 249.925,148.698 248.800,148.897 248.800 C 150.161 248.800,151.074 245.091,149.905 244.702 C 149.590 244.597,149.808 244.169,150.505 243.523 C 151.717 242.399,151.944 240.784,151.000 240.000 C 150.301 239.420,150.212 238.800,150.829 238.800 C 151.064 238.800,151.527 238.530,151.857 238.200 C 152.772 237.285,153.200 237.477,153.200 238.800 C 153.200 239.460,153.020 240.000,152.800 240.000 C 152.580 240.000,152.400 240.630,152.400 241.400 C 152.400 242.170,152.561 242.800,152.757 242.800 C 153.420 242.800,153.570 243.972,152.983 244.560 C 152.354 245.189,152.169 248.000,152.757 248.000 C 153.453 248.000,153.652 249.373,153.022 249.834 C 152.649 250.106,152.400 250.894,152.400 251.800 C 152.400 252.706,152.649 253.494,153.022 253.766 C 153.652 254.227,153.453 255.600,152.757 255.600 C 152.561 255.600,152.400 256.140,152.400 256.800 C 152.400 257.460,152.561 258.000,152.757 258.000 C 153.446 258.000,153.613 259.322,153.010 259.989 C 151.967 261.141,152.210 263.537,153.400 263.836 C 154.384 264.083,154.809 264.800,153.971 264.800 C 152.546 264.800,151.827 267.884,152.983 269.040 C 153.570 269.628,153.420 270.800,152.757 270.800 C 152.145 270.800,152.367 273.287,153.022 273.766 C 153.652 274.227,153.453 275.600,152.757 275.600 C 152.064 275.600,152.389 278.422,153.180 279.271 C 154.051 280.206,155.970 280.087,157.023 279.034 C 157.649 278.408,157.816 276.150,157.253 275.933 C 156.535 275.658,156.322 274.005,156.972 273.755 C 157.755 273.455,157.808 271.351,157.051 270.594 C 156.476 270.019,156.628 268.000,157.247 268.000 C 157.441 268.000,157.600 267.537,157.600 266.971 C 157.600 265.917,156.792 264.800,156.029 264.800 C 155.191 264.800,155.616 264.083,156.600 263.836 C 157.608 263.583,158.136 261.073,157.253 260.733 C 156.540 260.460,156.370 258.887,156.986 258.271 C 157.324 257.933,157.600 257.271,157.600 256.800 C 157.600 256.329,157.324 255.667,156.986 255.329 C 156.370 254.713,156.540 253.140,157.253 252.867 C 157.845 252.639,157.634 250.313,156.978 249.834 C 156.348 249.373,156.547 248.000,157.243 248.000 C 157.439 248.000,157.600 247.460,157.600 246.800 C 157.600 246.140,157.441 245.600,157.247 245.600 C 156.628 245.600,156.476 243.581,157.051 243.006 C 157.656 242.402,157.804 240.145,157.253 239.933 C 156.535 239.658,156.322 238.005,156.972 237.755 C 157.816 237.431,157.779 235.419,156.911 234.405 C 156.034 233.381,153.806 233.317,153.227 234.300 C 152.907 234.844,152.739 234.885,152.475 234.486 C 152.289 234.204,151.835 234.088,151.468 234.229 C 151.092 234.374,150.800 234.292,150.800 234.043 C 150.800 233.799,150.440 233.600,150.000 233.600 C 149.560 233.600,149.200 233.760,149.200 233.956 C 149.200 234.151,148.885 234.286,148.500 234.256 C 147.939 234.211,147.776 234.577,147.678 236.100 C 147.605 237.243,147.724 238.000,147.978 238.000 C 148.210 238.000,148.400 238.180,148.400 238.400 C 148.400 238.620,148.207 238.800,147.971 238.800 C 146.532 238.800,145.830 241.887,147.004 243.061 C 147.761 243.818,147.380 244.511,146.380 244.194 C 145.419 243.889,145.007 245.316,145.365 247.706 C 145.591 249.211,145.517 249.447,144.710 249.801 C 143.658 250.262,143.224 252.319,144.068 252.845 C 144.502 253.116,144.506 253.308,144.088 253.889 C 143.807 254.280,143.471 254.915,143.342 255.300 C 143.212 255.685,142.948 256.000,142.753 256.000 C 142.559 256.000,142.400 256.360,142.400 256.800 C 142.400 257.240,142.535 257.601,142.700 257.603 C 142.865 257.605,143.208 258.055,143.462 258.603 C 143.900 259.546,143.860 259.600,142.734 259.600 L 141.543 259.600 141.648 262.100 L 141.752 264.600 140.276 264.724 C 138.927 264.838,138.800 264.760,138.800 263.824 C 138.800 263.261,138.980 262.800,139.200 262.800 C 139.420 262.800,139.600 262.350,139.600 261.800 C 139.600 261.250,139.420 260.800,139.200 260.800 C 138.980 260.800,138.800 260.530,138.800 260.200 C 138.800 259.827,138.422 259.600,137.800 259.600 C 136.593 259.600,136.522 259.177,137.600 258.400 C 138.687 257.617,138.606 256.170,137.409 254.973 C 136.544 254.108,136.450 253.748,136.668 252.154 C 136.897 250.489,136.816 250.238,135.759 249.310 C 135.014 248.656,134.778 248.229,135.100 248.113 C 136.317 247.675,135.455 244.268,134.100 244.160 C 132.810 244.057,132.668 243.922,133.500 243.588 C 135.045 242.966,134.526 238.800,132.903 238.800 C 132.708 238.800,132.629 237.692,132.727 236.337 C 132.883 234.182,132.824 233.905,132.253 234.124 C 131.894 234.262,131.600 234.201,131.600 233.987 C 131.600 233.774,131.150 233.600,130.600 233.600 C 130.050 233.600,129.600 233.791,129.600 234.024 C 129.600 234.257,129.400 234.324,129.155 234.172 C 128.911 234.021,128.537 234.146,128.325 234.449 C 128.025 234.877,127.894 234.888,127.735 234.498 C 127.623 234.221,127.367 234.097,127.166 234.221 C 126.965 234.345,126.800 234.257,126.800 234.024 C 126.800 233.368,124.533 233.524,123.829 234.229 M172.400 233.987 C 172.400 234.201,172.130 234.271,171.800 234.145 C 171.384 233.985,171.200 234.172,171.200 234.757 C 171.200 235.221,171.020 235.600,170.800 235.600 C 170.580 235.600,170.400 235.870,170.400 236.200 C 170.400 236.530,170.580 236.800,170.800 236.800 C 171.020 236.800,171.200 237.250,171.200 237.800 C 171.200 238.533,170.987 238.800,170.400 238.800 C 169.691 238.800,169.600 239.067,169.600 241.151 C 169.600 242.753,169.409 243.661,169.000 244.000 C 168.327 244.559,168.183 246.000,168.800 246.000 C 169.547 246.000,169.204 247.545,168.400 247.800 C 167.540 248.073,167.168 251.600,168.000 251.600 C 168.220 251.600,168.400 251.774,168.400 251.987 C 168.400 252.201,168.130 252.271,167.800 252.145 C 167.384 251.985,167.200 252.172,167.200 252.757 C 167.200 253.221,167.020 253.600,166.800 253.600 C 166.580 253.600,166.400 254.050,166.400 254.600 C 166.400 255.150,166.580 255.600,166.800 255.600 C 167.020 255.600,167.200 255.870,167.200 256.200 C 167.200 256.533,166.844 256.800,166.400 256.800 C 165.688 256.800,165.600 257.067,165.600 259.213 C 165.600 260.988,165.442 261.686,165.000 261.855 C 164.326 262.114,164.144 264.800,164.800 264.800 C 165.517 264.800,165.221 265.539,164.400 265.800 C 163.745 266.008,163.600 266.405,163.600 267.998 C 163.600 269.193,163.369 270.174,163.000 270.543 C 162.333 271.210,162.171 274.000,162.800 274.000 C 163.020 274.000,163.200 274.180,163.200 274.400 C 163.200 274.620,162.860 274.800,162.443 274.800 C 160.481 274.800,160.984 279.395,162.988 279.771 C 165.507 280.244,166.400 279.528,166.400 277.038 C 166.400 275.633,166.613 274.644,167.000 274.257 C 167.726 273.531,167.793 271.731,167.104 271.501 C 166.743 271.381,166.789 271.154,167.275 270.668 C 168.009 269.934,169.200 269.768,169.200 270.400 C 169.200 271.055,172.064 270.866,172.566 270.178 C 173.027 269.548,174.400 269.747,174.400 270.443 C 174.400 271.030,176.411 270.847,177.057 270.200 C 177.387 269.870,177.811 269.600,178.000 269.600 C 178.189 269.600,178.613 269.870,178.943 270.200 C 179.273 270.530,180.182 270.800,180.964 270.800 C 182.512 270.800,182.651 270.559,182.926 267.400 C 183.048 265.997,183.074 266.055,183.133 267.871 C 183.177 269.236,183.438 270.181,183.896 270.639 C 184.397 271.140,184.453 271.382,184.096 271.501 C 183.304 271.765,183.513 273.761,184.400 274.400 C 185.005 274.836,185.200 275.435,185.200 276.860 C 185.200 278.842,185.915 280.004,187.129 279.995 C 188.603 279.983,189.600 279.482,189.600 278.753 C 189.600 278.339,189.780 278.000,190.000 278.000 C 190.220 278.000,190.400 277.766,190.400 277.480 C 190.400 276.610,189.429 274.806,188.959 274.803 C 188.673 274.801,188.582 274.125,188.701 272.884 C 188.840 271.448,188.725 270.836,188.243 270.435 C 187.530 269.844,187.375 268.800,188.000 268.800 C 188.220 268.800,188.400 268.530,188.400 268.200 C 188.400 267.870,188.220 267.600,188.000 267.600 C 187.780 267.600,187.600 267.240,187.600 266.800 C 187.600 266.360,187.420 266.000,187.200 266.000 C 186.980 266.000,186.800 265.094,186.800 263.987 C 186.800 262.568,186.623 261.907,186.200 261.745 C 185.761 261.576,185.600 260.884,185.600 259.157 C 185.600 257.258,185.475 256.800,184.957 256.800 C 184.466 256.800,184.374 256.557,184.570 255.776 C 184.914 254.406,184.422 251.906,183.851 252.126 C 183.540 252.246,183.443 251.617,183.540 250.102 C 183.637 248.576,183.545 247.987,183.240 248.175 C 182.735 248.488,182.657 248.069,182.782 245.701 C 182.848 244.459,182.701 243.937,182.236 243.758 C 181.754 243.574,181.600 242.943,181.600 241.157 C 181.600 239.258,181.475 238.800,180.957 238.800 C 180.466 238.800,180.374 238.557,180.570 237.776 C 181.018 235.993,180.430 233.936,179.553 234.215 C 179.137 234.347,178.800 234.263,178.800 234.027 C 178.800 233.792,178.440 233.600,178.000 233.600 C 177.560 233.600,177.200 233.737,177.200 233.905 C 177.200 234.072,176.570 234.220,175.800 234.233 C 175.030 234.246,174.400 234.109,174.400 233.928 C 174.400 233.748,173.950 233.600,173.400 233.600 C 172.850 233.600,172.400 233.774,172.400 233.987 M195.200 234.067 C 195.200 234.323,195.089 234.422,194.952 234.286 C 194.479 233.812,193.600 235.150,193.600 236.344 C 193.600 237.195,193.834 237.620,194.400 237.800 C 194.840 237.940,195.200 238.358,195.200 238.731 C 195.200 239.103,194.840 239.632,194.400 239.907 C 192.936 240.821,193.405 242.715,195.400 243.945 C 196.167 244.418,196.163 244.428,195.300 244.192 C 194.578 243.995,194.400 244.109,194.400 244.773 C 194.400 245.228,194.220 245.600,194.000 245.600 C 193.780 245.600,193.600 246.050,193.600 246.600 C 193.600 247.150,193.780 247.600,194.000 247.600 C 194.220 247.600,194.400 247.870,194.400 248.200 C 194.400 248.530,194.670 248.800,195.000 248.800 C 195.892 248.800,195.726 249.355,194.700 249.805 C 193.756 250.219,193.131 252.800,193.975 252.800 C 194.209 252.800,194.400 253.055,194.400 253.367 C 194.400 253.678,194.625 254.014,194.900 254.113 C 195.239 254.235,195.110 254.550,194.500 255.093 C 194.005 255.533,193.600 256.302,193.600 256.800 C 193.600 257.298,194.005 258.067,194.500 258.507 C 195.110 259.050,195.239 259.365,194.900 259.487 C 194.625 259.586,194.400 259.922,194.400 260.233 C 194.400 260.545,194.220 260.800,194.000 260.800 C 193.780 260.800,193.600 261.250,193.600 261.800 C 193.600 262.350,193.780 262.800,194.000 262.800 C 194.220 262.800,194.400 263.070,194.400 263.400 C 194.400 263.730,194.670 264.000,195.000 264.000 C 195.330 264.000,195.600 264.180,195.600 264.400 C 195.600 264.620,195.407 264.800,195.171 264.800 C 194.408 264.800,193.600 265.917,193.600 266.971 C 193.600 267.537,193.780 268.000,194.000 268.000 C 194.220 268.000,194.400 268.360,194.400 268.800 C 194.400 269.240,194.608 269.600,194.861 269.600 C 195.115 269.600,194.935 269.936,194.461 270.347 C 193.319 271.337,193.282 273.445,194.400 273.800 C 195.221 274.061,195.517 274.800,194.800 274.800 C 194.580 274.800,194.400 275.070,194.400 275.400 C 194.400 275.730,194.220 276.000,194.000 276.000 C 192.178 276.000,194.126 279.541,196.126 279.866 C 198.511 280.253,199.932 276.789,198.128 274.985 C 197.498 274.355,197.498 274.289,198.128 273.936 C 198.950 273.477,199.037 271.094,198.260 270.317 C 197.807 269.864,197.807 269.696,198.260 269.273 C 199.368 268.238,198.828 264.800,197.557 264.800 C 197.141 264.800,196.800 264.620,196.800 264.400 C 196.800 264.180,197.151 264.000,197.580 264.000 C 198.009 264.000,198.544 263.685,198.768 263.300 C 199.156 262.633,199.176 262.633,199.188 263.300 C 199.195 263.685,199.470 264.000,199.800 264.000 C 200.130 264.000,200.400 264.180,200.400 264.400 C 200.400 264.890,202.280 264.938,202.467 264.453 C 202.740 263.740,204.313 263.570,204.929 264.186 C 205.267 264.524,205.736 264.800,205.971 264.800 C 206.207 264.800,206.400 264.980,206.400 265.200 C 206.400 265.420,206.220 265.600,206.000 265.600 C 205.780 265.600,205.600 265.870,205.600 266.200 C 205.600 266.530,205.780 266.800,206.000 266.800 C 206.220 266.800,206.400 267.070,206.400 267.400 C 206.400 267.730,206.670 268.000,207.000 268.000 C 207.330 268.000,207.600 268.180,207.600 268.400 C 207.600 268.620,207.960 268.800,208.400 268.800 C 209.067 268.800,209.200 269.067,209.200 270.400 C 209.200 271.556,209.367 272.000,209.800 272.000 C 210.130 272.000,210.400 272.180,210.400 272.400 C 210.400 272.620,210.670 272.800,211.000 272.800 C 211.373 272.800,211.600 273.178,211.600 273.800 C 211.600 274.350,211.780 274.800,212.000 274.800 C 212.220 274.800,212.400 275.070,212.400 275.400 C 212.400 275.819,212.822 276.000,213.800 276.000 C 215.112 276.000,215.200 276.082,215.206 277.300 C 215.217 279.700,217.704 280.845,219.507 279.280 C 221.340 277.691,220.401 274.800,218.053 274.800 C 216.950 274.800,216.838 274.674,216.724 273.300 C 216.607 271.881,216.519 271.793,215.100 271.676 L 213.600 271.552 213.600 269.576 L 213.600 267.600 212.222 267.600 C 210.862 267.600,210.842 267.575,210.722 265.700 C 210.609 263.946,210.513 263.790,209.469 263.670 C 208.651 263.577,208.401 263.373,208.569 262.938 C 208.696 262.606,208.800 262.196,208.800 262.026 C 208.800 261.856,209.700 261.804,210.800 261.910 C 212.459 262.069,212.800 261.991,212.800 261.451 C 212.800 261.093,212.980 260.800,213.200 260.800 C 213.420 260.800,213.600 260.350,213.600 259.800 C 213.600 259.000,213.800 258.800,214.600 258.800 C 215.150 258.800,215.600 258.620,215.600 258.400 C 215.600 258.180,215.887 258.000,216.237 258.000 C 216.759 258.000,216.849 257.604,216.737 255.814 C 216.616 253.879,216.692 253.615,217.400 253.514 C 218.632 253.338,218.844 248.800,217.620 248.800 C 217.169 248.800,216.800 248.620,216.800 248.400 C 216.800 248.180,217.160 248.000,217.600 248.000 C 218.908 248.000,218.780 244.111,217.461 243.780 C 216.605 243.565,216.539 243.376,216.707 241.630 C 216.911 239.508,215.714 237.772,214.302 238.142 C 213.776 238.279,213.600 238.083,213.600 237.363 C 213.600 235.377,210.092 233.741,209.446 235.425 C 209.141 236.219,208.400 235.790,208.400 234.819 C 208.400 234.416,208.115 233.976,207.767 233.843 C 206.843 233.488,205.200 233.546,205.200 233.933 C 205.200 234.117,204.570 234.267,203.800 234.267 C 203.030 234.267,202.400 234.117,202.400 233.933 C 202.400 233.750,201.950 233.600,201.400 233.600 C 200.850 233.600,200.400 233.774,200.400 233.987 C 200.400 234.201,200.130 234.271,199.800 234.145 C 199.373 233.981,199.196 234.186,199.186 234.857 L 199.172 235.800 198.665 234.887 C 198.386 234.386,198.033 234.101,197.879 234.254 C 197.726 234.408,197.600 234.323,197.600 234.067 C 197.600 233.810,197.060 233.600,196.400 233.600 C 195.740 233.600,195.200 233.810,195.200 234.067 M225.600 233.987 C 225.600 234.201,225.330 234.271,225.000 234.145 C 224.515 233.959,224.400 234.306,224.400 235.957 C 224.400 237.081,224.580 238.000,224.800 238.000 C 225.020 238.000,225.200 238.360,225.200 238.800 C 225.200 239.240,225.020 239.600,224.800 239.600 C 224.580 239.600,224.400 240.500,224.400 241.600 C 224.400 243.075,224.551 243.600,224.976 243.600 C 225.293 243.600,225.651 243.760,225.772 243.955 C 225.893 244.150,225.678 244.285,225.296 244.255 C 224.722 244.210,224.579 244.602,224.480 246.500 C 224.383 248.362,224.478 248.800,224.980 248.800 C 225.321 248.800,225.600 248.980,225.600 249.200 C 225.600 249.420,225.330 249.600,225.000 249.600 C 224.547 249.600,224.400 250.089,224.400 251.600 C 224.400 252.700,224.580 253.600,224.800 253.600 C 225.020 253.600,225.200 253.870,225.200 254.200 C 225.200 254.530,225.020 254.800,224.800 254.800 C 224.207 254.800,224.301 258.687,224.900 258.967 C 225.300 259.153,225.300 259.247,224.900 259.433 C 224.132 259.792,224.224 264.000,225.000 264.000 C 225.330 264.000,225.600 264.180,225.600 264.400 C 225.600 264.620,225.330 264.800,225.000 264.800 C 224.547 264.800,224.400 265.289,224.400 266.800 C 224.400 267.900,224.580 268.800,224.800 268.800 C 225.020 268.800,225.200 269.070,225.200 269.400 C 225.200 269.730,225.020 270.000,224.800 270.000 C 224.580 270.000,224.400 270.900,224.400 272.000 C 224.400 273.100,224.580 274.000,224.800 274.000 C 225.020 274.000,225.200 274.360,225.200 274.800 C 225.200 275.240,225.020 275.600,224.800 275.600 C 224.580 275.600,224.400 276.486,224.400 277.568 C 224.400 279.725,225.366 280.375,227.702 279.789 L 228.707 279.537 228.714 272.168 C 228.720 266.111,228.622 264.800,228.161 264.800 C 227.852 264.800,227.600 264.620,227.600 264.400 C 227.600 264.180,227.870 264.000,228.200 264.000 C 228.661 264.000,228.800 263.489,228.800 261.800 C 228.800 260.111,228.661 259.600,228.200 259.600 C 227.870 259.600,227.600 259.420,227.600 259.200 C 227.600 258.980,227.870 258.800,228.200 258.800 C 228.925 258.800,229.063 255.223,228.365 254.525 C 228.052 254.212,228.052 254.015,228.365 253.822 C 229.071 253.385,228.923 249.600,228.200 249.600 C 227.870 249.600,227.600 249.420,227.600 249.200 C 227.600 248.980,227.879 248.800,228.220 248.800 C 228.722 248.800,228.817 248.362,228.720 246.500 C 228.617 244.517,228.498 244.217,227.860 244.327 C 227.416 244.403,227.225 244.283,227.383 244.027 C 227.529 243.792,227.890 243.600,228.187 243.600 C 228.609 243.600,228.726 242.556,228.726 238.771 C 228.726 234.785,228.628 233.981,228.163 234.159 C 227.853 234.278,227.600 234.201,227.600 233.987 C 227.600 233.774,227.150 233.600,226.600 233.600 C 226.050 233.600,225.600 233.774,225.600 233.987 M245.200 233.956 C 245.200 234.151,244.885 234.286,244.500 234.256 C 243.952 234.212,243.773 234.568,243.677 235.900 C 243.593 237.057,243.370 237.600,242.977 237.600 C 242.660 237.600,242.400 237.774,242.400 237.987 C 242.400 238.201,242.130 238.271,241.800 238.145 C 241.384 237.985,241.200 238.172,241.200 238.757 C 241.200 239.221,241.020 239.600,240.800 239.600 C 240.580 239.600,240.400 239.973,240.400 240.429 C 240.400 241.307,239.452 242.519,239.067 242.133 C 238.563 241.629,237.600 243.230,237.600 244.571 C 237.600 245.423,237.398 246.019,237.100 246.046 C 236.825 246.072,236.330 246.117,236.000 246.146 C 235.567 246.185,235.366 246.785,235.279 248.302 C 235.158 250.404,235.158 250.404,233.945 250.190 C 232.962 250.017,232.691 250.131,232.519 250.788 C 232.402 251.235,232.128 251.600,231.910 251.600 C 231.690 251.600,231.587 252.237,231.679 253.026 C 231.827 254.293,231.756 254.429,231.044 254.243 C 229.775 253.911,229.200 254.723,229.200 256.849 C 229.200 258.317,229.349 258.800,229.800 258.800 C 230.130 258.800,230.400 258.980,230.400 259.200 C 230.400 259.420,230.670 259.600,231.000 259.600 C 231.376 259.600,231.600 259.980,231.600 260.618 C 231.600 261.841,233.241 263.600,234.382 263.600 C 235.046 263.600,235.200 263.857,235.200 264.967 C 235.200 266.944,235.559 267.600,236.643 267.600 C 237.474 267.600,237.600 267.788,237.600 269.029 C 237.600 270.801,238.349 271.591,240.071 271.632 C 240.802 271.649,241.175 271.754,240.900 271.865 C 240.308 272.104,240.219 274.000,240.800 274.000 C 241.020 274.000,241.200 274.346,241.200 274.768 C 241.200 275.297,241.575 275.619,242.400 275.800 C 243.486 276.039,243.600 276.213,243.600 277.642 C 243.600 279.484,244.746 280.196,247.021 279.770 C 249.661 279.274,249.117 274.800,246.417 274.800 C 245.747 274.800,245.600 274.543,245.600 273.371 C 245.600 271.683,244.852 270.800,243.421 270.800 C 242.515 270.800,242.416 270.674,242.636 269.800 C 243.021 268.264,242.512 266.800,241.592 266.800 C 241.157 266.800,240.800 266.601,240.800 266.357 C 240.800 266.114,240.530 266.018,240.200 266.145 C 239.870 266.271,239.600 266.216,239.600 266.021 C 239.600 265.826,239.811 265.596,240.068 265.511 C 240.689 265.304,239.613 262.800,238.902 262.800 C 238.626 262.800,238.400 262.620,238.400 262.400 C 238.400 262.180,238.040 262.000,237.600 262.000 C 236.987 262.000,236.800 261.733,236.800 260.861 C 236.800 259.514,235.536 257.896,234.727 258.207 C 234.284 258.377,234.194 258.112,234.323 257.013 C 234.413 256.236,234.672 255.600,234.897 255.600 C 235.659 255.600,236.800 253.884,236.800 252.739 C 236.800 251.867,236.987 251.600,237.600 251.600 C 238.040 251.600,238.400 251.420,238.400 251.200 C 238.400 250.980,238.625 250.799,238.900 250.797 C 239.620 250.792,240.502 248.742,240.000 248.240 C 239.178 247.418,239.594 246.800,240.968 246.800 C 242.451 246.800,243.170 245.396,242.603 243.609 C 242.389 242.937,242.524 242.800,243.402 242.800 C 244.851 242.800,245.600 241.924,245.600 240.229 C 245.600 239.050,245.745 238.800,246.429 238.800 C 247.973 238.800,248.931 237.157,248.537 235.185 C 248.347 234.234,248.138 234.029,247.548 234.217 C 247.136 234.347,246.800 234.262,246.800 234.027 C 246.800 233.792,246.440 233.600,246.000 233.600 C 245.560 233.600,245.200 233.760,245.200 233.956 M253.089 234.405 C 252.221 235.419,252.184 237.431,253.028 237.755 C 253.678 238.005,253.465 239.658,252.747 239.933 C 252.288 240.110,252.297 242.800,252.757 242.800 C 253.420 242.800,253.570 243.972,252.983 244.560 C 252.224 245.319,252.234 247.491,253.000 248.257 C 253.330 248.587,253.600 249.030,253.600 249.241 C 253.600 249.452,253.330 249.729,253.000 249.855 C 252.354 250.103,252.142 252.634,252.747 252.867 C 253.460 253.140,253.630 254.713,253.014 255.329 C 252.676 255.667,252.400 256.329,252.400 256.800 C 252.400 257.271,252.676 257.933,253.014 258.271 C 253.630 258.887,253.460 260.460,252.747 260.733 C 251.864 261.073,252.392 263.583,253.400 263.836 C 254.384 264.083,254.809 264.800,253.971 264.800 C 253.208 264.800,252.400 265.917,252.400 266.971 C 252.400 267.537,252.559 268.000,252.753 268.000 C 253.372 268.000,253.524 270.019,252.949 270.594 C 252.192 271.351,252.245 273.455,253.028 273.755 C 253.678 274.005,253.465 275.658,252.747 275.933 C 252.184 276.150,252.351 278.408,252.977 279.034 C 253.991 280.048,256.042 280.231,256.676 279.364 C 257.050 278.853,257.325 278.751,257.516 279.052 C 257.941 279.721,260.127 280.084,261.231 279.668 C 261.821 279.445,262.591 279.448,263.200 279.676 C 264.811 280.278,266.798 279.732,266.812 278.682 C 266.824 277.820,266.835 277.818,267.278 278.600 C 268.688 281.086,272.400 280.089,272.400 277.225 C 272.400 274.964,268.187 273.506,267.414 275.500 C 267.156 276.167,267.118 276.167,266.627 275.500 C 266.070 274.744,263.200 274.492,263.200 275.200 C 263.200 275.420,262.840 275.600,262.400 275.600 C 261.960 275.600,261.600 275.420,261.600 275.200 C 261.600 274.980,260.880 274.800,260.000 274.800 C 259.120 274.800,258.400 274.980,258.400 275.200 C 258.400 275.420,258.059 275.600,257.643 275.600 C 256.630 275.600,256.178 274.352,256.978 273.766 C 257.633 273.287,257.855 270.800,257.243 270.800 C 256.580 270.800,256.430 269.628,257.017 269.040 C 258.173 267.884,257.454 264.800,256.029 264.800 C 255.191 264.800,255.616 264.083,256.600 263.836 C 257.785 263.538,258.062 260.881,257.000 260.000 C 256.305 259.423,256.277 259.215,256.784 258.413 C 257.096 257.919,257.277 257.966,257.924 258.713 C 258.696 259.602,260.800 259.959,260.800 259.200 C 260.800 258.980,261.430 258.800,262.200 258.800 C 262.970 258.800,263.600 258.991,263.600 259.225 C 263.600 260.107,266.166 259.431,266.669 258.417 L 267.157 257.434 267.568 258.517 C 268.118 259.963,270.023 260.013,271.418 258.618 C 272.367 257.669,272.786 255.600,272.029 255.600 C 271.825 255.600,271.598 255.285,271.524 254.900 C 271.388 254.192,268.400 253.804,268.400 254.494 C 268.400 254.662,268.130 254.800,267.800 254.800 C 267.470 254.800,267.197 255.115,267.194 255.500 C 267.190 256.018,267.059 255.945,266.690 255.216 C 266.201 254.249,263.200 253.602,263.200 254.464 C 263.200 254.881,261.842 254.908,261.433 254.500 C 260.815 253.882,258.595 254.178,257.877 254.973 C 257.264 255.654,257.100 255.686,256.787 255.187 C 256.390 254.555,256.685 253.085,257.253 252.867 C 257.858 252.634,257.646 250.103,257.000 249.855 C 256.670 249.729,256.400 249.452,256.400 249.241 C 256.400 249.030,256.670 248.587,257.000 248.257 C 257.642 247.615,257.839 244.800,257.243 244.800 C 256.580 244.800,256.430 243.628,257.017 243.040 C 257.671 242.387,257.811 240.139,257.212 239.933 C 256.649 239.740,256.518 237.917,257.054 237.726 C 257.303 237.637,257.785 237.842,258.125 238.182 C 258.805 238.862,261.600 239.038,261.600 238.400 C 261.600 238.180,261.960 238.000,262.400 238.000 C 262.840 238.000,263.200 238.180,263.200 238.400 C 263.200 239.437,266.328 238.815,266.717 237.700 L 267.101 236.600 267.394 237.700 C 267.690 238.814,270.800 239.453,270.800 238.400 C 270.800 238.180,271.160 238.000,271.600 238.000 C 272.251 238.000,272.400 237.733,272.400 236.571 C 272.400 235.196,271.559 233.774,271.048 234.286 C 270.911 234.422,270.800 234.323,270.800 234.067 C 270.800 232.900,268.056 233.627,267.278 235.000 C 266.841 235.770,266.824 235.764,266.812 234.857 C 266.804 234.186,266.627 233.981,266.200 234.145 C 265.870 234.271,265.600 234.201,265.600 233.987 C 265.600 233.774,265.150 233.600,264.600 233.600 C 264.050 233.600,263.600 233.748,263.600 233.928 C 263.600 234.109,262.970 234.246,262.200 234.233 C 261.430 234.220,260.800 234.072,260.800 233.905 C 260.800 233.737,260.440 233.600,260.000 233.600 C 259.560 233.600,259.200 233.799,259.200 234.043 C 259.200 234.292,258.908 234.374,258.532 234.229 C 258.165 234.088,257.711 234.204,257.525 234.486 C 257.261 234.885,257.093 234.844,256.773 234.300 C 256.194 233.317,253.966 233.381,253.089 234.405 M276.900 233.865 C 276.625 233.976,276.400 234.412,276.400 234.833 C 276.400 235.255,276.220 235.600,276.000 235.600 C 275.780 235.600,275.600 235.870,275.600 236.200 C 275.600 236.530,275.780 236.800,276.000 236.800 C 276.220 236.800,276.400 236.993,276.400 237.229 C 276.400 238.665,280.050 239.490,280.557 238.167 C 281.088 236.784,280.832 233.902,280.200 234.145 C 279.870 234.271,279.600 234.201,279.600 233.987 C 279.600 233.589,277.789 233.506,276.900 233.865 M282.400 233.987 C 282.400 234.201,282.130 234.271,281.800 234.145 C 281.168 233.902,280.912 236.784,281.443 238.167 C 281.758 238.989,284.245 239.012,285.057 238.200 C 285.933 237.325,286.400 237.464,286.400 238.600 C 286.400 239.150,286.220 239.600,286.000 239.600 C 285.071 239.600,285.592 242.499,286.700 243.500 C 287.305 244.047,287.574 244.371,287.297 244.221 C 285.770 243.394,284.924 247.336,286.400 248.400 C 286.840 248.717,287.200 249.105,287.200 249.261 C 287.200 249.418,286.840 249.660,286.400 249.800 C 285.222 250.174,285.273 252.925,286.474 253.767 L 287.347 254.378 286.474 255.136 C 285.993 255.553,285.600 256.302,285.600 256.800 C 285.600 257.298,285.993 258.047,286.474 258.464 L 287.347 259.222 286.474 259.833 C 285.139 260.768,285.225 263.491,286.600 263.836 C 287.584 264.083,288.009 264.800,287.171 264.800 C 285.608 264.800,284.995 268.187,286.378 269.184 C 287.148 269.739,287.148 269.751,286.378 270.419 C 285.315 271.341,285.329 273.460,286.400 273.800 C 286.840 273.940,287.200 274.182,287.200 274.339 C 287.200 274.495,286.840 274.883,286.400 275.200 C 284.259 276.743,286.109 280.294,288.792 279.790 C 290.832 279.408,291.642 275.861,289.944 274.743 C 289.496 274.449,289.512 274.319,290.035 274.009 C 290.873 273.513,290.955 271.012,290.159 270.216 C 289.820 269.877,289.720 269.600,289.936 269.600 C 290.448 269.600,290.940 266.672,290.605 265.617 C 290.462 265.166,290.000 264.800,289.573 264.800 C 288.497 264.800,288.601 264.084,289.700 263.928 C 290.762 263.777,291.015 260.227,290.008 259.605 C 289.570 259.334,289.593 259.150,290.135 258.608 C 290.501 258.242,290.800 257.429,290.800 256.800 C 290.800 256.171,290.501 255.358,290.135 254.992 C 289.692 254.549,289.614 254.238,289.903 254.060 C 291.188 253.266,290.932 249.600,289.592 249.600 C 289.157 249.600,288.800 249.420,288.800 249.200 C 288.800 248.980,289.140 248.800,289.557 248.800 C 290.035 248.800,290.408 248.423,290.570 247.776 C 290.885 246.524,290.454 244.000,289.927 244.000 C 289.716 244.000,289.826 243.717,290.171 243.371 C 290.985 242.558,291.005 240.053,290.200 239.745 C 289.870 239.618,289.600 239.193,289.600 238.800 C 289.600 237.822,290.860 237.394,291.434 238.178 C 291.936 238.866,294.800 239.055,294.800 238.400 C 294.800 238.180,295.160 238.000,295.600 238.000 C 296.040 238.000,296.400 238.180,296.400 238.400 C 296.400 239.026,299.189 238.869,299.852 238.205 C 300.728 237.329,300.447 234.180,299.500 234.256 C 299.115 234.286,298.800 234.151,298.800 233.956 C 298.800 233.760,298.440 233.600,298.000 233.600 C 297.560 233.600,297.200 233.737,297.200 233.905 C 297.200 234.072,296.570 234.220,295.800 234.233 C 295.030 234.246,294.400 234.098,294.400 233.904 C 294.400 232.990,291.429 233.810,291.156 234.800 C 291.004 235.350,290.862 235.588,290.840 235.329 C 290.729 234.023,287.200 232.758,287.200 234.024 C 287.200 234.257,287.035 234.345,286.834 234.221 C 286.633 234.097,286.377 234.221,286.265 234.498 C 286.106 234.888,285.975 234.877,285.675 234.449 C 285.463 234.146,285.089 234.021,284.845 234.172 C 284.600 234.324,284.400 234.257,284.400 234.024 C 284.400 233.791,283.950 233.600,283.400 233.600 C 282.850 233.600,282.400 233.774,282.400 233.987 M201.233 238.800 C 202.095 238.800,202.800 238.620,202.800 238.400 C 202.800 238.180,203.160 238.000,203.600 238.000 C 204.040 238.000,204.400 238.180,204.400 238.400 C 204.400 238.985,207.502 238.895,207.699 238.304 C 207.889 237.732,209.200 238.839,209.200 239.571 C 209.200 239.807,209.813 240.000,210.563 240.000 C 211.715 240.000,211.894 240.120,211.722 240.777 C 211.591 241.278,211.900 241.937,212.590 242.627 C 213.404 243.440,213.601 243.940,213.411 244.701 C 213.012 246.288,213.542 248.000,214.432 248.000 C 214.854 248.000,215.200 248.180,215.200 248.400 C 215.200 248.620,214.863 248.800,214.450 248.800 C 213.584 248.800,213.087 250.536,213.444 252.319 C 213.621 253.203,213.451 253.600,212.634 254.214 C 212.055 254.648,211.600 255.389,211.600 255.895 C 211.600 256.587,211.371 256.800,210.627 256.800 C 210.003 256.800,209.562 257.089,209.398 257.606 C 209.257 258.049,208.975 258.308,208.771 258.182 C 208.567 258.056,208.400 258.323,208.400 258.776 C 208.400 259.484,208.150 259.600,206.626 259.600 C 205.650 259.600,204.390 259.776,203.826 259.990 C 203.159 260.244,202.800 260.244,202.800 259.990 C 202.800 258.889,199.200 259.589,199.154 260.700 C 199.119 261.523,199.060 261.598,198.920 261.000 C 198.817 260.560,198.456 259.984,198.117 259.720 C 197.566 259.290,197.569 259.174,198.151 258.592 C 199.007 257.735,199.045 254.800,198.200 254.800 C 197.870 254.800,197.600 254.639,197.600 254.443 C 197.600 254.246,197.870 253.982,198.200 253.855 C 199.080 253.518,199.022 250.164,198.128 249.664 C 197.498 249.311,197.498 249.245,198.128 248.615 C 199.445 247.297,198.838 243.766,197.368 244.199 C 196.842 244.354,196.886 244.274,197.509 243.947 C 198.597 243.375,198.980 242.089,198.659 240.081 C 198.529 239.267,198.539 238.155,198.681 237.610 L 198.940 236.621 199.303 237.710 C 199.616 238.649,199.883 238.800,201.233 238.800 M176.725 238.668 C 177.211 239.154,177.257 239.381,176.896 239.501 C 176.271 239.710,176.242 241.481,176.860 241.687 C 177.114 241.771,177.409 242.911,177.517 244.220 C 177.652 245.860,177.944 246.801,178.457 247.247 C 179.259 247.945,179.448 248.800,178.800 248.800 C 178.580 248.800,178.400 249.250,178.400 249.800 C 178.400 250.350,178.580 250.800,178.800 250.800 C 179.020 250.800,179.200 251.070,179.200 251.400 C 179.200 251.730,179.470 252.000,179.800 252.000 C 180.130 252.000,180.400 252.180,180.400 252.400 C 180.400 252.620,180.220 252.800,180.000 252.800 C 179.221 252.800,179.553 255.789,180.400 256.400 C 181.041 256.862,181.200 257.435,181.200 259.288 C 181.200 261.197,181.318 261.600,181.880 261.600 C 182.409 261.600,182.453 261.707,182.080 262.080 C 181.500 262.660,181.437 264.800,182.000 264.800 C 182.220 264.800,182.400 265.053,182.400 265.362 C 182.400 265.782,182.015 265.872,180.872 265.719 C 179.767 265.571,179.157 265.700,178.672 266.186 C 178.061 266.796,177.943 266.800,177.371 266.229 C 176.546 265.403,174.631 265.426,173.785 266.272 C 173.155 266.902,173.089 266.902,172.736 266.272 C 172.317 265.523,170.379 265.369,169.213 265.993 C 168.596 266.323,168.512 266.259,168.686 265.593 C 168.800 265.157,169.052 264.800,169.247 264.800 C 169.812 264.800,169.667 262.003,169.100 261.975 C 168.825 261.961,168.979 261.796,169.443 261.609 C 170.367 261.235,170.941 259.302,170.569 257.818 C 170.431 257.270,170.589 256.668,170.971 256.286 C 171.660 255.598,171.843 252.800,171.200 252.800 C 170.980 252.800,170.800 252.620,170.800 252.400 C 170.800 252.180,171.140 252.000,171.557 252.000 C 172.460 252.000,172.958 250.431,172.589 248.749 C 172.394 247.862,172.481 247.600,172.968 247.600 C 173.468 247.600,173.600 247.136,173.600 245.371 C 173.600 243.878,173.808 242.935,174.229 242.514 C 174.611 242.132,174.824 241.318,174.773 240.443 C 174.618 237.798,175.266 237.209,176.725 238.668 M141.200 269.200 C 141.200 269.420,140.840 269.600,140.400 269.600 C 139.960 269.600,139.600 269.420,139.600 269.200 C 139.600 268.980,139.960 268.800,140.400 268.800 C 140.840 268.800,141.200 268.980,141.200 269.200 " stroke="none" fill="#1c1c1c" fill-rule="evenodd"></path><path id="path1" d="" stroke="none" fill="#201c1c" fill-rule="evenodd"></path><path id="path2" d="" stroke="none" fill="#201c1c" fill-rule="evenodd"></path><path id="path3" d="" stroke="none" fill="#201c1c" fill-rule="evenodd"></path><path id="path4" d="" stroke="none" fill="#201c1c" fill-rule="evenodd"></path></g></svg>