<?xml version="1.0" encoding="UTF-8"?> <svg xmlns="http://www.w3.org/2000/svg" data-name="Layer 1" viewBox="0 0 300 300"><path d="M158.81 165.66h25.81v-3.15h-21.39v-10.09h16.06v-3.19h-16.06v-9.29h21.39v-3.15h-25.81v28.87M172.22 132.13l-3.5 3.92 10.97-3.92h-7.47M227.94 162.51v-25.72h-4.03v28.87H250v-3.15h-22.06M201.34 136.79l-14.68 28.87h5l3.76-7.47H213l3.79 7.47h4.91L207 136.79h-5.65m-4.1 17.78l6.91-13.79 7 13.79zM144.8 153.59c6.62-1.77 7.26-6.69 7.22-8.44-.39-5.16-3.86-8.36-10.11-8.36h-18.19v28.87h4.15v-12.11h11.84l8.71 12.11h5.23s-6.27-8.15-8.85-12.07m-3.45-3.45h-13.48v-9.93h13.95c3.21 0 5 1.5 5.66 3.4a5.36 5.36 0 0 1-.55 4.19c-1.17 1.93-3.38 2.34-5.58 2.34zM98.8 131.91c-11.71 0-19.69 8.25-19.69 18.24 0 10.52 8.81 17.94 19.69 17.94s19.67-7.32 19.67-17.94c0-10-8.08-18.24-19.67-18.24m-.14 32.6a14.51 14.51 0 1 1 15.08-14.35c0 7.84-6.99 14.35-15.08 14.35zM68.67 147h2.99l5.43-10.21h-4.37L68.67 147M54.04 162.51v-25.72H50v28.87h26.09v-3.15H54.04"></path></svg> 