<?xml version="1.0" encoding="UTF-8"?> <svg xmlns="http://www.w3.org/2000/svg" data-name="Layer 1" viewBox="0 0 300 300"><path d="M219.87 136a8.59 8.59 0 0 1-4 .36l-.36.68a74.23 74.23 0 0 1-9.5 14.11 29 29 0 0 1-4.74 4.46 12.43 12.43 0 0 1-2.87 1.65 9.29 9.29 0 0 1-1.56.45 3.22 3.22 0 0 1-3.24-1.19 5.13 5.13 0 0 1-1.11-3.6 4.65 4.65 0 0 0 0-.91l-.33.43a26 26 0 0 1-3.28 3.9 10.22 10.22 0 0 1-2.43 1.8 4.46 4.46 0 0 1-2.73.53 3.34 3.34 0 0 1-2.26-1.37 5.32 5.32 0 0 1-1.05-3v-1.32l-.38.46a25.14 25.14 0 0 1-3.52 3.91 10.88 10.88 0 0 1-2.56 1.73 5.57 5.57 0 0 1-2.4.6 3.28 3.28 0 0 1-2.78-1.43 5.44 5.44 0 0 1-.93-3.77v-.27a1.31 1.31 0 0 0 0-.14c-.13.17-.24.29-.33.43a24.57 24.57 0 0 1-2.88 3.39 12 12 0 0 1-2.4 1.86 6.23 6.23 0 0 1-2.33.85 2.37 2.37 0 0 1-2.17-.73 4.74 4.74 0 0 1-1.32-3 15.82 15.82 0 0 1 .07-2.06v-.48l-.47.58a33.8 33.8 0 0 1-3.36 3.91 11.56 11.56 0 0 1-3.06 2.23 5.52 5.52 0 0 1-2.74.54 4.23 4.23 0 0 1-2.83-1.34 6.59 6.59 0 0 1-1.72-4.25c-.05-.61 0-1.23 0-1.9-.25.1-.32.3-.42.45a40.88 40.88 0 0 1-3.28 4.26 15.37 15.37 0 0 1-2.92 2.66 12.66 12.66 0 0 1-1.81 1 4 4 0 0 1-2.4.22 3.3 3.3 0 0 1-2.54-2.8 6.51 6.51 0 0 1 .06-2.37.6.6 0 0 0 0-.37l-.33.39a28.88 28.88 0 0 1-3.72 3.94 11.87 11.87 0 0 1-2.67 1.76 4.78 4.78 0 0 1-3.07.38 3.23 3.23 0 0 1-2-1.33 4.76 4.76 0 0 1-.73-3.48 1.17 1.17 0 0 0 0-.49l-.34.39a29.16 29.16 0 0 1-3.56 3.81 11.12 11.12 0 0 1-2.44 1.7 4.19 4.19 0 0 1-2.91.31 3.7 3.7 0 0 1-2.73-3.47v-1.76l-.39.47a28.6 28.6 0 0 1-3.16 3.35 12.06 12.06 0 0 1-2.78 1.88 5.65 5.65 0 0 1-2 .57 3.32 3.32 0 0 1-3.87-3.35 10.75 10.75 0 0 1 .59-3.63 26.22 26.22 0 0 1 2-4.52c1-1.9 2.06-3.78 3.07-5.68a11.69 11.69 0 0 0 1.24-3.12 3.19 3.19 0 0 0 .08-.75c0-.46-.22-.74-.68-.74a5.48 5.48 0 0 0-1.34.18 8.2 8.2 0 0 0-2.57 1.38 20.1 20.1 0 0 0-4 4.07 24.74 24.74 0 0 0-2.9 5c-1.39 3.2-2.82 6.39-4.2 9.59a2.45 2.45 0 0 1-2.37 1.66c-.77 0-1.55.14-2.33.19-1 .06-1.25-.32-.85-1.21.57-1.27 1.19-2.52 1.79-3.78q4.64-9.65 9.25-19.29c.11-.23.22-.46.34-.67a1.92 1.92 0 0 1 1.47-1c.68-.09 1.36-.16 2-.19s.89.33.7 1a9.71 9.71 0 0 1-.43 1 24.63 24.63 0 0 0-1 2.29 3.71 3.71 0 0 0 .29-.27 28.32 28.32 0 0 1 4.35-3.73 11.57 11.57 0 0 1 3.85-1.83 6.36 6.36 0 0 1 3.64.13 3.22 3.22 0 0 1 2.2 3.62 11.41 11.41 0 0 1-.86 3 56.34 56.34 0 0 1-3 5.89c-.8 1.44-1.6 2.88-2.37 4.34a7.68 7.68 0 0 0-.92 3c-.09 1.22.59 1.81 1.78 1.52a3.36 3.36 0 0 0 1.55-.87 21.46 21.46 0 0 0 1.93-2.12 66.46 66.46 0 0 0 6.64-10.75c1.09-2.19 2.19-4.37 3.25-6.57a2.39 2.39 0 0 1 2.27-1.48c.47 0 .93-.09 1.4-.1.69 0 .93.31.73 1a7.12 7.12 0 0 1-.31.76q-3.58 7.94-7.17 15.88a6.39 6.39 0 0 0-.52 1.64 1.4 1.4 0 0 0 1.37 1.72 2.32 2.32 0 0 0 1.83-.52 12.29 12.29 0 0 0 1.55-1.51 40 40 0 0 0 4.53-6.63c1.51-2.74 2.79-5.6 4.12-8.44l.56-1.21-1.59.1h-.38c-.36 0-.58-.25-.43-.57a22.08 22.08 0 0 1 1.1-2.17 1.41 1.41 0 0 1 1.18-.59l1.69-.13c.1-.18.19-.36.27-.53l5.91-12.41c.09-.19.18-.39.29-.58a2.07 2.07 0 0 1 1.69-1.12c.63-.07 1.26-.1 1.9-.14a1.53 1.53 0 0 1 .37 0c.36.06.54.24.49.59a3.33 3.33 0 0 1-.28.93l-4.12 9.28c-.45 1-.91 2-1.35 3a5.73 5.73 0 0 0-.23.56l2.51-.19c.34 0 .69-.06 1-.06a.6.6 0 0 1 .59.91 11.7 11.7 0 0 1-.56 1.12 2.35 2.35 0 0 1-1.89 1.23c-.88.09-1.77.17-2.65.21a.77.77 0 0 0-.77.53c-2.09 4.72-4.19 9.42-6.29 14.14a3.76 3.76 0 0 0-.4 1.62 1.4 1.4 0 0 0 1 1.37 1.93 1.93 0 0 0 1.78 0 10.06 10.06 0 0 0 1.57-1.15 20.46 20.46 0 0 0 2.56-3 72.42 72.42 0 0 0 6.61-10.9c.85-1.72 1.74-3.42 2.58-5.15a2.27 2.27 0 0 1 1.93-1.38c.54 0 1.08-.1 1.62-.13.77 0 1 .33.78 1.06a5.42 5.42 0 0 1-.26.6q-3.72 8.07-7.45 16.12c-.14.31-.28.63-.39 1a1.64 1.64 0 0 0 .38 1.81 1.75 1.75 0 0 0 1.93.32 3.85 3.85 0 0 0 1.25-.83 12.75 12.75 0 0 0 1.57-1.87q2.06-3.16 4-6.38A63.53 63.53 0 0 1 148 142a34 34 0 0 1 6.38-6.41 10.74 10.74 0 0 1 4.38-2.07 5.67 5.67 0 0 1 2.59 0 3.73 3.73 0 0 1 2.78 3.09c.07.31.11.63.17 1 .11-.21.19-.34.26-.48l.78-1.85a2.29 2.29 0 0 1 2.13-1.51l1.62-.12a2.67 2.67 0 0 1 .49 0c.41 0 .6.25.55.65a3.89 3.89 0 0 1-.27.88q-1.68 3.82-3.38 7.65c-1.22 2.76-2.45 5.52-3.66 8.29a8.19 8.19 0 0 0-.48 1.55 1.46 1.46 0 0 0 .51 1.61 1.57 1.57 0 0 0 1.79.14 4.77 4.77 0 0 0 1.26-.91 21.66 21.66 0 0 0 2-2.48 90.93 90.93 0 0 0 6-10.51c.38-.78.66-1.61 1-2.41.25-.58.53-1.14.84-1.78l-1.39.08c-.26 0-.55.13-.75-.15s0-.52.12-.75c.22-.48.47-.94.69-1.42a1.65 1.65 0 0 1 1.5-1c.38 0 .76-.09 1.14-.09a.62.62 0 0 0 .64-.44c.83-1.76 1.67-3.5 2.5-5.25 1.18-2.48 2.38-5 3.54-7.45a2.4 2.4 0 0 1 2.31-1.57c.51 0 1-.09 1.52-.11.78 0 1 .3.76 1a5.31 5.31 0 0 1-.23.55q-2.69 6.27-5.4 12.27c-.07.17-.15.35-.25.6h.48l2.17-.17c.32 0 .65-.06 1-.06a.57.57 0 0 1 .58.81 8.6 8.6 0 0 1-.81 1.53 2.19 2.19 0 0 1-1.64 1c-.86.09-1.73.16-2.6.21a.91.91 0 0 0-.93.62c-2 4.56-4 9.1-6 13.65a6.48 6.48 0 0 0-.44 1.33 1.77 1.77 0 0 0 2.35 2.14 3.87 3.87 0 0 0 1.11-.56 9.45 9.45 0 0 0 1.27-1.18c.54-.61 1-1.25 1.52-1.91a75.5 75.5 0 0 0 6.84-11.77c.74-1.57 1.53-3.12 2.25-4.7a2.37 2.37 0 0 1 2.25-1.58c.51 0 1-.09 1.52-.1s.86.3.69.91a5.12 5.12 0 0 1-.25.65q-3.4 7.85-6.82 15.69a6.62 6.62 0 0 0-.53 1.81 1.56 1.56 0 0 0 2.31 1.71 4.59 4.59 0 0 0 1.39-1 26.89 26.89 0 0 0 2.14-2.52 82.36 82.36 0 0 0 7.58-12.41c.7-1.42 1.44-2.84 2.16-4.26a2.23 2.23 0 0 1 1.55-1.33 17.86 17.86 0 0 1 2.32-.22c.55 0 .77.36.58.88-.11.29-.25.56-.38.84-2.38 4.88-4.77 9.76-7.12 14.65-.44.93-.77 1.91-1.12 2.88a1.79 1.79 0 0 0-.06.8 1 1 0 0 0 1.26 1 2.83 2.83 0 0 0 1.36-.51 20.08 20.08 0 0 0 1.63-1.25 29.35 29.35 0 0 0 4.22-4.82 49.67 49.67 0 0 0 5.59-10.15.89.89 0 0 0-.06-.81 5.14 5.14 0 0 1-.08-5 3.52 3.52 0 0 1 3-1.93 2.26 2.26 0 0 1 2.56 1.7 6.34 6.34 0 0 1 .16 3.06c-.12.64-.29 1.27-.46 2 .13 0 .27.08.42.1a6.64 6.64 0 0 0 3.41-.47 12.07 12.07 0 0 0 3.17-2 20.09 20.09 0 0 1 5.16-3.38 9 9 0 0 1 3.41-.8 5.48 5.48 0 0 1 2.23.4 3.16 3.16 0 0 1 2.07 3 5.34 5.34 0 0 1-.65 2.6 9.09 9.09 0 0 1-1.93 2.54 13.51 13.51 0 0 1-5.79 3.31 4.71 4.71 0 0 1-2.78-.06 3.29 3.29 0 0 1-.91-.56.59.59 0 0 1-.12-.49c0-.07.27-.13.42-.13.43 0 .87.08 1.3.06a4.94 4.94 0 0 0 2.48-.87 10.3 10.3 0 0 0 3.88-4.84 2.35 2.35 0 0 0 .19-1.48 1.19 1.19 0 0 0-.91-.91 2.2 2.2 0 0 0-1.39.07 12.84 12.84 0 0 0-1.76.83 13.37 13.37 0 0 0-2.72 2.32 27 27 0 0 0-5.77 9.24 10.36 10.36 0 0 0-.68 3 6.67 6.67 0 0 0 .1 1.67 2.82 2.82 0 0 0 2.67 2.31 7.51 7.51 0 0 0 3.26-.38 17.26 17.26 0 0 0 5.74-3.35 30.31 30.31 0 0 0 5.72-6.5 6.12 6.12 0 0 1 .5-.64.32.32 0 0 1 .29-.07.4.4 0 0 1 .18.29 2 2 0 0 1-.12.63 8.79 8.79 0 0 1-.43.94 41.26 41.26 0 0 1-7.05 9.79 20.75 20.75 0 0 1-6 4.45 9.68 9.68 0 0 1-2.74.84 6.36 6.36 0 0 1-6.86-3.85 8.15 8.15 0 0 1-.6-4.62 17.53 17.53 0 0 1 1.88-5.58 31 31 0 0 1 3.38-5.24zm-58.19 3.81c0-.35 0-.69-.07-1a2.8 2.8 0 0 0-.17-.63 1.45 1.45 0 0 0-1.57-1.07 4.17 4.17 0 0 0-1.85.57 10.7 10.7 0 0 0-2.44 1.89 28.91 28.91 0 0 0-5.38 7.79 19.3 19.3 0 0 0-1.54 4.1 6.24 6.24 0 0 0-.18 2.58 1.84 1.84 0 0 0 2.69 1.58 5.47 5.47 0 0 0 1-.48 8.33 8.33 0 0 0 1.2-.84 25.58 25.58 0 0 0 7.56-10.7 11.52 11.52 0 0 0 .75-3.83zM85.56 127.27c-.7 0-1.4.08-2.1.15a28.32 28.32 0 0 0-18.5 9 23 23 0 0 0-5.62 9.3 20.22 20.22 0 0 0 .24 13.17 11 11 0 0 0 1.71 3.11 1.13 1.13 0 0 1 .12.18.62.62 0 0 1-.13.74.54.54 0 0 1-.75 0 10.58 10.58 0 0 1-.83-.93 15.59 15.59 0 0 1-2.7-5.92 23.54 23.54 0 0 1 7.39-23.58 27.47 27.47 0 0 1 14-6.53 43.61 43.61 0 0 1 8.39-.45h.48a1 1 0 0 0 .85-.27 19 19 0 0 1 3.89-2.45 11.67 11.67 0 0 1 6-1 3.8 3.8 0 0 1 1.64.55 2.09 2.09 0 0 1 .57 3.26 4 4 0 0 1-1.41 1.08 8.06 8.06 0 0 1-3.8.75c-1.38 0-2.75-.09-4.13-.17a1.29 1.29 0 0 0-1.24.53 45.19 45.19 0 0 0-3.69 5.3c-1.9 3.13-3.49 6.43-5.21 9.65-2.28 4.26-4.23 8.68-6.29 13.06a109.45 109.45 0 0 1-6.84 12.65 40.41 40.41 0 0 1-6.19 7.67 21.32 21.32 0 0 1-9.54 5.38l-1.11.26c-.39.07-.66-.06-.76-.35a.62.62 0 0 1 .39-.79c.66-.34 1.34-.65 2-1a23.66 23.66 0 0 0 8.8-8.52 60.2 60.2 0 0 0 3.79-7.2c1.69-3.74 3.3-7.52 5-11.26s3.48-7.56 5.36-11.27a52.75 52.75 0 0 1 9.36-13.07c.28-.29.58-.58.88-.87zm6.11-1.45c.46 0 .89.09 1.31.11 1.18.07 2.35.16 3.52.16a3.77 3.77 0 0 0 2.38-.77 1.2 1.2 0 0 0 .6-1.19c-.11-.51-.55-.69-1-.83a4.15 4.15 0 0 0-1.72-.1 9.58 9.58 0 0 0-5 2.43 1.65 1.65 0 0 0-.09.19zM240.23 160.85c-2.8.05-5.64.24-8.47.54-3.27.36-6.55.71-9.81 1.14-3.84.52-7.67 1.07-11.49 1.7q-9.27 1.53-18.51 3.2c-5.59 1-11.15 2.14-16.74 3.17-5 .93-10 1.83-15 2.67-3.89.66-7.79 1.25-11.69 1.8-3.24.47-6.5.88-9.75 1.24-3.58.4-7.16.76-10.75 1.05q-7.12.57-14.27.59h-8.53c-3.53-.07-7.05-.28-10.57-.6a97.67 97.67 0 0 1-12.5-1.88 42 42 0 0 1-7.62-2.47c-.44-.19-.88-.42-1.31-.64a1.26 1.26 0 0 1-.36-.24.53.53 0 0 1 .52-.89.76.76 0 0 1 .16.06 28.72 28.72 0 0 0 6.4 2 78.87 78.87 0 0 0 9.55 1.44 149.09 149.09 0 0 0 17.68.6c4.06-.09 8.11-.27 12.15-.58 2.57-.2 5.13-.38 7.69-.6s5-.46 7.51-.71c2.24-.22 4.47-.44 6.7-.69 2.54-.29 5.07-.61 7.6-.94 2.22-.28 4.45-.58 6.67-.91q4.72-.69 9.44-1.45c3.54-.58 7.06-1.19 10.6-1.8 3.2-.55 6.41-1.13 9.62-1.67s6.42-1.08 9.64-1.59q4.05-.65 8.1-1.24c2.74-.4 5.48-.79 8.23-1.15 2.45-.33 4.91-.65 7.38-.94 2.22-.26 4.46-.5 6.69-.69 2.6-.23 5.2-.44 7.8-.6a80.18 80.18 0 0 1 11 0 18.19 18.19 0 0 1 3.8.64 4.45 4.45 0 0 1 1.69.83 1.31 1.31 0 0 1 .54 1.28.9.9 0 0 1-.23.48.5.5 0 0 1-.43.08c-.1 0-.15-.21-.23-.33.21-.62-.22-.86-.66-1.06a8 8 0 0 0-2.3-.59 39.89 39.89 0 0 0-5.94-.25z"></path><path d="M119.49 133a1.61 1.61 0 0 1-.22 0 1.57 1.57 0 0 1-1.64-1.89 4.91 4.91 0 0 1 3.57-4 4.7 4.7 0 0 1 1.35 0 1.47 1.47 0 0 1 1.34 1.63A4.85 4.85 0 0 1 120 133a4 4 0 0 1-.49 0zM144.09 131.13c-1.51 0-2.23-.78-1.88-2.23a4.87 4.87 0 0 1 2.65-3.4 3.41 3.41 0 0 1 2.37-.28 1.42 1.42 0 0 1 1.15 1.45.43.43 0 0 1 0 .16 4.72 4.72 0 0 1-4.29 4.3zM199 122.9a3.25 3.25 0 0 1-.05.44 5.12 5.12 0 0 1-2.24 3.21 3.54 3.54 0 0 1-2.7.54 1.39 1.39 0 0 1-1.24-1.48 3 3 0 0 1 .12-.9 5 5 0 0 1 2.59-3.19 3.68 3.68 0 0 1 2.12-.33 1.5 1.5 0 0 1 1.4 1.71z"></path></svg> 