<?xml version="1.0" encoding="UTF-8"?> <svg xmlns="http://www.w3.org/2000/svg" id="Layer_1" data-name="Layer 1" viewBox="0 0 300 300"><defs><style>.cls-3{fill:#e41e2e;fill-rule:evenodd}</style></defs><path d="M221.18 160.36a1.23 1.23 0 0 1 1.39 1.21 1 1 0 0 1-.95 1v-.06c.22 0 .4.26.5.49l.76 1.75h-.63l-.74-1.63a.47.47 0 0 0-.53-.36h-.49v2h-.58v-4.41zm-.69 1.91h.51c.63 0 .94-.37.94-.7s-.07-.7-.8-.7h-.67v1.4zm.77-3.47h0a3.75 3.75 0 1 1-3.74 3.74 3.75 3.75 0 0 1 3.74-3.74zm0 7h0a3.24 3.24 0 1 0-3.24-3.24 3.21 3.21 0 0 0 3.24 3.24z" stroke="#e41e2e" stroke-miterlimit="2.61" stroke-width=".08" fill="#e41e2e"></path><path d="M93.17 131.37a4 4 0 0 1-1.12-1.7 5.93 5.93 0 0 1-.43-1.79 6.19 6.19 0 0 1 3.15-5.42 3.27 3.27 0 0 0 1.13-.83.53.53 0 0 0-.17 0 4.59 4.59 0 0 1-3.91-1.63 4.11 4.11 0 0 1-.8-2.53 5.8 5.8 0 0 1 .19-1.46c.63-1 1.22-.75 1.59-.22a6.45 6.45 0 0 0 3.78 1.63 3.47 3.47 0 0 1 2.59 1.39 3.65 3.65 0 0 1 .64 2.09 3.5 3.5 0 0 1-.09.75c-.22.87-1.14 1.65-2.41 2.65l-.73.6a4.12 4.12 0 0 0-1.64 2.84 1.67 1.67 0 0 0 .11.63 1.63 1.63 0 0 0 .11.23c.47.8 1.81 1.31 3.76.63a12.23 12.23 0 0 0 3.68-2.45 6.74 6.74 0 0 1 4.5-1.66 3.92 3.92 0 0 0 2.84-1.12 6.68 6.68 0 0 1 5.08-2.4c.61 0 .64-.09.72-.2a6.68 6.68 0 0 1 2.6-2.16 8.48 8.48 0 0 1 1.65-.5l.56-.14h.14a11 11 0 0 0 3.39-1.74h.08l.07-.05h3.35l.32.07h.08l.31.08h.06a5.12 5.12 0 0 1 .59.21h.13a22.25 22.25 0 0 1 17-9.07h2.39a22.3 22.3 0 0 1 16.54 8.38 6.73 6.73 0 0 1 1.75-.37h.9l.44.07H168.84l.35.17h.33a13.54 13.54 0 0 0 2.58 1.46c.28.11.54.2.81.28h.14l.57.14c.31.07.66.15 1 .27a6.33 6.33 0 0 1 3.2 2.39c.08.11.11.15.73.2a6.7 6.7 0 0 1 5.08 2.4 3.9 3.9 0 0 0 2.83 1.12 6.73 6.73 0 0 1 4.5 1.66 12.35 12.35 0 0 0 3.68 2.45c1.95.68 3.29.17 3.76-.63a1.52 1.52 0 0 0 .2-.55 1.63 1.63 0 0 0 0-.31 4.16 4.16 0 0 0-1.64-2.84l-.14-.11-.6-.49c-1.27-1-2.19-1.78-2.41-2.65a3.52 3.52 0 0 1-.08-.75 3.71 3.71 0 0 1 .63-2.09 3.5 3.5 0 0 1 2.6-1.39 6.45 6.45 0 0 0 3.78-1.63c.37-.53 1-.81 1.58.22a5.82 5.82 0 0 1 .2 1.46 4.09 4.09 0 0 1-.8 2.53 4.62 4.62 0 0 1-3.92 1.59.53.53 0 0 0-.17 0 3.27 3.27 0 0 0 1.13.83 6.2 6.2 0 0 1 3.16 5.42 5.93 5.93 0 0 1-.43 1.79 4.35 4.35 0 0 1-.94 1.53l-.18.17c-.92.86-2.45 1.53-5 1.37-.26 0-.53 0-.8-.07a8.44 8.44 0 0 1-.92 3.59 1 1 0 0 0-.18.48v.07l1.13.66.18.09a.52.52 0 0 1 .12.07H195.37c.69-.06 1.76-.41 2.21.86.12.33.19.63.26.89a2 2 0 0 0 .72 1.27l.49-.42c.21-.19.44-.4.59-.55.32-.33.92-.16 1.35 0a11.9 11.9 0 0 1 1.36.76 1.43 1.43 0 0 1 .7.81 1.47 1.47 0 0 0 .79.76 2.27 2.27 0 0 1 1 1.9 1.4 1.4 0 0 0 .06.41 2.14 2.14 0 0 0 .12.28c.55 1.11.11 1.66-.21 1.9a2.6 2.6 0 0 1-1.88.33v.72l-1-.14a4.05 4.05 0 0 0-1.24.12h-.08a2.17 2.17 0 0 1-2.24-1l-.05-.1a3.4 3.4 0 0 0-.92-1.06 3.86 3.86 0 0 1-1.35.14 3.31 3.31 0 0 1-1.76-.77 4.11 4.11 0 0 1-.31-.29 3.45 3.45 0 0 0-2.87-1l-.45.08a4.29 4.29 0 0 1-3.17-.28 10.07 10.07 0 0 0-1-.49c-1-.42-2-.86-2.12-1.78a2.71 2.71 0 0 0-.35-.71 5.62 5.62 0 0 1-.38-.69 2.13 2.13 0 0 1-.19-.75 3.11 3.11 0 0 1-1 .1h-.35l-.43-.07a8.51 8.51 0 0 0-2.68-.19 14.9 14.9 0 0 1-4.75.32l-.58-.13a6.72 6.72 0 0 1-.9.78 10.75 10.75 0 0 1 1.49.05l.75.2a4.39 4.39 0 0 1 1.16 0l.88.06 1 .1a1 1 0 0 1 .91 1.25 1.67 1.67 0 0 1-.44 1 9.6 9.6 0 0 0-.78 1.15v.07a1.33 1.33 0 0 1-1.39.84H176l-.1.21a3.15 3.15 0 0 1-1 1.44l-.15.11a2.27 2.27 0 0 1-2.29.42l-.39-.14a27.27 27.27 0 0 1-3.2-1.29l-.11-.06c-.69-.38-.85-.45-1.1-.42h-.14a2 2 0 0 1-2.23-.94l-.07-.1a22.27 22.27 0 0 1-14 8.82l-.58.1H144.4l-.4.04h-.18l-.3-.05h-.16l-.37-.06-.27-.06h-.13l-.55-.13h-.05l-.28-.07h-.15l-.5-.13H141a22.32 22.32 0 0 1-12.19-8.8l-.38.58a2 2 0 0 1-2.23.94h-.14c-.25 0-.41 0-1.1.42l-.11.06a27.27 27.27 0 0 1-3.2 1.29l-.39.14a2.27 2.27 0 0 1-2.29-.42l-.15-.11a3.15 3.15 0 0 1-1-1.44l-.1-.21h-.34a1.31 1.31 0 0 1-1.38-.84v-.07a9.6 9.6 0 0 0-.78-1.15 1.73 1.73 0 0 1-.44-1 1 1 0 0 1 .91-1.25l1-.1.88-.06a4.39 4.39 0 0 1 1.16 0l.75-.2a10.66 10.66 0 0 1 1.48-.05 8.15 8.15 0 0 1-.89-.78l-.58.13a14.82 14.82 0 0 1-4.74-.32 8.59 8.59 0 0 0-2.69.19l-.43.07a3.41 3.41 0 0 1-1.32-.07 3.09 3.09 0 0 1-.56 1.44 2.78 2.78 0 0 0-.36.71c-.13.92-1.15 1.36-2.12 1.78a8.93 8.93 0 0 0-1 .49 4.29 4.29 0 0 1-3.27.13l-.46-.08a3.46 3.46 0 0 0-2.87 1 3.26 3.26 0 0 1-3.42.92 3.27 3.27 0 0 0-.91 1.06A2.15 2.15 0 0 1 93 147h-.08a4 4 0 0 0-1.23-.12l-1 .14v-.19a2.62 2.62 0 0 1-1.89-.33c-.32-.24-.76-.79-.2-1.9a1.41 1.41 0 0 0 .17-.69 2.27 2.27 0 0 1 1-1.9 1.44 1.44 0 0 0 .79-.76 1.43 1.43 0 0 1 .7-.81 11.11 11.11 0 0 1 1.36-.76c.43-.16 1-.33 1.35 0s1.08 1 1.08 1c.69-.53.63-1.14 1-2.16.45-1.27 1.52-.92 2.21-.86H98.73l.12-.07.18-.09 1.13-.66v-.07a.87.87 0 0 0-.18-.48 8.44 8.44 0 0 1-.91-3.59l-.52.05c-2.72.22-4.34-.46-5.28-1.35zm102.31 6.22zm-27.41-21.4l-.44-.07.44.07zm1.15.41l-.35-.17.35.17zM150 152h.31-.31zm-1.11.11h.41-.41zm-.51 0h.38-.38zm-.58 0h.44-.44zm-1.09 0zm-.56 0h.42-.42zm-.53 0h.36-.36zm-.57 0h.42-.42zM144 152l.43.05-.43-.05zm-1-.17l.37.06-.37-.06z" fill-rule="evenodd" fill="#ffe500"></path><path class="cls-3" d="M127.38 124.07a.82.82 0 0 1 .07-.85c.36-.55.69 0 .69 0 1.24 1.73.33 4.31.33 4.31a6.19 6.19 0 0 0-1.09-3.51zm10.67 11.42c0-.5.06-1.63-.46-2-.19-.15-.94-1-.94-1-.11-.19-.2-.21-.2-.21-.16 0-.36.35-.36.35-.53 1-1.06.9-1.06.9a.82.82 0 0 1 .12-.39l.76-1.51a4 4 0 0 0 .15-.42c.52-.8 1-.19 1-.19a19.11 19.11 0 0 0 1.37 1.8 1.21 1.21 0 0 1 .28.64c.27 1.89-.67 2-.67 2zm-3.05 4.82c-.21 0-.27-.08-.24-.33a1.49 1.49 0 0 1 .68-1c1-.6 1.14 0 1.14 0 .18 1.08-.67 1.22-.67 1.22a5.82 5.82 0 0 1-.91.07zm-44 3.13a.42.42 0 0 1 .1.49 9.25 9.25 0 0 0-.53 2.06s-1.25.22-1.42-.39a1 1 0 0 1 .17-.59 2.1 2.1 0 0 0 .26-.91s0-1.48.94-1.08a1.75 1.75 0 0 1 .48.42zm1.54-2.44a1 1 0 0 1 .78-.21c.6.13.24.65.24.65a7.94 7.94 0 0 1-1 1.24.93.93 0 0 1-1.28-.11.43.43 0 0 1 .16-.77 6.23 6.23 0 0 0 1.14-.8zm7.31-9.26a8.37 8.37 0 0 0 .76 4.12s.73 1 0 1.7l-1.51.88s-.2.15-.87.1c0 0-.93-.23-1.25.18a13.69 13.69 0 0 1-.6 1.45 4.53 4.53 0 0 1-1.83 2.08 1.74 1.74 0 0 0-1.18 1 1.14 1.14 0 0 1-.88.57s-.44.14-.73 1.12a5.09 5.09 0 0 0-.15 1.11 3.14 3.14 0 0 1 1.23.08 1.47 1.47 0 0 0 1.73-.59s1-1.76 1.8-1.5a2.66 2.66 0 0 0 2.62-.6 4.36 4.36 0 0 1 3.6-1.3s2.37.48 3.11-.06c0 0 1.5-.79 2.06-1a1.13 1.13 0 0 0 .76-1 6.84 6.84 0 0 1 .72-1.41h-1.14a5.48 5.48 0 0 1-2.76 2.25 5.86 5.86 0 0 1-2.86.07 5.72 5.72 0 0 0-5.16 2 .71.71 0 0 1-.8.28 6.55 6.55 0 0 1 4.26-2.81 5.66 5.66 0 0 1 1.75-.07 6.48 6.48 0 0 0 5.77-3.76s-.2-3.31.67-4.09c0 0 .34-.1.27.54 0 0-.6 3.46.53 4.13a2.49 2.49 0 0 0 1.86.32 10 10 0 0 1 3.32-.18 14.09 14.09 0 0 0 4.26.29 2.9 2.9 0 0 1-.41-1.71s.28-.67.6-.24a5.39 5.39 0 0 0 2.8 3.31 3.07 3.07 0 0 1 1.82 3 9.43 9.43 0 0 1-2.73 1.19s-.92.29-1.22-.4c0 0-1.18-2.53-2.21-2.45l-1.93.16s-.66.17-.17.7a14 14 0 0 1 .93 1.4s.08.45.7.35c0 0 .86-.42 1.35 1.18a2.51 2.51 0 0 0 1.2 1.06 1.85 1.85 0 0 0 1.36-.14 33.91 33.91 0 0 0 3.75-1.58 1.79 1.79 0 0 1 1.24-.2 1.26 1.26 0 0 0 1.35-.53l1-1.53a1.71 1.71 0 0 0 .18-.85 1.24 1.24 0 0 0-.3-1 1.93 1.93 0 0 1-.44-.68l-.7-1.65a2.32 2.32 0 0 0-.6-.63l-.94.07a15.82 15.82 0 0 0 1.12 2.33 3.74 3.74 0 0 1 .61 1.6 1.25 1.25 0 0 1-.22.62s-.21.35-.3.52a2.47 2.47 0 0 1-.52.76 3.2 3.2 0 0 1-.49.24s-.18.05 0-.26a4.92 4.92 0 0 0 .49-1.7 1.11 1.11 0 0 0-.33-1 16.47 16.47 0 0 1-1.17-2.11 3.3 3.3 0 0 0-.5-.75.42.42 0 0 1 .22-.69 10.59 10.59 0 0 0 1.7-.51s.69-.21 1.14-1.65a10.15 10.15 0 0 0 .61-2.72 4.44 4.44 0 0 1-.72 4.72s1.53.45 2.17 0c0 0 1.91-.28 2.27-.38 0 0 .48-.11.21.23a3.77 3.77 0 0 0-.62 1.35 1 1 0 0 1-.39.68s-1.09.76-1.18 1.49c0 0-.23.7.25.53 0 0 .65-.3.87 0 0 0 .07 0-.18.31a2.21 2.21 0 0 0-.7 1.33 3.39 3.39 0 0 0 .35 1.16.73.73 0 0 0 .76.28.37.37 0 0 1 .34 0 3 3 0 0 0 .83-.21s.91-.25 1.21-.36a6.56 6.56 0 0 1 1.73-.38 3.15 3.15 0 0 1 .84.05 3 3 0 0 0 2.41-.9s.74-.58 1 0a4.75 4.75 0 0 0 4.6 1.74s-2.26-.93-2.85-2.2a5.26 5.26 0 0 0-1.27-2.57s-.36-.5 0-.63c0 0 .2-.15.65.3a7.81 7.81 0 0 1 1.53 2.07s1.4 2.11 3.42 1.4a5.51 5.51 0 0 1-2.33-1.75 5.78 5.78 0 0 0-2-2.69 5.81 5.81 0 0 0-.78-2.71s-.37-1.63-.47-2a14.13 14.13 0 0 1-.38-1.82 5.14 5.14 0 0 0-1.08-3.32 9.93 9.93 0 0 0-2.06-2.64s-1-1.18-1.67-1.9a16.8 16.8 0 0 0-3-2.53 13.5 13.5 0 0 1-1.6-1.39s-3.59-2.59-6.18-.51a12.85 12.85 0 0 1-3.29 1.59s-3.08.36-4.39 2.5c0 0-.12.39-1.36.54a5.46 5.46 0 0 0-4.73 2.35 5 5 0 0 1-2.77 1.13 6.21 6.21 0 0 0-5 2s-4.94 4.31-7.89 1.52c0 0-1.53-1.45.22-4.06a18.65 18.65 0 0 1 3-2.74 2.34 2.34 0 0 0 .83-2.75 2.52 2.52 0 0 0-2.67-1.67s-2.88-.56-4-2c0 0-1.3 4.58 3.81 4.51 0 0 1.33.19.86 1.25a3.93 3.93 0 0 1-1.53 1.23 4.66 4.66 0 0 0-2.27 2.9s-1.56 3.93 2.24 5.44a9.5 9.5 0 0 0 4.65.09zM166.26 124.07a.82.82 0 0 0-.07-.85c-.35-.55-.69 0-.69 0-1.23 1.73-.32 4.31-.32 4.31a6.24 6.24 0 0 1 1.08-3.51zm-10.66 11.42c0-.5-.06-1.63.45-2 .19-.15.94-1 .94-1 .12-.19.21-.21.21-.21.15 0 .35.35.35.35.54 1 1.07.9 1.07.9a1 1 0 0 0-.12-.39c-.15-.28-.77-1.51-.77-1.51a4 4 0 0 1-.15-.42c-.52-.8-1-.19-1-.19a20.69 20.69 0 0 1-1.38 1.8 1.32 1.32 0 0 0-.28.64c-.27 1.89.68 2 .68 2zm3.05 4.82c.22 0 .28-.08.25-.33a1.52 1.52 0 0 0-.69-1c-1-.6-1.13 0-1.13 0-.19 1.08.67 1.22.67 1.22a5.71 5.71 0 0 0 .9.07zm44 3.13a.42.42 0 0 0-.1.49 9.72 9.72 0 0 1 .54 2.06s1.25.22 1.42-.39a1 1 0 0 0-.17-.59 2.18 2.18 0 0 1-.27-.91s0-1.48-.94-1.08a1.75 1.75 0 0 0-.48.42zM201.1 141a1 1 0 0 0-.78-.21c-.6.13-.23.65-.23.65a7.41 7.41 0 0 0 1 1.24.92.92 0 0 0 1.27-.11c.53-.52-.16-.77-.16-.77a6.63 6.63 0 0 1-1.14-.8zm-7.31-9.26a8.24 8.24 0 0 1-.76 4.12s-.73 1 0 1.7l1.51.88s.2.15.88.1c0 0 .93-.23 1.24.18a12.58 12.58 0 0 0 .61 1.45 4.55 4.55 0 0 0 1.82 2.08 1.77 1.77 0 0 1 1.19 1 1.12 1.12 0 0 0 .88.57s.43.14.72 1.12a5.09 5.09 0 0 1 .15 1.11 3.14 3.14 0 0 0-1.23.08 1.47 1.47 0 0 1-1.73-.59s-1-1.76-1.79-1.5a2.68 2.68 0 0 1-2.63-.6 4.35 4.35 0 0 0-3.59-1.3s-2.38.48-3.12-.06c0 0-1.49-.79-2.05-1a1.12 1.12 0 0 1-.76-1 7.41 7.41 0 0 0-.72-1.41h1.13a5.47 5.47 0 0 0 2.77 2.25 5.86 5.86 0 0 0 2.86.07 5.7 5.7 0 0 1 5.15 2 .71.71 0 0 0 .8.28 6.55 6.55 0 0 0-4.25-2.81 5.7 5.7 0 0 0-1.76-.07 6.46 6.46 0 0 1-5.76-3.76s.19-3.31-.68-4.09c0 0-.33-.1-.27.54 0 0 .6 3.46-.52 4.13a2.53 2.53 0 0 1-1.87.32 10 10 0 0 0-3.32-.18 14.09 14.09 0 0 1-4.26.29 2.9 2.9 0 0 0 .41-1.71s-.28-.67-.6-.24a5.39 5.39 0 0 1-2.83 3.25 3.07 3.07 0 0 0-1.82 3 9.71 9.71 0 0 0 2.74 1.19s.92.29 1.21-.4c0 0 1.18-2.53 2.21-2.45l1.93.16s.66.17.18.7a13.47 13.47 0 0 0-.94 1.4s-.07.45-.7.35c0 0-.86-.42-1.35 1.18a2.52 2.52 0 0 1-1.19 1.06 1.87 1.87 0 0 1-1.37-.14 33.1 33.1 0 0 1-3.74-1.58 1.79 1.79 0 0 0-1.24-.2 1.25 1.25 0 0 1-1.35-.53l-1-1.53a1.66 1.66 0 0 1-.19-.85 1.23 1.23 0 0 1 .31-1 2 2 0 0 0 .43-.68l.71-1.65a2.21 2.21 0 0 1 .59-.63l.95.07a15.16 15.16 0 0 1-1.13 2.33 3.74 3.74 0 0 0-.61 1.6 1.37 1.37 0 0 0 .22.62s.22.35.31.52a2.4 2.4 0 0 0 .51.76 3 3 0 0 0 .5.24s.17.05 0-.26a5.16 5.16 0 0 1-.49-1.7 1.13 1.13 0 0 1 .34-1 17.81 17.81 0 0 0 1.17-2.11 3.19 3.19 0 0 1 .49-.75.42.42 0 0 0-.22-.69 10.59 10.59 0 0 1-1.7-.51s-.69-.21-1.14-1.65a10.15 10.15 0 0 1-.61-2.72 4.46 4.46 0 0 0 .72 4.72s-1.53.45-2.16 0c0 0-1.91-.28-2.28-.38 0 0-.48-.11-.21.23a3.91 3.91 0 0 1 .63 1.35 1 1 0 0 0 .39.68s1.08.76 1.18 1.49c0 0 .23.7-.25.53 0 0-.65-.3-.88 0 0 0-.07 0 .18.31a2.16 2.16 0 0 1 .7 1.33 3.39 3.39 0 0 1-.35 1.16.72.72 0 0 1-.75.28.39.39 0 0 0-.35 0 3 3 0 0 1-.83-.21s-.91-.25-1.21-.36a6.56 6.56 0 0 0-1.73-.38 3.15 3.15 0 0 0-.84.05 3 3 0 0 1-2.41-.9s-.73-.58-1 0a4.76 4.76 0 0 1-4.61 1.74s2.27-.93 2.85-2.2a5.26 5.26 0 0 1 1.27-2.57s.36-.5 0-.63c0 0-.2-.15-.64.3a7.76 7.76 0 0 0-1.54 2.07s-1.4 2.11-3.41 1.4a5.51 5.51 0 0 0 2.32-1.75 5.78 5.78 0 0 1 2-2.69 5.81 5.81 0 0 1 .78-2.71s.37-1.63.47-2a13.81 13.81 0 0 0 .39-1.82 5.17 5.17 0 0 1 1.07-3.32 10.09 10.09 0 0 1 2.07-2.64s.95-1.18 1.66-1.9a16.8 16.8 0 0 1 3-2.53 13.5 13.5 0 0 0 1.6-1.39s3.59-2.59 6.19-.51a12.66 12.66 0 0 0 3.29 1.59s3.08.36 4.39 2.5c0 0 .11.39 1.35.54a5.46 5.46 0 0 1 4.73 2.35 5 5 0 0 0 2.78 1.13 6.19 6.19 0 0 1 5 2s4.95 4.31 7.89 1.52c0 0 1.53-1.45-.22-4.06a18.28 18.28 0 0 0-3-2.74 2.34 2.34 0 0 1-.83-2.75s.37-1.63 2.67-1.67c0 0 2.88-.56 4-2 0 0 1.31 4.58-3.8 4.51 0 0-1.33.19-.87 1.25a3.93 3.93 0 0 0 1.53 1.23 4.69 4.69 0 0 1 2.24 2.92s1.55 3.93-2.24 5.44a9.54 9.54 0 0 1-4.66.09zM103.48 179.45h7.6s-.32-3.59-3.74-3.59-3.86 3.59-3.86 3.59zm4-7.91c10.23 0 9.81 10 9.81 10v1.58h-13.91a4.33 4.33 0 0 0 4.48 4.22 4.83 4.83 0 0 0 3.91-2.48l4.9 2.43a10 10 0 0 1-8.75 4.8c-10.66 0-10.87-8.86-10.87-10s.16-10.55 10.39-10.55zm22.79 14.93c-.32 0-4.28.05-4.28-4.8a4.61 4.61 0 0 1 4.33-5s4.85.15 4.85 4.9-4.59 4.91-4.9 4.91zm4.64-27.29v14.63a11.82 11.82 0 0 0-6.33-2.27c-3.38 0-9.07 2.37-9.07 9.86s4.85 10.34 9 10.34A8.94 8.94 0 0 0 135 189v2.43h6v-32.25zm40.56 13.36h6.12v10.82s.21 3.64 3.64 3.64 3.38-3.64 3.38-3.64v-10.77h6.17v11.13s.79 8.71-9.39 8.71-9.92-7.65-9.92-9v-10.89zm22.87-13.36h6v32.25h-6v-32.25zm10.26 0h6v32.25h-6v-32.25zm-45.39 26.87h-5.72v-20.18h3.06s4.15-.31 4.15 3.31a3 3 0 0 1-3.3 3.31h-1.91v5.43h3.72a3.89 3.89 0 0 1 4.08 4.05c0 3.57-4.08 4.08-4.08 4.08zm5.14-11.45a8.28 8.28 0 0 0 2.8-6.29c0-4.13-3-7.84-9.37-7.84h-10.72v31h13.15s9.43-.1 9.43-8.62c0-4.94-1.92-6.84-5.33-8.21zM75 159.81v31.62h6.38v-25.59h3s4.69-.21 4.69 4.06a4 4 0 0 1-4.16 4.17h-1.52v7.28l6.38 10.08h7.49l-8.91-12.93a8.19 8.19 0 0 0 7.33-8.6c0-8-5.54-10.09-12.93-10.09z"></path></svg> 