<?xml version="1.0" encoding="UTF-8"?> <svg xmlns="http://www.w3.org/2000/svg" id="Layer_1" data-name="Layer 1" viewBox="0 0 300 300"><defs><style>.cls-1{fill:#b1d338}.cls-2{fill:#eb0481}</style></defs><path class="cls-1" d="M195.32 159.05L215 102.68l23.95 13.29-32.18 51.37-11.45-8.29z"></path><path d="M215.57 104.17l21.93 12.17-31 49.52-9.94-7.2 19-54.49m-1.14-3l-.81 2.31L194.6 158l-.5 1.45 1.24.9 9.94 7.2 1.78 1.29 1.17-1.87 31-49.52 1.15-1.84-1.9-1-21.93-12.17-2.14-1.19z"></path><path class="cls-2" d="M167.27 193.89a23.24 23.24 0 0 1-4-.35c-11.75-2.07-15.52-4.69-15.67-4.8l-.79-.57 9.92-15.79.8 1.72c.11.24 2.86 5.94 9.38 5.94h.76c2.31-.15 3.83-1.07 4.51-2.74 1-2.54-.05-6.69-2.49-9.43l-.06-.08-15.63-21.5v-.06c-.1-.18-9.67-18.53 3.87-29.22 4.75-3.75 11.34-5.66 19.58-5.66 10.57 0 21.38 3.32 24.81 5.61l.41.27 2.76 31.43-1.53-.58c-.07 0-6.4-2.41-14.8-5.72a9.69 9.69 0 0 0-3.55-.68 7.24 7.24 0 0 0-6.75 3.85c-1.16 2.34-2 7.64 5 16.89a20.46 20.46 0 0 1-.37 24.77 23.43 23.43 0 0 1-16.16 6.7z"></path><path d="M177.45 112.38c10.65 0 21.12 3.35 24.24 5.43l2.57 29.31s-6.29-2.37-14.78-5.72a10.83 10.83 0 0 0-3.93-.75c-7.35 0-13.65 7.87-2.54 22.39a19.32 19.32 0 0 1-.34 23.48 22.57 22.57 0 0 1-15.4 6.34 21.09 21.09 0 0 1-3.79-.34c-11.65-2.05-15.25-4.62-15.25-4.62l8.39-13.37s3 6.54 10.32 6.54h.82c7.88-.51 6.85-9.26 2.73-13.89l-15.58-21.41s-9.42-17.64 3.6-27.93c5.11-4 12.07-5.43 18.94-5.43m0-2.06c-8.48 0-15.28 2-20.22 5.88-14.21 11.22-4.24 30.32-4.14 30.52l.07.12.08.12 15.59 21.41.06.08.06.07c2.2 2.48 3.22 6.15 2.31 8.36-.53 1.29-1.72 2-3.63 2.11h-.69c-5.83 0-8.35-5.14-8.45-5.36l-1.62-3.38-2 3.17-8.4 13.36-1 1.65 1.58 1.12c.41.3 4.32 2.91 16.09 5a23.37 23.37 0 0 0 4.15.37 24.47 24.47 0 0 0 16.9-7 21.54 21.54 0 0 0 .4-26.06c-4.92-6.43-6.71-12.19-4.93-15.8a6.25 6.25 0 0 1 5.83-3.28 8.8 8.8 0 0 1 3.18.61c8.4 3.32 14.74 5.7 14.81 5.72l3.06 1.16-.29-3.26-2.57-29.31-.08-1-.83-.55c-3.63-2.42-14.47-5.78-25.37-5.78z"></path><path class="cls-1" d="M188.44 189.06l6.43-18.12 11.62 3.4v16.11l-18.05-1.39z"></path><path d="M195.52 172.2l9.94 2.91v14.22l-15.6-1.19 5.66-15.94m-1.29-2.53l-.65 1.84-5.66 15.94L187 190l2.69.21 15.59 1.2 2.22.17v-18l-1.48-.44-9.94-2.91-1.87-.55z"></path><path class="cls-2" d="M123.26 182.26L115 107.89l47.79-5.89-.94 24.44-17.67.69-.73 12.77 11.81-1.2-.79 16.23h-14c-.17 5.24-.25 10.73-.14 12.67h13.83l-1.77 16z"></path><path d="M161.71 103.14l-.85 22.27-17.65.69-.86 14.9 11.82-1.2-.68 14.06h-14.05s-.52 14.73 0 14.73H153l-1.54 13.88-27.24-1.2-8.06-72.48 45.58-5.65m2.16-2.35l-2.41.3-45.58 5.65-2 .25.22 2 8.06 72.48.19 1.75 1.77.08 27.24 1.2 1.93.09.21-1.92 1.47-13.85.26-2.29h-14c0-2.22 0-6.44.15-10.61h14l.1-2 .68-14.05.12-2.4-2.38.24-9.42 1 .61-10.63 15.78-.61 1.9-.07.08-1.91.85-22.28.1-2.42z"></path><path class="cls-2" d="M92.77 168.41l-31.96-39.68 29.06-11.18 8.68 26.36h1.64v-22.72l29.15-7.53-15.92 49.2 3.66 28.26-14.58 7.19-9.73-29.9z"></path><path d="M127.79 115.13l-15.43 47.64 3.6 27.75-12.85 6.34-9.42-29-31.19-38.68 26.73-10.28 8.57 26h3.43V122l26.56-6.85m3.11-2.93l-3.63.93-26.56 6.85-1.55.4v22.1l-8-24.24-.68-2.06-2 .78-26.72 10.28-2.64 1 1.77 2.2 31 38.43 9.31 28.6.74 2.27 2.13-1.06 12.85-6.34 1.33-.65-.19-1.46-3.59-27.25 15.28-47.2 1.15-3.56z"></path></svg> 