<?xml version="1.0" encoding="UTF-8"?> <svg xmlns="http://www.w3.org/2000/svg" data-name="Layer 1" viewBox="0 0 300 300"><path d="M249.53 128c-.71-.95-1.42-1.66-5-1.89-.95 0-3.78-.24-8.74-.24-13 0-22 4-26.45 11.81 1.18-7.79-6.38-11.81-22.91-11.81-19.37 0-31.65 7.79-36.61 23.62-1.89 5.9-1.89 10.63-.47 14.41h-4.73c-3.54.23-8.26.47-11.33.47-7.09 0-11.57-1.18-13.23-3.54-1.42-2.13-1.42-6.15.47-12.05 3.07-9.68 10.4-13.93 22.2-13.93a116.44 116.44 0 0 1 12 .7c.71 0 1.18-.94 1.18-1.65l-.24-.71-.47-3.3c-.23-2.13-1.89-3.31-4.72-3.78-2.6-.24-4.72-.24-7.56-.24h-.24c-15.35 0-26.21 5.2-32.12 15.12 2.13-10.16-5-15.12-21.25-15.12a184.22 184.22 0 0 0-19.6.71c-3.07.47-5 1.65-5.67 3.78l-1.42 4.25c-.24.71.24 1.18 1.18 1.18.71 0 3.54-.47 8.27-.71 6.37-.47 10.86-.71 13.93-.71 9 0 13 2.36 11.57 6.85a2.52 2.52 0 0 1-2.12 1.89c-8.5 1.42-15.35 2.36-20.31 3.07-14.17 1.89-22.44 6.14-24.56 13.23-3.08 9.68 4.48 14.4 22.67 14.4a126.66 126.66 0 0 0 22.91-1.65c3.54-.71 5.43-1.42 6.14-3.78l3.3-10.86c-.23 10.86 7.09 16.29 22.68 16.29a134.51 134.51 0 0 0 16.06-.7c3.07-.48 4.72-1.19 5.43-3.55l.71-3.3c3.3 5.19 10.63 7.79 21.73 7.79 11.81 0 18.65-.24 20.54-.94a4.36 4.36 0 0 0 3.07-2.6.85.85 0 0 1 .24-.71l1.42-4.49c.23-.71-.24-1.18-1.18-1.18l-7.56.47c-5 .24-9 .48-11.81.48-5.43 0-9-.48-11.1-1.19-3.07-1.18-4.49-3.3-4.25-6.85l23.94-3.04c10.63-1.41 17.95-4.72 21.49-9.91l-8.26 27.63a1 1 0 0 0 .24 1.18 2.21 2.21 0 0 0 1.65.47h9.92a2.51 2.51 0 0 0 2.6-1.65l8.73-30.47c1.19-4 4.73-5.9 11.34-5.9 5.91 0 10.16 0 13 .23h.24a2.56 2.56 0 0 0 2.12-1.41l1.42-4.25a2.55 2.55 0 0 0-.47-1.89zM90.34 164.41a94.06 94.06 0 0 1-13.22.71C67 165.12 62.71 163 63.89 159c1-2.84 3.54-4.73 7.8-5.2l22.9-3.07zm105.57-24.56q-1.41 4.6-13.46 6.37l-19.13 2.6.47-1.65c1.66-5.2 3.78-8.51 6.62-10.39s7.56-2.84 14.17-2.84c8.74.24 12.52 2.13 11.33 5.91z" fill="#83b81a"></path></svg> 