<?xml version="1.0" encoding="UTF-8"?> <svg xmlns="http://www.w3.org/2000/svg" id="Layer_1" data-name="Layer 1" viewBox="0 0 300 300"><defs><style>.cls-1{fill:#1d1d1b}</style></defs><path class="cls-1" d="M237.5 119.7h-29.13l1.79-5.02h27.34v5.02zM159.85 114.68h27l1.77 5h-28.77s-.01-5 0-5zM138.37 114.68a19.42 19.42 0 0 1 11.63 5h-49v-5zM62.5 114.68h34.06v5.02H62.5zM237.5 129.12H205s1.77-5 1.76-5h30.74zM192.01 129.13h-32.17v-5.01h30.41l1.76 5.01zM153.82 124.12c.64 1.65 1.41 3.06 1.41 5H101v-5zM62.5 124.12h34.06v5H62.5zM201.71 138.57l1.78-5.02 24.38.01v5l-26.16.01zM193.57 133.55l1.78 5.02h-25.92v-5.02h24.14zM155.66 133.55a16.43 16.43 0 0 1-.72 5h-14.85v-5zM72 133.57h14.64v5H72zM110.84 133.55h14.61v5.02h-14.61zM183.83 144v3.81h-14.4v-5h27.44l1.7 4.66s1.64-4.67 1.65-4.66h27.64v5h-14.32V144l-1.33 3.81h-27zM110.84 142.8h41.95a18.93 18.93 0 0 1-4.16 5h-37.79zM72 142.8h14.64v5H72zM213.54 152.23h14.33v5h-14.33zM183.83 152.23h-14.4v5h14.4s.02-5 0-5zM210.64 152.23c-.06 0-1.67 5-1.74 5h-20.41l-1.79-5zM110.84 152.22h37.71a24.71 24.71 0 0 1 4.5 5h-42.21zM86.63 157.22v-5H72v5zM213.54 161.65h14.32v5h-14.32zM169.43 161.65h14.4v5h-14.4zM205.55 166.67s1.77-5 1.79-5H190l1.78 5s13.77.02 13.77 0zM110.84 166.65v-5h14.83v5s-14.83-.01-14.83 0zM155.13 161.65a14.39 14.39 0 0 1 .93 5h-15.71v-5zM72.02 161.65h14.61v5H72.02zM213.54 170.88h23.96v5h-23.96zM159.84 170.88h23.99v5h-23.99zM202.33 175.88h-7.32l-1.76-5h10.77l-1.69 5zM62.5 170.88v5h34v-5zM155.44 170.88c-.36 1.65-.68 3.66-1.89 5H101v-5zM199.01 185.31h-.67l-1.71-5.01h4.13l-1.75 5.01zM213.54 180.3h23.96v5.02h-23.96zM101 185.31v-5h49.31a18.7 18.7 0 0 1-12.71 5H101M159.84 180.3h23.99v5.02h-23.99zM96.54 180.33v5h-34v-5s33.98.01 34 0z"></path></svg> 