<?xml version="1.0" encoding="UTF-8"?> <svg xmlns="http://www.w3.org/2000/svg" data-name="Layer 1" viewBox="0 0 300 300"><path d="M150 87.5a62.5 62.5 0 1 0 62.5 62.5A62.5 62.5 0 0 0 150 87.5" fill="#ed1d24"></path><path d="M134.69 129.24a.9.9 0 0 1 .84-.69H146a.56.56 0 0 1 .57.69l-4.77 22.68c-2.88 13.61-11.9 19.57-23.83 19.57-7.67 0-18.15-6.08-15.35-19.27l4.73-23a.9.9 0 0 1 .84-.69h10.42a.55.55 0 0 1 .56.69L114.45 152c-1.3 6.08 1.15 9 5.83 9s8.32-2.76 9.58-8.67zm18.12 0a.92.92 0 0 1 .85-.69h10.9a1.11 1.11 0 0 1 1 .66l6 15a.38.38 0 0 0 .7.11l12.61-15.25a1.71 1.71 0 0 1 1.14-.54h10.9a.54.54 0 0 1 .55.69L188.78 170a.91.91 0 0 1-.84.68h-10.18a.54.54 0 0 1-.55-.68l4.85-22.85c.08-.37-.06-.44-.31-.15l-13.34 15.44a2 2 0 0 1-.57.53c-.07 0-.25-.28-.41-.64l-6.63-15.1c-.16-.35-.35-.33-.42.05L155.55 170a.92.92 0 0 1-.85.68h-10a.55.55 0 0 1-.56-.68z" fill="#fff"></path></svg> 