<?xml version="1.0" encoding="UTF-8"?> <svg xmlns="http://www.w3.org/2000/svg" xmlns:xlink="http://www.w3.org/1999/xlink" id="Layer_1" data-name="Layer 1" viewBox="0 0 300 300"><defs><style>.cls-1{fill:none}.cls-52{fill:#d78817}</style><clipPath id="clip-path"><path id="SVGID" class="cls-1" d="M101 102.54v57.66c0 12.13 4.55 22.28 13.17 29.34 7.9 6.46 32.95 17.46 35.83 18.7 2.88-1.25 27.93-12.24 35.81-18.7 8.62-7.06 13.17-17.21 13.17-29.34v-57.66c-13.61-7.22-30.09-10.87-49-10.87s-35.37 3.65-49 10.87"></path></clipPath><radialGradient id="radial-gradient" cx="858.55" cy="787.9" r="1.36" gradientTransform="matrix(0 119.61 -59.8 0 47235.59 -102578.13)" gradientUnits="userSpaceOnUse"><stop offset="0" stop-color="#ffdc00"></stop><stop offset=".35" stop-color="#ffbe00"></stop><stop offset="1" stop-color="#c86e14"></stop></radialGradient><clipPath id="clip-path-2"><path id="SVGID-2" data-name="SVGID" class="cls-1" d="M148.32 136.59v26.19a8.27 8.27 0 0 0 2.76.51c4.91 0 7.25-4.5 7.25-13.82 0-9.54-2.05-13.49-7-13.49a7.42 7.42 0 0 0-3 .61m-21.42 25.51V130h8.51v37c-3.26 2.21-7.63 3.42-12.84 3.42-8.44 0-12.71-4.57-12.71-13.6V130h8.52v27.17c0 2.41.58 6 4.49 6a7.12 7.12 0 0 0 4-1m12.88-29.95a20.62 20.62 0 0 1 11.48-3c10.18 0 15.77 7.72 15.77 20.14s-5.43 21-14.89 21a13.56 13.56 0 0 1-3.84-.48v17.94h-8.52v-55.67zm42.8 26.45c-.06-2.68-1.57-4.13-5.32-6.33-7-4.12-8.29-7.51-8.3-12.05 0-6.88 5.82-10.94 11.43-11.1a14.56 14.56 0 0 1 9.35 2.77v7.41a11.42 11.42 0 0 0-7.63-3.51c-2.42 0-4.93 1-5 4.08s2.43 4.32 5.61 6.18c7.12 4.19 8.5 7.95 8.33 12.92-.16 5.45-3.92 11.4-12.34 11.4a18.67 18.67 0 0 1-9.36-2.64v-7.85a13.56 13.56 0 0 0 8.14 3.47c3.11 0 5.15-1.79 5.07-4.75m-77.07-31.38v33c0 10.74 4 19.71 11.52 25.86 6.67 5.43 27.18 14.71 33 17.27 5.71-2.52 26.17-11.68 32.95-17.27 7.6-6.25 11.53-15 11.53-25.86v-56.54c-6-.56-12.33-.93-18.74-.93-23.73 0-49.18 5.1-70.22 24.4"></path></clipPath><radialGradient id="radial-gradient-2" cx="858.53" cy="788" r="1.36" gradientTransform="matrix(0 118.68 -59.34 0 46877.35 -101781.22)" gradientUnits="userSpaceOnUse"><stop offset="0" stop-color="#4b3333"></stop><stop offset=".35" stop-color="#351a1a"></stop><stop offset=".85" stop-color="#1e0000"></stop><stop offset="1" stop-color="#1e0000"></stop></radialGradient><clipPath id="clip-path-3"><path id="SVGID-3" data-name="SVGID" class="cls-1" d="M105.52 160.2c0 10.74 4 19.71 11.52 25.86 6.67 5.43 27.18 14.71 33 17.27v-.67c-4.8-2.13-25.83-11.57-32.57-17.07-7.39-6-11.3-14.8-11.3-25.39z"></path></clipPath><linearGradient id="linear-gradient" x1="879.2" y1="982.94" x2="880.56" y2="982.94" gradientTransform="scale(-45.54 45.54) rotate(-44 -772.951 1586)" gradientUnits="userSpaceOnUse"><stop offset="0" stop-color="#e49f15"></stop><stop offset=".02" stop-color="#e39c15"></stop><stop offset=".18" stop-color="#dc9116"></stop><stop offset=".4" stop-color="#d88a17"></stop><stop offset="1" stop-color="#d78817"></stop></linearGradient><clipPath id="clip-path-4"><path id="SVGID-4" data-name="SVGID" class="cls-1" d="M193.87 160.2c0 10.67-3.81 19.21-11.31 25.39C176 191 156.31 199.88 150 202.66v.67c5.71-2.52 26.17-11.68 32.95-17.27 7.6-6.25 11.53-15 11.53-25.86z"></path></clipPath><linearGradient id="linear-gradient-2" x1="855.1" y1="994.34" x2="856.46" y2="994.34" gradientTransform="scale(45.54 -45.54) rotate(44 1665.424 -559.183)" gradientUnits="userSpaceOnUse"><stop offset="0" stop-color="#ffc20e"></stop><stop offset="1" stop-color="#d89016"></stop></linearGradient><clipPath id="clip-path-5"><path id="SVGID-5" data-name="SVGID" class="cls-1" d="M105.52 127.22l.61.27c17.76-16.19 40.53-24.06 69.61-24.06 5.68 0 11.62.29 18.13.88l.61-.56c-6-.56-12.33-.93-18.74-.93-23.73 0-49.18 5.1-70.22 24.4"></path></clipPath><linearGradient id="linear-gradient-3" x1="852.71" y1="986" x2="854.07" y2="986" gradientTransform="scale(67.42 -67.42) rotate(19.2 3347.956 -2024.182)" gradientUnits="userSpaceOnUse"><stop offset="0" stop-color="#e49f15"></stop><stop offset=".97" stop-color="#8f4a02"></stop><stop offset="1" stop-color="#8f4a02"></stop></linearGradient><clipPath id="clip-path-6"><path id="SVGID-6" data-name="SVGID" class="cls-1" d="M157.71 149.47c0 7.54-1.48 13.21-6.63 13.21v.61c4.91 0 7.25-4.5 7.25-13.82z"></path></clipPath><linearGradient id="linear-gradient-4" x1="860.37" y1="1050.85" x2="861.73" y2="1050.85" gradientTransform="matrix(5.15 -10.24 -10.24 -5.15 6482.22 14388.66)" gradientUnits="userSpaceOnUse"><stop offset="0" stop-color="#ffc20e"></stop><stop offset=".05" stop-color="#ffc20e"></stop><stop offset=".95" stop-color="#bf7312"></stop><stop offset="1" stop-color="#bf7312"></stop></linearGradient><clipPath id="clip-path-7"><path id="SVGID-7" data-name="SVGID" class="cls-1" d="M148.32 162.78a8.27 8.27 0 0 0 2.76.51v-.61a7.12 7.12 0 0 1-2.15-.34z"></path></clipPath><linearGradient id="linear-gradient-5" x1="1249.98" y1="845.99" x2="1251.34" y2="845.99" gradientTransform="matrix(-2.05 -.25 -.25 2.05 2924.66 -1255.7)" gradientUnits="userSpaceOnUse"><stop offset="0" stop-color="#ffc20e"></stop><stop offset=".05" stop-color="#ffc20e"></stop><stop offset=".95" stop-color="#f0af13"></stop><stop offset="1" stop-color="#f0af13"></stop></linearGradient><clipPath id="clip-path-8"><path id="SVGID-8" data-name="SVGID" class="cls-1" d="M148.32 136.59l.61.41a7.26 7.26 0 0 1 2.41-.41V136a7.44 7.44 0 0 0-3 .61"></path></clipPath><linearGradient id="linear-gradient-6" x1="576.98" y1="1222.35" x2="578.34" y2="1222.35" gradientTransform="matrix(2.19 -.57 -.57 -2.19 -411.9 3139.84)" gradientUnits="userSpaceOnUse"><stop offset="0" stop-color="#a65e0c"></stop><stop offset=".05" stop-color="#a65e0c"></stop><stop offset=".95" stop-color="#8f4a02"></stop><stop offset="1" stop-color="#8f4a02"></stop></linearGradient><clipPath id="clip-path-9"><path id="SVGID-9" data-name="SVGID" class="cls-1" d="M151.33 136.59c5 0 6.38 4.7 6.38 12.88h.62c0-9.54-2.05-13.49-7-13.49v.61z"></path></clipPath><linearGradient id="linear-gradient-7" x1="922.04" y1="1022.84" x2="923.4" y2="1022.84" gradientTransform="matrix(-5.05 -9.96 -9.96 5.05 15008.2 4165.52)" gradientUnits="userSpaceOnUse"><stop offset="0" stop-color="#bf7312"></stop><stop offset=".05" stop-color="#bf7312"></stop><stop offset=".95" stop-color="#8f4a02"></stop><stop offset="1" stop-color="#8f4a02"></stop></linearGradient><clipPath id="clip-path-10"><path id="SVGID-10" data-name="SVGID" class="cls-1" d="M168.36 140.23h.64c0-6.88 5.82-10.94 11.43-11.1v-.61c-6.19.18-12.06 4.71-12 11.72"></path></clipPath><linearGradient id="linear-gradient-8" x1="886.73" y1="913.5" x2="888.09" y2="913.5" gradientTransform="matrix(-9.15 8.27 8.27 9.15 741.8 -15563.61)" gradientUnits="userSpaceOnUse"><stop offset="0" stop-color="#ffc20e"></stop><stop offset=".05" stop-color="#ffc20e"></stop><stop offset=".95" stop-color="#d89016"></stop><stop offset="1" stop-color="#d89016"></stop></linearGradient><clipPath id="clip-path-11"><path id="SVGID-11" data-name="SVGID" class="cls-1" d="M177.11 139.87h.61c0-.82.4-3.47 4.32-3.47l.08-.61H182c-2.38 0-4.85 1.07-4.93 4.07"></path></clipPath><linearGradient id="linear-gradient-9" x1="792.99" y1="1140.64" x2="794.35" y2="1140.64" gradientTransform="matrix(3.58 -3.11 -3.11 -3.58 887.97 6691.07)" gradientUnits="userSpaceOnUse"><stop offset="0" stop-color="#d78817"></stop><stop offset=".05" stop-color="#d78817"></stop><stop offset=".95" stop-color="#8f4a02"></stop><stop offset="1" stop-color="#8f4a02"></stop></linearGradient><clipPath id="clip-path-12"><path id="SVGID-12" data-name="SVGID" class="cls-1" d="M182 136.4c3.52 0 6.53 2.3 8.32 4.4l-.61-1.5a11.37 11.37 0 0 0-7.63-3.51l-.08.62z"></path></clipPath><linearGradient id="linear-gradient-10" x1="980.28" y1="979.5" x2="981.64" y2="979.5" gradientTransform="matrix(-6.28 -3.27 -3.27 6.28 9543.02 -2804.21)" gradientUnits="userSpaceOnUse"><stop offset="0" stop-color="#bf7312"></stop><stop offset=".95" stop-color="#8f4a02"></stop><stop offset="1" stop-color="#8f4a02"></stop></linearGradient><clipPath id="clip-path-13"><path id="SVGID-13" data-name="SVGID" class="cls-1" d="M180.38 128.51v.61a14.56 14.56 0 0 1 9.35 2.77l.61-.31a15.17 15.17 0 0 0-9.44-3.08h-.54"></path></clipPath><linearGradient id="linear-gradient-11" x1="753.15" y1="993.27" x2="754.51" y2="993.27" gradientTransform="matrix(7.3 2.36 2.36 -7.3 -7664.58 5607.12)" gradientUnits="userSpaceOnUse"><stop offset="0" stop-color="#ffc20e"></stop><stop offset=".05" stop-color="#ffc20e"></stop><stop offset=".95" stop-color="#e49f15"></stop><stop offset="1" stop-color="#e49f15"></stop></linearGradient><clipPath id="clip-path-14"><path id="SVGID-14" data-name="SVGID" class="cls-1" d="M178.71 170.37v.63c7.72 0 12.74-5.14 12.95-12h-.61c-.17 5.45-3.93 11.4-12.34 11.4"></path></clipPath><linearGradient id="linear-gradient-12" x1="883.33" y1="835.87" x2="884.7" y2="835.87" gradientTransform="rotate(135.6 8002.446 3200.802) scale(12.97)" xlink:href="#linear-gradient-9"></linearGradient><clipPath id="clip-path-15"><path id="SVGID-15" data-name="SVGID" class="cls-1" d="M168.73 168.07a19.12 19.12 0 0 0 10 2.92v-.62a18.68 18.68 0 0 1-9.37-2.64z"></path></clipPath><linearGradient id="linear-gradient-13" x1="753.21" y1="756.61" x2="754.57" y2="756.61" gradientTransform="rotate(16.1 22806.23 -16774.194) scale(7.64)" xlink:href="#linear-gradient-10"></linearGradient><clipPath id="clip-path-16"><path id="SVGID-16" data-name="SVGID" class="cls-1" d="M169.34 159.88a13.56 13.56 0 0 0 8.14 3.47v-.62c-3 0-6.54-2-8.76-4.22l.61 1.37z"></path></clipPath><linearGradient id="linear-gradient-14" x1="976.06" y1="977.05" x2="977.42" y2="977.05" gradientTransform="matrix(-6.6 -3.21 -3.21 6.6 9757.19 -3159.56)" gradientUnits="userSpaceOnUse"><stop offset="0" stop-color="#ffc20e"></stop><stop offset=".05" stop-color="#ffc20e"></stop><stop offset="1" stop-color="#f0af13"></stop></linearGradient><clipPath id="clip-path-17"><path id="SVGID-17" data-name="SVGID" class="cls-1" d="M182 158.61c.07 2.72-1.83 4.14-4.49 4.12v.62c3.13 0 5.19-1.78 5.11-4.75z"></path></clipPath><linearGradient id="linear-gradient-15" x1="801.57" y1="1129.39" x2="802.93" y2="1129.39" gradientTransform="matrix(3.77 -3.47 -3.47 -3.77 1071.6 7206.26)" xlink:href="#linear-gradient-8"></linearGradient><clipPath id="clip-path-18"><path id="SVGID-18" data-name="SVGID" class="cls-1" d="M168.36 140.23c0 4.77 1.42 8.36 8.6 12.57 3.84 2.25 5 3.56 5 5.81h.61c-.06-2.68-1.58-4.13-5.32-6.33-7-4.12-8.29-7.51-8.3-12.05z"></path></clipPath><linearGradient id="linear-gradient-16" x1="818.47" y1="953.02" x2="819.83" y2="953.02" gradientTransform="matrix(9.74 14.01 14.01 -9.74 -21151.15 -2046.98)" gradientUnits="userSpaceOnUse"><stop offset="0" stop-color="#d89016"></stop><stop offset=".4" stop-color="#bf7312"></stop><stop offset=".6" stop-color="#bf7312"></stop><stop offset="1" stop-color="#d89016"></stop></linearGradient><clipPath id="clip-path-19"><path id="SVGID-19" data-name="SVGID" class="cls-1" d="M182.71 146.05c7.12 4.19 8.5 7.95 8.33 12.92h.62c.16-5.08-1.22-9.1-8.64-13.46-3-1.83-5.38-2.82-5.3-5.65h-.61c-.09 3.1 2.42 4.32 5.6 6.18"></path></clipPath><linearGradient id="linear-gradient-17" x1="819.45" y1="954.89" x2="820.81" y2="954.89" gradientTransform="scale(17.66 -17.66) rotate(-53.8 -534.153 1271.276)" gradientUnits="userSpaceOnUse"><stop offset="0" stop-color="#d78817"></stop><stop offset=".4" stop-color="#e49f15"></stop><stop offset=".6" stop-color="#e49f15"></stop><stop offset="1" stop-color="#d78817"></stop></linearGradient><clipPath id="clip-path-20"><path id="SVGID-20" data-name="SVGID" class="cls-1" d="M148.93 170.53a15.85 15.85 0 0 0 3.22.31v-.61a13.41 13.41 0 0 1-3.83-.49l.61.79z"></path></clipPath><linearGradient id="linear-gradient-18" x1="583.24" y1="691.38" x2="584.6" y2="691.38" gradientTransform="rotate(8.8 12883.583 -8967.697) scale(2.91)" xlink:href="#linear-gradient-6"></linearGradient><clipPath id="clip-path-21"><path id="SVGID-21" data-name="SVGID" class="cls-1" d="M167 149.26c0 12.44-5.43 21-14.89 21v.62c11 0 15.5-10.49 15.5-21.58z"></path></clipPath><linearGradient id="linear-gradient-19" x1="868.93" y1="934.32" x2="870.29" y2="934.32" gradientTransform="scale(-19.53 19.53) rotate(54.4 1331.648 -382.693)" xlink:href="#linear-gradient-6"></linearGradient><clipPath id="clip-path-22"><path id="SVGID-22" data-name="SVGID" class="cls-1" d="M139.18 131.81l.61.34a20.63 20.63 0 0 1 11.49-3v-.61a21.21 21.21 0 0 0-12.1 3.3"></path></clipPath><linearGradient id="linear-gradient-20" x1="931.61" y1="916.93" x2="932.97" y2="916.93" gradientTransform="matrix(-8.92 2.31 2.31 8.92 6349.1 -10204.4)" xlink:href="#linear-gradient-5"></linearGradient><clipPath id="clip-path-23"><path id="SVGID-23" data-name="SVGID" class="cls-1" d="M151.28 129.12c10.17 0 15.76 7.72 15.76 20.14h.61c0-11-4.6-20.75-16.37-20.75v.61z"></path></clipPath><linearGradient id="linear-gradient-21" x1="822.32" y1="957.93" x2="823.68" y2="957.93" gradientTransform="matrix(11.99 15.29 15.29 -11.99 -24351.89 -960.08)" gradientUnits="userSpaceOnUse"><stop offset="0" stop-color="#ffc20e"></stop><stop offset=".05" stop-color="#ffc20e"></stop><stop offset=".95" stop-color="#a65e0c"></stop><stop offset="1" stop-color="#a65e0c"></stop></linearGradient><clipPath id="clip-path-24"><path id="SVGID-24" data-name="SVGID" class="cls-1" d="M109.26 156.77c0 9 4.23 14.21 13.32 14.21v-.61c-8.43 0-12.71-4.57-12.71-13.6z"></path></clipPath><linearGradient id="linear-gradient-22" x1="806.14" y1="955.02" x2="807.5" y2="955.02" gradientTransform="matrix(9.75 10.49 10.49 -9.75 -17765.9 1009.72)" gradientUnits="userSpaceOnUse"><stop offset="0" stop-color="#d89016"></stop><stop offset=".05" stop-color="#d89016"></stop><stop offset=".95" stop-color="#8f4a02"></stop><stop offset="1" stop-color="#8f4a02"></stop></linearGradient><clipPath id="clip-path-25"><path id="SVGID-25" data-name="SVGID" class="cls-1" d="M122.58 170.37v.63c5.44 0 9.84-1.25 13.45-3.71l-.61-.32c-3.26 2.21-7.63 3.42-12.84 3.42"></path></clipPath><linearGradient id="linear-gradient-23" x1="925.18" y1="828.19" x2="926.54" y2="828.19" gradientTransform="matrix(-9.93 2.57 -2.57 -9.93 11447.65 6014.03)" xlink:href="#linear-gradient-6"></linearGradient><clipPath id="clip-path-26"><path id="SVGID-26" data-name="SVGID" class="cls-1" d="M122.88 162.53v.61a7.12 7.12 0 0 0 4-1l-.61-.34a7 7 0 0 1-3.42.77"></path></clipPath><linearGradient id="linear-gradient-24" x1="645.91" y1="598.78" x2="647.27" y2="598.78" gradientTransform="rotate(-14 -5863.902 8639.899) scale(3.06)" xlink:href="#linear-gradient-5"></linearGradient><clipPath id="clip-path-27"><path id="SVGID-27" data-name="SVGID" class="cls-1" d="M118.39 157.15c0 2.41.58 6 4.49 6v-.61c-3 0-3.88-2.42-3.88-5.38z"></path></clipPath><linearGradient id="linear-gradient-25" x1="997.96" y1="1050.5" x2="999.32" y2="1050.5" gradientTransform="scale(-5.5 5.5) rotate(-53.8 -518.617 1546.72)" gradientUnits="userSpaceOnUse"><stop offset="0" stop-color="#ffc20e"></stop><stop offset=".05" stop-color="#ffc20e"></stop><stop offset=".95" stop-color="#d78817"></stop><stop offset="1" stop-color="#d78817"></stop></linearGradient></defs><path d="M150 90.65c-19.6 0-35.76 3.72-50 11.27v58.28c0 12.45 4.68 22.87 13.54 30.13 8 6.54 33.56 17.76 36.46 19 2.9-1.26 28.47-12.48 36.46-19 8.86-7.27 13.54-17.69 13.54-30.13v-58.27c-14.24-7.56-30.4-11.28-50-11.28" fill="#1e0000"></path><g clip-path="url(#clip-path)"><path d="M101 91.67h98v116.57h-98z" fill="url(#radial-gradient)"></path></g><path d="M181.27 201.62v5h.9v-2.09h.13l1.36 2.09h1.09l-1.51-2.21a1.32 1.32 0 0 0 1.11-1.33 1.46 1.46 0 0 0-1.66-1.47zm1.31.74c.77 0 .87.37.87.7s-.2.78-1.17.78h-.11v-1.48zm3.53 1.78a3.39 3.39 0 1 1-3.39-3.39 3.38 3.38 0 0 1 3.39 3.39m-3.39-4.14a4.12 4.12 0 1 0 4.12 4.12 4.12 4.12 0 0 0-4.12-4.12" fill="#c86e14"></path><g clip-path="url(#clip-path-2)"><path d="M105.52 102.82h89v100.51h-89z" fill="url(#radial-gradient-2)"></path></g><g clip-path="url(#clip-path-3)"><path d="M128.54 225.55L84 182.52 127 138l44.56 43" fill="url(#linear-gradient)"></path></g><g clip-path="url(#clip-path-4)"><path d="M128.45 181L173 138l43 44.55-44.57 43" fill="url(#linear-gradient-2)"></path></g><g clip-path="url(#clip-path-5)"><path d="M97.86 105.49l87-30.3 17.28 49.63-87 30.3" fill="url(#linear-gradient-3)"></path></g><g clip-path="url(#clip-path-6)"><path d="M145.53 160.5l7-13.93 11.33 5.69-7 13.94" fill="url(#linear-gradient-4)"></path></g><g clip-path="url(#clip-path-7)"><path d="M151 163.63l-2.84-.35.16-1.28 2.84.35" fill="url(#linear-gradient-5)"></path></g><g clip-path="url(#clip-path-8)"><path d="M148.07 136.05l3.07-.81.44 1.69-3.07.81" fill="url(#linear-gradient-6)"></path></g><g clip-path="url(#clip-path-9)"><path d="M152.76 152.3l-6.87-13.56 11-5.58 6.88 13.55" fill="url(#linear-gradient-7)"></path></g><g clip-path="url(#clip-path-10)"><path d="M186.23 135l-12.48 11.28-11.26-12.47L175 122.5" fill="url(#linear-gradient-8)"></path></g><g clip-path="url(#clip-path-11)"><path d="M175.08 137.55l4.88-4.24 4.18 4.81-4.88 4.24" fill="url(#linear-gradient-9)"></path></g><g clip-path="url(#clip-path-12)"><path d="M188.59 144.21l-8.59-4.48 3.83-7.35 8.61 4.48" fill="url(#linear-gradient-10)"></path></g><g clip-path="url(#clip-path-13)"><path d="M181.33 125.58l10 3.24-1.94 6-10-3.24" fill="url(#linear-gradient-11)"></path></g><g clip-path="url(#clip-path-14)"><path d="M197.66 165.1l-12.61 12.36-12.35-12.61 12.62-12.35" fill="url(#linear-gradient-12)"></path></g><g clip-path="url(#clip-path-15)"><path d="M169.49 165.07l10.09 2.93-1.64 5.66-10.08-2.91" fill="url(#linear-gradient-13)"></path></g><g clip-path="url(#clip-path-16)"><path d="M175.82 166.79l-9-4.37 3.57-7.35 9 4.37" fill="url(#linear-gradient-14)"></path></g><g clip-path="url(#clip-path-17)"><path d="M175.11 160.78l5.18-4.76 4.75 5.16-5.18 4.76" fill="url(#linear-gradient-15)"></path></g><g clip-path="url(#clip-path-18)"><path d="M178 133.55l13.25 19.08L173 165.29l-13.25-19.08" fill="url(#linear-gradient-16)"></path></g><g clip-path="url(#clip-path-19)"><path d="M186.66 132.81l14.28 19.51L182.19 166l-14.28-19.5" fill="url(#linear-gradient-17)"></path></g><path d="M148.32 187.68h-8.53l-.61.62h9.75" fill="#8f4a02"></path><g clip-path="url(#clip-path-20)"><path d="M148.41 169.16l3.91.61-.26 1.65-3.91-.61" fill="url(#linear-gradient-18)"></path></g><g clip-path="url(#clip-path-21)"><path d="M177.86 156.57l-15.47 21.6-20.45-14.64 15.46-21.61" fill="url(#linear-gradient-19)"></path></g><g clip-path="url(#clip-path-22)"><path d="M152.16 131.92l-12.23 3.16-1.64-6.35 12.23-3.16" fill="url(#linear-gradient-20)"></path></g><g clip-path="url(#clip-path-23)"><path d="M161.42 120.56l16.3 20.8-20.21 15.85-16.31-20.8" fill="url(#linear-gradient-21)"></path></g><path d="M118.39 130h-8.52l-.61-.61H119zm17 0h-8.51l-.61-.61H136z" fill="#ffc20e"></path><path class="cls-52" d="M105.52 160.2v-33l.61.27v32.73zm84.85-19.4v-9.22l-.62.31v7.4l.62 1.51zM119 157.15v-27.78l-.61.61v27.16h.61z"></path><path d="M193.87 160.2v-55.89l.61-.56v56.45zm-25.14-1.69v9.56l.61-.34v-7.85l-.61-1.36zm-41.82 3.59V130l-.61-.61v32.39zm-17-5.33V130l-.61-.61v27.4z" fill="#d89016"></path><g clip-path="url(#clip-path-24)"><path d="M116.41 150.12l13.26 14.28-14.24 13.23-13.26-14.28" fill="url(#linear-gradient-22)"></path></g><g clip-path="url(#clip-path-25)"><path d="M137 170.73l-13.59 3.51-1.82-7 13.59-3.51" fill="url(#linear-gradient-23)"></path></g><g clip-path="url(#clip-path-26)"><path d="M122.56 161.84l4.12-1 .55 2.23-4.12 1" fill="url(#linear-gradient-24)"></path></g><g clip-path="url(#clip-path-27)"><path d="M120 165.28l-4.43-6 5.78-4.23 4.43 6" fill="url(#linear-gradient-25)"></path></g><path class="cls-52" d="M139.18 131.81v56.49l.61-.62v-55.53"></path><path d="M148.93 162.34V137l-.61-.41v26.18zm0 8.19v17.77l-.61-.61v-17.95zM136 167.27v-37.9l-.61.61v37" fill="#bf7312"></path></svg> 