<?xml version="1.0" encoding="UTF-8"?> <svg xmlns="http://www.w3.org/2000/svg" data-name="Layer 1" viewBox="0 0 300 300"><path d="M103.47 123.15v53.39H81.37a1.21 1.21 0 0 1-1.06-.51c-1.16-1.43-2.36-2.84-3.57-4.3-1.22 1.47-2.43 2.89-3.6 4.34a1.17 1.17 0 0 1-1 .47H50.02v-53.39h8.67a1.74 1.74 0 0 0 .18.33l3.45 4.13a2.36 2.36 0 0 0 .32.27l3.91-4.73h20.4l4 4.78c.53-.63 1-1.18 1.47-1.74.82-1 1.63-2 2.44-3zm-47.06 6.45v27.41a1.6 1.6 0 0 0 .67 1.4c1.4 1.12 2.76 2.29 4.18 3.47-1.51 1.26-3 2.48-4.44 3.71-.15.14-.36.33-.37.51v4h40.61v-.8-26.73a1.34 1.34 0 0 0-.56-1.17c-1.43-1.15-2.83-2.34-4.29-3.56 1.49-1.24 2.92-2.43 4.34-3.63.2-.16.46-.39.47-.59v-4zM132.67 123.15c-.36 2.41-.73 4.82-1.07 7.24q-1.22 8.43-2.41 16.86c-.05.37-.2.48-.55.48h-3.67c-.39 0-.52-.16-.6-.53-.64-2.85-1.3-5.7-2-8.55a.51.51 0 0 0-.23-.31c-.23 1-.48 2-.71 3-.44 1.92-.9 3.84-1.31 5.77-.1.43-.24.61-.69.6h-3.53c-.41 0-.57-.11-.63-.54l-3-21.41-.39-2.63h4.66v.79q.66 5.64 1.34 11.28c.09.8.2 1.59.31 2.39h.14q1.17-7.23 2.33-14.46h3.2q.61 4 1.25 7.94.52 3.27 1.06 6.54a1.12 1.12 0 0 0 .22-.55c.34-2.9.7-5.81 1-8.72.2-1.73.38-3.47.57-5.21zM156.67 123.15a.56.56 0 0 0 .17.09 3.34 3.34 0 0 1 3 3.53c.09 1.93.06 3.86 0 5.79a2.65 2.65 0 0 1-1.92 2.74 1.1 1.1 0 0 0-.24.16l.82.37a2.13 2.13 0 0 1 1.3 1.95c0 2.32.06 4.66-.09 7a2.87 2.87 0 0 1-2.78 2.85c-2.85.14-5.71 0-8.65 0v-24.5zm-3.91 20.52h1.72a.84.84 0 0 0 .9-.87v-4.78a.81.81 0 0 0-.85-.84h-1.76zm0-10h1.68a.84.84 0 0 0 1-.88v-4.72a1.11 1.11 0 0 0-.69-.81 10.14 10.14 0 0 0-1.92 0zM184.53 123.15a1.86 1.86 0 0 0 .25.1c1.74.43 2.58 1.24 2.68 3 .13 2.35.09 4.7.07 7.06a2.39 2.39 0 0 1-1.9 2.5c.05.07.06.12.09.12 1.65.48 2.15 1.69 2.12 3.27v4.27a8.68 8.68 0 0 0 .66 4.17 4.84 4.84 0 0 1-.65.07h-2.6c-1 0-1.14 0-1.4-1a16 16 0 0 1-.48-3.07 34.35 34.35 0 0 1 0-3.93c.11-2.18-1-2.75-2.92-2.5v10.46H176v-24.52zm-4.08 10.55h1.84a.8.8 0 0 0 .81-.87v-4.73a.78.78 0 0 0-.77-.84h-1.88zM250 176.48c-1.51 0-3 0-4.53.05-.46 0-.46-.33-.54-.61l-2.67-9.14c-.06-.21-.13-.41-.25-.78a4.8 4.8 0 0 0-.94 2.31v8.17h-4.37V152h4.3v7l.17.06c.13-.24.27-.47.39-.71 1-2 2-3.94 3-5.92a.72.72 0 0 1 .75-.48h4.13c-.15.29-.25.52-.37.74-1.4 2.6-2.82 5.19-4.2 7.79a1.3 1.3 0 0 0-.13.92q2.46 7.25 5 14.47c.06.17.15.33.22.49zM145.07 123.15v4.07h-5.2v5.4h3.64v4.09h-3.62v6.94h5.3v4h-9.73v-23.91a5.63 5.63 0 0 1 .05-.59zM172.67 123.15v4.07h-5.2v5.4h3.64v4.09h-3.62v6.94h5.3v4h-9.73v-23.91a5.63 5.63 0 0 1 0-.59zM194 176.53c-1.18-8.23-2.35-16.37-3.52-24.56h4.58q.87 7.28 1.73 14.53h.12c.79-4.84 1.57-9.68 2.36-14.55h3.18l2.34 14.55h.21q.87-7.26 1.74-14.56h4.56c-.17 1.28-.34 2.5-.51 3.73q-1.11 7.71-2.21 15.41c-.23 1.63-.47 3.25-.68 4.88 0 .43-.24.55-.65.54h-3.4c-.54 0-.72-.18-.83-.67-.62-2.77-1.26-5.54-1.89-8.31a1 1 0 0 0-.25-.5c-.37 1.6-.74 3.2-1.1 4.79-.32 1.37-.64 2.73-.93 4.09-.09.41-.23.61-.69.6-1.38.01-2.71.03-4.16.03zM168.4 152h4.37v24.55h-4.12c-.16 0-.38-.33-.45-.54-1-3.1-2-6.21-3-9.31a22.06 22.06 0 0 0-1-2.7v12.53h-4.38v-24.59h2.89c1.48 0 1.48 0 2 1.4q1.68 4.92 3.34 9.83a1.57 1.57 0 0 0 .39.68zM176 176.46v-24.52h7.73a8 8 0 0 1 1.2.06c2 .33 3.11 1.55 3.12 3.82v16.8c0 2.51-1.28 3.81-3.76 3.88-2.67.08-5.34 0-8 0a1.25 1.25 0 0 1-.29-.04zm4.41-4h2.26c.8 0 .93-.14.93-.93v-6.13-8.52c0-.28-.22-.78-.36-.79-.94-.07-1.88 0-2.82 0zM127.63 152H132v9.41h3.41V152h4.43v24.49h-4.44v-10.92H132v10.9h-4.37zM142 176.53c.79-3.49 1.54-6.87 2.3-10.24q1.54-6.81 3.07-13.63c.12-.54.31-.77.9-.74 1.09.06 2.18 0 3.26 0 .31 0 .53 0 .62.42q2.69 12 5.39 24a.92.92 0 0 1 0 .22h-3.9c-.14 0-.35-.3-.39-.49-.25-1-.47-2.12-.68-3.18-.06-.34-.16-.51-.54-.5h-4.88c-.24 1.17-.52 2.33-.72 3.5-.1.55-.32.72-.87.7-1.17-.1-2.32-.06-3.56-.06zm7.86-18.19h-.12c-.54 3.19-1.09 6.38-1.64 9.59h3.4c-.56-3.23-1.11-6.41-1.65-9.59zM112.55 169h4.35v2.49c0 1 .35 1.34 1.31 1.34s1.45-.39 1.47-1.37v-1.06a3.64 3.64 0 0 0-1.38-3.16c-1.44-1.28-2.81-2.64-4.25-3.94a4.21 4.21 0 0 1-1.56-3.18 32.73 32.73 0 0 1 .08-4.32 4.36 4.36 0 0 1 3.5-3.9 9 9 0 0 1 4.55 0 4.6 4.6 0 0 1 3.48 4.64v3h-4.43v-2.4c0-1-.36-1.41-1.33-1.41s-1.36.42-1.47 1.45a4.94 4.94 0 0 0 2 4.76c1.32 1 2.47 2.3 3.72 3.43a4.09 4.09 0 0 1 1.46 2.89 26.2 26.2 0 0 1 0 4.06q-.45 4.26-4.89 4.57a11.55 11.55 0 0 1-3.1-.22 4.18 4.18 0 0 1-3.5-3.86c-.11-1.28-.01-2.53-.01-3.81zM233.93 159.49h-4.47v-2.25c0-.74-.05-1.2-.73-1.42a2.17 2.17 0 0 0-2.26.27 1.31 1.31 0 0 0-.31.9v14.46a1.17 1.17 0 0 0 1.25 1.32 5.34 5.34 0 0 0 .8 0 1.18 1.18 0 0 0 1.25-1.33v-2.43h4.39c0 1.93.33 3.9-.81 5.66a4.89 4.89 0 0 1-4.09 2.14 12.55 12.55 0 0 1-3.24-.15c-2.6-.51-4-2.25-4-5V157.26c0-3.65 1.79-5.55 5.45-5.69a11.81 11.81 0 0 1 2.91.24 4.31 4.31 0 0 1 3.65 3.82c.18 1.27.15 2.54.21 3.86zM214 152h4.35v24.51H214z"></path></svg> 