<?xml version="1.0" encoding="UTF-8"?> <svg xmlns="http://www.w3.org/2000/svg" id="Layer_1" data-name="Layer 1" viewBox="0 0 300 300"><defs><style>.cls-1{fill:#35b454}</style></defs><path class="cls-1" d="M78.12 132.5H50.59v8.85h18.09a2 2 0 0 1 2 2v15.54h-3.96a2 2 0 0 1-2-2v-11.22h-7.64a7.05 7.05 0 0 0-7.08 7.08v7.87a7.05 7.05 0 0 0 7.08 7.08H85.2v-28.12a7 7 0 0 0-7.08-7.08zM111.75 158.85h-3.93a2 2 0 0 1-2-2V132.5h-7.64a7 7 0 0 0-7.08 7.08v21a7.05 7.05 0 0 0 7.08 7.08h28.12v-49.91h-14.75zM152.85 158.85h-3.93a2 2 0 0 1-2-2V132.5H132.2v28.12a7.05 7.05 0 0 0 7.08 7.08h13.57v4.3h-20.06v10.22h27.73a7 7 0 0 0 7.08-7.08V132.5h-14.75zM201.62 132.5H173.3v28.12a7.05 7.05 0 0 0 7.08 7.08h27.73v-8.85H190a2 2 0 0 1-2-2v-15.5h4a2 2 0 0 1 2 2v11.21h7.67a7 7 0 0 0 7.08-7.08v-7.86a7 7 0 0 0-7.13-7.12zM242.72 132.5H214.6v35.2h14.75v-26.35h3.93a2 2 0 0 1 2 2v24.35H250v-28.12a7.35 7.35 0 0 0-7.28-7.08z"></path></svg> 