<?xml version="1.0" encoding="UTF-8"?> <svg xmlns="http://www.w3.org/2000/svg" id="Layer_1" data-name="Layer 1" viewBox="0 0 300 300"><defs><style>.cls-1{fill:#e1150a}.cls-2{fill:#fff}</style></defs><path class="cls-1" d="M50 116.67h200v66.66H50z"></path><path class="cls-2" d="M100.67 158.28c.22.19.4.35.59.5a7.18 7.18 0 0 0 3.4 1.42 11.46 11.46 0 0 0 4.48-.16 9.76 9.76 0 0 0 3-1.31c.55-.35 1.08-.72 1.66-1.11l4.48 3.44-.26.29a13.36 13.36 0 0 1-3.61 2.62 18.53 18.53 0 0 1-5.72 1.85 16.86 16.86 0 0 1-4.26.08 15.39 15.39 0 0 1-5.43-1.47 12.35 12.35 0 0 1-7-9.22 13.42 13.42 0 0 1 1.06-8.37 12.8 12.8 0 0 1 7.61-6.72 15.69 15.69 0 0 1 10.29.2 11.72 11.72 0 0 1 6.77 6.78 16 16 0 0 1 1 3.53v.16zm-1.91-4.6l12.24-5.09a.53.53 0 0 0 0-.14 6.1 6.1 0 0 0-2.54-2.73 6.23 6.23 0 0 0-4.38-.56 6.34 6.34 0 0 0-4.81 4 8.82 8.82 0 0 0-.54 4.25 1.48 1.48 0 0 0 .03.27zM163.94 139.34a14 14 0 0 1 8.87 3.1 12.71 12.71 0 0 1 4.68 8.12 13.18 13.18 0 0 1-8.8 14.6 14.74 14.74 0 0 1-5.86.8 13.83 13.83 0 0 1-7.73-2.82 12.68 12.68 0 0 1-5-8.27 13.18 13.18 0 0 1 8.67-14.65 15.33 15.33 0 0 1 5.17-.88zm-7 13.1a8.19 8.19 0 0 0 .36 2.59 6.81 6.81 0 0 0 7.42 4.81 6.26 6.26 0 0 0 4.94-3.32 7.72 7.72 0 0 0 .81-5.41 6.86 6.86 0 0 0-7.91-5.57 6.3 6.3 0 0 0-4.54 3 7.61 7.61 0 0 0-1.02 3.9zM218.28 139.34a14.17 14.17 0 0 1 7.85 2.29 13.2 13.2 0 0 1 2.77 19.59 13.39 13.39 0 0 1-7.24 4.37 14.69 14.69 0 0 1-4.72.35 13.64 13.64 0 0 1-9.2-4.43 12.61 12.61 0 0 1-3.2-6.72 12.86 12.86 0 0 1 2.75-10.37 13.4 13.4 0 0 1 7.5-4.66 14.6 14.6 0 0 1 3.49-.42zm-6.9 13.17a8.12 8.12 0 0 0 .35 2.48 6.83 6.83 0 0 0 7.43 4.86 6.28 6.28 0 0 0 4.84-3.14 7.71 7.71 0 0 0 .89-5.69 6.85 6.85 0 0 0-7.89-5.48 6.33 6.33 0 0 0-4.46 2.91 7.58 7.58 0 0 0-1.16 4.06zM128.34 165.51c-.27.06-6.75.07-7.08 0v-25.67c.23-.07 6.75-.08 7.09 0v3.56l.21-.23a10.37 10.37 0 0 1 6-3.57 11 11 0 0 1 7.29.91 9.34 9.34 0 0 1 5.05 6.49 11.27 11.27 0 0 1 .29 2.65v15.91h-7.09V150.94a5.06 5.06 0 0 0-2.24-4.3 5.7 5.7 0 0 0-1.63-.83 6.25 6.25 0 0 0-5.22.48 5.19 5.19 0 0 0-2.65 4.43v14.41zM194.91 165.53h-7.78q-5.3-12.84-10.59-25.72H184.35c.3 0 .3 0 .4.29l2.84 7.79 3.3 9a1 1 0 0 0 .14.28c2.14-5.79 4.24-11.58 6.36-17.38h8.11zM67.92 165.56v-33.41c.23-.07 6.5-.1 7.17 0v26.95h16.06v6.48l-.18.05h-23z"></path><path class="cls-1" d="M95.87 204.15h-8.35v7.78h9.34v2.33H84.71V192.7h11.67v2.3h-8.86v6.82h8.35zM100.38 203c0-1.64 0-2.92-.12-4.2h2.49l.16 2.53h.09a5.73 5.73 0 0 1 5.12-2.88c2.14 0 5.47 1.28 5.47 6.59v9.25h-2.82v-8.93c0-2.49-.93-4.6-3.58-4.6a4.06 4.06 0 0 0-3.78 2.88 4.1 4.1 0 0 0-.19 1.31v9.34h-2.82zM121.41 195.06v3.71h4v2.15h-4v8.32c0 1.92.54 3 2.11 3a5.11 5.11 0 0 0 1.63-.2l.13 2.15a7.75 7.75 0 0 1-2.5.38 4.05 4.05 0 0 1-3-1.18 6.11 6.11 0 0 1-1.08-4.07v-8.41h-2.4v-2.15h2.4v-2.84zM130 207c.06 3.78 2.46 5.34 5.28 5.34a10 10 0 0 0 4.28-.8l.52 2a12.63 12.63 0 0 1-5.19 1c-4.73 0-7.61-3.17-7.61-7.81s2.78-8.35 7.29-8.35c5.06 0 6.37 4.45 6.37 7.3a6.37 6.37 0 0 1-.1 1.31zm8.22-2c0-1.79-.74-4.57-3.87-4.57-2.88 0-4.1 2.62-4.32 4.57zM144.45 203.61c0-1.83 0-3.4-.13-4.84h2.46l.13 3h.1a4.68 4.68 0 0 1 4.32-3.39 6.12 6.12 0 0 1 .77.07v2.65a8.64 8.64 0 0 0-1-.06c-2 0-3.4 1.5-3.78 3.58a9.39 9.39 0 0 0-.1 1.31v8.29h-2.81zM155 203.83c0-2 0-3.58-.13-5.06h2.53l.16 2.66h.06a6 6 0 0 1 5.48-3c3.77 0 6.59 3.17 6.59 7.87 0 5.57-3.43 8.32-7 8.32a5.39 5.39 0 0 1-4.77-2.43h-.06v8.42H155zm2.82 4.13a4.83 4.83 0 0 0 .12 1.15 4.32 4.32 0 0 0 4.2 3.3c3 0 4.7-2.44 4.7-6 0-3.1-1.6-5.76-4.58-5.76a4.49 4.49 0 0 0-4.28 3.49 6.17 6.17 0 0 0-.16 1.12zM173.25 203.61c0-1.83 0-3.4-.13-4.84h2.46l.13 3h.1a4.68 4.68 0 0 1 4.32-3.39 6.12 6.12 0 0 1 .77.07v2.65a8.64 8.64 0 0 0-1-.06c-2 0-3.4 1.5-3.78 3.58a9.39 9.39 0 0 0-.1 1.31v8.29h-2.81zM185.18 196.15a1.67 1.67 0 0 1-1.69-1.73 1.75 1.75 0 1 1 1.73 1.73zm-1.34 18.11v-15.49h2.82v15.49zM190.94 211.38a8 8 0 0 0 3.75 1.09c2 0 3-1 3-2.3s-.8-2-2.85-2.82c-2.81-1-4.12-2.56-4.12-4.38 0-2.5 2-4.55 5.34-4.55a7.26 7.26 0 0 1 3.78 1l-.68 2a6.29 6.29 0 0 0-3.16-.9c-1.67 0-2.56 1-2.56 2.11s.89 1.86 2.91 2.66c2.65 1 4.06 2.34 4.06 4.64 0 2.75-2.14 4.67-5.76 4.67a8.84 8.84 0 0 1-4.35-1.09zM205.6 207c.06 3.78 2.46 5.34 5.28 5.34a10.09 10.09 0 0 0 4.29-.8l.51 2a12.59 12.59 0 0 1-5.19 1c-4.73 0-7.61-3.17-7.61-7.81s2.78-8.35 7.29-8.35c5.06 0 6.37 4.45 6.37 7.3a7.33 7.33 0 0 1-.09 1.31zm8.22-2c0-1.79-.73-4.57-3.87-4.57-2.88 0-4.1 2.62-4.32 4.57z"></path></svg> 