<?xml version="1.0" encoding="UTF-8"?> <svg xmlns="http://www.w3.org/2000/svg" id="Layer_1" data-name="Layer 1" viewBox="0 0 300 300"><defs><style>.cls-2{fill:#fcd100}</style></defs><rect x="50" y="97.89" width="65.29" height="66.13" rx="3.61" fill="#033b84"></rect><path class="cls-2" d="M82.65 113.79a17.56 17.56 0 0 1 17.58 14.9h12c-1.52-11.21-14.2-20-29.62-20s-28.11 8.74-29.63 20h12a17.56 17.56 0 0 1 17.67-14.9z"></path><path class="cls-2" d="M88.77 147.06V117s0-1.44-6.12-1.44-6.13 1.44-6.13 1.44v30a17.34 17.34 0 0 1-11.36-13.21h-12c1.91 10.9 14.39 19.32 29.53 19.32s27.62-8.42 29.52-19.32h-12a17.34 17.34 0 0 1-11.44 13.27z"></path><path d="M128.86 149.46h30.88l.14-17.87a4 4 0 0 0-4.16-4.16h-18.08l-.14-7h31.32v25.05a4.34 4.34 0 0 0 4.41 4H202v-8.25h-24.57v-6.82h21.28V128h-21.36v-7.56h32.8v29.05h7.68v-24.28l7.37 17a5.67 5.67 0 0 0 5 3 6.27 6.27 0 0 0 5.2-3l6.64-17v24.25h8v-36.25H238.4l-8.24 21.18s-8.81-21.5-9.29-21.18-87.53 0-87.53 0-4.8.16-4.8 4.8v13.76s.69 3.79 3.79 3.79 20.59-.11 20.59-.11v6.28h-24.06z"></path><path class="cls-2" d="M50 170.66h200v4.8H50z"></path><path d="M54.38 194.46l-1.33 3.89h-2.31c.21-.55 5-13.85 5.27-14.46h3.28l-.8 14.46h-2.21l.26-3.89zm2.3-2c.17-2.2.35-4.93.48-6.53h-.08c-.33 1.28-1.27 4.28-2 6.53zM75.51 194.24l-.07.26c-.49 2-.92 4.07-3.87 4.07-2.58 0-3.14-1.71-2.62-4.11l1.41-6.61c.57-2.6 1.29-4.17 3.73-4.17 3.12 0 3.11 2.3 2.68 4v.2h-2.2l.12-.56c.25-1.17.14-1.79-.68-1.79s-1 .59-1.26 1.86l-1.54 7.28c-.25 1.22-.23 2 .63 2s1-.62 1.33-1.92l.12-.53zM83.78 195.59c-.19.89-.51 2.39-.56 2.76h-2.13c0-.21.07-.56.14-.91a2.21 2.21 0 0 1-2 1.09c-1.76 0-2-1.68-1.65-3.41.57-2.6 1.84-3.28 4.47-3.68l.43-.06.3-1.36c.17-.79.1-1.33-.57-1.33s-.82.57-1 1.36l-.08.34H79v-.19c.3-1.39.68-3.23 3.39-3.23 2.24 0 3 1.18 2.57 3zm-1.61-2.51l-.34.07a2.16 2.16 0 0 0-2 1.87c-.17.76-.2 1.59.59 1.59s1.18-.77 1.51-2.3zM87.46 187.15h1.18l.63-2.71h2.17l-.63 2.71h1.4l-.4 1.87h-1.4l-1.51 6.79c-.11.57-.06.93.6.93a3.5 3.5 0 0 0 .69-.05l-.36 1.67a6.19 6.19 0 0 1-1.37.16c-1.38 0-2.24-.45-1.82-2.39l1.57-7.13h-1.15zM95.05 193.34s-.36 1.68-.37 1.76c-.2.88-.15 1.63.65 1.63s1-.78 1.12-1.41l.06-.32h2.15v.23c-.34 1.68-.92 3.3-3.48 3.3-2.84 0-2.91-2.15-2.51-4.05l.83-3.88c.37-1.75 1-3.61 3.57-3.61 2.77 0 3 1.89 2.58 3.85 0 .06-.52 2.43-.53 2.5zm2.27-1.74c0-.06.3-1.44.31-1.49.15-.75.07-1.42-.71-1.42s-1 .56-1.18 1.41l-.33 1.5zM102.2 190.94c.38-1.86.64-3 .77-3.79H105a13.61 13.61 0 0 1-.28 1.65 2.76 2.76 0 0 1 2.66-1.82l-.57 2.58c-1.47 0-2.33.61-2.79 2.79l-1.25 6h-2.19zM109.57 197.57l-1 4.54h-2.19l2.5-11.75c.33-1.51.53-2.54.65-3.21h2.15c0 .09-.07.55-.16 1a2.32 2.32 0 0 1 2-1.15c1.64 0 2.07 1.5 1.61 3.65l-.87 4.06c-.54 2.54-1.37 3.85-3.14 3.85a1.58 1.58 0 0 1-1.55-.99zm2.57-2.77l.85-4c.23-1.05.29-2-.56-2s-1.2.94-1.48 2.26l-.67 3.19c-.3 1.44-.35 2.35.59 2.35.77.01 1.13-.87 1.27-1.8zM118.76 187.15H121l-2.4 11.2h-2.18zm.83-3.89h2.19l-.51 2.38h-2.19zM121.52 198.35l3.21-15.09h2.18l-3.2 15.09zM126.65 198.35l3.21-15.09h2.19l-3.21 15.09zM138.2 195.59c-.19.89-.51 2.39-.56 2.76h-2.13c0-.21.07-.56.14-.91a2.21 2.21 0 0 1-2 1.09c-1.76 0-2-1.68-1.65-3.41.57-2.6 1.84-3.28 4.47-3.68l.43-.06.3-1.36c.17-.79.1-1.33-.57-1.33s-.82.57-1 1.36l-.08.34h-2.16v-.19c.3-1.39.68-3.23 3.39-3.23 2.24 0 2.95 1.18 2.57 3zm-1.61-2.51l-.34.07a2.16 2.16 0 0 0-2 1.87c-.17.76-.2 1.59.59 1.59s1.18-.77 1.51-2.3zM142.11 190.94c.38-1.86.64-3 .77-3.79H145a13.61 13.61 0 0 1-.28 1.65 2.76 2.76 0 0 1 2.66-1.82l-.57 2.58c-1.47 0-2.33.61-2.79 2.79l-1.25 6h-2.19zM158.1 183.89h2.9c2.32 0 3.13 1.27 2.72 3.55l-.15.78c-.28 1.47-1 2.32-2 2.55 1.08.47 1.47 1.52 1.18 2.95l-.18 1c-.48 2.48-1.49 3.65-4.16 3.65H155zm-.54 12.65h.95c1.24 0 1.57-.6 1.85-2.09l.19-1c.22-1.17.15-1.88-1.3-1.88h-.63zm2.16-6.76c1.14 0 1.48-.38 1.77-1.85l.11-.58c.19-1.11 0-1.63-1.24-1.63h-.51l-.85 4.06zM166.08 190.94c.39-1.86.64-3 .77-3.79h2.07a13.61 13.61 0 0 1-.28 1.65 2.77 2.77 0 0 1 2.66-1.8l-.57 2.58c-1.47 0-2.33.61-2.79 2.79l-1.25 6h-2.18zM177.48 195.59c-.18.89-.51 2.39-.56 2.76h-2.12c0-.21.07-.56.13-.91a2.2 2.2 0 0 1-2 1.09c-1.75 0-2-1.68-1.65-3.41.57-2.6 1.84-3.28 4.47-3.68l.43-.06.3-1.36c.17-.79.1-1.33-.57-1.33s-.82.57-1 1.36l-.09.34h-2.16v-.19c.3-1.39.68-3.23 3.39-3.23 2.25 0 2.95 1.18 2.57 3zm-1.61-2.51l-.34.07a2.17 2.17 0 0 0-2 1.87c-.17.76-.19 1.59.59 1.59s1.18-.77 1.51-2.3zM181.46 190.6c.47-2.27.62-3 .71-3.45h2.14c0 .3-.07.52-.14.84a2.6 2.6 0 0 1 2.11-1c1.45 0 2.08 1.1 1.72 2.76l-1.83 8.62H184l1.72-8.09c.22-1 0-1.47-.67-1.47s-1.11.57-1.42 2.05l-1.63 7.49h-2.18zM198.43 183.26l-2.55 12c-.37 1.7-.5 2.46-.61 3.1h-2.13a5.39 5.39 0 0 1 .1-.88 2.19 2.19 0 0 1-2 1.06c-1.85 0-2.09-1.75-1.66-3.78l.92-4.25c.39-1.77 1-3.53 3-3.53a1.82 1.82 0 0 1 1.72.83l.95-4.54zm-5.71 7.24l-.95 4.44c-.17.8-.19 1.67.63 1.67s1.2-.79 1.48-2.11l.8-3.69c.27-1.24.25-2-.69-2-.74-.02-1.06.67-1.27 1.69zM120.24 98.94h-1.13V98h3.47v.91h-1.12v3.48h-1.22zM126.9 101v-2.13c-.16.94-.47 2.41-.76 3.55h-1c-.22-1.09-.52-2.59-.67-3.55 0 .51.06 1.41.06 2.16v1.39h-1.08V98h1.74c.2.79.46 2.15.55 2.79.1-.69.4-1.89.64-2.79h1.69v4.39h-1.17z"></path></svg> 