<?xml version="1.0" encoding="UTF-8"?> <svg xmlns="http://www.w3.org/2000/svg" data-name="Layer 1" viewBox="0 0 300 300"><path d="M131.45 190.64c37.74 0 58.37-31.27 58.37-58.38v-2.65A41.86 41.86 0 0 0 200 119a40.55 40.55 0 0 1-11.78 3.23 20.58 20.58 0 0 0 9-11.34 41.25 41.25 0 0 1-13 5 20.54 20.54 0 0 0-35 18.71A58.28 58.28 0 0 1 107 113.12a20.53 20.53 0 0 0 6.35 27.39 20.26 20.26 0 0 1-9.29-2.57v.27a20.52 20.52 0 0 0 16.46 20.11 20.53 20.53 0 0 1-9.27.35 20.55 20.55 0 0 0 19.17 14.25 41.21 41.21 0 0 1-25.49 8.78 41.69 41.69 0 0 1-4.89-.28 58.07 58.07 0 0 0 31.45 9.21" fill="#1da1f2"></path></svg> 