<?xml version="1.0" encoding="UTF-8"?> <svg xmlns="http://www.w3.org/2000/svg" id="Layer_1" data-name="Layer 1" viewBox="0 0 300 300"><defs><style>.cls-1{fill:#231f20}</style></defs><path id="path4380" class="cls-1" d="M179.71 161.26h-5.51v-22.47h17.72a7.93 7.93 0 0 1 5.3 1.92s2.11 1.76 2.11 6.05v14.48h-5.5V146.4s.07-1.52-.44-2.05a1.77 1.77 0 0 0-1.33-.58H179.7v17.49zm23.44 0V138.8h22.1v5h-16.62v3.82h11.55v4.82h-11.55v3.83h16.73v5zm-38.54 0V138.8h5.48v22.45zm69.94-18.87zm-1.42 18.87v-17.47H228v-5h20.58v5h-9.92v17.46zm-85.22-18.87zm-1.42 18.87v-17.47h-5.17v-5h20.58v5H152v17.46zM130 147.6a7.23 7.23 0 0 0 2.46-.19 1.21 1.21 0 0 0 .57-1V145a1.17 1.17 0 0 0-.57-1c-.43-.23-1.15-.19-2.87-.19h-10.72v3.81H130zm2.95 13.65v-7.66a1.13 1.13 0 0 0-.58-1 6.19 6.19 0 0 0-2.18-.19h-11.32v8.83h-5.48V138.8h17.11c3 0 5 .44 6.4 1.8s1.57 3.25 1.57 5.17v1.6a5.29 5.29 0 0 1-1.85 4l.2.1a2 2 0 0 1 .64.49 4 4 0 0 1 .77 2.89v6.43zM50 138.79v22.46h5.48v-8.82h16.61v-4.83H55.48v-3.81h19.31v-5z"></path><path id="path4384" class="cls-1" d="M246.66 157.28v1h1c.26 0 .51-.07.55-.46s-.32-.57-.55-.57zm-.39-.34h1.34c.46 0 .91.08.95.76a.74.74 0 0 1-.39.75c.3.2.31.24.36.76s0 .46.14.72h-.46l-.06-.38c-.06-.35.11-.9-.51-.9h-1v1.28h-.39v-3zm1-.83a2.4 2.4 0 1 0 2.41 2.4 2.39 2.39 0 0 0-2.41-2.4m0 5.12a2.72 2.72 0 1 1 2.72-2.72 2.71 2.71 0 0 1-2.72 2.72"></path><path id="path4408" d="M105.86 161.47c1.78-.61 3.16-2.66 3.5-5.24v-.75h-9.14v6zm3.5-16.95v-.68c-.35-2.69-1.84-4.81-3.74-5.31h-5.39v6zm-32.15 11v.73c.33 2.59 1.72 4.64 3.51 5.25h5.6v-6zm3.74-17c-1.9.5-3.39 2.62-3.74 5.32v.67h9.11v-6zm28.41 8.48h-9.13v6h9.13zm-20.55 14.47h8.93v-6h-8.93v6zm8.93-22.94h-8.93v6h8.93zM77.21 153h9.11v-6h-9.11z" fill="#ee2e24"></path></svg> 