<?xml version="1.0" encoding="UTF-8"?> <svg xmlns="http://www.w3.org/2000/svg" id="Layer_1" data-name="Layer 1" viewBox="0 0 300 300"><defs><style>.cls-1{fill:#e20716}.cls-2{fill:#fff}</style></defs><path class="cls-1" d="M98.53 142.68h11.08c0-.51.06-1 .06-1.39v-12a3.72 3.72 0 0 1 .73-1.85c1.13-1.7 2.74-2.14 4.8-2.07 4.69.16 9.4 0 14.1 0 1.48 0 3.71 2.21 3.71 3.67v46.18a3.39 3.39 0 0 1-.72 1.71c-1.18 1.73-2.81 2.2-4.91 2.13-4.65-.17-9.32 0-14-.09a3.32 3.32 0 0 1-1.72-.71c-1.72-1.19-2.16-2.86-2.07-4.94.16-3.86 0-7.73 0-11.68H98.53V175.27a3.3 3.3 0 0 1-.63 1.63c-1.2 1.77-2.89 2.24-5 2.16-4.61-.17-9.23-.05-13.85-.05-1.59 0-3.84-2.24-3.84-3.83v-46c0-1.57 2.18-3.76 3.74-3.76h15.48a3.48 3.48 0 0 1 2.4 1 4.76 4.76 0 0 1 1.8 4.32c-.19 3.9-.1 7.85-.1 11.94zM169.59 116.62H193v91.91a4.49 4.49 0 0 1-3.91 4h-15.75a4.2 4.2 0 0 1-3.74-3.81v-29-61.42z"></path><path class="cls-1" d="M161.28 93.18h1.81c9.32 0 18.64.16 27.95-.05a27.3 27.3 0 0 1 19.55 7.4 42.12 42.12 0 0 1 14.24 29.55v1.16c-1.61-1.42-3-2.73-4.51-4-5.31-4.48-11-8.37-17.61-10.66a30.08 30.08 0 0 0-9.91-1.69H161.49a9 9 0 0 0-.06 1.52 2.93 2.93 0 0 1-.93 2.3 4.85 4.85 0 0 1-4.34 1.79c-4.65-.12-9.31-.06-14 0a3.37 3.37 0 0 1-2.3-.92 5.22 5.22 0 0 1-1.9-4.66c.1-7.86 0-15.72 0-23.58 0-1.64 2.18-3.83 3.81-3.83h15.59a2.66 2.66 0 0 1 2 .79c1.45 1.26 2.64 2.57 1.92 4.88zM161.42 152.26v22.71a3.09 3.09 0 0 1-.87 2.18 5.42 5.42 0 0 1-4.77 2c-4.61-.16-9.23 0-13.85-.09a3.6 3.6 0 0 1-1.82-.74c-1.7-1.19-2.13-2.83-2.11-4.92.08-14.63 0-29.27 0-43.9a4.43 4.43 0 0 1 4-4h15.47a3.85 3.85 0 0 1 1.93.78c1.72 1.14 2.09 2.78 2 4.82-.13 7.07 0 14.14 0 21.2z"></path><path class="cls-1" d="M169.55 91.35a3.34 3.34 0 0 1 3.17-3.83h17a3.39 3.39 0 0 1 3.2 3.83z"></path><path d="M75.61 184.94h86.7v8.32h-86.7z"></path><path class="cls-2" d="M83 192a4.15 4.15 0 0 1-1.65.29 2.91 2.91 0 0 1-3.07-3.15 3.1 3.1 0 0 1 3.26-3.26 3.55 3.55 0 0 1 1.47.27l-.2.66a3 3 0 0 0-1.25-.25 2.31 2.31 0 0 0-2.43 2.55 2.26 2.26 0 0 0 2.39 2.5 3.16 3.16 0 0 0 1.32-.26zM91.22 189.13v-1.39h.71v.88a1.35 1.35 0 0 1 1.25-1h.22v.76h-.28a1.15 1.15 0 0 0-1.09 1 2.34 2.34 0 0 0 0 .38v2.39h-.81zM101.81 190.12a1.43 1.43 0 0 0 1.53 1.54 2.93 2.93 0 0 0 1.24-.23l.14.59a3.77 3.77 0 0 1-1.49.28 2.08 2.08 0 0 1-2.2-2.25 2.17 2.17 0 0 1 2.1-2.41 1.88 1.88 0 0 1 1.84 2.1 3.32 3.32 0 0 1 0 .38zm2.38-.58a1.15 1.15 0 0 0-1.12-1.32 1.35 1.35 0 0 0-1.25 1.32zM116.34 191.14a7 7 0 0 0 .06 1.07h-.73l-.07-.56a1.65 1.65 0 0 1-1.37.66 1.28 1.28 0 0 1-1.37-1.28c0-1.08 1-1.68 2.69-1.67v-.09a.91.91 0 0 0-1-1 2.2 2.2 0 0 0-1.18.33l-.18-.55a2.89 2.89 0 0 1 1.48-.38c1.37 0 1.71.93 1.71 1.83zm-.8-1.21c-.89 0-1.89.14-1.89 1a.71.71 0 0 0 .75.78 1.12 1.12 0 0 0 1.1-.75.75.75 0 0 0 0-.26zM125.78 186.67v1.07H127v.62h-1.17v2.4c0 .55.16.87.61.87a1.43 1.43 0 0 0 .48-.06v.62a2 2 0 0 1-.72.11 1.18 1.18 0 0 1-.88-.34 1.76 1.76 0 0 1-.31-1.17v-2.43h-.69v-.62h.68v-.82zM135.46 187a.48.48 0 0 1-.49-.5.5.5 0 1 1 1 0 .48.48 0 0 1-.5.5zm-.39 5.23v-4.47h.81v4.47zM144.75 187.74l.88 2.5c.14.42.26.79.36 1.16.11-.37.24-.74.38-1.16l.87-2.5h.85l-1.75 4.47h-.78l-1.7-4.47zM156.45 190.12a1.42 1.42 0 0 0 1.53 1.54 2.85 2.85 0 0 0 1.23-.23l.15.59a3.77 3.77 0 0 1-1.49.28 2.08 2.08 0 0 1-2.2-2.25 2.17 2.17 0 0 1 2.1-2.41 1.88 1.88 0 0 1 1.84 2.1 1.81 1.81 0 0 1 0 .38zm2.38-.58a1.16 1.16 0 0 0-1.12-1.32 1.35 1.35 0 0 0-1.25 1.32z"></path><path d="M80.32 201.76a3.85 3.85 0 0 1-1.64.3 2.9 2.9 0 0 1-3.07-3.15 3.09 3.09 0 0 1 3.25-3.26 3.62 3.62 0 0 1 1.48.26l-.2.67a2.84 2.84 0 0 0-1.25-.26 2.31 2.31 0 0 0-2.43 2.56 2.26 2.26 0 0 0 2.39 2.49 3.41 3.41 0 0 0 1.32-.25zM84.88 202.07a2.14 2.14 0 0 1-2.15-2.3 2.19 2.19 0 0 1 2.27-2.38 2.11 2.11 0 0 1 2.15 2.29 2.19 2.19 0 0 1-2.21 2.39zm0-.61c.78 0 1.36-.73 1.36-1.75 0-.76-.38-1.71-1.34-1.71s-1.36.89-1.36 1.74.55 1.72 1.34 1.72zM90 198.7v-1.21h.71v.72a1.53 1.53 0 0 1 1.41-.82 1.31 1.31 0 0 1 1.25.9 1.83 1.83 0 0 1 .51-.58 1.48 1.48 0 0 1 1-.32c.6 0 1.48.39 1.48 1.94V202h-.8v-2.54c0-.86-.32-1.37-1-1.37a1.07 1.07 0 0 0-1 .73 1.76 1.76 0 0 0-.06.4V202h-.79v-2.69c0-.71-.32-1.22-.94-1.22a1.09 1.09 0 0 0-1 .81 1.05 1.05 0 0 0-.07.4v2.7H90zM99.53 198.7v-1.21h.71v.72a1.55 1.55 0 0 1 1.41-.82 1.33 1.33 0 0 1 1.26.9 1.83 1.83 0 0 1 .51-.58 1.48 1.48 0 0 1 1-.32c.6 0 1.48.39 1.48 1.94V202h-.79v-2.54c0-.86-.33-1.37-1-1.37a1 1 0 0 0-1 .73 1.34 1.34 0 0 0-.07.4V202h-.79v-2.69c0-.71-.32-1.22-.94-1.22a1.1 1.1 0 0 0-1 .81 1.05 1.05 0 0 0-.07.4v2.7h-.79zM112.82 200.74v1.23h-.72v-.73a1.66 1.66 0 0 1-1.48.83c-.7 0-1.54-.4-1.54-2v-2.62h.81V200c0 .85.27 1.43 1 1.43a1.15 1.15 0 0 0 1.07-.75 1 1 0 0 0 .08-.41v-2.74h.81zM116 198.7v-1.21h.72v.73a1.68 1.68 0 0 1 1.48-.83c.62 0 1.58.37 1.58 1.91v2.7H119v-2.58c0-.72-.27-1.33-1-1.33a1.18 1.18 0 0 0-1.09.83 1.46 1.46 0 0 0 0 .38v2.7H116zM123.38 196.74a.48.48 0 0 1-.49-.5.51.51 0 1 1 .5.5zM123 202v-4.48h.81V202zM130.19 201.8a3.23 3.23 0 0 1-1.29.26 2.12 2.12 0 0 1-2.22-2.28 2.28 2.28 0 0 1 2.4-2.39 2.52 2.52 0 0 1 1.12.24l-.18.62a2 2 0 0 0-.94-.21 1.55 1.55 0 0 0-1.58 1.69 1.53 1.53 0 0 0 1.55 1.67 2.37 2.37 0 0 0 1-.21zM136.14 200.89a7.16 7.16 0 0 0 .06 1.08h-.73l-.07-.57a1.66 1.66 0 0 1-1.37.67 1.28 1.28 0 0 1-1.37-1.29c0-1.08 1-1.67 2.69-1.66V199a.92.92 0 0 0-1-1 2.12 2.12 0 0 0-1.18.34l-.18-.55a2.9 2.9 0 0 1 1.48-.39c1.37 0 1.71.94 1.71 1.83zm-.8-1.21c-.89 0-1.89.14-1.89 1a.71.71 0 0 0 .75.78 1.12 1.12 0 0 0 1.1-.75.78.78 0 0 0 0-.26zM140.23 196.42v1.07h1.16v.62h-1.16v2.4c0 .56.15.87.61.87a1.81 1.81 0 0 0 .47 0v.62a2.31 2.31 0 0 1-.72.11 1.16 1.16 0 0 1-.87-.34 1.72 1.72 0 0 1-.32-1.18v-2.43h-.69v-.62h.69v-.82zM144.54 196.74a.48.48 0 0 1-.49-.5.51.51 0 1 1 .5.5zm-.39 5.23v-4.48h.85V202zM150 202.07a2.13 2.13 0 0 1-2.14-2.3 2.19 2.19 0 0 1 2.22-2.38 2.12 2.12 0 0 1 2.15 2.29 2.2 2.2 0 0 1-2.22 2.39zm0-.61c.77 0 1.36-.73 1.36-1.75 0-.76-.38-1.71-1.34-1.71s-1.37.89-1.37 1.74.55 1.72 1.34 1.72zM155.08 198.7v-1.21h.72l.05.73a1.67 1.67 0 0 1 1.48-.83c.62 0 1.58.37 1.58 1.91v2.7h-.82v-2.58c0-.72-.26-1.33-1-1.33a1.17 1.17 0 0 0-1.09.83 1.12 1.12 0 0 0-.06.38v2.7h-.81z"></path></svg> 