<?xml version="1.0" encoding="UTF-8"?> <svg xmlns="http://www.w3.org/2000/svg" id="Layer_1" data-name="Layer 1" viewBox="0 0 300 300"><defs><style>.cls-1{fill:#004089}</style></defs><path class="cls-1" d="M134.79 117.8a4.1 4.1 0 0 0-2.31-.59h-1.43a5.65 5.65 0 0 0-2 .26 2 2 0 0 0-1.08 1 14 14 0 0 0-.66 2l-2.91 11-2.9-11a14.88 14.88 0 0 0-.66-2 2 2 0 0 0-1.08-1 5.65 5.65 0 0 0-2-.26h-1.43a4.16 4.16 0 0 0-2.32.59 2.62 2.62 0 0 0-1 2.34v18a3.25 3.25 0 0 0 .69 2.24 2.56 2.56 0 0 0 3.67 0 3.29 3.29 0 0 0 .68-2.23v-12.4L120.9 137c.12.47.24.93.36 1.37a5.37 5.37 0 0 0 .53 1.3 2.84 2.84 0 0 0 2.58 1.44 2.81 2.81 0 0 0 2-.64 3.28 3.28 0 0 0 .94-1.38c.16-.45.35-1.16.59-2.1l2.84-11.29v12.4a3.24 3.24 0 0 0 .7 2.23 2.33 2.33 0 0 0 1.8.78 2.41 2.41 0 0 0 1.87-.78 3.29 3.29 0 0 0 .68-2.23v-18a2.6 2.6 0 0 0-1-2.3zM145.07 116.82a2.53 2.53 0 0 0-1.94.83 3.43 3.43 0 0 0-.74 2.37v17.9a3.43 3.43 0 0 0 .75 2.38 2.53 2.53 0 0 0 1.93.83 2.59 2.59 0 0 0 2-.82 3.49 3.49 0 0 0 .75-2.39V120a3.4 3.4 0 0 0-.76-2.38 2.59 2.59 0 0 0-1.99-.8zM172 116.82a2.33 2.33 0 0 0-1.84.8 3.36 3.36 0 0 0-.66 2.24V132l-8.1-12.26-.72-1.14a6 6 0 0 0-.74-.94 2.78 2.78 0 0 0-.89-.63 2.93 2.93 0 0 0-1.23-.24 3.05 3.05 0 0 0-1.7.51 2.91 2.91 0 0 0-1.13 1.33 5.22 5.22 0 0 0-.28 1.9v17.53a3.27 3.27 0 0 0 .69 2.23 2.37 2.37 0 0 0 1.87.81 2.39 2.39 0 0 0 1.85-.8 3.19 3.19 0 0 0 .71-2.24v-11.91l7.9 12.09.74 1.07a6.4 6.4 0 0 0 .87 1 3.27 3.27 0 0 0 1.06.64 3.62 3.62 0 0 0 1.26.2c1.31 0 2.88-.59 2.88-3.39v-17.9a3.31 3.31 0 0 0-.67-2.24 2.36 2.36 0 0 0-1.87-.8zM186.19 117.64a2.61 2.61 0 0 0-2-.82 2.51 2.51 0 0 0-1.94.83 3.39 3.39 0 0 0-.75 2.37v17.9a3.48 3.48 0 0 0 .75 2.38 2.54 2.54 0 0 0 1.94.83 2.57 2.57 0 0 0 2-.82 3.44 3.44 0 0 0 .75-2.39V120a3.4 3.4 0 0 0-.75-2.36zM71.5 147.42l-9 35.76h6.31L73.93 164l2.38-8.98-4.81-7.6zM98.35 145.78a62.85 62.85 0 0 0-8.55 9.11 53.35 53.35 0 0 0-6 11.89L77.54 157 75 166l8.76 17s1.32-9.34 16.29-28.59zM110.33 146.5H129v3.73h-14.65v10.71h14.25v3.73h-14.25v14.16H129v3.73h-18.7zM151.66 182.56h-4v-32.33h-12.21v-3.73h29.35v3.73h-13.14zM174.13 182.56h-4.42V146.5h5.74a35.33 35.33 0 0 1 5.44.4 14 14 0 0 1 4.63 1.51 8.53 8.53 0 0 1 3.24 3 9.24 9.24 0 0 1 1.21 5 9.36 9.36 0 0 1-2.66 6.89 11.11 11.11 0 0 1-7.28 3.06l12.62 16.17h-5.42l-12-15.83h-1.11zm0-19.37h1.37a29.62 29.62 0 0 0 3.69-.22 9.62 9.62 0 0 0 3.2-.91 5.74 5.74 0 0 0 2.29-2 5.85 5.85 0 0 0 .87-3.37 6.42 6.42 0 0 0-.84-3.51 5.2 5.2 0 0 0-2.24-2 10 10 0 0 0-3.21-.83 35.72 35.72 0 0 0-3.81-.19h-1.32zM218 145.87a18.64 18.64 0 0 1 13.27 5.48 19.26 19.26 0 0 1 4 6 18.6 18.6 0 0 1 0 14.54 18.51 18.51 0 0 1-4 5.91 19.12 19.12 0 0 1-6 4 19 19 0 0 1-14.59 0 19.17 19.17 0 0 1-6-4 18.48 18.48 0 0 1-4-5.91 18.6 18.6 0 0 1 0-14.54 19.23 19.23 0 0 1 4-6 18.63 18.63 0 0 1 6-4 18.43 18.43 0 0 1 7.32-1.48zm0 3.73a14.3 14.3 0 0 0-5.81 1.18 14.58 14.58 0 0 0-4.69 3.2 15.32 15.32 0 0 0-3.13 4.76 14.88 14.88 0 0 0-1.15 5.79 14.66 14.66 0 0 0 1.15 5.76 15.06 15.06 0 0 0 7.87 8 14.42 14.42 0 0 0 11.52 0 15 15 0 0 0 7.87-8 14.49 14.49 0 0 0 1.15-5.76 14.7 14.7 0 0 0-1.15-5.79 15.15 15.15 0 0 0-3.13-4.74 14.47 14.47 0 0 0-4.69-3.2 14.3 14.3 0 0 0-5.81-1.2zM100.99 159.33l-5.56 6.75 3.25 17.1h6.95l-4.64-23.85z"></path><path d="M77.57 165.26l1.74-5.52 5.93 9.36s6.22-14.1 13.83-19.62c.59 3.08 1.14 5.83 1.14 5.83s-11.81 14.15-15.16 23.55c-3.28-6.08-7.48-13.6-7.48-13.6z" fill="#e31d20"></path><path class="cls-1" d="M64.13 138.41h44.04v1.35H62.5l1.63-1.35zM68.39 136.14h39.78v1.35H66.76l1.63-1.35zM72.9 133.87h35.27v1.35h-36.9l1.63-1.35zM77.13 131.59h31.04v1.36H75.5l1.63-1.36zM81.83 129.29l26.34.06v1.36l-27.97-.06 1.63-1.36zM86.11 127.08h22.06v1.36l-23.69-.01 1.63-1.35zM90.87 124.75l17.3.06v1.36l-18.92-.06 1.62-1.36zM95.28 122.48l12.89.06v1.36l-14.52-.06 1.63-1.36zM99.94 120.21l8.23.06v1.36l-9.85-.06 1.62-1.36zM104.28 117.94l3.89.06v1.36l-5.52-.06 1.63-1.36zM235.87 138.41h-44.05v1.35h45.68l-1.63-1.35zM231.61 136.14h-39.79v1.35h41.42l-1.63-1.35zM227.1 133.87h-35.28v1.35h36.91l-1.63-1.35zM222.87 131.59h-31.05v1.36h32.68l-1.63-1.36zM218.17 129.29l-26.35.06v1.36l27.98-.06-1.63-1.36zM213.89 127.08h-22.07v1.36l23.7-.01-1.63-1.35zM209.13 124.75l-17.31.06v1.36l18.93-.06-1.62-1.36zM204.72 122.48l-12.9.06v1.36l14.53-.06-1.63-1.36zM200.06 120.21l-8.24.06v1.36l9.86-.06-1.62-1.36zM195.72 117.94l-3.9.06v1.36l5.53-.06-1.63-1.36z"></path></svg> 