<svg id="Layer_1" data-name="Layer 1" xmlns="http://www.w3.org/2000/svg" viewBox="0 0 300 300"><defs><style>.cls-1{fill:#036ab5}</style><radialGradient id="radial-gradient" cx="124.8" cy="161.26" r="23.55" gradientTransform="matrix(1.04 0 0 1.02 -29.24 -19.67)" gradientUnits="userSpaceOnUse"><stop offset="0" stop-color="#6e8ebb"/><stop offset=".21" stop-color="#557aa7"/><stop offset=".74" stop-color="#194a78"/><stop offset="1" stop-color="#023765"/></radialGradient><linearGradient id="linear-gradient" x1="53.95" y1="179.84" x2="89.71" y2="122.76" gradientUnits="userSpaceOnUse"><stop offset="0" stop-color="#036ab5"/><stop offset=".21" stop-color="#066bb6"/><stop offset=".38" stop-color="#1070b8"/><stop offset=".52" stop-color="#2078bd"/><stop offset=".66" stop-color="#3783c3"/><stop offset=".78" stop-color="#5592cb"/><stop offset=".91" stop-color="#79a3d5"/><stop offset="1" stop-color="#9ab3de"/></linearGradient><radialGradient id="radial-gradient-2" cx="99.8" cy="186.14" r="32.78" gradientTransform="matrix(1.01 0 0 1.02 -12.86 -19.67)" gradientUnits="userSpaceOnUse"><stop offset="0" stop-color="#99cade"/><stop offset=".17" stop-color="#96c9de"/><stop offset=".29" stop-color="#8cc7de"/><stop offset=".41" stop-color="#7cc2de"/><stop offset=".51" stop-color="#65bcde"/><stop offset=".61" stop-color="#48b5de"/><stop offset=".66" stop-color="#36b0de"/><stop offset=".71" stop-color="#31a5d2"/><stop offset=".81" stop-color="#2389b1"/><stop offset=".93" stop-color="#0d5b7c"/><stop offset="1" stop-color="#00415e"/></radialGradient></defs><path class="cls-1" d="M131.71 134.72a62.8 62.8 0 0 1 9.48-.66c5.88 0 9.66.35 12.62 2.63s5.07 6.59 5.07 11.69c0 5.6-2.09 10.93-4.85 13.37-3.27 2.84-8.33 2.69-14.28 2.69a54.39 54.39 0 0 1-8-.48zm6.58 24.16a18.37 18.37 0 0 0 2.61.12c6.73.07 11-.19 11-10.26 0-9.31-4-9.31-10.13-9.31a17.41 17.41 0 0 0-3.45.29zM184.39 151.71h-16.26c0 4.09 1.05 7.33 7.39 7.33h8.93v5.1H173c-10.62 0-11.74-9.62-11.74-14.89s1.45-14.89 11.74-14.89h11.42v5.1h-11.26c-2.25 0-5 1.5-5 7.32h16.26zM186.78 134.33h6.3V152c0 3.36.59 5.93 5 6s7 0 7 0v6.13H194.2c-5.92 0-7.42-5.23-7.42-11.14zM207.82 140.08h-9v-5.75H224v5.75h-9.1v24h-7.05zM230 156.18l-2.37 7.92h-7.41l10-29.77h9.44L250 164.1h-7.79l-2.63-7.92zm8.47-5.19l-2.14-6.36c-.59-1.75-1.16-3.73-1.67-5.39h-.09c-.48 1.67-.93 3.66-1.46 5.39l-2 6.36z"/><path d="M85.75 124l28.79 53.37h12.06S96.06 127 95.73 126.4s-3.73-6.18-9.98-2.4z" fill="url(#radial-gradient)"/><path d="M50 177.36h12.06S85.75 124 93.48 123.93c-7.73-5.7-16.89 9.31-16.89 9.31z" fill="url(#linear-gradient)"/><path d="M50 177.36h12.06s15.58-11.71 28.32-11.71 24.16 11.71 24.16 11.71h12.06s-14.89-15.88-36.34-15.88S50 177.36 50 177.36z" fill="url(#radial-gradient-2)"/></svg>