<?xml version="1.0" encoding="UTF-8"?> <svg xmlns="http://www.w3.org/2000/svg" data-name="Layer 1" viewBox="0 0 300 300"><path d="M124.12 201.7h-6.84l-4.57-7.06c-.18-.27-.44-.7-.78-1.3l-.05-.1c0 .21 0 .4.05.58s0 .44 0 .79v7.09h-6.16v-22.21h8.12a9 9 0 016.11 1.91 6.7 6.7 0 012.18 5.31 5.84 5.84 0 01-1 3.46 6.06 6.06 0 01-3 2.1zm-7.75-14.93a2.26 2.26 0 00-.7-1.78 3.12 3.12 0 00-2.07-.61H112v4.77h1.69a3.06 3.06 0 002-.59 2.24 2.24 0 00.68-1.79zM132.18 201.7h-6.26v-22.21h6.26zM157.15 196.07a11.28 11.28 0 01-4.27 4.76 11.72 11.72 0 01-6.21 1.69 11.86 11.86 0 01-8.3-20.19A11.89 11.89 0 01147 179a11 11 0 014.44.88 12.68 12.68 0 013.88 2.82l-4 4.26a6.9 6.9 0 00-2.11-1.91 5.27 5.27 0 00-2.48-.56 5.52 5.52 0 00-4.22 1.69 6.4 6.4 0 00-1.58 4.54 6.61 6.61 0 001.58 4.64 5.51 5.51 0 004.26 1.71 5.67 5.67 0 002.45-.58 4.74 4.74 0 001.87-1.48v-1.82h-4.39l.94-5.2h9.51zM179.51 201.7h-6.23v-8.42h-6.51v8.42h-6.23v-22.21h6.23v8.58h6.51v-8.58h6.23zM198.28 184.79h-5v16.91h-6.19v-16.91h-5l1.58-5.3h13.42zM91.24 213.69h-5v16.9H80v-16.9h-5l1.59-5.3H90zM140.87 219.48a10.57 10.57 0 01-3.29 7.92 11.93 11.93 0 01-8.68 3.19h-7.76v-22.2h7.76a12.3 12.3 0 018.71 3 10.46 10.46 0 013.26 8.09zm-6.16 0a6.19 6.19 0 00-.52-2.53 5.73 5.73 0 00-1.46-2 5.08 5.08 0 00-2-1 13.23 13.23 0 00-3.18-.3h-.13v11.67h.13a12.87 12.87 0 003-.3 5.37 5.37 0 002.08-1 5.13 5.13 0 001.54-2 6 6 0 00.54-2.54zM161.49 230.59h-6.84l-4.57-7.05c-.19-.27-.45-.71-.78-1.3l-.05-.1c0 .21 0 .4.05.58s0 .44 0 .79v7.08h-6.16v-22.2h8.13a9 9 0 016.1 1.91 6.66 6.66 0 012.19 5.31 5.87 5.87 0 01-1 3.46 6.06 6.06 0 01-3 2.1zm-7.75-14.92a2.26 2.26 0 00-.7-1.78 3.12 3.12 0 00-2.07-.61h-1.66v4.77H151a3.06 3.06 0 002.05-.59 2.25 2.25 0 00.69-1.79zM177.49 225.36l-.38 5.23h-13.54v-22.2h13.51l.37 5.23h-7.68v3.22h7V222h-7v3.41zM200.34 230.59H194l-1.31-3.59h-7.06l-1.26 3.62H178l7.88-22.26h6.67zm-9.11-8.19l-1.65-5.53c0-.09-.06-.24-.13-.45a9 9 0 01-.29-1.2c-.07.33-.19.78-.34 1.33 0 .14-.08.25-.1.32l-1.62 5.53zM225 230.59h-5.89V220c0-.45 0-1 .08-1.82V218a15.13 15.13 0 01-.9 1.48l-.06.11-4.74 7.05-4.7-7-.31-.47c-.26-.39-.48-.77-.68-1.14 0 .33.06.62.07.85s0 .62 0 1.15v10.64H202v-22.2h5.47l6 9.09 6-9.09H225zM113.58 219.57a11.82 11.82 0 01-3.23 8.42 10.75 10.75 0 01-15.72 0 11.54 11.54 0 01-3.25-8.28 12.1 12.1 0 013.19-8.55 10.73 10.73 0 0115.78 0 11.85 11.85 0 013.23 8.41zm-6.39 0a6.07 6.07 0 00-1.25-4 4.81 4.81 0 00-6.92 0 7.19 7.19 0 000 8.12 4.84 4.84 0 006.93 0 6.08 6.08 0 001.24-4.12zM182.24 108.51h-27.75a4.33 4.33 0 01.36-.26 39.3 39.3 0 0011.62-9.73 1.63 1.63 0 011.4-.67q10.13-.06 20.25-.18c.71 0 1.07.14 1.31.89 1.42 4.51 2.89 9 4.38 13.5a1.16 1.16 0 01-.49 1.58c-5.46 4-10.89 8-16.34 12a1 1 0 00-.44 1.36c2.81 8.33 5.58 16.67 8.39 25a1 1 0 01-.47 1.42c-4.32 3.1-8.61 6.23-13 9.42l-20.21-17.07-.74.59c-6.3 5.32-12.6 10.62-18.88 16a1 1 0 01-1.55.06q-6.06-4.47-12.2-8.86a1 1 0 01-.41-1.29c2.83-8.39 5.62-16.78 8.44-25.17a1 1 0 00-.44-1.43c-5.48-4-10.93-8-16.42-12a1 1 0 01-.44-1.36c1.51-4.54 3-9.1 4.46-13.66.09-.27.2-.54.3-.83h3c6.89.17 13.79.4 20.68.49 5.57.08 10.71-1.31 15.06-5a14.21 14.21 0 004.61-6.59 6.45 6.45 0 00-1.11-6.29 4.58 4.58 0 00-7.24-.08 5.94 5.94 0 00-1.26 5.91c.59 1.78 1.47 3.47 2.28 5.31a16.94 16.94 0 01-8.39 3.67c-1.42.22-1.44.21-2.11-1.09-2.3-4.4-3.47-9-2.2-14a15.14 15.14 0 0115.36-11.62A15.86 15.86 0 01167.33 81a17.92 17.92 0 01-4.2 15.79 33.11 33.11 0 01-19.67 11.48 38.64 38.64 0 01-7 .56c-5.2 0-10.4-.23-15.6-.37a.85.85 0 00-.56.16l.72.55c5.63 4.13 11.26 8.28 16.9 12.39a1.09 1.09 0 01.5 1.48c-2.93 8.66-5.81 17.34-8.7 26-.1.29-.18.6-.35 1.15l.9-.75 20.16-17c.62-.54 1-.5 1.58 0q10.11 8.61 20.28 17.16c.17.15.36.28.75.58-.16-.53-.24-.84-.34-1.15q-4.33-13-8.69-25.92a1.17 1.17 0 01.49-1.58c5.65-4.1 11.27-8.25 16.9-12.38.26-.15.48-.35.84-.64z"></path></svg> 