<?xml version="1.0" encoding="UTF-8"?> <svg xmlns="http://www.w3.org/2000/svg" id="Layer_1" data-name="Layer 1" viewBox="0 0 300 300"><defs><style>.cls-1{fill:#055695}.cls-2{fill:#ea1f27}.cls-3{fill:#e6252d}.cls-4{fill:#fafcfc}.cls-5{fill:#fbfdfd}.cls-6{fill:#eb1d25}.cls-7{fill:#fbfdfc}.cls-8{fill:#ed3d31}.cls-10{fill:#cb151b}.cls-11{fill:#ec533e}.cls-12{fill:#f06a4e}.cls-13{fill:#f7fbfb}.cls-14{fill:#f6ebe5}.cls-15{fill:#d8cdca}</style></defs><path class="cls-1" d="M165.15 131.21a7.5 7.5 0 0 1 1.84.61c.22.14.43 0 .66 0a10.81 10.81 0 0 1 4.44-.62 12 12 0 0 1 1.75.55c-.13-1.6.23-3.16-.25-4.7-.4-1.28-.5-2.52.69-3.5a2.43 2.43 0 0 1 .77-.46 9.39 9.39 0 0 1 4.66-.82 14.87 14.87 0 0 1 4.59 1.28 4.85 4.85 0 0 1 2.8 4.48 2 2 0 0 1-.06.69c-.79 1.87-.47 3.83-.51 5.77s.32 4 .26 6.05a6 6 0 0 1-.4 2.17 3 3 0 0 1-2.11 2c-.22 0-.43.15-.66.21s-.45.22-.44.45.31.13.47.2a.61.61 0 0 0 .13 0c.68.14 1.44.55 2 .36s.76-1 1.22-1.53a6.89 6.89 0 0 1 3.83-2.11 16.11 16.11 0 0 1 8.49.59c2.91 1 4.28 3.31 4.87 6.19a13.82 13.82 0 0 1 .32 3.46c.33.06.54-.17.77-.29a11.06 11.06 0 0 1 8.78-.59c1.48.47 2.93 1 4.39 1.54a9 9 0 0 1 5.81 6.7 14.73 14.73 0 0 1 .49 3.85c0 2.81-.06 5.62-.25 8.43a3.43 3.43 0 0 0 .25 1.28 5.26 5.26 0 0 1-5.12 6.81c-.82 0-1.59.27-2.4.37a9.1 9.1 0 0 1-5.66-1 1 1 0 0 0-.79-.07 11.8 11.8 0 0 1-7-.35 5 5 0 0 1-1.37-.8.48.48 0 0 0-.72 0 6.18 6.18 0 0 1-2.79 1.33 18.89 18.89 0 0 1-2.76.89c-2.5.22-4.93.18-7-1.45-.25-.18-.38-.11-.6 0a5.12 5.12 0 0 1-4.33.91 1.35 1.35 0 0 0-.82.06 6.86 6.86 0 0 1-4.76-.4l-.25-.11a2.08 2.08 0 0 0-2.34 0c-1.68 1-3.55.84-5.41.41a18 18 0 0 1-2.26-.83.9.9 0 0 0-.91 0 3.5 3.5 0 0 1-1.62.59 1.58 1.58 0 0 0-.77.29 1.22 1.22 0 0 1-1 .29c-1.36-.21-2.67.24-4 .28a3.17 3.17 0 0 1-2.67-.88 1 1 0 0 0-1.41-.22 2.64 2.64 0 0 1-1.11.36c-1.59.17-3.14.6-4.75.64a8.42 8.42 0 0 1-4.47-1.08.86.86 0 0 0-.73-.09 11.07 11.07 0 0 1-4.62.26l-.82-.06c-.33-.44-.81-.18-1.22-.28a11.84 11.84 0 0 1-3.67-2.85c-.27-.33-.41.05-.54.16a14.52 14.52 0 0 1-6.29 3 20.87 20.87 0 0 1-2.82.52c-1-.16-2 .34-3 .33a16 16 0 0 1-3.52-.29c-.31-.09-.64-.45-1-.17a1.75 1.75 0 0 0-2.39-.41c-.22.05-.52-.07-.62.26-1 .09-2 .2-3 .38a9.9 9.9 0 0 1-6.71-.75c-.33-.18-.6-.3-.88 0a.47.47 0 0 0-.54.08h-.28a.25.25 0 0 0-.28.07h-2.52c-.19-.19-.44-.12-.66-.12a5.54 5.54 0 0 1-2.73-.62 1.65 1.65 0 0 0-1.87.19c-.18.12-.39.1-.55.22a7.44 7.44 0 0 1-2.8.41c-2.28 0-4.55.2-6.81.45a7.64 7.64 0 0 1-7-2.77 11 11 0 0 1-2.75-8c.23-5.31.62-10.62.71-15.94 0-1.37-.32-2.66-.4-4a5.59 5.59 0 0 1 5.22-6.26 24.22 24.22 0 0 1 7.83.38c4.17 1 6.43 4.2 6.63 8.3a7.75 7.75 0 0 1-.47 2.42c.84-.66 2-.87 2.54-1.92.23.24.41.08.64 0a12.83 12.83 0 0 1 3-1.28c.28-.07.66.23.84-.22.77 0 1.54-.07 2.3 0a13.18 13.18 0 0 1 3.38.68 11 11 0 0 0 3.16 1v.06h.06l1.39.41a5.46 5.46 0 0 0-.74-1.71 5.29 5.29 0 0 0-.08-.9 5.69 5.69 0 0 1 1.1-5.3 6.69 6.69 0 0 1 2.9-2 .87.87 0 0 0 .67-.11c.57.06.94-.37 1.41-.57a8.33 8.33 0 0 1 5.08.16 6.1 6.1 0 0 1-1-2.84c-.06-.88-.05-1.75-.06-2.63a4.24 4.24 0 0 0 .14-1.37.76.76 0 0 0 .08-.59V134.24v-4.94a4.15 4.15 0 0 0-.41-1.86 4 4 0 0 1 1.26-4 13.49 13.49 0 0 1 4.44-1.38h.76a5.52 5.52 0 0 1 1.78.08 17.4 17.4 0 0 1 3.92 1.61 1.37 1.37 0 0 0 .51.53.38.38 0 0 0 .24.28c.09.27.24.31.45.14h.28a.9.9 0 0 0 .56-.08 10.59 10.59 0 0 1 5.1.76.33.33 0 0 0 .33 0 9 9 0 0 1 4.32-.79h.54l1.55.41.06.13.78.15c.06.07.1.18.17.2a6.3 6.3 0 0 1 3 2.24c.1.12.18.4.47.32a4.57 4.57 0 0 1 .87-2 6.27 6.27 0 0 1 3.49-1.49 3.9 3.9 0 0 0 1.36-.14 2 2 0 0 0 1 .11l1.93.28s0 .1.08.11c2.74 1.06 4.59 2.83 4.67 6-.01.21.03.38.27.3zm-27.94 7.91h-2.51c-.84 0-1.7-.12-2.57-.12-1.34-.11-1.37-.13-1.36-1.46 0-1.63 0-3.25.08-4.88.11-2.09-.29-4.22.52-6.26a.42.42 0 0 0-.26-.57 9.45 9.45 0 0 0-2.38-.68 8.46 8.46 0 0 0-3.79.73 1.46 1.46 0 0 0-.78 2 3 3 0 0 1 .33 1.34c0 1.46 0 2.92.09 4.38a26.49 26.49 0 0 1-.22 4.45 8.81 8.81 0 0 0 .06 2.71 1.34 1.34 0 0 0 1.1 1.25 3.68 3.68 0 0 1 1.45.66 1.63 1.63 0 0 0 1 .28c.91 0 1.79-.29 2.7-.28a92.32 92.32 0 0 0 9.26-.31 15.57 15.57 0 0 0 5.32-.9c.28-.13.42 0 .58.18a3.29 3.29 0 0 0 1.22.9 10.82 10.82 0 0 0 7.81.48 1.59 1.59 0 0 1 1 0 10.91 10.91 0 0 0 6.64 0 1.47 1.47 0 0 1 .95 0 10.47 10.47 0 0 0 2.87.49c2.28 0 4.5-.23 6.27-1.91a.39.39 0 0 1 .5 0 15.81 15.81 0 0 0 4.63 1.2c1.37.21 2.76.46 4-.52a1.27 1.27 0 0 1 .58-.21 1.45 1.45 0 0 0 1.25-1.45 7.88 7.88 0 0 0 .05-1c0-2.65-.39-5.28-.27-7.93a10.12 10.12 0 0 1 .52-4 1.34 1.34 0 0 0-.86-1.8 7.47 7.47 0 0 0-5.92-.15c-.4.17-.62.39-.45.84.72 2 .32 4 .42 6.06v.77c0 1.46.08 2.92.09 4.39 0 1.22-.43 1.55-1.74 1.25-.54-.12-1.06-.36-1.59-.5a.42.42 0 0 1-.38-.4c-.13-1-.31-2.06-.43-3.1-.09-.77-.3-1-1.1-1a9.6 9.6 0 0 0-1.83.38c-1.79.38-2.07.69-2.08 2.51v2.09a1.2 1.2 0 0 1-.32.89c-.15.15-.34.29-.56.16-.56-.32-1.14-.71-1.19-1.37-.1-1.25-.46-2.52.06-3.78.1-.23.19-.57-.24-.66a8.25 8.25 0 0 0-3.3-.25c-1.57.34-2.09.3-2 2.18v2.93a1 1 0 0 1-.59 1c-.37.17-.58-.19-.83-.38a1.74 1.74 0 0 1-.74-1.22 8.44 8.44 0 0 1 .16-3.57c.09-.28.15-.58-.27-.65a19.07 19.07 0 0 0-3-.29c-1.54 0-2.21.59-2.32 2.1-.05.67 0 1.34 0 2v1.11a1 1 0 0 1-.58.89c-.34.14-.55-.16-.78-.34a1.94 1.94 0 0 1-.84-1.47 8.57 8.57 0 0 1 .2-3.38c.08-.21.17-.54-.22-.61a8.63 8.63 0 0 0-3.3-.28c-1.57.33-2.15.31-2 2.23v1.53c0 .18 0 .38-.23.43-.87.15-1.66.58-2.54.72a31 31 0 0 1-5.34.17zm-20.75 29.48c0 .89-.06 1.77 0 2.65.22 2.78 1 4.06 4.28 4.44a18.89 18.89 0 0 0 2.82-.34 15.71 15.71 0 0 0 5.41-1.13 5.48 5.48 0 0 0 2.86-2.42 22.31 22.31 0 0 0 1.84-4.19 13.65 13.65 0 0 0 1-5.43 6.09 6.09 0 0 0-3.81-5.22 21.42 21.42 0 0 0-3-1 4 4 0 0 0-2.53-.08c-.61.21-.94-.08-1.06-.65a4.55 4.55 0 0 1 .33-3.12 2.15 2.15 0 0 0 .26-.63 3.39 3.39 0 0 0-3.2-3.83 3.83 3.83 0 0 1-1.49-.28 2 2 0 0 0-2 .19 2.16 2.16 0 0 1-1.4.52c-.87-.07-1.24.31-1.15 1.19a3.58 3.58 0 0 0 .29 1 11.17 11.17 0 0 1 .87 4.47c.06 4.63-.09 9.26-.32 13.86zm-36.56-1.09a19.43 19.43 0 0 1 0 2.29 5.8 5.8 0 0 0 2 5.08 2 2 0 0 0 1.56.64c.65 0 1.29-.1 1.94-.15 2.24-.16 4.49-.32 6.74-.38 1.63-.05 2.21-.81 2-2.41A6.25 6.25 0 0 1 94 170a1.44 1.44 0 0 0-.36-1.22 6.23 6.23 0 0 0-4.3-2.23c-.61-.11-.86-.33-.85-.9v-1c-.11-3.59.5-7.13.78-10.69a2.92 2.92 0 0 1 .47-1.29 1.42 1.42 0 0 0 .3-1 3.57 3.57 0 0 0-3-3.23 25.43 25.43 0 0 0-6-.27.84.84 0 0 0-.89 1 19.89 19.89 0 0 0 .33 2.05 29.93 29.93 0 0 1 0 5c-.04 3.78-.28 7.54-.58 11.29zm74.1-3.37a10.82 10.82 0 0 0-.81-4.28 3.68 3.68 0 0 0-2.47-2.18c-1.29-.39-2.54-.87-3.8-1.33a6.32 6.32 0 0 0-5.69.37c-.8.48-1.54 1.05-2.35 1.49-1.56.84-1.68 2.22-1.45 3.72a1.22 1.22 0 0 0 1.8 1c.5-.2 1-.45 1.46-.67a9.71 9.71 0 0 1 3.1-1 3.53 3.53 0 0 1 2.36.66c.21.14.41.38.25.65s-.38.06-.57 0a7.53 7.53 0 0 0-2.76 0 7.29 7.29 0 0 0-5.94 8.31c.35 1.74 2 3.85 3.66 3.92a9.23 9.23 0 0 0 3.31-.24c.71-.23 1.43-.38 2.14-.6a.53.53 0 0 1 .7.22 3.68 3.68 0 0 0 3.76 1.44 11.85 11.85 0 0 1 2.79-.43c.55.06.79-.26.58-.85a6.23 6.23 0 0 1-.36-2.39c.13-2.52.2-5.17.29-7.81zm-41.12 1.6v-2.37a8.73 8.73 0 0 0-.69-3.38 3.74 3.74 0 0 0-2.59-2.33c-1.24-.36-2.45-.83-3.66-1.29a6.37 6.37 0 0 0-5.76.35c-.86.51-1.66 1.11-2.52 1.61a3 3 0 0 0-1.35 3.31c.17 1.33.94 1.72 2.18 1.16a26.94 26.94 0 0 1 3.14-1.3 3.9 3.9 0 0 1 3.4.42c.23.15.46.38.31.69s-.4 0-.61 0-.18-.07-.26-.08c-3.62-.19-6.52 1.13-8 4.73a5.66 5.66 0 0 0 .09 5c.79 1.53 1.87 2.68 3.8 2.7a9.78 9.78 0 0 0 3-.36c.62-.18 1.25-.32 1.87-.52a.6.6 0 0 1 .8.29 3.29 3.29 0 0 0 2.12 1.33c1.63.34 3.12-.54 4.72-.48.4 0 .33-.34.24-.63a7.46 7.46 0 0 1-.4-2.81c.09-2 .18-4.02.18-6.04zm107 0v-.63a11.65 11.65 0 0 0-.72-5.26 3.7 3.7 0 0 0-2.41-2.16c-1.33-.4-2.62-.91-3.93-1.38a6.37 6.37 0 0 0-5.44.3c-.92.51-1.76 1.13-2.66 1.66-1.4.83-1.58 2.09-1.37 3.49.17 1.18.94 1.57 2 1.09l1.83-.83a6.89 6.89 0 0 1 2.81-.73 3.28 3.28 0 0 1 2.18.76.45.45 0 0 1 .18.55c-.07.17-.19.15-.35.11a7.09 7.09 0 0 0-3.63.12 7.21 7.21 0 0 0-5.26 8.32c.42 1.86 2 3.55 3.51 3.73a7.41 7.41 0 0 0 3.24-.18c.77-.25 1.57-.4 2.35-.63a.53.53 0 0 1 .69.25 3.33 3.33 0 0 0 2.36 1.42c1.56.22 3-.57 4.53-.51.39 0 .33-.34.24-.64a7.62 7.62 0 0 1-.41-2.8c.14-2.01.25-4.02.23-6.04zm-55.4-6.89a2.77 2.77 0 0 1-.29-1.12 1.2 1.2 0 0 0-.6-1c-.84-.38-1.69-.75-2.55-1.1a1.51 1.51 0 0 0-1.34.08 2.79 2.79 0 0 1-1.75.32c-.66-.09-.93.25-1 .85a1.81 1.81 0 0 0 .28 1.26 2.46 2.46 0 0 1 .57 1.26c0 2.13.09 4.27.07 6.4 0 2.32-.15 4.64-.19 7a2.19 2.19 0 0 0 .77 2.07 4.32 4.32 0 0 0 3.45.83c.79-.21 1.61-.24 2.42-.46s1-.33.8-1.22a6.62 6.62 0 0 1-.35-1.76v-4a5 5 0 0 1 1.37-3.54c.6-.61.89-.57 1.32.19a3.66 3.66 0 0 1 .34 1.82v5.22a2.59 2.59 0 0 0 1.56 2.58c.87.36 1.79.61 2.69.91a2.92 2.92 0 0 0 1.1.13 1.17 1.17 0 0 0 1.24-1.26c.1-1.32.17-2.64.35-3.95a21.11 21.11 0 0 0 .17-5.27c-.3-2.63-1.27-4.78-3.83-5.93a17.45 17.45 0 0 0-3.16-1c-1.26-.41-2.46-.46-3.47.7zm26.64 10.32H191v3c.07 1.27.41 2.56 1.68 3.06a3.63 3.63 0 0 0 3.82-.32 1.42 1.42 0 0 1 .91-.23c1 0 1.19-.23 1.14-1.22-.07-1.18-.14-2.36-.14-3.54a35.42 35.42 0 0 0-.16-5.15 1.8 1.8 0 0 1 1.12-2.14c1.54-.76 2.67-1.91 2.38-4-.23-1.58-.24-1.76-1.79-2.19-1.24-.34-1.43-.66-1.11-1.9a9.5 9.5 0 0 0 .38-4.11c-.36-2-.88-2.71-2.65-3.07-.48-.1-1-.12-1.45-.2a14.66 14.66 0 0 0-3.56.2 1.31 1.31 0 0 0-1 1.64 11.92 11.92 0 0 1 .62 2.54c.1 1.15 0 2.32 0 3.48 0 .6-.2.84-.81.92a2.66 2.66 0 0 0-2.53 2.93v1c.07 1.78.61 2.48 2.35 2.94a1 1 0 0 1 .84 1.13c.03 1.76.05 3.5.05 5.24zm-12.39-1.12h-.14v4.88c0 1.27.32 1.63 1.5 2.06a2.58 2.58 0 0 1 .37.19 2.29 2.29 0 0 0 1.74.25 5.43 5.43 0 0 1 2.53-.26c1 .28 1.39 0 1.39-1.11a2.88 2.88 0 0 0-.06-.83c-.79-2.84-.44-5.71-.13-8.56.12-1.16.32-2.3.44-3.45.05-.4.07-.86-.43-1.07a5.63 5.63 0 0 1-1.41-1 1.46 1.46 0 0 0-1-.48c-1.8.06-3.67-.1-5.25 1.06-.28.21-.53.45-.35.81a8.5 8.5 0 0 1 .78 4c-.02 1.2-.01 2.36-.01 3.52zm-37.87-22.87c-4.31.47-8.54.12-12.8.71a7.74 7.74 0 0 1 1.72 4.76c0 .62.24.85.82 1a11.17 11.17 0 0 1 4.82 2.36c.35.36.56.28.91 0a18 18 0 0 1 4.8-2.63c.77-.26 1.58-.31 2.47-.51-2.07-1.31-3.6-2.87-2.77-5.68zm40.58 5.08a6.76 6.76 0 0 0-.79 0 3.65 3.65 0 0 0-2.85 1.37 4.15 4.15 0 0 0-.39 3.49 3.46 3.46 0 0 0 2.4 2.26c.59.18 1.2.32 1.81.46a3.94 3.94 0 0 0 3.52-.72c2-1.56 2-3.83.38-5.62-1.07-1.15-2.52-1.27-4.11-1.23zm-36.29-22.59a4.73 4.73 0 0 0-2.43.41 1.83 1.83 0 0 0-.44 2.85 5.24 5.24 0 0 0 4.56 1.05 2.38 2.38 0 0 0 2-2 2.56 2.56 0 0 0-2.21-2.18 8.58 8.58 0 0 0-1.51-.12zm12.88-.24a5 5 0 0 0-2.62.51 1.94 1.94 0 0 0-.43 2.7 5 5 0 0 0 3.24 1.22 3.59 3.59 0 0 0 2.68-.71 1.63 1.63 0 0 0 .54-2.19 2.49 2.49 0 0 0-1.56-1.28 7.11 7.11 0 0 0-1.88-.24zm-20.77.25a4.86 4.86 0 0 0-2.4.39 1.82 1.82 0 0 0-.49 2.88 5.06 5.06 0 0 0 5.62.52 1.73 1.73 0 0 0 .23-3 3 3 0 0 0-1.34-.69 5.47 5.47 0 0 0-1.65-.09zm10.1 17.24a5.35 5.35 0 0 0-2.66.45 1.87 1.87 0 0 0-.35 2.84 5.35 5.35 0 0 0 4.52 1 2.47 2.47 0 0 0 2.07-2 2.55 2.55 0 0 0-2.14-2.17 9.93 9.93 0 0 0-1.47-.11zm7.67 0a4.81 4.81 0 0 0-2.56.47 2 2 0 0 0-.51 2.67c1 1.16 4.4 1.81 5.86.65a1.79 1.79 0 0 0 .2-2.94 3.07 3.07 0 0 0-1.2-.66 7.22 7.22 0 0 0-1.82-.18zm14.24 4.42a3.09 3.09 0 0 0 1.87-.48c.64-.38 1.23-.84 1.19-1.65a2 2 0 0 0-1.29-1.84 6.13 6.13 0 0 0-4.93 0 1.85 1.85 0 0 0-.33 2.85c.96.96 2.22.96 3.46 1.13zm-7.41-2.61a4.18 4.18 0 0 1-1.11 3.86c1.95.17 3.49 1.13 5.15 1.75.42.16.68.57 1.14.62a20.77 20.77 0 0 1 5 1.24c.23.09.36.09.36-.19v-2.18a6.89 6.89 0 0 1-4 .23c-3.17-.56-5.68-1.91-6.57-5.32zM134 134v1.74c0 .37.14.48.48.48.92 0 1.85.08 2.77 0a23.66 23.66 0 0 0 4.29-.35c.23-.05.46-.07.45-.4s0-.91 0-1.43c-2.65 1.66-5.27.87-7.99-.04zm15.86 18.18c1 .58 2.16.65 3.14 1.11a.24.24 0 0 0 .3-.09 8 8 0 0 1 1.2-1.19 4.47 4.47 0 0 1-1.19-.27 2.33 2.33 0 0 0-2.57.16 4 4 0 0 1-.87.3zm28.42-6.52c-1.29-.25-2.57-.48-3.92-.83a6.05 6.05 0 0 1 1 1.87c.08.3.17.38.46.19a14.16 14.16 0 0 1 2.47-1.21z"></path><path class="cls-2" d="M100.74 151.22a12.83 12.83 0 0 0-3 1.28c-.23.11-.41.27-.64 0a39 39 0 0 1 1.9-4.89 82.68 82.68 0 0 1 11.62-19.15 72.28 72.28 0 0 1 17-15.74 45.82 45.82 0 0 1 9.66-4.74c.28-.08.57-.16.86-.26a36.17 36.17 0 0 1 6.68-1.37h.27a26.57 26.57 0 0 1 6.16.45 16.56 16.56 0 0 1 8 4.33 3.92 3.92 0 0 0 .32.25 21 21 0 0 1 3.63 5.72 28.19 28.19 0 0 1 2 9.68 24.4 24.4 0 0 1-.08 4.44c-.24.08-.28-.09-.28-.26-.08-3.14-1.93-4.91-4.67-6 0 0 0-.07-.08-.11a17.13 17.13 0 0 0-.51-2.23 14.27 14.27 0 0 0-4.1-7.58 10.34 10.34 0 0 0-4.3-2.57 6 6 0 0 0-1.94-.53h-.29c-.23-.05-.45-.12-.67-.15a18 18 0 0 0-5.18.17l-.68.07a4.83 4.83 0 0 0-2-.06c-1.34 0-2.73-.32-4 .26a6 6 0 0 1-1.66.28 4.18 4.18 0 0 0-1.37.35 12.68 12.68 0 0 1-2.53 1c-1.15.41-2.13 1.13-3.29 1.55s-1.94 1.4-3.08 1.82c0-.16.06-.37-.09-.46a2.36 2.36 0 0 0-1.65.68.34.34 0 0 0 .07.32c.1.17.23.1.36 0s.43-.36.75-.3c0 .18 0 .5-.13.49-1 0-1.22 1.06-2.06 1.37a8.82 8.82 0 0 0-2.81 2.26 22.52 22.52 0 0 0-2.93 2.81c-.58.78-1.47 1.32-2.07 2.11-.38.5-.84.91-1.21 1.42a18 18 0 0 1-1.79 2.31 7.14 7.14 0 0 0-1.44 1.65c-.6 1.16-1.44 2.14-2.14 3.22a19.16 19.16 0 0 1-1.71 2.48c-.27.3.08.83-.31 1s-.39.46-.38.78a.94.94 0 0 1-.19.5c-.54 1-1.27 1.92-1.22 3.15a.26.26 0 0 1-.11.23c-.58.24-.61.77-.82 1.27a41.23 41.23 0 0 0-1.79 5.22c-.14.45-.53.98-.08 1.48zM94.36 179.51c.16-.12.37-.1.55-.22a1.65 1.65 0 0 1 1.87-.19 5.54 5.54 0 0 0 2.73.62c.22 0 .47-.07.66.12a.39.39 0 0 0 .15.41 11.91 11.91 0 0 0 6.21 7 16.2 16.2 0 0 0 10.38 1.1 7.93 7.93 0 0 0 1.67-.38h.13a2.8 2.8 0 0 0 2.4.23 8.92 8.92 0 0 1 1.8-.39 36.62 36.62 0 0 0 4.32-1 14 14 0 0 0 1.81-.76 5.22 5.22 0 0 0 2.29-1.09c.42-.42.9-.74 1.53-.36a.17.17 0 0 0 .24 0c.44-.42.89-.82 1.37-1.2a3.39 3.39 0 0 1 1.69-.87.8.8 0 0 1-.57 1.15 2.25 2.25 0 0 0-1.38 1.35 44.24 44.24 0 0 1-7.51 4.86 33.08 33.08 0 0 1-9.79 3.43c-5.74 1-11.15.22-16-3.26a16.72 16.72 0 0 1-5.76-8.09c-.27-.84-.52-1.65-.79-2.46z"></path><path class="cls-3" d="M216.91 188.65h-1.53c-1.1-.29-1.28-.77-.65-1.71.05-.08.08-.16.12-.24l2.14-2.81c.34-.44.65-1 1.34-.73s.57.87.58 1.41a19.43 19.43 0 0 1 0 2.16c-.06.68.6.44.85.72.12.13.18-.28.3-.42a4.6 4.6 0 0 1 .32-.45c.21-.19.19-.32 0-.57a1.77 1.77 0 0 1 1-2.73 2.82 2.82 0 0 1 2.1.09 1.79 1.79 0 0 1 .8 2.66c-.07.12-.18.21-.08.37.86 1.28.72 2.63-.34 3.27-1.51.92-3.17.33-4.1-1.45a.72.72 0 0 1-.5.34c-.32.06-.4.24-.39.54 0 .5-.11.94-.75.94s-.8-.46-.79-1c.01-.32-.07-.49-.42-.39zm4.32.53c0 .23-.09.55.32.54a.21.21 0 0 0 .22-.22c0-.41-.31-.29-.54-.32.38-.55 0-.58-.41-.59-.13 0-.23-.31-.38-.08s.05.33.17.47a.7.7 0 0 0 .62.2zm2.79-1.67c0 .35-.45.17-.48.56.33-.07.68.16.93-.23.09-.14.17-.33.07-.45s-.31.21-.52.12a5 5 0 0 0-.05-.95c0-.18-.2-.41-.43-.33a.43.43 0 0 0-.33.4c0 .34.15.21.34.14s.18.16.19.28-.02.43.26.46zm-2.51.23a.92.92 0 0 0 .85 1 .81.81 0 0 0 .8-.86.86.86 0 0 0-.85-.9.78.78 0 0 0-.8.76zm1.45-2.63c0-.38-.19-.65-.62-.67a.59.59 0 0 0-.67.62.58.58 0 0 0 .66.62.57.57 0 0 0 .67-.57zm-6.69 2c1.15.15 1.28 0 .93-1.3zm6.95 2.19c-.71-.16-.71-.16-1 .11a1.71 1.71 0 0 0 1-.11zM178.3 185.94c-.26-1.42 0-2.07.91-2.55a3.26 3.26 0 0 1 3.62.45 1.21 1.21 0 0 1 .17 1.68.92.92 0 0 1-1.4-.54.79.79 0 0 0-.42-.44 1.12 1.12 0 0 0-1.12.09c-.14.1-.27.21-.18.4.14.35.49.41.79.5a12 12 0 0 1 1.65.49 1.81 1.81 0 0 1 1.19 1.79 2 2 0 0 1-1.22 1.93 3 3 0 0 1-4.26-1.42c0-.47 0-.95.6-1.09s.88.22 1.07.72a1.1 1.1 0 0 0 .31.45 1.25 1.25 0 0 0 1.37.11.55.55 0 0 0 .39-.6c-.1-.52-.58-.53-1-.67a4.56 4.56 0 0 0-.53-.13 3.18 3.18 0 0 1-1.94-1.17z"></path><path class="cls-3" d="M209.8 187.08a2.73 2.73 0 0 1 0-3.17 2.9 2.9 0 0 0 .29-.19 2.42 2.42 0 0 1 3.94 1.21 4.71 4.71 0 0 1-.73 4.54c-.09 0-.13 0-.13.13l-.84.4h-1.4a3.15 3.15 0 0 1-1.06-.75c-.38-.54-.4-1.1 0-1.36s.89-.07 1.2.42 1 .53 1.29-.09a.91.91 0 0 0 .13-.58c-1.49.27-1.75.22-2.69-.56zm2.74-1.53c0-.53-.46-1.13-.87-1.08-.57.07-.73.5-.74 1s.14.94.71 1a.89.89 0 0 0 .9-.92zM190.26 185a2.15 2.15 0 0 1 .8 1.9v2.22c0 .49-.18.87-.76.89s-.84-.32-.86-.86V187c0-.38 0-.8-.55-.81a.75.75 0 0 0-.78.75 17.89 17.89 0 0 0 0 1.94c0 .47 0 .92-.53 1.09a.87.87 0 0 1-1.13-.55v-4l.43-.57h.13c.29 0 .6 0 .81.27.1.12.19.18.35.07a2.41 2.41 0 0 1 2.17-.14zM193.23 190a2.54 2.54 0 0 1-1.69-2.79 2.39 2.39 0 0 1 2.05-2.36 2.35 2.35 0 0 1 2.82 1.54v.25a.87.87 0 0 1-1.3.32c-.29-.46-.6-.95-1.24-.71s-.69.81-.66 1.38a1.89 1.89 0 0 0 .11.47.87.87 0 0 0 1.5.27 4.63 4.63 0 0 0 .39-.56l.14-.1a.91.91 0 0 1 1.09.36 1.78 1.78 0 0 1-.38 1.29l-1.16.63a.13.13 0 0 0-.12 0h-1.26zM206.26 185.82a8.08 8.08 0 0 1-.92.41.67.67 0 0 1-.92-.37.64.64 0 0 1 .36-.92 4.08 4.08 0 0 0 1.84-1.52.64.64 0 0 1 .8-.24.67.67 0 0 1 .48.63v5.48a.73.73 0 0 1-.82.76c-.54 0-.75-.33-.77-.79v-2.64zM184.28 189.88l-.13-.15c-.1-1.48-.06-3 0-4.46v-.13l.54-.37c-.64-.39-.65-.4-.55-1.3.41-.32.85-.52 1.3-.11s.27.79 0 1.19c-.4.36.11.5.19.74v3.82a1.2 1.2 0 0 1-.43.91 1.7 1.7 0 0 1-.92-.14zM134.21 185a2.25 2.25 0 0 1 1.38-1.35.8.8 0 0 0 .57-1.15c0-.18 0-.5.13-.5.94 0 1-1 1.47-1.41a2.78 2.78 0 0 1 1.73-.89l.82.06a66.73 66.73 0 0 1-5.81 5.07 2.75 2.75 0 0 1-.29.17z"></path><path class="cls-4" d="M137.21 139.12a31 31 0 0 0 5.28-.26c.88-.14 1.67-.57 2.54-.72.27 0 .23-.25.23-.43v-1.53c-.12-1.92.46-1.9 2-2.23a8.63 8.63 0 0 1 3.3.28c.39.07.3.4.22.61a8.57 8.57 0 0 0-.2 3.38 1.94 1.94 0 0 0 .84 1.47c.23.18.44.48.78.34a1 1 0 0 0 .58-.89v-1.11-2c.11-1.51.78-2.09 2.32-2.1a19.07 19.07 0 0 1 3 .29c.42.07.36.37.27.65a8.44 8.44 0 0 0-.16 3.57 1.74 1.74 0 0 0 .74 1.22c.25.19.46.55.83.38a1 1 0 0 0 .59-1v-2.93c-.07-1.88.45-1.84 2-2.18a8.25 8.25 0 0 1 3.3.25c.43.09.34.43.24.66-.52 1.26-.16 2.53-.06 3.78.05.66.63 1.05 1.19 1.37.22.13.41 0 .56-.16a1.2 1.2 0 0 0 .4-.83v-2.09c0-1.82.29-2.13 2.08-2.51a9.6 9.6 0 0 1 1.83-.38c.8 0 1 .2 1.1 1 .12 1 .3 2.07.43 3.1a.42.42 0 0 0 .38.4c.53.14 1.05.38 1.59.5 1.31.3 1.75 0 1.74-1.25 0-1.47-.06-2.93-.09-4.39v-.77c-.1-2 .3-4.08-.42-6.06-.17-.45 0-.67.45-.84a7.47 7.47 0 0 1 5.92.15 1.34 1.34 0 0 1 .86 1.8 10.12 10.12 0 0 0-.52 4c-.12 2.65.24 5.28.27 7.93a7.88 7.88 0 0 1-.05 1 1.45 1.45 0 0 1-1.25 1.45 1.27 1.27 0 0 0-.58.21c-1.24 1-2.63.73-4 .52a15.81 15.81 0 0 1-4.63-1.2.39.39 0 0 0-.5 0c-1.77 1.68-4 1.93-6.27 1.91a10.47 10.47 0 0 1-2.87-.49 1.47 1.47 0 0 0-.95 0 10.91 10.91 0 0 1-6.64 0 1.59 1.59 0 0 0-1 0 10.82 10.82 0 0 1-7.81-.48 3.29 3.29 0 0 1-1.22-.9c-.16-.19-.3-.31-.58-.18a15.57 15.57 0 0 1-5.32.9 92.32 92.32 0 0 1-9.26.31c-.91 0-1.79.31-2.7.28a1.63 1.63 0 0 1-1-.28 3.68 3.68 0 0 0-1.45-.66 1.34 1.34 0 0 1-1.1-1.25 8.81 8.81 0 0 1-.06-2.71 26.49 26.49 0 0 0 .22-4.45c0-1.46-.07-2.92-.09-4.38a3 3 0 0 0-.33-1.34 1.46 1.46 0 0 1 .78-2 8.46 8.46 0 0 1 3.79-.73 9.45 9.45 0 0 1 2.38.68.42.42 0 0 1 .26.57c-.81 2-.41 4.17-.52 6.26-.09 1.63-.07 3.25-.08 4.88 0 1.33 0 1.35 1.36 1.46.86.07 1.71.14 2.57.16s1.65-.01 2.49-.01z"></path><path class="cls-5" d="M116.46 168.6c.23-4.61.38-9.23.37-13.85a11.17 11.17 0 0 0-.87-4.47 3.58 3.58 0 0 1-.29-1c-.09-.88.28-1.26 1.15-1.19a2.16 2.16 0 0 0 1.4-.52 2 2 0 0 1 2-.19 3.83 3.83 0 0 0 1.49.28 3.39 3.39 0 0 1 3.2 3.83 2.15 2.15 0 0 1-.26.63 4.55 4.55 0 0 0-.33 3.12c.12.57.45.86 1.06.65a4 4 0 0 1 2.53.08 21.42 21.42 0 0 1 3 1 6.09 6.09 0 0 1 3.81 5.22 13.65 13.65 0 0 1-1 5.43 22.31 22.31 0 0 1-1.84 4.19 5.48 5.48 0 0 1-2.86 2.42 15.71 15.71 0 0 1-5.41 1.13 18.89 18.89 0 0 1-2.82.34c-3.26-.38-4.06-1.66-4.28-4.44-.11-.89-.05-1.77-.05-2.66zm7.52-.92c.19.39-.24 1.19.3 1.34s1-.54 1.3-1a2.09 2.09 0 0 0 .3-.47 29.1 29.1 0 0 0 1.71-3.56 13.16 13.16 0 0 0 .63-2.62c.08-.58-.22-.74-.69-.59a3 3 0 0 0-1.78 1.25 10.69 10.69 0 0 0-1.75 5.65z"></path><path class="cls-6" d="M110.42 152.71a11 11 0 0 1-3.16-1 13.18 13.18 0 0 0-3.38-.68c-.76-.06-1.53 0-2.3 0a3.15 3.15 0 0 1 0-.76c.6-1.81 1.18-3.63 1.86-5.41a60.22 60.22 0 0 1 6.5-12 50.66 50.66 0 0 1 5.31-6.37c1.28-1.36 2.65-2.63 4-3.91.74-.7 1.55-1.32 2.31-2a44.38 44.38 0 0 1 4.65-3.45 5.53 5.53 0 0 1 2.09-1c.91.07 1.45-.68 2.18-1l-.08-.1c.1-.25.31-.29.55-.28s.61.17.7-.28c.1-.16.26-.13.42-.14.23.23.36.16.42-.14h.13c.22 0 .52.1.56-.28.4 0 .69-.43 1.12-.28.1.52.31 1.07-.44 1.3 0 0-.09.1-.11.16-.36 1.15-1.22 2-1.67 3.14-.11.27-.09.71-.27.82-.64.38-.72 1.11-1.16 1.61-.23.25-.87.73-.13 1.34h-3.22c-.23 0-.53-.13-.62.25a13.49 13.49 0 0 0-4.44 1.38 4 4 0 0 0-1.26 4 4.15 4.15 0 0 1 .41 1.86v4.94c-.27.28-.55.56-.8.86a55.48 55.48 0 0 0-5.56 8 6.69 6.69 0 0 0-2.9 2 5.69 5.69 0 0 0-1.1 5.3 5.29 5.29 0 0 1 .08.9c-.24.41-.06 1.04-.69 1.22z"></path><path class="cls-5" d="M79.9 167.51c.3-3.75.54-7.5.61-11.26a29.93 29.93 0 0 0 0-5 19.89 19.89 0 0 1-.33-2.05.84.84 0 0 1 .89-1 25.43 25.43 0 0 1 6 .27 3.57 3.57 0 0 1 3 3.23 1.42 1.42 0 0 1-.3 1 2.92 2.92 0 0 0-.47 1.29c-.28 3.56-.89 7.1-.78 10.69v1c0 .57.24.79.85.9a6.23 6.23 0 0 1 4.3 2.23A1.44 1.44 0 0 1 94 170a6.25 6.25 0 0 0 .1 2.55c.24 1.6-.34 2.36-2 2.41-2.25.06-4.5.22-6.74.38-.65 0-1.29.12-1.94.15a2 2 0 0 1-1.56-.64 5.8 5.8 0 0 1-2-5.08 19.43 19.43 0 0 0 .04-2.26z"></path><path class="cls-4" d="M154 164.14c-.1 2.64-.17 5.29-.29 7.93a6.23 6.23 0 0 0 .36 2.39c.21.59 0 .91-.58.85a11.85 11.85 0 0 0-2.79.43 3.68 3.68 0 0 1-3.7-1.44.53.53 0 0 0-.7-.22c-.71.22-1.43.37-2.14.6a9.23 9.23 0 0 1-3.31.24c-1.62-.07-3.31-2.18-3.66-3.92a7.29 7.29 0 0 1 5.94-8.31 7.53 7.53 0 0 1 2.76 0c.19 0 .42.22.57 0s0-.51-.25-.65a3.53 3.53 0 0 0-2.36-.66 9.71 9.71 0 0 0-3.1 1c-.49.22-1 .47-1.46.67a1.22 1.22 0 0 1-1.8-1c-.23-1.5-.11-2.88 1.45-3.72.81-.44 1.55-1 2.35-1.49a6.32 6.32 0 0 1 5.69-.37c1.26.46 2.51.94 3.8 1.33a3.68 3.68 0 0 1 2.47 2.18 10.82 10.82 0 0 1 .75 4.16zm-7.11 4.52a2.27 2.27 0 0 0-.42-1.22.63.63 0 0 0-.85-.25 3.72 3.72 0 0 0-1.72 1.65 1.22 1.22 0 0 0 .48 1.62 2.06 2.06 0 0 0 2.52-1.8z"></path><path class="cls-7" d="M112.89 165.74c0 2-.09 4-.24 6a7.46 7.46 0 0 0 .4 2.81c.09.29.16.65-.24.63-1.6-.06-3.09.82-4.72.48a3.29 3.29 0 0 1-2.12-1.33.6.6 0 0 0-.8-.29c-.62.2-1.25.34-1.87.52a9.78 9.78 0 0 1-3 .36c-1.93 0-3-1.17-3.8-2.7a5.66 5.66 0 0 1-.09-5c1.5-3.6 4.4-4.92 8-4.73.08 0 .17.07.26.08s.46.29.61 0-.08-.54-.31-.69a3.9 3.9 0 0 0-3.4-.42 26.94 26.94 0 0 0-3.14 1.3c-1.24.56-2 .17-2.18-1.16a3 3 0 0 1 1.35-3.31c.86-.5 1.66-1.1 2.52-1.61a6.37 6.37 0 0 1 5.76-.35c1.21.46 2.42.93 3.66 1.29a3.74 3.74 0 0 1 2.66 2.38 8.73 8.73 0 0 1 .69 3.38c-.02.78 0 1.62 0 2.36zm-9 4.75c.16 0 .44-.08.7-.16a1.78 1.78 0 0 0 .93-2.83c-.21-.3-.51-.5-.83-.34a3.17 3.17 0 0 0-1.9 2.06 1 1 0 0 0 1.06 1.27zM219.85 165.75c0 2-.09 4-.24 6.05a7.62 7.62 0 0 0 .41 2.8c.09.3.15.66-.24.64-1.54-.06-3 .73-4.53.51a3.33 3.33 0 0 1-2.36-1.42.53.53 0 0 0-.69-.25c-.78.23-1.58.38-2.35.63a7.41 7.41 0 0 1-3.24.18c-1.53-.18-3.09-1.87-3.51-3.73a7.21 7.21 0 0 1 5.26-8.32 7.09 7.09 0 0 1 3.63-.12c.16 0 .28.06.35-.11a.45.45 0 0 0-.18-.55 3.28 3.28 0 0 0-2.18-.76 6.89 6.89 0 0 0-2.81.73l-1.83.83c-1.08.48-1.85.09-2-1.09-.21-1.4 0-2.66 1.37-3.49.9-.53 1.74-1.15 2.66-1.66a6.37 6.37 0 0 1 5.44-.3c1.31.47 2.6 1 3.93 1.38a3.7 3.7 0 0 1 2.41 2.16 11.65 11.65 0 0 1 .72 5.26c-.03.21-.02.42-.02.63zm-9 4.74a7.44 7.44 0 0 0 .78-.21 1.76 1.76 0 0 0 .76-2.86.7.7 0 0 0-.73-.28 3.46 3.46 0 0 0-1.93 2.12 1 1 0 0 0 1.11 1.23zM164.45 158.86c1-1.16 2.21-1.11 3.5-.79a17.45 17.45 0 0 1 3.16 1c2.56 1.15 3.53 3.3 3.83 5.93a21.11 21.11 0 0 1-.17 5.27c-.18 1.31-.25 2.63-.35 3.95a1.17 1.17 0 0 1-1.24 1.26 2.92 2.92 0 0 1-1.1-.13c-.9-.3-1.82-.55-2.69-.91a2.59 2.59 0 0 1-1.56-2.58v-5.22a3.66 3.66 0 0 0-.34-1.82c-.43-.76-.72-.8-1.32-.19a5 5 0 0 0-1.37 3.54v4a6.62 6.62 0 0 0 .35 1.76c.23.89 0 1-.8 1.22s-1.63.25-2.42.46a4.32 4.32 0 0 1-3.45-.83 2.19 2.19 0 0 1-.77-2.07c0-2.32.16-4.64.19-7 0-2.13 0-4.27-.07-6.4a2.46 2.46 0 0 0-.57-1.26 1.81 1.81 0 0 1-.28-1.26c.07-.6.34-.94 1-.85a2.79 2.79 0 0 0 1.75-.32 1.51 1.51 0 0 1 1.34-.08c.86.35 1.71.72 2.55 1.1a1.2 1.2 0 0 1 .6 1 2.77 2.77 0 0 0 .23 1.22zM191.09 169.18v-5.22a1 1 0 0 0-.84-1.13c-1.74-.46-2.28-1.16-2.35-2.94v-1a2.66 2.66 0 0 1 2.53-2.93c.61-.08.82-.32.81-.92 0-1.16.09-2.33 0-3.48a11.92 11.92 0 0 0-.62-2.54 1.31 1.31 0 0 1 1-1.64 14.66 14.66 0 0 1 3.56-.2c.48.08 1 .1 1.45.2 1.77.36 2.29 1.06 2.65 3.07a9.5 9.5 0 0 1-.38 4.11c-.32 1.24-.13 1.56 1.11 1.9 1.55.43 1.56.61 1.79 2.19.29 2.05-.84 3.2-2.38 4a1.8 1.8 0 0 0-1.12 2.14 35.42 35.42 0 0 1 .16 5.15c0 1.18.07 2.36.14 3.54.05 1-.15 1.19-1.14 1.22a1.42 1.42 0 0 0-.91.23 3.63 3.63 0 0 1-3.82.32c-1.27-.5-1.61-1.79-1.68-3.06-.06-1 0-2 0-3zM178.7 168.06v-3.48a8.5 8.5 0 0 0-.78-4c-.18-.36.07-.6.35-.81 1.58-1.16 3.45-1 5.25-1.06a1.46 1.46 0 0 1 1 .48 5.63 5.63 0 0 0 1.41 1c.5.21.48.67.43 1.07-.12 1.15-.32 2.29-.44 3.45-.31 2.85-.66 5.72.13 8.56a2.88 2.88 0 0 1 .06.83c0 1.12-.34 1.39-1.39 1.11a5.43 5.43 0 0 0-2.53.26 2.29 2.29 0 0 1-1.74-.25 2.58 2.58 0 0 0-.37-.19c-1.18-.43-1.48-.79-1.5-2.06v-4.88z"></path><path class="cls-4" d="M140.83 145.19c-.82 2.79.7 4.37 2.74 5.76-.89.2-1.7.25-2.47.51a18 18 0 0 0-4.8 2.63c-.35.24-.56.32-.91 0a11.17 11.17 0 0 0-4.82-2.36c-.58-.18-.81-.41-.82-1a7.74 7.74 0 0 0-1.75-4.83c4.29-.59 8.52-.24 12.83-.71z"></path><path class="cls-8" d="M147.87 125.31l-.78-.15-.09-.16a2.92 2.92 0 0 0-1.34-1.39 12.3 12.3 0 0 0-4.51-1.67c0-.08.08-.23.11-.23.67 0 .8-.37.73-.92a.35.35 0 0 1 .09-.26c1.16-1.25 1.65-2.92 2.7-4.25.61-.76.67-1.92 1.66-2.43a5.51 5.51 0 0 1 1.48.56 14.2 14.2 0 0 1 5.23 3.59c0 .13 0 .25.16.28-.34.26-.69.5-.48 1a.26.26 0 0 1 0 .2c-1.11 1.71-1.77 3.68-3.11 5.25a1.26 1.26 0 0 0-.2.58c-.07.28-.38.31-.45.11-.32-.83-.78-.24-1.2-.11z"></path><path class="cls-2" d="M126.68 122.22c.09-.38.39-.25.62-.25h3.27c-.74-.61-.1-1.09.13-1.34.44-.5.52-1.23 1.16-1.61.18-.11.16-.55.27-.82.45-1.1 1.31-2 1.67-3.14 0-.06.06-.15.11-.16.75-.23.54-.78.44-1.3a.28.28 0 0 1 .28-.13c.23.22.36.15.42-.14a14.54 14.54 0 0 1 4.73-.56h.85c0 .15.06.27.23.29s.31-.06.32-.26h.29c.34.52 1 .37 1.46.74a8.16 8.16 0 0 0-2.1.51c.37 0 .52.52 1 .32a.23.23 0 0 1 .32.18.26.26 0 0 1-.23.3.52.52 0 0 0-.42.4c-.29.91-1.22 1.52-1.23 2.57 0 .06-.12.13-.19.19-.52.44-.44 1.4-1.31 1.55v.12a5.68 5.68 0 0 1-1.13 2.31h-.28c0-.21.1-.53-.25-.55s-.07.28-.12.42-.14.12-.23.11c-.65-.07-.33.29-.24.55a28.27 28.27 0 0 0-3.3 1.42 17.4 17.4 0 0 0-3.92-1.61 5.52 5.52 0 0 0-1.78-.08zm13.58-7.67a.67.67 0 0 0-.79.06c.35.11.53.15.79-.06z"></path><path class="cls-4" d="M181.41 150.27c1.62 0 3 .08 4.08 1.24 1.63 1.79 1.65 4.06-.38 5.62a3.94 3.94 0 0 1-3.52.72c-.61-.14-1.22-.28-1.81-.46a3.46 3.46 0 0 1-2.4-2.26 4.15 4.15 0 0 1 .39-3.49 3.65 3.65 0 0 1 2.85-1.37 6.76 6.76 0 0 1 .79 0z"></path><path d="M125 180.24a20.87 20.87 0 0 0 2.82-.52 14.52 14.52 0 0 0 6.29-3c.13-.11.27-.49.54-.16a11.84 11.84 0 0 0 3.67 2.85 44.56 44.56 0 0 1-8.33 5.07 25.24 25.24 0 0 1-5.77 1.92 44.08 44.08 0 0 1 2.67-4.73c.24-.31.16-.56-.3-.58-.12 0-.29 0-.33-.18l2.07-.48v-.19z" fill="#f38d70"></path><path class="cls-10" d="M134.63 113.46a.28.28 0 0 0-.28.13c-.43-.15-.72.29-1.12.28a.5.5 0 0 0-.56.28h-.13c-.16 0-.32 0-.42.14-.16 0-.32 0-.42.14a.82.82 0 0 0-.7.28c-.24 0-.45 0-.55.28a4.92 4.92 0 0 0-2.1 1.12 5.53 5.53 0 0 0-2.09 1 44.38 44.38 0 0 0-4.65 3.45c-.76.68-1.57 1.3-2.31 2-1.36 1.28-2.73 2.55-4 3.91a50.66 50.66 0 0 0-5.31 6.37 60.22 60.22 0 0 0-6.5 12c-.68 1.78-1.26 3.6-1.86 5.41a3.15 3.15 0 0 0 0 .76c-.18.45-.56.15-.84.22-.45-.5-.06-1 .05-1.47a41.23 41.23 0 0 1 1.79-5.22c.21-.5.24-1 .82-1.27a.26.26 0 0 0 .11-.23c-.05-1.23.68-2.15 1.22-3.15a.94.94 0 0 0 .19-.5c0-.32 0-.59.38-.78s0-.71.31-1a19.16 19.16 0 0 0 1.71-2.48c.7-1.08 1.54-2.06 2.14-3.22a7.14 7.14 0 0 1 1.44-1.65 18 18 0 0 0 1.79-2.31c.37-.51.83-.92 1.21-1.42.6-.79 1.49-1.33 2.07-2.11a22.52 22.52 0 0 1 2.92-2.78 8.82 8.82 0 0 1 2.81-2.26c.84-.31 1-1.4 2.06-1.37.17 0 .11-.31.13-.49.22 0 .51.1.55-.28 1.14-.42 2-1.41 3.08-1.82s2.14-1.14 3.29-1.55a12.68 12.68 0 0 0 2.53-1 4.18 4.18 0 0 1 1.37-.35 6 6 0 0 0 1.66-.28c1.3-.58 2.69-.28 4-.26a4.68 4.68 0 0 1 2 .07l-2.1.59c-.2 0-.41-.06-.57.14a14.54 14.54 0 0 0-4.73.56c-.13-.02-.29-.05-.39.12z"></path><path class="cls-11" d="M114.37 180c.1-.33.4-.21.62-.26a8.81 8.81 0 0 0 2.39.41c.4-.28.73.08 1 .17a16 16 0 0 0 3.52.29c.07.47.62.05.77.41-1.42 1.91-2.21 4.21-3.83 6a14.16 14.16 0 0 1-4.11-.36 10 10 0 0 1-3.2-1l.2-.19c.25-.23.77-.08.85-.48s-.59-.27-.64-.7a.84.84 0 0 1 .71 0c.18.06.32.05.41-.12a8.17 8.17 0 0 0 1.29-2.57c.06-.38.23-.43.54-.44a2.15 2.15 0 0 0 1.37-.23c-.59 0-1.17-.24-1.22-.44-.04-.57-.34-.49-.67-.49zm7.19.76a1.15 1.15 0 0 0-.22 0s-.08 0-.12.06.15.07.24.06.05-.12.1-.16z"></path><path class="cls-8" d="M114.37 180c.33 0 .6 0 .71.46 0 .2.63.46 1.22.44a2.15 2.15 0 0 1-1.37.23c-.31 0-.48.06-.54.44a8.17 8.17 0 0 1-1.29 2.57c-.09.17-.23.18-.41.12a.84.84 0 0 0-.71 0c0 .43.71.3.64.7s-.6.25-.85.48l-.2.19a12.48 12.48 0 0 1-3.65-1.77 12.79 12.79 0 0 1-4.13-4.21c.28-.34.55-.22.88 0a9.9 9.9 0 0 0 6.71.75c.98-.24 1.99-.35 2.99-.4z"></path><path class="cls-12" d="M118.88 187c1.62-1.78 2.41-4.08 3.83-6-.15-.36-.7.06-.77-.41 1 0 2-.49 3-.33h3.3v.19l-2.07.48c0 .23.21.17.33.18.46 0 .54.27.3.58a44.08 44.08 0 0 0-2.67 4.73l-2.82.66a15.7 15.7 0 0 0-2.43-.08z"></path><path class="cls-13" d="M145.12 127.68a8.58 8.58 0 0 1 1.52.12 2.56 2.56 0 0 1 2.21 2.18 2.38 2.38 0 0 1-2 2 5.24 5.24 0 0 1-4.56-1.05 1.83 1.83 0 0 1 .44-2.85 4.73 4.73 0 0 1 2.39-.4zM158 127.44a7.11 7.11 0 0 1 1.85.25 2.49 2.49 0 0 1 1.56 1.28 1.63 1.63 0 0 1-.54 2.19 3.59 3.59 0 0 1-2.68.71 5 5 0 0 1-3.24-1.22 1.94 1.94 0 0 1 .43-2.7 5 5 0 0 1 2.62-.51zM137.23 127.69a5.47 5.47 0 0 1 1.62.14 3 3 0 0 1 1.34.69 1.73 1.73 0 0 1-.23 3 5.06 5.06 0 0 1-5.62-.52 1.82 1.82 0 0 1 .49-2.88 4.86 4.86 0 0 1 2.4-.43zM147.33 144.93a9.93 9.93 0 0 1 1.44.15 2.55 2.55 0 0 1 2.14 2.17 2.47 2.47 0 0 1-2.07 2 5.35 5.35 0 0 1-4.52-1 1.87 1.87 0 0 1 .35-2.84 5.35 5.35 0 0 1 2.66-.48zM155 144.93a7.22 7.22 0 0 1 1.79.19 3.07 3.07 0 0 1 1.2.66 1.79 1.79 0 0 1-.2 2.94c-1.46 1.16-4.88.51-5.86-.65a2 2 0 0 1 .51-2.67 4.81 4.81 0 0 1 2.56-.47zM169.24 149.35c-1.22-.17-2.5-.17-3.49-1.11a1.85 1.85 0 0 1 .33-2.85 6.13 6.13 0 0 1 4.93 0 2 2 0 0 1 1.29 1.84c0 .81-.55 1.27-1.19 1.65a3.09 3.09 0 0 1-1.87.47z"></path><path class="cls-11" d="M147.87 125.31c.42-.13.88-.72 1.21.16.07.2.38.17.45-.11a1.26 1.26 0 0 1 .2-.58c1.34-1.57 2-3.54 3.11-5.25a.26.26 0 0 0 0-.2c-.21-.52.14-.76.48-1a3.92 3.92 0 0 1 1.22 1.4c-.06.14-.22.32-.05.44.51.37.31.73 0 1.11-.44.63-.5 1.42-.89 2.07a.23.23 0 0 0 0 .25c.16.29.15.29-.23.34-.05-.29-.23-.33-.45-.22a.15.15 0 0 0-.06.23c.17.2.33-.06.51 0 0 .06 0 .15-.07.19a2.08 2.08 0 0 0-1.06 2 4.57 4.57 0 0 0-.87 2c-.29.08-.37-.2-.47-.32a6.3 6.3 0 0 0-3-2.24c.1-.09.03-.2-.03-.27z"></path><path class="cls-10" d="M121.35 187.06l2.82-.66a25.24 25.24 0 0 0 5.77-1.92 44.56 44.56 0 0 0 8.33-5.07c.41.1.89-.16 1.22.28a2.78 2.78 0 0 0-1.73.89c-.49.45-.53 1.42-1.47 1.41-.17 0-.11.32-.13.5a3.39 3.39 0 0 0-1.69.87c-.48.38-.93.78-1.37 1.2a.17.17 0 0 1-.24 0c-.63-.38-1.11-.06-1.53.36a5.22 5.22 0 0 1-2.29 1.09 14 14 0 0 1-1.81.76 36.62 36.62 0 0 1-4.32 1 8.92 8.92 0 0 0-1.8.39 2.8 2.8 0 0 1-2.4-.23z"></path><path class="cls-14" d="M159.61 122.64a17.13 17.13 0 0 1 .51 2.23l-1.93-.28c-.2-.41-.78-.58-.82-1-.12-1.24-1-2-1.62-3a14.17 14.17 0 0 0-1.95-2.64 13.76 13.76 0 0 0-3.59-2.84 26.67 26.67 0 0 0-3.63-1.57 7.81 7.81 0 0 0-3-.75c-.72 0-.8-.17-.45-.79a18 18 0 0 1 5.18-.17c.22 0 .44.1.67.15h-3.67v.2a12.12 12.12 0 0 1 1.74.69c.57.3 1.23.17 1.78.64a5.71 5.71 0 0 0 1.43.94 17.63 17.63 0 0 1 3.06 2.06 7.16 7.16 0 0 1 1.9 2.05c.85 1.21 1.92 2.27 2.28 3.84.16-.15.27-.54.55-.33s.19.5 0 .75a.65.65 0 0 0-.16.37c0 .31-.09.67.38.77 1 .22 1.28 0 1.29-1a2.45 2.45 0 0 1 .05-.32z"></path><path class="cls-13" d="M161.83 146.74c.89 3.41 3.4 4.76 6.53 5.33a6.89 6.89 0 0 0 4-.23V154c0 .28-.13.28-.36.19a20.77 20.77 0 0 0-5-1.24c-.46-.05-.72-.46-1.14-.62-1.66-.62-3.2-1.58-5.15-1.75a4.18 4.18 0 0 0 1.12-3.84zM121.12 137.31c0 .88 0 1.75.06 2.63a6.1 6.1 0 0 0 1 2.84 8.33 8.33 0 0 0-5.08-.16c-.24-.19-.12-.36 0-.6a7.66 7.66 0 0 1 1.21-1.71c.26-.36.3-.8.67-1.14a19.81 19.81 0 0 0 1.88-2.28c.07.11.24.21.26.42z"></path><path class="cls-15" d="M121.35 187.06l-2.64.91h-.13a2.29 2.29 0 0 0-1.82-.38 1.3 1.3 0 0 1-1.05-.16.94.94 0 0 0-.64-.2 4.82 4.82 0 0 1-2.73-.57 25.9 25.9 0 0 1-3.34-1.25c-.54-.27-.85-.75-1.4-1-1-.39-1.58-1.38-2.52-1.87a.44.44 0 0 1-.13-.23c-.16-.57-.68-.84-1-1.24a2 2 0 0 1-.67-1.36.47.47 0 0 1 .54-.08 12.79 12.79 0 0 0 4.13 4.21 12.48 12.48 0 0 0 3.65 1.77 10 10 0 0 0 3.2 1 14.16 14.16 0 0 0 4.11.36 15.7 15.7 0 0 1 2.44.09z"></path><path class="cls-13" d="M134.64 124.86h-.28c-.12-.2.1-.26.17-.31a7 7 0 0 1 4-1.23 3.65 3.65 0 0 0 1.07-.19 2.84 2.84 0 0 1 2.09 0 8.06 8.06 0 0 0 1.36.58c.64.23 1.16.76 1.89.82v.13a9 9 0 0 0-4.32.79.33.33 0 0 1-.33 0 10.59 10.59 0 0 0-5.1-.76c-.19.07-.39.01-.55.17zM134 134c2.71.89 5.33 1.68 8 .08v1.43c0 .43-.22.35-.45.4a23.66 23.66 0 0 1-4.29.35h-2.77c-.34 0-.5-.11-.48-.48-.01-.59-.01-1.16-.01-1.78z"></path><path class="cls-12" d="M152.33 126.11a2.08 2.08 0 0 1 1.06-2s0-.13.07-.19c.38 0 .39 0 .23-.34a.23.23 0 0 1 0-.25c.39-.65.45-1.44.89-2.07.27-.38.47-.74 0-1.11-.17-.12 0-.3.05-.44a16.26 16.26 0 0 1 2.59 4.77 3.9 3.9 0 0 1-1.36.14 6.27 6.27 0 0 0-3.53 1.49z"></path><path class="cls-15" d="M157.18 124.48a16.26 16.26 0 0 0-2.59-4.77 3.92 3.92 0 0 0-1.22-1.4.22.22 0 0 0-.16-.28 14.2 14.2 0 0 0-5.23-3.59 5.51 5.51 0 0 0-1.48-.56c-.29-.1-.6-.17-.9-.29a12.84 12.84 0 0 0-4.11-.82h-1.05a.29.29 0 0 0-.07-.12l2.1-.59.68-.08c-.35.62-.27.83.45.79a7.81 7.81 0 0 1 3 .75 26.67 26.67 0 0 1 3.63 1.57 13.76 13.76 0 0 1 3.59 2.84 14.17 14.17 0 0 1 1.95 2.64c.58 1 1.5 1.77 1.62 3 0 .46.62.63.82 1a2 2 0 0 1-1.03-.09z"></path><path class="cls-14" d="M103.25 179.71a2 2 0 0 0 .67 1.36c.35.4.87.67 1 1.24a.44.44 0 0 0 .13.23c.94.49 1.52 1.48 2.52 1.87.55.21.86.69 1.4 1a25.9 25.9 0 0 0 3.34 1.25 4.82 4.82 0 0 0 2.73.57.94.94 0 0 1 .64.2 1.3 1.3 0 0 0 1.05.16 2.29 2.29 0 0 1 1.82.38 7.93 7.93 0 0 1-1.67.38c0-.25-.23-.24-.42-.24a5.18 5.18 0 0 1-1.25 0c-1.28-.33-2.54-.72-3.8-1.1a12 12 0 0 1-2.28-1 18.61 18.61 0 0 0-2.24-1.33 3.74 3.74 0 0 1-1.41-1 12.81 12.81 0 0 1-1.07-1.25c-.15-.22-.62-.05-.59-.37s-.33-.61-.54-.88-.62-.64-.62-1.13a.23.23 0 0 0 .27-.24z"></path><path class="cls-15" d="M133.14 123.93a28.27 28.27 0 0 1 3.3-1.42 2.79 2.79 0 0 0 .85-.26l2.22-.29h1.68a12.3 12.3 0 0 1 4.51 1.67A2.92 2.92 0 0 1 147 125l-1.55-.26.18-.1c-.57-.47-.93-1.2-1.76-1.34s-1.77-.45-2.67-.63c-.7-.13-1.38 0-2.06-.15-1-.17-2 .45-3 .7-.68.18-1.23.69-2 .67-.29 0-.47.25-.57.53a1.37 1.37 0 0 1-.43-.49z"></path><path class="cls-14" d="M133.65 124.46c.1-.28.28-.53.57-.53.76 0 1.31-.49 2-.67 1-.25 1.93-.87 3-.7.68.11 1.36 0 2.06.15.9.18 1.77.48 2.67.63s1.19.87 1.76 1.34l-.18.1h-.54v-.13c-.73-.06-1.25-.59-1.89-.82a8.06 8.06 0 0 1-1.36-.58 2.84 2.84 0 0 0-2.09 0 3.65 3.65 0 0 1-1.07.19 7 7 0 0 0-4 1.23c-.07 0-.29.11-.17.31-.21.17-.36.13-.45-.13s-.06-.29-.24-.29z"></path><path class="cls-15" d="M115 143.3a55.48 55.48 0 0 1 5.56-8c.25-.3.53-.58.8-.86v.66c-.15 0-.21.12-.25.28a4.37 4.37 0 0 1-.79 1.42c-.72.94-1.72 1.67-2.13 2.83-.26.71-.89 1.08-1.37 1.56s-.32 1.61-1.22 1.92l.09.11a.87.87 0 0 1-.69.08z"></path><path class="cls-14" d="M115.68 143.19l-.09-.11c.9-.31.67-1.34 1.22-1.92s1.11-.85 1.37-1.56c.41-1.16 1.41-1.89 2.13-2.83a4.37 4.37 0 0 0 .79-1.42c0-.16.1-.25.25-.28v.28a.65.65 0 0 0-.08.59 4.24 4.24 0 0 1-.14 1.37c0-.21-.19-.31-.31-.42a19.81 19.81 0 0 1-1.88 2.28c-.37.34-.41.78-.67 1.14a7.66 7.66 0 0 0-1.21 1.71c-.08.24-.2.41 0 .6-.44.2-.81.63-1.38.57z"></path><path class="cls-15" d="M149.87 152.2a4 4 0 0 0 .88-.28 2.33 2.33 0 0 1 2.57-.16 4.47 4.47 0 0 0 1.19.27 8 8 0 0 0-1.2 1.19.24.24 0 0 1-.3.09c-1.01-.46-2.1-.53-3.14-1.11z"></path><path class="cls-13" d="M178.29 145.68a14.16 14.16 0 0 0-2.5 1.23c-.29.19-.38.11-.46-.19a6.05 6.05 0 0 0-1-1.87c1.39.35 2.67.58 3.96.83z"></path><path class="cls-15" d="M117.38 180.11a8.81 8.81 0 0 1-2.39-.41 1.75 1.75 0 0 1 2.39.41zM110.42 152.71c.63-.18.45-.81.67-1.21a5.46 5.46 0 0 1 .74 1.71l-1.39-.41h-.06z"></path><path class="cls-14" d="M100.32 180.25a.39.39 0 0 1-.15-.41h2.52v.16a7.48 7.48 0 0 0-.82 0c-.52 0-1.1-.21-1.55.25z"></path><path class="cls-15" d="M121.26 135.94a.65.65 0 0 1 .08-.59.76.76 0 0 1-.08.59zM102.7 180v-.17a.25.25 0 0 1 .28-.07.23.23 0 0 1-.28.24z"></path><path class="cls-14" d="M134.64 124.86c.16-.16.37-.1.56-.08a.9.9 0 0 1-.56.08z"></path><path class="cls-15" d="M133.67 124.48c.18 0 .25.11.24.29a.41.41 0 0 1-.24-.29zM147 125l.09.08z"></path><path class="cls-13" d="M159.61 122.64a2.45 2.45 0 0 0 0 .27c0 1-.29 1.22-1.29 1-.47-.1-.37-.46-.38-.77a.65.65 0 0 1 .16-.37c.16-.25.23-.55 0-.75s-.39.18-.55.33c-.36-1.57-1.43-2.63-2.28-3.84a7.16 7.16 0 0 0-1.9-2.05 17.63 17.63 0 0 0-3.06-2.06 5.71 5.71 0 0 1-1.43-.94c-.55-.47-1.21-.34-1.78-.64a12.12 12.12 0 0 0-1.74-.69v-.2h3.93a3 3 0 0 0 1.94.53 10.34 10.34 0 0 1 4.3 2.57 14.27 14.27 0 0 1 4.08 7.61z"></path><path class="cls-6" d="M123.89 117.5c-.32-.06-.51.19-.75.3s-.26.13-.36 0a.34.34 0 0 1-.07-.32 2.36 2.36 0 0 1 1.65-.68c.15.09.07.3.09.46-.21 0-.5-.09-.55.28z"></path><path class="cls-14" d="M151.21 112.49a3 3 0 0 1-1.94-.53 6 6 0 0 1 1.94.53z"></path><path class="cls-13" d="M100.32 180.25c.45-.46 1-.22 1.55-.27a7.48 7.48 0 0 1 .82 0c0 .49.36.78.62 1.13s.57.42.54.88.44.15.59.37a12.81 12.81 0 0 0 1.07 1.25 3.74 3.74 0 0 0 1.41 1 18.61 18.61 0 0 1 2.24 1.33 12 12 0 0 0 2.28 1c1.26.38 2.52.77 3.8 1.1a5.18 5.18 0 0 0 1.25 0c.19 0 .38 0 .42.24a16.2 16.2 0 0 1-10.38-1.1 11.91 11.91 0 0 1-6.21-6.93z"></path><path class="cls-6" d="M224 187.51c-.3 0-.27-.26-.28-.46s0-.34-.19-.28-.35.2-.34-.14a.43.43 0 0 1 .33-.4c.23-.08.4.15.43.33a5 5 0 0 1 .05.95zM221.23 189.18a.7.7 0 0 1-.62-.2c-.12-.14-.28-.28-.17-.47s.25.08.38.08c.42 0 .79 0 .41.59z"></path><path class="cls-6" d="M224 187.51c.21.09.3-.38.52-.12s0 .31-.07.45c-.25.39-.6.16-.93.23 0-.39.53-.21.48-.56zM221.23 189.18c.23 0 .55-.09.54.32a.21.21 0 0 1-.22.22c-.41 0-.29-.31-.32-.54zM223.22 189.3a1.71 1.71 0 0 1-1 .11c.29-.27.29-.27 1-.11z"></path><path class="cls-3" d="M197 186a2.58 2.58 0 0 1 2.48-1.21 2.1 2.1 0 0 1 1.85 1c.35.62.66 1.32 0 2-.08.07 0 .13 0 .22a1.05 1.05 0 0 1-.57 1.68 2.81 2.81 0 0 1-3.08-.22 2.71 2.71 0 0 1-.81-2.85c0-.2.11-.4.17-.6zm3.7 2H199c-.15 0-.35-.07-.42.12s.07.36.2.48a.91.91 0 0 0 1 .15 2.67 2.67 0 0 0 .92-.75zm-2.15-1.14h1.18c.29 0 .31-.12.18-.34a.69.69 0 0 0-.69-.36.66.66 0 0 0-.67.65z"></path><path class="cls-1" d="M124 167.68a10.69 10.69 0 0 1 1.77-5.65 3 3 0 0 1 1.78-1.25c.47-.15.77 0 .69.59a13.16 13.16 0 0 1-.63 2.62 29.1 29.1 0 0 1-1.71 3.56 2.09 2.09 0 0 1-.3.47c-.35.46-.76 1.15-1.3 1s-.13-.95-.3-1.34z"></path><path class="cls-2" d="M128.35 116.11a4.92 4.92 0 0 1 2.1-1.12l.08.1c-.73.34-1.27 1.09-2.18 1.02zM131 114.71a.82.82 0 0 1 .7-.28c-.09.45-.45.22-.7.28zM132.67 114.15a.5.5 0 0 1 .56-.28c-.04.38-.34.26-.56.28zM132.12 114.29c.1-.16.26-.13.42-.14-.06.3-.19.37-.42.14z"></path><path class="cls-1" d="M146.9 168.66a2.06 2.06 0 0 1-2.51 1.8 1.22 1.22 0 0 1-.48-1.62 3.72 3.72 0 0 1 1.72-1.65.63.63 0 0 1 .85.25 2.27 2.27 0 0 1 .42 1.22zM103.85 170.49a1 1 0 0 1-1.1-1.27 3.17 3.17 0 0 1 1.9-2.06c.32-.16.62 0 .83.34a1.78 1.78 0 0 1-.93 2.83c-.26.08-.55.12-.7.16zM210.84 170.49a1 1 0 0 1-1.12-1.23 3.46 3.46 0 0 1 1.93-2.12.7.7 0 0 1 .73.28 1.76 1.76 0 0 1-.76 2.86 7.44 7.44 0 0 1-.78.21z"></path><path class="cls-3" d="M141.19 122h-1.68c-.18-.46-.55-.3-.81-.19a2.38 2.38 0 0 1-1.14.2 5.68 5.68 0 0 0 1.13-2.31v-.12c.87-.15.79-1.11 1.31-1.55.07-.06.19-.13.19-.19 0-1 .94-1.66 1.23-2.57a.52.52 0 0 1 .42-.4.26.26 0 0 0 .23-.3.23.23 0 0 0-.32-.18c-.44.2-.59-.33-1-.32a8.16 8.16 0 0 1 2.1-.51c-.45-.37-1.12-.22-1.46-.74a12.84 12.84 0 0 1 4.11.82c.3.12.61.19.9.29-1 .51-1 1.67-1.66 2.43-1 1.33-1.54 3-2.7 4.25a.35.35 0 0 0-.09.26c.07.55-.06.94-.73.92.05-.04.01.11-.03.21z"></path><path class="cls-11" d="M153.19 118a.22.22 0 0 1 .16.28c-.16.01-.17-.11-.16-.28z"></path><path class="cls-3" d="M137.29 122.25a2.79 2.79 0 0 1-.85.26c-.09-.26-.41-.62.24-.55.09 0 .19 0 .23-.11s-.35-.44.12-.42.21.34.25.55z"></path><path class="cls-11" d="M137.29 122.25V122h.28a2.38 2.38 0 0 0 1.14-.2c.26-.11.63-.27.81.19z"></path><path class="cls-3" d="M140.26 114.55c-.23.21-.44.17-.79.06a.67.67 0 0 1 .79-.06zM140.63 112.74h.55c0 .2-.13.27-.32.26s-.22-.11-.23-.26z"></path><path class="cls-6" d="M134.63 113.46c.1-.17.26-.14.42-.14-.05.29-.19.36-.42.14z"></path><path class="cls-3" d="M140.35 112.62a.29.29 0 0 1 .07.12h-.64c.16-.18.37-.11.57-.12z"></path><path class="cls-2" d="M123.89 117.5c0-.37.34-.25.55-.28-.04.38-.33.25-.55.28z"></path><path class="cls-12" d="M121.56 180.72s-.08.08-.1.08-.18 0-.24-.06.08-.06.12-.06a1.15 1.15 0 0 1 .22.04zM153.46 123.92c-.18 0-.34.21-.51 0a.15.15 0 0 1 .06-.23c.22-.11.4-.07.45.22z"></path></svg> 