<?xml version="1.0" encoding="UTF-8"?> <svg xmlns="http://www.w3.org/2000/svg" id="Layer_1" data-name="Layer 1" viewBox="0 0 300 300"><defs><style>.cls-1{fill-rule:evenodd}</style></defs><path class="cls-1" d="M230.69 178.13v-40.26l9.19.06V143.25c.51-2.12 3.9-5.72 10.16-6.17v9.67c-4.58.29-9.6 1.64-9.76 8.59v22.79zM122.74 179a20.88 20.88 0 1 1 20.88-20.88A20.9 20.9 0 0 1 122.74 179zm.32-32.6a11.73 11.73 0 1 0 11.72 11.72 11.74 11.74 0 0 0-11.72-11.75zM167.26 179c-4.83-.08-8.1-1.12-11.45-4.32h.07l-.23 3.54h-8.78v-47.73l9.53-9.5v20.43-.06a16.11 16.11 0 0 1 11.07-4.13h.1c10.54 0 19.45 9.56 19.45 20.88a21.1 21.1 0 0 1-6.11 14.74 19.33 19.33 0 0 1-13.45 6.15zm-1.13-32.61a11.72 11.72 0 0 0-9.63 5l-.1.14v13.09l.1.14a11.72 11.72 0 1 0 9.63-18.41z"></path><path d="M203.24 178.68c-8.64 0-14.68-5.13-14.68-12.48 0-8.3 6.46-12.68 18.68-12.68H216V152c0-3.5-3.17-7.11-8.49-7.11-3.81 0-7.12 1.14-9 3.06l-5.16-5.15a15.69 15.69 0 0 1 2-1.75 20.78 20.78 0 0 1 12.59-3.83c10.55 0 17.37 5.8 17.37 14.78v26.17h-9.1v-3.86l-.92.92c-3.19 3.21-6.84 3.45-12.05 3.45zm4.24-18.29c-6.07 0-9.15 1.86-9.15 5.55 0 3.2 2.76 5.27 7 5.27 6.49 0 10.69-3.4 10.69-8.66v-2.16zM50.6 137.92h9.34v40.26H50.6z"></path><path class="cls-1" d="M55.22 132.56a5.22 5.22 0 1 1 5.21-5.22 5.22 5.22 0 0 1-5.21 5.22z"></path><path d="M69 166.84c3.82 2.86 7.72 4.13 13.23 4.13 6.26 0 9.09-1.87 9.09-4.62 0-2.91-2.76-4.17-10.36-4.84-10-.9-16.61-3.73-16.61-12.22 0-7.3 7.08-12.06 16.84-12.06a27.21 27.21 0 0 1 17.43 6.18l.15.15-5.52 5.65a20.07 20.07 0 0 0-12.51-3.94c-5.07 0-7.82 1.49-7.82 3.72 0 2.39 2.23 3.58 9 4.25 10.43 1 18 4.39 18 13 0 8.12-7.6 12.81-17.8 12.81-7.37 0-13.26-1.79-18.62-6.26a.93.93 0 0 1-.14-.14z"></path></svg> 