<?xml version="1.0" encoding="UTF-8"?> <svg xmlns="http://www.w3.org/2000/svg" id="Layer_1" data-name="Layer 1" viewBox="0 0 300 300"><defs><style>.cls-1{fill:#a60056}</style></defs><path class="cls-1" d="M148.76 134.25a12.55 12.55 0 0 1 3.89-9.7c2.59-2.38 6.15-3.58 10.63-3.58H177v5.36h-6.73a16.36 16.36 0 0 1 2.73 4.77 12.57 12.57 0 0 1 .75 4.3 13 13 0 0 1-1.47 5.91 11.56 11.56 0 0 1-3.82 4.44c-1.56 1-4.11 1.86-7.66 2.47-2.45.39-3.69 1.38-3.69 3a2.51 2.51 0 0 0 1.39 2.18 19.66 19.66 0 0 0 5 1.79 48.3 48.3 0 0 1 7.85 2.42 10.51 10.51 0 0 1 3.19 2.51A10.25 10.25 0 0 1 177 167a10.49 10.49 0 0 1-4.23 8.74c-2.8 2.18-6.57 3.26-11.28 3.26s-8.56-1.09-11.39-3.28a10.5 10.5 0 0 1-4.26-8.78c0-5.24 2.8-8.59 8.39-10.1-2.22-1.64-3.34-3.27-3.34-4.89a4.83 4.83 0 0 1 1.42-3.37 8.47 8.47 0 0 1 3.85-2.19c-4.91-2.51-7.37-6.55-7.37-12.17M159.88 161a9 9 0 0 0-5.7 1.71 5.3 5.3 0 0 0-2.22 4.39c0 4.16 3.24 6.21 9.7 6.21a13.45 13.45 0 0 0 7.11-1.55 4.88 4.88 0 0 0 2.53-4.41c0-1.87-1.06-3.4-3.18-4.57a16.88 16.88 0 0 0-8.24-1.78m1.22-34.09a6.39 6.39 0 0 0-4.95 2.31 8.6 8.6 0 0 0-2 5.7 7.36 7.36 0 0 0 2 5.3 7.08 7.08 0 0 0 10.13 0 7.56 7.56 0 0 0 2-5.37 8.28 8.28 0 0 0-2-5.69 6.62 6.62 0 0 0-5.1-2.22"></path><path class="cls-1" d="M149.13 144.6l-15-22.94a1 1 0 0 0-.83-.43h-5.47a1 1 0 0 0-.71.43l-12 18.33-12-18.33a1 1 0 0 0-.82-.43h-5.47a1 1 0 0 0-.71.43L84.16 140l-12-18.32a1 1 0 0 0-.83-.43h-5.45a1 1 0 0 0-.71.43l-15 22.94a1 1 0 0 0 .27 1.39h5.31a.9.9 0 0 0 .87-.43l12.05-18.38 12.06 18.38a.91.91 0 0 0 .62.39l.07.07h5.48l.06-.07a.91.91 0 0 0 .62-.39l12-18.38 12.06 18.38a.94.94 0 0 0 .63.41l.06.05H117.8l.08-.05a1 1 0 0 0 .64-.41l12.05-18.38 12.07 18.38a.86.86 0 0 0 .86.43h5.31a1 1 0 0 0 .27-1.39"></path><path class="cls-1" d="M121 146a.53.53 0 0 1-.54-.57l1.68-2.57a.64.64 0 0 1 .48-.3h16.22a.61.61 0 0 1 .49.3l1.68 2.56a.57.57 0 0 1-.57.58H121M249.83 144.6l-15-23a1 1 0 0 0-.83-.43h-5.48a1 1 0 0 0-.71.43l-15 23a1 1 0 0 0 .27 1.36h5.31a1 1 0 0 0 .86-.43l12.06-18.4 12 18.4a1.07 1.07 0 0 0 .88.43h5.31a1 1 0 0 0 .26-1.36M203.23 145.75a.83.83 0 0 0 .56.22h5.89a1 1 0 0 0 1-1V122a1 1 0 0 0-1-1h-3.93a1 1 0 0 0-1 1v17.28l-21.65-18.06a.86.86 0 0 0-.65-.22h-5.84a1 1 0 0 0-1 1v23a1 1 0 0 0 1 1h3.93a1 1 0 0 0 1-1v-17.33l21.67 18.08"></path><path class="cls-1" d="M221.59 146.12a.56.56 0 0 1-.55-.58l1.69-2.57a.54.54 0 0 1 .49-.29h16.21a.56.56 0 0 1 .49.29l1.68 2.56a.58.58 0 0 1-.58.59h-19.43"></path></svg> 