<?xml version="1.0" encoding="UTF-8"?> <svg xmlns="http://www.w3.org/2000/svg" id="Layer_1" data-name="Layer 1" viewBox="0 0 300 300"><defs><style>.cls-1{fill:#014053}</style></defs><path class="cls-1" d="M37.5 109.73v18.39l9.77-4.76v-10.38l-9.77-3.25zM58.52 100.43v17.09l9.08-3.68v-10.16l-9.08-3.25zM161.86 153.26v5.39h11.24v7.16h-11.24V177h-8.76v-30.9h22.79v7.16zM202.42 149.82q3.74 4.2 3.73 11.73t-3.73 11.73q-3.73 4.2-10.39 4.19a14.74 14.74 0 01-7.58-1.87 12.27 12.27 0 01-4.91-5.48 22.21 22.21 0 010-17.14 12.27 12.27 0 014.91-5.48 14.84 14.84 0 017.58-1.87q6.66 0 10.39 4.19zm-14.3 5.25q-1.27 2.13-1.28 6.48c0 2.9.43 5.07 1.28 6.49a4.27 4.27 0 003.91 2.13 4.22 4.22 0 003.89-2.11q1.26-2.1 1.26-6.51t-1.26-6.55a4.65 4.65 0 00-7.8 0zM223.79 166.28h-3.56V177h-8.58v-30.9h14.5q5.41 0 8.25 2.57c1.88 1.72 2.83 4.23 2.83 7.54q0 6.75-5.28 9l6.91 11.79h-9.57zm-3.56-6.51h4.25a4.74 4.74 0 003.05-.77 3.21 3.21 0 00.9-2.55 3.25 3.25 0 00-.92-2.58 4.64 4.64 0 00-3-.79h-4.25zM262.5 153.26H256V177h-8.76v-23.74h-6.49v-7.16h21.75zM133.78 109.73V127l-13.19-5 .21-17-12.76-5v17.48l-12.54-4.94V95L83 90.41v119.18l62.5-21.14v-74.18zM103 177h-8.73v-30.9H103zm31.51 0h-9.62l-7.73-15.31-1.8-4.21h-.08l.17 6.13V177h-7.64v-30.9h9.57l7.72 15.31 1.85 4.22-.17-6.14V146.1h7.69z"></path></svg> 