<?xml version="1.0" encoding="UTF-8"?> <svg xmlns="http://www.w3.org/2000/svg" id="Layer_1" data-name="Layer 1" viewBox="0 0 300 300"><defs><style>.cls-1{fill:#004089}</style></defs><path class="cls-1" d="M60.33 130.43L50 171.46h7.24l5.88-22.01 2.73-10.3-5.52-8.72zM91.14 128.54A72.41 72.41 0 0 0 81.32 139c-4.12 5.59-6.94 13.65-6.94 13.65l-7.12-11.27-2.93 10.42 10 19.5s1.52-10.71 18.69-32.8zM104.89 129.36h21.45v4.28h-16.85v12.3h16.36v4.28h-16.36v16.24h16.85v4.28h-21.45zM152.3 170.74h-4.61v-37.1h-14v-4.28h33.68v4.28H152.3zM178.1 170.74H173v-41.38h6.58a40.54 40.54 0 0 1 6.25.47 16.32 16.32 0 0 1 5.32 1.73 9.92 9.92 0 0 1 3.71 3.48 12.06 12.06 0 0 1-1.66 13.64 12.79 12.79 0 0 1-8.36 3.51l14.49 18.55h-6.22l-13.77-18.16h-1.24zm0-22.22h1.57a36.38 36.38 0 0 0 4.22-.25 11.53 11.53 0 0 0 3.68-1 6.62 6.62 0 0 0 2.63-2.27 6.77 6.77 0 0 0 1-3.87 7.45 7.45 0 0 0-1-4 6 6 0 0 0-2.57-2.25 11.75 11.75 0 0 0-3.68-1 43.66 43.66 0 0 0-4.38-.22h-1.5zM228.43 128.65a21.24 21.24 0 0 1 8.37 1.67 21.74 21.74 0 0 1 6.86 4.61 22.13 22.13 0 0 1 4.64 6.84 21.31 21.31 0 0 1 0 16.68 21.41 21.41 0 0 1-4.64 6.78 21.92 21.92 0 0 1-6.86 4.55 21.69 21.69 0 0 1-16.74 0 22 22 0 0 1-6.86-4.55 21.41 21.41 0 0 1-4.64-6.78 21.31 21.31 0 0 1 0-16.68 22.13 22.13 0 0 1 4.64-6.84 21.85 21.85 0 0 1 6.86-4.61 21.24 21.24 0 0 1 8.37-1.67zm0 4.28a16.65 16.65 0 0 0-12 5 17.53 17.53 0 0 0-3.6 5.46 16.92 16.92 0 0 0-1.32 6.64 16.76 16.76 0 0 0 1.32 6.62 17.18 17.18 0 0 0 9 9.13 16.63 16.63 0 0 0 13.22 0 17.18 17.18 0 0 0 9-9.13 16.76 16.76 0 0 0 1.32-6.62 16.92 16.92 0 0 0-1.32-6.64 17.5 17.5 0 0 0-3.59-5.46 16.88 16.88 0 0 0-5.38-3.68 16.7 16.7 0 0 0-6.65-1.32zM94.17 144.09l-6.38 7.75 3.73 19.62h7.97l-5.32-27.37z"></path><path d="M67.29 150.9l2-6.34 6.8 10.74s7.14-16.21 15.91-22.51c.68 3.54 1.31 6.69 1.31 6.69s-13.55 16.23-17.39 27c-3.8-6.95-8.63-15.58-8.63-15.58z" fill="#e31d20"></path></svg> 