<?xml version="1.0" encoding="UTF-8"?> <svg xmlns="http://www.w3.org/2000/svg" id="Layer_1" data-name="Layer 1" viewBox="0 0 300 300"><defs><style>.cls-1{fill:#fefefe}.cls-2{fill:#ec1d25}.cls-3{fill:#a9aaae}</style></defs><path class="cls-1" d="M95.43 143.69A45.5 45.5 0 0 0 97 155.88c3.51 13 11.09 22.8 23.18 28.89 8.07 4.07 16.74 5.29 25.69 4.82a65.92 65.92 0 0 0 19.69-4.1c15.41-5.76 27.17-15.5 33.77-30.92 4.23-9.88 6.37-20 4.67-30.8A39.43 39.43 0 0 0 193.3 102c-9.4-9.68-21.16-13.94-34.42-14.49a56.19 56.19 0 0 0-12.61 1 66.38 66.38 0 0 0-31.77 15c-12.26 10.6-18.65 23.99-19.07 40.18zm43.12 53.06c-.69.32-.27 1.6-1.64 1.51-1.19-.09-1.49-.57-1.57-1.67-.37.49-.76.74-.63 1.26 0 .23-.07.33-.3.32h-2.7c.23-.6.45-1 .58-1.5a1 1 0 0 0-.53-1.32 1.48 1.48 0 0 0-1.77.26c-.33.43-1 1.21.09 1.75a.58.58 0 0 1 .32.69c-.12.26-.44.1-.67.12s-.68 0-1 0c-1.06.17-1.7-.15-1.71-1.32l-.14-.16c-.15.39-.67.56-.51 1.1s-.2.37-.44.37h-11.42c-.38 0-.54-.13-.59-.52-.11-.86-.27-1.71-.45-2.81a8.69 8.69 0 0 1-2 2.31c-.49.38-.4 1.18-.56 1.8 0 .07.12.27.18.27.7 0 1.43.66 2.14-.22 0 .79.43.83 1 .81h10.58c1.08 0 2.16-.12 3.24 0a6.26 6.26 0 0 0 2.37-.08c.82-.25 1.48.21 2.26.14a43.82 43.82 0 0 1 4.44 0c.65 0 1.3-.09 2 0 1.77.12 3.56 0 5.34 0 .27 0 .57.06.69-.29a5.33 5.33 0 0 0 .54-2.21 2 2 0 0 0-1.06-1.53c-.46-.27-.79.13-1.15.34s-.79.93-1.07.66-.23-1.13-.15-1.72c0-.14.17-.26.22-.4.16-.44.31-.88-.34-1.1a2.91 2.91 0 0 1-.62-.43c-.1.4-.48.7-.33 1.06.41 1 .19 2.05.38 3.07.12.62-.24.88-.83.92-1.54.1-1.54.11-2.07-1.35a.21.21 0 0 0-.12-.13zm45.26-.15c-.27.37-.62.65-.59.86.15.91-.46.71-.94.71h-5.61c-.76 0-.93-.24-.9-.94v-4.25c-.49.72-.95 1.1-.94 1.8v4.13c0 .66.26.89.86.88h1.75c1.5 0 3 .08 4.51 0 1.12-.09 2.23.05 3.35 0 .24 0 .63 0 .69-.1.43-.9.9-.3 1.35-.07a7 7 0 0 1 .71.42c.24.16.4.22.58-.1a3.76 3.76 0 0 0-.06-3.91c-.36-.61-.76-.56-1.12 0a6.54 6.54 0 0 0-.79 1.34c-.42 1.18-1.37.81-2.16.79s-.4-.76-.61-1.14a3.42 3.42 0 0 1-.08-.42zm-30.62 4.4c.31.54.43 1.24 1.05 1.26s.75-.71 1-1.18a1.69 1.69 0 0 0 .2-.51c.09-.6.41-.77 1-.75 1.53.05 3.07 0 4.6 0s2.94-.29 4.41 0c.28.05.68.16.87-.11.31-.43.4-.14.7 0s1.21.43 1.45-.18a3.59 3.59 0 0 0 .06-3.47 1.53 1.53 0 0 0-.29 2.06c-.61.07-.61.07-1.76-2-.24.39-.57.69-.38 1.23.27.81.09.94-.76.85-.38 0-.45-.27-.54-.53l-.55-1.63c-.4.49-.71.88-.41 1.45s.07.71-.52.7c-2.11 0-4.23-.05-6.35 0-.9 0-1.55-.1-1.69-1.12h-.19c-.21.39-.61.64-.29 1.26.74 1.38.09 2.46-1.61 2.67zm18.58 6.75h.22c.17.85.33 1.7.49 2.55.06.36.15.63.62.62s.7-.06.82-.53c.36-1.47.74-2.94 1.11-4.41-.78-.27-1.13 0-1.24.77a6.4 6.4 0 0 1-.56 2.24 11.66 11.66 0 0 1-.57-2.54c-.06-.38-.21-.59-.65-.56s-.65 0-.75.54a11.17 11.17 0 0 1-.73 2.8l-.25-1.11c-.12-.62-.25-1.25-.36-1.88s-.59-.31-.88-.32-.22.33-.18.53c.31 1.31.64 2.61.92 3.93.1.48.35.54.76.54s.6-.14.67-.56c.16-.92.37-1.78.56-2.64zm-56.73 1h-.17c-.48-.85-1-1.68-1.43-2.54-.31-.63-.84-.4-1.28-.37s-.24.48-.25.74v3.67c0 .37.08.56.5.57s.47-.24.47-.58v-2.75c.32 0 .35.19.42.31.46.83.94 1.65 1.34 2.5a.88.88 0 0 0 1 .51c.57-.07.31-.52.31-.79v-3.67c0-.37 0-.56-.48-.56s-.5.19-.49.56c.07.83.02 1.65.02 2.4zm23.36-.54v1.1c0 1.7 0 1.7 1.73 1.55a2.53 2.53 0 0 0 2.52-1.77c.56-1.94-.48-3.21-2.72-3.33-1.42-.08-1.53 0-1.53 1.44zm27.25 2.36c-.07 1-.3 1.13-1.47.9-.27-.05-.49-.13-.54.24 0 .21-.08.4.18.55a2 2 0 0 0 3-1.55c.06-.83 0-1.65 0-2.48 0-1 0-1-.95-.77-.2 0-.26-.1-.39-.16a1.45 1.45 0 0 0-2 .79 2 2 0 0 0 .21 2.17c.51.68 1.24.52 1.96.31zm-17.09-14c-.11.48-.25.94-.33 1.42a1.36 1.36 0 0 0 1.48 1.78h2.66c.28 0 .6 0 .69-.31.35-1.16.77-2.33 0-3.54-.23.42-.73.85-.55 1.22.65 1.33-.33 1-.94 1h-1.1c-1.64.03-1.64.03-1.91-1.53zm5.35 12v-2.6c0-.33-.08-.5-.46-.48s-.57 0-.56.48v4.41c0 .31.11.42.43.44.51 0 .63-.18.6-.63 0-.29-.1-.69.29-.77s.36.3.44.5a1.28 1.28 0 0 0 1.8.8c-.41-.6-.86-1.14-1.2-1.75-.49-.9.88-1 .81-1.74-1.23-.51-1.38.77-2.15 1.38zm-5.42.41v1.1c0 .36-.15.74.48.75s.52-.43.53-.79 0-.86 0-1.29.23-.81.72-.79.54.42.54.82v1.56c0 .56.26.47.6.48s.52-.07.5-.45v-2.12a1.21 1.21 0 0 0-1.74-1c-.36.15-.57.37-1 0-.25-.23-.7-.09-.64.49a11.1 11.1 0 0 1 .01 1.26zm-21.43.09v-1.38c0-.46-.06-.55-.49-.55s-.57.18-.55.59a11.6 11.6 0 0 1 0 1.56c0 .4-.24.72-.69.68s-.54-.33-.54-.71v-1.56c0-.51-.22-.54-.62-.56s-.51.17-.5.54v1.93a1.21 1.21 0 0 0 1.82 1.09c.32-.15.49-.22.83 0s.79.18.72-.48a11.83 11.83 0 0 1 .02-1.11zm-7 .33c0-2-.67-2.64-2.3-2.23-.24.06-.66 0-.54.53s.43.2.64.17c.39-.06.93-.2 1 .26s-.5.18-.75.34a.84.84 0 0 1-.17.05c-.85.25-1.24.83-1 1.55s.82.91 1.64.65a1 1 0 0 1 .76 0c.54.23.87.05.76-.62a4.45 4.45 0 0 1-.1-.66zm58.35 0c0-2-.55-2.6-2.19-2.29-.27.05-.76 0-.69.49s.52.24.78.21.87-.11.93.3-.46.19-.7.29-.29.09-.43.14a1.13 1.13 0 0 0-.84 1.5c.24.78.87.87 1.57.68.22-.06.4-.23.68-.08.74.39 1 .06.9-.69a5 5 0 0 1-.05-.47zM159 209v1.28c0 .42.22.55.62.56s.51-.18.5-.55v-1.56c0-.56.2-.74.62-.75s.63.33.63.74v1.66c0 .36.14.48.49.46s.57 0 .56-.4c0-.77 0-1.54-.07-2.29a1.08 1.08 0 0 0-1.39-1c-.5.09-.94.4-1.49 0-.26-.17-.5 0-.47.42s0 .99 0 1.43zm-25.22.44V209a1.7 1.7 0 0 0-2.58-1.72c-.2.08-.44.11-.31.43s.19.36.47.25a1.51 1.51 0 0 1 .63-.12c.27 0 .63 0 .64.38s-.37.19-.58.25a4.58 4.58 0 0 0-.53.14c-.8.29-1.12.85-.89 1.55s.9.87 1.69.59c.16-.07.26-.3.54-.1.64.45 1 .29.92-.55.01-.21.03-.42.03-.64zm50.35.65c-.46 0-1.15.09-1.16-.52 0-.44.66-.12 1-.21h.09c1.14 0 1.42-.5.84-1.51a1.45 1.45 0 0 0-1.38-.73 1.62 1.62 0 0 0-1.51.88 2 2 0 0 0 0 2.09 2 2 0 0 0 2.13.74c.27 0 .74.05.72-.44s-.37-.32-.7-.28zm-11.35-10.3c.29-.08.7.18.95-.26a2.94 2.94 0 0 0-.83-3.85c-.5-.39-.8-.35-1 .28a14.07 14.07 0 0 0-.49 2.32c-.08 1.23.16 1.52 1.4 1.53zm-50.52 11.07c.25 0 .59.09.65-.32s0-.49-.42-.63c-.66-.23-.24-.9-.33-1.37-.06-.32 0-.63.45-.6s.32-.18.32-.41 0-.38-.3-.35c-.44.05-.51-.19-.48-.55 0-.14 0-.36-.18-.34s-.76.13-.76.2c0 .55-.94.9-.61 1.2.73.67.34 1.44.48 2.15a1.09 1.09 0 0 0 1.21 1.04zm58.28 0c.31 0 .65.08.72-.31a.45.45 0 0 0-.36-.61c-.79-.22-.38-.91-.47-1.4s.13-.63.57-.6c.25 0 .29-.15.29-.35s0-.45-.34-.41c-.49.06-.56-.22-.53-.61 0-.13 0-.27-.16-.29-.74-.13-.73.71-1.2.94-.23.11-.23.5-.12.56.85.45.4 1.23.47 1.86s.42 1.22 1.16 1.24zm-44.73-2.63v-2.29c0-.4-.21-.44-.52-.43s-.61-.05-.6.44v4.39c0 .43.23.49.58.5s.56-.09.54-.51c.01-.68.03-1.33.03-2.08zm-7.77.66v1.37c0 .45.22.63.65.57.68-.08.32-.6.37-.93.11-.73-.28-1.66 1-1.84.38-.05.22-.54.16-.79s-.36-.13-.56-.07-.31.39-.61.31c-1-.28-1-.28-1 .73zm57.85.08a1.34 1.34 0 0 0 0 .45c.21.47-.55 1.42.58 1.39s.43-.89.49-1.35c.09-.66 0-1.3.92-1.39.42 0 .24-.52.18-.77s-.39-.14-.6-.09-.31.42-.61.31c-1-.33-1-.33-1 .62zm-42.35 0v1.37c0 .45.25.52.63.54s.49-.21.48-.56 0-.73 0-1.1c0-.58.09-1 .79-1.08s.36-.68.28-.75c-.54-.47-1.21.38-1.85-.15-.25-.2-.32.21-.32.45V209zM157 209v1.28c0 .42 0 .59.47.57s.65-.06.64-.54v-2.57c0-.46-.2-.56-.61-.57s-.53.17-.5.54 0 .87 0 1.29zm-9.53 0v-1.38c0-.46-.13-.47-.48-.47s-.57.07-.56.5v2.67c0 .41.16.5.54.52s.52-.18.51-.55-.01-.83-.01-1.29zm-34.92-16.75c-.21 0-.28.19-.4.32s-.06.3 0 .48c.22.66.81.27 1.15.46s.41-.09.57-.22.07-.33 0-.54c-.22-.75-.98-.01-1.32-.47zm70.52 8.56c-.16.34-.61.39-.4.91s.76.31 1.15.43.39.07.56-.12.09-.38 0-.63c-.21-.75-.97.09-1.31-.56zm-47.07 1c-.05-1.11-.92-.64-1.4-.86-.25-.12-.53.3-.52.51.07 1 1 .51 1.49.79.16.14.43-.25.43-.39zm-8.73.54c.11-.33.57-.37.33-.89s-.81-.26-1.15-.44-.42 0-.57.18-.1.31 0 .54c.19.93 1.02.06 1.39.66zm40-8c-.08-1-.94-.59-1.44-.8-.27-.11-.53.32-.5.5.14.72.79.63 1.33.74s.47-.29.64-.43zm-.58-1.87c-.17-.31-.34-.68-.7-.76s-.46.31-.44.48a.93.93 0 0 0 .65.79c.27.07.36-.29.52-.5zm-19.21 13.69a.48.48 0 0 0-.51-.53c-.31 0-.55.12-.57.45a.48.48 0 0 0 .54.57.49.49 0 0 0 .57-.48zm-9.22-5.27a.57.57 0 0 0-.48.51.86.86 0 0 0 .61.8c.24.08.46-.28.46-.46.04-.38-.34-.57-.56-.84zm12.9 1.38c.08-.25.48-.36.34-.67s-.33-.66-.67-.67a.51.51 0 0 0-.39.61 1.31 1.31 0 0 0 .75.74zm6.92 3.82a.56.56 0 0 0-.59-.46c-.36 0-.57.22-.52.6s.3.43.61.41a.53.53 0 0 0 .53-.54z"></path><path class="cls-2" d="M95.43 143.69c.42-16.19 6.81-29.58 19.07-40.12a66.38 66.38 0 0 1 31.77-15 56.19 56.19 0 0 1 12.61-1c13.26.55 25 4.81 34.42 14.49a39.43 39.43 0 0 1 10.7 21.71c1.7 10.76-.44 20.92-4.67 30.8-6.6 15.42-18.36 25.16-33.77 30.92a65.92 65.92 0 0 1-19.69 4.1c-9 .47-17.62-.75-25.69-4.82-12.09-6.09-19.67-15.9-23.18-28.89a45.5 45.5 0 0 1-1.57-12.19zm15.65-32c-.07-.06-.14-.18-.24 0s.09.1.13.15.15.16.16.15c.16-.13.03-.2-.05-.28zM104.7 122v-.15h-.09l.12.09a.16.16 0 0 0 .19.18l.15.16v-.08l-.21-.07c.07-.13 0-.22-.16-.13zm91 6.62c0-.17-.06-.19-.19-.19 0-.21-.17-.21-.3-.27a3 3 0 0 0-1.72-.46c-.37 0-.93-.13-1 .34s.34.73.83.74c0 .17.08.17.18.19 0 .22-.15.22-.3.22s-.67-.12-.71.21.3.49.65.47c0 .24.24.13.37.19l-.39-.19c0-.38.23-.28.42-.26.64 0 1.28.13 1.92.17.25 0 .61.21.71-.16s.13-.68-.29-.84c-.02-.16-.05-.25-.21-.2zm-2.1 12.14l-.29-.18a1.41 1.41 0 0 0-.85-.48c-.46-.15-1-.35-1.37.08s.16.81.34 1.19l.39.21c-.09-.23-.19-.37-.4-.19.17-.3-.25-.81.34-1s.71.28.87.67l.12.12a.25.25 0 0 0 .19.3l.17.18c.37.38.83.8 1.3.37s0-.7-.36-.94a.34.34 0 0 0-.29-.24zm-6.68 8.8v.19h.19c-.2.17 0 .27.08.34a1.27 1.27 0 0 0 1 .37c.15 0 .16-.14.12-.27-.16-.46-.59-.2-.87-.32a3.58 3.58 0 0 0-.35-.11l-.15-.21-.14-.07s.03.1.09.04zm8.24-2.55c0 .15 0 .24.21.16.17.43-.38 1 .29 1.37a1 1 0 0 0-.31-1.35l-.2-.16a.17.17 0 0 0-.19-.19c-1.37-1.25-3.19-1.61-4.8-2.38-.14-.07-.39 0-.41.07 0 .3 0 .62.45.64a.18.18 0 0 0 .09.27c.22.07.05-.29.26-.26.4-.18.68.14 1 .26a35 35 0 0 0 3.42 1.39c-.12.17.03.17.16.17zm-83.61-29.43c0 .07 0 .16.13.09s0-.13 0-.2l-.25-.3a3.24 3.24 0 0 0-2.25-1.43c-1-.16-1.49.47-1.15 1.35a3.75 3.75 0 0 0 2.9 2.41c.49.1 1 0 1-.71-1.16.55-3.45-.57-3.71-1.78-.13-.64.22-.83.78-.79a4.37 4.37 0 0 1 2.28 1.08zM100.46 138c.05.1.11.2.22.07a1.44 1.44 0 0 0-.14-.15l-.14-.27c0-.24-.22-.72.24-.54 1.22.47 2.76.29 3.54 1.68.37-.87.38-1 0-1.05-.88-.07-1.75-.13-1.6-1.38 0-.07-.1-.15-.15-.22-.32.27 0 1-.59.9s-1.13-.06-1.34-.58a.81.81 0 0 1 .56-1c-.28 0-.58-.68-.75-.06a3.29 3.29 0 0 0-.18 2.25.46.46 0 0 0 .33.35zm-2.36 18.54v.13h.1l-.12-.08c-.08-.3-.07-.66-.58-.69.04.38.14.66.6.64zm6.24-30.17c0-.17 0-.22-.2-.17v-.36c0-.94.12-1 .93-.63l2.32 1.23c.26.21 0 .62.35.83.2-.31.57-.58.34-1s-.35.29-.58.07c-.45-.88-1.44-.95-2.17-1.4-.49-.3-1-.44-.58-1.19a.69.69 0 0 0-.1-.84c-.24.62-.47 1.23-.72 1.84a1.17 1.17 0 0 0 .24 1.42c0 .11.08.18.2.17.22.44.62.54 1.24.72a1.35 1.35 0 0 0-1.27-.69zm1.69 16l-.12-.09v.11h.13c0 .18 0 .35-.07.53-.07.54.12.85.29.56a.89.89 0 0 0-.26-1.13zm-4.45 12.56a1.15 1.15 0 0 0-1-.32c-.18 0-.42.09-.4.29s.11.54.49.37c-.08.2.1.15.18.19a2.37 2.37 0 0 0 1.92.31c.29-.05.64-.15.68-.51s-.25-.53-.6-.7c.07.31.31.53 0 .73s-.35.24-.58.12-.24-.38-.52-.29c.04-.18-.06-.2-.17-.21zm96.11-14.18a.16.16 0 0 0-.18-.19 5.27 5.27 0 0 0-2.6-1.22c-.39-.14-.52-.26-.46-.7.09-.7.3-1 1-.66.24.12.54.13.79.24.63.28.7-.09.63-.55-.05-.28-.06-.62-.48-.81.28 1-.18 1-.85.72-.28-.1-.6-.13-.88-.24-.94-.36-2.2-.19-2.58-1.66-.23.55-.56 1.27-.11 1.25.71 0 1 .56 1.67.59.81 0 .33.68.32 1.06 0 .54-.41.38-.74.31a5.61 5.61 0 0 0-1.86-.33c.27.34.24.71.56.93.19-.55.59-.32.91-.23 1.56.41 3.11.86 4.67 1.29 0 .16 0 .2.18.18a1.64 1.64 0 0 1 0 .54c-.07.25-.27.5.08.69a.26.26 0 0 0 .23 0 .66.66 0 0 0 .06-.76c-.05-.2-.12-.41-.36-.47zM194.94 114l.28.3c.25.47.27.76-.43.75a7.37 7.37 0 0 0-3.37.63c-.74.36-.79.75-.26 1.37.08 0 .21.07.22.05s0-.14-.1-.17c-.15-.72.39-.9.88-1a8.88 8.88 0 0 1 3.23-.42c.68 0 .72-.21.47-.72-.12-.24-.24-.49-.54-.57a.27.27 0 0 0-.39-.15c-.64-.47-1.26-.24-2 0 .76.44 1.38-.25 2.01-.07zm.54 19.16v-.13h-.11l.13.09c.08.74-.58.35-.88.57.45.08.9.62 1.3.08.19-.21-.02-.56-.44-.59zm-92.57 19.93c-1.18-.8-1.6.79-2.55.68a1.11 1.11 0 0 0 1.37-.2 1.34 1.34 0 0 1 1.17-.4 1.1 1.1 0 0 1 0 .35c0 .2-.18.42.11.54a.29.29 0 0 0 .23-.07.47.47 0 0 0 0-.59c-.02-.13-.12-.29-.33-.29zM192.79 111a1.41 1.41 0 0 0-1.15-.19 4.13 4.13 0 0 1-1.88-.1c-.1-.5.35-.41.59-.49.69-.22 1.4-.4 2.1-.61.14-.05.31-.17.23-.33a.86.86 0 0 0-.4-.35c-.28-.14-.23 0-.25.25s-.37.28-.58.35c-.58.18-1.18.31-1.76.49-.23.06-.59.1-.56.37s.37.33.65.31c-.06.23.61 0 .26.42s-.67.45-.41.87a1.16 1.16 0 0 0 1.18.49c-.31-.21-.89-.24-.6-.8s.65-.49 1-.1a.92.92 0 0 0 .24.13 1.46 1.46 0 0 0 1.27.26c.29 0 .67-.1.66-.48s-.25-.49-.59-.49zm-87.7 22l-.16-.21a3.09 3.09 0 0 0-1.79-.8.49.49 0 0 0-.57.35c0 .19 0 .43.14.49s.12-.3.34-.35a2.42 2.42 0 0 1 .89.05c.35.06.62.41 1 .24-.13.21 0 .2.16.21.22 1.87-1.1.15-1.5.72.56.33 1.16.86 1.82.34.45-.36-.06-.75-.33-1.04zm89.08.41h.14-.18c.38-.88.12-1.31-.86-1.24-.37 0-.78 0-1 .38s.14.64.38 1c0-.46 0-.86.5-.94a.52.52 0 0 1 .66.33 2.58 2.58 0 0 0 .36.46zm-92.95 13.2c0 .12.1.2.22.07h-.23c.54-.47 1.25-.16 1.89-.41a1 1 0 0 0-1-.29v-.14V145.96c-.56.44-1.31 0-2 .38a2.27 2.27 0 0 0 1.12.26zm0 11.78s0 .17.14.08l-.16-.07c.1-.44.48-.28.75-.32.51-.08 1-.1 1.55-.18.15 0 .42 0 .32-.29s-.29-.33-.44-.21c-.65.54-1.46.18-2.16.43-.19.07-.51 0-.53.22s.31.34.54.33zm-.42-16h.2-.22c0-.42.32-.43.66-.38.61.09 1.22.15 1.83.2.16 0 .42 0 .41-.21s-.26-.49-.42-.38c-.73.53-1.43 0-2.15 0-.2 0-.46-.1-.59.12s.18.48.29.68zm92.51.66l.05.23.14-.07c-.16 1-.27 1.08-1.12.59a7.37 7.37 0 0 0-1.84-.71c-.19 0-.39-.06-.41.21s.15.46.28.43c1-.23 1.71.46 2.52.78s.8-.1.8-.6a2 2 0 0 0-.25-.67l-.19-.18a3.38 3.38 0 0 0-2.18-1.35c-.21-.06-.43-.08-.57.13a.47.47 0 0 0 .06.52c.14.2.29.38.44.57l.14.08v-.11h-.13c-.13-.78.2-.88.83-.58zm-84-20.55c-.19.22-.3.53-.7.2a6.66 6.66 0 0 0-1.16-.68c-.25-.13-.53-.46-.79-.15s0 .55.21.8.11.51-.29.3-.88-.48-1.32-.73l-.13.26 3.65 2.09.15-.23a7.84 7.84 0 0 1-2.08-1.67c0-.6.31-.43.66-.27.66.32 1.2.91 2 1 .16-.39-.28-.57-.21-.89s.37 0 .56-.13c.37-.16.47-.47.27-.73-.39-.5-.17.23-.39.24s-.6.09-.66-.11c-.23-.77-.53-.31-.83-.1.32.35.9.35 1.1.83zm5.69-10c.07.39 0 .47-.36.21s-.83-.71-1.27-1c-.19-.15-.44-.54-.66-.23a.51.51 0 0 0 .37.75l.15-.2 1.61 1.29c.12.09.25.2.4.08s.08-.28 0-.41-.11-.29-.24-.44zm80.1 9.38l-.3-.12v.07h.33c0 .48-.38.36-.66.37l-2.1.1c-.15 0-.33 0-.38.2s.1.29.23.35.45.27.57.2c.78-.43.77-.45 1.12-.46s.74 0 1.1 0 .58 0 .64-.23-.25-.36-.51-.43zm-90.75 7.7c-.16.48-.44.11-.66.09s-.35.1-.32.32.21.52.3.41c.44-.57.76 0 1.09.07a13.55 13.55 0 0 1 1.48.61c-.49-.73-1.41-.81-1.9-1.48l-.14-.25.19-.25c.59.24 1.16.49 1.75.72.2.07.51.34.6 0a.48.48 0 0 0-.53-.6l-.14.21c-.61-.26-1.22-.52-1.83-.76-.16-.07-.35-.15-.47.07a.38.38 0 0 0 .06.42c.17.21.29.44.56.47zm77.67 31l.1.23.07-.22c.85 0 1.13.87 1.75 1.22.2.11.38.45.61.22a.43.43 0 0 0-.15-.68l-.07-.26-.11.25c-.76-.18-1.12-.91-1.74-1.3-.24-.15-.49-.59-.74-.35s0 .67.32.9zm-76.79-18.77c0 .15.13.18.26.15s0-.07 0-.08-.18-.16-.3 0c-1.29-1.09-3-1-4.47-1.55 1.41.91 3.04 1.05 4.55 1.49zm90.17-17c-.11.55-.56.33-.86.34h-2.16v.29l2.73.28a.28.28 0 0 0 0 .09h.05l-.08-.1c0-.16.07-.2.21-.22s.63 0 .68-.3-.26-.5-.56-.59c-.06-.17-.2-.16-.34-.16.06-.3.32-.22.51-.27s.34-.08.33-.26c0-.37-.36-.45-.61-.6s-.26-.18-.43 0l.45.52h-3.14v.28l2.89.38c.06.25.24.28.37.35zm-92.76 9.61a4.81 4.81 0 0 0-.12-.76c0-.08-.18-.12-.29-.16s-.11.1-.1.12c.24.47.3.89-.22 1.24 0 0 .15.31.37.28l.1.24.08-.23c.86-.15 1.52.59 2.4.47-.69-.39-1.48-.7-2.18-1.17zm86.07 14.92l2.19 1.1c.17.08.39.1.47-.11a.68.68 0 0 0 0-.44c-.07-.19-.2-.13-.35 0s-.51 0-.74-.17c-.55-.27-1.07-.58-1.62-.85-.19-.09-.44-.35-.64-.07s.07.45.19.65a1.82 1.82 0 0 0 .38.35.24.24 0 0 0 0-.09v-.09zM103 156.22c0-.12 0-.15-.12-.16h-.08l.22.11c-.19.46-.61.3-.94.33-1.16.11-2.33.18-3.49.27a14 14 0 0 0 4.78-.09c.08 0 .24-.18.22-.23-.06-.25-.29-.31-.59-.23zm82.65 3.15c0-.09.13-.22-.07-.25l.08.24c0 .58-.31.13-.4.06-.71-.53-1.4-1.09-2.1-1.64l-.16.22a13 13 0 0 1 2 2 6.18 6.18 0 0 1-.12.62c-.1.34.08.72.33.55.44-.29-.1-.76-.05-1.17.3-.27.6.49.83 0a.47.47 0 0 0-.31-.63zM169.5 177.2c.09.14.18.41.33.29s-.09-.29-.19-.42c-.23-.92-.47-1.82-1.57-2.08a.61.61 0 0 1-.29-.21c-.26-.32-.45-.65.13-.82.18-.06.38-.06.35-.31a.25.25 0 0 0-.16-.17.52.52 0 0 0-.48.2 1.17 1.17 0 0 0 .26 1.75c.27.19.6.3.88.48s.6.47.36.72c-.95.96.11.49.38.57zm24-26.94c.26.33.57.63.38 1.13-.1.24 0 .56.29.53s.27-.37.22-.6a1.85 1.85 0 0 0-.74-1.2c-1.41-1.31-3.24-1.86-4.91-2.71a5.35 5.35 0 0 0 1.94 1.45 13.24 13.24 0 0 1 2.79 1.4zm-1.28-29.07c-.07.12 0 .16.09.17s.08 0 .12-.06l-.23-.09v-.18c.74-.54 1.62-.33 2.44-.43.54-.06.26.62.57.8a1.86 1.86 0 0 0 .32.11c-.22-.66 0-1.06.7-1.34-.64.28-1.12-.61-1.31-.31-.39.59-.86.32-1.29.41s-1 .14-1.55.21c-.18 0-.38.14-.37.35s.15.47.48.36zM114 114.36c.23 0 .42.39.64.11s0-.55-.16-.54c-.92 0-1.25-.83-1.92-1.16-.42-.2-.69-.69-1.27-.69.89.36.24 1.25.67 1.75 0 .1 0 .26.18.18.11.83.77 1.18 1.4 1.52.4.21.57 0 .49-.43a6.17 6.17 0 0 0-.19-.61zm57.41 60.81c.42-.86 0-1.58-.39-2.29-.21-.41-.48-1-1-.88s-.21.8-.23 1.24c0 .07 0 .19-.12.2-.35-.09-.36-.81-.76-.59s0 .74 0 1a.28.28 0 0 1 .06-.25c.16-.14.25 0 .33.16.33.55.65 1.1 1 1.63.16.23.17.67.59.57a.69.69 0 0 0 .53-.76zm13.17-18.31c-.26 0-.47-.55-.76-.12-.13.19.12.62.2.58.66-.31.86.35 1.23.57a12 12 0 0 1 1.47 1.1l.21-.21c-.79-.84-2-1.42-2.09-2.86a13.89 13.89 0 0 1 2.16 1.4c.21.13.46.49.69.17a.45.45 0 0 0-.3-.7c0-.08.12-.2-.07-.23l.08.22c0 .35-.23.2-.36.11-.45-.31-.88-.65-1.34-.95s-.68-.76-1.08-.45.09.77.13 1.17zM120.63 106c.3.34.63.66.9 1 .43.56.94 1.14.12 1.8-.15.13-.08.29 0 .38s.28 0 .35-.16a1.8 1.8 0 0 0-.14-1.91 22.45 22.45 0 0 0-3-3.49c.14.94 1.26 1.42 1.13 2.63-.63-.49-1.15-.9-1.68-1.3-.16-.13-.38-.35-.55-.15a.42.42 0 0 0 .16.67c-.13-.43.08-.36.3-.19.53.41 1 .84 1.57 1.25.13.11.29.28.48.17s0-.39.06-.58zM99 150.66a1.47 1.47 0 0 0 1.75.35c-.56-.26-1.2-.1-1.77-.33 0-.32-.11-.64-.15-1-.07-.53.27-.38.56-.31.37.55 1 .49 1.53.65.76.23 1.61.24 2.18 1-.16-.26.53-1-.53-.73a.85.85 0 0 1-1-.84c0-.73.57-.34.85-.5s.52 0 .63-.25c0-.09-.08-.29-.18-.39-.33-.36-.28.23-.51.22s-.48.1-.72.1h-2.57c-.41 0-.58.1-.57.48.04.55-.06 1.16.5 1.55zm80.36 13l-1.65-1.78c.83 1.75 2.32 2.92 3.59 4.31-.26-1.09-1.53-1.68-1.45-3.07l1 .77c.42.3.84.61 1.27.9.12.09.31.13.39-.05a.76.76 0 0 0-.07-.7c0-.06-.12-.15-.17-.14-.67.09-.67.1-1-.16s-.62-.5-1-.73-.52-.58-.85-.37 0 .57 0 .86zm13.8-57.06a1.77 1.77 0 0 0 2.19-.3c-.83-.07-1.39.77-2.05.15-.26-.58-.5-1.17-.78-1.75a1.86 1.86 0 0 0-3.07-.51c.36.22.62 0 .91-.18a1.12 1.12 0 0 1 1-.09c.45.21.71 1 .39 1-1.46.35-2.76 1.59-4.42.87.15.83.14.7.94.64a9.29 9.29 0 0 0 2.62-.75c.79-.3 1.47-.61 1.82.52.1.19.29.28.46.39zm-5.25 49.8c.48.64 1.07 1.06 1.87.61a1.79 1.79 0 0 0 .45-2.42c-.16.32.18.71-.21 1.09-1.15-1.16-3.18-1.3-3.62-3.4a8.81 8.81 0 0 0-.55.89.28.28 0 0 0 .2.42 1.68 1.68 0 0 1 1.39 1.77c0 .22-.27.68.32.65-.1.18.01.29.16.38zm-87.16 6.51a2.07 2.07 0 0 0 2.14 0c-.76-.33-1.43.47-2-.12-.25-.47 0-.63.43-.7a7 7 0 0 0 2.22-.46c-.65-.18-1.16.23-1.79 0l2.34-1.31c-.9-.33-1.79-.06-2.82-.48.88-.24 1.54-.45 2.21-.59s.83-.4.34-.81c-1.23 1-2.82.84-4.25 1.42 1.1.52 2.28.18 3.44.65-.78.43-1.41.8-2.06 1.13-.95.45-.95.51-.19 1.26zm15.46-52.25c-.37-.31-.73-.64-1.12-.94-.24-.19-.47-.62-.82-.39s0 .61 0 .93l-.24.17c-.18-.06-.41-.28-.54 0s.07.57.17.53c.76-.27.88.54 1.34.75a4.27 4.27 0 0 1 .86.69c-.32-1-1.59-1.35-1.42-2.58h.24c.5.4 1 .82 1.49 1.22.17.13.36.43.61.22s0-.39-.07-.58a1.56 1.56 0 0 1-.08-.38c.34-.07.67.44.91 0s-.27-.68-.1-1c.3-.11.5.52.77.09.07-.12-.08-.38-.13-.58-.73.31-.81-.52-1.26-.72s-.58-.93-1-.64c-.64.41-.36 1.09-.06 1.64a4 4 0 0 0 .66.87c.19.2.22.35 0 .54zm60.49 57.69a2.23 2.23 0 0 1-.16 1.91 3.09 3.09 0 0 0 1.32-1.39c.08-.19-.06-.58.36-.48s.38.35.35.66a1.39 1.39 0 0 0 .46 1.24c.39.35.74.37 1-.19-1 0-1.26-.34-1.25-1.37a2.75 2.75 0 0 1 1.19.88.65.65 0 0 0-.32-.77 1.93 1.93 0 0 1-.92-1.73 1.76 1.76 0 0 0-.93-1.3.89.89 0 0 0-1.47.47c-.15.39-.14.8-.77.75-.34 0-.39.43-.24.66.36.54.14-.23.38-.21s.54 0 .67.32.03.47.34.54zm11.69-41.51c0-7.93-1-13.63-3.23-19.09C179.87 95 168 88.31 154.36 90.57a41.94 41.94 0 0 0-17.81 7.54c-15.48 11.16-25 26.2-28.71 44.9a42.59 42.59 0 0 0 .94 21.29 26.26 26.26 0 0 0 23.8 18.92 39.47 39.47 0 0 0 16-2.3 56.94 56.94 0 0 0 25.15-17.81C183 152 188.1 139.32 188.4 126.83zM172.5 170c-.32.23-.53.36-.71.52s-.32.31.16.5a.19.19 0 0 1 .15.17c.22 1.14 1.12 1.87 1.72 2.77.34.5.55.82-.07 1.25a1.35 1.35 0 0 0-.45 1.5c.24-.94.92-1.29 1.47-1.76 1.2-1.05 1.13-2.35-.19-3.35a.68.68 0 0 0 .32.79 1.49 1.49 0 0 1 .51.75c.11.45-.16.75-.47 1-.15.14-.33.22-.45 0-.7-1.35-2.35-2.2-1.99-4.14zm-6.76 5.76c.08-.31.23-.53.52-.3.49.38.68 1 1.1 1.45.7.73-.47 1-.33 1.53.95-.4 1-.35 1.2.73.05.37 0 .76.06 1.15 1.41-.46 1.91-1.2 1.66-2.43a1.62 1.62 0 0 1-.83 1.62c-.41.24-.76.35-.69-.36a3.69 3.69 0 0 0-.15-1.64c-.72-.65-.91-1.63-1.6-2.25-.23-.2-.43-.51-.78-.36s-.24.46-.16.81zm22.92-66.81a6.72 6.72 0 0 0 2.86-.49 11.59 11.59 0 0 1 1.77-.5c.74-.17 1.52-.45 2 .52a.33.33 0 0 0 .49 0 1.37 1.37 0 0 0-1.44-.89c-2.05-.15-3.8.87-5.68 1.31zm9.93 10.88c-.08-.75-.68-.94-1.25-1.11a5.42 5.42 0 0 0-2.37 0c-1.07.14-2.13.25-3.2.38-.15 0-.33.09-.31.26a.65.65 0 0 0 .22.39c.15.13.27 0 .34-.12s.34-.23.54-.26c1.31-.15 2.62-.31 3.93-.43.68-.06 1.39-.14 1.6.8.02.03.25.15.5.04zm-34.5 56.81c.32-.18.55-.6 1-.26s.13.68.06 1a2.18 2.18 0 0 0 .1 1.53c.1.19.21.42.45.41s.39-.28.42-.52a3.7 3.7 0 0 0-.55-2.55c-.2-.33-.45-.73-.92-.62s-.46.53-.56.96zm29.2-28.94l-.88-1c-.43.56-.76 0-1.11-.13-.55-.18-1.07-.45-1.6-.68a.42.42 0 0 0-.51.09c-.15.16-.07.34 0 .51.35.67.25-.13.4-.12a6.68 6.68 0 0 1 2.19.86c.46.18.14.5.07.77s0 .35.28.45c.22-.45.37-1.11 1.16-.8zm3.09-30.39v-.34a22.94 22.94 0 0 0-5.15.87c.32.14.61.81.77.49.31-.58.79-.42 1.17-.5 1.04-.28 2.13-.41 3.21-.57zM183 164.16c.31-.58.74-.77 1.34-.36-.42-.44-.2-1.19-1.11-1.32-.56-.07-1-.83-1.53-1.26-.23-.18-.48-.5-.8-.3s-.15.58 0 .9c.12-.17 0-.65.41-.38a16.59 16.59 0 0 1 1.75 1.49c.38.4-.6.68-.06 1.23zm13.94-32.91c-.38-.25-1-.77-1.09-.69-.79.65-1.55 0-2.3.06h-.82a.31.31 0 0 0-.26.47c.14.29.25.1.46 0a5.18 5.18 0 0 1 2.41.11c.56 0 .12.65.38.89a.25.25 0 0 0 .35.06c-.07-.54.03-1 .83-.9zM113 116.87c-.79-.77-1.86-1.34-1.84-2.61-.26.27.54 1.15-.61.79a.17.17 0 0 0-.21.22c0 .15.12.4.17.39 1.07-.05 1.49 1.05 2.49 1.21zm81.5 10h1.36c.14 0 .31-.09.3-.28a.59.59 0 0 0-.33-.42c-.09 0-.27-.17-.28 0-.1.74-.66.34-1 .38-.6.06-1.21 0-1.82 0-.18 0-.41.07-.3.32s.28.48.45.29c.5-.58 1.12-.11 1.62-.31zm-75.67-18.36l.15-.16c-.4-.48-.81-1-1.19-1.44-.24-.3-.2-.92-.9-.63-.16.07-.34 0-.34.25s.19.56.23.53c.61-.49.65.27.91.44a8.33 8.33 0 0 1 1.14.99zm-18.2 35.61c-.08-.87.34-.72.78-.62.59.13 1.09.65 1.78.35.15-.06.3-.08.28-.26s-.17-.32-.31-.27c-.72.27-1.35-.18-2-.22-.25 0-.55-.29-.75 0s-.17.56.22 1zm2.37 3.3c-.22-.4-.72-.57-.91-.46-.66.35-1.41 0-2 .42a.18.18 0 0 0 0 .3c.08.08.26.19.29.17.72-.66 1.7-.2 2.62-.45zm2.92-15.18l.08-.24a9.19 9.19 0 0 0-2.59-1.17c-.19 0-.4-.07-.38.21s.1.45.38.31.57.1.84.2c.58.19 1.12.45 1.67.67zm-5.17 12.05a3.27 3.27 0 0 0 2.26.82c.19 0 .39-.1.36-.32a.72.72 0 0 0-.21-.39c-.24-.24-.23 0-.31.15s-.38.13-.57.1c-.47-.12-.93-.24-1.53-.38zm76.8 17.35a1.12 1.12 0 0 1 .3-1.25c.15-.12.3-.24.17-.45s-.11-.19-.16-.19c-.25 0-.35.22-.44.41a1.49 1.49 0 0 0 .13 1.46zm17-25.69c.46.78 1.16.38 1.66.64a2.16 2.16 0 0 0-1.67-.66zm-4.46 18.4a1.83 1.83 0 0 0-1.37-1c.2.65.99.56 1.36.98zm-85.26 7.91c.12-.44.1-.8-.27-1s-.21.52-.58.31zm3.57-41.68c-.16-.43-.4-.6-.74-.5s-.2.3-.14.47c.28.84.56-.78.87.01zm-7.13 24.86c-.34-.2-.67-.53-1.16-.21.37.33.81.03 1.15.19zm3.23-23.83c-.09-.41.32-.74-.08-1.06h-.16a.84.84 0 0 0 .23 1.04zm-2.43 17c-.35-.61-.78-.48-1.41-.47a1.85 1.85 0 0 0 1.4.5zM176.74 171c.29.4.4.65.81.67-.01-.48-.27-.59-.81-.67zm0-.85c-.32.3-.31.57.09.9zm-3.22 6.94a.69.69 0 0 0 .55.71c.12-.47-.13-.6-.5-.75zm-71.84-31.44v-.05h0zm71.76 31.2l-.06.06a.61.61 0 0 0 0 .12s.06 0 .06-.06.06-.12.05-.16zm-70.08-43.38s0-.05-.06-.06 0 0-.07 0l.09.06zm1.08-10.85v-.06l-.06.06.08.06zm6.2-11.28s-.06 0-.06.07 0 0 .06.07.06 0 .06-.07.01-.08-.01-.11zM138.55 196.75a.21.21 0 0 1 .06.08c.53 1.46.53 1.45 2.07 1.35.59 0 .95-.3.83-.92-.19-1 0-2.07-.38-3.07-.15-.36.23-.66.33-1.06a2.91 2.91 0 0 0 .62.43c.65.22.5.66.34 1.1 0 .14-.2.26-.22.4-.08.59-.27 1.33.15 1.72s.68-.43 1.07-.66.69-.61 1.15-.34a2 2 0 0 1 1.06 1.53 5.33 5.33 0 0 1-.54 2.21c-.12.35-.42.28-.69.29-1.78 0-3.57.08-5.34 0-.67-.05-1.32 0-2 0a43.82 43.82 0 0 0-4.44 0c-.78.07-1.44-.39-2.26-.14a6.26 6.26 0 0 1-2.37.08c-1.08-.1-2.16 0-3.24 0H114.2c-.55 0-1 0-1-.81-.71.88-1.44.2-2.14.22-.06 0-.2-.2-.18-.27.16-.62.07-1.42.56-1.8a8.69 8.69 0 0 0 2-2.31c.18 1.1.34 2 .45 2.81 0 .39.21.52.59.52h11.41c.24 0 .55 0 .44-.37s.36-.71.51-1.1c.07.08.14.12.14.16 0 1.17.65 1.49 1.71 1.32.33-.05.67 0 1 0s.55.14.67-.12a.58.58 0 0 0-.32-.69c-1.09-.54-.42-1.32-.09-1.75a1.48 1.48 0 0 1 1.77-.26 1 1 0 0 1 .53 1.32c-.13.47-.35.9-.58 1.5h2.7c.23 0 .35-.09.3-.32-.13-.52.26-.77.63-1.26.08 1.1.38 1.58 1.57 1.67 1.41.14.99-1.14 1.68-1.46zm3.66 1.4a16.14 16.14 0 0 0 2.61-.07c-.7-1.53-1.31-1.51-2.61.07zm-30.34-.39c.47 0 .8.29 1 .08s.05-.51-.14-.77zM183.81 196.6a3.42 3.42 0 0 0 .1.41c.21.38-.09 1.12.61 1.14s1.74.39 2.16-.79a6.54 6.54 0 0 1 .79-1.34c.36-.54.76-.59 1.12 0a3.76 3.76 0 0 1 .06 3.91c-.18.32-.34.26-.58.1a7 7 0 0 0-.71-.42c-.45-.23-.92-.83-1.35.07-.06.12-.45.1-.69.1-1.12 0-2.23-.11-3.35 0-1.5.11-3 0-4.51 0h-1.75c-.6 0-.88-.22-.86-.88v-4.13c0-.7.45-1.08.94-1.8v4.25c0 .7.14 1 .9.94 1.87-.05 3.74 0 5.61 0 .48 0 1.09.2.94-.71-.05-.2.3-.45.57-.85zm4.68 1.88c-.16-.64-.07-1.24-.64-1.45-.25-.09-.54.3-.53.52.02.65.68.57 1.17.93zM153.19 201c1.7-.18 2.35-1.26 1.62-2.69-.32-.62.08-.87.29-1.26h.19c.14 1 .79 1.15 1.69 1.12 2.12-.06 4.24 0 6.35 0 .59 0 .83-.12.52-.7s0-1 .41-1.45l.55 1.63c.09.26.16.49.54.53.85.09 1 0 .76-.85-.19-.54.14-.84.38-1.23 1.15 2 1.15 2 1.76 2a1.53 1.53 0 0 1 .29-2.06 3.59 3.59 0 0 1-.06 3.47c-.24.61-1 .39-1.45.18s-.39-.43-.7 0c-.19.27-.59.16-.87.11-1.47-.26-2.94.11-4.41 0s-3.07 0-4.6 0c-.6 0-.92.15-1 .75a1.69 1.69 0 0 1-.2.51c-.25.47-.36 1.19-1 1.18s-.75-.73-1.06-1.24zM171.77 207.72c-.19.86-.4 1.72-.56 2.59-.07.42-.26.55-.67.56s-.66-.06-.76-.54c-.28-1.32-.61-2.62-.92-3.93 0-.2-.26-.55.18-.53s.77-.3.88.32.24 1.26.36 1.88l.25 1.11a11.17 11.17 0 0 0 .73-2.8c.1-.51.35-.52.75-.54s.59.18.65.56a11.66 11.66 0 0 0 .57 2.54 6.4 6.4 0 0 0 .56-2.24c.11-.79.46-1 1.24-.77-.37 1.47-.75 2.94-1.11 4.41-.12.47-.41.51-.82.53s-.56-.26-.62-.62c-.16-.85-.32-1.7-.49-2.55zM115 208.75v-2.36c0-.37 0-.55.49-.56s.49.19.48.56v3.67c0 .27.26.72-.31.79a.88.88 0 0 1-1-.51c-.4-.85-.88-1.67-1.34-2.5-.07-.12-.1-.3-.42-.31v2.75c0 .34 0 .6-.47.58s-.51-.2-.5-.57v-3.67c0-.26-.22-.71.25-.74s1-.26 1.28.37c.44.86 1 1.69 1.43 2.54zM138.4 208.21v-1c0-1.41.11-1.52 1.53-1.44 2.24.12 3.28 1.39 2.72 3.33a2.53 2.53 0 0 1-2.52 1.77c-1.73.15-1.73.15-1.73-1.55zm1.11.07a3.31 3.31 0 0 0 0 .63c.08.35-.27.87.24 1a1.39 1.39 0 0 0 1.35-.37 2 2 0 0 0 .14-2.44 1.39 1.39 0 0 0-1.49-.45c-.49.16-.17.68-.24 1a3.37 3.37 0 0 0 0 .63zM165.65 210.57c-.72.21-1.45.37-2-.31a2 2 0 0 1-.21-2.17 1.45 1.45 0 0 1 2-.79c.13.06.19.21.39.16 1-.23 1-.22.95.77v2.48a2 2 0 0 1-3 1.55c-.26-.15-.21-.34-.18-.55.05-.37.27-.29.54-.24 1.21.23 1.44.08 1.51-.9zm.07-1.59c0-.48 0-1-.65-1s-.7.51-.7 1 .16 1 .75.95.6-.5.6-.93zM148.56 196.61c.27 1.56.27 1.56 1.9 1.56h1.1c.61 0 1.59.34.94-1-.18-.37.32-.8.55-1.22.78 1.21.36 2.38 0 3.54-.09.34-.41.31-.69.31h-2.66a1.36 1.36 0 0 1-1.48-1.78c.09-.47.23-.93.34-1.41zM153.91 208.61c.77-.6.92-1.89 2.15-1.34.07.71-1.3.84-.81 1.74.34.61.79 1.15 1.2 1.75a1.28 1.28 0 0 1-1.8-.8c-.08-.2-.15-.56-.44-.5s-.32.48-.29.77c0 .45-.09.68-.6.63-.32 0-.43-.13-.43-.44v-4.41c0-.45.21-.47.56-.48s.47.15.46.48c-.01.81 0 1.63 0 2.6zM148.49 209a11.1 11.1 0 0 0 0-1.29c-.06-.58.39-.72.64-.49.42.37.63.15 1 0a1.21 1.21 0 0 1 1.74 1c.07.7 0 1.41 0 2.12 0 .38-.16.46-.5.45s-.61 0-.6-.48 0-1 0-1.56-.07-.8-.54-.82-.69.36-.72.79 0 .86 0 1.29.16.8-.53.79-.47-.41-.48-.75 0-.73 0-1.1zM127.06 209.11a11.83 11.83 0 0 0 0 1.19c.07.66-.42.72-.72.48s-.51-.19-.83 0a1.21 1.21 0 0 1-1.82-1.09c-.06-.64 0-1.29 0-1.93 0-.37.08-.55.5-.54s.64.08.62.56 0 1 0 1.56.14.68.54.71.67-.28.69-.68a11.6 11.6 0 0 0 0-1.56c0-.41.08-.6.55-.59s.51.19.49.55 0 .92 0 1.38zM120 209.44a4.45 4.45 0 0 0 0 .73c.11.67-.22.85-.76.62a1 1 0 0 0-.76 0c-.82.26-1.46 0-1.64-.65s.19-1.3 1-1.55a.84.84 0 0 0 .17-.05c.25-.16.85.17.75-.34s-.62-.32-1-.26c-.21 0-.53.32-.64-.17s.3-.47.54-.53c1.69-.44 2.34.21 2.34 2.2zm-1.06 0c0-.2-.06-.37-.31-.33s-.7.11-.71.55a.37.37 0 0 0 .47.41.61.61 0 0 0 .61-.61zM178.37 209.48a5 5 0 0 0 0 .55c.09.75-.16 1.08-.9.69-.28-.15-.46 0-.68.08-.7.19-1.33.1-1.57-.68a1.13 1.13 0 0 1 .84-1.5c.14-.05.29-.08.43-.14s.77.18.7-.29-.54-.36-.93-.3-.69.36-.78-.21.42-.44.69-.49c1.65-.31 2.2.29 2.2 2.29zm-1.08-.15c0-.13-.12-.25-.4-.19s-.62.18-.62.55a.39.39 0 0 0 .49.4c.34-.09.52-.27.53-.76zM159 209v-1.38c0-.46.21-.59.47-.42.55.36 1 .05 1.49 0a1.08 1.08 0 0 1 1.39 1c.09.75.05 1.52.07 2.29 0 .41-.28.38-.56.4s-.51-.1-.49-.46v-1.66c0-.55-.18-.76-.63-.74s-.63.31-.62.75 0 1 0 1.56c0 .37-.07.57-.5.55s-.65-.08-.62-.56 0-.85 0-1.28zM133.81 209.46v.64c.08.84-.28 1-.92.55-.28-.2-.38 0-.54.1-.79.28-1.48.05-1.69-.59s.09-1.26.89-1.55a4.58 4.58 0 0 1 .53-.14c.21-.06.59.11.58-.25s-.37-.36-.64-.38a1.51 1.51 0 0 0-.63.12c-.28.11-.38 0-.47-.25s.11-.35.31-.43a1.7 1.7 0 0 1 2.58 1.72zm-1.71.65a.59.59 0 0 0 .6-.56c0-.22 0-.47-.3-.41s-.63.12-.71.47.14.39.41.5zM184.16 210.11c.33 0 .75-.25.77.3s-.45.41-.72.44a2 2 0 0 1-2.13-.74 2 2 0 0 1 0-2.09 1.62 1.62 0 0 1 1.51-.88 1.45 1.45 0 0 1 1.38.73c.58 1 .3 1.5-.84 1.51H184c-.35.09-1-.23-1 .21 0 .61.7.5 1.16.52zm-.69-1.52c.21-.08.61.16.61-.27s-.27-.45-.57-.45a.54.54 0 0 0-.58.47c-.02.38.33.2.54.25zM172.81 199.81c-1.24 0-1.48-.3-1.35-1.51a14.07 14.07 0 0 1 .54-2.3c.18-.63.48-.67 1-.28a2.94 2.94 0 0 1 .83 3.85c-.32.43-.73.16-1.02.24zm.64-1.65c-.25-.61-.32-1.23-.9-1.23-.38 0-.35.56-.29.86.14.65.67.27 1.19.37zM122.29 210.88a1.09 1.09 0 0 1-1.18-1c-.14-.71.25-1.48-.48-2.15-.33-.3.62-.65.61-1.2 0-.07.49-.18.76-.2s.19.2.18.34c0 .36 0 .6.48.55.25 0 .3.14.3.35s0 .44-.32.41-.51.28-.45.6c.09.47-.33 1.14.33 1.37.4.14.47.31.42.63s-.4.27-.65.3zM180.57 210.88c-.74 0-1.06-.45-1.13-1.22s.38-1.41-.47-1.86c-.11-.06-.11-.45.12-.56.47-.23.46-1.07 1.2-.94.14 0 .17.16.16.29 0 .39 0 .67.53.61.31 0 .35.16.34.41s0 .37-.29.35c-.44 0-.65.17-.57.6s-.32 1.18.47 1.4a.45.45 0 0 1 .36.61c-.07.43-.41.28-.72.31zM135.84 208.25v2.1c0 .42-.16.52-.54.51s-.58-.07-.58-.5v-4.39c0-.49.3-.43.6-.44s.53 0 .52.43c-.01.76 0 1.53 0 2.29zM128.07 208.91v-.65c0-1 0-1 1-.73.3.08.39-.26.61-.31s.49-.19.56.07.22.74-.16.79c-1.24.18-.85 1.11-1 1.84-.05.33.31.85-.37.93-.43.06-.7 0-.65-.57s.01-.91.01-1.37zM185.92 209v-.83c0-.95 0-.95 1-.62.3.11.39-.25.61-.31s.52-.27.6.09.24.73-.18.77c-1 .09-.83.73-.92 1.39-.06.46.49 1.32-.49 1.35s-.37-.92-.58-1.39a1.34 1.34 0 0 1-.04-.45zM143.57 209v-1.28c0-.24.07-.65.32-.45.64.53 1.31-.32 1.85.15.08.07.3.7-.28.75s-.82.5-.79 1.08v1.1c0 .36 0 .59-.48.56s-.67 0-.63-.54.01-.96.01-1.37zM157 209v-1.29c0-.43.07-.55.5-.54s.62.11.61.57v2.57c0 .48-.25.53-.64.54s-.48-.22-.47-.57 0-.84 0-1.28zM147.47 209v1.29c0 .43-.08.56-.51.55s-.55-.11-.54-.52v-2.67c0-.43.19-.49.56-.5s.5.1.48.47.01.95.01 1.38zM112.55 192.28c.34.46 1.1-.3 1.33.5.06.21.2.37 0 .54s-.2.42-.57.22-.93.2-1.15-.46c-.06-.18-.15-.32 0-.48s.18-.32.39-.32zM183.07 200.84c.34.65 1.1-.19 1.33.59.07.25.19.41 0 .63s-.25.23-.56.12-.9.19-1.15-.43.22-.57.38-.91zM136 201.86c-.05.13-.27.53-.43.44-.5-.28-1.42.18-1.49-.79 0-.21.27-.63.52-.51.48.22 1.4-.25 1.4.86zM127.27 202.4c-.37-.6-1.2.27-1.43-.61-.06-.23-.13-.37 0-.54s.21-.38.57-.18.87-.19 1.15.44-.18.56-.29.89zM167.3 194.36c-.17.14-.15.54-.61.44s-1.19 0-1.33-.74c0-.18.23-.61.5-.5.5.21 1.36-.23 1.44.8zM166.72 192.49c-.16.21-.25.57-.49.51a.93.93 0 0 1-.65-.79c0-.17.21-.54.44-.48s.53.45.7.76zM147.51 206.18a.49.49 0 0 1-.54.49.48.48 0 0 1-.54-.57c0-.33.26-.46.57-.45a.48.48 0 0 1 .51.53zM138.29 200.91c.22.27.6.46.59.85 0 .18-.22.54-.46.46a.86.86 0 0 1-.61-.8.57.57 0 0 1 .48-.51zM151.19 202.29a1.31 1.31 0 0 1-.72-.73.51.51 0 0 1 .39-.61c.34 0 .54.38.67.67s-.26.38-.34.67zM158.11 206.11a.53.53 0 0 1-.5.55c-.31 0-.56-.07-.61-.41s.16-.57.52-.6a.56.56 0 0 1 .59.46z"></path><path class="cls-1" d="M188.4 126.83c-.3 12.49-5.43 25.2-14.66 36.28a56.94 56.94 0 0 1-25.15 17.81 39.47 39.47 0 0 1-16 2.3 26.26 26.26 0 0 1-23.8-18.92 42.59 42.59 0 0 1-.94-21.29c3.69-18.7 13.23-33.74 28.71-44.9a41.94 41.94 0 0 1 17.81-7.54c13.6-2.26 25.51 4.39 30.81 17.17 2.26 5.46 3.24 11.16 3.22 19.09zm-50.74-25.9c-.16 0-.29 0-.35.21h-.08l.08-.09a.35.35 0 0 0 .39-.17c.06 0 .21 0 .08-.15zM156.82 174a10 10 0 0 0-2.46 1 41.88 41.88 0 0 1-18.63 3.31 30.82 30.82 0 0 1-16.5-6.05 21.94 21.94 0 0 1-7.77-9.8c-.19-.5-.37-1-.55-1.52a13.13 13.13 0 0 0 1 4.18c2.27 6 5.86 10.8 12 13.27a31.85 31.85 0 0 0 15.47 2.23 37.2 37.2 0 0 0 11.94-3.43 30 30 0 0 0 5.47-3.16s.19 0 .07-.12zM139 133.68c.52 2.07 2 2.37 3.66 2.36h25.49a14.84 14.84 0 0 0 6.8-1.59 26.29 26.29 0 0 1 9.59-2.73c.21 0 .43 0 .56-.21l1.46-2.56h-.71a24.13 24.13 0 0 1-10.5-2.22c-2.91-1.41-5.94-.76-8.76.69a1.78 1.78 0 0 0-1 1.34 1 1 0 0 0 .35.9c.34.28.47-.14.65-.29a4.85 4.85 0 0 1 3.79-1.05c2.18.22 3.91 1.6 6.12 2.31a18.49 18.49 0 0 1-7.59 2.17c-8.68.06-17.36 0-26 0a2 2 0 0 1-2-2.43c.07-.45.2-.9.28-1.35s0-.65-.32-.78-.59.1-.76.37-.42.75-.63 1.12a9.13 9.13 0 0 1-1.51 2.18 3.08 3.08 0 0 1-5.14-1 6.76 6.76 0 0 1-.55-2.59c-.16-4.47-.07-9-.05-13.43a9.67 9.67 0 0 0-.21-2.74c-.27-1-.47-1-1.13-.31-.34.35-.65.74-1 1.06a1.44 1.44 0 0 0-.51 1.44 24.26 24.26 0 0 1 .19 3.3v11.14a13.59 13.59 0 0 0 .35 3.65 5 5 0 0 0 8.1 2.52 16.91 16.91 0 0 0 .98-1.27zm10.71 13.57h-3.84c-.45 0-.58.26-.73.57a29 29 0 0 0-2.57 7.06 2.54 2.54 0 0 1-.84 1.38.83.83 0 0 1-1 .24.79.79 0 0 1-.41-.86 4.1 4.1 0 0 1 .16-1c.45-1.3.93-2.59 1.41-3.88s.9-2.32 1.39-3.59h-3.81c-.21 0-.46 0-.56.21-.17.48-.37.2-.59 0a3.9 3.9 0 0 0-3.4-.63 8.1 8.1 0 0 0-6 7 4.89 4.89 0 0 0 2.59 4.64c1.73.79 3.07-.08 4.34-1.14l.07-.06c.3-.41.51-.33.82.05a3.63 3.63 0 0 0 3.22 1.44 4.2 4.2 0 0 0 2.61-1.2c.2-.18.36-.44.67-.1a3.84 3.84 0 0 0 5 .88 10.85 10.85 0 0 1-1.81 3.81c-1.5 2-3.5 2.18-5.38.49-.16-.15-.29-.49-.58-.24s0 .45.06.65a4.17 4.17 0 0 0 4.84 2.26 7.72 7.72 0 0 0 2.54-1.25 13.47 13.47 0 0 0 4.48-6.17q1.76-4.4 3.49-8.8c.67-1.7.66-1.71-1.13-1.73a5.24 5.24 0 0 0-2.35.07c-.64.34-.58 1.41-.9 2.13-.13.3-.23.63-.35.94a25 25 0 0 1-2.5 5.21c-.41.6-.91 1.22-1.73.83s-.43-1.12-.27-1.72a37.43 37.43 0 0 1 1.58-4.21c.46-1 .91-2.06 1.43-3.28zm19.37.25h-3.88c-.14 0-.36 0-.41.12-.27.5-.51.21-.78 0a3.77 3.77 0 0 0-3.42-.5 7.88 7.88 0 0 0-5.62 5.69 5 5 0 0 0 1.56 5.42 3 3 0 0 0 3.51.48 5.6 5.6 0 0 0 1.73-1.2c.26-.25.43-.38.71 0a3.83 3.83 0 0 0 5.82.41c.2-.18.36-.42.67-.09 1.38 1.51 2.94 1.21 4.52.38a10.84 10.84 0 0 0 3.53-3.17 18.6 18.6 0 0 0 1.68-2.63.72.72 0 0 0-.21-1.05c-.41-.2-.51.26-.7.53a16.11 16.11 0 0 1-3.85 3.92c-.32.23-.7.54-1.09.28s-.21-.74-.12-1.11c.34-1.34 1-2.58 1.43-3.88a.88.88 0 0 1 1-.64c1.77 0 1.77 0 2.31-1.59s.5-1.5-1.12-1.55c-.17 0-.37.08-.54-.18.7-1.62 1.39-3.28 2.12-4.93.23-.49.21-.7-.41-.69-1 0-2.08 0-3.13-.06-.37 0-.54.09-.61.49a27.94 27.94 0 0 1-1.46 4.24c-.29.87-.72 1.27-1.65 1.1-.32 0-.75-.18-.92.34-.28.9-.6 1.79-.92 2.75l1.62.1a30.45 30.45 0 0 0-2.17 5.07 2.53 2.53 0 0 1-.57.82 1.08 1.08 0 0 1-1.39.37c-.56-.28-.47-.81-.36-1.29a21.41 21.41 0 0 1 1.12-3.21c.61-1.52 1.26-3.06 1.92-4.74zm-34.18-10.44a11.8 11.8 0 0 0-4.36 2.64 22 22 0 0 0-4.64 6.24c-.2.39-.35.73-.92.71h-4c-.56 0-.59-.16-.4-.64a24.81 24.81 0 0 1 3-5.46 24.33 24.33 0 0 1 3.06-3.44c-.59.08-.92.12-1.25.18a12.86 12.86 0 0 0-10.27 10.29c-.92 4.12-2.41 7.86-6.51 9.92a6.33 6.33 0 0 0 7.19-1.53 14.55 14.55 0 0 0 3.2-5.21.82.82 0 0 1 .93-.64h3.31c.71 0 .83.14.59.82a42.33 42.33 0 0 0-1.71 6.48c-.1.52-.15.86.6.83 1.44-.06 2.88 0 4.33 0 .44 0 .56-.16.58-.58a37 37 0 0 1 2.79-11.76 58.51 58.51 0 0 1 4.48-8.85zm2.89-22.87a2.07 2.07 0 0 0-.88 2.89 7 7 0 0 0 4.83 4.3 14 14 0 0 0 3.65.37c3.8-.07 7.6-.23 11.4-.27 5.3-.06 10.6-.44 15.91-.07a13.46 13.46 0 0 1 1.91.23 4.49 4.49 0 0 1 3.76 3.67c1.06-.76 1.37-1.48 1-2.57a7 7 0 0 0-4-4.32 10.44 10.44 0 0 0-4.24-.68q-9.75.18-19.5.44a83.76 83.76 0 0 1-9.1-.18c-2.65-.22-4.07-1.39-4.74-3.81zm46.4-2.54a24.57 24.57 0 0 0-2.53-6.67 20.53 20.53 0 0 0-7.47-8.2 28.88 28.88 0 0 0-18.1-3.5 36.62 36.62 0 0 0-14.9 5.19 20.65 20.65 0 0 0-3.19 2.17c.14 0 .2.09.25.07a4.29 4.29 0 0 0 .58-.26 45 45 0 0 1 10.5-3.86c6.88-1.59 13.68-1.48 20.29 1.23a26.84 26.84 0 0 1 11.38 8.25 23.79 23.79 0 0 1 3.19 5.58zm-60.54 13.63c-.76.84-1.47 1.56-2.11 2.34a8.81 8.81 0 0 0-2 3.58c-.55 2.32 1.18 4.25 3.33 3.71 3-.74 6.34-5.46 3.58-9a.62.62 0 0 1 0-.94 19.11 19.11 0 0 0 1.31-1.66c.32-.47 1.08-1 .41-1.56s-1.14.19-1.58.61a14.48 14.48 0 0 0-1.28 1.32.75.75 0 0 1-1.21.17 8.87 8.87 0 0 0-7.21-1.13 3.31 3.31 0 0 1 2.06 2c.17.46.42.4.78.33a7.14 7.14 0 0 1 3.92.23zm11.49 14.27a3.26 3.26 0 0 1 1.46.38 8.93 8.93 0 0 1 1.25.77c.42.35.72.36 1-.11.15-.23.39-.4.55-.62s.5-.4.91-.14c.58.37 1.15 1.17 1.76.95s.91-1 1.35-1.57c0-.05.07-.11.11-.15.4-.36.23-.59-.15-.83a19.09 19.09 0 0 1-2-1.37c-.59-.48-1-.43-1.36.22s-.83.84-1.52.31a1.44 1.44 0 0 0-2.14.09 7 7 0 0 0-1.22 2.07zm-16.44-19.36a11.35 11.35 0 0 1 1.39.48 7.35 7.35 0 0 1 1.34.81c.36.28.61.3.89-.09s.43-.44.62-.68a.55.55 0 0 1 .9-.15c.55.38 1.16 1.12 1.69 1s.93-1 1.38-1.52a1.84 1.84 0 0 1 .17-.22c.31-.3.3-.53-.1-.78a15.56 15.56 0 0 1-2-1.36c-.65-.57-1.06-.44-1.49.23-.26.41-.49.86-1.2.41-1.48-1-2-.77-3 .72a3.92 3.92 0 0 0-.59 1.15zm-7.93 40.16l-.06-.15a.61.61 0 0 0-.07.14.47.47 0 0 0 .06.15.91.91 0 0 1 .07-.14zm73.65-48.08l-.06-.15s-.07.09-.07.14 0 .09.06.14zM197.53 140.53c-1.56-.43-3.11-.88-4.67-1.29-.32-.09-.72-.32-.91.23-.32-.22-.29-.59-.56-.93a5.61 5.61 0 0 1 1.86.33c.33.07.72.23.74-.31 0-.38.49-1-.32-1.06-.63 0-1-.62-1.67-.59-.45 0-.12-.7.11-1.25.38 1.47 1.64 1.3 2.58 1.66.28.11.6.14.88.24.67.25 1.13.26.85-.72.42.19.43.53.48.81.07.46 0 .83-.63.55-.25-.11-.55-.12-.79-.24-.73-.35-.94 0-1 .66-.06.44.07.56.46.7a5.27 5.27 0 0 1 2.6 1.22zM176.71 168.34c-.31-.07-.27-.36-.35-.57s-.38-.28-.67-.32 0 .75-.38.21c-.15-.23-.1-.68.24-.66.63.05.62-.36.77-.75a.89.89 0 0 1 1.47-.47 1.76 1.76 0 0 1 .93 1.3 1.93 1.93 0 0 0 .92 1.73.65.65 0 0 1 .32.77 2.75 2.75 0 0 0-1.19-.88c0 1 .29 1.36 1.25 1.37-.26.56-.61.54-1 .19a1.39 1.39 0 0 1-.46-1.24c0-.31 0-.58-.35-.66s-.28.29-.36.48a3.09 3.09 0 0 1-1.32 1.39 2.23 2.23 0 0 0 .16-1.91c.07.05.15.09.21.14s.24.5.55.22c.15-.14.32-.35.16-.55a1 1 0 0 0-.8-.35c-.41.06.03.38-.1.56zm1.79-.35a1.72 1.72 0 0 0-1.25-1.86.72.72 0 0 0-.86.5c-.17.43.14.51.43.63.56.23 1.12.48 1.68.74zM114.27 110.25c0-.32-.32-.71 0-.93s.58.2.82.39c.39.3.75.63 1.12.94.09 0 .17.19.28.06s0-.2-.09-.27c.2-.19.17-.34 0-.54a4 4 0 0 1-.66-.87c-.3-.55-.58-1.23.06-1.64.45-.29.64.48 1 .64s.53 1 1.26.72c0 .2.2.46.13.58-.27.43-.47-.2-.77-.09-.17.36.29.67.1 1s-.57 0-.91 0a1.56 1.56 0 0 0 .08.38c.12.19.25.43.07.58s-.44-.09-.61-.22c-.51-.4-1-.82-1.49-1.22h-.24c-.17 1.23 1.1 1.6 1.42 2.58a4.27 4.27 0 0 0-.86-.69c-.46-.21-.58-1-1.34-.75-.1 0-.26-.36-.17-.53s.36-.07.54 0 .12.2.25.1.07-.13.01-.22zm3-.19a2.35 2.35 0 0 0-.86-2c-.17-.18-.35-.36-.61-.13s-.14.44 0 .65a3.71 3.71 0 0 0 1.44 1.48zM100.76 162.9c-.79-.75-.77-.81.17-1.27.65-.33 1.28-.7 2.06-1.13-1.16-.47-2.34-.13-3.44-.65 1.43-.58 3-.42 4.25-1.42.49.41.37.66-.34.81s-1.33.35-2.21.59c1 .42 1.92.15 2.82.48l-2.34 1.31c.63.25 1.14-.16 1.79 0a7 7 0 0 1-2.22.46c-.46.07-.68.23-.43.7zM172.5 170c-.36 2 1.29 2.84 2 4.17.12.22.3.14.45 0 .31-.28.58-.58.47-1a1.49 1.49 0 0 0-.51-.75.68.68 0 0 1-.32-.79c1.32 1 1.39 2.3.19 3.35-.55.47-1.23.82-1.47 1.76a1.35 1.35 0 0 1 .45-1.5c.62-.43.41-.75.07-1.25-.6-.9-1.5-1.63-1.72-2.77a.19.19 0 0 0-.11-.22c-.48-.19-.48-.22-.16-.5s.34-.32.66-.5zM187.77 156c-.59 0-.31-.43-.32-.65a1.68 1.68 0 0 0-1.39-1.77.28.28 0 0 1-.2-.42 8.81 8.81 0 0 1 .55-.89c.44 2.1 2.47 2.24 3.62 3.4.39-.38.05-.77.21-1.09a1.79 1.79 0 0 1-.45 2.42c-.8.45-1.39 0-1.87-.61l.14-.14a9.56 9.56 0 0 0 1 .43.71.71 0 0 0 .85-.38c.17-.37-.26-.4-.45-.55-.36-.27-.76-.49-1.13-.75s-.57-.1-.61.29a5.79 5.79 0 0 0 0 .72zM193.17 106.59c-.14-.11-.36-.2-.4-.35-.35-1.13-1-.82-1.82-.52a9.29 9.29 0 0 1-2.62.75c-.8.06-.79.19-.94-.64 1.66.72 3-.52 4.42-.87.32-.07.06-.84-.39-1a1.12 1.12 0 0 0-1 .09c-.29.15-.55.4-.91.18a1.86 1.86 0 0 1 3.07.51c.28.58.52 1.17.78 1.75zM179.54 163.49c0-.29-.29-.68 0-.86s.59.19.85.37.63.48 1 .73.33.25 1 .16c0 0 .14.08.17.14a.76.76 0 0 1 .07.7c-.08.18-.27.14-.39.05-.43-.29-.85-.6-1.27-.9l-1-.77c-.08 1.39 1.19 2 1.45 3.07-1.27-1.39-2.76-2.56-3.59-4.31l1.65 1.78.25.2c.01-.15-.07-.26-.19-.36zM99.4 149.4c-.29-.07-.63-.22-.56.31 0 .33.1.65.15 1-.57-.39-.47-1-.49-1.57 0-.38.16-.5.57-.48h2.57c.24 0 .48-.12.72-.1s.18-.58.51-.22c.1.1.22.3.18.39-.11.27-.43.14-.63.25s-.84-.23-.85.5a.85.85 0 0 0 1 .84c1.06-.27.37.47.53.73-.57-.73-1.42-.74-2.18-1-.53-.16-1.16-.1-1.53-.65.47.11.93.24 1.41.34.2.05.44.12.44-.23s0-.45-.29-.45a13.36 13.36 0 0 0-1.55 0c-.24.01.04.21 0 .34zM118 105.53a.42.42 0 0 1-.16-.67c.17-.2.39 0 .55.15.53.4 1.05.81 1.68 1.3.13-1.21-1-1.69-1.13-2.63a22.45 22.45 0 0 1 3 3.49 1.8 1.8 0 0 1 .14 1.91c-.07.12-.18.29-.35.16s-.2-.25 0-.38c.82-.66.31-1.24-.12-1.8-.27-.37-.6-.69-.9-1-.07-.08-.13-.23-.26-.12s0 .2 0 .29.2.43-.06.58-.35-.06-.48-.17c-.53-.41-1-.84-1.57-1.25-.22-.17-.43-.24-.3.19zM165.74 175.71c-.08-.35-.2-.7.16-.86s.55.16.78.36c.69.62.88 1.6 1.6 2.25a3.69 3.69 0 0 1 .15 1.64c-.07.71.28.6.69.36a1.62 1.62 0 0 0 .83-1.62c.25 1.23-.25 2-1.66 2.43 0-.39 0-.78-.06-1.15-.16-1.08-.25-1.13-1.2-.73-.14-.56 1-.8.33-1.53-.42-.42-.61-1.07-1.1-1.45-.26-.23-.44-.01-.52.3zM111.23 117.26a4.37 4.37 0 0 0-2.28-1.08c-.56 0-.91.15-.78.79.26 1.21 2.55 2.33 3.71 1.78 0 .73-.51.81-1 .71a3.75 3.75 0 0 1-2.9-2.41c-.34-.88.19-1.51 1.15-1.35a3.24 3.24 0 0 1 2.25 1.43zM187.34 156.79a.45.45 0 0 1 .3.7c-.23.32-.48 0-.69-.17a13.89 13.89 0 0 0-2.16-1.4c.11 1.44 1.3 2 2.09 2.86l-.21.21a12 12 0 0 0-1.47-1.1c-.37-.22-.57-.88-1.23-.57-.08 0-.33-.39-.2-.58.29-.43.5.08.76.12.08 0 .2.12.23.09s.06-.21-.06-.29c0-.4-.52-.87-.13-1.17s.75.23 1.08.45.89.64 1.34.95c.13.09.34.24.36-.11zM171.37 175.15a.69.69 0 0 1-.53.76c-.42.1-.43-.34-.59-.57-.36-.53-.68-1.08-1-1.63-.08-.12-.17-.3-.33-.16a.28.28 0 0 0-.06.25c0-.21-.47-.69 0-1s.41.5.76.59c.15 0 .11-.13.12-.2 0-.44-.26-1.08.23-1.24s.8.47 1 .88c.36.71.81 1.43.39 2.29a3.44 3.44 0 0 0-1-2.38.41.41 0 0 0-.3-.17c-.18 0-.19.19-.22.34a3.54 3.54 0 0 0 .5 1.9c.27.6.6.59 1.03.34zM100.17 137.64a3.29 3.29 0 0 1 .18-2.25c.17-.62.47.06.75.06a.81.81 0 0 0-.56 1c.21.52.87.51 1.34.58s.27-.63.59-.9c0 .07.15.15.15.22-.15 1.25.72 1.31 1.6 1.38.34 0 .33.18 0 1.05-.78-1.39-2.32-1.21-3.54-1.68-.46-.18-.27.3-.24.54zM111.91 113.83c-.43-.5.22-1.39-.67-1.75.58 0 .85.49 1.27.69.67.33 1 1.21 1.92 1.16.12 0 .32.34.16.54s-.41-.11-.64-.11c0-.08-.09-.16-.18-.09s0 .14 0 .22a6.17 6.17 0 0 1 .19.61c.08.41-.09.64-.49.43-.63-.34-1.29-.69-1.4-1.52l.21.14c.4.33.92 1.12 1.25.74s-.31-1-.73-1.46c-.18-.17-.37-.46-.68-.33s-.22.46-.24.73zM188.66 108.9c1.88-.44 3.63-1.46 5.66-1.31a1.37 1.37 0 0 1 1.44.89.33.33 0 0 1-.49 0c-.46-1-1.24-.69-2-.52a11.59 11.59 0 0 0-1.77.5 6.72 6.72 0 0 1-2.84.44zM198.59 119.78c-.25.11-.48 0-.5-.14-.21-.94-.92-.86-1.6-.8-1.31.12-2.62.28-3.93.43-.2 0-.44 0-.54.26s-.19.25-.34.12a.65.65 0 0 1-.22-.39c0-.17.16-.24.31-.26 1.07-.13 2.13-.24 3.2-.38a5.42 5.42 0 0 1 2.37 0c.57.22 1.17.38 1.25 1.16zM191.16 117.08c-.53-.63-.48-1 .26-1.38a7.37 7.37 0 0 1 3.37-.63c.7 0 .68-.28.43-.75a1.47 1.47 0 0 0 .1-.13c.3.08.42.33.54.57.25.51.21.75-.47.72a8.88 8.88 0 0 0-3.23.42c-.49.15-1 .33-.88 1zM164.09 176.59c.1-.43.13-.87.56-1s.72.29.92.62a3.7 3.7 0 0 1 .55 2.55c0 .24-.12.51-.42.52s-.35-.22-.45-.41a2.18 2.18 0 0 1-.1-1.53c.07-.36.41-.68-.06-1s-.68.07-1 .25zm1.13 1.29c0 .32.05.71.44.79s.29-.22.25-.44.09-.83-.32-.95-.34.33-.37.6zM193.29 147.65c-.79-.31-.94.3-1.15.76-.23-.1-.33-.25-.28-.45s.39-.59-.07-.77a6.68 6.68 0 0 0-2.19-.86c-.15 0 0 .79-.4.12-.08-.17-.16-.35 0-.51a.42.42 0 0 1 .51-.09c.53.23 1.05.5 1.6.68.35.11.68.69 1.11.13zM196.38 117.26c-1.08.16-2.17.29-3.23.52-.38.08-.86-.08-1.17.5-.16.32-.45-.35-.77-.49a22.94 22.94 0 0 1 5.15-.87zM107.38 126.44l-2.32-1.23c-.81-.42-1-.31-.93.63v.36a1.17 1.17 0 0 1-.24-1.42c.25-.61.48-1.22.72-1.84a.69.69 0 0 1 .1.84c-.45.75.09.89.58 1.19.73.45 1.72.52 2.17 1.4zM183 164.16c-.5-.55.48-.83.06-1.23a16.59 16.59 0 0 0-1.75-1.49c-.38-.27-.29.21-.41.38-.15-.32-.39-.65 0-.9s.57.12.8.3c.52.43 1 1.19 1.53 1.26.91.13.69.88 1.11 1.32-.64-.41-1.07-.22-1.34.36z"></path><path class="cls-1" d="M192.19 121.19c-.33.11-.46-.11-.48-.36s.19-.32.37-.35c.52-.07 1-.1 1.55-.21s.9.18 1.29-.41c.19-.3.67.59 1.31.31-.68.28-.92.68-.7 1.34a1.86 1.86 0 0 1-.32-.11c-.31-.18 0-.86-.57-.8-.82.1-1.7-.11-2.44.43v.18zM196.9 131.25c-.8-.1-.93.36-.87.94a.25.25 0 0 1-.35-.06c-.26-.24.18-.84-.38-.89a5.18 5.18 0 0 0-2.41-.11c-.21.08-.32.27-.46 0a.31.31 0 0 1 .26-.47h.82c.75-.09 1.51.59 2.3-.06.11-.12.71.4 1.09.65zM190.17 145.13c-.42 0-.48-.34-.45-.64 0-.12.27-.14.41-.07 1.61.77 3.43 1.13 4.8 2.38a35 35 0 0 1-3.42-1.39c-.33-.12-.61-.44-1-.26 0-.15-.06-.2-.18-.22s-.18.11-.2.23z"></path><path class="cls-3" d="M195.11 124.53l-2.89-.38v-.28h3.14l-.45-.52c.17-.14.31 0 .43 0s.6.23.61.6c0 .18-.18.22-.33.26s-.45 0-.51.27z"></path><path class="cls-1" d="M193.47 150.26a13.24 13.24 0 0 0-2.82-1.4 5.35 5.35 0 0 1-1.94-1.45c1.67.85 3.5 1.4 4.91 2.71zM169.5 177.2c-.27-.08-1.33.39-.38-.57.24-.25-.09-.56-.36-.72s-.61-.29-.88-.48a1.17 1.17 0 0 1-.26-1.75.52.52 0 0 1 .48-.2.25.25 0 0 1 .16.17c0 .25-.17.25-.35.31-.58.17-.39.5-.13.82a.61.61 0 0 0 .29.21c1.1.26 1.34 1.16 1.57 2.08zM195.86 128.76c.42.16.38.53.29.84s-.46.18-.71.16c-.64 0-1.28-.12-1.92-.17-.19 0-.46-.12-.42.26-.36 0-.69-.15-.66-.47s.45-.2.71-.21.31 0 .3-.22l1.56.39c.56.14.79-.07.86-.58zM113 116.87c-1-.16-1.42-1.26-2.49-1.21-.05 0-.14-.24-.17-.39a.17.17 0 0 1 .21-.22c1.15.36.35-.52.61-.79-.02 1.27 1.05 1.84 1.84 2.61zM193.49 143.27a2 2 0 0 1 .25.67c0 .5-.05.88-.8.6s-1.52-1-2.52-.78c-.13 0-.29-.23-.28-.43s.22-.25.41-.21a7.37 7.37 0 0 1 1.84.71c.85.49 1 .41 1.12-.59zM185 160a13 13 0 0 0-2-2l.23-.25c.7.55 1.39 1.11 2.1 1.64.09.07.37.52.4-.06a.47.47 0 0 1 .32.7c-.23.46-.53-.3-.83 0v-.19c0-.01-.16.09-.17.19zM103 156.22c.27-.08.5 0 .59.26 0 .05-.14.22-.22.23a14 14 0 0 1-4.78.09c1.16-.09 2.33-.16 3.49-.27.33 0 .75.13.94-.33zM188.61 149.62v.09a.24.24 0 0 1 0 .09 1.82 1.82 0 0 1-.38-.35c-.12-.2-.36-.42-.19-.65s.45 0 .64.07c.55.27 1.07.58 1.62.85.23.12.46.36.74.17s.28-.16.35 0a.68.68 0 0 1 0 .44c-.08.21-.3.19-.47.11l-2.19-1.1a.28.28 0 0 0-.14-.1h-.25l.1.14a.17.17 0 0 0 .17.24zM102.33 135.18c-.22 0-.4-.25-.37-.28.52-.35.46-.77.22-1.24 0 0 .08-.13.1-.12s.27.08.29.16a4.81 4.81 0 0 1 .12.76l-.2.09.11.09.08-.19c.7.47 1.49.78 2.23 1.21-.88.12-1.54-.62-2.4-.47 0-.08 0-.17-.07-.17s-.09.11-.14.17zM195.46 124.68c.3.09.62.24.56.59s-.43.25-.68.3-.23.06-.21.22l-2.73-.28v-.29h2.16c.3 0 .75.21.86-.34a.16.16 0 0 0 .04-.2zM105.27 141.82c-1.51-.44-3.14-.58-4.48-1.53 1.48.54 3.18.46 4.47 1.55zM194.5 126.85c-.52.2-1.12-.27-1.61.28-.17.19-.37-.13-.45-.29s.12-.32.3-.32h1.82c.33 0 .89.36 1-.38 0-.14.19 0 .28 0a.59.59 0 0 1 .33.42c0 .19-.16.27-.3.28-.46.02-.87.01-1.37.01zM189.78 110.71c-.28 0-.63 0-.65-.31s.33-.31.56-.37c.58-.18 1.18-.31 1.76-.49.21-.07.55-.05.58-.35s0-.39.25-.25a.86.86 0 0 1 .4.35c.08.16-.09.28-.23.33-.7.21-1.41.39-2.1.61-.24.08-.69 0-.59.49zM118.83 108.49a8.33 8.33 0 0 0-1.14-1c-.26-.17-.3-.93-.91-.44 0 0-.24-.31-.23-.53s.18-.18.34-.25c.7-.29.66.33.9.63.38.49.79 1 1.19 1.44zM184.44 161.36a.43.43 0 0 1 .15.68c-.23.23-.41-.11-.61-.22-.62-.35-.9-1.19-1.75-1.22.12-.08.13-.18 0-.26a.46.46 0 0 0-.21 0v.31c-.32-.23-.59-.59-.28-.89s.5.2.74.35c.62.39 1 1.12 1.74 1.3l.06.17.14-.17zM100.63 144.1c-.39-.44-.43-.76-.25-1s.5 0 .75 0c.68 0 1.31.49 2 .22.14-.05.28.12.31.27s-.13.2-.28.26c-.69.3-1.19-.22-1.78-.35-.38-.12-.83-.27-.75.6zM106.89 122.72a7.84 7.84 0 0 0 2.08 1.67l-.15.23-3.65-2.09.13-.26c.44.25.88.5 1.32.73s.42 0 .29-.3zM106.25 129.25a.48.48 0 0 1 .53.6c-.09.36-.4.09-.6 0-.59-.23-1.16-.48-1.75-.72-.1-.05-.21-.09-.27 0s0 .14.08.21l.14.25c-.28 0-.39-.26-.53-.44a.38.38 0 0 1-.06-.42c.12-.22.31-.14.47-.07.61.24 1.22.5 1.83.76.1.06.22.12.28 0s-.07-.11-.12-.17z"></path><path class="cls-1" d="M189.76 110.72a4.13 4.13 0 0 0 1.88.1v.23c0 .08-.37.2-.21.46v.21a.92.92 0 0 1-.24-.13c-.39-.39-.81-.35-1 .1s.29.59.6.8a1.16 1.16 0 0 1-1.18-.49c-.26-.42.16-.61.41-.87s-.32-.19-.26-.42zM195.14 121.93c.26.07.6.14.53.49s-.4.21-.64.23-.73 0-1.1 0-.34 0-1.12.46c-.12.07-.39-.1-.57-.2s-.28-.17-.23-.35.23-.19.38-.2l2.1-.1c.28 0 .65.11.66-.37zM113.13 112.24a.51.51 0 0 1-.37-.75c.22-.31.47.08.66.23.44.33.85.69 1.27 1s.43.18.36-.21c.09.16.19.3.27.46s.12.3 0 .41-.28 0-.4-.08l-1.64-1.3c-.1-.06-.2-.17-.28 0s.08.18.13.24zM109.34 122.51c-.08.32.36.5.2.89-.79 0-1.33-.63-2-1-.35-.16-.63-.33-.66.27-.16-.25-.44-.53-.21-.8s.54 0 .79.15a6.66 6.66 0 0 1 1.16.68c.4.33.51 0 .7-.2zM191.05 143c-.15-.19-.3-.37-.44-.57a.47.47 0 0 1-.06-.52c.14-.21.36-.19.57-.13a3.38 3.38 0 0 1 2.18 1.35l-1.45-.67c-.63-.3-1-.2-.83.58zM103 147.4c-.92.25-1.9-.21-2.7.43 0 0-.21-.09-.29-.17a.18.18 0 0 1 0-.3c.62-.38 1.37-.07 2-.42.27-.11.77.06.99.46zM104.38 129.65c.49.67 1.41.75 1.9 1.48a13.55 13.55 0 0 0-1.48-.61c-.33-.09-.65-.64-1.09-.07-.09.11-.28-.22-.3-.41s.07-.34.32-.32.5.39.66-.09zM100.81 142.42c-.11-.2-.44-.31-.28-.61s.39-.1.59-.12c.72-.07 1.42.5 2.15 0 .16-.11.41.17.42.38s-.25.22-.41.21c-.61-.05-1.22-.11-1.83-.2-.34-.05-.61 0-.66.38zM101.23 158.38c-.26 0-.55 0-.53-.34s.34-.15.53-.22c.7-.25 1.51.11 2.16-.43.15-.12.37 0 .44.21s-.17.27-.32.29c-.52.08-1 .1-1.55.18-.27 0-.65-.12-.75.32zM191.4 141.33c-.18-.38-.76-.7-.34-1.19s.91-.23 1.37-.08a1.41 1.41 0 0 1 .85.48c-.24.15-.74.08-.47.61h-.06v.06s-.1-.07-.12-.12c-.16-.39-.29-.82-.87-.67s-.17.67-.34 1zM101.76 155.1c.28-.09.34.19.52.29s.41 0 .58-.12.07-.42 0-.73c.35.17.65.31.6.7s-.39.46-.68.51a2.37 2.37 0 0 1-1.92-.31c.3-.16.92.47.94-.38zM105.92 132.22c-.55-.23-1.09-.48-1.64-.68-.27-.1-.49-.38-.84-.2s-.37-.12-.38-.31.19-.23.38-.21A9.19 9.19 0 0 1 106 132zM102.1 145.92a1 1 0 0 1 1 .29c-.64.25-1.35-.06-1.89.41a2.27 2.27 0 0 1-1.13-.32c.71-.39 1.46.06 2-.38zM193.29 128.74c-.49 0-.88-.34-.83-.74s.63-.35 1-.34a3 3 0 0 1 1.72.46l-.08.11c-.5 0-1-.13-1.51-.16-.66 0-.61.28-.31.69zM194.17 133.4a2.58 2.58 0 0 1-.31-.45.52.52 0 0 0-.66-.33c-.5.08-.47.48-.5.94-.24-.36-.57-.6-.38-1s.6-.35 1-.38c1-.07 1.24.36.86 1.24zM100.75 144.27c.6.14 1.06.26 1.53.36.19 0 .44.15.57-.1s.07-.39.31-.15a.72.72 0 0 1 .21.39c0 .22-.17.32-.36.32a3.27 3.27 0 0 1-2.26-.82zM105 132.76c-.39.17-.66-.18-1-.24a2.42 2.42 0 0 0-.89-.05c-.22.05-.06.47-.34.35s-.19-.3-.14-.49a.49.49 0 0 1 .57-.35 3.09 3.09 0 0 1 1.79.8zM105.09 133c.27.31.78.7.34 1.05-.66.52-1.26 0-1.82-.34.4-.57 1.72 1.15 1.5-.72z"></path><path class="cls-1" d="M109.35 122.53c-.2-.48-.78-.48-1.07-.85.3-.21.6-.67.83.1.06.2.41.14.66.11s0-.74.39-.24c.2.26.1.57-.27.73-.19.09-.43-.16-.55.13z"></path><path class="cls-3" d="M191.49 111.72v-.21c.45 0 1.11.68 1.22-.39l.1-.11c.34 0 .63.14.63.49s-.37.44-.66.48a1.46 1.46 0 0 1-1.29-.26z"></path><path class="cls-1" d="M102.9 153.19a1.34 1.34 0 0 0-1.17.4 1.11 1.11 0 0 1-1.37.2c1 .11 1.37-1.48 2.55-.68zM177.55 161.62a1.49 1.49 0 0 1-.13-1.48c.09-.19.19-.4.44-.41 0 0 .12.12.16.19s0 .33-.17.45a1.12 1.12 0 0 0-.3 1.25z"></path><path class="cls-3" d="M193.62 150.12a1.85 1.85 0 0 1 .74 1.2c0 .23.09.57-.22.6s-.39-.29-.29-.53c.19-.5-.12-.8-.38-1.13zM194 141.08c.33.24.71.62.36.94s-.93 0-1.3-.37l.11-.12c.31 0 .82.5.72-.34z"></path><path class="cls-1" d="M195.48 133.18c.42 0 .63.38.44.64-.4.54-.85 0-1.3-.08.3-.22 1 .17.88-.57zM194.54 135.93a2.16 2.16 0 0 1 1.66.64c-.5-.26-1.2.14-1.66-.64zM194.94 114c-.63-.2-1.25.49-2 0 .76-.24 1.38-.47 2 0zM190.08 154.33c-.37-.42-1.16-.29-1.37-1a1.83 1.83 0 0 1 1.37 1zM99 150.68c.57.23 1.21.07 1.77.33a1.47 1.47 0 0 1-1.75-.35zM187 149.74a3.58 3.58 0 0 1 .35.11c.28.12.71-.14.87.32 0 .13 0 .25-.12.27a1.27 1.27 0 0 1-1-.37c-.08-.07-.28-.17-.08-.34zM104.82 162.24l-.85-.68c.37.21.33-.44.58-.31s.39.55.27.99zM195.32 147.15a1 1 0 0 1 .31 1.35c-.67-.36-.12-.94-.29-1.37zM193.31 106.44c.66.62 1.22-.22 2.05-.15a1.77 1.77 0 0 1-2.19.3zM197.69 140.73c.24.06.32.26.41.45a.66.66 0 0 1-.06.76.26.26 0 0 1-.23 0c-.35-.19-.15-.44-.08-.69a1.64 1.64 0 0 0 0-.54zM107.49 126.35c.23.22.43-.36.58-.07s-.14.68-.34 1c-.39-.21-.09-.62-.35-.83zM100.87 162.8c.6.59 1.27-.21 2 .12a2.07 2.07 0 0 1-2.14 0zM100.68 155.25c-.38.17-.48-.12-.49-.37s.22-.27.4-.29a1.15 1.15 0 0 1 1 .32c-.36 0-.86-.32-.94.38zM108.39 120.56c-.31-.79-.59.83-.88 0-.06-.17-.08-.4.14-.47s.58.04.74.47zM101.26 145.42c-.34-.16-.78.14-1.16-.21.49-.32.82.01 1.16.21zM185.17 160c0 .41.49.88.05 1.17-.25.17-.43-.21-.33-.55a6.18 6.18 0 0 0 .11-.62h.2zM106 142.35a.89.89 0 0 1 .23 1.07c-.17.29-.36 0-.29-.56 0-.18 0-.35.07-.53z"></path><path class="cls-3" d="M102.9 153.19c.21 0 .31.16.4.31a.47.47 0 0 1 0 .59.29.29 0 0 1-.23.07c-.29-.12-.13-.34-.11-.54a1.1 1.1 0 0 0-.06-.43z"></path><path class="cls-1" d="M104.34 126.37a1.35 1.35 0 0 1 1.26.7c-.62-.18-1-.28-1.24-.72zM104.49 121.59a.84.84 0 0 1-.24-1h.16c.4.26-.01.59.08 1z"></path><path class="cls-3" d="M102.06 138.64a1.85 1.85 0 0 1-1.41-.47c.63-.01 1.06-.17 1.41.47z"></path><path class="cls-1" d="M98.1 156.54c-.46 0-.56-.26-.59-.67.51 0 .5.39.58.69z"></path><path class="cls-3" d="M191.68 111.05v-.23a1.41 1.41 0 0 1 1.15.19l-.1.11zM176.74 171c.54.12.8.23.81.67-.41-.06-.55-.31-.81-.67zM176.79 170.11l.09.9c-.4-.33-.41-.6-.09-.9z"></path><path class="cls-1" d="M173.57 177.05c.37.15.62.28.55.71a.69.69 0 0 1-.55-.71zM190.52 145.14c-.21 0 0 .33-.26.26a.18.18 0 0 1-.09-.27c.13 0 .26.22.38 0zM191.39 141.35c.21-.18.31 0 .4.19l-.39-.21zM169.64 177.07c.1.13.35.29.19.42s-.24-.15-.33-.29z"></path><path class="cls-3" d="M100.17 137.64h.23c0 .09.09.18.14.27a.6.6 0 0 1-.08.08.46.46 0 0 1-.29-.35z"></path><path class="cls-1" d="M102.51 135.19l-.08.23-.1-.24h.2zM195.15 121.92h-.33v-.07l.3.12z"></path><path class="cls-3" d="M195.46 124.68a.16.16 0 0 1 0 .16c-.13-.07-.31-.1-.33-.31.13-.01.27-.02.33.15z"></path><path class="cls-1" d="M185.69 159.36l-.08-.24c.2 0 .07.16.07.25zM101.21 158.39l.16.07c-.11.09-.09-.06-.14-.08zM195.22 114.32l-.28-.3a.27.27 0 0 1 .39.15 1.47 1.47 0 0 1-.11.15zM111.38 117.13l.25.3a.57.57 0 0 0-.11.11l-.29-.28zM182.23 160.6l-.07.22-.1-.23h.19zM184.26 161.35l.11-.25.07.26h-.19zM187.35 156.78l-.08-.22c.19 0 0 .15.07.23zM192.17 121.21l.23.09s-.08.07-.12.06-.16 0-.09-.17zM187.92 156.39c-.15-.09-.26-.2-.15-.39.19 0 .22.14.31.24zM103.05 156.2l-.22-.11h.08c.1 0 .17 0 .12.16zM195.18 128.12c.13.06.31.06.3.27-.16 0-.31 0-.4-.15zM193.48 130c-.13-.06-.34 0-.37-.19l.39.19z"></path><path class="cls-3" d="M193.73 140.84a.34.34 0 0 1 .29.24l-.11.11-.27-.27zM192.91 141.47a.25.25 0 0 1-.19-.3v-.06h.06l.18.25z"></path><path class="cls-1" d="M105.26 141.84c.12-.11.21 0 .3 0s0 .08 0 .08-.23 0-.26-.15zM100.79 142.43h.22-.22zM101.21 146.62h.23c-.12.13-.18.05-.22-.07zM194.93 146.8a.17.17 0 0 1 .19.19c-.13 0-.28 0-.18-.18zM102.11 145.9v-.07-.05.14zM101.73 145.61h0c.06 0-.01-.02 0 0zM195.34 147.13c-.17.08-.22 0-.21-.16l.2.16zM193.3 143.09l.19.18-.14.07c0-.08 0-.16-.05-.23zM191 143h.13v.11l-.14-.08zM173.49 176.81v.12c0 .04 0 0-.06.06a.61.61 0 0 1 0-.12zM106 142.33h-.13v-.11l.12.09zM186.89 149.52c-.06.06-.12.09-.18 0l.14.07z"></path><path class="cls-3" d="M193.08 141.65l-.17-.18.09-.09.19.15z"></path><path class="cls-1" d="M187 149.73h-.19v-.19l.15.21z"></path><path class="cls-3" d="M193.57 140.72l.16.12-.09.08a.12.12 0 0 1-.14-.07.1.1 0 0 1 .07-.13z"></path><path class="cls-1" d="M197.71 140.71c-.14 0-.22 0-.18-.18a.16.16 0 0 1 .18.19zM193.28 140.54l.29.18a.1.1 0 0 0-.07.13c-.08-.1-.34-.09-.21-.33z"></path><path class="cls-3" d="M100.54 137.9a1.44 1.44 0 0 1 .14.15c-.11.13-.17 0-.22-.07a.6.6 0 0 0 .08-.08z"></path><path class="cls-1" d="M194.15 133.42h.18-.14zM103.41 133.43l-.09-.06h.07c.07 0 0 .04.02.06zM195.5 133.17l-.13-.09h.11v.13zM104.93 132.78l.16.21c-.13 0-.29 0-.16-.21zM193.49 130.04v.02l-.01-.04.01.02zM101.58 154.91c.11 0 .21 0 .18.19l-.18-.19zM193.47 128.93c-.1 0-.23 0-.18-.19.11 0 .23 0 .17.18zM195.67 128.58c.16-.05.19 0 .19.18-.15 0-.17-.08-.19-.19z"></path><path class="cls-1" d="M195.48 128.39c.13 0 .23 0 .19.19-.11 0-.2 0-.18-.18zM100.86 155.44c-.08 0-.26 0-.18-.19l.18.19zM104.36 126.35c-.12 0-.18-.06-.2-.17.16 0 .23 0 .2.17zM195.13 125.79l.08.1h-.05a.28.28 0 0 1 0-.09zM104.49 122.58v.06l-.08-.06.06-.06zM104.89 122.13l.21.07v.08l-.15-.16z"></path><path class="cls-1" d="M104.7 122c.16 0 .23 0 .19.17a.16.16 0 0 1-.19-.18zM104.72 121.94l-.12-.09h.09a.76.76 0 0 1 0 .15zM111.63 117.43c0 .07.05.18 0 .2s-.12 0-.13-.09a.57.57 0 0 1 .13-.11zM98.09 156.56l.12.08h-.1v-.11zM191.28 117c.08 0 .17.07.1.17s-.14 0-.22-.05zM112.09 114c-.19.08-.16-.08-.18-.18.18-.06.17.07.19.18zM115.05 112.55l-.04-.02.03.02h.01zM111.08 111.71c.08.08.21.15 0 .26 0 0-.1-.1-.16-.15a.57.57 0 0 0 .16-.11z"></path><path class="cls-1" d="M111 111.82s-.14-.14-.13-.15.17 0 .24 0a.57.57 0 0 1-.11.15zM110.69 111.3s.06 0 .06.07 0 0-.06.07-.06 0-.06-.07.04-.04.06-.07zM118.01 105.55l-.01.02-.01-.04.02.02zM142.21 198.15c1.3-1.58 1.91-1.6 2.61-.07a16.14 16.14 0 0 1-2.61.07zM111.87 197.76l.87-.69c.19.26.34.58.14.77s-.54-.06-1.01-.08zM188.49 198.48c-.5-.36-1.15-.28-1.17-.93 0-.22.28-.61.53-.52.57.21.48.81.64 1.45zM139.51 208.28a3.37 3.37 0 0 1 0-.55c.07-.36-.25-.88.24-1a1.39 1.39 0 0 1 1.49.45 2 2 0 0 1-.14 2.44 1.39 1.39 0 0 1-1.35.37c-.51-.17-.16-.69-.24-1a3.31 3.31 0 0 1 0-.71zM165.72 209c0 .45 0 .94-.6 1s-.74-.44-.75-.95.14-1 .7-1 .66.45.65.95zM119 209.47a.61.61 0 0 1-.55.62.37.37 0 0 1-.47-.41c0-.44.39-.49.71-.55s.31.13.31.34zM177.29 209.33c0 .49-.19.71-.53.76a.39.39 0 0 1-.49-.4c0-.37.31-.48.62-.55s.4.06.4.19zM132.1 210.11c-.27-.07-.48-.2-.41-.5s.4-.43.71-.47.33.19.3.41a.59.59 0 0 1-.6.56zM183.47 208.59c-.21-.05-.56.13-.54-.25a.54.54 0 0 1 .58-.47c.3 0 .58.15.57.45s-.4.19-.61.27zM173.45 198.16c-.52-.1-1 .28-1.19-.37-.06-.3-.09-.85.29-.86.58 0 .65.62.9 1.23z"></path><path class="cls-2" d="M139 133.68a16.91 16.91 0 0 1-1.16 1.25 5 5 0 0 1-8.1-2.52 13.59 13.59 0 0 1-.35-3.65v-11.14a24.26 24.26 0 0 0-.19-3.3 1.44 1.44 0 0 1 .51-1.44c.37-.32.68-.71 1-1.06.66-.7.86-.66 1.13.31a9.67 9.67 0 0 1 .21 2.74c0 4.48-.11 9 .05 13.43a6.76 6.76 0 0 0 .55 2.59 3.08 3.08 0 0 0 5.14 1 9.13 9.13 0 0 0 1.51-2.18c.21-.37.41-.76.63-1.12s.41-.5.76-.37.37.46.32.78-.21.9-.28 1.35a2 2 0 0 0 2 2.43h26a18.49 18.49 0 0 0 7.59-2.17c-2.21-.71-3.94-2.09-6.12-2.31a4.85 4.85 0 0 0-3.79 1.05c-.18.15-.31.57-.65.29a1 1 0 0 1-.35-.9 1.78 1.78 0 0 1 1-1.34c2.82-1.45 5.85-2.1 8.76-.69a24.13 24.13 0 0 0 10.5 2.22h.71l-1.46 2.56c-.13.24-.35.2-.56.21a26.29 26.29 0 0 0-9.59 2.73 14.84 14.84 0 0 1-6.8 1.59c-8.5-.06-17 0-25.49 0-1.58.03-3.01-.27-3.48-2.34zM149.66 147.25c-.52 1.22-1 2.28-1.41 3.35a37.43 37.43 0 0 0-1.58 4.21c-.16.6-.51 1.34.27 1.72s1.32-.23 1.73-.83a25 25 0 0 0 2.5-5.21c.12-.31.22-.64.35-.94.32-.72.26-1.79.9-2.13a5.24 5.24 0 0 1 2.35-.07c1.79 0 1.8 0 1.13 1.73q-1.74 4.41-3.49 8.8a13.47 13.47 0 0 1-4.48 6.17 7.72 7.72 0 0 1-2.54 1.25 4.17 4.17 0 0 1-4.84-2.26c-.1-.2-.32-.44-.06-.65s.42.09.58.24c1.88 1.69 3.88 1.52 5.38-.49a10.85 10.85 0 0 0 1.81-3.81 3.84 3.84 0 0 1-5-.88c-.31-.34-.47-.08-.67.1a4.2 4.2 0 0 1-2.61 1.2 3.63 3.63 0 0 1-3.22-1.44c-.31-.38-.52-.46-.82-.05l-.07.06c-1.27 1.06-2.61 1.93-4.34 1.14a4.89 4.89 0 0 1-2.59-4.64 8.1 8.1 0 0 1 6-7 3.9 3.9 0 0 1 3.4.63c.22.16.42.44.59 0 .1-.26.35-.21.56-.21h3.81c-.49 1.27-.95 2.42-1.39 3.59s-1 2.58-1.41 3.88a4.1 4.1 0 0 0-.16 1 .79.79 0 0 0 .41.86.83.83 0 0 0 1-.24 2.54 2.54 0 0 0 .84-1.38 29 29 0 0 1 2.57-7.06c.15-.31.28-.58.73-.57 1.11-.05 2.38-.07 3.77-.07zm-16.89 8.29c.06.5-.08 1 .39 1.24s.76-.16 1-.43a11 11 0 0 0 3.1-6.68c0-.39.07-.86-.34-1.08s-.81.16-1.09.45a11.1 11.1 0 0 0-3.06 6.5zM169 147.5c-.69 1.68-1.34 3.22-2 4.77a21.41 21.41 0 0 0-1.12 3.21c-.11.48-.2 1 .36 1.29a1.08 1.08 0 0 0 1.39-.37 2.53 2.53 0 0 0 .57-.82 30.45 30.45 0 0 1 2.17-5.07l-1.62-.1c.32-1 .64-1.85.92-2.75.17-.52.6-.39.92-.34.93.17 1.36-.23 1.65-1.1a27.94 27.94 0 0 0 1.46-4.24c.07-.4.24-.5.61-.49 1 0 2.09.07 3.13.06.62 0 .64.2.41.69-.73 1.65-1.42 3.31-2.12 4.93.17.26.37.18.54.18 1.62.05 1.62.05 1.12 1.55s-.54 1.62-2.31 1.59a.88.88 0 0 0-1 .64c-.47 1.3-1.09 2.54-1.43 3.88-.09.37-.27.85.12 1.11s.77-.05 1.09-.28a16.11 16.11 0 0 0 3.85-3.92c.19-.27.29-.73.7-.53a.72.72 0 0 1 .21 1.05 18.6 18.6 0 0 1-1.68 2.63 10.84 10.84 0 0 1-3.53 3.17c-1.58.83-3.14 1.13-4.52-.38-.31-.33-.47-.09-.67.09a3.83 3.83 0 0 1-5.82-.41c-.28-.38-.45-.25-.71 0a5.6 5.6 0 0 1-1.73 1.2 3 3 0 0 1-3.51-.48 5 5 0 0 1-1.56-5.42 7.88 7.88 0 0 1 5.62-5.69 3.77 3.77 0 0 1 3.42.5c.27.19.51.48.78 0 0-.09.27-.12.41-.12zm-5.88 2.5c0-.41 0-.88-.37-1.09s-.77.13-1 .4a11 11 0 0 0-3.13 6.76c0 .37-.05.86.39 1s.71-.13 1-.38a11.32 11.32 0 0 0 3.11-6.69z"></path><path class="cls-2" d="M134.9 137.06a58.51 58.51 0 0 0-4.53 8.84 37 37 0 0 0-2.79 11.76c0 .42-.14.59-.58.58-1.45 0-2.89-.05-4.33 0-.75 0-.7-.31-.6-.83a42.33 42.33 0 0 1 1.71-6.48c.24-.68.12-.85-.59-.82h-3.31a.82.82 0 0 0-.93.64 14.55 14.55 0 0 1-3.2 5.21 6.33 6.33 0 0 1-7.19 1.53c4.1-2.06 5.59-5.8 6.51-9.92a12.86 12.86 0 0 1 10.27-10.29c.33-.06.66-.1 1.25-.18a24.33 24.33 0 0 0-3.06 3.44 24.81 24.81 0 0 0-3 5.46c-.19.48-.16.65.4.64h4c.57 0 .72-.32.92-.71a22 22 0 0 1 4.64-6.24 11.8 11.8 0 0 1 4.41-2.63zM137.79 114.19c.67 2.42 2.09 3.59 4.73 3.81a83.76 83.76 0 0 0 9.1.18q9.75-.25 19.5-.44a10.44 10.44 0 0 1 4.24.68 7 7 0 0 1 4 4.32c.39 1.09.08 1.81-1 2.57a4.49 4.49 0 0 0-3.76-3.67 13.46 13.46 0 0 0-1.91-.23c-5.31-.37-10.61 0-15.91.07-3.8 0-7.6.2-11.4.27a14 14 0 0 1-3.65-.37 7 7 0 0 1-4.83-4.3 2.07 2.07 0 0 1 .89-2.89z"></path><path class="cls-3" d="M156.83 174.05a30 30 0 0 1-5.47 3.16 37.2 37.2 0 0 1-11.94 3.43 31.85 31.85 0 0 1-15.42-2.23c-6.17-2.47-9.76-7.28-12-13.27a13.13 13.13 0 0 1-1-4.18c.18.51.36 1 .55 1.52a21.94 21.94 0 0 0 7.77 9.8 30.82 30.82 0 0 0 16.5 6.05 41.88 41.88 0 0 0 18.54-3.33 10 10 0 0 1 2.46-1zM184.19 111.65a23.79 23.79 0 0 0-3.15-5.58 26.84 26.84 0 0 0-11.42-8.25c-6.62-2.71-13.41-2.82-20.29-1.23a45 45 0 0 0-10.5 3.86 4.29 4.29 0 0 1-.58.26c-.05 0-.11 0-.25-.07a20.65 20.65 0 0 1 3.19-2.17 36.62 36.62 0 0 1 14.9-5.19 28.88 28.88 0 0 1 18.1 3.5 20.53 20.53 0 0 1 7.47 8.2 24.57 24.57 0 0 1 2.53 6.67z"></path><path class="cls-2" d="M123.65 125.28a7.14 7.14 0 0 0-3.87-.29c-.36.07-.61.13-.78-.33a3.31 3.31 0 0 0-2.06-2 8.87 8.87 0 0 1 7.21 1.13.75.75 0 0 0 1.21-.17 14.48 14.48 0 0 1 1.28-1.32c.44-.42.89-1.2 1.58-.61s-.09 1.09-.41 1.56a19.11 19.11 0 0 1-1.31 1.66.62.62 0 0 0 0 .94c2.76 3.57-.59 8.29-3.58 9-2.15.54-3.88-1.39-3.33-3.71a8.81 8.81 0 0 1 2-3.58c.59-.72 1.3-1.44 2.06-2.28zm1 1.84a17.79 17.79 0 0 0-2 2.53 2.52 2.52 0 0 0-.46 1.19c0 .5.15.81.68.68a3.22 3.22 0 0 0 2.31-1.8 2.39 2.39 0 0 0-.51-2.6zM135.14 139.55a7 7 0 0 1 1.29-2.07 1.44 1.44 0 0 1 2.14-.09c.69.53 1.14.36 1.52-.31s.77-.7 1.36-.22a19.09 19.09 0 0 0 2 1.37c.38.24.55.47.15.83 0 0-.07.1-.11.15-.44.55-.78 1.37-1.35 1.57s-1.18-.58-1.76-.95c-.41-.26-.64-.21-.91.14s-.4.39-.55.62c-.31.47-.61.46-1 .11a8.93 8.93 0 0 0-1.25-.77 3.26 3.26 0 0 0-1.53-.38zM118.7 120.19a3.92 3.92 0 0 1 .64-1.19c1-1.49 1.51-1.67 3-.72.71.45.94 0 1.2-.41.43-.67.84-.8 1.49-.23a15.56 15.56 0 0 0 2 1.36c.4.25.41.48.1.78a1.84 1.84 0 0 0-.17.22c-.45.53-.82 1.35-1.38 1.52s-1.14-.58-1.69-1a.55.55 0 0 0-.9.15c-.19.24-.44.43-.62.68s-.53.37-.89.09a7.35 7.35 0 0 0-1.34-.81 11.35 11.35 0 0 0-1.44-.44z"></path><path class="cls-3" d="M110.77 160.35a.91.91 0 0 0-.07.14.47.47 0 0 1-.06-.15.61.61 0 0 1 .07-.14zM184.42 112.27l-.07.13c0-.05-.06-.1-.06-.14s0-.09.07-.14zM137.69 101a.35.35 0 0 1-.39.17c.06-.17.19-.2.35-.21zM156.82 174l.08-.11c.12.12 0 .09-.07.12zM137.3 101.13l-.08.09h.08zM137.66 100.93l.11-.12c.13.13 0 .12-.08.15z"></path><path class="cls-2" d="M178.5 168c-.56-.25-1.12-.5-1.68-.73-.29-.12-.6-.2-.43-.63a.72.72 0 0 1 .86-.5 1.72 1.72 0 0 1 1.25 1.86zM176.71 168.34c.13-.18-.31-.5.1-.56a1 1 0 0 1 .8.35c.16.2 0 .41-.16.55-.31.28-.38-.09-.55-.22s-.14-.09-.21-.14zM117.24 110.06a3.71 3.71 0 0 1-1.5-1.46c-.11-.21-.22-.44 0-.65s.44 0 .61.13a2.35 2.35 0 0 1 .89 1.98zM116.41 110.44c.1.07.18.15.09.27s-.19 0-.28-.06zM114.27 110.25c.06.09.13.19 0 .27s-.18 0-.25-.1zM188.06 156.25c-.09-.1-.12-.27-.31-.24a5.79 5.79 0 0 1 0-.72c0-.39.23-.55.61-.29s.77.48 1.13.75c.19.15.62.18.45.55a.71.71 0 0 1-.85.38 9.56 9.56 0 0 1-1.03-.43zM179.54 163.49c.12.1.2.21.08.36l-.25-.2zM99.4 149.4c0-.13-.24-.33 0-.36a13.36 13.36 0 0 1 1.55 0c.32 0 .29.23.29.45s-.24.28-.44.23c-.48-.1-.94-.23-1.41-.34zM120.42 106.2c-.07-.09-.19-.18 0-.29s.19 0 .26.12zM184.7 156.66c.12.08.17.19.06.29s-.15 0-.23-.09zM171.37 175.15c-.43.25-.76.26-1-.29a3.54 3.54 0 0 1-.5-1.9c0-.15 0-.33.22-.34a.41.41 0 0 1 .3.17 3.44 3.44 0 0 1 1 2.38zM112.08 114c0-.11 0-.24-.19-.18 0-.27-.08-.59.24-.73s.5.16.68.33c.42.42 1.13 1 .73 1.46s-.85-.41-1.25-.74zM113.79 114.49c0-.08-.05-.2 0-.22s.15 0 .18.09zM165.22 177.88c0-.27.09-.68.37-.6s.27.61.32.95.05.5-.25.44-.41-.47-.44-.79zM190.52 145.14c-.12.23-.25 0-.38 0 0-.12 0-.24.2-.23s.22.09.18.23zM195.5 128.38c0 .14.07.17.18.18s0 .21.19.19c-.07.51-.34.72-.86.58s-1-.26-1.56-.39c.06-.17-.06-.17-.17-.18-.3-.41-.35-.73.31-.69.5 0 1 .11 1.51.16.09.17.24.17.4.15zM185.19 160.06H185c0-.1 0-.23.17-.19s.01.13.02.19zM188.46 149.41l-.1-.14h.25z"></path><path class="cls-2" d="M188.61 149.27a.28.28 0 0 1 .14.1l-.14.25a.17.17 0 0 1-.15-.21zM102.52 135.2h-.21c0-.06.09-.17.14-.17s.11.09.07.17zM102.68 134.45l-.08.19-.11-.09.2-.09zM182.24 160.61H182v-.31a.46.46 0 0 1 .21 0c.16.13.15.23.03.31zM184.25 161.34h.2l-.14.17zM106.25 129.25c0 .06.16.14.14.17s-.18.1-.28 0zM104.24 129.4c0-.07-.1-.15-.08-.21s.17-.09.27 0zM191.68 111.05l1 .07c-.11 1.07-.77.41-1.22.39-.15-.26.19-.29.22-.46zM113.13 112.24c0-.06-.14-.15-.13-.19s.18-.07.28 0zM193.29 140.52c-.13.24.13.23.21.33a.12.12 0 0 0 .14.07l.27.27c.1.84-.41.38-.72.34l-.19-.15-.18-.25c-.27-.53.23-.46.47-.61zM100.84 155.46l-.18-.19c.08-.7.58-.36.94-.38l.18.19c-.02.85-.64.22-.94.38z"></path><path class="cls-1" d="M132.77 155.54a11.1 11.1 0 0 1 3.09-6.5c.28-.29.63-.69 1.09-.45s.38.69.34 1.08a11 11 0 0 1-3.1 6.68c-.27.27-.6.63-1 .43s-.36-.78-.42-1.24zM163.12 150a11.32 11.32 0 0 1-3.18 6.73c-.26.25-.59.54-1 .38s-.43-.67-.39-1a11 11 0 0 1 3.13-6.76c.27-.27.62-.62 1-.4s.42.63.44 1.05zM124.67 127.12a2.39 2.39 0 0 1 .51 2.6 3.22 3.22 0 0 1-2.31 1.8c-.53.13-.72-.18-.68-.68a2.52 2.52 0 0 1 .46-1.19 17.79 17.79 0 0 1 2.02-2.53z"></path></svg> 