<?xml version="1.0" encoding="UTF-8"?> <svg xmlns="http://www.w3.org/2000/svg" id="Layer_1" data-name="Layer 1" viewBox="0 0 300 300"><defs><style>.cls-2{fill:#fff}</style></defs><path fill="#e1150a" d="M50 116.67h200v66.66H50z"></path><path class="cls-2" d="M100.86 158.28c.23.19.4.35.59.5a7.22 7.22 0 0 0 3.4 1.42 11.46 11.46 0 0 0 4.48-.16 9.76 9.76 0 0 0 3-1.31c.55-.35 1.09-.72 1.67-1.11l4.47 3.44-.25.29a13.57 13.57 0 0 1-3.62 2.62 18.53 18.53 0 0 1-5.72 1.85 16.79 16.79 0 0 1-4.25.08 15.33 15.33 0 0 1-5.36-1.47 12.32 12.32 0 0 1-7-9.22 13.35 13.35 0 0 1 1.06-8.37 12.75 12.75 0 0 1 7.61-6.72 15.67 15.67 0 0 1 10.28.2 11.7 11.7 0 0 1 6.78 6.78 16 16 0 0 1 1 3.53.83.83 0 0 1 0 .16zm-1.9-4.6l12.26-5.09a.53.53 0 0 0 0-.14 6 6 0 0 0-2.54-2.73 6.23 6.23 0 0 0-4.38-.56 6.33 6.33 0 0 0-4.8 4 8.7 8.7 0 0 0-.55 4.25 1.67 1.67 0 0 0 .05.27zM164.13 139.34a14 14 0 0 1 8.88 3.1 12.7 12.7 0 0 1 4.67 8.12 13.17 13.17 0 0 1-8.8 14.6 14.72 14.72 0 0 1-5.85.8 13.83 13.83 0 0 1-7.74-2.82 12.66 12.66 0 0 1-5-8.27 13.17 13.17 0 0 1 8.71-14.65 15.31 15.31 0 0 1 5.13-.88zm-7 13.1a8.18 8.18 0 0 0 .37 2.59 6.79 6.79 0 0 0 7.41 4.81 6.27 6.27 0 0 0 4.95-3.32 7.77 7.77 0 0 0 .8-5.41 6.86 6.86 0 0 0-7.91-5.57 6.34 6.34 0 0 0-4.54 3 7.61 7.61 0 0 0-1.06 3.9zM218.47 139.34a14.17 14.17 0 0 1 7.85 2.29 13.19 13.19 0 0 1 2.78 19.59 13.46 13.46 0 0 1-7.25 4.37 14.69 14.69 0 0 1-4.72.35 13.64 13.64 0 0 1-9.2-4.43 12.52 12.52 0 0 1-3.19-6.72 12.82 12.82 0 0 1 2.75-10.37 13.41 13.41 0 0 1 7.49-4.66 14.72 14.72 0 0 1 3.49-.42zm-6.9 13.17a7.82 7.82 0 0 0 .36 2.48 6.82 6.82 0 0 0 7.42 4.86 6.28 6.28 0 0 0 4.84-3.14 7.66 7.66 0 0 0 .89-5.69 6.84 6.84 0 0 0-7.89-5.48 6.33 6.33 0 0 0-4.46 2.91 7.58 7.58 0 0 0-1.16 4.06zM128.54 165.51c-.27.06-6.76.07-7.08 0v-25.67c.23-.07 6.74-.08 7.08 0v3.56a3 3 0 0 0 .21-.23 10.4 10.4 0 0 1 6-3.57 10.94 10.94 0 0 1 7.29.91 9.31 9.31 0 0 1 5.07 6.48 11.28 11.28 0 0 1 .3 2.65v15.91h-7.1V150.94a5.07 5.07 0 0 0-2.23-4.3 6 6 0 0 0-1.63-.83 6.27 6.27 0 0 0-5.23.48 5.16 5.16 0 0 0-2.64 4.43v14.79zM195.11 165.53h-7.79q-5.28-12.84-10.59-25.72h7.82c.29 0 .29 0 .39.29.95 2.6 1.9 5.19 2.84 7.79l3.3 9a1 1 0 0 0 .14.28q3.21-8.69 6.36-17.38h8.11q-5.29 12.91-10.58 25.74zM68.12 165.56v-33.41c.23-.07 6.5-.1 7.17 0V159h16v6.48l-.18.05h-23z"></path></svg> 