<?xml version="1.0" encoding="UTF-8"?> <svg xmlns="http://www.w3.org/2000/svg" id="Layer_1" data-name="Layer 1" viewBox="0 0 300 300"><defs><style>.cls-1{fill:#e14612}.cls-2{fill:#12110c}</style></defs><path class="cls-1" d="M67.6 161.78l10.33-17c3.15-5.17 8.07-6.55 13.68-6.55h5.51l-10.33 17c-3.16 5.17-8.08 6.55-13.69 6.55M85.19 161.78l10.33-17c3.16-5.17 8.08-6.55 13.69-6.55h5.5l-10.33 17c-3.15 5.17-8.07 6.55-13.68 6.55M50 161.78l14.37-23.51h15.15l-10.33 17c-3.15 5.17-8.07 6.55-13.68 6.55"></path><path class="cls-2" d="M130.33 162.26c-5.18 0-10-2.55-10-8.33h5c0 3.12 2.42 4.33 5.18 4.33"></path><path class="cls-2" d="M130.53 158.26c1.8 0 4.55-.52 4.55-2.92s-3.5-3-7-3.86-7-2.27-7-6.66c0-4.79 4.52-7.08 8.75-7.08 4.89 0 9.38 2.13 9.38 7.54h-5c-.17-2.82-2.17-3.54-4.63-3.54-1.64 0-3.54.69-3.54 2.65s1.12 2 7 3.54c1.7.43 6.95 1.51 6.95 6.82 0 4.3-3.38 7.51-9.74 7.51M143.68 161.71v-23.42h17.35v4.33h-12.21v5.02h11.19v4h-11.19v5.74h12.27v4.33M187.23 161.71v-23.42h16.46v4.33h-11.31v5.41h9.8v4h-9.8v9.68M216.25 137.74c-7.25 0-11.51 5.41-11.51 12.36 0 6.75 4.26 12.16 11.51 12.16s11.51-5.41 11.51-12.16c0-6.95-4.26-12.36-11.51-12.36zm0 20.19c-4.62 0-6.36-3.93-6.36-7.83 0-4.1 1.74-8 6.36-8s6.36 3.93 6.36 8c0 3.9-1.74 7.83-6.36 7.83zM241.84 149.47l7.5-11.18h-5.63l-4.76 7.48-4.59-7.48h-5.97l7.55 11.15-8.2 12.27h5.8l5.21-8.1 5.12 8.1H250l-8.16-12.24zM176.39 138.29h-5.28l-8.88 23.42h5.21l1.84-5.22H178l1.77 5.22h5.35zm-5.77 14.37l3-8.6h.07l2.95 8.6z"></path></svg> 