<svg id="Layer_1" data-name="Layer 1" xmlns="http://www.w3.org/2000/svg" xmlns:xlink="http://www.w3.org/1999/xlink" viewBox="0 0 300 300"><defs><style>.cls-1{fill:url(#linear-gradient);}.cls-2{fill:url(#linear-gradient-2);}.cls-3{fill:url(#linear-gradient-3);}.cls-4{fill:url(#linear-gradient-4);}.cls-5{fill:url(#linear-gradient-5);}.cls-6{fill:url(#linear-gradient-6);}.cls-7{fill:url(#linear-gradient-7);}.cls-8{fill:url(#linear-gradient-8);}.cls-9{fill:url(#linear-gradient-9);}.cls-10{fill:url(#linear-gradient-10);}.cls-11{fill:url(#linear-gradient-11);}.cls-12{fill:#d71b2d;stroke-miterlimit:10;stroke-width:0.69px;}.cls-12,.cls-13{stroke:#a1242d;}.cls-13{fill:none;stroke-linejoin:round;stroke-width:2.08px;}</style><linearGradient id="linear-gradient" x1="149.44" y1="2603.34" x2="187.63" y2="2603.34" gradientTransform="matrix(1, 0, 0, -1, 0, 2752)" gradientUnits="userSpaceOnUse"><stop offset="0" stop-color="#ef8292"/><stop offset="1" stop-color="#d96a65"/></linearGradient><linearGradient id="linear-gradient-2" x1="153.19" y1="2598.79" x2="183.88" y2="2598.79" xlink:href="#linear-gradient"/><linearGradient id="linear-gradient-3" x1="146.22" y1="2612.45" x2="190.85" y2="2612.45" xlink:href="#linear-gradient"/><linearGradient id="linear-gradient-4" x1="160.55" y1="2638.75" x2="176.52" y2="2638.75" xlink:href="#linear-gradient"/><linearGradient id="linear-gradient-5" x1="146.01" y1="2617.03" x2="190.99" y2="2617.03" xlink:href="#linear-gradient"/><linearGradient id="linear-gradient-6" x1="147.27" y1="2607.89" x2="189.8" y2="2607.89" xlink:href="#linear-gradient"/><linearGradient id="linear-gradient-7" x1="153.22" y1="2635.24" x2="183.84" y2="2635.24" xlink:href="#linear-gradient"/><linearGradient id="linear-gradient-8" x1="160.46" y1="2595.26" x2="176.61" y2="2595.26" xlink:href="#linear-gradient"/><linearGradient id="linear-gradient-9" x1="147.28" y1="2626.12" x2="189.79" y2="2626.12" xlink:href="#linear-gradient"/><linearGradient id="linear-gradient-10" x1="149.46" y1="2630.68" x2="187.61" y2="2630.68" xlink:href="#linear-gradient"/><linearGradient id="linear-gradient-11" x1="146.22" y1="2621.57" x2="190.84" y2="2621.57" xlink:href="#linear-gradient"/></defs><title>mansour-echo-scan</title><path class="cls-1" d="M149.44,146.89a22.4,22.4,0,0,0,2.74,3.55h32.7a23.07,23.07,0,0,0,2.75-3.55Z"/><path class="cls-2" d="M178.83,155a22.27,22.27,0,0,0,5-3.56H153.19a22.52,22.52,0,0,0,5,3.56Z"/><path class="cls-3" d="M146.22,137.77a23,23,0,0,0,.73,3.56h43.17a23,23,0,0,0,.73-3.56Z"/><path class="cls-4" d="M176.52,114a22.4,22.4,0,0,0-16,0Z"/><path class="cls-5" d="M146,135a12.89,12.89,0,0,0,.08,1.76h44.83c0-.58.07-1.17.07-1.76a13.63,13.63,0,0,0-.08-1.8H146.12C146.08,133.81,146,134.41,146,135Z"/><path class="cls-6" d="M147.27,142.33a22.18,22.18,0,0,0,1.58,3.56h39.37a23.1,23.1,0,0,0,1.58-3.56Z"/><path class="cls-7" d="M158.3,115a22.72,22.72,0,0,0-5.08,3.55h30.62a22.89,22.89,0,0,0-5.07-3.55Z"/><path class="cls-8" d="M160.46,156a22.49,22.49,0,0,0,16.15,0Z"/><path class="cls-9" d="M148.87,124.1a23.15,23.15,0,0,0-1.59,3.56h42.51a22.22,22.22,0,0,0-1.59-3.56Z"/><path class="cls-10" d="M152.22,119.54a22.15,22.15,0,0,0-2.76,3.56h38.15a22.15,22.15,0,0,0-2.76-3.56Z"/><path class="cls-11" d="M147,128.66a22.61,22.61,0,0,0-.74,3.55h44.62a22.59,22.59,0,0,0-.73-3.55Z"/><path class="cls-12" d="M62.51,202.13c0-.64.48-1.06,1.43-1.25l.84-.15v-17.6l-.84-.15a2.06,2.06,0,0,1-1.09-.44,1,1,0,0,1-.34-.81c0-.41.17-.62.5-.62H80v4.36a.46.46,0,0,1-.4.53h-.13a.72.72,0,0,1-.62-.38,3.82,3.82,0,0,1-.44-1.18l-.31-1.34H67.9v7.6h8.37l.41-1.34q.31-.93.81-.93c.33,0,.5.15.5.46v5.58c0,.31-.17.47-.5.47s-.6-.32-.81-.94l-.41-1.34H67.9v8.1H78.52l.31-1.43a3.75,3.75,0,0,1,.43-1.17.74.74,0,0,1,.6-.36.46.46,0,0,1,.53.4.29.29,0,0,1,0,.13v4.42H63c-.33,0-.5-.2-.5-.62Zm26.14-.25a9.18,9.18,0,0,1-3.8-3.81,14.33,14.33,0,0,1,0-12.27A9.17,9.17,0,0,1,88.56,182a10.74,10.74,0,0,1,5.2-1.28,12.66,12.66,0,0,1,4,.64,9.54,9.54,0,0,1,3.11,1.7v3.8c0,.37-.2.56-.59.56a.79.79,0,0,1-.65-.31,2.44,2.44,0,0,1-.41-1l-.5-2.15a6.18,6.18,0,0,0-1.93-.85,9.37,9.37,0,0,0-2.58-.33,7.32,7.32,0,0,0-4,1.06,6.88,6.88,0,0,0-2.66,3.11,11.62,11.62,0,0,0-1,5,11.47,11.47,0,0,0,1,5,7.09,7.09,0,0,0,2.78,3.13,7.8,7.8,0,0,0,4.08,1.06,8.33,8.33,0,0,0,4.89-1.24,2.63,2.63,0,0,1,.49-.33,1,1,0,0,1,.41-.11.74.74,0,0,1,.57.27.8.8,0,0,1,.27.63c0,.48-.33.93-1,1.34a9.7,9.7,0,0,1-2.53,1.06,13.13,13.13,0,0,1-3.48.44,11.54,11.54,0,0,1-5.43-1.3Zm15.84.65a.92.92,0,0,1-.16-.56,1,1,0,0,1,.38-.81,1.71,1.71,0,0,1,1-.28h.78V183H105a.52.52,0,0,1-.47-.22,1,1,0,0,1-.16-.59.92.92,0,0,1,.38-.78,1.64,1.64,0,0,1,1-.28h5.92c.29,0,.44.16.44.47s-.34.78-1,1l-1.46.41v7.53H120.9V183h-1.71a.52.52,0,0,1-.47-.22,1,1,0,0,1-.16-.59.92.92,0,0,1,.38-.78,1.64,1.64,0,0,1,1-.28h5.91c.27,0,.41.16.41.47a.76.76,0,0,1-.19.54,1.49,1.49,0,0,1-.62.36L124,183v18l1.47.46a1.68,1.68,0,0,1,.62.36.79.79,0,0,1,.19.55c0,.31-.14.46-.41.46h-6.69a.52.52,0,0,1-.47-.22,1.06,1.06,0,0,1,.22-1.37,1.78,1.78,0,0,1,1-.28h.93v-8.34H109.63V201l1.46.4c.66.17,1,.49,1,1,0,.31-.15.46-.44.46H105A.52.52,0,0,1,104.49,202.53Zm29.3-.6a8.45,8.45,0,0,1-3.58-3.76,15.66,15.66,0,0,1,0-12.45,8.64,8.64,0,0,1,3.58-3.77,11.76,11.76,0,0,1,10.56,0,8.69,8.69,0,0,1,3.58,3.77,15.66,15.66,0,0,1,0,12.45,8.5,8.5,0,0,1-3.58,3.76A12,12,0,0,1,133.79,201.93Zm10.45-3.19c1.2-1.58,1.8-3.85,1.8-6.79a11.1,11.1,0,0,0-1.8-6.79,6.82,6.82,0,0,0-9.61-.78,7.18,7.18,0,0,0-.78.78,11.16,11.16,0,0,0-1.79,6.79c0,2.94.6,5.21,1.79,6.79a6.9,6.9,0,0,0,9.74.65A6.65,6.65,0,0,0,144.24,198.74Zm11.58,3.86a10.75,10.75,0,0,1-3.47-1.47V196.9c0-.35.19-.53.56-.53a.81.81,0,0,1,.69.33,3.39,3.39,0,0,1,.46,1.19l.47,1.94a6.49,6.49,0,0,0,2.24.93,12.33,12.33,0,0,0,2.84.34,7.84,7.84,0,0,0,3.66-.78,2.64,2.64,0,0,0,1.47-2.52,3.23,3.23,0,0,0-.54-1.93,4.93,4.93,0,0,0-1.71-1.43,30.63,30.63,0,0,0-3.44-1.59,18.33,18.33,0,0,1-4.91-2.82,4.85,4.85,0,0,1-1.7-3.81,4.6,4.6,0,0,1,2.12-4.13,9.25,9.25,0,0,1,5.17-1.39,12.74,12.74,0,0,1,3.88.61,9.75,9.75,0,0,1,3.16,1.61v4a.59.59,0,0,1-.14.38.51.51,0,0,1-.39.15.86.86,0,0,1-.7-.32,3.2,3.2,0,0,1-.48-1.23l-.47-1.9a6.17,6.17,0,0,0-2-.92,9.51,9.51,0,0,0-2.6-.33,5.82,5.82,0,0,0-3.13.76,2.54,2.54,0,0,0-1.23,2.32,2.63,2.63,0,0,0,.61,1.76,5.57,5.57,0,0,0,1.66,1.31c.71.38,1.77.89,3.18,1.51l.65.28a21,21,0,0,1,3.43,1.78,6.7,6.7,0,0,1,2,2.07,5.5,5.5,0,0,1,.73,2.94,4.72,4.72,0,0,1-2.24,4.27,10.75,10.75,0,0,1-5.76,1.4,17,17,0,0,1-4.07-.55Zm20.19-.72a9.18,9.18,0,0,1-3.8-3.81,14.33,14.33,0,0,1,0-12.27,9.17,9.17,0,0,1,3.71-3.82,10.74,10.74,0,0,1,5.2-1.28,12.66,12.66,0,0,1,4,.64,9.54,9.54,0,0,1,3.11,1.7v3.8c0,.37-.2.56-.59.56a.81.81,0,0,1-.66-.31,2.57,2.57,0,0,1-.4-1l-.5-2.15a6.18,6.18,0,0,0-1.93-.85,9.39,9.39,0,0,0-2.59-.33,7.32,7.32,0,0,0-4,1.06,6.88,6.88,0,0,0-2.66,3.11,11.76,11.76,0,0,0-.95,5,11.47,11.47,0,0,0,1,5,7.13,7.13,0,0,0,2.77,3.13,7.8,7.8,0,0,0,4.08,1.06,8.33,8.33,0,0,0,4.89-1.24,2.7,2.7,0,0,1,.5-.33,1,1,0,0,1,.41-.11.77.77,0,0,1,.57.27.8.8,0,0,1,.27.63c0,.48-.34.93-1,1.34a9.76,9.76,0,0,1-2.54,1.06,13.11,13.11,0,0,1-3.47.44,11.46,11.46,0,0,1-5.47-1.3Zm15.06.65a1.1,1.1,0,0,1,.22-1.37,1.78,1.78,0,0,1,1-.28H193l7.23-19.77h3.49L211,200.92l1.28.31a1.66,1.66,0,0,1,.76.35.81.81,0,0,1,.24.61c0,.38-.14.56-.41.56H206a.58.58,0,0,1-.49-.22.86.86,0,0,1-.17-.56,1,1,0,0,1,.38-.81,1.71,1.71,0,0,1,1-.28h1.16L206,195.93h-8.8l-1.78,5,1.81.43a1.75,1.75,0,0,1,.82.34.74.74,0,0,1,.24.56c0,.34-.14.5-.41.5h-6.35A.54.54,0,0,1,191.07,202.53Zm14.23-8.62-3.67-10.18L198,193.91Zm10.85,8.62A.93.93,0,0,1,216,202a1,1,0,0,1,.37-.81,1.78,1.78,0,0,1,1-.28h.81V183.13l-.84-.21a2.91,2.91,0,0,1-1.06-.44.86.86,0,0,1-.31-.72.62.62,0,0,1,.16-.49.52.52,0,0,1,.37-.16h4.55L231,195.43a16.68,16.68,0,0,1,1.78,3.4V183H231a.55.55,0,0,1-.47-.22,1,1,0,0,1-.15-.59.93.93,0,0,1,.37-.78,1.64,1.64,0,0,1,1-.28h5.35c.29,0,.44.16.44.47a.74.74,0,0,1-.3.56,2.27,2.27,0,0,1-.79.4l-1.25.41v19.8h-2.89L222.06,188a14.72,14.72,0,0,1-1.49-3v15.86l1.62.43c.66.19,1,.5,1,.94s-.14.46-.43.46h-6.15a.52.52,0,0,1-.46-.15Z"/><path class="cls-13" d="M98.72,132.42l4.45-16.57,11,36.51s15.65-55.54,16.27-55.54,20.4,75.33,20.4,75.33L160.4,135h43.88"/></svg>