<?xml version="1.0" encoding="UTF-8"?> <svg xmlns="http://www.w3.org/2000/svg" data-name="Layer 1" viewBox="0 0 300 300"><path d="M133.53 147h-1.81v-7.26h2.08c1.57 0 2.09 1.16 2.09 3.68s-.58 3.54-2.36 3.54m9.16 16.55v-7.78c0-3.69-1.31-5.84-4.13-6.34 3.27-.87 4.17-3.61 4.17-7.12 0-5-1.78-8-7.56-8h-10.34v32.07h6.89v-13.93h1.7a2.36 2.36 0 0 1 2.44 2.67v8.53a6.22 6.22 0 0 0 .48 2.74h7a5.16 5.16 0 0 1-.62-2.79M65.44 160.9a4.12 4.12 0 0 0 1.45-3.44v-4.8h-6.7v6.51a1.69 1.69 0 0 1-1.68 1.69 1.64 1.64 0 0 1-1.62-1.69v-18.43a1.64 1.64 0 0 1 1.62-1.69 1.69 1.69 0 0 1 1.68 1.69v6.55h6.69v-6.8c0-3.75-2.45-6.84-8.43-6.84S50 136.75 50 140.5v19.25a6.53 6.53 0 0 0 6.73 6.53h2.07zM240.24 147h-1.83v-7.22h2.09c1.57 0 2.09 1.16 2.09 3.68S242 147 240.24 147m9.15 16.55v-7.78c0-3.69-1.31-5.83-4.12-6.34 3.27-.86 4.16-3.61 4.16-7.12 0-5-1.79-8-7.56-8h-10.34v32.07h6.9v-14h1.69c1.66 0 2.43 1.15 2.43 2.67v8.54a6.17 6.17 0 0 0 .49 2.74h7a5.37 5.37 0 0 1-.61-2.8M217.19 154.8l1.79-15 1.79 15zm6.4-20.6h-9.26l-5.5 32.14h7l.69-5.67h5l.68 5.68h7zM177.42 166.33v-32.06h7.06v25.98h7.36v6.08h-14.42zM166.62 134.28h7.06v32.06h-7.06z"></path><path d="M177.42 166.33v-32.06h7.06v25.98h7.36v6.08h-14.42zM193.54 166.33v-32.06h7.06v25.98h7.36v6.08h-14.42zM155.06 147.94h-2.1v-8.13h2.09c1.79 0 2.09 1.22 2.09 4.16s-.3 4-2.08 4m1.78-13.66h-10.76v32.07H153v-12.76h3.86c6.34 0 7.41-4 7.41-9.67s-1.07-9.67-7.41-9.67M112.9 140.38v6.36h7.31v6.28h-7.31v7.12l8.69-.01v6.19l-15.76.01v-32.06h15.47v6.11h-8.4zM91.84 161.66v-21.15h-4.62v-6.23h16.72v6.23H99.3v25.73h-1.99l-5.47-4.58z"></path><path fill="#ffc400" d="M94.83 166.29l-16.28-13.65-16.88 13.65h33.16z"></path><path d="M76.75 149l1.8-9.21 1.79 9.21zm6.44-14.65h-9.32l-5.44 24.35 10.12-8.17 10.55 8.84z"></path></svg> 