<?xml version="1.0" encoding="UTF-8"?> <svg xmlns="http://www.w3.org/2000/svg" id="Layer_1" data-name="Layer 1" viewBox="0 0 300 300"><defs><style>.cls-1{fill:#17468b}</style></defs><g id="layer1"><g id="g6120"><path id="path2033" class="cls-1" d="M114.59 195.09l-.13-3.21h-12.83l-.14 3.21a.79.79 0 00.2 0c.36 0 .6-.49.85-.91a2 2 0 012.09-1.09h1.65v13.59a9.65 9.65 0 013.5 0v-13.55h1.65a2 2 0 012.16 1.16c.22.4.47.82.8.82a.68.68 0 00.2 0"></path><path id="path2037" class="cls-1" d="M125.37 200.57c0 1.91-.47 5.21-3 5.21-2.85 0-3.34-2.87-3.34-5.12 0-2.07.47-5.22 3.14-5.22s3.2 3.06 3.2 5.13zm3.5.11c0-4-2.56-6.44-6.53-6.44-3.63 0-6.82 2.32-6.82 6.17 0 4.1 2.57 6.6 6.6 6.6 3.79 0 6.75-2.41 6.75-6.33"></path><path id="path2041" class="cls-1" d="M139.47 203.15c0 1.72-.85 2.45-2.5 2.45-.93 0-1.33-.09-1.33-.84v-3.88h.44a10.92 10.92 0 011.63.11 2.07 2.07 0 011.76 2.16zm-.71-5.7c0 1.76-.92 2.27-2.57 2.27a5 5 0 01-.55 0V196c0-.33.13-.38.69-.38 1.14-.02 2.43.27 2.43 1.83zm4.18 5.93c0-2.12-2.09-3.3-4-3.46a3 3 0 003-2.78c0-1.43-1.29-2.14-2.56-2.39a15 15 0 00-3.12-.2H131c0 .43.58.65.84.94a2.78 2.78 0 01.51 2v9.25h5.13a7.77 7.77 0 003.65-.58 3 3 0 001.8-2.76"></path><path id="path2045" class="cls-1" d="M152 201.9h-3.83l2-4.74zm5.33 4.82L153 196c-.38-1-.63-1.45-1.56-1.45h-3.59c0 .67 1.18.52 1.18 1.45a4.44 4.44 0 01-.4 1.34l-4 9.38h1.51l1.49-3.5h4.86l1.36 3.5a8.15 8.15 0 011.69-.14 12.36 12.36 0 011.81.14"></path><path id="path2049" class="cls-1" d="M169.72 197.92l-.13-2.77a7.19 7.19 0 00-3.48-.82c-3.65 0-6.92 2.41-6.92 6.28 0 4.06 3.05 6.31 6.88 6.31a5.63 5.63 0 003.58-1.07v-1.78a4 4 0 01-3 1.49c-2.85 0-4-2.63-4-5.13 0-2.27 1.14-4.92 3.68-4.92a2.51 2.51 0 011.6.47 3 3 0 01.85 1.38.78.78 0 00.69.62.4.4 0 00.22-.06"></path><path id="path2053" class="cls-1" d="M183.15 197.92l-.13-2.77a7.19 7.19 0 00-3.48-.82c-3.65 0-6.93 2.41-6.93 6.28 0 4.06 3.06 6.31 6.89 6.31a5.65 5.65 0 003.58-1.07v-1.78a4 4 0 01-3 1.49c-2.85 0-4-2.63-4-5.13 0-2.27 1.14-4.92 3.68-4.92a2.51 2.51 0 011.6.47 3 3 0 01.85 1.38.78.78 0 00.69.62.4.4 0 00.22-.06"></path><path id="path2057" class="cls-1" d="M195.89 200.57c0 1.91-.47 5.21-3 5.21-2.85 0-3.34-2.87-3.34-5.12 0-2.07.47-5.22 3.14-5.22s3.2 3.06 3.2 5.13zm3.5.11c0-4-2.57-6.44-6.53-6.44-3.63 0-6.82 2.32-6.82 6.17 0 4.1 2.56 6.6 6.6 6.6 3.78 0 6.75-2.41 6.75-6.33"></path><path id="path2061" class="cls-1" d="M59.38 179.74c0 2.09-1 3.14-2.83 3.14-1.09 0-1.56-.11-1.56-1v-5h.53a4.06 4.06 0 013.3 1.13 2.9 2.9 0 01.56 1.73zm-.85-6.82c0 2-1 2.7-2.89 2.7a2.81 2.81 0 01-.65-.05v-4.72c0-.4.15-.49.8-.49a2.47 2.47 0 012.74 2.56zM63.1 180c0-2.58-2.43-3.94-4.57-4.14a3.57 3.57 0 003.41-3.45c0-1.76-1.47-2.63-2.94-2.92a16.34 16.34 0 00-3.56-.24H50c0 .51.74.8 1 1.13a3.53 3.53 0 01.54 2.41v11.29h5.26a8.66 8.66 0 004.18-.69A3.78 3.78 0 0063.1 180"></path><path id="path2065" class="cls-1" d="M72.93 175.24c0 1.42-.56 2.6-2.16 2.6-.53 0-1.11 0-1.11-.6v-4.12a4.41 4.41 0 011.2-.11 2.11 2.11 0 011.45.49 2.35 2.35 0 01.62 1.74zM79.7 184c0-.07 0-.09-.13-.12l-.38-.06A4.68 4.68 0 0177 182.3c-.69-.69-1.56-1.78-2.56-2.94l-1.12-1.29c1.23-.43 2.92-1.47 2.92-3.17a2.54 2.54 0 00-.73-1.82c-1.07-1-2.74-1.16-4.32-1.16H65c0 .47.47.49.85.91a2.68 2.68 0 01.53 1.92v9.33a8.85 8.85 0 011.67-.13 8.49 8.49 0 011.61.13v-5.19a1.31 1.31 0 01.91.42c1 1 2.2 3.41 3.79 4.28a7.38 7.38 0 003.14.6 19.38 19.38 0 002.11-.11.12.12 0 00.09-.13"></path><path id="path2069" class="cls-1" d="M85.08 184.08v-11.81a.31.31 0 00-.33-.35h-4.32c0 .42.44.47.82.91a2.76 2.76 0 01.56 2v9.24a9.05 9.05 0 011.63-.13 9.48 9.48 0 011.64.13"></path><path id="path2073" class="cls-1" d="M99 174.72l-.09-2.8H88.15l-.15 2.83h.15c.25 0 .43-.25.58-.53a1.66 1.66 0 011.85-1.12h1.27v11a9.76 9.76 0 011.65-.13 10.37 10.37 0 011.62.13v-11h1.28a1.7 1.7 0 011.91 1.18c.13.27.31.45.51.45a.27.27 0 00.16 0"></path><path id="path2077" class="cls-1" d="M105.34 184.08v-11.81a.31.31 0 00-.33-.35h-4.33c0 .42.45.47.83.91a2.76 2.76 0 01.56 2v9.24a8.86 8.86 0 011.62-.13 9.68 9.68 0 011.65.13"></path><path id="path2081" class="cls-1" d="M117.34 180.72c0-4.12-5.48-3.79-5.48-6.42 0-1 1-1.51 1.87-1.51a2.7 2.7 0 011.22.26 2.22 2.22 0 011 1.16c.27.65.47.92.87.92a.37.37 0 00.2-.07l-.2-2.74a7.71 7.71 0 00-3.18-.62 6.8 6.8 0 00-2.94.62 3.21 3.21 0 00-1.94 2.76c0 4.17 5.37 3.63 5.37 6.46a1.72 1.72 0 01-1.92 1.58c-1.69 0-2.8-1.13-3.69-2.47v2.76a7.85 7.85 0 003.92.92c2.71 0 4.9-1.34 4.9-3.61"></path><path id="path2085" class="cls-1" d="M132.1 184.08v-12.16h-3.27v4.92H124v-4.59a.31.31 0 00-.33-.33h-4.3c0 .47.49.49.89 1a2.94 2.94 0 01.47 1.89v9.27a8.37 8.37 0 011.67-.13 7.91 7.91 0 011.6.13v-5.92h4.88v5.92a8.37 8.37 0 011.67-.13 7.85 7.85 0 011.6.13"></path><path id="path2089" class="cls-1" d="M150.79 178.29h-4.7l2.5-6.08zm5.71 5.79L151.55 171c-.42-1.15-.76-1.75-1.83-1.75h-3.65c0 .82 1.23.53 1.23 1.75a5.28 5.28 0 01-.47 1.65L142 184.08h1.69l1.78-4.39h5.8l1.58 4.39a8.69 8.69 0 011.73-.16 10.52 10.52 0 011.88.16"></path><path id="path2093" class="cls-1" d="M174.25 184.08l-1.65-8.78a14 14 0 01-.27-2.36 2 2 0 01.22-1h-2.33c-.76 0-.94.31-1.25 1l-2.74 5.9-2.9-6.37c-.18-.42-.29-.51-.75-.51h-3.68c0 .35.33.53.71.82a1.58 1.58 0 01.63 1.32 6.68 6.68 0 01-.11.87l-2 9.15h1.49l1.8-8.58 3.79 8.78 4.12-8.95 1.69 8.75a9.6 9.6 0 011.67-.13 9.29 9.29 0 011.61.13"></path><path id="path2097" class="cls-1" d="M186.37 181.47a.54.54 0 00-.2 0c-.76 0-.31 1.38-2.49 1.38h-2.74v-4.65h4.25v-1.34h-4.25v-3.69h3.43a2.33 2.33 0 011.38.4l-.07-1.65h-9.4c0 .44.45.51.83.91a2.65 2.65 0 01.55 1.94v8.31c0 .91.07 1 1 1h6.88c.49 0 .58-.4.65-1.07l.15-1.54"></path><path id="path2101" class="cls-1" d="M196 175.24c0 1.42-.56 2.6-2.16 2.6-.54 0-1.12 0-1.12-.6v-4.12A4.55 4.55 0 01194 173a2.13 2.13 0 011.45.49 2.35 2.35 0 01.55 1.75zm6.8 8.76c0-.07 0-.09-.13-.12l-.38-.06a4.68 4.68 0 01-2.16-1.47c-.69-.69-1.56-1.78-2.56-2.94l-1.12-1.29c1.23-.43 2.92-1.47 2.92-3.17a2.54 2.54 0 00-.73-1.82c-1.07-1-2.74-1.16-4.33-1.16h-6.21c0 .47.47.49.85.91a2.68 2.68 0 01.53 1.92v9.33a8.85 8.85 0 011.67-.13 8.33 8.33 0 011.6.13v-5.19a1.32 1.32 0 01.92.42c1 1 2.2 3.41 3.78 4.28a7.45 7.45 0 003.15.6 19.38 19.38 0 002.11-.11.12.12 0 00.09-.13"></path><path id="path2105" class="cls-1" d="M208.18 184.08v-11.81a.31.31 0 00-.33-.35h-4.32c0 .42.44.47.82.91a2.76 2.76 0 01.56 2v9.24a9 9 0 011.62-.13 9.52 9.52 0 011.65.13"></path><path id="path2109" class="cls-1" d="M222.12 175.28l-.14-2.76a7 7 0 00-3.47-.82c-3.65 0-6.93 2.4-6.93 6.28 0 4.05 3 6.3 6.88 6.3a5.66 5.66 0 003.59-1.07v-1.78a4 4 0 01-3 1.49c-2.85 0-4-2.63-4-5.12 0-2.27 1.13-4.92 3.67-4.92a2.54 2.54 0 011.61.46 2.86 2.86 0 01.84 1.38c.14.41.41.63.69.63a.37.37 0 00.23-.07"></path><path id="path2113" class="cls-1" d="M231.47 179.27h-3.83l2-4.75zm5.32 4.81l-4.3-10.71c-.37-1-.62-1.45-1.56-1.45h-3.58c0 .67 1.18.51 1.18 1.45a4.78 4.78 0 01-.4 1.33l-4.06 9.38h1.52l1.49-3.5h4.86l1.36 3.5a8.81 8.81 0 011.7-.08 12.11 12.11 0 011.8.13"></path><path id="path2117" class="cls-1" d="M250 184.08v-12.16h-1.54l.14 8.13-6.35-7.73a.88.88 0 00-.8-.4H238c0 .42.57.64.84.94a2.59 2.59 0 01.54 2v9.24h1.51l-.11-8.6 5.55 6.86a5.45 5.45 0 001.24 1.18 4 4 0 002.12.56h.31"></path></g><path id="path2121" d="M150.56 106.46l-2.1 48.27L139.3 131l4.78 24-14.88-19.92 10.49 20.49-36.83-26 32.45 27.05-20.71-7.71 16.64 9.58c-15.48 0-34-12.24-39.7-37.63 0 0 33.08.38 44.13 15.09-2.08-20.72 12.22-40.25 14.89-42.92 2.66 2.67 17 22.2 14.89 42.92 11-14.71 44.13-15.09 44.13-15.09-5.69 25.39-24.23 37.63-39.7 37.63l16.64-9.58-20.71 7.71 32.44-27.05-36.82 26 10.49-20.49L157 155l4.77-24-9.16 23.71-2.09-48.27" fill="#fab41d"></path></g></svg> 