<?xml version="1.0" encoding="UTF-8"?> <svg xmlns="http://www.w3.org/2000/svg" id="Layer_1" data-name="Layer 1" viewBox="0 0 300 300"><defs><style>.cls-1{fill:#c29f53;fill-rule:evenodd}</style></defs><path class="cls-1" d="M150 213.89c55.23 0 100-28.6 100-63.89s-44.77-63.89-100-63.89S50 114.71 50 150s44.77 63.89 100 63.89z"></path><path d="M150 208.33c52.16 0 94.44-26.12 94.44-58.33S202.16 91.67 150 91.67 55.57 117.79 55.57 150s42.28 58.33 94.43 58.33z" stroke="#fff" fill="none" stroke-miterlimit="2.61" stroke-width=".78"></path><path d="M150 205.56c50.63 0 91.67-24.88 91.67-55.56s-41-55.56-91.67-55.56S58.33 119.32 58.33 150s41.05 55.56 91.67 55.56z" fill="#fff" fill-rule="evenodd"></path><path d="M150 204.72c49.86 0 90.29-24.5 90.29-54.72S199.86 95.28 150 95.28 59.71 119.78 59.71 150s40.43 54.72 90.29 54.72z" stroke="#e20613" fill="none" stroke-miterlimit="2.61" stroke-width=".78"></path><path class="cls-1" d="M202.34 122.69a8.39 8.39 0 015-2.34c12.73-1 14.24 22.21 3.15 24.74-11.66 2.65-15.37-16.31-8.15-22.4zm-.86 22.31a13.69 13.69 0 009 1.6 14.59 14.59 0 009.81-6.48c4.18-6.38 1.43-14.67-3.21-18.26a13.23 13.23 0 00-9.63-3.15 13.61 13.61 0 00-6.91 2.59c-8.46 6-8.14 18.64 1 23.7zM158.78 122.69a38.33 38.33 0 01-.06 5.37c-.2 2.64 0 5.37 0 8 0 1.45.06 4.82.06 4.82s.76.77 1.05 1.11c1.27 1.43 4.54 3.85 6.7 4.25a17.6 17.6 0 002.31.12 11.17 11.17 0 004.07-.18c1.3-.49 1.91-2.73 2.1-4.22 0-.37.26-.69-.37-.72-.27.38-.51.82-.8 1.18a6.25 6.25 0 01-3.89 1.91 42.57 42.57 0 01-4.59.16 2.77 2.77 0 01-2.32-.75c-1.1-1.09-.7-7.94-.49-10.76 3.71-.42 6.95-1.12 9.44-2.72.46-.3 1-.39.67-.86a14.92 14.92 0 00-2.59.61 22.46 22.46 0 01-3.39.41c-1.49.06-2.68 0-4.13 0 0-1.82-.15-3.6 0-5.49.09-1.25 0-3.12.61-3.88s2.22-.63 3.64-.44a8.69 8.69 0 012.29.56 3.23 3.23 0 011.29 1 5.34 5.34 0 01.68 2.16c.17 0 .29.23.55-.06.25-1.7.49-3.38.68-5.06a3.09 3.09 0 00-1.41-.13c-4.95.73-9.18.31-14.07.31 0 .11-.27.32 0 .5 1.34.62 1.8.93 1.94 2.77zM99.49 120a2.42 2.42 0 011.54 1.6 18.15 18.15 0 01.12 4.14c0 4-.3 8.19 0 12.21a25 25 0 01-.12 6.54 1.54 1.54 0 01-1.36 1.24c-.77.12-.92 0-1 .86a56.93 56.93 0 006-.18c3.08-.08 6 .28 9 .06a6.73 6.73 0 001.6-.16c1.65-.53 2.07-2.92 2.47-4.72a1.72 1.72 0 00-.56-.24 10.33 10.33 0 01-.86 1.29 5.85 5.85 0 01-3.64 2c-1.56.3-5.24.34-6.42-.31-1.4-.78-1.29-3-1.29-5.18l-.07-1.61c.12-1.43.13-2.81.13-4.32 1.77-.41 3.75-.59 5.43-1.11a23.59 23.59 0 004.93-2.34c-.49-.43-.39-.28-1-.06a25.44 25.44 0 01-5.19.74 24.05 24.05 0 01-4.07 0 43.18 43.18 0 01-.06-6.24c.07-1 0-2.35.49-3 .78-1 4.59-.46 5.8-.12a2.91 2.91 0 011.54 1 4.25 4.25 0 01.68 2.16 5 5 0 00.5.18c.62-1.41.57-3.52.74-5.24a1.3 1.3 0 00-.65-.06 39.89 39.89 0 01-4.72.3v-.06c-3.48.13-6.72-.06-10.37-.06a2.22 2.22 0 00.13.62h.37z"></path><path class="cls-1" d="M180 127.75c0 .08.05-.17.06-.18a2.42 2.42 0 01-.06-.44c.11-1.52-.08-5.06.55-6.1.39-.65 1.43-.82 2.47-.81a4.8 4.8 0 014.36 2.53 6.38 6.38 0 010 6.56c-1 1.37-2.79 2.26-5.36 2.2a10.57 10.57 0 01-2.06-.18 22.61 22.61 0 01.09-3.21c-.09 0-.06-.34-.06-.37zm-4.08-6.23c.29 1.45.07 4.45.22 6.45.13 1.8 0 3.61 0 5.52 0 3.1.12 6.29-.12 9.07a6.52 6.52 0 01-.43 2.41 2.8 2.8 0 01-1.79.8 5 5 0 00.06.74c.93.06 2.39-.13 3.33-.13 1.6 0 4.22.32 5.86-.06v-.49c-1-.46-2.3-.42-2.65-1.48a12 12 0 01-.32-2.06 74.15 74.15 0 01-.18-9.27 3.38 3.38 0 012.78.53 11.89 11.89 0 012.22 2.47c1.59 1.89 3.21 3.81 4.75 5.74a20 20 0 003 3.33 8.58 8.58 0 004.57 1.67 12 12 0 003.39-.31c.58-.71-.43-.67-1.14-1a11.44 11.44 0 01-3.73-2.84c-2.45-2.4-4.53-4.72-6.79-7.31a36.42 36.42 0 01-3-3.21 15.49 15.49 0 004.57-3.33 7.08 7.08 0 001.54-5.31c-.61-5.25-5.63-3.79-11-4.19a19.11 19.11 0 00-2.38 0c-1.75.13-4.87-.18-5.09.21 0 .81 1.88 0 2.28 2zM142.8 123.93a6.69 6.69 0 01.37-2.72 2 2 0 011.67-.86 5.35 5.35 0 014.18 1.18 6.53 6.53 0 011.2 7.62 5.52 5.52 0 01-4.7 2.61 19.28 19.28 0 01-2.9-.12c0-2.64 0-5.3.18-7.71zm-4.8-3.27c.75.86.71 1.89.77 3.33s0 3.42 0 4.81c0 2.68-.06 5-.06 7.59 0 1.23.06 4 .06 4l.37.6a12.08 12.08 0 002 2.15c.36.3 1.21 1.12 1.7 1.14.24 0-.09-1.06-.12-1.29a47.8 47.8 0 01-.32-5.27 37 37 0 01.13-4.79 4.25 4.25 0 012.07.33 5.48 5.48 0 012 1.49c1.94 2.3 3.73 4.73 5.67 7 1.34 1.59 2.81 3.55 4.88 4.38a13.32 13.32 0 005.86.4c.67-.24.33-.46.31-.65a10.64 10.64 0 01-2.84-1.42 56.64 56.64 0 01-8.27-8.33c-1.14-1.35-2.66-2.62-3.73-4 .84-.46 1.52-.8 2.28-1.29a8.06 8.06 0 003.92-5.59 5.93 5.93 0 00-.68-3.88 5 5 0 00-2.35-1.73c-1.39-.52-4.05-.4-5.73-.31h-3.18c-2.13.06-4.15 0-6.39 0 0 .13-.27.35.06.59s1 0 1.55.65z"></path><path class="cls-1" d="M123.18 122.75a4.48 4.48 0 01.18-1.48 1.74 1.74 0 011.36-.86 6.34 6.34 0 014.38 1 5.7 5.7 0 01-3.1 10.35 10.54 10.54 0 01-3.21-.12 74.5 74.5 0 01.37-8.89zm-6.33-2.68a2.21 2.21 0 011.89 1.45c.5 1.44.05 4 .18 5.74.27 3.56.09 7.4.13 11a32.39 32.39 0 01-.19 6.23 2.3 2.3 0 01-1.3 1.36c-.68.23-1.07 0-.86.8 2.74 0 5.84-.12 9.26-.12 0-.3.14-.44-.13-.62s-2 .24-2.65-1.6a21.56 21.56 0 01-.52-5.71c0-2.17.11-4.37.12-5.52a5 5 0 012.16.29c1.27.58 2 1.82 2.93 2.85 1.25 1.49 2.58 3 3.76 4.51 2.08 2.68 4 5.78 8.39 6.11a8.34 8.34 0 003.4-.28c.35-.14.37-.35.18-.59A6 6 0 01140 144a106 106 0 01-11.22-11.88c1-.71 1.95-1.06 3-1.82a6.94 6.94 0 003-7.46 4.1 4.1 0 00-2.65-3.21 11.56 11.56 0 00-3.27-.19c-2.18 0-4.58 0-6.85-.06-1.8 0-2.91-.09-4.88 0a3.33 3.33 0 00-.61.09c0 .33-.22.5.33.59zM83.81 146.69c1.94 0 4.44.07 6.48.07.13-.59 0-.81-.61-.93a2.71 2.71 0 01-2.16-1.3 6.27 6.27 0 01-.31-2c-.27-2.61-.19-5.86-.19-8.55a30.66 30.66 0 013.67-.28c3.36-.34 6.46-1.06 8.67-2.59.29-.2.37-.31.22-.64s-1.9.52-3.49.71c-2.27.26-4.3.24-7 .33a10.26 10.26 0 01-2-.15c0-1.89-.18-5.94 0-8.57a1.9 1.9 0 011.13-1.86 6.61 6.61 0 012.62 0 11.52 11.52 0 014 .77 2.92 2.92 0 011.79 1.79c.11.38.25.74.34 1.12s.3.25.46.12c.25-1.69.44-3.2.62-5.19h-.37c-1 0-2.35.23-3.39.31-1.29.1-2.71 0-4 .13-3.33.24-6.6-.39-9.82 0 0 0-.47.42.15.58 1.17.29 2.15.47 2.39 1.67a37.61 37.61 0 01.12 4.13 78.37 78.37 0 010 11c-.17 2.26.21 4.58-.19 6.72-.34 1.88-1.92 1.73-2.19 2a.65.65 0 00-.15.68 22.92 22.92 0 003.08-.07zM154.46 173.1a9 9 0 00-2.22 1.61 13 13 0 01-4.57 2 9.84 9.84 0 01-7-1.23c-4.51-2.81-6.34-9.39-4.26-16 1.61-5.13 7.65-9 13.33-4.75a5.23 5.23 0 011.6 2.35c.25.76-.32 1.81.44 1.91.64-2.11 1-4.16 1.48-6.11a21.86 21.86 0 00-7.34-1.17c-3.54.23-6.53 1-8.7 2.59-8.89 6.55-7.47 20.84 2.83 24.74a12.1 12.1 0 008 .19 13.45 13.45 0 004.88-3.4c.48-.56 2.07-2 1.54-2.65z"></path><path class="cls-1" d="M117.38 178.22c-14.17 1.93-15.78-24.9-1.36-24.92 11.1 0 13.14 23.32 1.36 24.92zm7.1-23.26a12.83 12.83 0 00-8.46-3.21 14.06 14.06 0 00-14.25 13.33 13.74 13.74 0 00.37 5 14.08 14.08 0 005.43 7.22 13 13 0 009.56 2.53 14.11 14.11 0 007.35-24.83zM197.1 174.4c-.16-.14-.34-.1-.62-.13a7.65 7.65 0 01-.68 1.11c-1.76 2.37-5.3 2.37-8.94 2.1-1.67-.12-2.22-1.07-2.35-2.77-.2-2.64-.06-5.78-.06-8.52 2.85-.66 5.86-.78 8.14-1.91.21-.1.42-.33.62-.43a4.13 4.13 0 001.17-.8c.37-.33.35-.58.08-.58a10.64 10.64 0 00-2 .57 18.42 18.42 0 01-3.27.5 30.72 30.72 0 01-4.69-.19c0-.94 0-2 .06-2.84.16-2.08-.47-6.07.93-6.78.86-.45 2.56-.22 3.58-.11 1.52.16 2.35.35 3.16 1.2s.55 1.09.76 2.12c.08.41.22.32.58.3.25-1.7.43-3.35.68-5.05a7.59 7.59 0 00-1 0c-4.57.33-9.64.15-14.45.15-.17.73.15.51.74.8a2.38 2.38 0 011.3 2c.12 4.24 0 7 0 7s-.08 7.1 0 10.38a17.65 17.65 0 01-.28 4.92c-.36 1.32-1.16 1.05-2.28 1.3a1.35 1.35 0 00-.07.68 13.45 13.45 0 003.15-.07 42.37 42.37 0 016.17-.18 45.4 45.4 0 007.16.06 2.64 2.64 0 001.17-.8c.22-.27 1.57-3.77 1.3-4z"></path><path class="cls-1" d="M204.75 164.71c-.42 0-1-.15-1.42-.18-.29-2.13-.14-9.32.56-10.62.31-.59 1.66-.8 2.34-.8 5.72 0 7.31 8.24 2.74 10.9a7.48 7.48 0 01-4.22.7zm19.19 14a11.65 11.65 0 01-4.68-3 103.72 103.72 0 01-10-10.42c.41-.57 1.07-.69 1.67-1.05a10.66 10.66 0 003.58-3.39 7.62 7.62 0 00.86-4.39 4.46 4.46 0 00-4.12-4.1c-1.46-.22-2.79 0-4.33-.15-2.48-.19-4.38 0-7.84 0-1 0-2.41-.35-2 .43.75.53 1.37 0 2 1.22s.44 4.91.42 7.09c0 3.88.07 7.94-.08 12a35.51 35.51 0 01-.2 4.15c-.29 1.65-1.54 1.25-1.87 1.48s-.18.42-.18.6a9.45 9.45 0 002.71 0c2.12-.16 4.38.06 6.42.06 0-.14.26-.21 0-.49s-1.29-.29-1.71-.57a2.24 2.24 0 01-.85-1.1c-.73-1.81-.61-5.86-.6-8.32 0-.93.05-1.91 0-2.52-.06-.89 2.56.1 2.84.28a12.43 12.43 0 012.44 2.67c1.87 2.22 3.81 4.44 5.68 6.66a13.3 13.3 0 002.9 2.65 8.42 8.42 0 005.24 1 4.58 4.58 0 001.67-.25c.28-.15.11-.38.06-.61zM176.37 178.47a2.06 2.06 0 01-1.48-1.3c-.45-1.37-.26-3.53-.25-5.06 0-3.48-.34-6.26-.06-9.93.15-2.13 0-4.31.12-6.29a8.75 8.75 0 01.06-1.48 2.07 2.07 0 011.11-1.3A3 3 0 01177 153c.16-.38.36-.15.13-.62-1.43-.37-3.59 0-5.71-.09h-3.55s-1.18.38.16.64c3.67.7 2.61 4.07 2.81 7.56 0 .22.25 2.64 0 2.84-1 .8-9 1-10.51.45 0-1.61 0-3.36.08-4.89s-.21-3.34.24-4.63c.34-1 1.72-1.17 2.78-1.42 0-.16-.06-.41-.06-.49-3-.24-6.33-.12-9.5-.12a2.41 2.41 0 00-.13.74c1.5.11 2.58.63 2.78 2a37.33 37.33 0 01.11 4.34c.12 4.39.13 8.38.14 13.12 0 1.5 0 4.86-.81 5.56-.52.44-1.47.53-2 .92.08.23.11.34.18.5h4.63c1.83 0 3.29 0 4.94-.12 0-.21.12-.53-.06-.67s-.44-.07-.68-.13a2.75 2.75 0 01-2.16-1.42c-.78-1.72-.48-6.77-.31-9.07 0-.44.06-1.23.06-1.23s3.47-.2 5.12-.37a26.24 26.24 0 005.19-1.36 60.67 60.67 0 01-.07 8.95 11.66 11.66 0 01-.18 2.59 3.12 3.12 0 01-1.67 1.85c-.36.12-.85 0-1.17.12s-.14.42-.12.68c1.3.1 2.9 0 4.29 0h5.39c.21-.81-.24-.68-1-.86zM90.54 164.9a8.51 8.51 0 01-3.21-.19c-.15-1.38-.09-9.61.56-10.61a2.62 2.62 0 012.09-.87 5.13 5.13 0 014.28 1.69 6.91 6.91 0 01.26 7.93 5.33 5.33 0 01-4 2.05zm5.86 3.94a31.84 31.84 0 01-3.07-3.39c2.73-1.67 6.83-3.87 6-9.47a3.51 3.51 0 00-1.81-2.81c-2-1.15-7.85-.78-10.86-.77a54.06 54.06 0 00-5.55 0c-.37 1 1.44.58 1.91 1.42a9.57 9.57 0 01.5 3.39c.07 1.07-.15 2-.07 3 .28 3.74.11 8.36 0 12.26a21.68 21.68 0 01-.22 4.64c-.25 1.16-1.15 1.35-2.1 1.79-.28.27 0 .39 0 .56a27.77 27.77 0 004.07-.06c1.8-.14 3.1.06 4.88.06.2 0 .6-.17.17-.6-.54-.24-1-.08-1.53-.57-.36-.35-.89-.72-1-1.24-.74-2.38-.64-6.29-.43-9.13a9.61 9.61 0 010-1.42c.21-.93 2.36-.1 2.58.06a15.81 15.81 0 012.73 3c1.24 1.47 2.52 3 3.76 4.44 2.08 2.46 3.79 5.36 8 5.67a8.8 8.8 0 003.58-.27c.23-.11.14-.16.18-.47a12.13 12.13 0 01-4.25-2.48 75.89 75.89 0 01-7.47-7.64z"></path></svg> 