<?xml version="1.0" encoding="UTF-8"?> <svg xmlns="http://www.w3.org/2000/svg" id="Layer_1" data-name="Layer 1" viewBox="0 0 300 300"><defs><style>.cls-1{fill:red}</style></defs><g id="g3"><g id="g5"><path id="path7" class="cls-1" d="M241.36 164.71H250l-8.91-29.42h-12.28l-8.91 29.42h8.64l1.57-5.45h9.67l1.58 5.45m-9.38-12l2.94-10.16h.08l2.94 10.16H232z"></path><path id="path9" class="cls-1" d="M93.12 165.24c8.87 0 13.16-1.57 13.76-9.57.15-1.9.18-3.86.18-5.67s0-3.77-.18-5.67c-.6-8-4.89-9.57-13.76-9.57s-13.12 1.56-13.76 9.57c-.15 1.9-.18 3.86-.18 5.67s0 3.77.18 5.67c.6 8 4.89 9.57 13.76 9.57M87.54 150c0-1.62 0-2.57.08-3.28.22-4.54 2-5.07 5.5-5.07s5.28.53 5.5 5.07c0 .71.08 1.66.08 3.28s0 2.57-.08 3.28c-.22 4.54-2 5.07-5.5 5.07s-5.28-.53-5.5-5.07c-.04-.71-.08-1.66-.08-3.28z"></path><path id="polyline11" class="cls-1" d="M50 135.31v7.33h8.79v22.08h8.8v-22.08h8.79v-7.33H50"></path><path id="polyline13" class="cls-1" d="M184.96 164.71v-29.42h-8.34v29.42h8.34"></path><path id="polyline15" class="cls-1" d="M151.38 146.03v-10.74h-8.31v29.42h8.31v-11.34h9.64v11.34h8.3v-29.42h-8.3v10.74h-9.64"></path><g id="g17"><path id="path19" class="cls-1" d="M212.42 149.33c3.69-.94 4.78-3.15 4.78-6.34 0-6.47-4.07-7.7-9.85-7.7h-15v29.42h15.73c7.24 0 9.68-3.12 9.68-7.92 0-3.35-.77-6.3-5.35-7.46m-11.76 3.3h5.76c2.32 0 2.81 1 2.81 2.67s-.91 2.68-2.81 2.68h-5.76zm0-10.61h5.76a2.15 2.15 0 0 1 2.43 2.43 2.22 2.22 0 0 1-2.43 2.37h-5.76z"></path><path id="path21" class="cls-1" d="M111.9 155.06h7.91c0 1.42.19 2.38.88 2.9s1.49.79 3.83.79 4.72 0 4.72-2.77c0-2.18-1.38-2.68-3.92-2.82-6.31-.33-8.59-.51-10.94-2.25-1.6-1.19-2.43-3.51-2.43-6.64 0-5.32 1.86-7.19 4.54-8.5s13.62-1.34 16.54 0c3.67 1.7 3.78 5.36 3.78 8.76h-7.9c0-1.74-.4-2.22-.72-2.55-.82-.72-2-.88-3.67-.88-2 0-4.4.09-4.4 2.57 0 1.89.82 2.68 3 2.82 3 .19 8.76.38 10.83 1.6 2.9 1.71 3.65 4 3.65 7.83 0 5.47-2 7.08-4.69 8.29-3.14 1.39-13.66 1.39-17.07-.11-3.83-1.67-3.91-5-3.91-9"></path></g></g></g></svg> 