<?xml version="1.0" encoding="UTF-8"?> <svg xmlns="http://www.w3.org/2000/svg" id="Layer_1" data-name="Layer 1" viewBox="0 0 300 300"><defs><style>.cls-1{fill:#ab0534;fill-rule:evenodd}</style></defs><g id="g2208"><path id="path2451" class="cls-1" d="M113 108.47c-23.26 0-29.36 18.92-29.36 18.92s5.51-5.44 18.28-5.46c7 0 16 4.71 24.42 9h-2.47s-5 .42-6.58 2a7.89 7.89 0 0 0-2.07 3.45c-4 12.41-13.45 51.13-13.45 51.13a14.07 14.07 0 0 1-1.86 3 7.85 7.85 0 0 1-1.1 1h15.5s4.44-.31 5.76-1.63a8.22 8.22 0 0 0 1.6-2l14.05-52.41c3.4 1.47 6.46 2.46 8.92 2.48 10 .1 20.78-11.21 20.78-11.21a22.41 22.41 0 0 1-6.73 1.45c-14.35.07-22.44-19.72-45.69-19.72zm2.75 22.53zm0 0h-15.68s-5 .42-6.59 2a8 8 0 0 0-2.07 3.45C87.44 148.8 78 187.52 78 187.52a14.25 14.25 0 0 1-1.87 3 7.85 7.85 0 0 1-1.1 1h15.48s4.43-.31 5.75-1.63a8.17 8.17 0 0 0 1.61-2l14.22-53.08a8.21 8.21 0 0 1 1.81-2.48 5.41 5.41 0 0 1 1.84-1.33z"></path><path id="path3229" class="cls-1" d="M138.25 145.92a3.61 3.61 0 0 1 1.25 1.64v13.28a2 2 0 0 1-1.25 1.64h5.14c-.69-.51-1.21-1-1.25-1.64v-13.08c.22-1.13.78-1.35 1.24-1.85zm6.75 16.57a2.76 2.76 0 0 0 .82-1.23v-9c-.23-.45-.38-1-.82-1.23a7.31 7.31 0 0 0 3.27-.42V152a4.05 4.05 0 0 1 3.61-1.62c1.51 0 4.08.94 4.08 2.24a4.42 4.42 0 0 1 4.19-2.25c2.31 0 4.68 1.34 4.68 4.08v7.16a9.42 9.42 0 0 1 .84.83h-4.29l.83-.83v-6.94a3 3 0 0 0-2.86-2.28c-2.06.15-2.6 1.43-2.88 2.9v5.73a1.79 1.79 0 0 0 1 1.44h-4.32a2.16 2.16 0 0 0 .83-1v-6.76a2.71 2.71 0 0 0-2.87-2.26 2.58 2.58 0 0 0-2.85 2.25v6.56a1.64 1.64 0 0 0 .81 1.24zM165.87 151a8.58 8.58 0 0 0 3.51-.39v1.43c1.94-1.21 1.37-1.2 4.19-1.62s6.31 1.06 6.25 6.19a6 6 0 0 1-6.29 6.29c-3.09 0-3.31-1.63-3.76-2.45a8.09 8.09 0 0 0 3.15.41 4.2 4.2 0 0 0 4.25-4.13c0-3.5-3.32-4.07-4.18-4.07-2.44 0-3.81 2-3.58 2.86v10.88a2.33 2.33 0 0 0 1 1.42h-4.5a2.83 2.83 0 0 0 1-1.43v-13.92a1.72 1.72 0 0 0-1.04-1.47zm26.2 11.34a9.56 9.56 0 0 1-3.76.55c-4.94-.07-7.57-2.2-7.47-6.25.08-3.14 1.83-6.09 6.66-6.09 4.06 0 6 2.17 6 6h-9.83c0 3.32 2.54 4.29 5.23 4.29a13 13 0 0 0 4.82-1m-6.34-7.21c-1.86 0-3 .69-3.49 2.12h6.56a2.85 2.85 0 0 0-3.05-2.14zm7.36 9.08v-9.86l-.82-.81c1.11 0 2.82 0 3.27-.4v1.45a4.69 4.69 0 0 1 3.3-1.6 3.38 3.38 0 0 1 1 .15v2.45a6.64 6.64 0 0 0-1.53-.36 3.17 3.17 0 0 0-2.57 2.4v6.38a4.68 4.68 0 0 0 1 1H194zm9.22 0v-9.84l-.83-.81c1.16 0 2.88 0 3.49-.4v10.85a2.11 2.11 0 0 0 .81 1h-4.3zm2.88-13.71a1.64 1.64 0 1 1-1.64-1.63 1.64 1.64 0 0 1 1.64 1.63zm7 14.66a4.56 4.56 0 0 1-1.65.28c-3.62 0-4.09-2.21-4.09-3.88 0-2.3 1.87-2.92 3.58-3.27s3.8-.74 3.8-1.85c0-1.42-1.81-1.43-2.26-1.43a19.54 19.54 0 0 0-3.48.81l1.63-2.65c.75-.05 1.38-.15 2.25-.15 2.63 0 4.11 1.13 4.51 2.61v6.14c.21 1.18 1.08 1.58 2.24 1.64l-1 1.62c-1.25 0-2.65.46-3.68-1.64v-4.5a5.57 5.57 0 0 1-2.67.83 2.4 2.4 0 0 0-2.26 2c0 1.07 1.14 1.74 2.56 1.74a15.34 15.34 0 0 0 2.15-.21m6.1 1v-14.98l-.82-.81c1.16 0 2.87 0 3.48-.4v15.92a2.23 2.23 0 0 0 .81 1h-4.29zM139.69 184v-12.29c-.91-.05-1.82-.12-2.77-.12a4.63 4.63 0 0 0-2.74.92l1-3h12.46l-.9 3a2.37 2.37 0 0 0-2.06-.92l-2.35.12v13.51a4.34 4.34 0 0 0 1 1.41h-4.9a8.2 8.2 0 0 0 1.26-2.63zm4.92-3.38c0-3.88 3.2-6.45 7-6.45 3.43 0 6.76 2.75 6.76 6.35s-2.91 6.34-7 6.34c-3.94 0-6.76-2.68-6.76-6.24zm10.9-.1a4.37 4.37 0 0 0-4.14-4.35 4.35 4.35 0 0 0 .21 8.69c2.42 0 3.93-2.02 3.93-4.34zm3.63 6.14a3.93 3.93 0 0 0 .62-1v-15.18a3 3 0 0 0-.83-1c1.17 0 2.74.07 3.49-.38v15.55a6.46 6.46 0 0 0 1.94.21c4.16 0 4.81-3 4.81-4.31a4.24 4.24 0 0 0-3.89-4.31 6.56 6.56 0 0 0-2.45.62c.55-1.51 1.29-2.66 3.16-2.66a5.55 5.55 0 0 1 5.84 5.83c0 5.19-3.43 6.86-8.38 6.86-1.45-.03-2.89-.14-4.31-.23zm20.11-.08a4.56 4.56 0 0 1-1.65.28c-3.62 0-4.09-2.22-4.09-3.88 0-2.3 1.87-2.93 3.58-3.27s3.8-.74 3.8-1.85c0-1.42-1.81-1.43-2.26-1.43a19.83 19.83 0 0 0-3.49.81l1.64-2.65c.75-.05 1.37-.15 2.25-.15 2.63 0 4.11 1.13 4.51 2.61v6.14c.21 1.18 1.08 1.58 2.24 1.64l-1 1.62c-1.25 0-2.64.46-3.67-1.64v-4.5a5.57 5.57 0 0 1-2.67.83 2.4 2.4 0 0 0-2.26 2c0 1.07 1.14 1.74 2.56 1.74a15.34 15.34 0 0 0 2.15-.21m30.13-4c0-3.88 3.2-6.45 7-6.45 3.43 0 6.76 2.75 6.76 6.35s-2.91 6.34-7 6.34c-3.96-.05-6.78-2.73-6.78-6.29zm10.9-.1a4.37 4.37 0 0 0-4.14-4.35 4.35 4.35 0 0 0 .21 8.69c2.43-.05 3.91-2.07 3.91-4.39zm-35.53.19c0-2.3 1.39-6.53 7.26-6.53a3.07 3.07 0 0 1 1.68.23l1.31.18v2.83a5.41 5.41 0 0 0-3.69-1.21 4.44 4.44 0 0 0-3.9 4.21c0 .45.32 4.41 5.43 4.41a7.43 7.43 0 0 0 3.69-1 4.23 4.23 0 0 1-1.5 2.53 6 6 0 0 1-3.1.5c-4.02-.08-7.2-1.91-7.2-6.2zm12.28 0c0-2.3 1.39-6.53 7.26-6.53a3 3 0 0 1 1.67.23l1.31.18v2.83a5.39 5.39 0 0 0-3.69-1.21 4.45 4.45 0 0 0-3.9 4.21c0 .45.32 4.41 5.44 4.41a7.36 7.36 0 0 0 3.68-1 4.18 4.18 0 0 1-1.5 2.53 6 6 0 0 1-3.1.5c-4.02-.08-7.19-1.91-7.19-6.2z"></path></g></svg> 