<?xml version="1.0" encoding="UTF-8"?> <svg xmlns="http://www.w3.org/2000/svg" id="Layer_1" data-name="Layer 1" viewBox="0 0 300 300"><defs><style>.cls-1{fill:#e42223}.cls-2{fill:#fee813}</style></defs><g id="g10"><g id="g63"><path id="path12" class="cls-1" d="M87.5 89.13v83.07a69.47 69.47 0 002.67 20.48 59.8 59.8 0 0014.46 24.19c17.43 18.18 43.22 22.67 44.31 22.86l1.06.17 1.06-.17c1.09-.19 26.88-4.68 44.31-22.86a59.8 59.8 0 0014.46-24.19 69.47 69.47 0 002.67-20.48V89.13z"></path><path id="path14" class="cls-1" d="M150 65.24a1.5 1.5 0 01-.87-2 1.09 1.09 0 011.7-.35 1.64 1.64 0 01-.25 2.42 4.6 4.6 0 01-3.29 1.4h-5.62l-1.25 3.38 3.9 2.73h.06L142.5 79l3 2.17 4.5-3.68 4.48 3.64 3-2.17-1.86-6v-.08l4-2.78-1.25-3.38h-4.82a5.89 5.89 0 01-.51.61 8.92 8.92 0 01-2.41 1.82h-.09 6l-3.69 2.58-.09.06c.48 1.54 1.18 3.83 1.89 6.13L150 74.26l-.08.06-4.49 3.68c.71-2.3 1.41-4.59 1.89-6.13h-.06c-1-.71-2.36-1.67-3.72-2.61H147a6.68 6.68 0 005.49-2.31 4 4 0 00-.3-6.12 3.59 3.59 0 00-5.39 1.47 4 4 0 00.53 4.05h.07a4.09 4.09 0 002.6-1z"></path><path id="path16" class="cls-2" d="M109.27 212.43c-14.09-14.7-15.35-29.5-15.35-40.23V95.55h112.16v76.65c0 10.73-1.26 25.53-15.35 40.23-16.15 16.85-40.73 21-40.73 21s-24.58-4.15-40.73-21z"></path><path id="path18" class="cls-1" d="M120.4 208.42l4.22-1.71 3.31 9h11.64l2.5 6.82h15.86l2.5-6.82h11.64l3.31-9 4.22 1.71 5.21-10 2.71 1.51c7.33-10.23 8.13-20.07 8.13-30.6v-38.47s-13.75-.5-23.28 3.42a43.3 43.3 0 00-22.37-6 43.3 43.3 0 00-22.37 6c-9.53-3.92-23.28-3.42-23.28-3.42v38.43c0 10.53.8 20.37 8.13 30.6l2.78-1.36 5.14 9.89z"></path><path id="path20" class="cls-1" d="M113.18 122v4.14h-8.83v-21.65h27.09v6H113.2v5.26h16v6h-16v.26z"></path><path id="path22" class="cls-1" d="M162.54 122.94h-21.15a6.56 6.56 0 01-6.54-6.54V111a6.56 6.56 0 016.54-6.54h21.15v6H144.3a1.43 1.43 0 00-1.42 1.43v3.56a1.43 1.43 0 001.42 1.42h18.24z"></path><path id="path24" class="cls-1" d="M187.62 116.8l.34.37v-12.68h7.69v21.66h-9.5l-10.69-11-.42-.41v11.42h-7.95v-21.67h8.58z"></path><path id="path26" class="cls-2" d="M160.43 165.58l-7.12-9.53 15.85-7.9a24.19 24.19 0 015.09 4.72l-10.57 5.55 9.86 12.58 14.38-7a33.11 33.11 0 00-1.92-5.36l-10.55 5.26-2.84-4.18 10.86-5.82a50.83 50.83 0 00-6.18-8.2c2.37-.8 6.85-2 6.85-2a73.19 73.19 0 015 6.68v-12.9c-5-.2-14.55 1.9-22.57 5.12-5 2-8.53 3.91-8.53 3.91l5-9.44a63 63 0 00-6.42-1.8L150 147.82l-6.62-12.54a63 63 0 00-6.42 1.8l5 9.44s-3.56-1.91-8.53-3.91c-8-3.22-17.55-5.32-22.57-5.12v12.9a73.19 73.19 0 015-6.68s4.48 1.2 6.85 2a50.83 50.83 0 00-6.18 8.2l10.86 5.82-2.84 4.18-10.55-5.26a33.11 33.11 0 00-1.92 5.36l14.38 7 9.86-12.57-10.57-5.55a24.19 24.19 0 015.09-4.72l15.85 7.9-7.12 9.53 10.43 5.19z"></path><path id="path28" class="cls-2" d="M141.31 200.18l-3.77-10.66h8.23z"></path><path id="path30" class="cls-2" d="M132.44 175.11l3.89-5.21 10.36 5.21v8.22h-11.34z"></path><path id="path32" class="cls-2" d="M131.06 208.6h6l-6.25-17.67-10.1 4.94 2.46 4.72 4.34-2z"></path><path id="path34" class="cls-2" d="M112.61 185.94a20.61 20.61 0 002.4 5.59l13.64-6.65-3.18-9-14.53-5.66s-.1 4.28.2 8.62h9.43l1.1 3.28z"></path><path id="path36" class="cls-2" d="M143.31 205.83l3.58 10.11h6.22l3.58-10.11-6.69 5.29z"></path><path id="path38" class="cls-2" d="M158.69 200.18l3.77-10.66h-8.23z"></path><path id="path40" class="cls-2" d="M167.56 175.11l-3.89-5.21-10.36 5.21v8.22h11.34z"></path><path id="path42" class="cls-2" d="M168.94 208.6h-6l6.25-17.67 10.1 4.94-2.46 4.72-4.34-2z"></path><path id="path44" class="cls-2" d="M187.39 185.94a20.61 20.61 0 01-2.4 5.59l-13.64-6.65 3.18-9 14.53-5.66s.1 4.28-.2 8.62h-9.43l-1.1 3.28z"></path></g></g></svg> 