<?xml version="1.0" encoding="UTF-8"?> <svg xmlns="http://www.w3.org/2000/svg" data-name="Layer 1" viewBox="0 0 300 300"><path d="M80 120a30 30 0 1 0 30 30 30 30 0 0 0-30-30zm13.76 43.26a1.86 1.86 0 0 1-2.57.61c-7.05-4.3-15.91-5.27-26.35-2.89a1.87 1.87 0 1 1-.83-3.64c11.42-2.61 21.22-1.49 29.13 3.34a1.88 1.88 0 0 1 .61 2.59zm3.67-8.17a2.34 2.34 0 0 1-3.22.77c-8.06-5-20.35-6.39-29.89-3.5A2.33 2.33 0 1 1 63 147.9c10.89-3.31 24.43-1.7 33.69 4a2.35 2.35 0 0 1 .77 3.22zm.31-8.51c-9.66-5.74-25.61-6.26-34.84-3.46a2.81 2.81 0 1 1-1.63-5.37c10.59-3.22 28.21-2.6 39.34 4a2.8 2.8 0 1 1-2.87 4.82zm33.87 1.11c-5.18-1.24-6.1-2.11-6.1-3.93s1.62-2.88 4-2.88a11.8 11.8 0 0 1 7.08 2.69.32.32 0 0 0 .25.07.43.43 0 0 0 .23-.14l2.52-3.57a.33.33 0 0 0-.06-.46 15.28 15.28 0 0 0-10-3.44c-5.59 0-9.49 3.35-9.49 8.15 0 5.15 3.37 7 9.19 8.38 4.95 1.14 5.79 2.1 5.79 3.81 0 1.89-1.69 3.07-4.41 3.07-3 0-5.49-1-8.25-3.4a.34.34 0 0 0-.25-.09.35.35 0 0 0-.23.12l-2.84 3.37a.35.35 0 0 0 0 .48 16.91 16.91 0 0 0 11.41 4.37c6 0 9.92-3.29 9.92-8.38 0-4.3-2.56-6.69-8.87-8.22zm22.51-5.11a8.15 8.15 0 0 0-6.52 3.13v-2.37a.34.34 0 0 0-.34-.34h-4.63a.34.34 0 0 0-.34.34v26.36a.34.34 0 0 0 .34.34h4.63a.34.34 0 0 0 .34-.34v-8.32a8.34 8.34 0 0 0 6.52 3c4.86 0 9.77-3.73 9.77-10.87s-4.91-10.88-9.76-10.88zm4.38 10.88c0 3.63-2.24 6.17-5.45 6.17s-5.56-2.65-5.56-6.17 2.39-6.18 5.56-6.18 5.45 2.6 5.45 6.18zm18-10.88a10.9 10.9 0 1 0 11.1 10.88 10.94 10.94 0 0 0-11.1-10.88zm0 17.09a5.9 5.9 0 0 1-5.83-6.22c0-3.55 2.42-6.13 5.75-6.13a5.91 5.91 0 0 1 5.87 6.21c-.03 3.57-2.47 6.15-5.82 6.15zM200.92 143h-5.1v-5.2a.34.34 0 0 0-.34-.34h-4.64a.34.34 0 0 0-.34.34v5.2h-2.23a.34.34 0 0 0-.33.34v4a.34.34 0 0 0 .33.34h2.23V158c0 4.17 2.07 6.28 6.17 6.28a8.53 8.53 0 0 0 4.34-1.08.34.34 0 0 0 .17-.3v-3.8a.34.34 0 0 0-.16-.29.33.33 0 0 0-.33 0 5.92 5.92 0 0 1-2.72.65c-1.49 0-2.15-.68-2.15-2.19v-9.58h5.1a.34.34 0 0 0 .34-.34v-4a.34.34 0 0 0-.34-.34zm17.78 0v-.64c0-1.88.72-2.72 2.34-2.72a7.8 7.8 0 0 1 2.61.48.34.34 0 0 0 .31-.05.33.33 0 0 0 .14-.27v-3.91a.34.34 0 0 0-.24-.33A12.83 12.83 0 0 0 220 135c-4.28 0-6.55 2.41-6.55 7v1h-2.23a.34.34 0 0 0-.34.34v4a.34.34 0 0 0 .34.34h2.23v15.9a.34.34 0 0 0 .34.34h4.63a.34.34 0 0 0 .34-.34v-15.9h4.33l6.64 15.9c-.76 1.67-1.5 2-2.51 2a5.32 5.32 0 0 1-2.55-.72.37.37 0 0 0-.27 0 .33.33 0 0 0-.2.18l-1.58 3.45a.34.34 0 0 0 .15.44 9.74 9.74 0 0 0 4.95 1.27c3.42 0 5.32-1.6 7-5.89l8-20.78a.35.35 0 0 0-.31-.47h-4.83a.34.34 0 0 0-.32.23l-5 14.12-5.41-14.13a.35.35 0 0 0-.32-.22zm-10.31 0h-4.64a.34.34 0 0 0-.34.34v20.23a.34.34 0 0 0 .34.34h4.64a.34.34 0 0 0 .34-.34v-20.22a.34.34 0 0 0-.34-.34zm-2.29-9.21a3.33 3.33 0 1 0 3.32 3.32 3.33 3.33 0 0 0-3.32-3.31zm40.62 15.72a3.28 3.28 0 1 1 3.28-3.29 3.29 3.29 0 0 1-3.28 3.3zm0-6.22a2.95 2.95 0 1 0 2.92 2.93 2.92 2.92 0 0 0-2.9-2.92zm.72 3.27l.92 1.29h-.78l-.83-1.18h-.71v1.18h-.65v-3.42h1.52c.8 0 1.33.4 1.33 1.09a1 1 0 0 1-.8 1zm-.55-1.55h-.85v1.09h.85c.42 0 .68-.21.68-.54s-.24-.56-.66-.56z" fill="#1ed760"></path></svg> 