<?xml version="1.0" encoding="UTF-8"?> <svg xmlns="http://www.w3.org/2000/svg" data-name="Layer 1" viewBox="0 0 300 300"><path d="M150 201.53c-28.17 0-51.53-23.36-51.53-51.53 0-1.46.07-2.92.19-4.35l43.12 2.69-18.68 12.88a1 1 0 0 0 .56 1.78h76.14c-5.8 22-26.14 38.53-49.8 38.53m0-103.06c28.17 0 51.53 23.36 51.53 51.53 0 1.45-.06 2.9-.19 4.32l-43.07-2.74 18.69-12.8a1 1 0 0 0-.56-1.78h-76.26C106 115 126.28 98.47 150 98.47m73.9 57.29l-14.09-.9c.12-1.6.19-3.22.19-4.86a60 60 0 0 0-118.61-13H80.32a2.24 2.24 0 0 0-1.79.88l-3.29 4.55a1.12 1.12 0 0 0 .89 1.81l14 .88c-.13 1.61-.2 3.24-.2 4.88a60 60 0 0 0 118.59 13h11.12a2.24 2.24 0 0 0 1.79-.88l3.29-4.55a1.12 1.12 0 0 0-.89-1.81" fill="#1a171b"></path></svg> 