<?xml version="1.0" encoding="UTF-8"?> <svg xmlns="http://www.w3.org/2000/svg" xmlns:xlink="http://www.w3.org/1999/xlink" viewBox="0 0 300 300"><defs><style>.cls-2{fill:#12100b}.cls-31{fill:#202850}</style><linearGradient id="linear-gradient" x1="184.88" y1="100.19" x2="158.7" y2="140.28" gradientUnits="userSpaceOnUse"><stop offset=".2" stop-color="#d0cfce"></stop><stop offset=".22" stop-color="#b2b1af"></stop><stop offset=".26" stop-color="#8a8986"></stop><stop offset=".29" stop-color="#6a6966"></stop><stop offset=".32" stop-color="#53524f"></stop><stop offset=".34" stop-color="#464541"></stop><stop offset=".37" stop-color="#41403c"></stop><stop offset=".44" stop-color="#474642"></stop><stop offset=".54" stop-color="#575653"></stop><stop offset=".65" stop-color="#72716e"></stop><stop offset=".76" stop-color="#989795"></stop><stop offset=".81" stop-color="#aaa9a7"></stop><stop offset="1" stop-color="#12100b"></stop></linearGradient><linearGradient id="linear-gradient-2" x1="111.36" y1="129.29" x2="116.11" y2="118.43" gradientUnits="userSpaceOnUse"><stop offset=".03" stop-color="#acabaa"></stop><stop offset=".2" stop-color="#acabaa"></stop><stop offset=".99" stop-color="#595854"></stop></linearGradient><linearGradient id="linear-gradient-3" x1="176.12" y1="103.2" x2="170.28" y2="102.65" gradientUnits="userSpaceOnUse"><stop offset=".2" stop-color="#41403c"></stop><stop offset=".26" stop-color="#43423e"></stop><stop offset=".28" stop-color="#494845"></stop><stop offset=".3" stop-color="#555450"></stop><stop offset=".31" stop-color="#656561"></stop><stop offset=".32" stop-color="#7b7a77"></stop><stop offset=".33" stop-color="#959593"></stop><stop offset=".34" stop-color="#b5b5b3"></stop><stop offset=".35" stop-color="#d8d8d7"></stop><stop offset=".36" stop-color="#fff"></stop><stop offset=".82" stop-color="#41403c"></stop><stop offset="1" stop-color="#2a2824"></stop></linearGradient><linearGradient id="linear-gradient-4" x1="123.56" y1="135.03" x2="128.37" y2="124.02" gradientUnits="userSpaceOnUse"><stop offset="0" stop-color="#d0cfce"></stop><stop offset=".11" stop-color="#bfbebd"></stop><stop offset=".25" stop-color="#b1b0af"></stop><stop offset=".37" stop-color="#acabaa"></stop><stop offset=".99" stop-color="#12100b"></stop></linearGradient><linearGradient id="linear-gradient-5" x1="170.32" y1="186.92" x2="84.46" y2="99.57" gradientUnits="userSpaceOnUse"><stop offset=".08" stop-color="#888885"></stop><stop offset=".12" stop-color="#949491"></stop><stop offset=".17" stop-color="#71706d"></stop><stop offset=".31" stop-color="#888885"></stop><stop offset=".47" stop-color="#f3f3f3"></stop><stop offset=".7" stop-color="#f3f3f3"></stop><stop offset=".72" stop-color="#e4e4e4"></stop><stop offset=".77" stop-color="#bdbdbc"></stop><stop offset=".83" stop-color="#7e7e7b"></stop><stop offset=".84" stop-color="#757572"></stop><stop offset=".96" stop-color="#41403c"></stop></linearGradient><radialGradient id="radial-gradient" cx="133.16" cy="110.97" r="19.58" gradientUnits="userSpaceOnUse"><stop offset=".04" stop-color="#fff"></stop><stop offset=".47" stop-color="#fff"></stop><stop offset=".52" stop-color="#fbfbfb"></stop><stop offset=".57" stop-color="#efefee"></stop><stop offset=".63" stop-color="#dbdbda"></stop><stop offset=".68" stop-color="#bebebd"></stop><stop offset=".74" stop-color="#9a9a98"></stop><stop offset=".75" stop-color="#949491"></stop><stop offset=".85" stop-color="#71706d"></stop><stop offset="1" stop-color="#41403c"></stop></radialGradient><radialGradient id="radial-gradient-2" cx="137.56" cy="196.47" r="6.91" gradientTransform="matrix(1 0 0 .96 0 -82.31)" gradientUnits="userSpaceOnUse"><stop offset=".04" stop-color="#fff"></stop><stop offset=".23" stop-color="#fff"></stop><stop offset=".3" stop-color="#f6f6f6"></stop><stop offset=".41" stop-color="#dddddc"></stop><stop offset=".55" stop-color="#b5b4b3"></stop><stop offset=".72" stop-color="#7d7c79"></stop><stop offset=".91" stop-color="#373531"></stop><stop offset="1" stop-color="#12100b"></stop></radialGradient><radialGradient id="radial-gradient-3" cx="133.23" cy="96.16" r="8.13" gradientUnits="userSpaceOnUse"><stop offset=".23" stop-color="#fff"></stop><stop offset=".57" stop-color="#f6f5f5"></stop><stop offset=".86" stop-color="#12100b"></stop></radialGradient><radialGradient id="radial-gradient-4" cx="146.86" cy="112.02" r="27.39" gradientUnits="userSpaceOnUse"><stop offset=".04" stop-color="#fff"></stop><stop offset=".25" stop-color="#fff"></stop><stop offset=".27" stop-color="#fbfbfb"></stop><stop offset=".29" stop-color="#efefee"></stop><stop offset=".31" stop-color="#dadada"></stop><stop offset=".33" stop-color="#bebebd"></stop><stop offset=".35" stop-color="#a0a09e"></stop><stop offset=".41" stop-color="#71706d"></stop><stop offset=".47" stop-color="#41403c"></stop><stop offset=".86" stop-color="#41403c"></stop></radialGradient><linearGradient id="linear-gradient-6" x1="127.73" y1="127.6" x2="114.32" y2="130.96" gradientUnits="userSpaceOnUse"><stop offset="0" stop-color="#f3f3f3"></stop><stop offset=".07" stop-color="#e1e1e1"></stop><stop offset=".26" stop-color="#b8b7b6"></stop><stop offset=".29" stop-color="#c8c7c7"></stop><stop offset=".35" stop-color="#dbdbda"></stop><stop offset=".42" stop-color="#e9e9e8"></stop><stop offset=".5" stop-color="#f1f1f1"></stop><stop offset=".65" stop-color="#f3f3f3"></stop><stop offset=".9" stop-color="#fff"></stop></linearGradient><linearGradient id="linear-gradient-7" x1="746.44" y1="3029.54" x2="886.56" y2="3200.26" gradientTransform="matrix(.44 0 0 .44 -200.1 -1233.95)" gradientUnits="userSpaceOnUse"><stop offset="0" stop-color="#fff"></stop><stop offset=".07" stop-color="#e0e0df"></stop><stop offset=".16" stop-color="#fff"></stop><stop offset=".2" stop-color="#fff"></stop><stop offset=".28" stop-color="#e1e0e0"></stop><stop offset=".33" stop-color="#d0cfce"></stop><stop offset=".33" stop-color="#d3d2d1"></stop><stop offset=".36" stop-color="#e7e6e6"></stop><stop offset=".4" stop-color="#f4f4f4"></stop><stop offset=".44" stop-color="#fdfcfc"></stop><stop offset=".5" stop-color="#fff"></stop><stop offset=".89" stop-color="#fff"></stop><stop offset=".98" stop-color="#b5b5b3"></stop></linearGradient><linearGradient id="linear-gradient-8" x1="111.48" y1="108.42" x2="174.25" y2="168.04" gradientUnits="userSpaceOnUse"><stop offset="0" stop-color="#dbdbda"></stop><stop offset=".03" stop-color="#cececd"></stop><stop offset=".15" stop-color="#9c9c99"></stop><stop offset=".26" stop-color="#757471"></stop><stop offset=".36" stop-color="#585754"></stop><stop offset=".44" stop-color="#474642"></stop><stop offset=".51" stop-color="#41403c"></stop><stop offset=".57" stop-color="#464541"></stop><stop offset=".65" stop-color="#54534f"></stop><stop offset=".74" stop-color="#6b6b67"></stop><stop offset=".83" stop-color="#8c8b89"></stop><stop offset=".93" stop-color="#b5b5b3"></stop><stop offset="1" stop-color="#dbdbda"></stop></linearGradient><linearGradient id="linear-gradient-9" x1="141.73" y1="137.27" x2="117.27" y2="173.83" gradientUnits="userSpaceOnUse"><stop offset="0" stop-color="#c4c3c2"></stop><stop offset=".1" stop-color="#fff"></stop><stop offset=".35" stop-color="#eee"></stop><stop offset=".42" stop-color="#f6f6f6"></stop><stop offset=".54" stop-color="#fff"></stop><stop offset=".54" stop-color="#fefefe"></stop><stop offset=".58" stop-color="#bfbebd"></stop><stop offset=".61" stop-color="#8a8886"></stop><stop offset=".64" stop-color="#605f5c"></stop><stop offset=".67" stop-color="#43413d"></stop><stop offset=".7" stop-color="#302f2b"></stop><stop offset=".71" stop-color="#2a2824"></stop><stop offset=".72" stop-color="#3d3b37"></stop><stop offset=".74" stop-color="#706e6c"></stop><stop offset=".76" stop-color="#9c9b99"></stop><stop offset=".77" stop-color="#bfbfbe"></stop><stop offset=".79" stop-color="#dbdbda"></stop><stop offset=".81" stop-color="#efefef"></stop><stop offset=".82" stop-color="#fbfbfb"></stop><stop offset=".84" stop-color="#fff"></stop><stop offset=".85" stop-color="#fbfafa"></stop><stop offset=".86" stop-color="#ededed"></stop><stop offset=".87" stop-color="#d8d7d6"></stop><stop offset=".88" stop-color="#b9b8b7"></stop><stop offset=".89" stop-color="#92918e"></stop><stop offset=".9" stop-color="#62615d"></stop><stop offset=".91" stop-color="#44423e"></stop><stop offset=".95" stop-color="#44423e"></stop><stop offset="1" stop-color="#7d7c79"></stop></linearGradient><linearGradient id="linear-gradient-10" x1="139" y1="156.31" x2="145.46" y2="160.12" gradientUnits="userSpaceOnUse"><stop offset=".2" stop-color="#fff"></stop><stop offset=".32" stop-color="#fdfdfd"></stop><stop offset=".39" stop-color="#f5f4f4"></stop><stop offset=".45" stop-color="#e7e7e6"></stop><stop offset=".5" stop-color="#d4d3d2"></stop><stop offset=".52" stop-color="#cbcac9"></stop><stop offset=".83" stop-color="#42413d"></stop><stop offset=".84" stop-color="#41403c"></stop><stop offset=".94" stop-color="#33312d"></stop><stop offset="1" stop-color="#2a2824"></stop></linearGradient><linearGradient id="linear-gradient-11" x1="142.62" y1="138.83" x2="149.41" y2="130.7" gradientUnits="userSpaceOnUse"><stop offset=".02" stop-color="#fff"></stop><stop offset=".18" stop-color="#fff"></stop><stop offset=".21" stop-color="#fff"></stop><stop offset=".31" stop-color="#f7f7f7"></stop><stop offset=".45" stop-color="#e3e3e2"></stop><stop offset=".5" stop-color="#dbdbda"></stop><stop offset=".58" stop-color="#ccccca"></stop><stop offset=".82" stop-color="#a3a3a1"></stop><stop offset=".95" stop-color="#949491"></stop><stop offset="1" stop-color="#8d8c8a"></stop></linearGradient><linearGradient id="linear-gradient-12" x1="157.61" y1="93.46" x2="166.46" y2="102.51" gradientUnits="userSpaceOnUse"><stop offset="0" stop-color="#12100b"></stop><stop offset=".04" stop-color="#14120d"></stop><stop offset=".07" stop-color="#1c1a16"></stop><stop offset=".09" stop-color="#2a2824"></stop><stop offset=".11" stop-color="#3d3c37"></stop><stop offset=".12" stop-color="#565551"></stop><stop offset=".14" stop-color="#757471"></stop><stop offset=".15" stop-color="#999997"></stop><stop offset=".17" stop-color="#c3c2c1"></stop><stop offset=".18" stop-color="#f1f1f1"></stop><stop offset=".18" stop-color="#f3f3f3"></stop><stop offset=".18" stop-color="#eee"></stop><stop offset=".24" stop-color="#bdbdbc"></stop><stop offset=".29" stop-color="#949391"></stop><stop offset=".35" stop-color="#71716e"></stop><stop offset=".41" stop-color="#575653"></stop><stop offset=".46" stop-color="#44433f"></stop><stop offset=".52" stop-color="#393834"></stop><stop offset=".58" stop-color="#353430"></stop><stop offset=".72" stop-color="#2e2d29"></stop><stop offset=".92" stop-color="#1b1a15"></stop><stop offset="1" stop-color="#12100b"></stop></linearGradient><linearGradient id="linear-gradient-13" x1="158.67" y1="131.06" x2="168.74" y2="124.45" xlink:href="#linear-gradient-12"></linearGradient><linearGradient id="linear-gradient-14" x1="166.75" y1="98.93" x2="179.97" y2="98.93" gradientUnits="userSpaceOnUse"><stop offset="0" stop-color="#595854"></stop><stop offset=".29" stop-color="#d0cfce"></stop><stop offset=".29" stop-color="#cac9c7"></stop><stop offset=".35" stop-color="#a1a09e"></stop><stop offset=".4" stop-color="#82817e"></stop><stop offset=".45" stop-color="#6b6a67"></stop><stop offset=".49" stop-color="#5e5d59"></stop><stop offset=".53" stop-color="#595854"></stop><stop offset=".76" stop-color="#2a2824"></stop><stop offset="1" stop-color="#12100b"></stop></linearGradient><linearGradient id="linear-gradient-15" x1="112.8" y1="167.66" x2="143.28" y2="167.66" gradientUnits="userSpaceOnUse"><stop offset="0" stop-color="#12100b"></stop><stop offset=".05" stop-color="#14120d"></stop><stop offset=".08" stop-color="#1c1a16"></stop><stop offset=".11" stop-color="#2a2824"></stop><stop offset=".13" stop-color="#3d3b37"></stop><stop offset=".15" stop-color="#565551"></stop><stop offset=".16" stop-color="#747370"></stop><stop offset=".18" stop-color="#979694"></stop><stop offset=".19" stop-color="#949391"></stop><stop offset=".26" stop-color="#72716e"></stop><stop offset=".34" stop-color="#575653"></stop><stop offset=".42" stop-color="#44433f"></stop><stop offset=".5" stop-color="#393834"></stop><stop offset=".58" stop-color="#353430"></stop><stop offset=".72" stop-color="#2e2d29"></stop><stop offset=".92" stop-color="#1b1a15"></stop><stop offset="1" stop-color="#12100b"></stop></linearGradient><linearGradient id="linear-gradient-16" x1="151.58" y1="155.96" x2="165.22" y2="155.96" xlink:href="#linear-gradient-15"></linearGradient><linearGradient id="linear-gradient-17" x1="160.71" y1="157.8" x2="185.75" y2="157.8" xlink:href="#linear-gradient-15"></linearGradient><linearGradient id="linear-gradient-18" x1="111.46" y1="133.34" x2="137.56" y2="133.34" gradientUnits="userSpaceOnUse"><stop offset="0" stop-color="#71706d"></stop><stop offset=".06" stop-color="#73726f"></stop><stop offset=".09" stop-color="#7b7a78"></stop><stop offset=".12" stop-color="#898886"></stop><stop offset=".14" stop-color="#9c9b99"></stop><stop offset=".16" stop-color="#b5b4b3"></stop><stop offset=".18" stop-color="#d0cfce"></stop><stop offset=".19" stop-color="#cbcac9"></stop><stop offset=".3" stop-color="#9a9997"></stop><stop offset=".41" stop-color="#716f6c"></stop><stop offset=".53" stop-color="#4e4d49"></stop><stop offset=".64" stop-color="#34322e"></stop><stop offset=".76" stop-color="#211f1a"></stop><stop offset=".88" stop-color="#16140f"></stop><stop offset="1" stop-color="#12100b"></stop></linearGradient><linearGradient id="linear-gradient-19" x1="112.04" y1="117.46" x2="121.33" y2="117.46" gradientUnits="userSpaceOnUse"><stop offset="0" stop-color="#353430"></stop><stop offset=".05" stop-color="#373632"></stop><stop offset=".08" stop-color="#3f3e3b"></stop><stop offset=".1" stop-color="#4d4c49"></stop><stop offset=".12" stop-color="#61605c"></stop><stop offset=".14" stop-color="#7a7976"></stop><stop offset=".16" stop-color="#999896"></stop><stop offset=".17" stop-color="#bdbcbb"></stop><stop offset=".18" stop-color="#d0cfce"></stop><stop offset=".19" stop-color="#cbcac9"></stop><stop offset=".3" stop-color="#9a9997"></stop><stop offset=".41" stop-color="#716f6c"></stop><stop offset=".53" stop-color="#4e4d49"></stop><stop offset=".64" stop-color="#34322e"></stop><stop offset=".76" stop-color="#211f1a"></stop><stop offset=".88" stop-color="#16140f"></stop><stop offset="1" stop-color="#12100b"></stop></linearGradient><linearGradient id="linear-gradient-20" x1="104.11" y1="131.01" x2="110.22" y2="131.01" gradientUnits="userSpaceOnUse"><stop offset="0" stop-color="#71706d"></stop><stop offset=".06" stop-color="#73726f"></stop><stop offset=".1" stop-color="#7b7a78"></stop><stop offset=".13" stop-color="#898886"></stop><stop offset=".15" stop-color="#9c9b99"></stop><stop offset=".18" stop-color="#b5b4b3"></stop><stop offset=".18" stop-color="#b8b7b6"></stop><stop offset=".3" stop-color="#939291"></stop><stop offset=".43" stop-color="#72716e"></stop><stop offset=".57" stop-color="#575653"></stop><stop offset=".71" stop-color="#44433f"></stop><stop offset=".85" stop-color="#393834"></stop><stop offset="1" stop-color="#353430"></stop></linearGradient><linearGradient id="linear-gradient-21" x1="136.25" y1="93.11" x2="136.92" y2="94.59" gradientUnits="userSpaceOnUse"><stop offset="0" stop-color="#fff"></stop><stop offset=".12" stop-color="#ececec"></stop><stop offset=".91" stop-color="#4d4c48"></stop></linearGradient><linearGradient id="linear-gradient-22" x1="127.85" y1="108.32" x2="152.54" y2="108.32" gradientUnits="userSpaceOnUse"><stop offset=".69" stop-color="#fff"></stop><stop offset=".72" stop-color="#fafafa"></stop><stop offset=".75" stop-color="#ebebea"></stop><stop offset=".8" stop-color="#d2d2d1"></stop><stop offset=".84" stop-color="#afafad"></stop><stop offset=".89" stop-color="#83827f"></stop><stop offset=".93" stop-color="#4e4c48"></stop><stop offset=".98" stop-color="#12100b"></stop></linearGradient><linearGradient id="linear-gradient-23" x1="126.23" y1="169.45" x2="135.38" y2="137.07" gradientUnits="userSpaceOnUse"><stop offset="0" stop-color="#e7e7e7"></stop><stop offset=".07" stop-color="#4d4c48"></stop><stop offset=".26" stop-color="#777774"></stop><stop offset=".35" stop-color="#888885"></stop><stop offset=".49" stop-color="#a0a09e"></stop><stop offset=".6" stop-color="#b1b0af"></stop><stop offset=".72" stop-color="#939291"></stop><stop offset=".88" stop-color="#72716e"></stop><stop offset=".96" stop-color="#656461"></stop><stop offset="1" stop-color="#acabaa"></stop></linearGradient></defs><g style="isolation:isolate"><g id="Layer_1" data-name="Layer 1"><path class="cls-2" d="M186.28 169.41c-1.61-4.84-8.15-17-13.29-23.81-1.11-1.49-.7-2.25-.1-2.74a42.38 42.38 0 0 0 4.76-4.72c2.29-2.61 2.84-5.57 1.23-9.84s-6.93-14.3-8-17.64c-1.28-3.84-1.41-5.55-.64-7.65.91-2.47 2.23-2.57 3.24-2.56a1.06 1.06 0 0 1 .93.84 14.26 14.26 0 0 0 1.14 5.24 16.33 16.33 0 0 0 7.42 8c.95.41 1.12-.33 1-.69l-2.56-10.06c-1.11-4.37-1.67-5.32-2.66-6.24a8.59 8.59 0 0 0-6-2.22c-4.51.17-6.51 4.54-6.75 4.94s-.3.62-.76.3c-1.29-.9-5.06-4-5.41-6-.2-1.17-.4-1.33-1.57-1.78-4.53-1.77-8.45-3.32-12.79-4.09a7.29 7.29 0 0 0-3.87-.08 26.21 26.21 0 0 0-8.16 2.8 4 4 0 0 0-1.86 1.59 1.92 1.92 0 0 1-1 .78 44.38 44.38 0 0 0-5.16 2.11c-.68.4-1 .82-.7 1.6a22.12 22.12 0 0 0 3.26 4.92 5.6 5.6 0 0 0 2 .79c.29.07.49.16.6-.06a1.87 1.87 0 0 1 .74-1 8.17 8.17 0 0 1 3.31-1.09 1.94 1.94 0 0 1 1.38.16 4.62 4.62 0 0 1 1.38 1.9c.26.82.1 1.13-.37 1.33a14.57 14.57 0 0 1-3.46.64c-1.6.13-2.05-.32-2.17-.42a.29.29 0 0 0-.46 0 3.2 3.2 0 0 1-1.3.93c-.35.17-.54.55-.21 1.14 1 1.77 2.37 3.75 3.62 4.13 1 .31 1.52 0 2.64-.82s1.65-.71 1.93-.51.9.73.74 1.24a18.14 18.14 0 0 1-2.39 3.44.87.87 0 0 1-1.21.36c-.84-.41-13.67-7.06-15.38-7.73a13.87 13.87 0 0 0-4.93-1 24.31 24.31 0 0 0-4.71.31 4.25 4.25 0 0 0-2.27 1.37c-1.16 1.07-2.39 2.45-2.5 3.59a6.1 6.1 0 0 0 .93 2.62.74.74 0 0 0 .77.31 7.74 7.74 0 0 1 3.29-.46c1.37.24 1.51 1.32 1.58 2.14a.55.55 0 0 0 .57.46 5.1 5.1 0 0 1 2.39.48 22.37 22.37 0 0 1 4 2.86c.29.34.28.64-.3.7a55.59 55.59 0 0 0-9.86 1.89c-1.53.49-3.33 1.18-4 2.29a17.77 17.77 0 0 0-1.9 4.7c-.26 1.43 1.27 3.21 1.68 3.6s.46.44 1 .17a10.77 10.77 0 0 1 4.29-1.65c1-.06 1.47.93 1.73 1.3s.49.11 1.43-.15c1.67-.45 11-.28 14.26-.12a12.31 12.31 0 0 1 5.13 1.13 32.38 32.38 0 0 1 4.3 3.46s-3.68 6.16-5.66 9.82c-1.83 3.37-3.17 5.91-3.83 7.38a10.78 10.78 0 0 0-1 4.75 40.39 40.39 0 0 1 .19 4.31c0 .88-.84 1-2 1.26-1.59.4-4.77.69-7.34 1.33-2.35.58-3.22 1.13-3.64 2.94a49.17 49.17 0 0 0-.87 6.54c0 .65 0 1 .79.8.48-.09 1.86-.29 3.61-.42 2.17-.17 4.53-.13 6.35-.14 3.34 0 13.23.56 13.89.63.84.08 1 0 1-.61-.07-.78-.21-3.26-.25-4.74s-.27-3 1.07-4.44 11.4-12.68 12-13.25.81-1 1.56-.33 9 6.67 10.73 7.9a8.39 8.39 0 0 0 5.17 1.66c1.37 0 1.75 2.41.59 2.63s-3 .61-4.29.9c-2 .45-2.56 1.1-3.15 2.42-.5 1.12-1.06 6.6-1.08 7.07s0 .84.5.73a50.62 50.62 0 0 1 10.36-.5c4.71.14 9.28.53 9.93.57s.75-.06 1.1-.6a23.85 23.85 0 0 1 3.91-4.24c.7-.6.72-.86.39-1.8zm-18.08-33.17a2.33 2.33 0 0 1-2.55-.5c-.59-.56-5.34-6.27-6.87-8a2.22 2.22 0 0 1 1-3.76c1.9-.69 5.31-1.78 6.26-2.28a2.35 2.35 0 0 0 1.53-2c.08-1 .08-2.07.09-2.43s.48-.66.72-.23 1 2 2.07 3.89c1.55 2.89 3.51 6.5 4.15 8a3.4 3.4 0 0 1-.61 3.76c-1.28 1.59-4.92 3.31-5.79 3.55z"></path><path d="M173.1 96.2c-3.71 0-7.47 4.28-6.75 10.69a23 23 0 0 0 2.2 8.24c.58 1.25 6.91 13.3 7.2 14.58a3.86 3.86 0 0 1-1.35 4.24 20.06 20.06 0 0 1-5.84 3.58 3.49 3.49 0 0 1-1.13.21c-.39 0-1.36-.13-3.22-2.41l8.18 10.91c-1-1.39-1.58-2.45-1.39-3.37s1.67-1.91 3.39-3.26a13 13 0 0 0 4.48-5.29 5.41 5.41 0 0 0 .37-2c0-2.18-1.06-4.64-2.32-7.31-1.64-3.47-6.27-11-7.68-16.33a13.53 13.53 0 0 1-.5-3.51c0-3 1.28-4.91 2.84-5.56a5.31 5.31 0 0 1 2-.4 3.8 3.8 0 0 1 1.71.37 1.28 1.28 0 0 1 .5 1.18v.74a14.11 14.11 0 0 0 1.61 6.59 13.8 13.8 0 0 0 6.07 5.72c.1 0-2.81-10.75-3.33-12.78-.68-2.41-2.36-4.78-7.04-4.83z" fill="url(#linear-gradient)"></path><path d="M122.17 120.18c.71.71-.53.67-4.3 1a42.17 42.17 0 0 0-9.73 1.87c-1.48.55-2.38 1-3 2.31a23.27 23.27 0 0 0-1.39 3.72 1.5 1.5 0 0 0 .2 1.21c.15.22.5-7 9.78-7.44 8.21-.42 10.23-1.28 8.63-2.85z" fill="url(#linear-gradient-2)"></path><path d="M169.17 105.42a15.22 15.22 0 0 1 .51-2.77c.83-2.39 2.36-2.89 3.41-2.89a1.57 1.57 0 0 1 1.33.49 1.36 1.36 0 0 1 .42.85 13.21 13.21 0 0 0 1.11 5.06c.06.17.12.34.19.5a14.79 14.79 0 0 1-1-5.37v-.74c0-.81-.89-1-1.69-1a4.69 4.69 0 0 0-1.79.37c-1.29.52-2.48 2.14-2.53 4.91z" fill="url(#linear-gradient-3)"></path><path d="M122.49 120.49c.28.76-.83.58-4.6.91a42.47 42.47 0 0 0-9.73 1.83c-1.49.56-2.38 1-3 2.32a24.07 24.07 0 0 0-1.4 3.72 1.55 1.55 0 0 0 .31 1.21c.39.62.65.75 1.22.43a10.58 10.58 0 0 1 3.86-1.46 1.83 1.83 0 0 1 1.95 1.36c.11.4.65.19.74.17a13.32 13.32 0 0 1 3-.44c2.28-.16 11.17-.09 14.44 0 2.94.07 14.5 9.14 14.67 9.18l.58-1.17c-3.92-3.25-18.52-14.82-22-18.27z" fill="url(#linear-gradient-4)"></path><path d="M155.81 127.66c1.76 2.11 7 8.48 11.49 14.22a112.74 112.74 0 0 1 15.85 26.33c.46 1 .11 1.14-.61 1.72-1.39 1.13-1.1 1.59-2.13 3.38-.12.2-.39.54-.72.51-1-.08-8.4-.71-13.28-.54a17.92 17.92 0 0 0-4.3.47c-.52.12-.7.07-.69-.61a31.64 31.64 0 0 1 1-4.44 2.65 2.65 0 0 1 2-1.82c1-.27 3.73-.78 4.84-1.06s1.17-1.34 1.07-2.15-.74-1.88-1.47-2a10.47 10.47 0 0 1-2.72-.78c-1-.48-16.25-12.71-17.64-13.84-.35-.29-.62-.51-.73-.38s.18.5.31.64 2.55 2.64 3.06 3.12.17.53 0 .71-7.46 7.33-10.44 10.42-5.12 4.89-5.1 7.36.14 4.39.15 4.82-.39.36-.7.33c-.93-.08-8.06-.78-12.07-.87a33.87 33.87 0 0 0-8.78.78c-.45.11-.58-.16-.55-.54a28.47 28.47 0 0 1 1-4.81 2.71 2.71 0 0 1 2.19-1.83c1.3-.32 6.43-1.24 8.73-1.59 1.26-.21 1.52-.63 1.51-1.69s-.15-3.38-.2-4.53a8.24 8.24 0 0 1 .74-3.44c1.82-4.26 6.28-13.26 10.17-18.63a1.19 1.19 0 0 1 1.32-.62 30.44 30.44 0 0 1 3 2.05c.41.21 1 0 .71-.23-1.36-1.36-5.47-3.85-8-5.85-4.95-3.94-10.11-9.68-14.26-13.51-2.14-2-4.44-3.43-6.15-3.8a16.38 16.38 0 0 0-1.7-.21.37.37 0 0 1-.3-.38A1.94 1.94 0 0 0 112 113a2.74 2.74 0 0 0-1.85-.61 12.11 12.11 0 0 0-3 .37c-.38.1-.56 0-.7-.14a3 3 0 0 1-.43-1.12 1.51 1.51 0 0 1 .25-1 12.42 12.42 0 0 1 2.56-2.61 2.84 2.84 0 0 1 2-.84 19.06 19.06 0 0 1 6.42.18 21 21 0 0 1 4.77 1.9c1.68.84 11.44 5.84 12.69 6.43z" fill="url(#linear-gradient-5)"></path><path d="M139.59 109.88c.19 1.22-.59 2-1.07 2.76a31 31 0 0 1-1.9 2.45 2 2 0 0 1-1.82.55s5.63 2.86 8.86 4.48c1.29.65 3.3 0 4.67-2.51.32-.59 2.34-4.87 2.84-6.15a5.35 5.35 0 0 0 .07-5.11c-1.16-2.42-4.75-6.89-6.18-8.61a4.3 4.3 0 0 0-3.53-1.55 23.41 23.41 0 0 0-7.18 1 64.7 64.7 0 0 0-7.06 2.48c-.08 0-.07.13 0 .22l.44.79a2 2 0 0 0 .79.8 4.81 4.81 0 0 0 1.31.5.24.24 0 0 0 .27-.11 4.14 4.14 0 0 1 2.72-1.71 8.87 8.87 0 0 1 2.21-.32 3.2 3.2 0 0 1 1.87.74 6.51 6.51 0 0 1 1.56 2.62 1.43 1.43 0 0 1-.56 1.61 13.15 13.15 0 0 1-3.35.81 5.16 5.16 0 0 1-2.81-.32.21.21 0 0 0-.27 0 5.11 5.11 0 0 1-.86.64c-.11.06-.17.19-.07.4a13.94 13.94 0 0 0 2.24 3c.8.6 1.23.33 2.19-.2s1.62-1.19 2.62-1.16a2.23 2.23 0 0 1 2 1.9z" fill="url(#radial-gradient)"></path><path d="M137.79 105a13 13 0 0 1-3.28.74 5.22 5.22 0 0 1-2.76-.28.23.23 0 0 0-.27 0 4.94 4.94 0 0 1-.83.59c-.11.06-.18.18-.08.37a12.48 12.48 0 0 0 2.12 2.79c.82.59 1.26.32 2.24-.2s1.64-1.16 2.65-1.13z" style="mix-blend-mode:multiply" fill="url(#radial-gradient-2)" opacity=".85"></path><path d="M134.2 97.5a63.66 63.66 0 0 0-6.71 2.25c-.07 0-.06.21 0 .29s.42.71.42.71a1.72 1.72 0 0 0 .75.74 5.32 5.32 0 0 0 1.16.47.24.24 0 0 0 .27-.11 4.14 4.14 0 0 1 2.72-1.71 8.87 8.87 0 0 1 2.21-.32z" style="mix-blend-mode:multiply" fill="url(#radial-gradient-3)" opacity=".85"></path><path d="M139.61 110.06a4 4 0 0 1-1.07 2.84c-.46.74-1.42 1.83-1.9 2.45a1.39 1.39 0 0 1-1.53.44s5.32 2.71 8.55 4.33c1.29.65 3.22.21 4.59-2.35.32-.59 2.35-4.87 2.85-6.15z" style="mix-blend-mode:multiply" fill="url(#radial-gradient-4)" opacity=".85"></path><path d="M113.11 130.08c-.25-.1-.25-.39.08-.74a7.84 7.84 0 0 1 2.55-1.61c.91-.21 4.11-.5 5.47-.58.38 0 5.33-.47 5.78-.44s1.58 1.78 2.92 3.23c-.16 0-4.47-.09-8.12-.08-3.46 0-6.51.11-7.63.2a3.41 3.41 0 0 1-1.05.02z" fill="url(#linear-gradient-6)"></path><path d="M113.08 130.14v-.06.06a.33.33 0 0 1-.22-.31.88.88 0 0 1 .28-.54 8.08 8.08 0 0 1 2.58-1.63c.92-.21 4.12-.5 5.48-.58.38 0 5.11-.44 5.76-.44a.93.93 0 0 1 .5.33c.19.19.42.46.67.77.51.63 1.12 1.43 1.78 2.15l.1.1h-.21c-.57 0-4.24-.07-7.56-.07h-.49c-3.46 0-6.51.1-7.62.19a6.88 6.88 0 0 1-.77.07 1.43 1.43 0 0 1-.32-.05zm.32-.09a7.23 7.23 0 0 0 .76-.06c1.12-.09 4.17-.19 7.63-.19h.49c3.19 0 6.71.07 7.48.07-1-1.06-1.81-2.26-2.36-2.81a.86.86 0 0 0-.41-.29c-.63 0-5.37.42-5.75.44-1.35.08-4.56.38-5.46.58a8.17 8.17 0 0 0-2.52 1.6.69.69 0 0 0-.24.44.21.21 0 0 0 .14.19 1 1 0 0 0 .27 0z" fill="#7f7f7e"></path><path d="M184.37 168.63a124.58 124.58 0 0 0-11.51-20.44c-5.68-8.36-15.31-19.68-16.64-21.57s-1.81-3.91.9-4.77c1.77-.56 6-1.45 7.79-1.93s1.82-1 2-2.33a65.72 65.72 0 0 0-1.1-12.43 3.47 3.47 0 0 0-1.43-2 35.73 35.73 0 0 1-4.25-4 9.86 9.86 0 0 1-2.4-4.53 1.14 1.14 0 0 0-.32-.52 1.38 1.38 0 0 0-.39-.3c-2.56-1.56-11.58-4-13.42-4.19a20.12 20.12 0 0 0-9.79 2.9c-1.19.73-1.24 1.62-2.08 2.1s-2.75.92-4.76 1.82c-1.1.5-1.11.58-.85 1.2.11.27.83 1.58 1.2 1.58a3.48 3.48 0 0 0 1.24-.36 60.49 60.49 0 0 1 7.71-2.44c3.51-.75 7.27-.81 8.61.6a57.7 57.7 0 0 1 6.7 9.09c1.06 2.07 1 3.08.25 5.21a61.2 61.2 0 0 1-3.85 8.13c-.73 1.06-1.62 1.65-3.73.78-2.27-.93-10.62-5.21-12.43-6.13l-10.29-5.19a19.8 19.8 0 0 0-3.93-1.58 19.11 19.11 0 0 0-7.38-.16c-.65.1-1.06 1.15-1 1.57s1.56.15 2.82.24a26.89 26.89 0 0 1 6.51 1.26c2.11.86 12.73 6.58 15.41 8 20.43 11.11 29.17 18.27 45 44.79.71 1.19 1 2.64-.07 3-1.61.47-8.35 1.75-10.38 2.41-1.72.57-1.94.71-2.2 1.55a14.64 14.64 0 0 0-.61 3.27c0 .16-.09.36.26.36 1.9 0 8.69 0 13.92.51.63.06.67 0 1.07-.56a19.63 19.63 0 0 1 3.46-3.65c.38-.38.04-1.07-.04-1.29z" fill="url(#linear-gradient-7)"></path><path d="M179.56 164.7c-.1-1.08-1.09-2.68-2.85-5.43s-4-6.55-6.94-10.74a84.52 84.52 0 0 0-16.84-18.31 115.41 115.41 0 0 0-13.36-8.89c-3.65-2.14-19.06-10.57-21.45-11.32a26.21 26.21 0 0 0-5.44-1.06 27.78 27.78 0 0 0-2.87 0c-.88 0-.57-.71-.44-1-.09.2-.62 1.19.25 1.19a30.7 30.7 0 0 1 3.09.06 26.51 26.51 0 0 1 5.81 1.32c2.14.83 12.2 6.83 14.8 8.28a139.93 139.93 0 0 1 19.38 13c8.55 6.88 15.92 14.86 25.17 31.06a3.2 3.2 0 0 1 .56 1.7 1.32 1.32 0 0 1-1 1.3c-1.59.48-8.12 1.95-10 2.62-1.65.58-2 .94-2.18 1.7a9.69 9.69 0 0 1-.69 2.27 2.45 2.45 0 0 1-1.88.51c-.49 0-.73 0-.68-.52s.36-2 .55-2.88a2.78 2.78 0 0 1 1.32-2c.78-.47 3.49-.91 5-1.28s1.6-1.08 1.57-2.23c0 1.22-.42 1.51-1.95 1.86s-4.15.68-5 1.26a3.25 3.25 0 0 0-1.3 2 21.59 21.59 0 0 0-.81 4.28c0 .47.23.53.76.47s1.84-.24 3.81-.32c.58 0 .54-.7.53-1.48a5.84 5.84 0 0 1 .16-1.54 1.49 1.49 0 0 1 1-.95c1.09-.33 7.16-2 10.24-2.89 1.25-.38 1.81-.81 1.68-2.04z" fill="url(#linear-gradient-8)"></path><path d="M139.08 136.27a8.8 8.8 0 0 1 1.79 1.12l.87.64a154.15 154.15 0 0 0-12.1 17.65 7.42 7.42 0 0 0-1 4.54c0 1.71.23 3.82.12 4.8s-.74 1.42-1.74 1.7-6.87 1.22-8.16 1.6a2.33 2.33 0 0 0-1.82 2.05c-.22.94-.29 1.55-.4 1.91s0 .69-.42.72-1.28.1-1.7.16-.48 0-.47-.49a29.14 29.14 0 0 1 .73-3.59 2.64 2.64 0 0 1 2.22-2.17c1.47-.36 7.45-1.36 8.57-1.56 1.33-.24 1.65-.8 1.59-2.08s-.26-3.17-.29-4.31a7.6 7.6 0 0 1 .41-3.1c.41-1.11 2.54-5.72 4.31-9a115.75 115.75 0 0 1 6.06-10c.52-.55.85-.77 1.43-.59z" fill="url(#linear-gradient-9)"></path><path d="M135.63 169.08a4.7 4.7 0 0 1 1-3 41.4 41.4 0 0 1 4-4.4c3-3.11 10.31-10.27 10.57-10.53s.36-.39 0-.79c-.73-.69-1.11-1.14-2.25-2.28-.7-.7-1.18-1.12-1.16-1.36 0 0-8.16 9.14-10.84 15.94a12.11 12.11 0 0 0-1.41 5 5.68 5.68 0 0 0 .09 1.42z" style="mix-blend-mode:multiply" fill="url(#linear-gradient-10)"></path><path d="M109.73 109.11a25.22 25.22 0 0 1 3.18.08 25.79 25.79 0 0 1 5.81 1.38c.78.33 2.63 1.33 4.78 2.55 3.74 2.11 8.4 4.86 10.06 5.79a143.77 143.77 0 0 1 14.87 9.59c1.57 1.16 3.07 2.36 4.55 3.55 8.57 6.93 15.61 14.59 25 31a2.84 2.84 0 0 1 .43 1.7 1.34 1.34 0 0 1-1.14 1.13z" style="mix-blend-mode:multiply" fill="url(#linear-gradient-11)"></path><path d="M165.7 101.41a1.27 1.27 0 0 1-.75-.27c-1.36-1-5.15-4-5.7-6.47-.34-1.17.09-.64-1.13-1.25-.34-.14-.67-.27-1-.39l.33.18a1.91 1.91 0 0 1 .48.35 1.89 1.89 0 0 1 .57.94 9.25 9.25 0 0 0 2.24 4.2 35.41 35.41 0 0 0 4.25 3.84 4.82 4.82 0 0 1 .94.76 13.4 13.4 0 0 1 .8-2.67 3.18 3.18 0 0 1-.24.37 1 1 0 0 1-.79.41z" fill="url(#linear-gradient-12)"></path><path d="M157.41 122.53c-1.26.46-1.42.86-1.46 1.49a4.2 4.2 0 0 0 .83 2.28c.66.94 3.84 4.56 7.39 9a11.61 11.61 0 0 0 .92 1c-.13-.17-5.14-6.51-6.68-8.26a3.24 3.24 0 0 1-.94-2.11 3 3 0 0 1 2.11-2.68c1.91-.7 5.37-1.82 6.16-2.25s1-.63 1.11-1.16a4.3 4.3 0 0 1-1.55.72c-1.79.55-6.19 1.44-7.89 1.97z" fill="url(#linear-gradient-13)"></path><path d="M166.75 101.75c.69-2.4 2.87-5.24 6.34-5.24 4.42 0 6.26 1.66 6.88 4.15-.79-3.53-3.88-4.63-6.89-4.55-3.38.07-5.67 2.95-6.33 5.64z" fill="url(#linear-gradient-14)"></path><path d="M138 165.8c.59-.63 2.87-3.17 5.29-5.86l-2.07 2.11c-3.42 3.5-5 4.59-4.9 6.76 0 1.29.14 4.45.14 4.92a.82.82 0 0 1-.51.91 2.36 2.36 0 0 1-1 .14c-.93 0-9.95-.88-13.11-.88a33.18 33.18 0 0 0-7.51.76 1.28 1.28 0 0 1-1.22-.39 1.12 1.12 0 0 1-.21-.61c-.07.61-.13 1.33-.13 1.65a36.33 36.33 0 0 1 3.65-.43c2.21-.17 4.72-.14 6.39-.14s14.08.64 14.13.64c-.08-.95-.21-3.22-.24-4.64v-1.37a4.94 4.94 0 0 1 1.3-3.57z" fill="url(#linear-gradient-15)"></path><path d="M163.18 160a7.82 7.82 0 0 0 2 1.09c-.57-.4-1.41-1-2.51-1.88-1.6-1.23-3.64-2.84-5.69-4.47l-5-4a1.09 1.09 0 0 1-.48.88 1.78 1.78 0 0 1 .93.5c.72.66 9.08 6.71 10.75 7.88z" fill="url(#linear-gradient-16)"></path><path d="M185.35 170.7c.29-.23.4-.22.4-.44a3.64 3.64 0 0 0-.22-.83c-1.69-4.83-8.13-16.76-13.13-23.39a3.85 3.85 0 0 1-.8-2.07 2 2 0 0 1 .81-1.64c.35-.29 1.2-1 2.31-2.12-1.73 1.29-2.94 2.33-3.08 2.79a2.3 2.3 0 0 0-.2.93 3.92 3.92 0 0 0 .84 2.21l1.15 1.65a121.1 121.1 0 0 1 11.4 20.69c.33.94.26 1.4 0 1.82 0 0-3 3.09-3.39 3.67a2.87 2.87 0 0 1-.48.61 1.86 1.86 0 0 1-1.25.26c-4.47-.42-9.32-.59-11.75-.59-3.16 0-5 .3-6.06.33a1.66 1.66 0 0 1-1-.21c0 .44-.07.77-.08.92a44.88 44.88 0 0 1 7.37-.49h2.8c4.72.15 10.2.58 10.22.58a42.11 42.11 0 0 1 4.14-4.68z" fill="url(#linear-gradient-17)"></path><path d="M137.56 135.75c-1.42-1-2.92-2-4.28-2.85a12.45 12.45 0 0 0-4-1.88c-5.45-.09-5.45-.09-8.66-.09-2.51 0-4.88.1-5.83.17a17.9 17.9 0 0 0-3 .41 1.17 1.17 0 0 1-.31 0l.16.28.26-.09a32.74 32.74 0 0 1 6.89-.49c3 0 6.36 0 8.07.1a13 13 0 0 1 5.45 1.23c1.59.93 5.09 3.36 5.25 3.21z" fill="url(#linear-gradient-18)"></path><path d="M121.1 119.91c-2.07-1.92-5.2-4.13-6.67-4.44a11.78 11.78 0 0 0-1.84-.2c-.45 0-.42-.56-.55-.66 0 .1 0 .89.32.91a5.84 5.84 0 0 1 2.54.36 37.62 37.62 0 0 1 5.45 3.85c.65.77 1.34.7.75.18z" fill="url(#linear-gradient-19)"></path><path d="M109.33 130.36a1.8 1.8 0 0 1 .89.15c-.21-.36-.44-.52-1.11-.51a13.22 13.22 0 0 0-3.82 1.5c-.58.32-.82.33-1.18-.06.16.39.44.64.69.55s3.2-1.63 4.53-1.63z" fill="url(#linear-gradient-20)"></path><path d="M138.05 92.79c.45-.08.83-.17.88.2a1.27 1.27 0 0 1-.07.58.48.48 0 0 1-.33.28c-.47.15-3.13 1.13-3.59 1.31a.39.39 0 0 1-.6-.23 1.58 1.58 0 0 1 .15-1 .75.75 0 0 1 .51-.4c.22-.06 2.37-.64 3.05-.74z" fill="url(#linear-gradient-21)"></path><path class="cls-2" d="M138 93c.3-.06.44 0 .46.13a1 1 0 0 1 0 .34c0 .09 0 .14-.2.2-.3.1-2.25.8-2.72 1s-.64.08-.68-.1a1.08 1.08 0 0 1 .1-.6.6.6 0 0 1 .35-.27c.3-.11 2.11-.58 2.69-.7z"></path><path d="M148.84 118.42c.33-.59 2.48-5.15 3-6.46a6.89 6.89 0 0 0 .7-2.69 6.69 6.69 0 0 0-.65-2.72c-1.19-2.5-4.94-7.25-6.44-9-1.27-1.5-2.42-1.73-4.58-1.68-5.51.14-10.32 2.48-13 3.58 1.92-.65 6.6-2.57 11.81-2.88 2.87-.18 4 .07 5.07 1.24a61.76 61.76 0 0 1 6.33 8.87 4.68 4.68 0 0 1 .65 2.55 8.11 8.11 0 0 1-.81 2.66c-.55 1.26-2.58 5.38-2.93 6-1.48 2.56-2.89 2.47-4.4 2.12.08 0 .77.37 1.4.63 1.74.66 2.85-.34 3.85-2.22z" fill="url(#linear-gradient-22)"></path><path d="M142.18 138.34c-.06 0-.32-.22-.67-.48a95.59 95.59 0 0 0-7.14 9.72c-2 3.11-4.78 7.76-5.22 8.79a7.08 7.08 0 0 0-.56 2.9s.16 5 .16 5.06a2.25 2.25 0 0 1-.42 1.52 2.39 2.39 0 0 1-1.56.68c-1.16.17-6.64 1-8.14 1.32a2.83 2.83 0 0 0-2.4 2 10.51 10.51 0 0 0-.5 2.4 1.41 1.41 0 0 0 0 .29c0 .55.16.52.16.52a96.37 96.37 0 0 1 10.12-.26c3.78.22 9 .71 9 .71s-5.49-1-9.22-1.26-8.68.19-8.72 0a2.27 2.27 0 0 1-.09-.85c.06-.29.14-.63.24-1a2.57 2.57 0 0 1 2.13-2.08c1.38-.35 6.7-1.23 7.72-1.48s1.64-.62 1.78-1.44a10.68 10.68 0 0 0 .07-1.33c0-1.06-.19-3.9-.19-4.08a7.37 7.37 0 0 1 1.26-4.56c1.77-3 8.43-13.07 11.75-16.59.2-.22.3-.41.67-.35a1 1 0 0 1-.23-.15z" fill="url(#linear-gradient-23)"></path><path class="cls-31" d="M62.5 196.39v14.78h4.07v-4.54h3.65c7.82 0 11.81-2.51 11.81-5.29 0-3-4.28-5-11.46-5zm4.07 8.61v-7h3.21c3.31 0 7.67.56 7.67 3.3 0 1.86-1.41 3.69-8.2 3.69zM105.25 211.17v-1.86h-10c-2.15 0-2.78-1-2.78-2.63v-2.16h11.78v-1.86H92.43v-4.42h12.31v-1.85H88.36v10.38c0 2.78 1.15 4.4 4.9 4.4zM131.3 196.39h-4.07v12.48a14.17 14.17 0 0 1-4.81.74c-3.13 0-6.23-.8-6.23-3.54v-9.68h-4.07v10c0 4.08 4.07 5.28 8.55 5.28a26.84 26.84 0 0 0 10.63-2.09zM142.62 203.82c0-4.1 3.49-6 7.74-6a25.59 25.59 0 0 1 8.71 1.86v-2.48a29 29 0 0 0-8.71-1.24c-6.82 0-12.37 3.13-12.37 7.88 0 5 5.55 7.82 12.37 7.82a39.39 39.39 0 0 0 9.15-1.26v-5.86h-4v4.38a12.6 12.6 0 0 1-4.85.89c-4.63 0-8-2.3-8-6M183.81 211.17v-1.86h-10c-2.16 0-2.78-1-2.78-2.63v-2.16h11.78v-1.86H171v-4.42h12.31v-1.85h-16.38v10.38c0 2.78 1.15 4.4 4.9 4.4zM201.48 195.94c-6.82 0-12.39 3.19-12.39 8 0 5 5.57 7.74 12.39 7.74s12.37-2.74 12.37-7.74c0-4.77-5.55-8-12.37-8m0 14.05c-4.63 0-7.76-2.39-7.76-6.09 0-4.06 3.48-6.1 7.76-6.1s7.74 2 7.74 6.1c0 3.7-3.13 6.09-7.74 6.09M217.19 198.51h8.12v12.67h4.07v-12.67h8.12v-2.12h-20.31v2.12z"></path></g></g></svg> 