<?xml version="1.0" encoding="UTF-8"?> <svg xmlns="http://www.w3.org/2000/svg" viewBox="0 0 180 29.04"><defs><style>.cls-1{fill:#fff;fill-rule:evenodd}</style></defs><g id="Layer_2" data-name="Layer 2"><g id="Isolation_Mode" data-name="Isolation Mode"><path class="cls-1" d="M23.56 13.32l1.59-7.48 1.6 7.46h-3.19zm9.81 8.44L29 1.06h-7.66l-4.41 20.7 8.22-6.85 8.22 6.84z"></path><path class="cls-1" d="M39.49 28.92H10.81l14.34-11.94 14.34 11.94zM43.08 28.92V5.84h4.38V1.06H33.13v4.78h4.38v19.68l4.08 3.4h1.49zM159.2 6h1.05a2.08 2.08 0 0 1 1.77.66 3.89 3.89 0 0 1 .5 2.32 6.32 6.32 0 0 1-.12 1.3 2.41 2.41 0 0 1-.34.88 1.31 1.31 0 0 1-.8.55 10.06 10.06 0 0 1-2.06.17V6zm0 10.91h1.14a1.87 1.87 0 0 1 1.63.63 3.59 3.59 0 0 1 .47 2.14v6.71a9.22 9.22 0 0 0 .08 1.36 5.33 5.33 0 0 0 .3 1.19h5.86a3 3 0 0 1-.36-.94 10.15 10.15 0 0 1-.06-1.61v-8a3.74 3.74 0 0 0-.89-2.67 5 5 0 0 0-2.84-1.36 6.48 6.48 0 0 0 2.92-2.29 6.92 6.92 0 0 0 .81-3.75c0-2.56-.52-4.43-1.61-5.62S163.87.94 161.56 1h-8.14v28h5.78V17zM144.84 19H142l1.41-12 1.43 12zm2.56-18h-7.64l-4.86 28h5.95l.47-4.86h4.11l.54 4.86h6L147.4 1zM127.48.96h-5.82v27.96h11.95V23.9h-6.13V.96zM114.15.96h-5.83v27.96h11.95V23.9h-6.12V.96zM104.4.96h-5.83v27.96h5.83V.96zM87.53 5.82h.88a1.8 1.8 0 0 1 1.44.56 2.59 2.59 0 0 1 .49 1.7v3.65a3.33 3.33 0 0 1-.14 1.11 1.66 1.66 0 0 1-.49.69 1.17 1.17 0 0 1-.64.36 9.58 9.58 0 0 1-1.54.11V5.82zm0 13.08c1.32 0 2.35 0 3.1-.07a8 8 0 0 0 1.81-.32 5.56 5.56 0 0 0 1.34-.7 4.33 4.33 0 0 0 1.76-2.18 10.25 10.25 0 0 0 .54-3.73V8.33q0-3.74-1.57-5.56A6 6 0 0 0 89.71 1h-8v28h5.79V19zM69.22 6h1a2.08 2.08 0 0 1 1.78.64A3.89 3.89 0 0 1 72.54 9a6.32 6.32 0 0 1-.12 1.3 2.41 2.41 0 0 1-.34.88 1.31 1.31 0 0 1-.8.55 10.14 10.14 0 0 1-2.06.17V6zm0 10.91h1.14a1.88 1.88 0 0 1 1.63.63 3.59 3.59 0 0 1 .47 2.14v6.71a8 8 0 0 0 .08 1.36 5.89 5.89 0 0 0 .29 1.19h5.87a3.28 3.28 0 0 1-.37-.94 12.16 12.16 0 0 1 0-1.61v-8a3.74 3.74 0 0 0-.89-2.67 5 5 0 0 0-2.84-1.36 6.48 6.48 0 0 0 2.92-2.29 6.92 6.92 0 0 0 .81-3.75c0-2.56-.52-4.43-1.61-5.62S73.89.94 71.57 1h-8.13v28h5.78V17zM61.08.96H49.09v27.96h11.99v-4.98h-6.21v-7.05h5.92v-5.03h-5.92V5.94h6.21V.96zM14.53 22.41a38.23 38.23 0 0 0 .11-5.09H8.89c0 1.78 0 4.41-.11 6.13-.44 1.28-3.13 1.76-2.78-1.67V8.29c-.11-1.95.46-2.56 1.31-2.63a1.31 1.31 0 0 1 1.4.93 53 53 0 0 1 .19 6.07h5.54v-.09C14.44 6.94 16 1.07 7.37 1 .47 1.12-.16 4.25 0 10.52l.11 9.12c0 2.71-.61 5.5 1.49 7.6C3.34 29 5.38 29.22 7.88 29c2.28-2 4.52-3.62 6.17-5.33a2.12 2.12 0 0 0 .48-1.21zM176.06 0a3.94 3.94 0 1 1-3.94 3.94A3.93 3.93 0 0 1 176.06 0zm0 .76a3.18 3.18 0 1 1-3.17 3.18 3.18 3.18 0 0 1 3.17-3.18z"></path><path d="M174.72 5.92V2.17h1.66a2.1 2.1 0 0 1 .76.1.76.76 0 0 1 .42.35 1 1 0 0 1 .16.57.94.94 0 0 1-.26.67 1.27 1.27 0 0 1-.8.35 1.76 1.76 0 0 1 .3.19 2.68 2.68 0 0 1 .41.5l.66 1h-.63l-.5-.78a4.41 4.41 0 0 0-.36-.52 1 1 0 0 0-.25-.25.72.72 0 0 0-.22-.1h-.86v1.67zm.49-2.1h1.07a1.47 1.47 0 0 0 .53-.07.57.57 0 0 0 .3-.22.7.7 0 0 0 .1-.34.57.57 0 0 0-.2-.44.93.93 0 0 0-.61-.17h-1.19z" fill="#fff"></path></g></g></svg> 