<?xml version="1.0" encoding="UTF-8"?> <svg xmlns="http://www.w3.org/2000/svg" viewBox="0 0 180 78.03"><defs><style>.cls-1{fill:#fff;fill-rule:evenodd}</style></defs><g id="Layer_2" data-name="Layer 2"><g id="Isolation_Mode" data-name="Isolation Mode"><path class="cls-1" d="M30.46 62.93h-7.53V52.86h-5.25v25.17h5.25V66.77h7.52v11.26h5.26V52.86h-5.25v10.07zM155.75 52.86v3.84h7.13v21.33h5.25V56.7h7.14v-3.84h-19.52zM128.03 52.86h-5.26v25.17h15.02v-3.85h-9.77l.01-21.32zM67.94 73.84c-.08.26-.27.33-.55.33a.51.51 0 0 1-.55-.34l-5.53-21h-6.13l6.35 23A2.56 2.56 0 0 0 64.27 78h4.85a2.57 2.57 0 0 0 2.7-2.18l6.2-23h-4.64l-5.44 21zM0 56.79v17.3C0 76.89 1.44 78 3.92 78h11.74v-3.82H7.17c-1.45 0-1.92-.36-1.92-1.93V58.62c0-1.51.36-1.92 1.93-1.92h8.48v-3.84H3.93C1.25 52.86 0 54.25 0 56.79zM44.11 72.25v-5.48h10.44v-3.84H44.12v-4.31c0-1.45.32-1.92 1.92-1.92h8.62v-3.84H42.79c-2.71 0-3.93 1.35-3.93 3.92v17.3c0 2.66 1.3 3.94 3.93 3.94h13v-3.84H46c-1.45 0-1.92-.33-1.92-1.93zM93.35 67.39c2.43 0 3.92-1.1 3.92-3.93v-6.67c0-2.62-1.24-3.93-3.93-3.93H78.71V78H84V56.7h6.13c1.63 0 1.92.47 1.92 1.92v3.07c0 1.48-.41 1.92-1.92 1.92h-2.9a1.6 1.6 0 0 0-1.74 1.75A2.6 2.6 0 0 0 86 66.7L92.61 78h6.5l-6.94-10.6zM115.67 52.87H104.1c-2.77 0-3.93 1.41-3.93 3.92v17.3c0 2.86 1.52 3.94 3.92 3.94h11.58c2.51 0 3.93-1.19 3.93-3.94v-17.3c0-2.57-1.21-3.92-3.92-3.92zm-3.25 21.31h-5.08c-1.51 0-1.92-.41-1.92-1.93V58.62c0-1.31.18-1.92 1.92-1.92h5.08c1.38 0 1.92.24 1.92 1.92v13.63c0 1.63-.5 1.93-1.93 1.93zM144.06 72.25v-5.48h10.44v-3.84h-10.43v-4.31c0-1.45.32-1.92 1.92-1.92h8.62v-3.84h-11.87c-2.71 0-3.92 1.35-3.92 3.92v17.3c0 2.66 1.3 3.94 3.93 3.94h13v-3.84H146c-1.46 0-1.93-.33-1.93-1.93zM133.59 7.17h-28c-.71 0-1.18-.21-1.18-1.19V1.83A1.63 1.63 0 0 0 102.63 0h-32a1.63 1.63 0 0 0-1.83 1.82V6c0 .87-.42 1.19-1.18 1.19H49.29a2.73 2.73 0 0 0-2.65 1.54l-8.92 17.43a1.68 1.68 0 0 0-.18.74 1.56 1.56 0 0 0 1.7 1.58h28.37c.88 0 1.19.4 1.19 1.19v4.15a1.64 1.64 0 0 0 1.82 1.82h32a1.62 1.62 0 0 0 1.81-1.81v-4.15c0-.85.36-1.19 1.18-1.19h17.8a2.7 2.7 0 0 0 2.73-1.49L135 9.78a1.88 1.88 0 0 0 .33-1 1.59 1.59 0 0 0-1.7-1.58zm-7 7l-4.25 8.32a1.09 1.09 0 0 1-1.07.5H100.1c-.87 0-1.19.4-1.19 1.19v4.79c0 .79-.35 1.18-1.19 1.18H75.53c-.74 0-1.2-.26-1.2-1.19v-4.84c0-.87-.4-1.18-1.19-1.18H47.25a1 1 0 0 1-1.07-1 1 1 0 0 1 .11-.45l4.25-8.32c.16-.29.43-.49 1.07-.49h21.53c.74 0 1.2-.3 1.2-1.2V6.73c0-.85.37-1.19 1.19-1.19h22.18c.79 0 1.19.35 1.19 1.2v4.79c0 .82.38 1.18 1.2 1.18h25.48a1 1 0 0 1 1.07 1 1 1 0 0 1-.11.45z"></path><path class="cls-1" d="M108.6 3.68c0-.43-.34-.52-.7-.52h-.9v2h.28v-.9h.38l.56.86h.31l-.53-.89c.35 0 .61-.17.61-.55zm-.76.35h-.52v-.64h.52c.21 0 .48 0 .48.28s-.09.36-.48.36z"></path><path class="cls-1" d="M107.7 2.38a1.76 1.76 0 1 0 0 3.51 1.76 1.76 0 0 0 0-3.51zm0 3.24a1.48 1.48 0 1 1 1.47-1.49 1.48 1.48 0 0 1-1.47 1.49zM179.15 54.27c0-.43-.35-.52-.7-.52h-.86v2h.28v-.86h.38l.56.86h.31l-.59-.89c.36 0 .62-.17.62-.55zm-.77.35h-.51V54h.52c.21 0 .48 0 .48.28s-.09.36-.49.36z"></path><path class="cls-1" d="M178.24 53a1.76 1.76 0 1 0 0 3.51 1.76 1.76 0 1 0 0-3.51zm0 3.24a1.48 1.48 0 0 1-1.47-1.49 1.47 1.47 0 1 1 1.47 1.49z"></path></g></g></svg> 