<?xml version="1.0" encoding="UTF-8"?> <svg xmlns="http://www.w3.org/2000/svg" viewBox="0 0 120 117.66"><g data-name="Layer 2"><path d="M0 0v117.66h120V0zm28.12 53.48V41.36c0-12.42 5.69-15.06 12.11-15.06 6.09 0 12 1.92 12.3 10.1v5.53h-7.12v-3.59c-.21-4.15-1.36-5.1-5.19-5.29-5.58 0-4.8 8-4.8 11.48V57c-.05 5.79-.06 10 4.81 10 2.8 0 5.15-.8 5.15-5.15v-8.32h-4.92V47h11.83v26.51h-6.83v-2.79c-1.46 2.14-5.13 3.24-7 3.41-11.66 0-10.24-7.6-10.34-20.65zm63.64 36.79H28v-9.94h63.76zm.08-16.81h-6.9V42.77L78.8 73.46h-5.59l-5.83-30.54v30.54h-6.9V27.39h9.62L76.15 58l6.07-30.59h9.62z" fill="#fff" fill-rule="evenodd" data-name="Isolation Mode"></path></g></svg> 