<?xml version="1.0" encoding="UTF-8"?> <svg xmlns="http://www.w3.org/2000/svg" viewBox="0 0 180 136.8"><defs><style>.cls-1{fill:#fff}</style></defs><g id="Layer_2" data-name="Layer 2"><g id="Isolation_Mode" data-name="Isolation Mode"><path class="cls-1" d="M80.6 62.94l.12-.82.11-.82.12-.84.14-.84.14-.87.14-.89.14-.88.16-.89.17-.92.16-.93.17-.91.18-.94.17-.96.21-.96.18-.96.21-.96.21-.98.22-.98.2-.98.24-.98.23-1.01.24-.98.25-1.01.26-.98.26-1.01.26-1 .28-1.01.28-1 .28-.99.3-1 .28-.98.33-1.01.31-.98.32-.98.31-.99.35-.95.32-.99.35-.96.36-.96.35-.93.37-.94.38-.93.37-.91.4-.92.4-.89.39-.88.4-.89.42-.85.42-.86.42-.82.45-.84.44-.8.45-.79.44-.77.47-.75.46-.75.5-.72.47-.71.46-.68.52-.67.49-.63.51-.64.54-.6.51-.59.54-.56.54-.54.56-.49.56-.49.57-.47.56-.44.58-.4.59-.4.6-.35.59-.33.61-.3.63-.26.61-.25.63-.22.65-.18.64-.14.65-.12.68-.09.65-.05h1.1l.4.02.42.05.4.05.4.07.42.09.39.12.42.11.43.15.39.14.42.16.4.19.42.18.42.21.4.24.42.23.42.26.42.28.4.28.42.3.42.31.4.33.42.35.42.35.4.37.42.38.42.39.43.42.39.43.42.42.42.46.4.45.42.49.4.47.42.51.42.52.4.51.42.54.4.54.4.56.42.58.4.59.42.58.39.61.4.63.4.63.4.63.42.66.39.66.4.67.4.68.4.7.39.7.38.71.4.74.4.73.39.75.38.75.39.77.38.77.4.77.37.8.38.82.37.79.37.82.38.84.37.84.38.85.37.84.37.86.38.89.35.87.37.89.35.88.35.92.36.91.37.91.35.94.33.93.35.94.35.96.35.96.33.96.35.95.33.99.32.98.33.98.33 1.01.33.98.32 1.03.31 1 .33 1.01.3 1.03.3 1.03.31 1.05.3 1.03.3 1.05.31 1.05.3 1.06.28 1.05.29 1.08.3 1.07.28 1.08.28 1.07.26 1.08.28 1.1.28 1.07.26 1.08.25 1.1.26 1.12.26 1.1.26 1.1.23 1.12.26 1.12.23 1.13.23 1.12.24 1.12.23 1.13.24 1.14.21 1.13.21 1.14.21 1.15.21 1.12.21 1.15.21 1.14.19 1.15.18 1.14.19 1.17.19 1.15.18 1.14.17 1.18.18 1.14.17 1.17.16 1.15.14 1.16.17 1.15.14 1.17.14 1.15.14 1.17.14 1.17.14 1.14.12 1.17.11 1.17.12 1.15.11 1.17.1 1.17.09 1.14.1 1.17.09 1.15.09 1.17.07 1.14.07 1.15.08 1.17.06 1.14.07 1.15.05 1.15.05 1.14.05 1.15.02 1.15.02 1.14.05 1.12v1.15l.02 1.15v1.12l.02 1.12h-20.55v-1.4l-.03-1.43v-1.4l-.02-1.41-.02-1.4-.03-1.4-.02-1.38-.05-1.41-.04-1.4-.05-1.38-.05-1.38-.04-1.38-.07-1.38-.05-1.38-.07-1.38-.07-1.36-.09-1.35-.07-1.36-.1-1.35-.07-1.36-.09-1.36-.12-1.33-.09-1.33-.1-1.34-.11-1.33-.12-1.33-.12-1.31-.11-1.31-.12-1.31-.14-1.31-.12-1.29-.14-1.29-.14-1.28-.14-1.29-.14-1.26-.16-1.26-.15-1.27-.16-1.26-.16-1.24-.17-1.24-.16-1.24-.16-1.21-.17-1.22-.18-1.22-.17-1.22-.18-1.19-.19-1.19-.19-1.17-.19-1.19-.18-1.15-.19-1.14-.21-1.15-.19-1.15-.21-1.14-.19-1.12-.21-1.13-.21-1.1-.21-1.1-.21-1.09-.23-1.08-.21-1.08-.21-1.05-.24-1.05-.21-1.06-.23-1.02-.23-1.03-.24-1.01-.23-1.01-.24-1-.23-.98-.23-.98-.24-.96-.25-.96-.24-.94-.23-.93-.26-.92-.26-.91-.23-.91-.26-.87-.26-.88-.25-.87-.24-.84-.25-.84-.26-.85-.26-.81-.26-.8-.25-.79-.28-.78-.26-.77-.26-.75-.25-.75-.29-.72-.25-.73-.26-.7-.28-.7-.26-.65-.26-.68-.28-.66-.25-.63-.28-.61-.26-.6-.28-.61-.26-.59-.28-.56-.28-.54-.26-.54-.28-.53-.26-.49-.28-.49-.26-.5-.28-.46-.25-.45-.28-.42-.26-.42-.28-.4-.26-.39-.28-.36-.26-.35-.28-.35-.25-.33-.28-.3-.26-.28-.26-.28-.28-.26-.26-.23-.25-.21-.26-.21-.28-.19-.26-.16-.26-.17-.25-.11-.26-.15-.26-.09-.26-.07-.25-.07-.24-.04-.25-.03-.26-.02-.28.02-.26.03-.28.02-.28.05-.26.07-.28.06-.28.1-.26.12-.28.11-.26.14-.28.14-.25.17-.28.16-.26.21-.28.19-.26.23-.26.21-.25.26-.28.26-.26.28-.26.28-.26.3-.25.31-.26.35-.26.33-.25.37-.26.35-.24.4-.25.4-.26.42-.23.42-.26.44-.24.45-.25.46-.24.49-.25.5-.24.51-.23.51-.24.54-.23.56-.23.57-.24.56-.23.61-.24.6-.23.61-.21.63-.23.66-.24.65-.21.68-.21.68-.23.7-.21.73-.21.72-.21.75-.21.75-.21.77-.22.77-.2.8-.19.82-.21.81-.21.85-.19.84-.19.86-.18.89-.19.89-.19.89-.19.94-.18.93-.17.94-.18.95-.19.96-.17 1.01-.18.98-.17 1.03-.16 1.01-.16 1.05-.17 1.05-.16 1.05-.16 1.08-.17 1.1-.14 1.1-.16 1.12-.14 1.15-.14 1.14-.17 1.15-.14 1.17-.11 1.19-.15 1.19-.13 1.22-.14 1.22-.12 1.24-.12 1.24-.14 1.26-.12 1.26-.11 1.29-.12 1.31-.09 1.33-.12 1.31-.09 1.36-.12 1.35-.1 1.36-.09 1.38-.09 1.41-.1 1.4-.09 1.42-.07 1.46-.09 1.42-.07 1.47-.07 1.48-.07 1.5-.07 1.49-.07 1.5-.05 1.54-.07 1.52-.05 1.57-.04 1.57-.05 1.56-.05 1.6-.04 1.61-.05 1.61-.02 1.64-.05 1.64-.02 1.66-.03 1.66-.02 1.68v1.69l-.02 1.7v3.46l-.03 1.74H70.33V125.5l-.02-1.73v-1.7l-.03-1.69-.02-1.68-.02-1.66-.03-1.66-.02-1.64-.05-1.64-.02-1.61-.05-1.61-.04-1.6-.05-1.56-.05-1.57-.07-1.57-.05-1.52-.06-1.54-.05-1.5-.07-1.49-.07-1.5-.07-1.48-.1-1.47-.07-1.42-.09-1.46-.07-1.42-.09-1.4-.1-1.41-.09-1.38-.12-1.36-.09-1.35-.09-1.36-.12-1.31-.12-1.33-.09-1.31-.12-1.29-.14-1.26-.12-1.26-.11-1.24-.12-1.24-.14-1.22-.14-1.22-.14-1.19-.12-1.19-.14-1.17-.16-1.15-.14-1.14-.14-1.15-.17-1.12-.14-1.1-.16-1.1-.16-1.08-.14-1.05-.17-1.05-.19-1.05-.16-1.01-.16-1.03-.17-.98-.18-1.01-.17-.96-.18-.95-.19-.94-.19-.93-.19-.92-.18-.91-.19-.89-.19-.89-.21-.86-.18-.84-.19-.85-.21-.81-.21-.82-.19-.8-.21-.77-.21-.77-.21-.75-.21-.75-.21-.72-.24-.73-.21-.7-.21-.68-.23-.68-.21-.65-.24-.66-.23-.63-.21-.61-.23-.6-.24-.61-.23-.56-.24-.57-.23-.56-.23-.54-.26-.51-.23-.51-.24-.5-.25-.49-.24-.46-.26-.45-.23-.44-.26-.42-.23-.42-.26-.4-.26-.4-.25-.35-.26-.37-.26-.33-.25-.33-.26-.33-.26-.3-.26-.28-.25-.28-.26-.26-.28-.26-.26-.21-.26-.23-.28-.19-.26-.21-.27-.16-.26-.17-.28-.14-.26-.14-.28-.11-.26-.12-.28-.1-.28-.06-.28-.07-.26-.05-.28-.02-.28-.03-.28-.02-.23.02-.26.03-.26.04-.25.07-.26.07-.26.09-.26.15-.25.11-.26.17-.26.16-.26.19-.25.21-.26.21-.28.23-.26.26-.26.28-.28.28-.25.3-.26.33-.28.33-.26.37-.28.36-.26.39-.28.4-.25.42-.29.42-.25.45-.28.46-.26.5-.28.49-.26.49-.28.53-.26.54-.28.54-.28.56-.26.59-.28.61-.25.6-.28.61-.26.63-.26.66-.28.68-.26.68-.28.67-.26.7-.25.73-.28.72-.26.75-.26.75-.25.77-.26.78-.26.79-.26.8-.25.81-.26.85-.26.84-.26.84-.25.87-.26.88-.23.89-.26.89-.26.91-.23.92-.26.93-.23.94-.24.96-.25.96-.24.98-.23.98-.24 1-.23 1.01-.23 1.01-.21 1.03-.24 1.02-.23 1.06-.21 1.05-.24 1.05-.21 1.08-.21 1.1-.21 1.07-.21 1.1-.21 1.13-.21 1.1-.21 1.14-.19 1.12-.21 1.15-.19 1.15-.21 1.14-.18 1.17-.19 1.17-.19 1.17-.18 1.19-.17 1.19-.18 1.22-.17 1.22-.19 1.22-.16 1.21-.16 1.24-.17 1.24-.14 1.24-.16 1.26-.16 1.27-.14 1.26-.14 1.26-.15 1.29-.13 1.28-.15 1.29-.14 1.31-.11 1.29-.12 1.31-.12 1.31-.11 1.33-.12 1.31-.12 1.33-.09 1.34-.12 1.33-.09 1.33-.09 1.36-.1 1.36-.07 1.35-.09 1.36-.07 1.35-.07 1.39-.07 1.35-.07 1.38-.05 1.38-.07 1.38-.05 1.38-.04 1.4-.03 1.38-.04 1.41-.03 1.38-.02 1.4-.02 1.4-.03 1.41-.02 1.4v2.83H0v-1.12l.02-1.15v-1.12l.03-1.15.02-1.12.05-1.14.02-1.15.05-1.15.04-1.14.05-1.15.07-1.17.07-1.15.07-1.14.07-1.17.07-1.15.09-1.14.1-1.17.09-1.17.1-1.15.09-1.17.12-1.14.11-1.17.12-1.17.14-1.15.12-1.17.14-1.17.14-1.14.14-1.17.14-1.17.16-1.15.14-1.17.17-1.14.16-1.17.19-1.15.16-1.17.19-1.14.19-1.15.18-1.17.19-1.15.19-1.14.21-1.15.21-1.14.21-1.13.21-1.14.21-1.15.21-1.12.23-1.15.24-1.12.23-1.12.24-1.13.23-1.12.26-1.12.23-1.12.26-1.1.26-1.12.25-1.11.26-1.09.26-1.08.28-1.08.26-1.09.27-1.08.29-1.08.28-1.07.28-1.08.3-1.07.28-1.06.31-1.05.28-1.05.3-1.06.31-1.02.3-1.06.33-1.03.3-1.02.3-1.01.33-1.01.33-1.03.33-.98.32-1 .33-.99.33-.98.33-.98.32-.96.36-.96.35-.96.32-.96.35-.93.36-.94.35-.93.35-.91.35-.92.37-.89.35-.91.35-.89.38-.86.37-.89.35-.84.38-.87.37-.84.37-.84.38-.82.37-.84.38-.8.37-.79.4-.8.37-.79.4-.77.38-.78.39-.74.38-.75.39-.73.4-.72.4-.73.4-.7.39-.68.4-.7.4-.65.4-.68.4-.66.39-.63.4-.63.4-.61.42-.61.4-.61.39-.58.43-.56.39-.56.42-.54.4-.54.42-.54.4-.51.42-.49.4-.49.42-.47.42-.47.4-.44.42-.42.42-.45.4-.4.42-.39.42-.38.4-.37.42-.35.42-.35.42-.33.4-.31.42-.3.42-.28.42-.28.4-.26.42-.23.42-.24.4-.21.42-.18.42-.19.4-.16.42-.17.42-.12.4-.14.42-.09.4-.09.42-.07.39-.05.43-.05.39-.02h1.08l.68.05.65.09.66.12.65.14.63.18.64.22.63.25.6.26.61.3.61.33.59.35.58.4.59.4.58.44.56.47.54.49.56.51.54.52.54.56.53.59.52.6.51.64.49.63.52.67.49.68.47.71.49.72.47.75.46.75.45.77.44.79.45.8.44.84.42.82.43.86.42.85.39.89.4.88.4.89.4.92.37.91.38.93.37.94.35.93.35.96.35.96.33.99.35.95.3.99.33.98.31.98.32 1.01.28.98.31 1 .28.99.28 1 .28 1.01.26 1 .25.99.26 1 .26 1.01.23.98.24 1.01.23.98.21.98.23.98.21.98.19.96.21.96.19.96.19.94.16.96.19.91.16.93.17.92.14.89.16.88.14.89.14.87.12.84.14.84.11.82.1.82zM170.29 123.45H174l1.56.3 1.06.79.39 1.15-.28 1-.75.7-1 .33 1.29.79.59 1.15.14 1.49h-1.7l-.21-1.61-.68-.91-1.33-.31h-1.34v2.83h-1.45v-7.78zm1.45 3.71h1.71l1.08-.16.63-.44.19-.75-.17-.59-.51-.39-1-.15h-1.94v2.48zm1.55-6.43l1.1.1 1 .25 1 .4.87.54.8.68.65.77.56.86.4 1 .26 1 .09 1.07-.09 1.1-.26 1-.4 1-.56.89-.65.77-.8.68-.87.54-1 .39-1 .26-1.1.09-1.08-.09-1-.26-1-.39-.89-.54-.77-.68-.68-.77-.53-.89-.4-1-.26-1-.09-1.1.09-1.07.26-1 .4-1 .53-.86.68-.77.77-.68.89-.54 1-.4 1-.25 1.08-.1zm0 12.68l1.07-.09 1-.29.93-.44.85-.58.72-.73.59-.82.44-.93.28-1 .09-1.08-.09-1.07-.28-1-.44-.94-.59-.81-.72-.73-.85-.58-.93-.45-1-.28-1.07-.09-1.08.09-1 .28-.92.45-.84.58-.72.73-.59.81-.44.94-.28 1-.1 1.07.1 1.08.28 1 .44.93.59.82.72.73.84.58.92.44 1 .29 1.08.09z"></path></g></g></svg> 