<?xml version="1.0" encoding="UTF-8"?> <svg xmlns="http://www.w3.org/2000/svg" viewBox="0 0 180 38.44"><defs><style>.cls-1{fill:#fff}</style></defs><g id="Layer_2" data-name="Layer 2"><g id="Isolation_Mode" data-name="Isolation Mode"><path class="cls-1" d="M0 0h18.29v18.29H0V0zM20.15 0h18.29v18.29H20.15V0zM164.89 7a7.19 7.19 0 0 1 5.77-.68v3.39a3.77 3.77 0 0 0-2.92-.27 2.32 2.32 0 0 0-1.32 1.85 24.33 24.33 0 0 0-.07 3h5.78v-3.76c1.31-.37 2.61-.79 3.91-1.18v5h3.91v3.21c-1.31-.05-2.62 0-3.93 0v5.54c0 1 0 2.05.07 3.07a2 2 0 0 0 .91 1.43 3 3 0 0 0 3-.28v3.24a7.7 7.7 0 0 1-3.62.55 4.32 4.32 0 0 1-3.11-1.43 5.87 5.87 0 0 1-1.12-3.77v-8.5h-5.79v13.34h-4V17.41h-2.75v-3.17h2.74a17 17 0 0 1 .27-4.22 5.43 5.43 0 0 1 2.23-3zM80.22 7.2a2.43 2.43 0 0 1 2.19.8 2.27 2.27 0 0 1 .28 2.57 2.47 2.47 0 0 1-2.64 1.1 2.22 2.22 0 0 1-1.83-2.2 2.27 2.27 0 0 1 2-2.24zM49.91 7.69h5.76q2.69 6.81 5.38 13.63c.46 1.14.89 2.29 1.37 3.41 2.3-5.68 4.64-11.34 6.92-17h5.54v23.06h-4v-17-.76a2.71 2.71 0 0 0-.21.37c-2.29 5.8-4.62 11.59-6.89 17.41h-2.84q-3.54-8.7-7-17.43a4 4 0 0 0-.2-.35c-.05 2.48 0 5 0 7.45v10.27h-3.83V7.69zM91.11 14.21a10.74 10.74 0 0 1 5.87 0 5.29 5.29 0 0 1 1.13.47v3.78a6.29 6.29 0 0 0-4.52-1.38 4.62 4.62 0 0 0-3.28 1.82 6.38 6.38 0 0 0-1 4.58 4.67 4.67 0 0 0 5.3 4.39 7.62 7.62 0 0 0 3.55-1.46v3.58a9.62 9.62 0 0 1-5.4 1.12A8 8 0 0 1 87.55 29a8.24 8.24 0 0 1-2.4-5.53 10.08 10.08 0 0 1 1.57-6.14 7.94 7.94 0 0 1 4.39-3.09zM134.3 14a10.56 10.56 0 0 1 5.48.57v3.64a7 7 0 0 0-4.15-1.23 2.11 2.11 0 0 0-1.89 1.02 1.7 1.7 0 0 0 .57 2c1.12.75 2.46 1.07 3.62 1.74a5.21 5.21 0 0 1 2.27 2.16 4.82 4.82 0 0 1-1 5.56 7.57 7.57 0 0 1-5.51 1.67 11.89 11.89 0 0 1-4-.92v-3.82a8.59 8.59 0 0 0 3.59 1.54 4.55 4.55 0 0 0 2.73-.25 1.57 1.57 0 0 0 .47-2.24 4.77 4.77 0 0 0-1.73-1.13 16.64 16.64 0 0 1-3.41-1.75 4.12 4.12 0 0 1-1.48-2.24 5.1 5.1 0 0 1 .55-3.95A5.9 5.9 0 0 1 134.3 14zM107 14.47a4.48 4.48 0 0 1 3.67-.31v4a4.25 4.25 0 0 0-2.67-.63 3.28 3.28 0 0 0-2.48 2 7.36 7.36 0 0 0-.56 3.38v7.9H101V14.23h3.9v2.83a5.13 5.13 0 0 1 2-2.59zM78.58 14.23h3.93v16.52h-3.93V14.23zM127 18.08a6.94 6.94 0 0 0-3.45-3.49 10.52 10.52 0 0 0-5.66-.67 7.9 7.9 0 0 0-5.2 2.78 8.79 8.79 0 0 0-1.82 5.05 9.48 9.48 0 0 0 1.44 6.17 7.48 7.48 0 0 0 4.57 3 11.46 11.46 0 0 0 4.63 0 7.67 7.67 0 0 0 4.54-2.8 8.76 8.76 0 0 0 1.74-4.82 10.69 10.69 0 0 0-.79-5.22zm-3.81 7.59a3.61 3.61 0 0 1-2 1.91 5.36 5.36 0 0 1-3.22.14 4 4 0 0 1-2.48-2 7.6 7.6 0 0 1-.6-4.13 5.23 5.23 0 0 1 1.53-3.45 4.08 4.08 0 0 1 2.6-1 4.27 4.27 0 0 1 3.31 1.12 5.36 5.36 0 0 1 1.36 3.45 8.68 8.68 0 0 1-.49 3.96zM158.69 18.56a7.1 7.1 0 0 0-3.4-3.85 10.19 10.19 0 0 0-5.87-.79 7.72 7.72 0 0 0-7 7 11 11 0 0 0 .62 5.74 7.39 7.39 0 0 0 4 3.9 10.66 10.66 0 0 0 5.57.47 7.71 7.71 0 0 0 4.86-2.85 9 9 0 0 0 1.79-5.63 10.56 10.56 0 0 0-.57-3.99zm-3.57 5.6a5.15 5.15 0 0 1-1 2.43 3.73 3.73 0 0 1-2.31 1.24 5.25 5.25 0 0 1-2.83-.31 4 4 0 0 1-2.09-2.18 7.87 7.87 0 0 1-.47-3.6 5.75 5.75 0 0 1 1.2-3.29 4.06 4.06 0 0 1 2.89-1.39 4.37 4.37 0 0 1 3.17.94 4.52 4.52 0 0 1 1.43 2.63 10.21 10.21 0 0 1 .01 3.53zM0 20.15h18.29v18.29H0V20.15zM20.15 20.15h18.29v18.29H20.15V20.15z"></path></g></g></svg> 