<?xml version="1.0" encoding="UTF-8"?> <svg xmlns="http://www.w3.org/2000/svg" viewBox="0 0 180 101.83"><defs><style>.cls-1{fill:#fff;fill-rule:evenodd}</style></defs><g id="Layer_2" data-name="Layer 2"><g id="Isolation_Mode" data-name="Isolation Mode"><path class="cls-1" d="M62.86 19.8a1 1 0 0 1 .08-1c.43-.66.83.06.83.06 1.48 2.07.39 5.17.39 5.17a7.42 7.42 0 0 0-1.3-4.21zm12.79 13.7c0-.6.08-1.95-.54-2.44-.23-.18-1.11-1.16-1.11-1.16-.14-.24-.24-.26-.24-.26-.19 0-.43.42-.43.42-.66 1.23-1.33 1.08-1.33 1.08a1.17 1.17 0 0 1 .15-.48l.92-1.8c.09-.22.18-.51.18-.51.62-1 1.2-.23 1.2-.23a23.79 23.79 0 0 0 1.65 2.17 1.48 1.48 0 0 1 .34.76c.32 2.27-.82 2.45-.82 2.45zM72 39.29c-.26 0-.33-.11-.29-.4a1.8 1.8 0 0 1 .82-1.15c1.21-.73 1.36 0 1.36 0 .22 1.3-.8 1.46-.8 1.46a7.44 7.44 0 0 1-1.09.09zm-52.77 3.76a.49.49 0 0 1 .12.58 11.33 11.33 0 0 0-.65 2.47s-1.49.27-1.7-.47a1.19 1.19 0 0 1 .2-.7 2.48 2.48 0 0 0 .32-1.09s0-1.78 1.13-1.31a2.21 2.21 0 0 1 .58.52zm1.82-2.95a1.13 1.13 0 0 1 .93-.25c.73.16.29.79.29.79A9.13 9.13 0 0 1 21 42.11a1.12 1.12 0 0 1-1.51-.11c-.63-.62.19-.92.19-.92a7.83 7.83 0 0 0 1.37-1zM29.82 29a9.94 9.94 0 0 0 .92 4.95s.87 1.24 0 2L28.89 37a1.75 1.75 0 0 1-1.05.12s-1.12-.27-1.49.22a15.82 15.82 0 0 1-.73 1.73 5.45 5.45 0 0 1-2.2 2.5A2.1 2.1 0 0 0 22 42.8a1.36 1.36 0 0 1-1.05.69s-.52.17-.87 1.34a6.16 6.16 0 0 0-.18 1.33 3.87 3.87 0 0 1 1.48.09 1.74 1.74 0 0 0 2.07-.7s1.24-2.12 2.16-1.8a3.19 3.19 0 0 0 3.14-.75 5.23 5.23 0 0 1 4.32-1.55s2.85.58 3.73-.08c0 0 1.8-.94 2.47-1.17a1.33 1.33 0 0 0 .91-1.14 8.71 8.71 0 0 1 .87-1.7h-1.36a6.59 6.59 0 0 1-3.32 2.69 7 7 0 0 1-3.44.09 6.83 6.83 0 0 0-6.18 2.37.87.87 0 0 1-1 .35 7.85 7.85 0 0 1 5.15-3.36 6.56 6.56 0 0 1 2.1-.09 7.77 7.77 0 0 0 6.92-4.52s-.24-4 .81-4.9c0 0 .4-.13.32.64 0 0-.72 4.16.64 5a3 3 0 0 0 2.23.39 11.7 11.7 0 0 1 4-.22 16.84 16.84 0 0 0 5.11.35 3.47 3.47 0 0 1-.5-2.06s.34-.81.73-.29c0 0 .91 3 3.39 3.9a3.69 3.69 0 0 1 2.18 3.63s-.34.38-3.28 1.43c0 0-1.1.34-1.45-.48 0 0-1.42-3-2.65-2.94l-2.32.19s-.79.2-.21.83A17.51 17.51 0 0 1 50 42s.09.54.84.42c0 0 1-.51 1.62 1.42a3 3 0 0 0 1.43 1.27 2.21 2.21 0 0 0 1.67-.11 39.18 39.18 0 0 0 4.5-1.9 2.19 2.19 0 0 1 1.48-.24 1.5 1.5 0 0 0 1.62-.63l1.19-1.84a2 2 0 0 0 .23-1 1.49 1.49 0 0 0-.37-1.13 2.42 2.42 0 0 1-.52-.82l-.85-2a2.71 2.71 0 0 0-.72-.75l-1.12.02a18.85 18.85 0 0 0 1.35 2.8 4.46 4.46 0 0 1 .73 1.93 1.55 1.55 0 0 1-.26.74s-.26.42-.36.62a2.88 2.88 0 0 1-.62.91 3.38 3.38 0 0 1-.6.29s-.21.06 0-.31a6.15 6.15 0 0 0 .59-2 1.35 1.35 0 0 0-.4-1.17A21.84 21.84 0 0 1 60 35.94a4.19 4.19 0 0 0-.59-.91.51.51 0 0 1 .26-.83 13 13 0 0 0 2-.6s.83-.25 1.37-2a12.34 12.34 0 0 0 .73-3.27 5.35 5.35 0 0 1-.86 5.67s1.83.54 2.59 0c0 0 2.29-.33 2.74-.46 0 0 .57-.14.24.27a4.61 4.61 0 0 0-.74 1.63 1.23 1.23 0 0 1-.47.81s-1.3.91-1.42 1.79c0 0-.27.84.3.64 0 0 .78-.37 1.06 0 0 0 .08 0-.22.37a2.63 2.63 0 0 0-.85 1.6 4.07 4.07 0 0 0 .43 1.39.87.87 0 0 0 .9.33.47.47 0 0 1 .42 0 3.77 3.77 0 0 0 1-.24s1.09-.3 1.46-.43a7.54 7.54 0 0 1 2.07-.46 3.69 3.69 0 0 1 1 .06 3.63 3.63 0 0 0 2.89-1.08s.88-.7 1.18 0A5.74 5.74 0 0 0 83 42.27s-2.72-1.12-3.42-2.65a6.37 6.37 0 0 0-1.52-3.08s-.44-.6 0-.75c0 0 .24-.19.78.35a9.22 9.22 0 0 1 1.84 2.48s1.68 2.54 4.1 1.69a6.77 6.77 0 0 1-2.8-2.1 6.94 6.94 0 0 0-2.4-3.21 7 7 0 0 0-.94-3.25s-.44-1.95-.56-2.41a16.57 16.57 0 0 1-.47-2.19 6.18 6.18 0 0 0-1.29-4A12.29 12.29 0 0 0 73.85 20s-1.15-1.42-2-2.29a20.67 20.67 0 0 0-3.57-3A15.49 15.49 0 0 1 66.37 13s-4.32-3.1-7.43-.61A15.65 15.65 0 0 1 55 14.3s-3.69.43-5.27 3c0 0-.13.47-1.62.65a6.57 6.57 0 0 0-5.68 2.82 6 6 0 0 1-3.33 1.36 7.4 7.4 0 0 0-6 2.4s-5.93 5.17-9.47 1.82c0 0-1.83-1.74.27-4.88a22.64 22.64 0 0 1 3.59-3.28 2.82 2.82 0 0 0 1-3.31s-.45-1.94-3.2-2c0 0-3.46-.66-4.86-2.41 0 0-1.56 5.5 4.57 5.41 0 0 1.59.23 1 1.5a4.73 4.73 0 0 1-1.84 1.48 5.57 5.57 0 0 0-2.68 3.5s-1.87 4.71 2.69 6.53a11.33 11.33 0 0 0 5.58.11z"></path><path d="M175.41 63.35a1.47 1.47 0 0 1 1.67 1.45A1.27 1.27 0 0 1 176 66a.93.93 0 0 1 .59.59l.92 2.1h-.76l-.89-2c-.12-.27-.19-.44-.63-.44h-.6v2.4h-.69v-5.3zm-.83 2.29h.65c.75 0 1.12-.44 1.12-.84s-.09-.84-1-.84h-.81v1.68zm.93-4.17A4.5 4.5 0 1 1 171 66a4.5 4.5 0 0 1 4.49-4.49zm0 8.38a3.89 3.89 0 1 0-3.88-3.85 3.85 3.85 0 0 0 3.88 3.89z" fill="#fff"></path><path class="cls-1" d="M34.18 86.25h9.12S42.92 82 38.8 82s-4.62 4.3-4.62 4.3zm4.75-9.49c12.28 0 11.77 12 11.77 12v1.89H34.05a5.2 5.2 0 0 0 5.39 5.07c3.1 0 4.68-3 4.68-3l5.88 2.9a12 12 0 0 1-10.5 5.76c-12.79 0-13-10.63-13-12s.19-12.66 12.47-12.66zm27.34 17.91c-.38 0-5.12.07-5.12-5.75s5.19-6 5.19-6 5.82.19 5.82 5.89-5.51 5.88-5.89 5.88zm5.58-32.74v17.55a14.25 14.25 0 0 0-7.6-2.72c-4 0-10.89 2.85-10.89 11.84S59.18 101 64.19 101A10.66 10.66 0 0 0 72 97.71v2.93h7.22V61.93zm48.67 16h7.34v13s.26 4.37 4.37 4.37 4.05-4.37 4.05-4.37V78h7.41v13.38s.95 10.45-11.27 10.45-11.9-9.18-11.9-10.83V78zm27.44-16h7.25v38.71H148V61.93zm12.31 0h7.16v38.71h-7.16V61.93zM105.8 94.17h-6.86V70h3.67s5-.38 5 4a3.6 3.6 0 0 1-4 4h-2.29v6.52h4.46a4.67 4.67 0 0 1 4.9 4.86c0 4.28-4.9 4.89-4.9 4.89zm6.2-13.74a10 10 0 0 0 3.35-7.55c0-4.95-3.59-9.41-11.24-9.41H91.28v37.17h15.78s11.31-.13 11.31-10.35c0-5.94-2.31-8.21-6.39-9.86zM0 62.68v38h7.66V69.92h3.61s5.63-.25 5.63 4.88-5 5-5 5h-1.84v8.73l7.66 12.11h9L16 85.12a9.83 9.83 0 0 0 8.8-10.32c0-9.56-6.64-12.12-15.5-12.12zM109.51 19.8a1 1 0 0 0-.08-1c-.43-.66-.83.06-.83.06-1.48 2.07-.38 5.17-.38 5.17a7.47 7.47 0 0 1 1.29-4.21zM96.72 33.5c0-.6-.08-1.95.54-2.44.23-.18 1.13-1.16 1.13-1.16.14-.24.25-.26.25-.26.18 0 .42.42.42.42.64 1.23 1.28 1.08 1.28 1.08a1.07 1.07 0 0 0-.14-.48c-.18-.33-.92-1.8-.92-1.8a4.11 4.11 0 0 1-.18-.51c-.62-1-1.21-.23-1.21-.23a23.79 23.79 0 0 1-1.65 2.17 1.52 1.52 0 0 0-.33.76c-.33 2.27.81 2.45.81 2.45zm3.66 5.79c.26 0 .33-.11.3-.4a1.83 1.83 0 0 0-.83-1.15c-1.21-.73-1.36 0-1.36 0-.22 1.3.81 1.46.81 1.46a7.23 7.23 0 0 0 1.08.09zm52.77 3.76a.49.49 0 0 0-.13.58 11.33 11.33 0 0 1 .65 2.47s1.5.27 1.7-.47a1.19 1.19 0 0 0-.2-.7 2.66 2.66 0 0 1-.32-1.09s0-1.78-1.13-1.31a2 2 0 0 0-.57.52zm-1.83-2.95a1.13 1.13 0 0 0-.93-.25c-.73.16-.29.79-.29.79a9.58 9.58 0 0 0 1.26 1.47 1.1 1.1 0 0 0 1.52-.12c.63-.62-.19-.92-.19-.92a7.83 7.83 0 0 1-1.37-1zM142.55 29a10 10 0 0 1-.91 4.95s-.88 1.24 0 2l1.84 1.05a1.78 1.78 0 0 0 1.06.12s1.11-.27 1.49.22a13.85 13.85 0 0 0 .73 1.73A5.4 5.4 0 0 0 149 41.6a2.1 2.1 0 0 1 1.42 1.2 1.36 1.36 0 0 0 1 .69s.53.17.87 1.34a6.6 6.6 0 0 1 .19 1.33 3.86 3.86 0 0 0-1.48.09 1.75 1.75 0 0 1-2.08-.7s-1.24-2.12-2.15-1.8a3.2 3.2 0 0 1-3.15-.73 5.23 5.23 0 0 0-4.32-1.55s-2.84.58-3.73-.08c0 0-1.79-.94-2.47-1.17a1.35 1.35 0 0 1-.91-1.14 9.1 9.1 0 0 0-.86-1.7h1.35a6.59 6.59 0 0 0 3.32 2.68 7.05 7.05 0 0 0 3.44.09 6.83 6.83 0 0 1 6.18 2.37.87.87 0 0 0 1 .35 7.81 7.81 0 0 0-5.1-3.37 6.61 6.61 0 0 0-2.11-.09 7.77 7.77 0 0 1-6.92-4.52s.24-4-.81-4.9c0 0-.4-.13-.32.64 0 0 .72 4.16-.63 5a3 3 0 0 1-2.24.39 11.66 11.66 0 0 0-4-.22 16.88 16.88 0 0 1-5.11.35 3.51 3.51 0 0 0 .49-2.06s-.34-.81-.73-.29c0 0-.91 3-3.39 3.9a3.69 3.69 0 0 0-2.18 3.63s.34.38 3.28 1.43c0 0 1.1.34 1.45-.48 0 0 1.42-3 2.66-2.94l2.32.19s.79.2.2.83a17.51 17.51 0 0 0-1.14 1.64s-.09.54-.84.42c0 0-1-.51-1.61 1.42a3.07 3.07 0 0 1-1.44 1.27 2.21 2.21 0 0 1-1.64-.17 38.43 38.43 0 0 1-4.49-1.9 2.21 2.21 0 0 0-1.49-.24 1.5 1.5 0 0 1-1.62-.63L108 40.34a2 2 0 0 1-.22-1 1.44 1.44 0 0 1 .37-1.13 2.45 2.45 0 0 0 .51-.82l.85-2a2.71 2.71 0 0 1 .72-.75l1.13.08a18.85 18.85 0 0 1-1.35 2.8 4.46 4.46 0 0 0-.73 1.93 1.55 1.55 0 0 0 .26.74s.26.42.37.62a2.88 2.88 0 0 0 .62.91 3.6 3.6 0 0 0 .59.29s.21.06.06-.31a6.09 6.09 0 0 1-.6-2 1.34 1.34 0 0 1 .41-1.17A21.84 21.84 0 0 0 112.4 36a3.84 3.84 0 0 1 .6-1 .51.51 0 0 0-.27-.83 13 13 0 0 1-2-.6s-.83-.25-1.37-2a12.34 12.34 0 0 1-.73-3.27 5.34 5.34 0 0 0 .87 5.67s-1.84.54-2.6 0c0 0-2.29-.33-2.73-.46 0 0-.58-.14-.25.27a4.76 4.76 0 0 1 .75 1.63 1.2 1.2 0 0 0 .46.81s1.3.91 1.42 1.79c0 0 .28.84-.3.64 0 0-.78-.37-1 0 0 0-.08 0 .22.37a2.64 2.64 0 0 1 .84 1.6 4.23 4.23 0 0 1-.42 1.39.87.87 0 0 1-.91.33.47.47 0 0 0-.42 0 3.77 3.77 0 0 1-1-.24s-1.09-.3-1.45-.43a7.64 7.64 0 0 0-2.08-.46 3.69 3.69 0 0 0-1 .06 3.64 3.64 0 0 1-2.89-1.08s-.88-.7-1.18 0a5.74 5.74 0 0 1-5.53 2.09s2.72-1.12 3.43-2.65a6.25 6.25 0 0 1 1.52-3.08s.43-.6 0-.75c0 0-.24-.19-.77.35a9.22 9.22 0 0 0-1.84 2.48s-1.77 2.53-4.18 1.68a6.77 6.77 0 0 0 2.8-2.1A6.92 6.92 0 0 1 92.8 35a6.9 6.9 0 0 1 .94-3.25s.44-1.95.56-2.41a16.89 16.89 0 0 0 .46-2.19 6.18 6.18 0 0 1 1.29-4A12.2 12.2 0 0 1 98.53 20s1.14-1.42 2-2.29a21.2 21.2 0 0 1 3.57-3A15.22 15.22 0 0 0 106 13s4.31-3.1 7.42-.61a15.85 15.85 0 0 0 3.95 1.92s3.7.43 5.27 3c0 0 .13.47 1.62.65a6.57 6.57 0 0 1 5.74 2.8 6.05 6.05 0 0 0 3.33 1.36 7.4 7.4 0 0 1 6 2.4s5.93 5.17 9.47 1.82c0 0 1.83-1.74-.26-4.88a22.47 22.47 0 0 0-3.6-3.28 2.82 2.82 0 0 1-1-3.31s.45-1.94 3.21-2c0 0 3.45-.66 4.85-2.41 0 0 1.56 5.5-4.57 5.41 0 0-1.59.23-1 1.5a4.66 4.66 0 0 0 1.83 1.48 5.57 5.57 0 0 1 2.68 3.5s1.87 4.71-2.69 6.53a11.33 11.33 0 0 1-5.58.11zM84.84 41.63l1.35.55 1.34-.55-.36-.11-1-.35-1 .35z"></path><path class="cls-1" d="M107.34 41.65a3.27 3.27 0 0 1-.52 1.2 2.25 2.25 0 0 1-1.7.86 2.5 2.5 0 0 1-.54-.07h-.1a4.82 4.82 0 0 1-1.37-.31c-.22-.06-1.13-.31-1.51-.45a7 7 0 0 0-1.6-.38h-.32a2.77 2.77 0 0 0-.51 0h-.1a2.68 2.68 0 0 1-.41 0 5 5 0 0 1-3.2-1.14 7.1 7.1 0 0 1-5 2.24 6.83 6.83 0 0 1-1.41-.15l-2.89-.64-2.9.64a6.76 6.76 0 0 1-1.41.15 7.05 7.05 0 0 1-5-2.24 5 5 0 0 1-3.21 1.14 2.5 2.5 0 0 1-.4 0h-.11a2.77 2.77 0 0 0-.51 0h-.32a6.86 6.86 0 0 0-1.58.39c-.36.13-1.28.38-1.5.44a4.75 4.75 0 0 1-1.37.31h-.1a2.41 2.41 0 0 1-.53.07 2.18 2.18 0 0 1-1.71-.87 3.22 3.22 0 0 1-.51-1.19l-.45.7a26.77 26.77 0 0 0 43.37.23zM67.22 12l.08.09a13.4 13.4 0 0 0 1.7 1.53 22.6 22.6 0 0 1 3.76 3.2c.77.79 1.72 1.94 2 2.26a13.42 13.42 0 0 1 2.62 3.35 7.63 7.63 0 0 1 1.51 4.71 16.31 16.31 0 0 0 .43 1.86c.1.38.39 1.68.51 2.22a7.79 7.79 0 0 1 1 3.11 8.58 8.58 0 0 1 2.33 3.3 5.5 5.5 0 0 0 2.1 1.49l1 .37.93-.37a5.6 5.6 0 0 0 2.11-1.49 8.35 8.35 0 0 1 2.33-3.3 7.6 7.6 0 0 1 1-3.11c.28-1.22.45-1.95.52-2.23.18-.68.4-1.6.42-1.83A7.53 7.53 0 0 1 95 22.43a13.42 13.42 0 0 1 2.62-3.35c.27-.32 1.22-1.47 2-2.26a22.92 22.92 0 0 1 3.77-3.2 15 15 0 0 0 1.72-1.5l.09-.09.1-.08a11.49 11.49 0 0 1 2.48-1.27 26.77 26.77 0 0 0-42.86.1A11 11 0 0 1 67.11 12z"></path></g></g></svg> 